<svg width="24" height="24" viewBox="0 0 24 24" fill="none" xmlns="http://www.w3.org/2000/svg">
<path d="M21.6642 7.93035C21.1383 6.67533 20.3733 5.53461 19.4118 4.57176C18.4532 3.60723 17.3144 2.84037 16.0603 2.31473C14.7754 1.77363 13.395 1.49626 12.0009 1.4991H11.954C10.536 1.50613 9.16494 1.78738 7.87353 2.34051C6.63011 2.87154 5.50206 3.63976 4.55244 4.60223C3.60025 5.56292 2.84402 6.69965 2.32588 7.9491C1.78802 9.24839 1.51549 10.6421 1.52432 12.0483C1.53135 13.6749 1.92041 15.2897 2.64697 16.7335V20.296C2.64697 20.8913 3.12979 21.3741 3.72275 21.3741H7.28057C8.73105 22.106 10.3317 22.4911 11.9563 22.4991H12.0056C13.4071 22.4991 14.7642 22.2272 16.0438 21.6952C17.2917 21.1758 18.4262 20.4179 19.3837 19.4639C20.3493 18.5054 21.1087 17.385 21.6407 16.1358C22.1915 14.8421 22.4728 13.4663 22.4798 12.046C22.4845 10.6186 22.2079 9.23348 21.6642 7.93035ZM7.32275 13.1241C6.704 13.1241 6.2001 12.6202 6.2001 11.9991C6.2001 11.378 6.704 10.8741 7.32275 10.8741C7.9415 10.8741 8.44541 11.378 8.44541 11.9991C8.44541 12.6202 7.94385 13.1241 7.32275 13.1241ZM12.0009 13.1241C11.3821 13.1241 10.8782 12.6202 10.8782 11.9991C10.8782 11.378 11.3821 10.8741 12.0009 10.8741C12.6196 10.8741 13.1235 11.378 13.1235 11.9991C13.1235 12.6202 12.6196 13.1241 12.0009 13.1241ZM16.679 13.1241C16.0603 13.1241 15.5563 12.6202 15.5563 11.9991C15.5563 11.378 16.0603 10.8741 16.679 10.8741C17.2978 10.8741 17.8017 11.378 17.8017 11.9991C17.8017 12.6202 17.2978 13.1241 16.679 13.1241Z" fill="#DCDCDC"/>
</svg>
