<svg xmlns="http://www.w3.org/2000/svg" viewBox="0 0 5000 3000"><defs><style>.cls-1{fill:#70abaf;}.cls-2{fill:#317717;}.cls-3{fill:#58b232;}.cls-4{fill:#439617;}.cls-5{fill:#73bc51;}.cls-6{fill:#256809;}.cls-7{fill:#eebd6b;}.cls-8{fill:#c98b31;}.cls-9{fill:#424242;}.cls-10{fill:#fff;}.cls-11{fill:#e8e8e8;}.cls-12{fill:#d6d6d6;}</style></defs><g id="Layer_3" data-name="Layer 3"><path class="cls-1" d="M4634.71,748.46C4472.51,263,3947.43.85,3461.92,163.05c-2.41.81-4.82,1.62-7.22,2.45A628.86,628.86,0,0,1,3129,187.64a921.13,921.13,0,0,0-402.13,10.27,931.5,931.5,0,0,0-174.39,62.47A473.12,473.12,0,0,1,2141,258.14,1007.34,1007.34,0,0,0,1977.66,195C1446.15,41,890.41,347,736.38,878.5c-.19.65-.37,1.29-.56,1.93A719.23,719.23,0,0,1,549.34,1194a995.92,995.92,0,0,0-233.56,359.7C100.92,2125.52,444.87,2757,1041.83,2886.59A997.38,997.38,0,0,0,1641,2831.18c119.84-50.35,254.59-52.26,375.23-3.86q46.34,18.6,95.34,32.84c225.69,65.4,455.74,47.86,657.55-34.67,143.76-58.79,304.48-61.07,449.1-4.42,195.06,76.4,417,87.45,631.24,15.88,434.93-145.31,690.56-581.81,622.5-1020.21a377.27,377.27,0,0,1,57.93-265C4680.53,1322.43,4728.38,1028.86,4634.71,748.46Z"/></g><g id="Layer_6" data-name="Layer 6"><path class="cls-2" d="M3865.94,1610.79c25.65,222.81,68.37,315.39-40.79,328-98.56,11.35-89-87.25-114.64-310.07s4.77-409.33,34-412.69S3840.29,1388,3865.94,1610.79Z"/><path class="cls-3" d="M3740.34,1434.91c14-2.6,12.8-4.41,61.5.6,23.42,2.4,34.28.57,34.28.57l3.74,16.78s-17.94,4.63-44,1.55-45.31-.11-70.17,6.06l-24.87,6.17.06-17.39S3715.29,1439.55,3740.34,1434.91Z"/><path class="cls-3" d="M3750.28,1557.37c15.43-2.86,14.09-4.85,67.71.66,25.78,2.65,41-.26,41-.26l2.74,19.26s-21.6,5.21-50.24,1.82-49.89-.13-77.27,6.67l-27.37,6.79-1.63-19S3722.69,1562.49,3750.28,1557.37Z"/><path class="cls-3" d="M3766.35,1701.61c15.77-2.89,14.4-4.88,69.13.5,26.32,2.59,42.47-.48,42.47-.48l2.81,19.12a164.72,164.72,0,0,1-52,2.2c-29.23-3.32-51-.19-78.91,6.85s-28.12,6.9-28.12,6.9l-1.88-19.06S3738.18,1706.8,3766.35,1701.61Z"/><path class="cls-3" d="M3839.64,1820.29c-16,.76-42-.22-67.46,12.74-23.55,12-37.33,12-37.33,12l2.9,14.64a164.51,164.51,0,0,0,51.14-9.67c27.7-9.88,49.6-11.77,78.39-11.26s28.38.35,28.38.35l-.95-15.91A303.79,303.79,0,0,0,3839.64,1820.29Z"/><path class="cls-2" d="M4206.42,1657.34c-20,223.4,3.14,322.71-106.31,312.93-98.81-8.83-69.49-103.46-49.53-326.85s87.49-399.9,116.77-397.29S4226.38,1434,4206.42,1657.34Z"/><path class="cls-3" d="M4119,1459.69c14.26.29,13.42-1.73,60.1,13,22.45,7.1,33.46,7.5,33.46,7.5l.27,17.19s-18.51.91-43.35-7.37-44.35-9.28-69.95-8.27l-25.6,1,3.57-17S4093.53,1459.17,4119,1459.69Z"/><path class="cls-3" d="M4104,1581.63c15.69.32,14.77-1.9,66.17,14.34,24.72,7.82,40.18,8,40.18,8l-1.21,19.42s-22.21.74-49.57-8.38-48.83-10.22-77-9.1l-28.18,1.11,2.25-19S4075.91,1581.06,4104,1581.63Z"/><path class="cls-3" d="M4090.51,1726.14c16,.35,15.09-1.87,67.6,14.47,25.25,7.86,41.69,8.13,41.69,8.13l-1.11,19.29a164.66,164.66,0,0,1-51.37-8.37c-27.94-9.17-49.89-10.5-78.66-9.25s-28.93,1.07-28.93,1.07l2-19S4061.87,1725.51,4090.51,1726.14Z"/><path class="cls-3" d="M4138.27,1857.19c-15.83-2.5-41.13-8.73-68.63-1.17-25.51,7-39,4.17-39,4.17l-.13,14.92a164.81,164.81,0,0,0,52,.88c29.13-4.07,51-1.49,79,4.83s27.72,6.09,27.72,6.09l2.29-15.78A304.28,304.28,0,0,0,4138.27,1857.19Z"/><path class="cls-2" d="M4092.59,1604.12c0,291.14,37,416.87-90.65,416.87-115.24,0-91.1-125.73-91.1-416.87s59.89-527.15,94-527.15S4092.59,1313,4092.59,1604.12Z"/><path class="cls-3" d="M3971,1358.67c16.53-1.27,15.35-3.79,70.89,9.9,26.71,6.58,39.49,5.83,39.49,5.83l2.09,22.19s-21.33,3.32-50.93-4.52-52.28-6.88-81.79-2.61l-29.52,4.27,2.38-22.42S3941.48,1360.94,3971,1358.67Z"/><path class="cls-3" d="M3966.21,1518.07c18.19-1.4,16.9-4.17,78.05,10.9,29.41,7.25,47.32,5.74,47.32,5.74l.6,25.25s-25.62,3.51-58.21-5.11-57.56-7.57-90.06-2.88l-32.5,4.7.65-24.81S3933.69,1520.57,3966.21,1518.07Z"/><path class="cls-3" d="M3965.6,1706.46c18.58-1.4,17.26-4.17,79.7,10.9,30,7.25,49.08,5.69,49.08,5.69l.71,25.07s-27,3.75-60.3-4.88-58.81-7.81-92-2.88-33.37,4.73-33.37,4.73l.37-24.87S3932.39,1709,3965.6,1706.46Z"/><path class="cls-3" d="M4034.4,1870.38c-18.58-1.4-48.49-6.53-79.54,6.42-28.78,12-44.66,9.89-44.66,9.89l1.39,19.3s27,3.75,60.3-4.87,58.81-7.82,92-2.88,32.7,4.66,32.7,4.66l1-20.66S4067.61,1872.87,4034.4,1870.38Z"/><path class="cls-2" d="M3956.35,1697.81c0,194.74,32.88,278.84-80.55,278.84-102.41,0-81-84.1-81-278.84s53.23-352.61,83.57-352.61S3956.35,1503.07,3956.35,1697.81Z"/><path class="cls-3" d="M3848.31,1533.62c14.69-.84,13.65-2.53,63,6.63,23.73,4.4,35.08,3.9,35.08,3.9l1.87,14.84s-19,2.22-45.26-3-46.46-4.6-72.68-1.75l-26.23,2.85,2.11-15S3822.07,1535.14,3848.31,1533.62Z"/><path class="cls-3" d="M3844.05,1640.25c16.16-.94,15-2.79,69.35,7.29,26.13,4.85,42,3.84,42,3.84l.54,16.88s-22.77,2.36-51.73-3.41-51.15-5.07-80-1.93l-28.88,3.15.58-16.6S3815.15,1641.92,3844.05,1640.25Z"/><path class="cls-3" d="M3843.5,1766.26c16.51-.93,15.34-2.79,70.83,7.29,26.69,4.85,43.61,3.81,43.61,3.81l.63,16.77a201.47,201.47,0,0,1-53.58-3.27c-29.58-5.77-52.26-5.22-81.73-1.92s-29.65,3.16-29.65,3.16l.32-16.63S3814,1767.93,3843.5,1766.26Z"/><path class="cls-3" d="M3904.64,1875.9c-16.51-.93-43.09-4.36-70.68,4.3-25.57,8-39.69,6.61-39.69,6.61l1.24,12.92a201.69,201.69,0,0,0,53.58-3.26c29.58-5.77,52.26-5.23,81.73-1.93s29.06,3.12,29.06,3.12l.9-13.82A367.28,367.28,0,0,0,3904.64,1875.9Z"/><path class="cls-4" d="M3806.32,1776.78c36.34,154,78,214.4-11.67,235.57-81,19.11-79.73-51.41-116.07-205.43s-23.72-288.81.28-294.47S3770,1622.76,3806.32,1776.78Z"/><path class="cls-5" d="M3690.23,1667.09c11.45-3.41,10.31-4.55,51.05-6.52,19.59-1,28.48-3.46,28.48-3.46l4.24,11.39s-14.57,5.29-36.35,6.06-37.6,5-57.81,12.18l-20.21,7.15-1.13-12.25S3669.76,1673.19,3690.23,1667.09Z"/><path class="cls-5" d="M3706.75,1752.21c12.61-3.75,11.36-5,56.22-7.17,21.57-1,34-4.82,34-4.82l3.57,13.26a156.05,156.05,0,0,1-41.55,7c-24,.85-41.4,5.54-63.65,13.42l-22.25,7.87-2.64-13.23S3684.21,1758.93,3706.75,1752.21Z"/><path class="cls-5" d="M3729.84,1852c12.88-3.82,11.61-5.07,57.38-7.45,22-1.15,35.2-5.13,35.2-5.13l3.63,13.14a163.76,163.76,0,0,1-43,7.42c-24.47,1-42.31,5.62-65,13.73s-22.86,8-22.86,8l-2.85-13.22S3706.81,1858.81,3729.84,1852Z"/><path class="cls-5" d="M3798.66,1927.28c-13.24,2.35-34.9,4.59-55.1,16.59-18.73,11.13-30.16,12.64-30.16,12.64l3.39,10a163.17,163.17,0,0,0,41.77-12.58c22.32-10.08,40.36-13.88,64.28-16.77s23.56-3,23.56-3l-1.86-11.1A299.59,299.59,0,0,0,3798.66,1927.28Z"/><path class="cls-4" d="M4237.79,1831.13c-12.4,157.28,1,228.16-63.78,217.94-58.51-9.22-40.9-75.21-28.49-232.48s52.87-280,70.2-277.25S4250.2,1673.86,4237.79,1831.13Z"/><path class="cls-5" d="M4186.53,1688.81c8.44.63,7.95-.82,35.56,11,13.28,5.69,19.8,6.31,19.8,6.31l.12,12.15s-11,.09-25.66-6.51-26.25-7.9-41.42-8l-15.16-.06,2.16-11.92S4171.44,1687.67,4186.53,1688.81Z"/><path class="cls-5" d="M4177.3,1774.53c9.29.7,8.75-.9,39.16,12.14,14.62,6.27,23.78,6.88,23.78,6.88l-.77,13.69s-13.16-.15-29.34-7.42-28.9-8.69-45.6-8.76l-16.7-.06,1.39-13.35S4160.68,1773.28,4177.3,1774.53Z"/><path class="cls-5" d="M4169,1876.26c9.49.73,8.94-.87,40,12.26,14.94,6.32,24.67,7,24.67,7l-.71,13.6s-13.87-.14-30.4-7.46-29.52-8.93-46.57-8.91-17.14-.12-17.14-.12l1.24-13.4S4152,1875,4169,1876.26Z"/><path class="cls-5" d="M4196.91,1970.31c-9.38-2.24-24.34-7.41-40.66-2.9-15.12,4.18-23.1,1.77-23.1,1.77l-.11,10.54a82.71,82.71,0,0,0,30.82,2.19c17.26-2,30.19.49,46.81,5.81s16.4,5.13,16.4,5.13l1.4-11.08A165.23,165.23,0,0,0,4196.91,1970.31Z"/><path class="cls-4" d="M4045.87,1663.13c0,208.48,35.19,298.51-86.24,298.51-109.64,0-86.67-90-86.67-298.51s57-377.49,89.46-377.49S4045.87,1454.65,4045.87,1663.13Z"/><path class="cls-5" d="M3930.2,1487.36c15.72-.91,14.61-2.71,67.44,7.09,25.41,4.71,37.56,4.17,37.56,4.17l2,15.9s-20.29,2.37-48.45-3.24-49.74-4.93-77.81-1.87l-28.08,3,2.26-16S3902.11,1489,3930.2,1487.36Z"/><path class="cls-5" d="M3925.63,1601.5c17.31-1,16.08-3,74.25,7.81,28,5.19,45,4.11,45,4.11l.58,18.08s-24.38,2.52-55.39-3.66-54.76-5.42-85.67-2.06l-30.92,3.37.62-17.77S3894.7,1603.29,3925.63,1601.5Z"/><path class="cls-5" d="M3925.05,1736.41c17.68-1,16.42-3,75.83,7.81,28.57,5.19,46.69,4.07,46.69,4.07l.67,18a215.74,215.74,0,0,1-57.36-3.49c-31.67-6.18-56-5.6-87.49-2.06s-31.75,3.38-31.75,3.38l.35-17.8S3893.46,1738.2,3925.05,1736.41Z"/><path class="cls-5" d="M3990.51,1853.79c-17.68-1-46.13-4.68-75.67,4.6-27.38,8.59-42.49,7.08-42.49,7.08l1.33,13.82a215.24,215.24,0,0,0,57.36-3.49c31.66-6.18,55.95-5.59,87.49-2.06s31.11,3.34,31.11,3.34l1-14.8A394,394,0,0,0,3990.51,1853.79Z"/><path class="cls-6" d="M3895.14,1758c13,174.78,41,248.6-36.6,254.35-70.09,5.19-61-71.38-73.94-246.16s13-319.16,33.75-320.7S3882.2,1583.24,3895.14,1758Z"/><path class="cls-3" d="M3810.28,1616.14c10-1.5,9.17-3,43.56,2.76,16.53,2.74,24.27,1.72,24.27,1.72l2.26,13.23s-12.82,3-31.17-.42-32.11-1.78-49.87,2.11l-17.76,3.89.45-13.56S3792.42,1618.84,3810.28,1616.14Z"/><path class="cls-3" d="M3814.45,1712.06c11-1.66,10.09-3.27,48,3,18.21,3,29,1.32,29,1.32l1.49,15.13s-15.43,3.26-35.64-.45-35.34-1.95-54.9,2.33l-19.55,4.29-.71-14.93S3794.78,1715,3814.45,1712.06Z"/><path class="cls-3" d="M3822.45,1825.18c11.24-1.67,10.31-3.28,49,3,18.59,3,30.11,1.2,30.11,1.2l1.54,15a106.14,106.14,0,0,1-36.89-.21c-20.62-3.68-36.11-2.05-56.06,2.41s-20.09,4.34-20.09,4.34l-.88-14.94S3802.37,1828.18,3822.45,1825.18Z"/><path class="cls-3" d="M3871.59,1920.49c-11.37,0-29.79-1.74-48.09,7.43-17,8.51-26.73,7.95-26.73,7.95l1.71,11.53a106,106,0,0,0,36.45-5.64c19.86-6.68,35.43-7.34,55.81-5.87s20.1,1.33,20.1,1.33l-.3-12.46A197.39,197.39,0,0,0,3871.59,1920.49Z"/><path class="cls-6" d="M4091,1790.81c-12.26,140.14.49,202.24-61.76,196.79-56.2-4.92-39.14-64.41-26.87-204.55s51.41-251.19,68.06-249.73S4103.3,1650.67,4091,1790.81Z"/><path class="cls-3" d="M4042.08,1667.47c8.11.09,7.65-1.17,34.15,7.79,12.75,4.31,19,4.49,19,4.49l.09,10.77s-10.54.69-24.64-4.35-25.21-5.54-39.78-4.74l-14.57.79,2.1-10.69S4027.59,1667.3,4042.08,1667.47Z"/><path class="cls-3" d="M4033,1744c8.94.11,8.42-1.28,37.61,8.58,14,4.74,22.83,4.78,22.83,4.78l-.77,12.18a81.17,81.17,0,0,1-28.17-4.94c-15.53-5.55-27.75-6.1-43.8-5.23l-16,.87,1.36-11.91S4017.06,1743.81,4033,1744Z"/><path class="cls-3" d="M4024.79,1834.65c9.12.12,8.59-1.27,38.41,8.65,14.34,4.77,23.7,4.83,23.7,4.83l-.71,12.1a85,85,0,0,1-29.2-4.92c-15.87-5.58-28.35-6.27-44.73-5.31s-16.48.85-16.48.85l1.23-12A81,81,0,0,1,4024.79,1834.65Z"/><path class="cls-7" d="M4175.88,2285.45H3764.54a42.55,42.55,0,0,1-42.13-38.91l-35.59-326.08h566l-29.22,319.95C4221.81,2265.8,4201,2285.45,4175.88,2285.45Z"/><path class="cls-8" d="M4227.4,1962.09h-514a42.15,42.15,0,0,1-42.15-42.15h598.27A42.15,42.15,0,0,1,4227.4,1962.09Z"/></g><g id="Layer_4" data-name="Layer 4"><path class="cls-9" d="M3606.82,2296h-2441c-60.1,0-108.81-43.11-108.81-96.28V805.24c0-53.17,48.71-96.27,108.81-96.27h2441c60.09,0,108.81,43.1,108.81,96.27V2199.71C3715.63,2252.88,3666.91,2296,3606.82,2296Z"/><rect class="cls-9" x="910.91" y="2357.81" width="2918.48" height="79.34" rx="24.28"/><path class="cls-10" d="M3544.81,2140H1227.86c-57,0-103.28-36.54-103.28-81.62V876c0-45.08,46.24-81.63,103.28-81.63h2317c57,0,103.28,36.55,103.28,81.63V2058.35C3648.09,2103.43,3601.85,2140,3544.81,2140Z"/><path class="cls-11" d="M3780.63,2397.48h-2821c-26.93,0-48.77-10.09-48.77-22.53l144.31-197.83H3714.69L3829.39,2375C3829.39,2387.39,3807.56,2397.48,3780.63,2397.48Z"/><rect class="cls-12" x="1102.64" y="2269.68" width="151.43" height="36.86"/><rect class="cls-12" x="1285.61" y="2269.68" width="151.43" height="36.86"/><rect class="cls-12" x="1467.01" y="2269.68" width="151.43" height="36.86"/><rect class="cls-12" x="1648.4" y="2269.68" width="151.43" height="36.86"/><rect class="cls-12" x="1156.62" y="2227.95" width="151.43" height="27.3"/><rect class="cls-12" x="1339.59" y="2227.95" width="151.43" height="27.3"/><rect class="cls-12" x="1520.99" y="2227.95" width="151.43" height="27.3"/><rect class="cls-12" x="1702.38" y="2227.95" width="151.43" height="27.3"/><rect class="cls-12" x="1877.26" y="2227.95" width="151.43" height="27.3"/><rect class="cls-12" x="2060.24" y="2227.95" width="151.43" height="27.3"/><rect class="cls-12" x="2241.63" y="2227.95" width="151.43" height="27.3"/><rect class="cls-12" x="2423.03" y="2227.95" width="151.43" height="27.3"/><rect class="cls-12" x="2597.91" y="2227.95" width="151.43" height="27.3"/><rect class="cls-12" x="2780.88" y="2227.95" width="151.43" height="27.3"/><rect class="cls-12" x="2962.27" y="2227.95" width="151.43" height="27.3"/><rect class="cls-12" x="3143.67" y="2227.95" width="151.43" height="27.3"/><rect class="cls-12" x="3318.55" y="2227.95" width="151.43" height="27.3"/><rect class="cls-12" x="3501.52" y="2227.95" width="151.43" height="27.3"/><rect class="cls-12" x="1239.58" y="2191.17" width="151.43" height="27.3"/><rect class="cls-12" x="1422.55" y="2191.17" width="151.43" height="27.3"/><rect class="cls-12" x="1603.95" y="2191.17" width="151.43" height="27.3"/><rect class="cls-12" x="1785.35" y="2191.17" width="151.43" height="27.3"/><rect class="cls-12" x="1960.22" y="2191.17" width="151.43" height="27.3"/><rect class="cls-12" x="2143.2" y="2191.17" width="151.43" height="27.3"/><rect class="cls-12" x="2324.59" y="2191.17" width="151.43" height="27.3"/><rect class="cls-12" x="2505.99" y="2191.17" width="151.43" height="27.3"/><rect class="cls-12" x="2680.87" y="2191.17" width="151.43" height="27.3"/><rect class="cls-12" x="2863.84" y="2191.17" width="151.43" height="27.3"/><rect class="cls-12" x="3045.24" y="2191.17" width="151.43" height="27.3"/><rect class="cls-12" x="3226.63" y="2191.17" width="151.43" height="27.3"/><rect class="cls-12" x="3401.51" y="2191.17" width="151.43" height="27.3"/><rect class="cls-12" x="2780.94" y="2269.68" width="151.43" height="36.86"/><rect class="cls-12" x="2963.92" y="2269.68" width="151.43" height="36.86"/><rect class="cls-12" x="3185.01" y="2283.26" width="151.43" height="23.28"/><rect class="cls-12" x="3366.41" y="2269.68" width="151.43" height="36.86"/><rect class="cls-12" x="3550.43" y="2283.26" width="151.43" height="23.28"/><rect class="cls-12" x="1829.8" y="2269.68" width="906.98" height="36.86"/><rect class="cls-12" x="1804.93" y="2330.04" width="841.97" height="55.52" rx="6.45"/><rect class="cls-11" x="1823.92" y="848.06" width="1185.47" height="94.63" rx="23.85"/><rect class="cls-11" x="1253.2" y="987.58" width="698.91" height="391.28" rx="12"/><rect class="cls-11" x="1253.2" y="1547.25" width="698.91" height="510.15" rx="12"/><path class="cls-10" d="M1526.75,1956.84a24.11,24.11,0,0,1-36.16-20.88V1698.4a24.11,24.11,0,0,1,36.16-20.87l102.87,59.39,102.87,59.39a24.1,24.1,0,0,1,0,41.75l-102.87,59.39Z"/><rect class="cls-11" x="2083.94" y="987.58" width="1416.99" height="34.67" rx="12.84"/><rect class="cls-11" x="2083.94" y="1064.35" width="1416.99" height="34.67" rx="12.84"/><rect class="cls-11" x="2083.94" y="1141.12" width="1416.99" height="34.67" rx="12.84"/><rect class="cls-11" x="2083.94" y="1217.89" width="1416.99" height="34.67" rx="12.84"/><rect class="cls-11" x="2083.94" y="1543.96" width="1416.99" height="34.67" rx="12.84"/><rect class="cls-11" x="2083.94" y="1620.73" width="1416.99" height="34.67" rx="12.84"/><rect class="cls-11" x="2083.94" y="1697.5" width="1416.99" height="34.67" rx="12.84"/><rect class="cls-11" x="2083.94" y="1774.27" width="1416.99" height="34.67" rx="12.84"/><rect class="cls-11" x="2083.94" y="1851.04" width="1416.99" height="34.67" rx="12.84"/><rect class="cls-11" x="2083.64" y="1927.81" width="844.7" height="34.67" rx="12.84"/><rect class="cls-11" x="2083.64" y="1294.66" width="580.02" height="34.67" rx="12.84"/></g></svg>