<svg width="1880" height="1058" viewBox="0 0 1880 1058" fill="none" xmlns="http://www.w3.org/2000/svg">
<path d="M0 0H1880V1057.5H0V0Z" fill="url(#paint0_linear_61_74)"/>
<rect width="1880" height="1057.5" fill="url(#paint1_linear_61_74)"/>
<mask id="mask0_61_74" style="mask-type:alpha" maskUnits="userSpaceOnUse" x="-246" y="-568" width="2396" height="2600">
<rect width="1402.35" height="776.34" transform="matrix(0.688505 -0.725231 0.273752 0.9618 971.608 884.844)" fill="url(#paint2_linear_61_74)"/>
<rect width="1417.93" height="638.728" transform="matrix(-0.259605 -0.965715 0.708927 -0.705282 1074.48 1507.84)" fill="url(#paint3_linear_61_74)"/>
<rect width="1513.14" height="543.18" transform="matrix(0.118552 -0.992948 0.914689 0.404158 -180.029 1811.78)" fill="url(#paint4_linear_61_74)"/>
<rect width="1877.76" height="802.859" transform="matrix(0.776006 0.630726 -0.214511 0.976722 -72.8723 -567.219)" fill="url(#paint5_linear_61_74)"/>
</mask>
<g mask="url(#mask0_61_74)">
<rect width="1880" height="1057.5" fill="white"/>
</g>
<defs>
<linearGradient id="paint0_linear_61_74" x1="-1350.1" y1="1042.25" x2="1080.5" y2="1042.5" gradientUnits="userSpaceOnUse">
<stop/>
<stop offset="0.769736" stop-color="#4D4D4D" stop-opacity="0.699219"/>
<stop offset="1" stop-color="white" stop-opacity="0"/>
</linearGradient>
<linearGradient id="paint1_linear_61_74" x1="9.45715e-07" y1="464.659" x2="1880" y2="462.201" gradientUnits="userSpaceOnUse">
<stop stop-opacity="0"/>
<stop offset="1"/>
</linearGradient>
<linearGradient id="paint2_linear_61_74" x1="896.509" y1="-2001.32" x2="-441.664" y2="-71.2958" gradientUnits="userSpaceOnUse">
<stop stop-color="white"/>
<stop offset="1" stop-color="white" stop-opacity="0"/>
</linearGradient>
<linearGradient id="paint3_linear_61_74" x1="906.468" y1="-1646.57" x2="-99.7802" y2="136.993" gradientUnits="userSpaceOnUse">
<stop stop-color="white"/>
<stop offset="1" stop-color="white" stop-opacity="0"/>
</linearGradient>
<linearGradient id="paint4_linear_61_74" x1="967.331" y1="-1400.26" x2="219.509" y2="263.063" gradientUnits="userSpaceOnUse">
<stop stop-color="white"/>
<stop offset="1" stop-color="white" stop-opacity="0"/>
</linearGradient>
<linearGradient id="paint5_linear_61_74" x1="1200.43" y1="-2069.68" x2="-29.5083" y2="227.154" gradientUnits="userSpaceOnUse">
<stop stop-color="white"/>
<stop offset="1" stop-color="white" stop-opacity="0"/>
</linearGradient>
</defs>
</svg>
