<?xml version="1.0" encoding="UTF-8"?><svg id="Layer_2" xmlns="http://www.w3.org/2000/svg" viewBox="0 0 500 482.7"><defs><style>.cls-1{stroke:#9ecd28;}.cls-1,.cls-2{fill:none;stroke-miterlimit:10;stroke-width:12px;}.cls-2{stroke:#046b99;}</style></defs><g id="Layer_1-2"><g id="creative"><path id="path_52" class="cls-2" d="m308.59,418.11v-69.61c0-34.57,16.58-65.9,41.76-89.58,28.37-26.69,46.13-64.5,46.13-106.44,0-80.76-65.72-146.48-146.48-146.48S103.52,71.72,103.52,152.48c0,41.94,17.76,79.75,46.13,106.44,25.18,23.68,41.76,55.01,41.76,89.58v69.61h117.19Z"/><path id="path_53" class="cls-2" d="m206.05,476.7h87.89"/><path id="path_54" class="cls-2" d="m308.59,357.56h-117.19"/><path id="path_55" class="cls-1" d="m500,152.48h-58.59"/><path id="path_56" class="cls-1" d="m58.59,152.48H0"/><path id="path_57" class="cls-1" d="m465.66,27.97l-50.74,29.3"/><path id="path_58" class="cls-1" d="m85.08,247.69l-50.74,29.3"/><path id="path_59" class="cls-1" d="m465.66,276.99l-50.74-29.3"/><path id="path_60" class="cls-1" d="m85.08,57.27l-50.74-29.3"/><path id="path_61" class="cls-1" d="m220.7,269.67l-29.3-117.19,58.59,29.3,58.59-29.3-29.3,117.19"/></g></g></svg>