<svg width="328" height="316" viewBox="0 0 328 316" fill="none" xmlns="http://www.w3.org/2000/svg">
<g filter="url(#filter0_d_320_4029)">
<rect x="24" y="8" width="280" height="268" rx="8" fill="white"/>
<path d="M49.5381 36.3174V49H54.5303C58.3271 49 60.4805 46.6797 60.4805 42.5752C60.4805 38.5938 58.3008 36.3174 54.5303 36.3174H49.5381ZM52.1924 38.5059H54.1084C56.4111 38.5059 57.7734 40 57.7734 42.6191C57.7734 45.335 56.4551 46.8115 54.1084 46.8115H52.1924V38.5059ZM64.0488 37.8379C64.8398 37.8379 65.4902 37.2051 65.4902 36.4141C65.4902 35.6143 64.8398 34.9814 64.0488 34.9814C63.2578 34.9814 62.5986 35.6143 62.5986 36.4141C62.5986 37.2051 63.2578 37.8379 64.0488 37.8379ZM62.7656 49H65.3232V39.3232H62.7656V49ZM70.5703 49.1494C71.8271 49.1494 72.8818 48.6133 73.3828 47.7168H73.541V49H76.0195V42.3906C76.0195 40.3252 74.5693 39.1123 72.0029 39.1123C69.5684 39.1123 67.9248 40.2285 67.7578 42.0039H70.1133C70.3242 41.3975 70.9395 41.0723 71.8623 41.0723C72.917 41.0723 73.4971 41.5557 73.4971 42.3906V43.1904L71.1504 43.3311C68.7422 43.4717 67.3975 44.4912 67.3975 46.2402C67.3975 48.0068 68.707 49.1494 70.5703 49.1494ZM71.4141 47.2773C70.5264 47.2773 69.9023 46.8291 69.9023 46.082C69.9023 45.3701 70.4385 44.957 71.5371 44.8867L73.4971 44.7549V45.4756C73.4971 46.4951 72.6006 47.2773 71.4141 47.2773ZM78.6211 49H81.1787V35.623H78.6211V49ZM88.1396 49.2021C91.1191 49.2021 92.9121 47.3213 92.9121 44.1572C92.9121 41.0195 91.0928 39.1123 88.1396 39.1123C85.1865 39.1123 83.3672 41.0283 83.3672 44.1572C83.3672 47.3125 85.1602 49.2021 88.1396 49.2021ZM88.1396 47.1807C86.7686 47.1807 85.9951 46.0732 85.9951 44.1572C85.9951 42.2588 86.7773 41.1426 88.1396 41.1426C89.4932 41.1426 90.2842 42.2588 90.2842 44.1572C90.2842 46.0732 89.502 47.1807 88.1396 47.1807ZM99.2754 52.665C102.202 52.665 104.057 51.2412 104.057 48.9824V39.3232H101.578V40.8701H101.42C100.901 39.8154 99.7852 39.165 98.4756 39.165C96.0146 39.165 94.5029 41.0811 94.5029 44.0781C94.5029 46.9785 96.0059 48.8594 98.4229 48.8594C99.7852 48.8594 100.805 48.3057 101.341 47.2861H101.499V49.0879C101.499 50.2041 100.699 50.8545 99.3281 50.8545C98.2207 50.8545 97.5 50.4678 97.3682 49.8525H94.8369C94.9951 51.5488 96.7002 52.665 99.2754 52.665ZM99.3105 46.8994C97.9219 46.8994 97.1309 45.8096 97.1309 44.0693C97.1309 42.3291 97.9307 41.2393 99.3105 41.2393C100.69 41.2393 101.525 42.3291 101.525 44.0693C101.525 45.8096 100.699 46.8994 99.3105 46.8994ZM111.352 49H113.909V43.4277C113.909 42.1445 114.647 41.2744 115.931 41.2744C117.091 41.2744 117.715 41.9775 117.715 43.3486V49H120.272V42.7686C120.272 40.4482 119.033 39.1387 116.95 39.1387C115.526 39.1387 114.472 39.8066 114.023 40.9053H113.865V35.623H111.352V49ZM129.026 46.2666C128.754 46.9258 128.06 47.2949 127.049 47.2949C125.713 47.2949 124.869 46.3721 124.834 44.8955V44.7637H131.487V43.999C131.487 40.9404 129.8 39.1123 126.943 39.1123C124.061 39.1123 122.285 41.0635 122.285 44.21C122.285 47.3389 124.025 49.2021 126.979 49.2021C129.352 49.2021 131.03 48.0684 131.408 46.2666H129.026ZM126.952 41.0195C128.147 41.0195 128.921 41.8457 128.974 43.1729H124.843C124.931 41.8721 125.766 41.0195 126.952 41.0195ZM136.242 49.1494C137.499 49.1494 138.554 48.6133 139.055 47.7168H139.213V49H141.691V42.3906C141.691 40.3252 140.241 39.1123 137.675 39.1123C135.24 39.1123 133.597 40.2285 133.43 42.0039H135.785C135.996 41.3975 136.611 41.0723 137.534 41.0723C138.589 41.0723 139.169 41.5557 139.169 42.3906V43.1904L136.822 43.3311C134.414 43.4717 133.069 44.4912 133.069 46.2402C133.069 48.0068 134.379 49.1494 136.242 49.1494ZM137.086 47.2773C136.198 47.2773 135.574 46.8291 135.574 46.082C135.574 45.3701 136.11 44.957 137.209 44.8867L139.169 44.7549V45.4756C139.169 46.4951 138.272 47.2773 137.086 47.2773ZM147.677 49.1494C149.021 49.1494 150.12 48.5254 150.639 47.4795H150.797V49H153.275V35.623H150.718V40.8701H150.568C150.067 39.7979 148.986 39.165 147.677 39.165C145.242 39.165 143.73 41.0723 143.73 44.1484C143.73 47.2334 145.233 49.1494 147.677 49.1494ZM148.547 41.2393C149.909 41.2393 150.744 42.3555 150.744 44.166C150.744 45.9766 149.918 47.084 148.547 47.084C147.176 47.084 146.358 45.9854 146.358 44.1572C146.358 42.3379 147.185 41.2393 148.547 41.2393ZM157.23 37.8379C158.021 37.8379 158.672 37.2051 158.672 36.4141C158.672 35.6143 158.021 34.9814 157.23 34.9814C156.439 34.9814 155.78 35.6143 155.78 36.4141C155.78 37.2051 156.439 37.8379 157.23 37.8379ZM155.947 49H158.505V39.3232H155.947V49ZM161.098 49H163.655V43.4014C163.655 42.0918 164.385 41.248 165.571 41.248C166.784 41.248 167.355 41.96 167.355 43.3223V49H169.913V42.7422C169.913 40.4307 168.753 39.1123 166.6 39.1123C165.167 39.1123 164.183 39.7891 163.734 40.8789H163.576V39.3232H161.098V49ZM176.672 52.665C179.599 52.665 181.453 51.2412 181.453 48.9824V39.3232H178.975V40.8701H178.816C178.298 39.8154 177.182 39.165 175.872 39.165C173.411 39.165 171.899 41.0811 171.899 44.0781C171.899 46.9785 173.402 48.8594 175.819 48.8594C177.182 48.8594 178.201 48.3057 178.737 47.2861H178.896V49.0879C178.896 50.2041 178.096 50.8545 176.725 50.8545C175.617 50.8545 174.896 50.4678 174.765 49.8525H172.233C172.392 51.5488 174.097 52.665 176.672 52.665ZM176.707 46.8994C175.318 46.8994 174.527 45.8096 174.527 44.0693C174.527 42.3291 175.327 41.2393 176.707 41.2393C178.087 41.2393 178.922 42.3291 178.922 44.0693C178.922 45.8096 178.096 46.8994 176.707 46.8994Z" fill="#1F1F1F"/>
<path d="M55.2461 74.8926H50.4883V66.1357H49.2578V76H55.2461V74.8926ZM59.751 76.1299C61.8496 76.1299 63.1484 74.6807 63.1484 72.3154C63.1484 69.9434 61.8496 68.501 59.751 68.501C57.6523 68.501 56.3535 69.9434 56.3535 72.3154C56.3535 74.6807 57.6523 76.1299 59.751 76.1299ZM59.751 75.0703C58.3564 75.0703 57.5703 74.0586 57.5703 72.3154C57.5703 70.5654 58.3564 69.5605 59.751 69.5605C61.1455 69.5605 61.9316 70.5654 61.9316 72.3154C61.9316 74.0586 61.1455 75.0703 59.751 75.0703ZM64.9941 76H66.1699V71.4336C66.1699 70.3945 66.9834 69.6426 68.1045 69.6426C68.3369 69.6426 68.7607 69.6836 68.8564 69.7109V68.5352C68.7061 68.5146 68.46 68.501 68.2686 68.501C67.291 68.501 66.4434 69.0068 66.2246 69.7246H66.1152V68.6309H64.9941V76ZM75.002 74.0928C74.6943 74.7422 74.0518 75.0908 73.1016 75.0908C71.8506 75.0908 71.0371 74.168 70.9756 72.7119V72.6572H76.2734V72.2061C76.2734 69.916 75.0635 68.501 73.0742 68.501C71.0508 68.501 69.752 70.0049 69.752 72.3223C69.752 74.6533 71.0303 76.1299 73.0742 76.1299C74.6875 76.1299 75.8359 75.3506 76.1777 74.0928H75.002ZM73.0605 69.54C74.2295 69.54 75.0088 70.4014 75.0361 71.707H70.9756C71.0645 70.4014 71.8848 69.54 73.0605 69.54ZM78.1191 76H79.2949V71.4336C79.2949 70.3945 80.04 69.5605 81.0039 69.5605C81.9336 69.5605 82.542 70.1211 82.542 70.9961V76H83.7178V71.2627C83.7178 70.3262 84.4014 69.5605 85.4268 69.5605C86.4658 69.5605 86.9785 70.0938 86.9785 71.1807V76H88.1543V70.9072C88.1543 69.3623 87.3135 68.501 85.8096 68.501C84.791 68.501 83.9502 69.0137 83.5537 69.793H83.4443C83.1025 69.0273 82.4053 68.501 81.4072 68.501C80.4229 68.501 79.6846 68.9727 79.3496 69.793H79.2402V68.6309H78.1191V76ZM94.8672 67.209C95.3184 67.209 95.6875 66.8398 95.6875 66.3887C95.6875 65.9375 95.3184 65.5684 94.8672 65.5684C94.416 65.5684 94.0469 65.9375 94.0469 66.3887C94.0469 66.8398 94.416 67.209 94.8672 67.209ZM94.2793 76H95.4551V68.6309H94.2793V76ZM101.286 68.501C100.281 68.501 99.3994 69.0137 98.9277 69.8613H98.8184V68.6309H97.6973V78.4609H98.873V74.8926H98.9824C99.3857 75.6719 100.233 76.1299 101.286 76.1299C103.159 76.1299 104.383 74.6191 104.383 72.3154C104.383 69.998 103.166 68.501 101.286 68.501ZM101.006 75.0703C99.6797 75.0703 98.8389 74.0039 98.8389 72.3154C98.8389 70.6201 99.6797 69.5605 101.013 69.5605C102.359 69.5605 103.166 70.5928 103.166 72.3154C103.166 74.0381 102.359 75.0703 101.006 75.0703ZM106.058 70.6475C106.058 71.7139 106.687 72.3086 108.067 72.6436L109.332 72.9512C110.118 73.1426 110.501 73.4844 110.501 73.9902C110.501 74.667 109.79 75.1387 108.799 75.1387C107.855 75.1387 107.268 74.7422 107.069 74.1201H105.859C105.989 75.3438 107.117 76.1299 108.758 76.1299C110.433 76.1299 111.711 75.2207 111.711 73.9014C111.711 72.8418 111.041 72.2402 109.653 71.9053L108.519 71.6318C107.65 71.4199 107.24 71.1055 107.24 70.5996C107.24 69.9434 107.924 69.499 108.799 69.499C109.688 69.499 110.262 69.8887 110.419 70.4766H111.581C111.424 69.2666 110.351 68.501 108.806 68.501C107.24 68.501 106.058 69.4238 106.058 70.6475ZM119.518 68.6309H118.342V72.9922C118.342 74.2842 117.631 75.0566 116.332 75.0566C115.156 75.0566 114.664 74.4414 114.664 73.1152V68.6309H113.488V73.4023C113.488 75.1455 114.35 76.1299 116.004 76.1299C117.132 76.1299 117.918 75.665 118.287 74.8447H118.396V76H119.518V68.6309ZM121.732 76H122.908V71.4336C122.908 70.3945 123.653 69.5605 124.617 69.5605C125.547 69.5605 126.155 70.1211 126.155 70.9961V76H127.331V71.2627C127.331 70.3262 128.015 69.5605 129.04 69.5605C130.079 69.5605 130.592 70.0938 130.592 71.1807V76H131.768V70.9072C131.768 69.3623 130.927 68.501 129.423 68.501C128.404 68.501 127.563 69.0137 127.167 69.793H127.058C126.716 69.0273 126.019 68.501 125.021 68.501C124.036 68.501 123.298 68.9727 122.963 69.793H122.854V68.6309H121.732V76ZM140.593 76.1299C141.611 76.1299 142.486 75.6445 142.951 74.8242H143.061V76H144.182V65.7051H143.006V69.793H142.903C142.486 68.9863 141.618 68.501 140.593 68.501C138.72 68.501 137.496 70.0049 137.496 72.3154C137.496 74.6328 138.706 76.1299 140.593 76.1299ZM140.866 69.5605C142.199 69.5605 143.033 70.627 143.033 72.3154C143.033 74.0176 142.206 75.0703 140.866 75.0703C139.52 75.0703 138.713 74.0381 138.713 72.3154C138.713 70.5996 139.526 69.5605 140.866 69.5605ZM149.493 76.1299C151.592 76.1299 152.891 74.6807 152.891 72.3154C152.891 69.9434 151.592 68.501 149.493 68.501C147.395 68.501 146.096 69.9434 146.096 72.3154C146.096 74.6807 147.395 76.1299 149.493 76.1299ZM149.493 75.0703C148.099 75.0703 147.312 74.0586 147.312 72.3154C147.312 70.5654 148.099 69.5605 149.493 69.5605C150.888 69.5605 151.674 70.5654 151.674 72.3154C151.674 74.0586 150.888 75.0703 149.493 75.0703ZM154.805 76H155.98V65.7051H154.805V76ZM161.292 76.1299C163.391 76.1299 164.689 74.6807 164.689 72.3154C164.689 69.9434 163.391 68.501 161.292 68.501C159.193 68.501 157.895 69.9434 157.895 72.3154C157.895 74.6807 159.193 76.1299 161.292 76.1299ZM161.292 75.0703C159.897 75.0703 159.111 74.0586 159.111 72.3154C159.111 70.5654 159.897 69.5605 161.292 69.5605C162.687 69.5605 163.473 70.5654 163.473 72.3154C163.473 74.0586 162.687 75.0703 161.292 75.0703ZM166.535 76H167.711V71.4336C167.711 70.3945 168.524 69.6426 169.646 69.6426C169.878 69.6426 170.302 69.6836 170.397 69.7109V68.5352C170.247 68.5146 170.001 68.501 169.81 68.501C168.832 68.501 167.984 69.0068 167.766 69.7246H167.656V68.6309H166.535V76ZM175.647 70.6475C175.647 71.7139 176.276 72.3086 177.657 72.6436L178.922 72.9512C179.708 73.1426 180.091 73.4844 180.091 73.9902C180.091 74.667 179.38 75.1387 178.389 75.1387C177.445 75.1387 176.857 74.7422 176.659 74.1201H175.449C175.579 75.3438 176.707 76.1299 178.348 76.1299C180.022 76.1299 181.301 75.2207 181.301 73.9014C181.301 72.8418 180.631 72.2402 179.243 71.9053L178.108 71.6318C177.24 71.4199 176.83 71.1055 176.83 70.5996C176.83 69.9434 177.514 69.499 178.389 69.499C179.277 69.499 179.852 69.8887 180.009 70.4766H181.171C181.014 69.2666 179.94 68.501 178.396 68.501C176.83 68.501 175.647 69.4238 175.647 70.6475ZM183.762 67.209C184.213 67.209 184.582 66.8398 184.582 66.3887C184.582 65.9375 184.213 65.5684 183.762 65.5684C183.311 65.5684 182.941 65.9375 182.941 66.3887C182.941 66.8398 183.311 67.209 183.762 67.209ZM183.174 76H184.35V68.6309H183.174V76ZM187.084 66.7236V68.6309H185.895V69.6152H187.084V74.0859C187.084 75.4941 187.692 76.0547 189.21 76.0547C189.442 76.0547 189.668 76.0273 189.9 75.9863V74.9951C189.682 75.0156 189.565 75.0225 189.354 75.0225C188.588 75.0225 188.26 74.6533 188.26 73.7852V69.6152H189.9V68.6309H188.26V66.7236H187.084ZM197.68 76.1299C198.664 76.1299 199.471 75.6992 199.949 74.9131H200.059V76H201.18V70.9551C201.18 69.4238 200.175 68.501 198.377 68.501C196.805 68.501 195.643 69.2803 195.485 70.4629H196.675C196.839 69.8818 197.454 69.5469 198.336 69.5469C199.437 69.5469 200.004 70.0459 200.004 70.9551V71.625L197.878 71.7549C196.162 71.8574 195.191 72.6162 195.191 73.9355C195.191 75.2822 196.251 76.1299 197.68 76.1299ZM197.898 75.0977C197.044 75.0977 196.408 74.6602 196.408 73.9082C196.408 73.1699 196.9 72.7803 198.021 72.7051L200.004 72.5752V73.252C200.004 74.3047 199.108 75.0977 197.898 75.0977ZM203.354 76H204.529V71.4336C204.529 70.3945 205.274 69.5605 206.238 69.5605C207.168 69.5605 207.776 70.1211 207.776 70.9961V76H208.952V71.2627C208.952 70.3262 209.636 69.5605 210.661 69.5605C211.7 69.5605 212.213 70.0938 212.213 71.1807V76H213.389V70.9072C213.389 69.3623 212.548 68.501 211.044 68.501C210.025 68.501 209.185 69.0137 208.788 69.793H208.679C208.337 69.0273 207.64 68.501 206.642 68.501C205.657 68.501 204.919 68.9727 204.584 69.793H204.475V68.6309H203.354V76ZM220.416 74.0928C220.108 74.7422 219.466 75.0908 218.516 75.0908C217.265 75.0908 216.451 74.168 216.39 72.7119V72.6572H221.688V72.2061C221.688 69.916 220.478 68.501 218.488 68.501C216.465 68.501 215.166 70.0049 215.166 72.3223C215.166 74.6533 216.444 76.1299 218.488 76.1299C220.102 76.1299 221.25 75.3506 221.592 74.0928H220.416ZM218.475 69.54C219.644 69.54 220.423 70.4014 220.45 71.707H216.39C216.479 70.4014 217.299 69.54 218.475 69.54ZM224.025 66.7236V68.6309H222.836V69.6152H224.025V74.0859C224.025 75.4941 224.634 76.0547 226.151 76.0547C226.384 76.0547 226.609 76.0273 226.842 75.9863V74.9951C226.623 75.0156 226.507 75.0225 226.295 75.0225C225.529 75.0225 225.201 74.6533 225.201 73.7852V69.6152H226.842V68.6309H225.201V66.7236H224.025ZM229.364 78.5088L230.438 74.6191H229.132L228.482 78.5088H229.364ZM55.2051 88.8867C55 87.5742 53.9062 86.501 52.1152 86.501C50.0508 86.501 48.7383 87.9912 48.7383 90.2881C48.7383 92.6328 50.0576 94.1299 52.1221 94.1299C53.8926 94.1299 54.9932 93.1318 55.2051 91.7783H54.0156C53.7969 92.6123 53.1064 93.0703 52.1152 93.0703C50.8027 93.0703 49.9551 91.9902 49.9551 90.2881C49.9551 88.6201 50.7891 87.5605 52.1152 87.5605C53.1748 87.5605 53.8242 88.1553 54.0156 88.8867H55.2051ZM59.9697 94.1299C62.0684 94.1299 63.3672 92.6807 63.3672 90.3154C63.3672 87.9434 62.0684 86.501 59.9697 86.501C57.8711 86.501 56.5723 87.9434 56.5723 90.3154C56.5723 92.6807 57.8711 94.1299 59.9697 94.1299ZM59.9697 93.0703C58.5752 93.0703 57.7891 92.0586 57.7891 90.3154C57.7891 88.5654 58.5752 87.5605 59.9697 87.5605C61.3643 87.5605 62.1504 88.5654 62.1504 90.3154C62.1504 92.0586 61.3643 93.0703 59.9697 93.0703ZM65.2129 94H66.3887V89.6387C66.3887 88.3467 67.1475 87.5605 68.3232 87.5605C69.499 87.5605 70.0596 88.1895 70.0596 89.5156V94H71.2354V89.2285C71.2354 87.4785 70.3125 86.501 68.6582 86.501C67.5303 86.501 66.8125 86.9795 66.4434 87.793H66.334V86.6309H65.2129V94ZM73.2178 88.6475C73.2178 89.7139 73.8467 90.3086 75.2275 90.6436L76.4922 90.9512C77.2783 91.1426 77.6611 91.4844 77.6611 91.9902C77.6611 92.667 76.9502 93.1387 75.959 93.1387C75.0156 93.1387 74.4277 92.7422 74.2295 92.1201H73.0195C73.1494 93.3438 74.2773 94.1299 75.918 94.1299C77.5928 94.1299 78.8711 93.2207 78.8711 91.9014C78.8711 90.8418 78.2012 90.2402 76.8135 89.9053L75.6787 89.6318C74.8105 89.4199 74.4004 89.1055 74.4004 88.5996C74.4004 87.9434 75.084 87.499 75.959 87.499C76.8477 87.499 77.4219 87.8887 77.5791 88.4766H78.7412C78.584 87.2666 77.5107 86.501 75.9658 86.501C74.4004 86.501 73.2178 87.4238 73.2178 88.6475ZM85.5977 92.0928C85.29 92.7422 84.6475 93.0908 83.6973 93.0908C82.4463 93.0908 81.6328 92.168 81.5713 90.7119V90.6572H86.8691V90.2061C86.8691 87.916 85.6592 86.501 83.6699 86.501C81.6465 86.501 80.3477 88.0049 80.3477 90.3223C80.3477 92.6533 81.626 94.1299 83.6699 94.1299C85.2832 94.1299 86.4316 93.3506 86.7734 92.0928H85.5977ZM83.6562 87.54C84.8252 87.54 85.6045 88.4014 85.6318 89.707H81.5713C81.6602 88.4014 82.4805 87.54 83.6562 87.54ZM94.8125 88.8867C94.6074 87.5742 93.5137 86.501 91.7227 86.501C89.6582 86.501 88.3457 87.9912 88.3457 90.2881C88.3457 92.6328 89.665 94.1299 91.7295 94.1299C93.5 94.1299 94.6006 93.1318 94.8125 91.7783H93.623C93.4043 92.6123 92.7139 93.0703 91.7227 93.0703C90.4102 93.0703 89.5625 91.9902 89.5625 90.2881C89.5625 88.6201 90.3965 87.5605 91.7227 87.5605C92.7822 87.5605 93.4316 88.1553 93.623 88.8867H94.8125ZM97.1777 84.7236V86.6309H95.9883V87.6152H97.1777V92.0859C97.1777 93.4941 97.7861 94.0547 99.3037 94.0547C99.5361 94.0547 99.7617 94.0273 99.9941 93.9863V92.9951C99.7754 93.0156 99.6592 93.0225 99.4473 93.0225C98.6816 93.0225 98.3535 92.6533 98.3535 91.7852V87.6152H99.9941V86.6309H98.3535V84.7236H97.1777ZM106.543 92.0928C106.235 92.7422 105.593 93.0908 104.643 93.0908C103.392 93.0908 102.578 92.168 102.517 90.7119V90.6572H107.814V90.2061C107.814 87.916 106.604 86.501 104.615 86.501C102.592 86.501 101.293 88.0049 101.293 90.3223C101.293 92.6533 102.571 94.1299 104.615 94.1299C106.229 94.1299 107.377 93.3506 107.719 92.0928H106.543ZM104.602 87.54C105.771 87.54 106.55 88.4014 106.577 89.707H102.517C102.605 88.4014 103.426 87.54 104.602 87.54ZM110.152 84.7236V86.6309H108.963V87.6152H110.152V92.0859C110.152 93.4941 110.761 94.0547 112.278 94.0547C112.511 94.0547 112.736 94.0273 112.969 93.9863V92.9951C112.75 93.0156 112.634 93.0225 112.422 93.0225C111.656 93.0225 111.328 92.6533 111.328 91.7852V87.6152H112.969V86.6309H111.328V84.7236H110.152ZM120.707 86.6309H119.531V90.9922C119.531 92.2842 118.82 93.0566 117.521 93.0566C116.346 93.0566 115.854 92.4414 115.854 91.1152V86.6309H114.678V91.4023C114.678 93.1455 115.539 94.1299 117.193 94.1299C118.321 94.1299 119.107 93.665 119.477 92.8447H119.586V94H120.707V86.6309ZM122.922 94H124.098V89.4336C124.098 88.3945 124.911 87.6426 126.032 87.6426C126.265 87.6426 126.688 87.6836 126.784 87.7109V86.5352C126.634 86.5146 126.388 86.501 126.196 86.501C125.219 86.501 124.371 87.0068 124.152 87.7246H124.043V86.6309H122.922V94ZM134.256 94.1299C135.24 94.1299 136.047 93.6992 136.525 92.9131H136.635V94H137.756V88.9551C137.756 87.4238 136.751 86.501 134.953 86.501C133.381 86.501 132.219 87.2803 132.062 88.4629H133.251C133.415 87.8818 134.03 87.5469 134.912 87.5469C136.013 87.5469 136.58 88.0459 136.58 88.9551V89.625L134.454 89.7549C132.738 89.8574 131.768 90.6162 131.768 91.9355C131.768 93.2822 132.827 94.1299 134.256 94.1299ZM134.475 93.0977C133.62 93.0977 132.984 92.6602 132.984 91.9082C132.984 91.1699 133.477 90.7803 134.598 90.7051L136.58 90.5752V91.252C136.58 92.3047 135.685 93.0977 134.475 93.0977ZM142.657 94.1299C143.676 94.1299 144.551 93.6445 145.016 92.8242H145.125V94H146.246V83.7051H145.07V87.793H144.968C144.551 86.9863 143.683 86.501 142.657 86.501C140.784 86.501 139.561 88.0049 139.561 90.3154C139.561 92.6328 140.771 94.1299 142.657 94.1299ZM142.931 87.5605C144.264 87.5605 145.098 88.627 145.098 90.3154C145.098 92.0176 144.271 93.0703 142.931 93.0703C141.584 93.0703 140.777 92.0381 140.777 90.3154C140.777 88.5996 141.591 87.5605 142.931 87.5605ZM149.145 85.209C149.596 85.209 149.965 84.8398 149.965 84.3887C149.965 83.9375 149.596 83.5684 149.145 83.5684C148.693 83.5684 148.324 83.9375 148.324 84.3887C148.324 84.8398 148.693 85.209 149.145 85.209ZM148.557 94H149.732V86.6309H148.557V94ZM155.563 86.501C154.559 86.501 153.677 87.0137 153.205 87.8613H153.096V86.6309H151.975V96.4609H153.15V92.8926H153.26C153.663 93.6719 154.511 94.1299 155.563 94.1299C157.437 94.1299 158.66 92.6191 158.66 90.3154C158.66 87.998 157.443 86.501 155.563 86.501ZM155.283 93.0703C153.957 93.0703 153.116 92.0039 153.116 90.3154C153.116 88.6201 153.957 87.5605 155.29 87.5605C156.637 87.5605 157.443 88.5928 157.443 90.3154C157.443 92.0381 156.637 93.0703 155.283 93.0703ZM161.121 85.209C161.572 85.209 161.941 84.8398 161.941 84.3887C161.941 83.9375 161.572 83.5684 161.121 83.5684C160.67 83.5684 160.301 83.9375 160.301 84.3887C160.301 84.8398 160.67 85.209 161.121 85.209ZM160.533 94H161.709V86.6309H160.533V94ZM163.78 88.6475C163.78 89.7139 164.409 90.3086 165.79 90.6436L167.055 90.9512C167.841 91.1426 168.224 91.4844 168.224 91.9902C168.224 92.667 167.513 93.1387 166.521 93.1387C165.578 93.1387 164.99 92.7422 164.792 92.1201H163.582C163.712 93.3438 164.84 94.1299 166.48 94.1299C168.155 94.1299 169.434 93.2207 169.434 91.9014C169.434 90.8418 168.764 90.2402 167.376 89.9053L166.241 89.6318C165.373 89.4199 164.963 89.1055 164.963 88.5996C164.963 87.9434 165.646 87.499 166.521 87.499C167.41 87.499 167.984 87.8887 168.142 88.4766H169.304C169.146 87.2666 168.073 86.501 166.528 86.501C164.963 86.501 163.78 87.4238 163.78 88.6475ZM177.377 88.8867C177.172 87.5742 176.078 86.501 174.287 86.501C172.223 86.501 170.91 87.9912 170.91 90.2881C170.91 92.6328 172.229 94.1299 174.294 94.1299C176.064 94.1299 177.165 93.1318 177.377 91.7783H176.188C175.969 92.6123 175.278 93.0703 174.287 93.0703C172.975 93.0703 172.127 91.9902 172.127 90.2881C172.127 88.6201 172.961 87.5605 174.287 87.5605C175.347 87.5605 175.996 88.1553 176.188 88.8867H177.377ZM179.729 85.209C180.18 85.209 180.549 84.8398 180.549 84.3887C180.549 83.9375 180.18 83.5684 179.729 83.5684C179.277 83.5684 178.908 83.9375 178.908 84.3887C178.908 84.8398 179.277 85.209 179.729 85.209ZM179.141 94H180.316V86.6309H179.141V94ZM182.559 94H183.734V89.6387C183.734 88.3467 184.493 87.5605 185.669 87.5605C186.845 87.5605 187.405 88.1895 187.405 89.5156V94H188.581V89.2285C188.581 87.4785 187.658 86.501 186.004 86.501C184.876 86.501 184.158 86.9795 183.789 87.793H183.68V86.6309H182.559V94ZM193.77 96.8301C195.779 96.8301 197.051 95.7773 197.051 94.1299V86.6309H195.93V87.7998H195.82C195.396 87.0068 194.487 86.501 193.455 86.501C191.562 86.501 190.365 87.998 190.365 90.2061C190.365 92.4141 191.548 93.8906 193.455 93.8906C194.467 93.8906 195.301 93.4326 195.766 92.6191H195.875V94.0684C195.875 95.1553 195.089 95.8047 193.77 95.8047C192.71 95.8047 192.054 95.415 191.924 94.8135H190.68C190.857 96.0303 191.992 96.8301 193.77 96.8301ZM193.715 92.8516C192.348 92.8516 191.582 91.8125 191.582 90.2061C191.582 88.5996 192.348 87.5605 193.715 87.5605C195.075 87.5605 195.902 88.5996 195.902 90.2061C195.902 91.8125 195.082 92.8516 193.715 92.8516ZM208.098 92.0928C207.79 92.7422 207.147 93.0908 206.197 93.0908C204.946 93.0908 204.133 92.168 204.071 90.7119V90.6572H209.369V90.2061C209.369 87.916 208.159 86.501 206.17 86.501C204.146 86.501 202.848 88.0049 202.848 90.3223C202.848 92.6533 204.126 94.1299 206.17 94.1299C207.783 94.1299 208.932 93.3506 209.273 92.0928H208.098ZM206.156 87.54C207.325 87.54 208.104 88.4014 208.132 89.707H204.071C204.16 88.4014 204.98 87.54 206.156 87.54ZM211.283 94H212.459V83.7051H211.283V94ZM215.357 85.209C215.809 85.209 216.178 84.8398 216.178 84.3887C216.178 83.9375 215.809 83.5684 215.357 83.5684C214.906 83.5684 214.537 83.9375 214.537 84.3887C214.537 84.8398 214.906 85.209 215.357 85.209ZM214.77 94H215.945V86.6309H214.77V94ZM218.68 84.7236V86.6309H217.49V87.6152H218.68V92.0859C218.68 93.4941 219.288 94.0547 220.806 94.0547C221.038 94.0547 221.264 94.0273 221.496 93.9863V92.9951C221.277 93.0156 221.161 93.0225 220.949 93.0225C220.184 93.0225 219.855 92.6533 219.855 91.7852V87.6152H221.496V86.6309H219.855V84.7236H218.68ZM224.244 94.0684C224.736 94.0684 225.133 93.665 225.133 93.1797C225.133 92.6875 224.736 92.291 224.244 92.291C223.759 92.291 223.355 92.6875 223.355 93.1797C223.355 93.665 223.759 94.0684 224.244 94.0684ZM232.748 84.1357H231.518V90.6094C231.518 92.7148 232.987 94.2324 235.435 94.2324C237.882 94.2324 239.352 92.7148 239.352 90.6094V84.1357H238.121V90.5273C238.121 92.0176 237.144 93.0977 235.435 93.0977C233.726 93.0977 232.748 92.0176 232.748 90.5273V84.1357ZM242.195 84.7236V86.6309H241.006V87.6152H242.195V92.0859C242.195 93.4941 242.804 94.0547 244.321 94.0547C244.554 94.0547 244.779 94.0273 245.012 93.9863V92.9951C244.793 93.0156 244.677 93.0225 244.465 93.0225C243.699 93.0225 243.371 92.6533 243.371 91.7852V87.6152H245.012V86.6309H243.371V84.7236H242.195ZM252.791 94.1299C253.775 94.1299 254.582 93.6992 255.061 92.9131H255.17V94H256.291V88.9551C256.291 87.4238 255.286 86.501 253.488 86.501C251.916 86.501 250.754 87.2803 250.597 88.4629H251.786C251.95 87.8818 252.565 87.5469 253.447 87.5469C254.548 87.5469 255.115 88.0459 255.115 88.9551V89.625L252.989 89.7549C251.273 89.8574 250.303 90.6162 250.303 91.9355C250.303 93.2822 251.362 94.1299 252.791 94.1299ZM253.01 93.0977C252.155 93.0977 251.52 92.6602 251.52 91.9082C251.52 91.1699 252.012 90.7803 253.133 90.7051L255.115 90.5752V91.252C255.115 92.3047 254.22 93.0977 253.01 93.0977ZM258.957 84.7236V86.6309H257.768V87.6152H258.957V92.0859C258.957 93.4941 259.565 94.0547 261.083 94.0547C261.315 94.0547 261.541 94.0273 261.773 93.9863V92.9951C261.555 93.0156 261.438 93.0225 261.227 93.0225C260.461 93.0225 260.133 92.6533 260.133 91.7852V87.6152H261.773V86.6309H260.133V84.7236H258.957ZM51.835 112.13C52.8535 112.13 53.7285 111.645 54.1934 110.824H54.3027V112H55.4238V101.705H54.248V105.793H54.1455C53.7285 104.986 52.8604 104.501 51.835 104.501C49.9619 104.501 48.7383 106.005 48.7383 108.315C48.7383 110.633 49.9482 112.13 51.835 112.13ZM52.1084 105.561C53.4414 105.561 54.2754 106.627 54.2754 108.315C54.2754 110.018 53.4482 111.07 52.1084 111.07C50.7617 111.07 49.9551 110.038 49.9551 108.315C49.9551 106.6 50.7686 105.561 52.1084 105.561ZM58.3223 103.209C58.7734 103.209 59.1426 102.84 59.1426 102.389C59.1426 101.938 58.7734 101.568 58.3223 101.568C57.8711 101.568 57.502 101.938 57.502 102.389C57.502 102.84 57.8711 103.209 58.3223 103.209ZM57.7344 112H58.9102V104.631H57.7344V112ZM67.25 106.887C67.0449 105.574 65.9512 104.501 64.1602 104.501C62.0957 104.501 60.7832 105.991 60.7832 108.288C60.7832 110.633 62.1025 112.13 64.167 112.13C65.9375 112.13 67.0381 111.132 67.25 109.778H66.0605C65.8418 110.612 65.1514 111.07 64.1602 111.07C62.8477 111.07 62 109.99 62 108.288C62 106.62 62.834 105.561 64.1602 105.561C65.2197 105.561 65.8691 106.155 66.0605 106.887H67.25ZM69.6152 102.724V104.631H68.4258V105.615H69.6152V110.086C69.6152 111.494 70.2236 112.055 71.7412 112.055C71.9736 112.055 72.1992 112.027 72.4316 111.986V110.995C72.2129 111.016 72.0967 111.022 71.8848 111.022C71.1191 111.022 70.791 110.653 70.791 109.785V105.615H72.4316V104.631H70.791V102.724H69.6152ZM80.1699 104.631H78.9941V108.992C78.9941 110.284 78.2832 111.057 76.9844 111.057C75.8086 111.057 75.3164 110.441 75.3164 109.115V104.631H74.1406V109.402C74.1406 111.146 75.002 112.13 76.6562 112.13C77.7842 112.13 78.5703 111.665 78.9395 110.845H79.0488V112H80.1699V104.631ZM82.3848 112H83.5605V107.434C83.5605 106.395 84.3057 105.561 85.2695 105.561C86.1992 105.561 86.8076 106.121 86.8076 106.996V112H87.9834V107.263C87.9834 106.326 88.667 105.561 89.6924 105.561C90.7314 105.561 91.2441 106.094 91.2441 107.181V112H92.4199V106.907C92.4199 105.362 91.5791 104.501 90.0752 104.501C89.0566 104.501 88.2158 105.014 87.8193 105.793H87.71C87.3682 105.027 86.6709 104.501 85.6729 104.501C84.6885 104.501 83.9502 104.973 83.6152 105.793H83.5059V104.631H82.3848V112ZM99.0098 102.724V104.631H97.8203V105.615H99.0098V110.086C99.0098 111.494 99.6182 112.055 101.136 112.055C101.368 112.055 101.594 112.027 101.826 111.986V110.995C101.607 111.016 101.491 111.022 101.279 111.022C100.514 111.022 100.186 110.653 100.186 109.785V105.615H101.826V104.631H100.186V102.724H99.0098ZM109.564 104.631H108.389V108.992C108.389 110.284 107.678 111.057 106.379 111.057C105.203 111.057 104.711 110.441 104.711 109.115V104.631H103.535V109.402C103.535 111.146 104.396 112.13 106.051 112.13C107.179 112.13 107.965 111.665 108.334 110.845H108.443V112H109.564V104.631ZM111.779 112H112.955V107.434C112.955 106.395 113.769 105.643 114.89 105.643C115.122 105.643 115.546 105.684 115.642 105.711V104.535C115.491 104.515 115.245 104.501 115.054 104.501C114.076 104.501 113.229 105.007 113.01 105.725H112.9V104.631H111.779V112ZM120.837 104.501C119.832 104.501 118.95 105.014 118.479 105.861H118.369V104.631H117.248V114.461H118.424V110.893H118.533C118.937 111.672 119.784 112.13 120.837 112.13C122.71 112.13 123.934 110.619 123.934 108.315C123.934 105.998 122.717 104.501 120.837 104.501ZM120.557 111.07C119.23 111.07 118.39 110.004 118.39 108.315C118.39 106.62 119.23 105.561 120.563 105.561C121.91 105.561 122.717 106.593 122.717 108.315C122.717 110.038 121.91 111.07 120.557 111.07ZM126.395 103.209C126.846 103.209 127.215 102.84 127.215 102.389C127.215 101.938 126.846 101.568 126.395 101.568C125.943 101.568 125.574 101.938 125.574 102.389C125.574 102.84 125.943 103.209 126.395 103.209ZM125.807 112H126.982V104.631H125.807V112ZM129.054 106.647C129.054 107.714 129.683 108.309 131.063 108.644L132.328 108.951C133.114 109.143 133.497 109.484 133.497 109.99C133.497 110.667 132.786 111.139 131.795 111.139C130.852 111.139 130.264 110.742 130.065 110.12H128.855C128.985 111.344 130.113 112.13 131.754 112.13C133.429 112.13 134.707 111.221 134.707 109.901C134.707 108.842 134.037 108.24 132.649 107.905L131.515 107.632C130.646 107.42 130.236 107.105 130.236 106.6C130.236 105.943 130.92 105.499 131.795 105.499C132.684 105.499 133.258 105.889 133.415 106.477H134.577C134.42 105.267 133.347 104.501 131.802 104.501C130.236 104.501 129.054 105.424 129.054 106.647ZM137.298 114.509L138.371 110.619H137.065L136.416 114.509H137.298ZM144.489 106.647C144.489 107.714 145.118 108.309 146.499 108.644L147.764 108.951C148.55 109.143 148.933 109.484 148.933 109.99C148.933 110.667 148.222 111.139 147.23 111.139C146.287 111.139 145.699 110.742 145.501 110.12H144.291C144.421 111.344 145.549 112.13 147.189 112.13C148.864 112.13 150.143 111.221 150.143 109.901C150.143 108.842 149.473 108.24 148.085 107.905L146.95 107.632C146.082 107.42 145.672 107.105 145.672 106.6C145.672 105.943 146.355 105.499 147.23 105.499C148.119 105.499 148.693 105.889 148.851 106.477H150.013C149.855 105.267 148.782 104.501 147.237 104.501C145.672 104.501 144.489 105.424 144.489 106.647ZM156.869 110.093C156.562 110.742 155.919 111.091 154.969 111.091C153.718 111.091 152.904 110.168 152.843 108.712V108.657H158.141V108.206C158.141 105.916 156.931 104.501 154.941 104.501C152.918 104.501 151.619 106.005 151.619 108.322C151.619 110.653 152.897 112.13 154.941 112.13C156.555 112.13 157.703 111.351 158.045 110.093H156.869ZM154.928 105.54C156.097 105.54 156.876 106.401 156.903 107.707H152.843C152.932 106.401 153.752 105.54 154.928 105.54ZM162.714 112.13C163.732 112.13 164.607 111.645 165.072 110.824H165.182V112H166.303V101.705H165.127V105.793H165.024C164.607 104.986 163.739 104.501 162.714 104.501C160.841 104.501 159.617 106.005 159.617 108.315C159.617 110.633 160.827 112.13 162.714 112.13ZM162.987 105.561C164.32 105.561 165.154 106.627 165.154 108.315C165.154 110.018 164.327 111.07 162.987 111.07C161.641 111.07 160.834 110.038 160.834 108.315C160.834 106.6 161.647 105.561 162.987 105.561ZM173.029 112H174.205V105.615H175.894V104.631H174.205V103.845C174.205 103.038 174.561 102.628 175.408 102.628C175.62 102.628 175.818 102.635 175.962 102.662V101.705C175.716 101.657 175.456 101.637 175.169 101.637C173.768 101.637 173.029 102.341 173.029 103.811V104.631H171.806V105.615H173.029V112ZM179.455 112.13C180.439 112.13 181.246 111.699 181.725 110.913H181.834V112H182.955V106.955C182.955 105.424 181.95 104.501 180.152 104.501C178.58 104.501 177.418 105.28 177.261 106.463H178.45C178.614 105.882 179.229 105.547 180.111 105.547C181.212 105.547 181.779 106.046 181.779 106.955V107.625L179.653 107.755C177.938 107.857 176.967 108.616 176.967 109.936C176.967 111.282 178.026 112.13 179.455 112.13ZM179.674 111.098C178.819 111.098 178.184 110.66 178.184 109.908C178.184 109.17 178.676 108.78 179.797 108.705L181.779 108.575V109.252C181.779 110.305 180.884 111.098 179.674 111.098ZM191.227 106.887C191.021 105.574 189.928 104.501 188.137 104.501C186.072 104.501 184.76 105.991 184.76 108.288C184.76 110.633 186.079 112.13 188.144 112.13C189.914 112.13 191.015 111.132 191.227 109.778H190.037C189.818 110.612 189.128 111.07 188.137 111.07C186.824 111.07 185.977 109.99 185.977 108.288C185.977 106.62 186.811 105.561 188.137 105.561C189.196 105.561 189.846 106.155 190.037 106.887H191.227ZM193.578 103.209C194.029 103.209 194.398 102.84 194.398 102.389C194.398 101.938 194.029 101.568 193.578 101.568C193.127 101.568 192.758 101.938 192.758 102.389C192.758 102.84 193.127 103.209 193.578 103.209ZM192.99 112H194.166V104.631H192.99V112ZM196.477 112H197.652V101.705H196.477V112ZM200.551 103.209C201.002 103.209 201.371 102.84 201.371 102.389C201.371 101.938 201.002 101.568 200.551 101.568C200.1 101.568 199.73 101.938 199.73 102.389C199.73 102.84 200.1 103.209 200.551 103.209ZM199.963 112H201.139V104.631H199.963V112ZM203.21 106.647C203.21 107.714 203.839 108.309 205.22 108.644L206.484 108.951C207.271 109.143 207.653 109.484 207.653 109.99C207.653 110.667 206.942 111.139 205.951 111.139C205.008 111.139 204.42 110.742 204.222 110.12H203.012C203.142 111.344 204.27 112.13 205.91 112.13C207.585 112.13 208.863 111.221 208.863 109.901C208.863 108.842 208.193 108.24 206.806 107.905L205.671 107.632C204.803 107.42 204.393 107.105 204.393 106.6C204.393 105.943 205.076 105.499 205.951 105.499C206.84 105.499 207.414 105.889 207.571 106.477H208.733C208.576 105.267 207.503 104.501 205.958 104.501C204.393 104.501 203.21 105.424 203.21 106.647ZM211.324 103.209C211.775 103.209 212.145 102.84 212.145 102.389C212.145 101.938 211.775 101.568 211.324 101.568C210.873 101.568 210.504 101.938 210.504 102.389C210.504 102.84 210.873 103.209 211.324 103.209ZM210.736 112H211.912V104.631H210.736V112ZM213.983 106.647C213.983 107.714 214.612 108.309 215.993 108.644L217.258 108.951C218.044 109.143 218.427 109.484 218.427 109.99C218.427 110.667 217.716 111.139 216.725 111.139C215.781 111.139 215.193 110.742 214.995 110.12H213.785C213.915 111.344 215.043 112.13 216.684 112.13C218.358 112.13 219.637 111.221 219.637 109.901C219.637 108.842 218.967 108.24 217.579 107.905L216.444 107.632C215.576 107.42 215.166 107.105 215.166 106.6C215.166 105.943 215.85 105.499 216.725 105.499C217.613 105.499 218.188 105.889 218.345 106.477H219.507C219.35 105.267 218.276 104.501 216.731 104.501C215.166 104.501 213.983 105.424 213.983 106.647ZM228.147 104.501C226.281 104.501 225.064 106.005 225.064 108.315C225.064 110.64 226.268 112.13 228.147 112.13C229.187 112.13 229.979 111.699 230.451 110.893H230.561V114.461H231.75V104.631H230.615V105.861H230.506C230.068 105.034 229.152 104.501 228.147 104.501ZM228.414 111.07C227.074 111.07 226.281 110.045 226.281 108.315C226.281 106.593 227.081 105.561 228.421 105.561C229.754 105.561 230.595 106.627 230.595 108.315C230.595 110.011 229.761 111.07 228.414 111.07ZM239.926 104.631H238.75V108.992C238.75 110.284 238.039 111.057 236.74 111.057C235.564 111.057 235.072 110.441 235.072 109.115V104.631H233.896V109.402C233.896 111.146 234.758 112.13 236.412 112.13C237.54 112.13 238.326 111.665 238.695 110.845H238.805V112H239.926V104.631ZM244.191 112.13C245.176 112.13 245.982 111.699 246.461 110.913H246.57V112H247.691V106.955C247.691 105.424 246.687 104.501 244.889 104.501C243.316 104.501 242.154 105.28 241.997 106.463H243.187C243.351 105.882 243.966 105.547 244.848 105.547C245.948 105.547 246.516 106.046 246.516 106.955V107.625L244.39 107.755C242.674 107.857 241.703 108.616 241.703 109.936C241.703 111.282 242.763 112.13 244.191 112.13ZM244.41 111.098C243.556 111.098 242.92 110.66 242.92 109.908C242.92 109.17 243.412 108.78 244.533 108.705L246.516 108.575V109.252C246.516 110.305 245.62 111.098 244.41 111.098ZM249.865 112H251.041V107.434C251.041 106.395 251.786 105.561 252.75 105.561C253.68 105.561 254.288 106.121 254.288 106.996V112H255.464V107.263C255.464 106.326 256.147 105.561 257.173 105.561C258.212 105.561 258.725 106.094 258.725 107.181V112H259.9V106.907C259.9 105.362 259.06 104.501 257.556 104.501C256.537 104.501 255.696 105.014 255.3 105.793H255.19C254.849 105.027 254.151 104.501 253.153 104.501C252.169 104.501 251.431 104.973 251.096 105.793H250.986V104.631H249.865V112ZM263.018 112.068C263.51 112.068 263.906 111.665 263.906 111.18C263.906 110.688 263.51 110.291 263.018 110.291C262.532 110.291 262.129 110.688 262.129 111.18C262.129 111.665 262.532 112.068 263.018 112.068ZM55.3691 128.893H50.4883V125.502H55.1162V124.408H50.4883V121.243H55.3691V120.136H49.2578V130H55.3691V128.893ZM57.9395 120.724V122.631H56.75V123.615H57.9395V128.086C57.9395 129.494 58.5479 130.055 60.0654 130.055C60.2979 130.055 60.5234 130.027 60.7559 129.986V128.995C60.5371 129.016 60.4209 129.022 60.209 129.022C59.4434 129.022 59.1152 128.653 59.1152 127.785V123.615H60.7559V122.631H59.1152V120.724H57.9395ZM63.1484 121.209C63.5996 121.209 63.9688 120.84 63.9688 120.389C63.9688 119.938 63.5996 119.568 63.1484 119.568C62.6973 119.568 62.3281 119.938 62.3281 120.389C62.3281 120.84 62.6973 121.209 63.1484 121.209ZM62.5605 130H63.7363V122.631H62.5605V130ZM68.0293 130.13C69.0137 130.13 69.8203 129.699 70.2988 128.913H70.4082V130H71.5293V124.955C71.5293 123.424 70.5244 122.501 68.7266 122.501C67.1543 122.501 65.9922 123.28 65.835 124.463H67.0244C67.1885 123.882 67.8037 123.547 68.6855 123.547C69.7861 123.547 70.3535 124.046 70.3535 124.955V125.625L68.2275 125.755C66.5117 125.857 65.541 126.616 65.541 127.936C65.541 129.282 66.6006 130.13 68.0293 130.13ZM68.248 129.098C67.3936 129.098 66.7578 128.66 66.7578 127.908C66.7578 127.17 67.25 126.78 68.3711 126.705L70.3535 126.575V127.252C70.3535 128.305 69.458 129.098 68.248 129.098ZM73.7031 130H74.8789V125.434C74.8789 124.395 75.624 123.561 76.5879 123.561C77.5176 123.561 78.126 124.121 78.126 124.996V130H79.3018V125.263C79.3018 124.326 79.9854 123.561 81.0107 123.561C82.0498 123.561 82.5625 124.094 82.5625 125.181V130H83.7383V124.907C83.7383 123.362 82.8975 122.501 81.3936 122.501C80.375 122.501 79.5342 123.014 79.1377 123.793H79.0283C78.6865 123.027 77.9893 122.501 76.9912 122.501C76.0068 122.501 75.2686 122.973 74.9336 123.793H74.8242V122.631H73.7031V130ZM89.8359 130H91.0117V125.639C91.0117 124.347 91.7705 123.561 92.9463 123.561C94.1221 123.561 94.6826 124.189 94.6826 125.516V130H95.8584V125.229C95.8584 123.479 94.9355 122.501 93.2812 122.501C92.1533 122.501 91.4355 122.979 91.0664 123.793H90.957V122.631H89.8359V130ZM98.627 121.209C99.0781 121.209 99.4473 120.84 99.4473 120.389C99.4473 119.938 99.0781 119.568 98.627 119.568C98.1758 119.568 97.8066 119.938 97.8066 120.389C97.8066 120.84 98.1758 121.209 98.627 121.209ZM98.0391 130H99.2148V122.631H98.0391V130ZM105.121 130.13C106.987 130.13 108.211 128.619 108.211 126.315C108.211 123.998 106.994 122.501 105.121 122.501C104.109 122.501 103.214 123 102.811 123.793H102.701V119.705H101.525V130H102.646V128.824H102.756C103.221 129.645 104.096 130.13 105.121 130.13ZM104.848 123.561C106.194 123.561 106.994 124.593 106.994 126.315C106.994 128.038 106.194 129.07 104.848 129.07C103.508 129.07 102.674 128.018 102.674 126.315C102.674 124.613 103.508 123.561 104.848 123.561ZM110.125 130H111.301V125.639C111.301 124.395 112.025 123.561 113.345 123.561C114.459 123.561 115.047 124.21 115.047 125.516V130H116.223V125.229C116.223 123.499 115.238 122.501 113.68 122.501C112.552 122.501 111.779 122.979 111.41 123.793H111.301V119.705H110.125V130ZM122.32 130H123.496V125.434C123.496 124.395 124.241 123.561 125.205 123.561C126.135 123.561 126.743 124.121 126.743 124.996V130H127.919V125.263C127.919 124.326 128.603 123.561 129.628 123.561C130.667 123.561 131.18 124.094 131.18 125.181V130H132.355V124.907C132.355 123.362 131.515 122.501 130.011 122.501C128.992 122.501 128.151 123.014 127.755 123.793H127.646C127.304 123.027 126.606 122.501 125.608 122.501C124.624 122.501 123.886 122.973 123.551 123.793H123.441V122.631H122.32V130ZM136.553 130.13C137.537 130.13 138.344 129.699 138.822 128.913H138.932V130H140.053V124.955C140.053 123.424 139.048 122.501 137.25 122.501C135.678 122.501 134.516 123.28 134.358 124.463H135.548C135.712 123.882 136.327 123.547 137.209 123.547C138.31 123.547 138.877 124.046 138.877 124.955V125.625L136.751 125.755C135.035 125.857 134.064 126.616 134.064 127.936C134.064 129.282 135.124 130.13 136.553 130.13ZM136.771 129.098C135.917 129.098 135.281 128.66 135.281 127.908C135.281 127.17 135.773 126.78 136.895 126.705L138.877 126.575V127.252C138.877 128.305 137.981 129.098 136.771 129.098ZM142.056 124.647C142.056 125.714 142.685 126.309 144.065 126.644L145.33 126.951C146.116 127.143 146.499 127.484 146.499 127.99C146.499 128.667 145.788 129.139 144.797 129.139C143.854 129.139 143.266 128.742 143.067 128.12H141.857C141.987 129.344 143.115 130.13 144.756 130.13C146.431 130.13 147.709 129.221 147.709 127.901C147.709 126.842 147.039 126.24 145.651 125.905L144.517 125.632C143.648 125.42 143.238 125.105 143.238 124.6C143.238 123.943 143.922 123.499 144.797 123.499C145.686 123.499 146.26 123.889 146.417 124.477H147.579C147.422 123.267 146.349 122.501 144.804 122.501C143.238 122.501 142.056 123.424 142.056 124.647ZM149.247 124.647C149.247 125.714 149.876 126.309 151.257 126.644L152.521 126.951C153.308 127.143 153.69 127.484 153.69 127.99C153.69 128.667 152.979 129.139 151.988 129.139C151.045 129.139 150.457 128.742 150.259 128.12H149.049C149.179 129.344 150.307 130.13 151.947 130.13C153.622 130.13 154.9 129.221 154.9 127.901C154.9 126.842 154.23 126.24 152.843 125.905L151.708 125.632C150.84 125.42 150.43 125.105 150.43 124.6C150.43 123.943 151.113 123.499 151.988 123.499C152.877 123.499 153.451 123.889 153.608 124.477H154.771C154.613 123.267 153.54 122.501 151.995 122.501C150.43 122.501 149.247 123.424 149.247 124.647ZM158.797 130.13C159.781 130.13 160.588 129.699 161.066 128.913H161.176V130H162.297V124.955C162.297 123.424 161.292 122.501 159.494 122.501C157.922 122.501 156.76 123.28 156.603 124.463H157.792C157.956 123.882 158.571 123.547 159.453 123.547C160.554 123.547 161.121 124.046 161.121 124.955V125.625L158.995 125.755C157.279 125.857 156.309 126.616 156.309 127.936C156.309 129.282 157.368 130.13 158.797 130.13ZM159.016 129.098C158.161 129.098 157.525 128.66 157.525 127.908C157.525 127.17 158.018 126.78 159.139 126.705L161.121 126.575V127.252C161.121 128.305 160.226 129.098 159.016 129.098ZM165.216 132.509L166.289 128.619H164.983L164.334 132.509H165.216ZM172.407 124.647C172.407 125.714 173.036 126.309 174.417 126.644L175.682 126.951C176.468 127.143 176.851 127.484 176.851 127.99C176.851 128.667 176.14 129.139 175.148 129.139C174.205 129.139 173.617 128.742 173.419 128.12H172.209C172.339 129.344 173.467 130.13 175.107 130.13C176.782 130.13 178.061 129.221 178.061 127.901C178.061 126.842 177.391 126.24 176.003 125.905L174.868 125.632C174 125.42 173.59 125.105 173.59 124.6C173.59 123.943 174.273 123.499 175.148 123.499C176.037 123.499 176.611 123.889 176.769 124.477H177.931C177.773 123.267 176.7 122.501 175.155 122.501C173.59 122.501 172.407 123.424 172.407 124.647ZM182.935 130.13C185.033 130.13 186.332 128.681 186.332 126.315C186.332 123.943 185.033 122.501 182.935 122.501C180.836 122.501 179.537 123.943 179.537 126.315C179.537 128.681 180.836 130.13 182.935 130.13ZM182.935 129.07C181.54 129.07 180.754 128.059 180.754 126.315C180.754 124.565 181.54 123.561 182.935 123.561C184.329 123.561 185.115 124.565 185.115 126.315C185.115 128.059 184.329 129.07 182.935 129.07ZM188.246 130H189.422V119.705H188.246V130ZM191.773 130H192.949V119.705H191.773V130ZM195.848 121.209C196.299 121.209 196.668 120.84 196.668 120.389C196.668 119.938 196.299 119.568 195.848 119.568C195.396 119.568 195.027 119.938 195.027 120.389C195.027 120.84 195.396 121.209 195.848 121.209ZM195.26 130H196.436V122.631H195.26V130ZM204.775 124.887C204.57 123.574 203.477 122.501 201.686 122.501C199.621 122.501 198.309 123.991 198.309 126.288C198.309 128.633 199.628 130.13 201.692 130.13C203.463 130.13 204.563 129.132 204.775 127.778H203.586C203.367 128.612 202.677 129.07 201.686 129.07C200.373 129.07 199.525 127.99 199.525 126.288C199.525 124.62 200.359 123.561 201.686 123.561C202.745 123.561 203.395 124.155 203.586 124.887H204.775ZM207.127 121.209C207.578 121.209 207.947 120.84 207.947 120.389C207.947 119.938 207.578 119.568 207.127 119.568C206.676 119.568 206.307 119.938 206.307 120.389C206.307 120.84 206.676 121.209 207.127 121.209ZM206.539 130H207.715V122.631H206.539V130ZM210.449 120.724V122.631H209.26V123.615H210.449V128.086C210.449 129.494 211.058 130.055 212.575 130.055C212.808 130.055 213.033 130.027 213.266 129.986V128.995C213.047 129.016 212.931 129.022 212.719 129.022C211.953 129.022 211.625 128.653 211.625 127.785V123.615H213.266V122.631H211.625V120.724H210.449ZM221.004 122.631H219.828V126.992C219.828 128.284 219.117 129.057 217.818 129.057C216.643 129.057 216.15 128.441 216.15 127.115V122.631H214.975V127.402C214.975 129.146 215.836 130.13 217.49 130.13C218.618 130.13 219.404 129.665 219.773 128.845H219.883V130H221.004V122.631ZM225.946 130.13C226.965 130.13 227.84 129.645 228.305 128.824H228.414V130H229.535V119.705H228.359V123.793H228.257C227.84 122.986 226.972 122.501 225.946 122.501C224.073 122.501 222.85 124.005 222.85 126.315C222.85 128.633 224.06 130.13 225.946 130.13ZM226.22 123.561C227.553 123.561 228.387 124.627 228.387 126.315C228.387 128.018 227.56 129.07 226.22 129.07C224.873 129.07 224.066 128.038 224.066 126.315C224.066 124.6 224.88 123.561 226.22 123.561ZM232.434 121.209C232.885 121.209 233.254 120.84 233.254 120.389C233.254 119.938 232.885 119.568 232.434 119.568C231.982 119.568 231.613 119.938 231.613 120.389C231.613 120.84 231.982 121.209 232.434 121.209ZM231.846 130H233.021V122.631H231.846V130ZM235.264 130H236.439V125.639C236.439 124.347 237.198 123.561 238.374 123.561C239.55 123.561 240.11 124.189 240.11 125.516V130H241.286V125.229C241.286 123.479 240.363 122.501 238.709 122.501C237.581 122.501 236.863 122.979 236.494 123.793H236.385V122.631H235.264V130ZM253.406 122.631H252.148L250.132 128.701H250.022L248.006 122.631H246.748L249.476 130H250.679L253.406 122.631ZM255.594 121.209C256.045 121.209 256.414 120.84 256.414 120.389C256.414 119.938 256.045 119.568 255.594 119.568C255.143 119.568 254.773 119.938 254.773 120.389C254.773 120.84 255.143 121.209 255.594 121.209ZM255.006 130H256.182V122.631H255.006V130ZM258.916 120.724V122.631H257.727V123.615H258.916V128.086C258.916 129.494 259.524 130.055 261.042 130.055C261.274 130.055 261.5 130.027 261.732 129.986V128.995C261.514 129.016 261.397 129.022 261.186 129.022C260.42 129.022 260.092 128.653 260.092 127.785V123.615H261.732V122.631H260.092V120.724H258.916ZM265.561 130.13C266.545 130.13 267.352 129.699 267.83 128.913H267.939V130H269.061V124.955C269.061 123.424 268.056 122.501 266.258 122.501C264.686 122.501 263.523 123.28 263.366 124.463H264.556C264.72 123.882 265.335 123.547 266.217 123.547C267.317 123.547 267.885 124.046 267.885 124.955V125.625L265.759 125.755C264.043 125.857 263.072 126.616 263.072 127.936C263.072 129.282 264.132 130.13 265.561 130.13ZM265.779 129.098C264.925 129.098 264.289 128.66 264.289 127.908C264.289 127.17 264.781 126.78 265.902 126.705L267.885 126.575V127.252C267.885 128.305 266.989 129.098 265.779 129.098ZM276.115 128.093C275.808 128.742 275.165 129.091 274.215 129.091C272.964 129.091 272.15 128.168 272.089 126.712V126.657H277.387V126.206C277.387 123.916 276.177 122.501 274.188 122.501C272.164 122.501 270.865 124.005 270.865 126.322C270.865 128.653 272.144 130.13 274.188 130.13C275.801 130.13 276.949 129.351 277.291 128.093H276.115ZM274.174 123.54C275.343 123.54 276.122 124.401 276.149 125.707H272.089C272.178 124.401 272.998 123.54 274.174 123.54ZM49.1758 148H50.3516V137.705H49.1758V148ZM53.25 139.209C53.7012 139.209 54.0703 138.84 54.0703 138.389C54.0703 137.938 53.7012 137.568 53.25 137.568C52.7988 137.568 52.4297 137.938 52.4297 138.389C52.4297 138.84 52.7988 139.209 53.25 139.209ZM52.6621 148H53.8379V140.631H52.6621V148ZM59.7441 148.13C61.6104 148.13 62.834 146.619 62.834 144.315C62.834 141.998 61.6172 140.501 59.7441 140.501C58.7324 140.501 57.8369 141 57.4336 141.793H57.3242V137.705H56.1484V148H57.2695V146.824H57.3789C57.8438 147.645 58.7188 148.13 59.7441 148.13ZM59.4707 141.561C60.8174 141.561 61.6172 142.593 61.6172 144.315C61.6172 146.038 60.8174 147.07 59.4707 147.07C58.1309 147.07 57.2969 146.018 57.2969 144.315C57.2969 142.613 58.1309 141.561 59.4707 141.561ZM69.5605 146.093C69.2529 146.742 68.6104 147.091 67.6602 147.091C66.4092 147.091 65.5957 146.168 65.5342 144.712V144.657H70.832V144.206C70.832 141.916 69.6221 140.501 67.6328 140.501C65.6094 140.501 64.3105 142.005 64.3105 144.322C64.3105 146.653 65.5889 148.13 67.6328 148.13C69.2461 148.13 70.3945 147.351 70.7363 146.093H69.5605ZM67.6191 141.54C68.7881 141.54 69.5674 142.401 69.5947 143.707H65.5342C65.623 142.401 66.4434 141.54 67.6191 141.54ZM72.6777 148H73.8535V143.434C73.8535 142.395 74.667 141.643 75.7881 141.643C76.0205 141.643 76.4443 141.684 76.54 141.711V140.535C76.3896 140.515 76.1436 140.501 75.9521 140.501C74.9746 140.501 74.127 141.007 73.9082 141.725H73.7988V140.631H72.6777V148ZM80.833 148.13C82.9316 148.13 84.2305 146.681 84.2305 144.315C84.2305 141.943 82.9316 140.501 80.833 140.501C78.7344 140.501 77.4355 141.943 77.4355 144.315C77.4355 146.681 78.7344 148.13 80.833 148.13ZM80.833 147.07C79.4385 147.07 78.6523 146.059 78.6523 144.315C78.6523 142.565 79.4385 141.561 80.833 141.561C82.2275 141.561 83.0137 142.565 83.0137 144.315C83.0137 146.059 82.2275 147.07 80.833 147.07ZM92.0781 148.13C93.0625 148.13 93.8691 147.699 94.3477 146.913H94.457V148H95.5781V142.955C95.5781 141.424 94.5732 140.501 92.7754 140.501C91.2031 140.501 90.041 141.28 89.8838 142.463H91.0732C91.2373 141.882 91.8525 141.547 92.7344 141.547C93.835 141.547 94.4023 142.046 94.4023 142.955V143.625L92.2764 143.755C90.5605 143.857 89.5898 144.616 89.5898 145.936C89.5898 147.282 90.6494 148.13 92.0781 148.13ZM92.2969 147.098C91.4424 147.098 90.8066 146.66 90.8066 145.908C90.8066 145.17 91.2988 144.78 92.4199 144.705L94.4023 144.575V145.252C94.4023 146.305 93.5068 147.098 92.2969 147.098ZM103.85 142.887C103.645 141.574 102.551 140.501 100.76 140.501C98.6953 140.501 97.3828 141.991 97.3828 144.288C97.3828 146.633 98.7021 148.13 100.767 148.13C102.537 148.13 103.638 147.132 103.85 145.778H102.66C102.441 146.612 101.751 147.07 100.76 147.07C99.4473 147.07 98.5996 145.99 98.5996 144.288C98.5996 142.62 99.4336 141.561 100.76 141.561C101.819 141.561 102.469 142.155 102.66 142.887H103.85ZM106.557 148.068C107.049 148.068 107.445 147.665 107.445 147.18C107.445 146.688 107.049 146.291 106.557 146.291C106.071 146.291 105.668 146.688 105.668 147.18C105.668 147.665 106.071 148.068 106.557 148.068Z" fill="#616161"/>
<rect x="48" y="168" width="232" height="36" rx="8" fill="#999999"/>
<path d="M148.016 192H149.875L145.805 180.727H143.922L139.852 192H141.648L142.688 188.953H146.984L148.016 192ZM144.773 182.719H144.906L146.539 187.547H143.133L144.773 182.719ZM158.383 186.242C158.164 184.594 156.875 183.352 154.742 183.352C152.266 183.352 150.758 185.031 150.758 187.727C150.758 190.477 152.273 192.164 154.75 192.164C156.852 192.164 158.164 190.984 158.383 189.312H156.75C156.531 190.234 155.805 190.734 154.742 190.734C153.344 190.734 152.477 189.602 152.477 187.727C152.477 185.891 153.336 184.781 154.742 184.781C155.867 184.781 156.555 185.414 156.75 186.242H158.383ZM161.023 181.375V183.539H159.672V184.883H161.023V189.766C161.023 191.398 161.766 192.055 163.633 192.055C163.961 192.055 164.273 192.016 164.547 191.969V190.633C164.312 190.656 164.164 190.672 163.906 190.672C163.07 190.672 162.703 190.273 162.703 189.359V184.883H164.547V183.539H162.703V181.375H161.023ZM167.391 182C167.977 182 168.453 181.523 168.453 180.945C168.453 180.359 167.977 179.883 167.391 179.883C166.805 179.883 166.328 180.359 166.328 180.945C166.328 181.523 166.805 182 167.391 182ZM166.555 192H168.227V183.516H166.555V192ZM174.289 192.164C176.773 192.164 178.297 190.5 178.297 187.758C178.297 185.016 176.766 183.352 174.289 183.352C171.805 183.352 170.273 185.023 170.273 187.758C170.273 190.5 171.797 192.164 174.289 192.164ZM174.289 190.734C172.828 190.734 172.008 189.648 172.008 187.758C172.008 185.867 172.828 184.773 174.289 184.773C175.742 184.773 176.57 185.867 176.57 187.758C176.57 189.641 175.742 190.734 174.289 190.734ZM180.32 192H182V187.023C182 185.656 182.789 184.812 184.031 184.812C185.273 184.812 185.867 185.5 185.867 186.906V192H187.547V186.508C187.547 184.484 186.5 183.352 184.602 183.352C183.32 183.352 182.477 183.922 182.062 184.859H181.938V183.516H180.32V192Z" fill="white"/>
<path d="M148.016 240H149.875L145.805 228.727H143.922L139.852 240H141.648L142.688 236.953H146.984L148.016 240ZM144.773 230.719H144.906L146.539 235.547H143.133L144.773 230.719ZM158.383 234.242C158.164 232.594 156.875 231.352 154.742 231.352C152.266 231.352 150.758 233.031 150.758 235.727C150.758 238.477 152.273 240.164 154.75 240.164C156.852 240.164 158.164 238.984 158.383 237.312H156.75C156.531 238.234 155.805 238.734 154.742 238.734C153.344 238.734 152.477 237.602 152.477 235.727C152.477 233.891 153.336 232.781 154.742 232.781C155.867 232.781 156.555 233.414 156.75 234.242H158.383ZM161.023 229.375V231.539H159.672V232.883H161.023V237.766C161.023 239.398 161.766 240.055 163.633 240.055C163.961 240.055 164.273 240.016 164.547 239.969V238.633C164.312 238.656 164.164 238.672 163.906 238.672C163.07 238.672 162.703 238.273 162.703 237.359V232.883H164.547V231.539H162.703V229.375H161.023ZM167.391 230C167.977 230 168.453 229.523 168.453 228.945C168.453 228.359 167.977 227.883 167.391 227.883C166.805 227.883 166.328 228.359 166.328 228.945C166.328 229.523 166.805 230 167.391 230ZM166.555 240H168.227V231.516H166.555V240ZM174.289 240.164C176.773 240.164 178.297 238.5 178.297 235.758C178.297 233.016 176.766 231.352 174.289 231.352C171.805 231.352 170.273 233.023 170.273 235.758C170.273 238.5 171.797 240.164 174.289 240.164ZM174.289 238.734C172.828 238.734 172.008 237.648 172.008 235.758C172.008 233.867 172.828 232.773 174.289 232.773C175.742 232.773 176.57 233.867 176.57 235.758C176.57 237.641 175.742 238.734 174.289 238.734ZM180.32 240H182V235.023C182 233.656 182.789 232.812 184.031 232.812C185.273 232.812 185.867 233.5 185.867 234.906V240H187.547V234.508C187.547 232.484 186.5 231.352 184.602 231.352C183.32 231.352 182.477 231.922 182.062 232.859H181.938V231.516H180.32V240Z" fill="#999999"/>
</g>
<defs>
<filter id="filter0_d_320_4029" x="0" y="0" width="328" height="316" filterUnits="userSpaceOnUse" color-interpolation-filters="sRGB">
<feFlood flood-opacity="0" result="BackgroundImageFix"/>
<feColorMatrix in="SourceAlpha" type="matrix" values="0 0 0 0 0 0 0 0 0 0 0 0 0 0 0 0 0 0 127 0" result="hardAlpha"/>
<feOffset dy="16"/>
<feGaussianBlur stdDeviation="12"/>
<feColorMatrix type="matrix" values="0 0 0 0 0 0 0 0 0 0 0 0 0 0 0 0 0 0 0.24 0"/>
<feBlend mode="normal" in2="BackgroundImageFix" result="effect1_dropShadow_320_4029"/>
<feBlend mode="normal" in="SourceGraphic" in2="effect1_dropShadow_320_4029" result="shape"/>
</filter>
</defs>
</svg>
