<svg width="24" height="24" viewBox="0 0 24 24" fill="none" xmlns="http://www.w3.org/2000/svg">
<path d="M7 10C7.55228 10 8 9.56149 8 9.02056C8 8.47963 7.55228 8.04112 7 8.04112C6.44772 8.04112 6 8.47963 6 9.02056C6 9.56149 6.44772 10 7 10Z" fill="#6A1EE5"/>
<path d="M11 9.02056C11 9.56149 10.5523 10 10 10C9.44772 10 9 9.56149 9 9.02056C9 8.47963 9.44772 8.04112 10 8.04112C10.5523 8.04112 11 8.47963 11 9.02056Z" fill="#6A1EE5"/>
<path d="M13 10C13.5523 10 14 9.56149 14 9.02056C14 8.47963 13.5523 8.04112 13 8.04112C12.4477 8.04112 12 8.47963 12 9.02056C12 9.56149 12.4477 10 13 10Z" fill="#6A1EE5"/>
<path fill-rule="evenodd" clip-rule="evenodd" d="M2 5.00001C2 3.89544 2.89543 3.00001 4 3.00001L16 3C17.1046 3 18 3.89543 18 5V10H20C21.1046 10 22 10.8954 22 12V18C22 19.1046 21.1046 20 20 20C20 21 20 23 20 23L17 20H11C9.89543 20 9 19.1046 9 18V15H7L4 18L4 15C2.89543 15 2 14.1046 2 13V5.00001ZM16 13H4L4 5H16V13Z" fill="#6A1EE5"/>
</svg>
