<svg width="1024" height="1024" viewBox="0 0 1024 1024" fill="none" xmlns="http://www.w3.org/2000/svg">
<path d="M941.297 192.897H82.7025C67.9551 192.897 56 204.853 56 219.6V836.18C56 850.927 67.9551 862.882 82.7025 862.882H941.297C956.045 862.882 968 850.927 968 836.18V219.6C968 204.853 956.045 192.897 941.297 192.897Z" fill="#E4EBF7"/>
<path d="M875.516 312.031H148.484C142.878 312.031 138.333 316.576 138.333 322.182V791.391C138.333 796.997 142.878 801.542 148.484 801.542H875.516C881.122 801.542 885.667 796.997 885.667 791.391V322.182C885.667 316.576 881.122 312.031 875.516 312.031Z" fill="#253368"/>
<path d="M744.266 462.378H238.428V486.136H744.266V462.378Z" fill="#A3B5D6"/>
<path d="M491.333 545.022H238.414V568.78H491.333V545.022Z" fill="#E4EBF7"/>
<path d="M491.333 710.312H238.414V734.07H491.333V710.312Z" fill="#A3B5D6"/>
<path d="M390.151 379.419H238.4V403.177H390.151V379.419Z" fill="#A3B5D6"/>
<path d="M618.4 544.708H542.4V568.466H618.4V544.708Z" fill="#E4EBF7"/>
<path d="M617.799 627.668H238.421V651.426H617.799V627.668Z" fill="#A3B5D6"/>
<path d="M80.4286 162H943.113C956.605 162 967.542 172.71 967.542 185.921V257.205H56V185.921C56 172.71 66.937 162 80.4286 162Z" fill="#253368"/>
<path d="M108.216 226.676C117.846 226.676 125.652 219.032 125.652 209.603C125.652 200.173 117.846 192.529 108.216 192.529C98.5866 192.529 90.7803 200.173 90.7803 209.603C90.7803 219.032 98.5866 226.676 108.216 226.676Z" fill="#A3B5D6"/>
<path d="M173.338 226.676C182.968 226.676 190.774 219.032 190.774 209.603C190.774 200.173 182.968 192.529 173.338 192.529C163.709 192.529 155.903 200.173 155.903 209.603C155.903 219.032 163.709 226.676 173.338 226.676Z" fill="#E4EBF7"/>
<path d="M238.471 226.676C248.101 226.676 255.907 219.032 255.907 209.603C255.907 200.173 248.101 192.529 238.471 192.529C228.842 192.529 221.035 200.173 221.035 209.603C221.035 219.032 228.842 226.676 238.471 226.676Z" fill="#E4EBF7"/>
</svg>
