<?xml version="1.0" encoding="UTF-8"?><svg id="Layer_2" xmlns="http://www.w3.org/2000/svg" viewBox="0 0 472.93 472.94"><defs><style>.cls-1,.cls-2{stroke:#9ecd28;}.cls-1,.cls-2,.cls-3,.cls-4{fill:none;stroke-miterlimit:10;stroke-width:12px;}.cls-1,.cls-4{stroke-linecap:square;}.cls-3,.cls-4{stroke:#046b99;}</style></defs><g id="Layer_1-2"><g id="idea_9"><path id="path_62" class="cls-3" d="m162.25,466.94H6c0-43.15,34.98-78.13,78.13-78.13s78.12,34.98,78.12,78.13Z"/><path id="path_63" class="cls-3" d="m123.18,310.69c0,21.57-17.48,39.06-39.06,39.06s-39.06-17.49-39.06-39.06,17.49-39.06,39.06-39.06,39.06,17.49,39.06,39.06Z"/><path id="path_64" class="cls-3" d="m466.93,466.94h-156.25c0-43.15,34.98-78.13,78.13-78.13s78.12,34.98,78.12,78.13Z"/><path id="path_65" class="cls-3" d="m427.87,310.69c0,21.57-17.49,39.06-39.06,39.06s-39.06-17.49-39.06-39.06,17.49-39.06,39.06-39.06,39.06,17.49,39.06,39.06Z"/><path id="path_66" class="cls-2" d="m236.47,6c64.84,0,117.19,52.34,117.19,117.19,0,74.94-62.16,82.44-75.59,162.69-3.14,18.8-19.41,32.62-38.48,32.62h-6.24c-19.11,0-35.33-13.78-38.48-32.62-13.43-80.26-75.59-87.73-75.59-162.69,0-64.85,52.35-117.19,117.19-117.19Z"/><path id="path_67" class="cls-2" d="m179.23,240.38h114.48"/><path id="path_68" class="cls-4" d="m197.4,123.19c0-21.54,17.53-39.06,39.07-39.06"/><path id="path_69" class="cls-1" d="m19.93,29.59l36.09,14.95"/><path id="path_70" class="cls-1" d="m416.91,194.03l36.09,14.95"/><path id="path_71" class="cls-1" d="m19.93,208.98l36.09-14.95"/><path id="path_72" class="cls-1" d="m416.91,44.54l36.09-14.95"/></g></g></svg>