<?xml version="1.0" encoding="UTF-8"?><svg id="Layer_2" xmlns="http://www.w3.org/2000/svg" viewBox="0 0 299.46 264.37"><defs><style>.cls-1{fill:#fff;}.cls-2{fill:#b487f7;}.cls-3{fill:#6a1ee5;}</style></defs><g id="_Layer_"><g><path class="cls-2" d="M90.15,49.55c-.32,.41-.63,.83-.94,1.25-20.48,27.54-25.76,65.55-18.45,98.58,5.82,26.29,17.48,52.44,39.11,69.46,22.69,17.86,59.41,27.88,87.13,17.09,12.75-4.96,22.24-15.1,26.45-28.17,2.74-8.51,3.01-17.59,4.72-26.37,2.84-14.56,13.48-24.48,25.64-31.99,12.63-7.8,25.16-14.35,33.73-26.92,7.66-11.25,11.85-24.87,11.92-38.48,.17-31.78-19.99-59.34-48.13-72.99C227.83-.4,200.49-2.18,174.74,2.19c-32.15,5.45-64.41,21.08-84.59,47.36Z"/><path class="cls-2" d="M239.11,180.59c0,11.49,9.31,20.8,20.8,20.8s20.8-9.31,20.8-20.8-9.31-20.8-20.8-20.8-20.8,9.31-20.8,20.8Z"/><g><polygon class="cls-1" points="57.29 178.75 200.82 178.75 256.91 178.75 256.91 132.67 256.91 26.6 57.29 26.6 57.29 178.75"/><polygon class="cls-3" points="57.29 47.55 200.82 47.55 256.91 47.55 256.91 41.2 256.91 26.6 57.29 26.6 57.29 47.55"/><path d="M256.91,179.53H57.29c-.43,0-.79-.35-.79-.79V26.6c0-.43,.35-.79,.79-.79h199.61c.43,0,.79,.35,.79,.79V178.75c0,.43-.35,.79-.79,.79Zm-198.83-1.57h198.04V27.39H58.08V177.96Z"/><path d="M256.91,48.33H57.29c-.43,0-.79-.35-.79-.79s.35-.79,.79-.79h199.61c.43,0,.79,.35,.79,.79s-.35,.79-.79,.79Z"/></g><path class="cls-1" d="M3.56,209.13l7.94-20.3s-.4-33.3,2.42-48.76c4.32-23.73,15.2-26.2,15.2-26.2,0,0,9.29-25.06,27.88-39.1,18.88-14.27,37.8-15.65,41.36-4.16,3.78,12.19-15.9,16.55-24.61,34.22-5.85,11.85-5.7,16.88-5.7,16.88,0,0,20.54-8.51,22.71,15.36,0,0,11.26-12.33,24.41-17.38,11.98-4.59,25.81,.08,24.46,12.34-1.27,11.61-24.49,21.81-29.62,37.03-6.08,18.07-7.02,29.11-25.01,47.47l-6.33,19.47c-6.85,21.07-29.56,32.53-50.58,25.51-21.65-7.23-32.84-31.12-24.52-52.38Z"/><path d="M36.36,234.16c-15.74-5.25-26.5-18.43-29.48-33.52l-3.32,8.49c-8.32,21.26,2.87,45.15,24.52,52.38,21.02,7.02,43.73-4.44,50.58-25.51l4.58-14.08c-11.45,12.6-29.68,17.99-46.88,12.24Z"/><path d="M40.76,264.37c-4.34,0-8.69-.7-12.93-2.12-10.68-3.57-19.19-11.15-23.96-21.34-4.77-10.2-5.14-21.59-1.04-32.07l7.89-20.16c-.02-2.48-.27-33.94,2.43-48.76,3.94-21.63,13.25-25.98,15.38-26.7,1.25-3.18,10.67-26,28-39.09,12.66-9.57,26.41-13.95,35.03-11.18,3.81,1.23,6.42,3.79,7.55,7.41,2.24,7.22-3.26,11.94-9.62,17.41-5.25,4.51-11.2,9.62-15.03,17.39-4.14,8.39-5.23,13.33-5.51,15.38,2.68-.85,9.35-2.42,14.86,.91,4.11,2.49,6.65,7.14,7.56,13.84,3.23-3.28,12.67-12.19,23.53-16.35,7.6-2.91,15.8-2.26,20.89,1.67,3.56,2.74,5.16,6.71,4.63,11.49-.67,6.08-6.92,11.67-13.54,17.59-6.69,5.98-13.61,12.16-16.11,19.61-1.01,3.01-1.88,5.82-2.72,8.53-4.1,13.27-7.34,23.76-22.35,39.11l-6.27,19.29c-3.38,10.39-10.61,18.83-20.37,23.75-5.77,2.91-12,4.38-18.28,4.38ZM3.56,209.13l.73,.29c-3.94,10.08-3.59,21.03,1,30.83,4.59,9.8,12.77,17.09,23.04,20.52,9.97,3.33,20.62,2.55,30-2.18,9.38-4.73,16.34-12.84,19.58-22.83l6.33-19.47c.04-.12,.1-.22,.19-.31,14.85-15.15,17.89-24.99,22.1-38.61,.84-2.72,1.71-5.53,2.73-8.57,2.64-7.84,9.71-14.16,16.55-20.28,6.39-5.71,12.43-11.11,13.03-16.59,.46-4.2-.93-7.68-4.03-10.07-4.6-3.55-12.38-4.13-19.37-1.45-12.82,4.92-24,17.05-24.11,17.17-.21,.23-.54,.31-.83,.22-.3-.1-.5-.36-.53-.67-.64-7.09-3-11.91-6.99-14.32-6.26-3.78-14.55-.42-14.64-.38-.24,.1-.51,.07-.73-.07-.22-.14-.35-.38-.36-.64,0-.21-.09-5.36,5.78-17.25,3.98-8.06,10.06-13.28,15.42-17.89,6.43-5.52,11.08-9.51,9.15-15.75-.98-3.15-3.17-5.3-6.53-6.38-8.15-2.63-21.34,1.67-33.6,10.94-18.18,13.74-27.52,38.5-27.61,38.75-.09,.25-.3,.43-.56,.49-.1,.02-10.45,2.75-14.6,25.57-2.77,15.21-2.41,48.28-2.4,48.61,0,.1-.02,.2-.05,.3l-7.94,20.3-.73-.29Z"/><g><rect class="cls-3" x="97.8" y="57.35" width="59.05" height="59.05" transform="translate(29.84 -32.52) rotate(16.47)"/><path class="cls-1" d="M156.29,80.21c-1.31,4.42-5.94,6.94-10.36,5.63-4.42-1.31-6.94-5.94-5.63-10.36,1.31-4.42,5.94-6.94,10.36-5.63s6.94,5.94,5.63,10.36Z"/><path d="M154.55,98.91c-2.02-1.78-4.73-2.58-7.42-2.77-3.8-.27-7.66,1.21-11.41,.54-4.13-.74-6.31-4.61-7.92-8.1-1.7-3.66-3.33-7.1-6.51-9.72-2.64-2.18-5.89-3.61-9.29-4.04-4.72-.6-9.45,.92-13.05,3.87l-8.32,28.14,56.63,16.74,7.29-24.65Z"/><path d="M147.27,124.34c-.07,0-.15-.01-.22-.03l-56.63-16.74c-.2-.06-.37-.19-.47-.38-.1-.18-.12-.4-.06-.6l16.74-56.63c.12-.42,.56-.65,.98-.53l56.63,16.74c.42,.12,.65,.56,.53,.98l-16.74,56.63c-.06,.2-.19,.37-.38,.47-.12,.06-.25,.1-.38,.1Zm-55.65-18.05l55.12,16.29,16.29-55.12-55.12-16.29-16.29,55.12Z"/></g><path d="M25.39,131.87c-.59-.11-.86-.53-.77-.95l3.73-17.21c.09-.42,.51-.69,.93-.6,.42,.09,.69,.51,.6,.93l-3.73,17.21c-.08,.37-.4,.62-.77,.62Z"/><path d="M74.72,143.4c-.1,0-.21-.02-.31-.06-.4-.17-.58-.63-.41-1.03l4.29-9.94c.17-.4,.64-.58,1.03-.41,.4,.17,.58,.63,.41,1.03l-4.29,9.94c-.13,.3-.42,.47-.72,.47Z"/><path d="M78.54,144.43c-1.42,0-2.85-.33-4.22-1.14-7.26-4.3-7.09-20.89-7.07-21.6,0-.43,.36-.77,.79-.77,.45,0,.79,.36,.79,.8,0,.16-.18,16.38,6.3,20.22,6.33,3.75,14.96-5.32,15.05-5.41,.3-.32,.79-.33,1.11-.03,.32,.3,.33,.79,.04,1.11-.32,.34-6.49,6.83-12.78,6.83Z"/><g><path d="M76.19,36.47c0,2.29-1.86,4.15-4.15,4.15s-4.15-1.86-4.15-4.15,1.86-4.15,4.15-4.15,4.15,1.86,4.15,4.15Z"/><path class="cls-1" d="M106.88,36.47c0,2.29-1.86,4.15-4.15,4.15s-4.15-1.86-4.15-4.15,1.86-4.15,4.15-4.15,4.15,1.86,4.15,4.15Z"/><path class="cls-2" d="M91.54,36.47c0,2.29-1.86,4.15-4.15,4.15s-4.15-1.86-4.15-4.15,1.86-4.15,4.15-4.15,4.15,1.86,4.15,4.15Z"/></g><g><g><g><path d="M217.86,94.52c-.31,0-.61-.19-.73-.49l-14.03-35.17-14.03,35.17c-.16,.4-.62,.6-1.02,.44-.4-.16-.6-.62-.44-1.02l14.76-36.99c.12-.3,.41-.49,.73-.49s.61,.2,.73,.49l14.76,36.99c.16,.4-.04,.86-.44,1.02-.1,.04-.19,.06-.29,.06Z"/><path d="M214.98,82.07h-23.76c-.43,0-.79-.35-.79-.79s.35-.79,.79-.79h23.76c.43,0,.79,.35,.79,.79s-.35,.79-.79,.79Z"/></g><path class="cls-3" d="M233.34,94.52c-4.56,0-8.27-3.71-8.27-8.27s3.71-8.27,8.27-8.27,8.27,3.71,8.27,8.27-3.71,8.27-8.27,8.27Zm0-14.97c-3.69,0-6.7,3.01-6.7,6.7s3.01,6.7,6.7,6.7,6.7-3.01,6.7-6.7-3.01-6.7-6.7-6.7Z"/><path class="cls-3" d="M240.83,94.52c-.43,0-.79-.35-.79-.79v-13.71c0-.43,.35-.79,.79-.79s.79,.35,.79,.79v13.71c0,.43-.35,.79-.79,.79Z"/></g><path d="M240.83,98.51h-52.49c-.43,0-.79-.35-.79-.79s.35-.79,.79-.79h52.49c.43,0,.79,.35,.79,.79s-.35,.79-.79,.79Z"/></g><g><path d="M215.1,163.76c-13.11,0-23.77-10.66-23.77-23.77s10.66-23.77,23.77-23.77,23.77,10.66,23.77,23.77-10.66,23.77-23.77,23.77Zm0-45.97c-12.24,0-22.2,9.96-22.2,22.2s9.96,22.2,22.2,22.2,22.2-9.96,22.2-22.2-9.96-22.2-22.2-22.2Z"/><path class="cls-3" d="M219.04,117.01c0,2.18-1.76,3.94-3.94,3.94s-3.94-1.76-3.94-3.94,1.76-3.94,3.94-3.94,3.94,1.76,3.94,3.94Z"/><path d="M219.04,162.98c0,2.18-1.76,3.94-3.94,3.94s-3.94-1.76-3.94-3.94,1.76-3.94,3.94-3.94,3.94,1.76,3.94,3.94Z"/><path d="M238.08,143.93c-2.18,0-3.94-1.76-3.94-3.94s1.76-3.94,3.94-3.94,3.94,1.76,3.94,3.94-1.76,3.94-3.94,3.94Z"/><path class="cls-3" d="M192.12,143.93c-2.18,0-3.94-1.76-3.94-3.94s1.76-3.94,3.94-3.94,3.94,1.76,3.94,3.94-1.76,3.94-3.94,3.94Z"/></g></g></g></svg>