<svg width="1024" height="1024" viewBox="0 0 1024 1024" fill="none" xmlns="http://www.w3.org/2000/svg">
<path fill-rule="evenodd" clip-rule="evenodd" d="M967.693 253.594H56.915V190.782C56.915 177.156 68.0067 166.109 81.6871 166.109H942.921C956.602 166.109 967.693 177.156 967.693 190.782V253.594Z" fill="#253368"/>
<path fill-rule="evenodd" clip-rule="evenodd" d="M120.779 207.184C120.779 215.735 113.862 222.668 105.328 222.668C96.7962 222.668 89.8795 215.735 89.8795 207.184C89.8795 198.633 96.7962 191.7 105.328 191.7C113.862 191.7 120.779 198.633 120.779 207.184Z" fill="#A3B5D6"/>
<path fill-rule="evenodd" clip-rule="evenodd" d="M178.465 207.184C178.465 215.735 171.548 222.668 163.015 222.668C154.483 222.668 147.566 215.735 147.566 207.184C147.566 198.633 154.483 191.7 163.015 191.7C171.548 191.7 178.465 198.633 178.465 207.184Z" fill="#E4EBF7"/>
<path fill-rule="evenodd" clip-rule="evenodd" d="M236.152 207.184C236.152 215.735 229.235 222.668 220.702 222.668C212.17 222.668 205.253 215.735 205.253 207.184C205.253 198.633 212.17 191.7 220.702 191.7C229.235 191.7 236.152 198.633 236.152 207.184Z" fill="#E4EBF7"/>
<path fill-rule="evenodd" clip-rule="evenodd" d="M84.5027 857.157C69.2677 857.157 56.9156 846.126 56.9156 832.518V245.854H967.741V832.518C967.741 846.126 955.39 857.157 940.154 857.157H84.5027Z" fill="#E4EBF7"/>
<path d="M895.658 296.338H368.246C362.175 296.338 357.253 301.26 357.253 307.331V799.353C357.253 805.424 362.175 810.346 368.246 810.346H895.658C901.729 810.346 906.651 805.424 906.651 799.353V307.331C906.651 301.26 901.729 296.338 895.658 296.338Z" fill="white"/>
<path d="M305.971 295.42H126.511C120.44 295.42 115.518 300.342 115.518 306.413V798.435C115.518 804.506 120.44 809.428 126.511 809.428H305.971C312.042 809.428 316.964 804.506 316.964 798.435V306.413C316.964 300.342 312.042 295.42 305.971 295.42Z" fill="white"/>
<path d="M266.421 497.352H165.714C162.266 497.352 159.47 500.147 159.47 503.596V519.04C159.47 522.488 162.266 525.284 165.714 525.284H266.421C269.87 525.284 272.665 522.488 272.665 519.04V503.596C272.665 500.147 269.87 497.352 266.421 497.352Z" fill="#E4EBF7"/>
<path d="M266.516 551.506H165.619C162.223 551.506 159.47 554.259 159.47 557.655V572.443C159.47 575.839 162.223 578.593 165.619 578.593H266.516C269.912 578.593 272.665 575.839 272.665 572.443V557.655C272.665 554.259 269.912 551.506 266.516 551.506Z" fill="#E4EBF7"/>
<path d="M266.516 604.742H165.619C162.223 604.742 159.47 607.495 159.47 610.892V625.679C159.47 629.076 162.223 631.829 165.619 631.829H266.516C269.912 631.829 272.665 629.076 272.665 625.679V610.892C272.665 607.495 269.912 604.742 266.516 604.742Z" fill="#A3B5D6"/>
<path d="M266.516 657.979H165.619C162.223 657.979 159.47 660.732 159.47 664.128V678.916C159.47 682.312 162.223 685.065 165.619 685.065H266.516C269.912 685.065 272.665 682.312 272.665 678.916V664.128C272.665 660.732 269.912 657.979 266.516 657.979Z" fill="#4E5C93"/>
<path d="M734.503 533.148H419.521C415.474 533.148 412.193 536.43 412.193 540.477V540.506C412.193 544.553 415.474 547.834 419.521 547.834H734.503C738.55 547.834 741.831 544.553 741.831 540.506V540.477C741.831 536.43 738.55 533.148 734.503 533.148Z" fill="#E4EBF7"/>
<path d="M734.503 608.414H419.521C415.474 608.414 412.193 611.695 412.193 615.743V615.771C412.193 619.819 415.474 623.1 419.521 623.1H734.503C738.55 623.1 741.831 619.819 741.831 615.771V615.743C741.831 611.695 738.55 608.414 734.503 608.414Z" fill="#E4EBF7"/>
<path d="M844.382 569.863H419.521C415.474 569.863 412.193 573.144 412.193 577.192V577.221C412.193 581.268 415.474 584.549 419.521 584.549H844.382C848.43 584.549 851.711 581.268 851.711 577.221V577.192C851.711 573.144 848.43 569.863 844.382 569.863Z" fill="#E4EBF7"/>
<path d="M591.652 656.144H434.179C422.036 656.144 412.193 665.987 412.193 678.13V738.795C412.193 750.937 422.036 760.781 434.179 760.781H591.652C603.795 760.781 613.639 750.937 613.639 738.795V678.13C613.639 665.987 603.795 656.144 591.652 656.144Z" fill="#4E5C93"/>
<path d="M837.053 345.902H426.85C418.755 345.902 412.193 352.465 412.193 360.56V496.462C412.193 504.557 418.755 511.119 426.85 511.119H837.053C845.148 511.119 851.711 504.557 851.711 496.462V360.56C851.711 352.465 845.148 345.902 837.053 345.902Z" fill="#CCD7EE"/>
<path d="M829.725 656.144H672.251C660.109 656.144 650.265 665.987 650.265 678.13V738.795C650.265 750.937 660.109 760.781 672.251 760.781H829.725C841.867 760.781 851.711 750.937 851.711 738.795V678.13C851.711 665.987 841.867 656.144 829.725 656.144Z" fill="#A3B5D6"/>
<path d="M216.063 441.021C243.989 441.021 266.627 418.126 266.627 389.883C266.627 361.64 243.989 338.744 216.063 338.744C188.137 338.744 165.499 361.64 165.499 389.883C165.499 418.126 188.137 441.021 216.063 441.021Z" fill="#E4EBF7"/>
<path d="M216.063 441.021C230.637 441.029 244.468 434.518 253.844 423.234C246.456 409.05 231.908 400.17 216.055 400.17C200.203 400.17 185.654 409.05 178.266 423.234C187.648 434.52 201.484 441.032 216.063 441.021Z" fill="#4E5C93"/>
<path d="M217.332 402.204C228.387 402.204 237.349 393.145 237.349 381.971C237.349 370.797 228.387 361.738 217.332 361.738C206.277 361.738 197.315 370.797 197.315 381.971C197.315 393.145 206.277 402.204 217.332 402.204Z" fill="#4E5C93"/>
</svg>
