<svg width="1024" height="1024" viewBox="0 0 1024 1024" fill="none" xmlns="http://www.w3.org/2000/svg">
<path fill-rule="evenodd" clip-rule="evenodd" d="M968.999 211.115H56.9993V137.94C56.9993 122.067 69.905 109.197 85.8229 109.197H940.176C956.095 109.197 968.999 122.067 968.999 137.94V211.115Z" fill="#253368"/>
<path fill-rule="evenodd" clip-rule="evenodd" d="M936.901 914.261H89.0989C71.3723 914.261 57 901.41 57 885.557V202.1H969V885.557C969 901.41 954.629 914.261 936.901 914.261Z" fill="#E4EBF7"/>
<path fill-rule="evenodd" clip-rule="evenodd" d="M123.139 156.628C123.139 166.589 115.09 174.666 105.161 174.666C95.233 174.666 87.1851 166.589 87.1851 156.628C87.1851 146.666 95.233 138.589 105.161 138.589C115.09 138.589 123.139 146.666 123.139 156.628Z" fill="#A3B5D6"/>
<path fill-rule="evenodd" clip-rule="evenodd" d="M190.273 156.628C190.273 166.589 182.225 174.666 172.296 174.666C162.369 174.666 154.321 166.589 154.321 156.628C154.321 146.666 162.369 138.589 172.296 138.589C182.225 138.589 190.273 146.666 190.273 156.628Z" fill="#E4EBF7"/>
<path fill-rule="evenodd" clip-rule="evenodd" d="M257.409 156.628C257.409 166.589 249.361 174.666 239.432 174.666C229.504 174.666 221.456 166.589 221.456 156.628C221.456 146.666 229.504 138.589 239.432 138.589C249.361 138.589 257.409 146.666 257.409 156.628Z" fill="#E4EBF7"/>
<path d="M905.075 338.972H120.925V856.518H905.075V338.972Z" fill="white"/>
<path d="M905.075 266.258H120.925V296.199H905.075V266.258Z" fill="white"/>
<path d="M796.391 424.517H229.609C221.365 424.517 214.682 431.2 214.682 439.443V439.53C214.682 447.774 221.365 454.457 229.609 454.457H796.391C804.635 454.457 811.318 447.774 811.318 439.53V439.443C811.318 431.2 804.635 424.517 796.391 424.517Z" fill="#CCD7EE"/>
<path d="M583.307 501.507H229.609C221.365 501.507 214.682 508.19 214.682 516.434V516.521C214.682 524.765 221.365 531.448 229.609 531.448H583.307C591.551 531.448 598.234 524.765 598.234 516.521V516.434C598.234 508.19 591.551 501.507 583.307 501.507Z" fill="#CCD7EE"/>
<path d="M625.924 574.22H229.609C221.365 574.22 214.682 580.903 214.682 589.147V589.234C214.682 597.477 221.365 604.16 229.609 604.16H625.924C634.168 604.16 640.85 597.477 640.85 589.234V589.147C640.85 580.903 634.168 574.22 625.924 574.22Z" fill="#CCD7EE"/>
<path d="M444.794 679.013H240.271C226.139 679.013 214.682 690.469 214.682 704.602V775.325C214.682 789.458 226.139 800.914 240.271 800.914H444.794C458.927 800.914 470.383 789.458 470.383 775.325V704.602C470.383 690.469 458.927 679.013 444.794 679.013Z" fill="#A3B5D6"/>
<path d="M785.729 679.013H581.206C567.073 679.013 555.617 690.469 555.617 704.602V775.325C555.617 789.458 567.073 800.914 581.206 800.914H785.729C799.861 800.914 811.318 789.458 811.318 775.325V704.602C811.318 690.469 799.861 679.013 785.729 679.013Z" fill="#CCD7EE"/>
</svg>
