<svg width="1024" height="1024" viewBox="0 0 1024 1024" fill="none" xmlns="http://www.w3.org/2000/svg">
<path fill-rule="evenodd" clip-rule="evenodd" d="M912.873 210.368H112.999V141.664C112.999 126.76 125.605 114.677 141.152 114.677H884.72C900.268 114.677 912.873 126.76 912.873 141.664V210.368Z" fill="#253368"/>
<path fill-rule="evenodd" clip-rule="evenodd" d="M884.72 909.605H141.152C125.605 909.605 112.999 896.925 112.999 881.284V206.951H912.873V881.284C912.873 896.925 900.268 909.605 884.72 909.605Z" fill="#E4EBF7"/>
<path fill-rule="evenodd" clip-rule="evenodd" d="M188.091 162.523C188.091 172.327 180.136 180.276 170.324 180.276C160.514 180.276 152.56 172.327 152.56 162.523C152.56 152.719 160.514 144.77 170.324 144.77C180.136 144.77 188.091 152.719 188.091 162.523Z" fill="#A3B5D6"/>
<path fill-rule="evenodd" clip-rule="evenodd" d="M254.024 162.523C254.024 172.327 246.07 180.276 236.258 180.276C226.448 180.276 218.495 172.327 218.495 162.523C218.495 152.719 226.448 144.77 236.258 144.77C246.07 144.77 254.024 152.719 254.024 162.523Z" fill="#E4EBF7"/>
<path fill-rule="evenodd" clip-rule="evenodd" d="M319.958 162.523C319.958 172.327 312.004 180.276 302.193 180.276C292.382 180.276 284.429 172.327 284.429 162.523C284.429 152.719 292.382 144.77 302.193 144.77C312.004 144.77 319.958 152.719 319.958 162.523Z" fill="#E4EBF7"/>
<path d="M811.901 263.45H214.099C199.533 263.45 187.725 275.258 187.725 289.824V826.088C187.725 840.653 199.533 852.461 214.099 852.461H811.901C826.467 852.461 838.275 840.653 838.275 826.088V289.824C838.275 275.258 826.467 263.45 811.901 263.45Z" fill="#A3B5D6"/>
<path d="M838.275 382.132H187.725V742.571H838.275V382.132Z" fill="white"/>
<path d="M767.945 443.67H258.055C253.2 443.67 249.264 447.606 249.264 452.461V487.626C249.264 492.481 253.2 496.417 258.055 496.417H767.945C772.8 496.417 776.736 492.481 776.736 487.626V452.461C776.736 447.606 772.8 443.67 767.945 443.67Z" fill="#CCD7EE"/>
<path d="M767.945 637.077H258.055C253.2 637.077 249.264 641.013 249.264 645.868V681.033C249.264 685.888 253.2 689.824 258.055 689.824H767.945C772.8 689.824 776.736 685.888 776.736 681.033V645.868C776.736 641.013 772.8 637.077 767.945 637.077Z" fill="#CCD7EE"/>
<path d="M767.945 540.374H258.055C253.2 540.374 249.264 544.31 249.264 549.165V584.33C249.264 589.185 253.2 593.121 258.055 593.121H767.945C772.8 593.121 776.736 589.185 776.736 584.33V549.165C776.736 544.31 772.8 540.374 767.945 540.374Z" fill="#CCD7EE"/>
<path d="M737.176 311.802H341.571C336.716 311.802 332.78 315.738 332.78 320.593V329.384C332.78 334.239 336.716 338.175 341.571 338.175H737.176C742.031 338.175 745.967 334.239 745.967 329.384V320.593C745.967 315.738 742.031 311.802 737.176 311.802Z" fill="#E4EBF7"/>
<path d="M737.176 786.527H341.571C336.716 786.527 332.78 790.463 332.78 795.319V804.11C332.78 808.965 336.716 812.901 341.571 812.901H737.176C742.031 812.901 745.967 808.965 745.967 804.11V795.319C745.967 790.463 742.031 786.527 737.176 786.527Z" fill="#E4EBF7"/>
<path d="M279.209 316.198H275.346C275.083 316.198 274.836 316.327 274.682 316.538L260.047 336.71L245.413 316.538C245.259 316.327 245.011 316.198 244.749 316.198H240.885C240.55 316.198 240.355 316.579 240.55 316.852L258.713 341.892C259.373 342.799 260.722 342.799 261.376 341.892L279.539 316.852C279.74 316.579 279.544 316.198 279.209 316.198Z" fill="white"/>
<path d="M244.868 778.56V782.423C244.868 782.686 244.997 782.933 245.208 783.088L265.38 797.722L245.208 812.356C244.997 812.511 244.868 812.758 244.868 813.021V816.884C244.868 817.219 245.249 817.415 245.522 817.219L270.562 799.056C271.468 798.397 271.468 797.047 270.562 796.393L245.522 778.23C245.249 778.029 244.868 778.225 244.868 778.56Z" fill="white"/>
</svg>
