<svg width="1024" height="1024" viewBox="0 0 1024 1024" fill="none" xmlns="http://www.w3.org/2000/svg">
<path fill-rule="evenodd" clip-rule="evenodd" d="M796.845 665.503L760.2 703.115V753.013C760.2 762.737 768.084 770.621 777.808 770.621H815.882C825.606 770.621 833.491 762.737 833.491 753.013V703.115L796.845 665.503Z" fill="#4E5C93"/>
<path fill-rule="evenodd" clip-rule="evenodd" d="M798.41 695.907C792.331 695.907 787.405 690.981 787.405 684.902V325.324C787.405 319.247 792.331 314.318 798.41 314.318C804.489 314.318 809.415 319.247 809.415 325.324V684.902C809.415 690.981 804.489 695.907 798.41 695.907Z" fill="#253368"/>
<path fill-rule="evenodd" clip-rule="evenodd" d="M255.207 447.635V617.64C255.207 639.402 297.997 653.625 297.997 653.625C438.623 694.431 587.952 694.431 728.577 653.625C728.577 653.625 771.368 639.402 771.368 617.64V447.635C771.368 449.145 513.287 503.731 513.287 503.731C513.287 503.731 255.207 449.145 255.207 447.635Z" fill="#4E5C93"/>
<path fill-rule="evenodd" clip-rule="evenodd" d="M54 384.382L514.56 515.157L968.014 384.382L507.453 252.182L54 384.382Z" fill="#E4EBF7"/>
<path fill-rule="evenodd" clip-rule="evenodd" d="M54 384.382V396.626C54 404.515 59.2473 411.444 66.841 413.579L514.626 539.49L514.56 515.158L54 384.382Z" fill="#253368"/>
<path fill-rule="evenodd" clip-rule="evenodd" d="M514.561 539.322L955.36 410.056C962.859 407.855 968.014 400.977 968.014 393.159V384.381L514.561 515.157V539.322Z" fill="#253368"/>
<path fill-rule="evenodd" clip-rule="evenodd" d="M504.985 393.727C486.237 393.727 471.036 386.787 471.036 378.228C471.036 369.666 486.237 362.727 504.985 362.727C523.736 362.727 538.934 369.666 538.934 378.228C538.934 386.787 523.736 393.727 504.985 393.727Z" fill="white"/>
<path fill-rule="evenodd" clip-rule="evenodd" d="M504.988 389.156C500.549 389.156 496.367 386.451 494.698 382.055C492.539 376.372 495.396 370.018 501.079 367.861L705.582 290.196C707.747 289.373 710.12 289.256 712.359 289.859L801.279 313.882C807.147 315.467 810.618 321.508 809.036 327.377C807.449 333.245 801.407 336.707 795.541 335.131L710.063 312.037L508.893 388.436C507.607 388.927 506.287 389.156 504.988 389.156Z" fill="#4E5C93"/>
<path fill-rule="evenodd" clip-rule="evenodd" d="M533.167 378.149C533.167 384.373 520.551 389.42 504.985 389.42C489.421 389.42 476.805 384.373 476.805 378.149C476.805 371.922 489.421 366.875 504.985 366.875C520.551 366.875 533.167 371.922 533.167 378.149Z" fill="#4E5C93"/>
</svg>
