<svg width="1024" height="1024" viewBox="0 0 1024 1024" fill="none" xmlns="http://www.w3.org/2000/svg">
<path d="M792.446 93.0928H327.77C313.235 93.0928 301.452 104.838 301.452 119.327V835.297C301.452 849.785 313.235 861.531 327.77 861.531H905.681C920.217 861.531 932 849.785 932 835.297V233.27L792.446 93.0928Z" fill="#4E5C93"/>
<path d="M792.446 92L792.665 207.091C792.665 221.579 804.448 233.325 818.984 233.325H932" fill="#E4EBF7"/>
<path d="M581.931 163.247H118.319C103.783 163.247 92 174.992 92 189.481V905.451C92 919.94 103.783 931.685 118.319 931.685H697.326C711.862 931.685 723.645 919.94 723.645 905.451V316.53H622.505C607.975 316.53 581.931 304.79 581.931 290.296V163.247Z" fill="#E4EBF7"/>
<path d="M283.394 233.128H179.122C169.155 233.128 161.075 241.208 161.075 251.175V354.996C161.075 364.963 169.155 373.043 179.122 373.043H283.394C293.361 373.043 301.441 364.963 301.441 354.996V251.175C301.441 241.208 293.361 233.128 283.394 233.128Z" fill="#A3B5D6"/>
<path d="M645.801 443H167.629C164.009 443 161.075 445.934 161.075 449.553V471.425C161.075 475.045 164.009 477.979 167.629 477.979H645.801C649.421 477.979 652.355 475.045 652.355 471.425V449.553C652.355 445.934 649.421 443 645.801 443Z" fill="#A3B5D6"/>
<path d="M645.726 548H167.553C163.934 548 161 550.934 161 554.553V576.425C161 580.045 163.934 582.979 167.553 582.979H645.726C649.345 582.979 652.279 580.045 652.279 576.425V554.553C652.279 550.934 649.345 548 645.726 548Z" fill="#A3B5D6"/>
<path d="M646.726 652.936H168.553C164.934 652.936 162 655.87 162 659.489V681.361C162 684.98 164.934 687.914 168.553 687.914H646.726C650.345 687.914 653.279 684.98 653.279 681.361V659.489C653.279 655.87 650.345 652.936 646.726 652.936Z" fill="#A3B5D6"/>
<path d="M581.931 163.247V290.296C581.931 304.785 593.714 316.53 608.249 316.53H723.645" fill="white"/>
</svg>
