<svg width="1024" height="1024" viewBox="0 0 1024 1024" fill="none" xmlns="http://www.w3.org/2000/svg">
<path d="M367.982 960C447.46 960 511.964 893.249 511.964 811.001V662.002H367.982C288.504 662.002 224 728.754 224 811.001C224 893.249 288.504 960 367.982 960Z" fill="#0ACF83"/>
<path d="M224 213.501C224 130.976 288.504 64 367.982 64H511.964V363.001H367.982C288.504 363.001 224 296.025 224 213.501Z" fill="#F24E1E"/>
<path d="M511.964 64H655.946C735.424 64 799.928 130.976 799.928 213.501C799.928 296.025 735.424 363.001 655.946 363.001H511.964V64Z" fill="#FF7262"/>
<path d="M799.928 511.498C799.928 594.023 735.424 660.999 655.946 660.999C576.468 660.999 511.964 594.023 511.964 511.498C511.964 428.974 576.468 361.998 655.946 361.998C735.424 361.998 799.928 428.974 799.928 511.498Z" fill="#1ABCFE"/>
<path d="M224 511.498C224 428.974 288.504 361.998 367.982 361.998H511.964V660.999H367.982C288.504 660.999 224 594.023 224 511.498Z" fill="#A259FF"/>
</svg>
