<svg width="1024" height="1024" viewBox="0 0 1024 1024" fill="none" xmlns="http://www.w3.org/2000/svg">
<path fill-rule="evenodd" clip-rule="evenodd" d="M968.999 212.013H56.9993V138.911C56.9993 123.053 69.905 110.196 85.8229 110.196H940.176C956.095 110.196 968.999 123.053 968.999 138.911V212.013Z" fill="#253368"/>
<path fill-rule="evenodd" clip-rule="evenodd" d="M936.901 914.458H89.0989C71.3723 914.458 57 901.62 57 885.783V203.006H969V885.783C969 901.62 954.629 914.458 936.901 914.458Z" fill="#E4EBF7"/>
<path fill-rule="evenodd" clip-rule="evenodd" d="M123.139 157.579C123.139 167.531 115.09 175.6 105.161 175.6C95.233 175.6 87.1851 167.531 87.1851 157.579C87.1851 147.627 95.233 139.559 105.161 139.559C115.09 139.559 123.139 147.627 123.139 157.579Z" fill="#A3B5D6"/>
<path fill-rule="evenodd" clip-rule="evenodd" d="M190.273 157.579C190.273 167.531 182.225 175.6 172.296 175.6C162.369 175.6 154.321 167.531 154.321 157.579C154.321 147.627 162.369 139.559 172.296 139.559C182.225 139.559 190.273 147.627 190.273 157.579Z" fill="#E4EBF7"/>
<path fill-rule="evenodd" clip-rule="evenodd" d="M257.409 157.579C257.409 167.531 249.361 175.6 239.432 175.6C229.504 175.6 221.456 167.531 221.456 157.579C221.456 147.627 229.504 139.559 239.432 139.559C249.361 139.559 257.409 147.627 257.409 157.579Z" fill="#E4EBF7"/>
<path d="M905.075 344.015H120.925V438.02H905.075V344.015Z" fill="white"/>
<path d="M905.075 455.112H120.925V549.118H905.075V455.112Z" fill="#A3B5D6"/>
<path d="M905.075 566.21H120.925V660.216H905.075V566.21Z" fill="white"/>
<path d="M905.075 677.307H120.925V771.312H905.075V677.307Z" fill="white"/>
<path d="M235.991 247.872H129.449C124.741 247.872 120.925 251.688 120.925 256.395V292.761C120.925 297.468 124.741 301.284 129.449 301.284H235.991C240.698 301.284 244.514 297.468 244.514 292.761V256.395C244.514 251.688 240.698 247.872 235.991 247.872Z" fill="#E4EBF7"/>
<path d="M674.944 247.872H611.019C606.311 247.872 602.495 251.688 602.495 256.395V292.761C602.495 297.468 606.311 301.284 611.019 301.284H674.944C679.651 301.284 683.467 297.468 683.467 292.761V256.395C683.467 251.688 679.651 247.872 674.944 247.872Z" fill="#E4EBF7"/>
<path d="M885.897 811.906H858.196C851.135 811.906 845.411 817.63 845.411 824.691V852.534C845.411 859.595 851.135 865.319 858.196 865.319H885.897C892.958 865.319 898.682 859.595 898.682 852.534V824.691C898.682 817.63 892.958 811.906 885.897 811.906Z" fill="#A3B5D6"/>
<path d="M811.318 811.906H783.617C776.556 811.906 770.832 817.63 770.832 824.691V852.534C770.832 859.595 776.556 865.319 783.617 865.319H811.318C818.379 865.319 824.103 859.595 824.103 852.534V824.691C824.103 817.63 818.379 811.906 811.318 811.906Z" fill="#CCD7EE"/>
<path d="M736.738 811.906H709.037C701.976 811.906 696.252 817.63 696.252 824.691V852.534C696.252 859.595 701.976 865.319 709.037 865.319H736.738C743.799 865.319 749.523 859.595 749.523 852.534V824.691C749.523 817.63 743.799 811.906 736.738 811.906Z" fill="#CCD7EE"/>
<path d="M562.009 247.872H285C280.293 247.872 276.477 251.688 276.477 256.395V292.761C276.477 297.468 280.293 301.284 285 301.284H562.009C566.717 301.284 570.533 297.468 570.533 292.761V256.395C570.533 251.688 566.717 247.872 562.009 247.872Z" fill="#E4EBF7"/>
</svg>
