<?xml version="1.0" encoding="utf-8"?>
<!-- Generator: Adobe Illustrator 23.0.2, SVG Export Plug-In . SVG Version: 6.00 Build 0)  -->
<svg version="1.1"
	 id="Geometric_Shapes" xmlns:cc="http://web.resource.org/cc/" xmlns:dc="http://purl.org/dc/elements/1.1/" xmlns:inkscape="http://www.inkscape.org/namespaces/inkscape" xmlns:ns1="http://sozi.baierouge.fr" xmlns:rdf="http://www.w3.org/1999/02/22-rdf-syntax-ns#" xmlns:sodipodi="http://sodipodi.sourceforge.net/DTD/sodipodi-0.dtd" xmlns:svg="http://www.w3.org/2000/svg"
	 xmlns="http://www.w3.org/2000/svg" xmlns:xlink="http://www.w3.org/1999/xlink" x="0px" y="0px" viewBox="0 0 738.2 720"
	 style="enable-background:new 0 0 738.2 720;" xml:space="preserve">
<g id="layer1" transform="translate(0 -332.36)">
	<path id="path3226" d="M222.7,478.8c-21.4,0-38.7-17.3-38.7-38.7c0-7,1.9-13.7,5.2-19.3c-6.7,11.6-19.2,19.3-33.5,19.3
		c-14.3,0-26.8-7.8-33.5-19.3c3.3,5.7,5.2,12.3,5.2,19.3c0,21.4-17.3,38.7-38.7,38.7c21.4,0,38.7,17.3,38.7,38.7
		c0,7.1-1.9,13.7-5.2,19.4c6.7-11.6,19.2-19.4,33.5-19.4c14.3,0,26.8,7.8,33.5,19.3c-3.3-5.7-5.2-12.3-5.2-19.3
		C183.9,496.2,201.3,478.8,222.7,478.8L222.7,478.8z"/>
	<path id="path3316" d="M368.3,332.4l67.9,116L302,447.5L368.3,332.4L368.3,332.4z"/>
	<path id="path3363" d="M515.5,411.7h134.2v134.2H515.5L515.5,411.7L515.5,411.7z"/>
	<path id="path3367" d="M222.7,838.8c-37.1,37.1-97.1,37.1-134.2,0c37.1,37.1,37.1,97.1,0,134.2c37.1-37.1,97.1-37.1,134.2,0
		C185.6,935.9,185.6,875.8,222.7,838.8z"/>
	<path id="path3734" d="M671.1,628.6l67.1,48.7l-25.6,78.9h-82.9l-25.7-78.9L671.1,628.6L671.1,628.6z"/>
	<path id="path3533" d="M67.1,628.6c-4.6,14.3-13.7,26.6-25.6,35.2c0,0,0,0,0,0c-11.6,8.5-26,13.5-41.5,13.5
		c17.6,12.8,29.1,33.6,29.1,57.1c0,7.6-1.2,14.9-3.5,21.8c11.6-8.5,26-13.5,41.5-13.5s29.8,5,41.5,13.5c-2.2-6.9-3.5-14.2-3.5-21.8
		c0-23.5,11.4-44.3,29.1-57.1c-15.5,0-29.8-5-41.5-13.5v0C80.8,655.1,71.8,642.8,67.1,628.6L67.1,628.6z"/>
	<path id="path3781" d="M436.2,692.4c0,37.1-30,67.1-67.1,67.1s-67.1-30-67.1-67.1c0-37.1,30-67.1,67.1-67.1
		S436.2,655.3,436.2,692.4L436.2,692.4z"/>
	<path id="path3785" d="M368.3,936.3c-0.3,22.6-6.2,45.4-18.2,66.3c-12,20.8-28.8,37.3-48.1,48.8c40.4-22.5,91.2-23.9,134.2,0.9
		C393.1,1027.5,368.9,982.7,368.3,936.3L368.3,936.3z"/>
	<path id="path3800" d="M616.2,847.8l33.6,58.1L616.2,964h-67.1l-33.6-58.1l33.6-58.1H616.2z"/>
</g>
</svg>
