<svg width="528" height="84" viewBox="0 0 528 84" fill="none" xmlns="http://www.w3.org/2000/svg">
<path d="M4.912 15.192C4.176 15.192 3.51467 15.0213 2.928 14.68C2.352 14.3387 1.89867 13.8587 1.568 13.24C1.23733 12.6107 1.072 11.8747 1.072 11.032C1.072 10.1893 1.23733 9.45867 1.568 8.84C1.90933 8.22133 2.368 7.74133 2.944 7.4C3.52 7.048 4.176 6.872 4.912 6.872C5.92533 6.872 6.74133 7.128 7.36 7.64C7.98933 8.14133 8.38933 8.83467 8.56 9.72H6.784C6.67733 9.336 6.45867 9.032 6.128 8.808C5.808 8.584 5.39733 8.472 4.896 8.472C4.53333 8.472 4.18667 8.568 3.856 8.76C3.536 8.952 3.27467 9.24 3.072 9.624C2.88 9.99733 2.784 10.4667 2.784 11.032C2.784 11.5867 2.88 12.056 3.072 12.44C3.27467 12.824 3.536 13.1173 3.856 13.32C4.18667 13.512 4.53333 13.608 4.896 13.608C5.408 13.608 5.81867 13.496 6.128 13.272C6.43733 13.048 6.656 12.7387 6.784 12.344H8.56C8.34667 13.2187 7.93067 13.912 7.312 14.424C6.69333 14.936 5.89333 15.192 4.912 15.192ZM14.3938 15.192C13.6364 15.192 12.9591 15.0213 12.3618 14.68C11.7644 14.3387 11.2951 13.8587 10.9538 13.24C10.6124 12.6107 10.4418 11.8747 10.4418 11.032C10.4418 10.1893 10.6124 9.45867 10.9538 8.84C11.2951 8.21067 11.7644 7.72533 12.3618 7.384C12.9591 7.04267 13.6418 6.872 14.4098 6.872C15.1778 6.872 15.8551 7.04267 16.4418 7.384C17.0391 7.72533 17.5031 8.21067 17.8338 8.84C18.1751 9.45867 18.3458 10.1893 18.3458 11.032C18.3458 11.8747 18.1751 12.6107 17.8338 13.24C17.4924 13.8587 17.0231 14.3387 16.4258 14.68C15.8391 15.0213 15.1618 15.192 14.3938 15.192ZM14.3938 13.576C14.7991 13.576 15.1724 13.4853 15.5138 13.304C15.8551 13.1227 16.1271 12.8453 16.3298 12.472C16.5431 12.088 16.6498 11.608 16.6498 11.032C16.6498 10.4453 16.5431 9.96533 16.3298 9.592C16.1271 9.21867 15.8551 8.94133 15.5138 8.76C15.1831 8.57867 14.8151 8.488 14.4098 8.488C14.0044 8.488 13.6311 8.57867 13.2898 8.76C12.9484 8.94133 12.6711 9.21867 12.4578 9.592C12.2551 9.96533 12.1538 10.4453 12.1538 11.032C12.1538 11.9067 12.3724 12.552 12.8098 12.968C13.2578 13.3733 13.7858 13.576 14.3938 13.576ZM19.5875 15V7.064H20.9955L21.1395 7.992H21.2195C21.3582 7.66133 21.5715 7.39467 21.8595 7.192C22.1475 6.97867 22.4888 6.872 22.8835 6.872C23.2675 6.872 23.6035 6.968 23.8915 7.16C24.1795 7.352 24.3928 7.62933 24.5315 7.992H24.5955C24.7342 7.672 24.9528 7.40533 25.2515 7.192C25.5502 6.97867 25.9182 6.872 26.3555 6.872C26.9422 6.872 27.3848 7.064 27.6835 7.448C27.9928 7.832 28.1475 8.37067 28.1475 9.064V15H26.5155V9.4C26.5155 9.08 26.4462 8.82933 26.3075 8.648C26.1795 8.456 25.9715 8.36 25.6835 8.36C25.3955 8.36 25.1555 8.472 24.9635 8.696C24.7822 8.92 24.6915 9.23467 24.6915 9.64V15H23.0435V9.4C23.0435 9.08 22.9795 8.82933 22.8515 8.648C22.7235 8.456 22.5155 8.36 22.2275 8.36C21.9395 8.36 21.6995 8.472 21.5075 8.696C21.3155 8.92 21.2195 9.23467 21.2195 9.64V15H19.5875ZM29.8853 18.52V7.064H31.3573L31.4853 8.28H31.5813C31.7946 7.88533 32.1146 7.55467 32.5413 7.288C32.9786 7.01067 33.4959 6.872 34.0933 6.872C34.7119 6.872 35.2773 7.032 35.7893 7.352C36.3013 7.66133 36.7066 8.12533 37.0052 8.744C37.3146 9.352 37.4693 10.1147 37.4693 11.032C37.4693 11.9387 37.3093 12.7013 36.9893 13.32C36.6799 13.9387 36.2586 14.408 35.7253 14.728C35.1919 15.0373 34.5946 15.192 33.9333 15.192C33.3466 15.192 32.8559 15.0747 32.4613 14.84C32.0666 14.6053 31.7733 14.3387 31.5813 14.04V18.52H29.8853ZM33.6453 13.576C34.2426 13.576 34.7386 13.3627 35.1333 12.936C35.5386 12.5093 35.7413 11.8693 35.7413 11.016C35.7413 10.1627 35.5386 9.528 35.1333 9.112C34.7386 8.696 34.2426 8.488 33.6453 8.488C33.0373 8.488 32.5306 8.70133 32.1253 9.128C31.7306 9.544 31.5333 10.1787 31.5333 11.032C31.5333 11.8747 31.7306 12.5093 32.1253 12.936C32.5306 13.3627 33.0373 13.576 33.6453 13.576ZM43.175 15.192C42.4177 15.192 41.7403 15.0213 41.143 14.68C40.5457 14.3387 40.0763 13.8587 39.735 13.24C39.3937 12.6107 39.223 11.8747 39.223 11.032C39.223 10.1893 39.3937 9.45867 39.735 8.84C40.0763 8.21067 40.5457 7.72533 41.143 7.384C41.7403 7.04267 42.423 6.872 43.191 6.872C43.959 6.872 44.6363 7.04267 45.223 7.384C45.8203 7.72533 46.2843 8.21067 46.615 8.84C46.9563 9.45867 47.127 10.1893 47.127 11.032C47.127 11.8747 46.9563 12.6107 46.615 13.24C46.2737 13.8587 45.8043 14.3387 45.207 14.68C44.6203 15.0213 43.943 15.192 43.175 15.192ZM43.175 13.576C43.5803 13.576 43.9537 13.4853 44.295 13.304C44.6363 13.1227 44.9083 12.8453 45.111 12.472C45.3243 12.088 45.431 11.608 45.431 11.032C45.431 10.4453 45.3243 9.96533 45.111 9.592C44.9083 9.21867 44.6363 8.94133 44.295 8.76C43.9643 8.57867 43.5963 8.488 43.191 8.488C42.7857 8.488 42.4123 8.57867 42.071 8.76C41.7297 8.94133 41.4523 9.21867 41.239 9.592C41.0363 9.96533 40.935 10.4453 40.935 11.032C40.935 11.9067 41.1537 12.552 41.591 12.968C42.039 13.3733 42.567 13.576 43.175 13.576ZM49.2168 15V7.064H50.6888L50.8328 8.248H50.9128C51.1261 7.864 51.4568 7.53867 51.9048 7.272C52.3528 7.00533 52.8701 6.872 53.4568 6.872C54.4274 6.872 55.1581 7.16533 55.6488 7.752C56.1394 8.33867 56.3848 9.20267 56.3848 10.344V15H54.6888V10.552C54.6888 9.89067 54.5501 9.37867 54.2728 9.016C53.9954 8.65333 53.5581 8.472 52.9608 8.472C52.3741 8.472 51.8834 8.66933 51.4888 9.064C51.1048 9.45867 50.9128 10.0293 50.9128 10.776V15H49.2168ZM62.4585 15.192C61.6905 15.192 61.0132 15.0213 60.4265 14.68C59.8398 14.328 59.3812 13.8427 59.0505 13.224C58.7198 12.6053 58.5545 11.8853 58.5545 11.064C58.5545 10.232 58.7145 9.50133 59.0345 8.872C59.3652 8.24267 59.8238 7.752 60.4105 7.4C61.0078 7.048 61.6958 6.872 62.4745 6.872C63.2425 6.872 63.9038 7.048 64.4585 7.4C65.0132 7.74133 65.4398 8.2 65.7385 8.776C66.0478 9.352 66.2025 9.98667 66.2025 10.68C66.2025 10.7867 66.2025 10.904 66.2025 11.032C66.2025 11.1493 66.1972 11.2827 66.1865 11.432H60.2185C60.2718 12.168 60.5118 12.728 60.9385 13.112C61.3652 13.4853 61.8665 13.672 62.4425 13.672C62.9438 13.672 63.3385 13.5707 63.6265 13.368C63.9252 13.1547 64.1438 12.8667 64.2825 12.504H65.9945C65.8025 13.2613 65.4025 13.9013 64.7945 14.424C64.1865 14.936 63.4078 15.192 62.4585 15.192ZM62.4585 8.344C61.9358 8.344 61.4718 8.504 61.0665 8.824C60.6612 9.13333 60.3998 9.57067 60.2825 10.136H64.5065C64.4638 9.60267 64.2558 9.17067 63.8825 8.84C63.5092 8.50933 63.0345 8.344 62.4585 8.344ZM68.4043 15V7.064H69.8763L70.0203 8.248H70.1003C70.3136 7.864 70.6443 7.53867 71.0923 7.272C71.5403 7.00533 72.0576 6.872 72.6443 6.872C73.6149 6.872 74.3456 7.16533 74.8363 7.752C75.3269 8.33867 75.5723 9.20267 75.5723 10.344V15H73.8763V10.552C73.8763 9.89067 73.7376 9.37867 73.4603 9.016C73.1829 8.65333 72.7456 8.472 72.1483 8.472C71.5616 8.472 71.0709 8.66933 70.6763 9.064C70.2923 9.45867 70.1003 10.0293 70.1003 10.776V15H68.4043ZM82.414 15C81.6353 15 81.0167 14.8133 80.558 14.44C80.0993 14.056 79.87 13.3787 79.87 12.408V8.504H77.87V7.064H79.054C79.598 7.064 79.918 6.79733 80.014 6.264L80.254 4.984H81.566V7.064H84.702V8.504H81.566V12.376C81.566 12.792 81.6567 13.0853 81.838 13.256C82.03 13.416 82.3553 13.496 82.814 13.496H84.67V15H82.414ZM87.4318 16.52V15H94.8558V16.52H87.4318ZM97.1855 15V7.064H98.6575L98.8015 8.248H98.8815C99.0948 7.864 99.4255 7.53867 99.8735 7.272C100.322 7.00533 100.839 6.872 101.426 6.872C102.396 6.872 103.127 7.16533 103.618 7.752C104.108 8.33867 104.354 9.20267 104.354 10.344V15H102.658V10.552C102.658 9.89067 102.519 9.37867 102.242 9.016C101.964 8.65333 101.527 8.472 100.93 8.472C100.343 8.472 99.8522 8.66933 99.4575 9.064C99.0735 9.45867 98.8815 10.0293 98.8815 10.776V15H97.1855ZM109.611 15.192C108.982 15.192 108.454 15.0853 108.027 14.872C107.601 14.648 107.281 14.3547 107.067 13.992C106.854 13.6187 106.747 13.2133 106.747 12.776C106.747 11.9973 107.03 11.3893 107.595 10.952C108.171 10.5147 108.982 10.296 110.027 10.296H112.075V10.12C112.075 8.92533 111.521 8.328 110.411 8.328C109.953 8.328 109.563 8.42933 109.243 8.632C108.934 8.824 108.726 9.13867 108.619 9.576H106.923C107.009 8.744 107.366 8.088 107.995 7.608C108.635 7.11733 109.441 6.872 110.411 6.872C111.585 6.872 112.438 7.16 112.971 7.736C113.505 8.312 113.771 9.10667 113.771 10.12V15H112.331L112.187 13.832H112.075C111.841 14.2053 111.547 14.5253 111.195 14.792C110.843 15.0587 110.315 15.192 109.611 15.192ZM109.931 13.768C110.625 13.768 111.142 13.56 111.483 13.144C111.835 12.7173 112.027 12.1787 112.059 11.528H110.203C109.595 11.528 109.163 11.6293 108.907 11.832C108.662 12.024 108.539 12.296 108.539 12.648C108.539 13 108.662 13.2773 108.907 13.48C109.163 13.672 109.505 13.768 109.931 13.768ZM115.525 15V7.064H116.933L117.077 7.992H117.157C117.296 7.66133 117.509 7.39467 117.797 7.192C118.085 6.97867 118.426 6.872 118.821 6.872C119.205 6.872 119.541 6.968 119.829 7.16C120.117 7.352 120.33 7.62933 120.469 7.992H120.533C120.672 7.672 120.89 7.40533 121.189 7.192C121.488 6.97867 121.856 6.872 122.293 6.872C122.88 6.872 123.322 7.064 123.621 7.448C123.93 7.832 124.085 8.37067 124.085 9.064V15H122.453V9.4C122.453 9.08 122.384 8.82933 122.245 8.648C122.117 8.456 121.909 8.36 121.621 8.36C121.333 8.36 121.093 8.472 120.901 8.696C120.72 8.92 120.629 9.23467 120.629 9.64V15H118.981V9.4C118.981 9.08 118.917 8.82933 118.789 8.648C118.661 8.456 118.453 8.36 118.165 8.36C117.877 8.36 117.637 8.472 117.445 8.696C117.253 8.92 117.157 9.23467 117.157 9.64V15H115.525ZM129.615 15.192C128.847 15.192 128.169 15.0213 127.583 14.68C126.996 14.328 126.537 13.8427 126.207 13.224C125.876 12.6053 125.711 11.8853 125.711 11.064C125.711 10.232 125.871 9.50133 126.191 8.872C126.521 8.24267 126.98 7.752 127.567 7.4C128.164 7.048 128.852 6.872 129.631 6.872C130.399 6.872 131.06 7.048 131.615 7.4C132.169 7.74133 132.596 8.2 132.895 8.776C133.204 9.352 133.359 9.98667 133.359 10.68C133.359 10.7867 133.359 10.904 133.359 11.032C133.359 11.1493 133.353 11.2827 133.343 11.432H127.375C127.428 12.168 127.668 12.728 128.095 13.112C128.521 13.4853 129.023 13.672 129.599 13.672C130.1 13.672 130.495 13.5707 130.783 13.368C131.081 13.1547 131.3 12.8667 131.439 12.504H133.151C132.959 13.2613 132.559 13.9013 131.951 14.424C131.343 14.936 130.564 15.192 129.615 15.192ZM129.615 8.344C129.092 8.344 128.628 8.504 128.223 8.824C127.817 9.13333 127.556 9.57067 127.439 10.136H131.663C131.62 9.60267 131.412 9.17067 131.039 8.84C130.665 8.50933 130.191 8.344 129.615 8.344Z" fill="#216BE6"/>
<path d="M135.401 16.52V15H142.825V16.52H135.401ZM144.994 16.52V15H152.418V16.52H144.994ZM269.713 16.52V15H277.137V16.52H269.713ZM279.307 16.52V15H286.731V16.52H279.307ZM384.838 16.52V15H392.262V16.52H384.838ZM394.432 16.52V15H401.856V16.52H394.432Z" fill="black"/>
<path d="M157.276 15L153.836 7.064H155.756L158.3 13.208L160.86 7.064H162.764L159.308 15H157.276ZM167.174 15.192C166.544 15.192 166.016 15.0853 165.59 14.872C165.163 14.648 164.843 14.3547 164.63 13.992C164.416 13.6187 164.31 13.2133 164.31 12.776C164.31 11.9973 164.592 11.3893 165.158 10.952C165.734 10.5147 166.544 10.296 167.59 10.296H169.638V10.12C169.638 8.92533 169.083 8.328 167.974 8.328C167.515 8.328 167.126 8.42933 166.806 8.632C166.496 8.824 166.288 9.13867 166.182 9.576H164.486C164.571 8.744 164.928 8.088 165.558 7.608C166.198 7.11733 167.003 6.872 167.974 6.872C169.147 6.872 170 7.16 170.534 7.736C171.067 8.312 171.334 9.10667 171.334 10.12V15H169.894L169.75 13.832H169.638C169.403 14.2053 169.11 14.5253 168.758 14.792C168.406 15.0587 167.878 15.192 167.174 15.192ZM167.494 13.768C168.187 13.768 168.704 13.56 169.046 13.144C169.398 12.7173 169.59 12.1787 169.622 11.528H167.766C167.158 11.528 166.726 11.6293 166.47 11.832C166.224 12.024 166.102 12.296 166.102 12.648C166.102 13 166.224 13.2773 166.47 13.48C166.726 13.672 167.067 13.768 167.494 13.768ZM173.92 15V13.528H175.856V9.064C175.856 8.712 175.685 8.536 175.344 8.536H174.08V7.064H175.984C176.421 7.064 176.778 7.192 177.056 7.448C177.333 7.69333 177.472 8.04 177.472 8.488V8.68H177.552C177.669 8.08267 177.92 7.63467 178.304 7.336C178.698 7.02667 179.269 6.872 180.016 6.872H181.248V8.664H179.52C178.89 8.664 178.405 8.88267 178.064 9.32C177.722 9.75733 177.552 10.28 177.552 10.888V13.528H180.016V15H173.92ZM186.921 5.848C186.548 5.848 186.233 5.73067 185.977 5.496C185.732 5.25067 185.609 4.952 185.609 4.6C185.609 4.248 185.732 3.95467 185.977 3.72C186.233 3.48533 186.548 3.368 186.921 3.368C187.305 3.368 187.62 3.48533 187.865 3.72C188.121 3.95467 188.249 4.248 188.249 4.6C188.249 4.952 188.121 5.25067 187.865 5.496C187.62 5.73067 187.305 5.848 186.921 5.848ZM183.737 15V13.528H186.233V9.064C186.233 8.712 186.063 8.536 185.721 8.536H183.961V7.064H186.025C186.687 7.064 187.167 7.21867 187.465 7.528C187.775 7.82667 187.929 8.30667 187.929 8.968V13.528H190.425V15H183.737ZM195.955 15.192C195.326 15.192 194.798 15.0853 194.371 14.872C193.944 14.648 193.624 14.3547 193.411 13.992C193.198 13.6187 193.091 13.2133 193.091 12.776C193.091 11.9973 193.374 11.3893 193.939 10.952C194.515 10.5147 195.326 10.296 196.371 10.296H198.419V10.12C198.419 8.92533 197.864 8.328 196.755 8.328C196.296 8.328 195.907 8.42933 195.587 8.632C195.278 8.824 195.07 9.13867 194.963 9.576H193.267C193.352 8.744 193.71 8.088 194.339 7.608C194.979 7.11733 195.784 6.872 196.755 6.872C197.928 6.872 198.782 7.16 199.315 7.736C199.848 8.312 200.115 9.10667 200.115 10.12V15H198.675L198.531 13.832H198.419C198.184 14.2053 197.891 14.5253 197.539 14.792C197.187 15.0587 196.659 15.192 195.955 15.192ZM196.275 13.768C196.968 13.768 197.486 13.56 197.827 13.144C198.179 12.7173 198.371 12.1787 198.403 11.528H196.547C195.939 11.528 195.507 11.6293 195.251 11.832C195.006 12.024 194.883 12.296 194.883 12.648C194.883 13 195.006 13.2773 195.251 13.48C195.507 13.672 195.848 13.768 196.275 13.768ZM202.717 15V7.064H204.189L204.333 8.248H204.413C204.626 7.864 204.957 7.53867 205.405 7.272C205.853 7.00533 206.37 6.872 206.957 6.872C207.927 6.872 208.658 7.16533 209.149 7.752C209.639 8.33867 209.885 9.20267 209.885 10.344V15H208.189V10.552C208.189 9.89067 208.05 9.37867 207.773 9.016C207.495 8.65333 207.058 8.472 206.461 8.472C205.874 8.472 205.383 8.66933 204.989 9.064C204.605 9.45867 204.413 10.0293 204.413 10.776V15H202.717ZM216.727 15C215.948 15 215.329 14.8133 214.871 14.44C214.412 14.056 214.183 13.3787 214.183 12.408V8.504H212.183V7.064H213.367C213.911 7.064 214.231 6.79733 214.327 6.264L214.567 4.984H215.879V7.064H219.015V8.504H215.879V12.376C215.879 12.792 215.969 13.0853 216.151 13.256C216.343 13.416 216.668 13.496 217.127 13.496H218.983V15H216.727ZM221.744 16.52V15H229.168V16.52H221.744ZM231.498 15V7.064H232.97L233.114 8.248H233.194C233.407 7.864 233.738 7.53867 234.186 7.272C234.634 7.00533 235.151 6.872 235.738 6.872C236.709 6.872 237.439 7.16533 237.93 7.752C238.421 8.33867 238.666 9.20267 238.666 10.344V15H236.97V10.552C236.97 9.89067 236.831 9.37867 236.554 9.016C236.277 8.65333 235.839 8.472 235.242 8.472C234.655 8.472 234.165 8.66933 233.77 9.064C233.386 9.45867 233.194 10.0293 233.194 10.776V15H231.498ZM243.924 15.192C243.294 15.192 242.766 15.0853 242.34 14.872C241.913 14.648 241.593 14.3547 241.38 13.992C241.166 13.6187 241.06 13.2133 241.06 12.776C241.06 11.9973 241.342 11.3893 241.908 10.952C242.484 10.5147 243.294 10.296 244.34 10.296H246.388V10.12C246.388 8.92533 245.833 8.328 244.724 8.328C244.265 8.328 243.876 8.42933 243.556 8.632C243.246 8.824 243.038 9.13867 242.932 9.576H241.236C241.321 8.744 241.678 8.088 242.308 7.608C242.948 7.11733 243.753 6.872 244.724 6.872C245.897 6.872 246.75 7.16 247.284 7.736C247.817 8.312 248.084 9.10667 248.084 10.12V15H246.644L246.5 13.832H246.388C246.153 14.2053 245.86 14.5253 245.508 14.792C245.156 15.0587 244.628 15.192 243.924 15.192ZM244.244 13.768C244.937 13.768 245.454 13.56 245.796 13.144C246.148 12.7173 246.34 12.1787 246.372 11.528H244.516C243.908 11.528 243.476 11.6293 243.22 11.832C242.974 12.024 242.852 12.296 242.852 12.648C242.852 13 242.974 13.2773 243.22 13.48C243.476 13.672 243.817 13.768 244.244 13.768ZM249.838 15V7.064H251.246L251.39 7.992H251.47C251.608 7.66133 251.822 7.39467 252.11 7.192C252.398 6.97867 252.739 6.872 253.134 6.872C253.518 6.872 253.854 6.968 254.141 7.16C254.43 7.352 254.643 7.62933 254.782 7.992H254.846C254.984 7.672 255.203 7.40533 255.502 7.192C255.8 6.97867 256.168 6.872 256.606 6.872C257.192 6.872 257.635 7.064 257.934 7.448C258.243 7.832 258.398 8.37067 258.398 9.064V15H256.766V9.4C256.766 9.08 256.696 8.82933 256.558 8.648C256.43 8.456 256.222 8.36 255.934 8.36C255.646 8.36 255.406 8.472 255.214 8.696C255.032 8.92 254.942 9.23467 254.942 9.64V15H253.294V9.4C253.294 9.08 253.23 8.82933 253.102 8.648C252.974 8.456 252.766 8.36 252.478 8.36C252.19 8.36 251.95 8.472 251.758 8.696C251.566 8.92 251.47 9.23467 251.47 9.64V15H249.838ZM263.927 15.192C263.159 15.192 262.482 15.0213 261.895 14.68C261.309 14.328 260.85 13.8427 260.519 13.224C260.189 12.6053 260.023 11.8853 260.023 11.064C260.023 10.232 260.183 9.50133 260.503 8.872C260.834 8.24267 261.293 7.752 261.879 7.4C262.477 7.048 263.165 6.872 263.943 6.872C264.711 6.872 265.373 7.048 265.927 7.4C266.482 7.74133 266.909 8.2 267.207 8.776C267.517 9.352 267.671 9.98667 267.671 10.68C267.671 10.7867 267.671 10.904 267.671 11.032C267.671 11.1493 267.666 11.2827 267.655 11.432H261.687C261.741 12.168 261.981 12.728 262.407 13.112C262.834 13.4853 263.335 13.672 263.911 13.672C264.413 13.672 264.807 13.5707 265.095 13.368C265.394 13.1547 265.613 12.8667 265.751 12.504H267.463C267.271 13.2613 266.871 13.9013 266.263 14.424C265.655 14.936 264.877 15.192 263.927 15.192ZM263.927 8.344C263.405 8.344 262.941 8.504 262.535 8.824C262.13 9.13333 261.869 9.57067 261.751 10.136H265.975C265.933 9.60267 265.725 9.17067 265.351 8.84C264.978 8.50933 264.503 8.344 263.927 8.344Z" fill="#EC396A"/>
<path d="M292.677 15.192C291.631 15.192 290.799 14.9467 290.181 14.456C289.562 13.9653 289.21 13.3147 289.125 12.504H290.869C290.933 12.8773 291.119 13.1813 291.429 13.416C291.749 13.6507 292.17 13.768 292.693 13.768C293.194 13.768 293.578 13.6667 293.845 13.464C294.122 13.2507 294.261 13.0053 294.261 12.728C294.261 12.3227 294.095 12.0453 293.765 11.896C293.445 11.7467 292.97 11.6347 292.341 11.56C291.797 11.496 291.301 11.3733 290.853 11.192C290.415 11 290.069 10.744 289.812 10.424C289.557 10.0933 289.429 9.68267 289.429 9.192C289.429 8.49867 289.701 7.93867 290.245 7.512C290.789 7.08533 291.546 6.872 292.516 6.872C293.487 6.872 294.239 7.09067 294.773 7.528C295.306 7.96533 295.615 8.56267 295.701 9.32H294.069C294.026 9 293.861 8.74933 293.573 8.568C293.285 8.376 292.927 8.28 292.501 8.28C292.063 8.28 291.717 8.36533 291.461 8.536C291.205 8.696 291.077 8.90933 291.077 9.176C291.077 9.752 291.695 10.104 292.933 10.232C293.519 10.296 294.042 10.408 294.501 10.568C294.959 10.7173 295.322 10.9573 295.589 11.288C295.855 11.608 295.989 12.0613 295.989 12.648C295.999 13.128 295.861 13.56 295.573 13.944C295.295 14.328 294.906 14.632 294.405 14.856C293.914 15.08 293.338 15.192 292.677 15.192ZM303.07 15C302.292 15 301.673 14.8133 301.214 14.44C300.756 14.056 300.526 13.3787 300.526 12.408V8.504H298.526V7.064H299.71C300.254 7.064 300.574 6.79733 300.67 6.264L300.91 4.984H302.222V7.064H305.358V8.504H302.222V12.376C302.222 12.792 302.313 13.0853 302.494 13.256C302.686 13.416 303.012 13.496 303.47 13.496H305.326V15H303.07ZM311.08 15.192C310.451 15.192 309.923 15.0853 309.496 14.872C309.069 14.648 308.749 14.3547 308.536 13.992C308.323 13.6187 308.216 13.2133 308.216 12.776C308.216 11.9973 308.499 11.3893 309.064 10.952C309.64 10.5147 310.451 10.296 311.496 10.296H313.544V10.12C313.544 8.92533 312.989 8.328 311.88 8.328C311.421 8.328 311.032 8.42933 310.712 8.632C310.403 8.824 310.195 9.13867 310.088 9.576H308.392C308.477 8.744 308.835 8.088 309.464 7.608C310.104 7.11733 310.909 6.872 311.88 6.872C313.053 6.872 313.907 7.16 314.44 7.736C314.973 8.312 315.24 9.10667 315.24 10.12V15H313.8L313.656 13.832H313.544C313.309 14.2053 313.016 14.5253 312.664 14.792C312.312 15.0587 311.784 15.192 311.08 15.192ZM311.4 13.768C312.093 13.768 312.611 13.56 312.952 13.144C313.304 12.7173 313.496 12.1787 313.528 11.528H311.672C311.064 11.528 310.632 11.6293 310.376 11.832C310.131 12.024 310.008 12.296 310.008 12.648C310.008 13 310.131 13.2773 310.376 13.48C310.632 13.672 310.973 13.768 311.4 13.768ZM322.258 15C321.479 15 320.86 14.8133 320.402 14.44C319.943 14.056 319.714 13.3787 319.714 12.408V8.504H317.714V7.064H318.898C319.442 7.064 319.762 6.79733 319.858 6.264L320.098 4.984H321.41V7.064H324.546V8.504H321.41V12.376C321.41 12.792 321.5 13.0853 321.682 13.256C321.874 13.416 322.199 13.496 322.658 13.496H324.514V15H322.258ZM331.084 15.192C330.316 15.192 329.638 15.0213 329.052 14.68C328.465 14.328 328.006 13.8427 327.676 13.224C327.345 12.6053 327.18 11.8853 327.18 11.064C327.18 10.232 327.34 9.50133 327.66 8.872C327.99 8.24267 328.449 7.752 329.036 7.4C329.633 7.048 330.321 6.872 331.1 6.872C331.868 6.872 332.529 7.048 333.084 7.4C333.638 7.74133 334.065 8.2 334.364 8.776C334.673 9.352 334.828 9.98667 334.828 10.68C334.828 10.7867 334.828 10.904 334.828 11.032C334.828 11.1493 334.822 11.2827 334.812 11.432H328.844C328.897 12.168 329.137 12.728 329.564 13.112C329.99 13.4853 330.492 13.672 331.068 13.672C331.569 13.672 331.964 13.5707 332.252 13.368C332.55 13.1547 332.769 12.8667 332.908 12.504H334.62C334.428 13.2613 334.028 13.9013 333.42 14.424C332.812 14.936 332.033 15.192 331.084 15.192ZM331.084 8.344C330.561 8.344 330.097 8.504 329.692 8.824C329.286 9.13333 329.025 9.57067 328.908 10.136H333.132C333.089 9.60267 332.881 9.17067 332.508 8.84C332.134 8.50933 331.66 8.344 331.084 8.344ZM336.869 16.52V15H344.293V16.52H336.869ZM346.623 15V7.064H348.095L348.239 8.248H348.319C348.532 7.864 348.863 7.53867 349.311 7.272C349.759 7.00533 350.276 6.872 350.863 6.872C351.834 6.872 352.564 7.16533 353.055 7.752C353.546 8.33867 353.791 9.20267 353.791 10.344V15H352.095V10.552C352.095 9.89067 351.956 9.37867 351.679 9.016C351.402 8.65333 350.964 8.472 350.367 8.472C349.78 8.472 349.29 8.66933 348.895 9.064C348.511 9.45867 348.319 10.0293 348.319 10.776V15H346.623ZM359.049 15.192C358.419 15.192 357.891 15.0853 357.465 14.872C357.038 14.648 356.718 14.3547 356.505 13.992C356.291 13.6187 356.185 13.2133 356.185 12.776C356.185 11.9973 356.467 11.3893 357.033 10.952C357.609 10.5147 358.419 10.296 359.465 10.296H361.513V10.12C361.513 8.92533 360.958 8.328 359.849 8.328C359.39 8.328 359.001 8.42933 358.681 8.632C358.371 8.824 358.163 9.13867 358.057 9.576H356.361C356.446 8.744 356.803 8.088 357.433 7.608C358.073 7.11733 358.878 6.872 359.849 6.872C361.022 6.872 361.875 7.16 362.409 7.736C362.942 8.312 363.209 9.10667 363.209 10.12V15H361.769L361.625 13.832H361.513C361.278 14.2053 360.985 14.5253 360.633 14.792C360.281 15.0587 359.753 15.192 359.049 15.192ZM359.369 13.768C360.062 13.768 360.579 13.56 360.921 13.144C361.273 12.7173 361.465 12.1787 361.497 11.528H359.641C359.033 11.528 358.601 11.6293 358.345 11.832C358.099 12.024 357.977 12.296 357.977 12.648C357.977 13 358.099 13.2773 358.345 13.48C358.601 13.672 358.942 13.768 359.369 13.768ZM364.963 15V7.064H366.371L366.515 7.992H366.595C366.733 7.66133 366.947 7.39467 367.235 7.192C367.523 6.97867 367.864 6.872 368.259 6.872C368.643 6.872 368.979 6.968 369.266 7.16C369.555 7.352 369.768 7.62933 369.907 7.992H369.971C370.109 7.672 370.328 7.40533 370.627 7.192C370.925 6.97867 371.293 6.872 371.731 6.872C372.317 6.872 372.76 7.064 373.059 7.448C373.368 7.832 373.523 8.37067 373.523 9.064V15H371.891V9.4C371.891 9.08 371.821 8.82933 371.683 8.648C371.555 8.456 371.347 8.36 371.059 8.36C370.771 8.36 370.531 8.472 370.339 8.696C370.157 8.92 370.067 9.23467 370.067 9.64V15H368.419V9.4C368.419 9.08 368.355 8.82933 368.227 8.648C368.099 8.456 367.891 8.36 367.603 8.36C367.315 8.36 367.075 8.472 366.883 8.696C366.691 8.92 366.595 9.23467 366.595 9.64V15H364.963ZM379.052 15.192C378.284 15.192 377.607 15.0213 377.02 14.68C376.434 14.328 375.975 13.8427 375.644 13.224C375.314 12.6053 375.148 11.8853 375.148 11.064C375.148 10.232 375.308 9.50133 375.628 8.872C375.959 8.24267 376.418 7.752 377.004 7.4C377.602 7.048 378.29 6.872 379.068 6.872C379.836 6.872 380.498 7.048 381.052 7.4C381.607 7.74133 382.034 8.2 382.332 8.776C382.642 9.352 382.796 9.98667 382.796 10.68C382.796 10.7867 382.796 10.904 382.796 11.032C382.796 11.1493 382.791 11.2827 382.78 11.432H376.812C376.866 12.168 377.106 12.728 377.532 13.112C377.959 13.4853 378.46 13.672 379.036 13.672C379.538 13.672 379.932 13.5707 380.22 13.368C380.519 13.1547 380.738 12.8667 380.876 12.504H382.588C382.396 13.2613 381.996 13.9013 381.388 14.424C380.78 14.936 380.002 15.192 379.052 15.192ZM379.052 8.344C378.53 8.344 378.066 8.504 377.66 8.824C377.255 9.13333 376.994 9.57067 376.876 10.136H381.1C381.058 9.60267 380.85 9.17067 380.476 8.84C380.103 8.50933 379.628 8.344 379.052 8.344Z" fill="#8E6AD6"/>
<path d="M404.042 18.52V7.064H405.514L405.642 8.28H405.738C405.951 7.88533 406.271 7.55467 406.698 7.288C407.135 7.01067 407.652 6.872 408.25 6.872C408.868 6.872 409.434 7.032 409.946 7.352C410.458 7.66133 410.863 8.12533 411.161 8.744C411.471 9.352 411.626 10.1147 411.626 11.032C411.626 11.9387 411.466 12.7013 411.146 13.32C410.836 13.9387 410.415 14.408 409.882 14.728C409.348 15.0373 408.751 15.192 408.09 15.192C407.503 15.192 407.012 15.0747 406.618 14.84C406.223 14.6053 405.93 14.3387 405.738 14.04V18.52H404.042ZM407.802 13.576C408.399 13.576 408.895 13.3627 409.29 12.936C409.695 12.5093 409.898 11.8693 409.898 11.016C409.898 10.1627 409.695 9.528 409.29 9.112C408.895 8.696 408.399 8.488 407.802 8.488C407.194 8.488 406.687 8.70133 406.282 9.128C405.887 9.544 405.69 10.1787 405.69 11.032C405.69 11.8747 405.887 12.5093 406.282 12.936C406.687 13.3627 407.194 13.576 407.802 13.576ZM413.763 15V13.528H415.699V9.064C415.699 8.712 415.529 8.536 415.187 8.536H413.923V7.064H415.827C416.265 7.064 416.622 7.192 416.899 7.448C417.177 7.69333 417.315 8.04 417.315 8.488V8.68H417.395C417.513 8.08267 417.763 7.63467 418.147 7.336C418.542 7.02667 419.113 6.872 419.859 6.872H421.091V8.664H419.363C418.734 8.664 418.249 8.88267 417.907 9.32C417.566 9.75733 417.395 10.28 417.395 10.888V13.528H419.859V15H413.763ZM426.925 15.192C426.168 15.192 425.49 15.0213 424.893 14.68C424.296 14.3387 423.826 13.8587 423.485 13.24C423.144 12.6107 422.973 11.8747 422.973 11.032C422.973 10.1893 423.144 9.45867 423.485 8.84C423.826 8.21067 424.296 7.72533 424.893 7.384C425.49 7.04267 426.173 6.872 426.941 6.872C427.709 6.872 428.386 7.04267 428.973 7.384C429.57 7.72533 430.034 8.21067 430.365 8.84C430.706 9.45867 430.877 10.1893 430.877 11.032C430.877 11.8747 430.706 12.6107 430.365 13.24C430.024 13.8587 429.554 14.3387 428.957 14.68C428.37 15.0213 427.693 15.192 426.925 15.192ZM426.925 13.576C427.33 13.576 427.704 13.4853 428.045 13.304C428.386 13.1227 428.658 12.8453 428.861 12.472C429.074 12.088 429.181 11.608 429.181 11.032C429.181 10.4453 429.074 9.96533 428.861 9.592C428.658 9.21867 428.386 8.94133 428.045 8.76C427.714 8.57867 427.346 8.488 426.941 8.488C426.536 8.488 426.162 8.57867 425.821 8.76C425.48 8.94133 425.202 9.21867 424.989 9.592C424.786 9.96533 424.685 10.4453 424.685 11.032C424.685 11.9067 424.904 12.552 425.341 12.968C425.789 13.3733 426.317 13.576 426.925 13.576ZM432.823 18.52V7.064H434.295L434.423 8.28H434.519C434.732 7.88533 435.052 7.55467 435.479 7.288C435.916 7.01067 436.433 6.872 437.031 6.872C437.649 6.872 438.215 7.032 438.727 7.352C439.239 7.66133 439.644 8.12533 439.943 8.744C440.252 9.352 440.407 10.1147 440.407 11.032C440.407 11.9387 440.247 12.7013 439.927 13.32C439.617 13.9387 439.196 14.408 438.663 14.728C438.129 15.0373 437.532 15.192 436.871 15.192C436.284 15.192 435.793 15.0747 435.399 14.84C435.004 14.6053 434.711 14.3387 434.519 14.04V18.52H432.823ZM436.583 13.576C437.18 13.576 437.676 13.3627 438.071 12.936C438.476 12.5093 438.679 11.8693 438.679 11.016C438.679 10.1627 438.476 9.528 438.071 9.112C437.676 8.696 437.18 8.488 436.583 8.488C435.975 8.488 435.468 8.70133 435.063 9.128C434.668 9.544 434.471 10.1787 434.471 11.032C434.471 11.8747 434.668 12.5093 435.063 12.936C435.468 13.3627 435.975 13.576 436.583 13.576ZM446.209 15.192C445.441 15.192 444.763 15.0213 444.177 14.68C443.59 14.328 443.131 13.8427 442.801 13.224C442.47 12.6053 442.305 11.8853 442.305 11.064C442.305 10.232 442.465 9.50133 442.785 8.872C443.115 8.24267 443.574 7.752 444.161 7.4C444.758 7.048 445.446 6.872 446.225 6.872C446.993 6.872 447.654 7.048 448.209 7.4C448.763 7.74133 449.19 8.2 449.489 8.776C449.798 9.352 449.953 9.98667 449.953 10.68C449.953 10.7867 449.953 10.904 449.953 11.032C449.953 11.1493 449.947 11.2827 449.937 11.432H443.969C444.022 12.168 444.262 12.728 444.689 13.112C445.115 13.4853 445.617 13.672 446.193 13.672C446.694 13.672 447.089 13.5707 447.377 13.368C447.675 13.1547 447.894 12.8667 448.033 12.504H449.745C449.553 13.2613 449.153 13.9013 448.545 14.424C447.937 14.936 447.158 15.192 446.209 15.192ZM446.209 8.344C445.686 8.344 445.222 8.504 444.817 8.824C444.411 9.13333 444.15 9.57067 444.033 10.136H448.257C448.214 9.60267 448.006 9.17067 447.633 8.84C447.259 8.50933 446.785 8.344 446.209 8.344ZM452.138 15V13.528H454.074V9.064C454.074 8.712 453.904 8.536 453.562 8.536H452.298V7.064H454.202C454.64 7.064 454.997 7.192 455.274 7.448C455.552 7.69333 455.69 8.04 455.69 8.488V8.68H455.77C455.888 8.08267 456.138 7.63467 456.522 7.336C456.917 7.02667 457.488 6.872 458.234 6.872H459.466V8.664H457.738C457.109 8.664 456.624 8.88267 456.282 9.32C455.941 9.75733 455.77 10.28 455.77 10.888V13.528H458.234V15H452.138ZM466.164 15C465.385 15 464.767 14.8133 464.308 14.44C463.849 14.056 463.62 13.3787 463.62 12.408V8.504H461.62V7.064H462.804C463.348 7.064 463.668 6.79733 463.764 6.264L464.004 4.984H465.316V7.064H468.452V8.504H465.316V12.376C465.316 12.792 465.407 13.0853 465.588 13.256C465.78 13.416 466.105 13.496 466.564 13.496H468.42V15H466.164ZM472.382 18.52L474.27 14.344H473.806L470.718 7.064H472.558L474.926 12.872L477.438 7.064H479.214L474.174 18.52H472.382ZM480.776 16.52V15H488.2V16.52H480.776ZM490.529 15V7.064H492.001L492.145 8.248H492.225C492.439 7.864 492.769 7.53867 493.217 7.272C493.665 7.00533 494.183 6.872 494.769 6.872C495.74 6.872 496.471 7.16533 496.961 7.752C497.452 8.33867 497.697 9.20267 497.697 10.344V15H496.001V10.552C496.001 9.89067 495.863 9.37867 495.585 9.016C495.308 8.65333 494.871 8.472 494.273 8.472C493.687 8.472 493.196 8.66933 492.801 9.064C492.417 9.45867 492.225 10.0293 492.225 10.776V15H490.529ZM502.955 15.192C502.326 15.192 501.798 15.0853 501.371 14.872C500.944 14.648 500.624 14.3547 500.411 13.992C500.198 13.6187 500.091 13.2133 500.091 12.776C500.091 11.9973 500.374 11.3893 500.939 10.952C501.515 10.5147 502.326 10.296 503.371 10.296H505.419V10.12C505.419 8.92533 504.864 8.328 503.755 8.328C503.296 8.328 502.907 8.42933 502.587 8.632C502.278 8.824 502.07 9.13867 501.963 9.576H500.267C500.352 8.744 500.71 8.088 501.339 7.608C501.979 7.11733 502.784 6.872 503.755 6.872C504.928 6.872 505.782 7.16 506.315 7.736C506.848 8.312 507.115 9.10667 507.115 10.12V15H505.675L505.531 13.832H505.419C505.184 14.2053 504.891 14.5253 504.539 14.792C504.187 15.0587 503.659 15.192 502.955 15.192ZM503.275 13.768C503.968 13.768 504.486 13.56 504.827 13.144C505.179 12.7173 505.371 12.1787 505.403 11.528H503.547C502.939 11.528 502.507 11.6293 502.251 11.832C502.006 12.024 501.883 12.296 501.883 12.648C501.883 13 502.006 13.2773 502.251 13.48C502.507 13.672 502.848 13.768 503.275 13.768ZM508.869 15V7.064H510.277L510.421 7.992H510.501C510.639 7.66133 510.853 7.39467 511.141 7.192C511.429 6.97867 511.77 6.872 512.165 6.872C512.549 6.872 512.885 6.968 513.173 7.16C513.461 7.352 513.674 7.62933 513.813 7.992H513.877C514.015 7.672 514.234 7.40533 514.533 7.192C514.831 6.97867 515.199 6.872 515.637 6.872C516.223 6.872 516.666 7.064 516.965 7.448C517.274 7.832 517.429 8.37067 517.429 9.064V15H515.797V9.4C515.797 9.08 515.727 8.82933 515.589 8.648C515.461 8.456 515.253 8.36 514.965 8.36C514.677 8.36 514.437 8.472 514.245 8.696C514.063 8.92 513.973 9.23467 513.973 9.64V15H512.325V9.4C512.325 9.08 512.261 8.82933 512.133 8.648C512.005 8.456 511.797 8.36 511.509 8.36C511.221 8.36 510.981 8.472 510.789 8.696C510.597 8.92 510.501 9.23467 510.501 9.64V15H508.869ZM522.959 15.192C522.191 15.192 521.513 15.0213 520.927 14.68C520.34 14.328 519.881 13.8427 519.551 13.224C519.22 12.6053 519.055 11.8853 519.055 11.064C519.055 10.232 519.215 9.50133 519.535 8.872C519.865 8.24267 520.324 7.752 520.911 7.4C521.508 7.048 522.196 6.872 522.975 6.872C523.743 6.872 524.404 7.048 524.959 7.4C525.513 7.74133 525.94 8.2 526.239 8.776C526.548 9.352 526.703 9.98667 526.703 10.68C526.703 10.7867 526.703 10.904 526.703 11.032C526.703 11.1493 526.697 11.2827 526.687 11.432H520.719C520.772 12.168 521.012 12.728 521.439 13.112C521.865 13.4853 522.367 13.672 522.943 13.672C523.444 13.672 523.839 13.5707 524.127 13.368C524.425 13.1547 524.644 12.8667 524.783 12.504H526.495C526.303 13.2613 525.903 13.9013 525.295 14.424C524.687 14.936 523.908 15.192 522.959 15.192ZM522.959 8.344C522.436 8.344 521.972 8.504 521.567 8.824C521.161 9.13333 520.9 9.57067 520.783 10.136H525.007C524.964 9.60267 524.756 9.17067 524.383 8.84C524.009 8.50933 523.535 8.344 522.959 8.344Z" fill="#49849E"/>
<path d="M4.912 47.192C4.176 47.192 3.51467 47.0213 2.928 46.68C2.352 46.3387 1.89867 45.8587 1.568 45.24C1.23733 44.6107 1.072 43.8747 1.072 43.032C1.072 42.1893 1.23733 41.4587 1.568 40.84C1.90933 40.2213 2.368 39.7413 2.944 39.4C3.52 39.048 4.176 38.872 4.912 38.872C5.92533 38.872 6.74133 39.128 7.36 39.64C7.98933 40.1413 8.38933 40.8347 8.56 41.72H6.784C6.67733 41.336 6.45867 41.032 6.128 40.808C5.808 40.584 5.39733 40.472 4.896 40.472C4.53333 40.472 4.18667 40.568 3.856 40.76C3.536 40.952 3.27467 41.24 3.072 41.624C2.88 41.9973 2.784 42.4667 2.784 43.032C2.784 43.5867 2.88 44.056 3.072 44.44C3.27467 44.824 3.536 45.1173 3.856 45.32C4.18667 45.512 4.53333 45.608 4.896 45.608C5.408 45.608 5.81867 45.496 6.128 45.272C6.43733 45.048 6.656 44.7387 6.784 44.344H8.56C8.34667 45.2187 7.93067 45.912 7.312 46.424C6.69333 46.936 5.89333 47.192 4.912 47.192ZM14.3938 47.192C13.6364 47.192 12.9591 47.0213 12.3618 46.68C11.7644 46.3387 11.2951 45.8587 10.9538 45.24C10.6124 44.6107 10.4418 43.8747 10.4418 43.032C10.4418 42.1893 10.6124 41.4587 10.9538 40.84C11.2951 40.2107 11.7644 39.7253 12.3618 39.384C12.9591 39.0427 13.6418 38.872 14.4098 38.872C15.1778 38.872 15.8551 39.0427 16.4418 39.384C17.0391 39.7253 17.5031 40.2107 17.8338 40.84C18.1751 41.4587 18.3458 42.1893 18.3458 43.032C18.3458 43.8747 18.1751 44.6107 17.8338 45.24C17.4924 45.8587 17.0231 46.3387 16.4258 46.68C15.8391 47.0213 15.1618 47.192 14.3938 47.192ZM14.3938 45.576C14.7991 45.576 15.1724 45.4853 15.5138 45.304C15.8551 45.1227 16.1271 44.8453 16.3298 44.472C16.5431 44.088 16.6498 43.608 16.6498 43.032C16.6498 42.4453 16.5431 41.9653 16.3298 41.592C16.1271 41.2187 15.8551 40.9413 15.5138 40.76C15.1831 40.5787 14.8151 40.488 14.4098 40.488C14.0044 40.488 13.6311 40.5787 13.2898 40.76C12.9484 40.9413 12.6711 41.2187 12.4578 41.592C12.2551 41.9653 12.1538 42.4453 12.1538 43.032C12.1538 43.9067 12.3724 44.552 12.8098 44.968C13.2578 45.3733 13.7858 45.576 14.3938 45.576ZM19.5875 47V39.064H20.9955L21.1395 39.992H21.2195C21.3582 39.6613 21.5715 39.3947 21.8595 39.192C22.1475 38.9787 22.4888 38.872 22.8835 38.872C23.2675 38.872 23.6035 38.968 23.8915 39.16C24.1795 39.352 24.3928 39.6293 24.5315 39.992H24.5955C24.7342 39.672 24.9528 39.4053 25.2515 39.192C25.5502 38.9787 25.9182 38.872 26.3555 38.872C26.9422 38.872 27.3848 39.064 27.6835 39.448C27.9928 39.832 28.1475 40.3707 28.1475 41.064V47H26.5155V41.4C26.5155 41.08 26.4462 40.8293 26.3075 40.648C26.1795 40.456 25.9715 40.36 25.6835 40.36C25.3955 40.36 25.1555 40.472 24.9635 40.696C24.7822 40.92 24.6915 41.2347 24.6915 41.64V47H23.0435V41.4C23.0435 41.08 22.9795 40.8293 22.8515 40.648C22.7235 40.456 22.5155 40.36 22.2275 40.36C21.9395 40.36 21.6995 40.472 21.5075 40.696C21.3155 40.92 21.2195 41.2347 21.2195 41.64V47H19.5875ZM29.8853 50.52V39.064H31.3573L31.4853 40.28H31.5813C31.7946 39.8853 32.1146 39.5547 32.5413 39.288C32.9786 39.0107 33.4959 38.872 34.0933 38.872C34.7119 38.872 35.2773 39.032 35.7893 39.352C36.3013 39.6613 36.7066 40.1253 37.0052 40.744C37.3146 41.352 37.4693 42.1147 37.4693 43.032C37.4693 43.9387 37.3093 44.7013 36.9893 45.32C36.6799 45.9387 36.2586 46.408 35.7253 46.728C35.1919 47.0373 34.5946 47.192 33.9333 47.192C33.3466 47.192 32.8559 47.0747 32.4613 46.84C32.0666 46.6053 31.7733 46.3387 31.5813 46.04V50.52H29.8853ZM33.6453 45.576C34.2426 45.576 34.7386 45.3627 35.1333 44.936C35.5386 44.5093 35.7413 43.8693 35.7413 43.016C35.7413 42.1627 35.5386 41.528 35.1333 41.112C34.7386 40.696 34.2426 40.488 33.6453 40.488C33.0373 40.488 32.5306 40.7013 32.1253 41.128C31.7306 41.544 31.5333 42.1787 31.5333 43.032C31.5333 43.8747 31.7306 44.5093 32.1253 44.936C32.5306 45.3627 33.0373 45.576 33.6453 45.576ZM43.175 47.192C42.4177 47.192 41.7403 47.0213 41.143 46.68C40.5457 46.3387 40.0763 45.8587 39.735 45.24C39.3937 44.6107 39.223 43.8747 39.223 43.032C39.223 42.1893 39.3937 41.4587 39.735 40.84C40.0763 40.2107 40.5457 39.7253 41.143 39.384C41.7403 39.0427 42.423 38.872 43.191 38.872C43.959 38.872 44.6363 39.0427 45.223 39.384C45.8203 39.7253 46.2843 40.2107 46.615 40.84C46.9563 41.4587 47.127 42.1893 47.127 43.032C47.127 43.8747 46.9563 44.6107 46.615 45.24C46.2737 45.8587 45.8043 46.3387 45.207 46.68C44.6203 47.0213 43.943 47.192 43.175 47.192ZM43.175 45.576C43.5803 45.576 43.9537 45.4853 44.295 45.304C44.6363 45.1227 44.9083 44.8453 45.111 44.472C45.3243 44.088 45.431 43.608 45.431 43.032C45.431 42.4453 45.3243 41.9653 45.111 41.592C44.9083 41.2187 44.6363 40.9413 44.295 40.76C43.9643 40.5787 43.5963 40.488 43.191 40.488C42.7857 40.488 42.4123 40.5787 42.071 40.76C41.7297 40.9413 41.4523 41.2187 41.239 41.592C41.0363 41.9653 40.935 42.4453 40.935 43.032C40.935 43.9067 41.1537 44.552 41.591 44.968C42.039 45.3733 42.567 45.576 43.175 45.576ZM49.2168 47V39.064H50.6888L50.8328 40.248H50.9128C51.1261 39.864 51.4568 39.5387 51.9048 39.272C52.3528 39.0053 52.8701 38.872 53.4568 38.872C54.4274 38.872 55.1581 39.1653 55.6488 39.752C56.1394 40.3387 56.3848 41.2027 56.3848 42.344V47H54.6888V42.552C54.6888 41.8907 54.5501 41.3787 54.2728 41.016C53.9954 40.6533 53.5581 40.472 52.9608 40.472C52.3741 40.472 51.8834 40.6693 51.4888 41.064C51.1048 41.4587 50.9128 42.0293 50.9128 42.776V47H49.2168ZM62.4585 47.192C61.6905 47.192 61.0132 47.0213 60.4265 46.68C59.8398 46.328 59.3812 45.8427 59.0505 45.224C58.7198 44.6053 58.5545 43.8853 58.5545 43.064C58.5545 42.232 58.7145 41.5013 59.0345 40.872C59.3652 40.2427 59.8238 39.752 60.4105 39.4C61.0078 39.048 61.6958 38.872 62.4745 38.872C63.2425 38.872 63.9038 39.048 64.4585 39.4C65.0132 39.7413 65.4398 40.2 65.7385 40.776C66.0478 41.352 66.2025 41.9867 66.2025 42.68C66.2025 42.7867 66.2025 42.904 66.2025 43.032C66.2025 43.1493 66.1972 43.2827 66.1865 43.432H60.2185C60.2718 44.168 60.5118 44.728 60.9385 45.112C61.3652 45.4853 61.8665 45.672 62.4425 45.672C62.9438 45.672 63.3385 45.5707 63.6265 45.368C63.9252 45.1547 64.1438 44.8667 64.2825 44.504H65.9945C65.8025 45.2613 65.4025 45.9013 64.7945 46.424C64.1865 46.936 63.4078 47.192 62.4585 47.192ZM62.4585 40.344C61.9358 40.344 61.4718 40.504 61.0665 40.824C60.6612 41.1333 60.3998 41.5707 60.2825 42.136H64.5065C64.4638 41.6027 64.2558 41.1707 63.8825 40.84C63.5092 40.5093 63.0345 40.344 62.4585 40.344ZM68.4043 47V39.064H69.8763L70.0203 40.248H70.1003C70.3136 39.864 70.6443 39.5387 71.0923 39.272C71.5403 39.0053 72.0576 38.872 72.6443 38.872C73.6149 38.872 74.3456 39.1653 74.8363 39.752C75.3269 40.3387 75.5723 41.2027 75.5723 42.344V47H73.8763V42.552C73.8763 41.8907 73.7376 41.3787 73.4603 41.016C73.1829 40.6533 72.7456 40.472 72.1483 40.472C71.5616 40.472 71.0709 40.6693 70.6763 41.064C70.2923 41.4587 70.1003 42.0293 70.1003 42.776V47H68.4043ZM82.414 47C81.6353 47 81.0167 46.8133 80.558 46.44C80.0993 46.056 79.87 45.3787 79.87 44.408V40.504H77.87V39.064H79.054C79.598 39.064 79.918 38.7973 80.014 38.264L80.254 36.984H81.566V39.064H84.702V40.504H81.566V44.376C81.566 44.792 81.6567 45.0853 81.838 45.256C82.03 45.416 82.3553 45.496 82.814 45.496H84.67V47H82.414ZM87.4318 48.52V47H94.8558V48.52H87.4318ZM97.1855 47V39.064H98.6575L98.8015 40.248H98.8815C99.0948 39.864 99.4255 39.5387 99.8735 39.272C100.322 39.0053 100.839 38.872 101.426 38.872C102.396 38.872 103.127 39.1653 103.618 39.752C104.108 40.3387 104.354 41.2027 104.354 42.344V47H102.658V42.552C102.658 41.8907 102.519 41.3787 102.242 41.016C101.964 40.6533 101.527 40.472 100.93 40.472C100.343 40.472 99.8522 40.6693 99.4575 41.064C99.0735 41.4587 98.8815 42.0293 98.8815 42.776V47H97.1855ZM109.611 47.192C108.982 47.192 108.454 47.0853 108.027 46.872C107.601 46.648 107.281 46.3547 107.067 45.992C106.854 45.6187 106.747 45.2133 106.747 44.776C106.747 43.9973 107.03 43.3893 107.595 42.952C108.171 42.5147 108.982 42.296 110.027 42.296H112.075V42.12C112.075 40.9253 111.521 40.328 110.411 40.328C109.953 40.328 109.563 40.4293 109.243 40.632C108.934 40.824 108.726 41.1387 108.619 41.576H106.923C107.009 40.744 107.366 40.088 107.995 39.608C108.635 39.1173 109.441 38.872 110.411 38.872C111.585 38.872 112.438 39.16 112.971 39.736C113.505 40.312 113.771 41.1067 113.771 42.12V47H112.331L112.187 45.832H112.075C111.841 46.2053 111.547 46.5253 111.195 46.792C110.843 47.0587 110.315 47.192 109.611 47.192ZM109.931 45.768C110.625 45.768 111.142 45.56 111.483 45.144C111.835 44.7173 112.027 44.1787 112.059 43.528H110.203C109.595 43.528 109.163 43.6293 108.907 43.832C108.662 44.024 108.539 44.296 108.539 44.648C108.539 45 108.662 45.2773 108.907 45.48C109.163 45.672 109.505 45.768 109.931 45.768ZM115.525 47V39.064H116.933L117.077 39.992H117.157C117.296 39.6613 117.509 39.3947 117.797 39.192C118.085 38.9787 118.426 38.872 118.821 38.872C119.205 38.872 119.541 38.968 119.829 39.16C120.117 39.352 120.33 39.6293 120.469 39.992H120.533C120.672 39.672 120.89 39.4053 121.189 39.192C121.488 38.9787 121.856 38.872 122.293 38.872C122.88 38.872 123.322 39.064 123.621 39.448C123.93 39.832 124.085 40.3707 124.085 41.064V47H122.453V41.4C122.453 41.08 122.384 40.8293 122.245 40.648C122.117 40.456 121.909 40.36 121.621 40.36C121.333 40.36 121.093 40.472 120.901 40.696C120.72 40.92 120.629 41.2347 120.629 41.64V47H118.981V41.4C118.981 41.08 118.917 40.8293 118.789 40.648C118.661 40.456 118.453 40.36 118.165 40.36C117.877 40.36 117.637 40.472 117.445 40.696C117.253 40.92 117.157 41.2347 117.157 41.64V47H115.525ZM129.615 47.192C128.847 47.192 128.169 47.0213 127.583 46.68C126.996 46.328 126.537 45.8427 126.207 45.224C125.876 44.6053 125.711 43.8853 125.711 43.064C125.711 42.232 125.871 41.5013 126.191 40.872C126.521 40.2427 126.98 39.752 127.567 39.4C128.164 39.048 128.852 38.872 129.631 38.872C130.399 38.872 131.06 39.048 131.615 39.4C132.169 39.7413 132.596 40.2 132.895 40.776C133.204 41.352 133.359 41.9867 133.359 42.68C133.359 42.7867 133.359 42.904 133.359 43.032C133.359 43.1493 133.353 43.2827 133.343 43.432H127.375C127.428 44.168 127.668 44.728 128.095 45.112C128.521 45.4853 129.023 45.672 129.599 45.672C130.1 45.672 130.495 45.5707 130.783 45.368C131.081 45.1547 131.3 44.8667 131.439 44.504H133.151C132.959 45.2613 132.559 45.9013 131.951 46.424C131.343 46.936 130.564 47.192 129.615 47.192ZM129.615 40.344C129.092 40.344 128.628 40.504 128.223 40.824C127.817 41.1333 127.556 41.5707 127.439 42.136H131.663C131.62 41.6027 131.412 41.1707 131.039 40.84C130.665 40.5093 130.191 40.344 129.615 40.344Z" fill="#216BE6"/>
<path d="M135.401 48.52V47H142.825V48.52H135.401ZM144.994 48.52V47H152.418V48.52H144.994ZM269.713 48.52V47H277.137V48.52H269.713ZM279.307 48.52V47H286.731V48.52H279.307Z" fill="black"/>
<path d="M157.276 47L153.836 39.064H155.756L158.3 45.208L160.86 39.064H162.764L159.308 47H157.276ZM167.174 47.192C166.544 47.192 166.016 47.0853 165.59 46.872C165.163 46.648 164.843 46.3547 164.63 45.992C164.416 45.6187 164.31 45.2133 164.31 44.776C164.31 43.9973 164.592 43.3893 165.158 42.952C165.734 42.5147 166.544 42.296 167.59 42.296H169.638V42.12C169.638 40.9253 169.083 40.328 167.974 40.328C167.515 40.328 167.126 40.4293 166.806 40.632C166.496 40.824 166.288 41.1387 166.182 41.576H164.486C164.571 40.744 164.928 40.088 165.558 39.608C166.198 39.1173 167.003 38.872 167.974 38.872C169.147 38.872 170 39.16 170.534 39.736C171.067 40.312 171.334 41.1067 171.334 42.12V47H169.894L169.75 45.832H169.638C169.403 46.2053 169.11 46.5253 168.758 46.792C168.406 47.0587 167.878 47.192 167.174 47.192ZM167.494 45.768C168.187 45.768 168.704 45.56 169.046 45.144C169.398 44.7173 169.59 44.1787 169.622 43.528H167.766C167.158 43.528 166.726 43.6293 166.47 43.832C166.224 44.024 166.102 44.296 166.102 44.648C166.102 45 166.224 45.2773 166.47 45.48C166.726 45.672 167.067 45.768 167.494 45.768ZM173.92 47V45.528H175.856V41.064C175.856 40.712 175.685 40.536 175.344 40.536H174.08V39.064H175.984C176.421 39.064 176.778 39.192 177.056 39.448C177.333 39.6933 177.472 40.04 177.472 40.488V40.68H177.552C177.669 40.0827 177.92 39.6347 178.304 39.336C178.698 39.0267 179.269 38.872 180.016 38.872H181.248V40.664H179.52C178.89 40.664 178.405 40.8827 178.064 41.32C177.722 41.7573 177.552 42.28 177.552 42.888V45.528H180.016V47H173.92ZM186.921 37.848C186.548 37.848 186.233 37.7307 185.977 37.496C185.732 37.2507 185.609 36.952 185.609 36.6C185.609 36.248 185.732 35.9547 185.977 35.72C186.233 35.4853 186.548 35.368 186.921 35.368C187.305 35.368 187.62 35.4853 187.865 35.72C188.121 35.9547 188.249 36.248 188.249 36.6C188.249 36.952 188.121 37.2507 187.865 37.496C187.62 37.7307 187.305 37.848 186.921 37.848ZM183.737 47V45.528H186.233V41.064C186.233 40.712 186.063 40.536 185.721 40.536H183.961V39.064H186.025C186.687 39.064 187.167 39.2187 187.465 39.528C187.775 39.8267 187.929 40.3067 187.929 40.968V45.528H190.425V47H183.737ZM195.955 47.192C195.326 47.192 194.798 47.0853 194.371 46.872C193.944 46.648 193.624 46.3547 193.411 45.992C193.198 45.6187 193.091 45.2133 193.091 44.776C193.091 43.9973 193.374 43.3893 193.939 42.952C194.515 42.5147 195.326 42.296 196.371 42.296H198.419V42.12C198.419 40.9253 197.864 40.328 196.755 40.328C196.296 40.328 195.907 40.4293 195.587 40.632C195.278 40.824 195.07 41.1387 194.963 41.576H193.267C193.352 40.744 193.71 40.088 194.339 39.608C194.979 39.1173 195.784 38.872 196.755 38.872C197.928 38.872 198.782 39.16 199.315 39.736C199.848 40.312 200.115 41.1067 200.115 42.12V47H198.675L198.531 45.832H198.419C198.184 46.2053 197.891 46.5253 197.539 46.792C197.187 47.0587 196.659 47.192 195.955 47.192ZM196.275 45.768C196.968 45.768 197.486 45.56 197.827 45.144C198.179 44.7173 198.371 44.1787 198.403 43.528H196.547C195.939 43.528 195.507 43.6293 195.251 43.832C195.006 44.024 194.883 44.296 194.883 44.648C194.883 45 195.006 45.2773 195.251 45.48C195.507 45.672 195.848 45.768 196.275 45.768ZM202.717 47V39.064H204.189L204.333 40.248H204.413C204.626 39.864 204.957 39.5387 205.405 39.272C205.853 39.0053 206.37 38.872 206.957 38.872C207.927 38.872 208.658 39.1653 209.149 39.752C209.639 40.3387 209.885 41.2027 209.885 42.344V47H208.189V42.552C208.189 41.8907 208.05 41.3787 207.773 41.016C207.495 40.6533 207.058 40.472 206.461 40.472C205.874 40.472 205.383 40.6693 204.989 41.064C204.605 41.4587 204.413 42.0293 204.413 42.776V47H202.717ZM216.727 47C215.948 47 215.329 46.8133 214.871 46.44C214.412 46.056 214.183 45.3787 214.183 44.408V40.504H212.183V39.064H213.367C213.911 39.064 214.231 38.7973 214.327 38.264L214.567 36.984H215.879V39.064H219.015V40.504H215.879V44.376C215.879 44.792 215.969 45.0853 216.151 45.256C216.343 45.416 216.668 45.496 217.127 45.496H218.983V47H216.727ZM221.744 48.52V47H229.168V48.52H221.744ZM231.498 47V39.064H232.97L233.114 40.248H233.194C233.407 39.864 233.738 39.5387 234.186 39.272C234.634 39.0053 235.151 38.872 235.738 38.872C236.709 38.872 237.439 39.1653 237.93 39.752C238.421 40.3387 238.666 41.2027 238.666 42.344V47H236.97V42.552C236.97 41.8907 236.831 41.3787 236.554 41.016C236.277 40.6533 235.839 40.472 235.242 40.472C234.655 40.472 234.165 40.6693 233.77 41.064C233.386 41.4587 233.194 42.0293 233.194 42.776V47H231.498ZM243.924 47.192C243.294 47.192 242.766 47.0853 242.34 46.872C241.913 46.648 241.593 46.3547 241.38 45.992C241.166 45.6187 241.06 45.2133 241.06 44.776C241.06 43.9973 241.342 43.3893 241.908 42.952C242.484 42.5147 243.294 42.296 244.34 42.296H246.388V42.12C246.388 40.9253 245.833 40.328 244.724 40.328C244.265 40.328 243.876 40.4293 243.556 40.632C243.246 40.824 243.038 41.1387 242.932 41.576H241.236C241.321 40.744 241.678 40.088 242.308 39.608C242.948 39.1173 243.753 38.872 244.724 38.872C245.897 38.872 246.75 39.16 247.284 39.736C247.817 40.312 248.084 41.1067 248.084 42.12V47H246.644L246.5 45.832H246.388C246.153 46.2053 245.86 46.5253 245.508 46.792C245.156 47.0587 244.628 47.192 243.924 47.192ZM244.244 45.768C244.937 45.768 245.454 45.56 245.796 45.144C246.148 44.7173 246.34 44.1787 246.372 43.528H244.516C243.908 43.528 243.476 43.6293 243.22 43.832C242.974 44.024 242.852 44.296 242.852 44.648C242.852 45 242.974 45.2773 243.22 45.48C243.476 45.672 243.817 45.768 244.244 45.768ZM249.838 47V39.064H251.246L251.39 39.992H251.47C251.608 39.6613 251.822 39.3947 252.11 39.192C252.398 38.9787 252.739 38.872 253.134 38.872C253.518 38.872 253.854 38.968 254.141 39.16C254.43 39.352 254.643 39.6293 254.782 39.992H254.846C254.984 39.672 255.203 39.4053 255.502 39.192C255.8 38.9787 256.168 38.872 256.606 38.872C257.192 38.872 257.635 39.064 257.934 39.448C258.243 39.832 258.398 40.3707 258.398 41.064V47H256.766V41.4C256.766 41.08 256.696 40.8293 256.558 40.648C256.43 40.456 256.222 40.36 255.934 40.36C255.646 40.36 255.406 40.472 255.214 40.696C255.032 40.92 254.942 41.2347 254.942 41.64V47H253.294V41.4C253.294 41.08 253.23 40.8293 253.102 40.648C252.974 40.456 252.766 40.36 252.478 40.36C252.19 40.36 251.95 40.472 251.758 40.696C251.566 40.92 251.47 41.2347 251.47 41.64V47H249.838ZM263.927 47.192C263.159 47.192 262.482 47.0213 261.895 46.68C261.309 46.328 260.85 45.8427 260.519 45.224C260.189 44.6053 260.023 43.8853 260.023 43.064C260.023 42.232 260.183 41.5013 260.503 40.872C260.834 40.2427 261.293 39.752 261.879 39.4C262.477 39.048 263.165 38.872 263.943 38.872C264.711 38.872 265.373 39.048 265.927 39.4C266.482 39.7413 266.909 40.2 267.207 40.776C267.517 41.352 267.671 41.9867 267.671 42.68C267.671 42.7867 267.671 42.904 267.671 43.032C267.671 43.1493 267.666 43.2827 267.655 43.432H261.687C261.741 44.168 261.981 44.728 262.407 45.112C262.834 45.4853 263.335 45.672 263.911 45.672C264.413 45.672 264.807 45.5707 265.095 45.368C265.394 45.1547 265.613 44.8667 265.751 44.504H267.463C267.271 45.2613 266.871 45.9013 266.263 46.424C265.655 46.936 264.877 47.192 263.927 47.192ZM263.927 40.344C263.405 40.344 262.941 40.504 262.535 40.824C262.13 41.1333 261.869 41.5707 261.751 42.136H265.975C265.933 41.6027 265.725 41.1707 265.351 40.84C264.978 40.5093 264.503 40.344 263.927 40.344Z" fill="#EC396A"/>
<path d="M288.917 50.52V39.064H290.389L290.517 40.28H290.613C290.826 39.8853 291.146 39.5547 291.573 39.288C292.01 39.0107 292.527 38.872 293.125 38.872C293.743 38.872 294.309 39.032 294.821 39.352C295.333 39.6613 295.738 40.1253 296.036 40.744C296.346 41.352 296.501 42.1147 296.501 43.032C296.501 43.9387 296.341 44.7013 296.021 45.32C295.711 45.9387 295.29 46.408 294.757 46.728C294.223 47.0373 293.626 47.192 292.965 47.192C292.378 47.192 291.887 47.0747 291.493 46.84C291.098 46.6053 290.805 46.3387 290.613 46.04V50.52H288.917ZM292.677 45.576C293.274 45.576 293.77 45.3627 294.165 44.936C294.57 44.5093 294.773 43.8693 294.773 43.016C294.773 42.1627 294.57 41.528 294.165 41.112C293.77 40.696 293.274 40.488 292.677 40.488C292.069 40.488 291.562 40.7013 291.157 41.128C290.762 41.544 290.565 42.1787 290.565 43.032C290.565 43.8747 290.762 44.5093 291.157 44.936C291.562 45.3627 292.069 45.576 292.677 45.576ZM298.638 47V45.528H300.574V41.064C300.574 40.712 300.404 40.536 300.062 40.536H298.798V39.064H300.702C301.14 39.064 301.497 39.192 301.774 39.448C302.052 39.6933 302.19 40.04 302.19 40.488V40.68H302.27C302.388 40.0827 302.638 39.6347 303.022 39.336C303.417 39.0267 303.988 38.872 304.734 38.872H305.966V40.664H304.238C303.609 40.664 303.124 40.8827 302.782 41.32C302.441 41.7573 302.27 42.28 302.27 42.888V45.528H304.734V47H298.638ZM311.8 47.192C311.043 47.192 310.365 47.0213 309.768 46.68C309.171 46.3387 308.701 45.8587 308.36 45.24C308.019 44.6107 307.848 43.8747 307.848 43.032C307.848 42.1893 308.019 41.4587 308.36 40.84C308.701 40.2107 309.171 39.7253 309.768 39.384C310.365 39.0427 311.048 38.872 311.816 38.872C312.584 38.872 313.261 39.0427 313.848 39.384C314.445 39.7253 314.909 40.2107 315.24 40.84C315.581 41.4587 315.752 42.1893 315.752 43.032C315.752 43.8747 315.581 44.6107 315.24 45.24C314.899 45.8587 314.429 46.3387 313.832 46.68C313.245 47.0213 312.568 47.192 311.8 47.192ZM311.8 45.576C312.205 45.576 312.579 45.4853 312.92 45.304C313.261 45.1227 313.533 44.8453 313.736 44.472C313.949 44.088 314.056 43.608 314.056 43.032C314.056 42.4453 313.949 41.9653 313.736 41.592C313.533 41.2187 313.261 40.9413 312.92 40.76C312.589 40.5787 312.221 40.488 311.816 40.488C311.411 40.488 311.037 40.5787 310.696 40.76C310.355 40.9413 310.077 41.2187 309.864 41.592C309.661 41.9653 309.56 42.4453 309.56 43.032C309.56 43.9067 309.779 44.552 310.216 44.968C310.664 45.3733 311.192 45.576 311.8 45.576ZM317.698 50.52V39.064H319.17L319.298 40.28H319.394C319.607 39.8853 319.927 39.5547 320.354 39.288C320.791 39.0107 321.308 38.872 321.906 38.872C322.524 38.872 323.09 39.032 323.602 39.352C324.114 39.6613 324.519 40.1253 324.818 40.744C325.127 41.352 325.282 42.1147 325.282 43.032C325.282 43.9387 325.122 44.7013 324.802 45.32C324.492 45.9387 324.071 46.408 323.538 46.728C323.004 47.0373 322.407 47.192 321.746 47.192C321.159 47.192 320.668 47.0747 320.274 46.84C319.879 46.6053 319.586 46.3387 319.394 46.04V50.52H317.698ZM321.458 45.576C322.055 45.576 322.551 45.3627 322.946 44.936C323.351 44.5093 323.554 43.8693 323.554 43.016C323.554 42.1627 323.351 41.528 322.946 41.112C322.551 40.696 322.055 40.488 321.458 40.488C320.85 40.488 320.343 40.7013 319.938 41.128C319.543 41.544 319.346 42.1787 319.346 43.032C319.346 43.8747 319.543 44.5093 319.938 44.936C320.343 45.3627 320.85 45.576 321.458 45.576ZM331.084 47.192C330.316 47.192 329.638 47.0213 329.052 46.68C328.465 46.328 328.006 45.8427 327.676 45.224C327.345 44.6053 327.18 43.8853 327.18 43.064C327.18 42.232 327.34 41.5013 327.66 40.872C327.99 40.2427 328.449 39.752 329.036 39.4C329.633 39.048 330.321 38.872 331.1 38.872C331.868 38.872 332.529 39.048 333.084 39.4C333.638 39.7413 334.065 40.2 334.364 40.776C334.673 41.352 334.828 41.9867 334.828 42.68C334.828 42.7867 334.828 42.904 334.828 43.032C334.828 43.1493 334.822 43.2827 334.812 43.432H328.844C328.897 44.168 329.137 44.728 329.564 45.112C329.99 45.4853 330.492 45.672 331.068 45.672C331.569 45.672 331.964 45.5707 332.252 45.368C332.55 45.1547 332.769 44.8667 332.908 44.504H334.62C334.428 45.2613 334.028 45.9013 333.42 46.424C332.812 46.936 332.033 47.192 331.084 47.192ZM331.084 40.344C330.561 40.344 330.097 40.504 329.692 40.824C329.286 41.1333 329.025 41.5707 328.908 42.136H333.132C333.089 41.6027 332.881 41.1707 332.508 40.84C332.134 40.5093 331.66 40.344 331.084 40.344ZM337.013 47V45.528H338.949V41.064C338.949 40.712 338.779 40.536 338.437 40.536H337.173V39.064H339.077C339.515 39.064 339.872 39.192 340.149 39.448C340.427 39.6933 340.565 40.04 340.565 40.488V40.68H340.645C340.763 40.0827 341.013 39.6347 341.397 39.336C341.792 39.0267 342.363 38.872 343.109 38.872H344.341V40.664H342.613C341.984 40.664 341.499 40.8827 341.157 41.32C340.816 41.7573 340.645 42.28 340.645 42.888V45.528H343.109V47H337.013ZM351.039 47C350.26 47 349.642 46.8133 349.183 46.44C348.724 46.056 348.495 45.3787 348.495 44.408V40.504H346.495V39.064H347.679C348.223 39.064 348.543 38.7973 348.639 38.264L348.879 36.984H350.191V39.064H353.327V40.504H350.191V44.376C350.191 44.792 350.282 45.0853 350.463 45.256C350.655 45.416 350.98 45.496 351.439 45.496H353.295V47H351.039ZM357.257 50.52L359.145 46.344H358.681L355.593 39.064H357.433L359.801 44.872L362.313 39.064H364.089L359.049 50.52H357.257ZM365.651 48.52V47H373.075V48.52H365.651ZM375.404 47V39.064H376.876L377.02 40.248H377.1C377.314 39.864 377.644 39.5387 378.092 39.272C378.54 39.0053 379.058 38.872 379.644 38.872C380.615 38.872 381.346 39.1653 381.836 39.752C382.327 40.3387 382.572 41.2027 382.572 42.344V47H380.876V42.552C380.876 41.8907 380.738 41.3787 380.46 41.016C380.183 40.6533 379.746 40.472 379.148 40.472C378.562 40.472 378.071 40.6693 377.676 41.064C377.292 41.4587 377.1 42.0293 377.1 42.776V47H375.404ZM387.83 47.192C387.201 47.192 386.673 47.0853 386.246 46.872C385.819 46.648 385.499 46.3547 385.286 45.992C385.073 45.6187 384.966 45.2133 384.966 44.776C384.966 43.9973 385.249 43.3893 385.814 42.952C386.39 42.5147 387.201 42.296 388.246 42.296H390.294V42.12C390.294 40.9253 389.739 40.328 388.63 40.328C388.171 40.328 387.782 40.4293 387.462 40.632C387.153 40.824 386.945 41.1387 386.838 41.576H385.142C385.227 40.744 385.585 40.088 386.214 39.608C386.854 39.1173 387.659 38.872 388.63 38.872C389.803 38.872 390.657 39.16 391.19 39.736C391.723 40.312 391.99 41.1067 391.99 42.12V47H390.55L390.406 45.832H390.294C390.059 46.2053 389.766 46.5253 389.414 46.792C389.062 47.0587 388.534 47.192 387.83 47.192ZM388.15 45.768C388.843 45.768 389.361 45.56 389.702 45.144C390.054 44.7173 390.246 44.1787 390.278 43.528H388.422C387.814 43.528 387.382 43.6293 387.126 43.832C386.881 44.024 386.758 44.296 386.758 44.648C386.758 45 386.881 45.2773 387.126 45.48C387.382 45.672 387.723 45.768 388.15 45.768ZM393.744 47V39.064H395.152L395.296 39.992H395.376C395.514 39.6613 395.728 39.3947 396.016 39.192C396.304 38.9787 396.645 38.872 397.04 38.872C397.424 38.872 397.76 38.968 398.048 39.16C398.336 39.352 398.549 39.6293 398.688 39.992H398.752C398.89 39.672 399.109 39.4053 399.408 39.192C399.706 38.9787 400.074 38.872 400.512 38.872C401.098 38.872 401.541 39.064 401.84 39.448C402.149 39.832 402.304 40.3707 402.304 41.064V47H400.672V41.4C400.672 41.08 400.602 40.8293 400.464 40.648C400.336 40.456 400.128 40.36 399.84 40.36C399.552 40.36 399.312 40.472 399.12 40.696C398.938 40.92 398.848 41.2347 398.848 41.64V47H397.2V41.4C397.2 41.08 397.136 40.8293 397.008 40.648C396.88 40.456 396.672 40.36 396.384 40.36C396.096 40.36 395.856 40.472 395.664 40.696C395.472 40.92 395.376 41.2347 395.376 41.64V47H393.744ZM407.834 47.192C407.066 47.192 406.388 47.0213 405.802 46.68C405.215 46.328 404.756 45.8427 404.426 45.224C404.095 44.6053 403.93 43.8853 403.93 43.064C403.93 42.232 404.09 41.5013 404.41 40.872C404.74 40.2427 405.199 39.752 405.786 39.4C406.383 39.048 407.071 38.872 407.85 38.872C408.618 38.872 409.279 39.048 409.834 39.4C410.388 39.7413 410.815 40.2 411.114 40.776C411.423 41.352 411.578 41.9867 411.578 42.68C411.578 42.7867 411.578 42.904 411.578 43.032C411.578 43.1493 411.572 43.2827 411.562 43.432H405.594C405.647 44.168 405.887 44.728 406.314 45.112C406.74 45.4853 407.242 45.672 407.818 45.672C408.319 45.672 408.714 45.5707 409.002 45.368C409.3 45.1547 409.519 44.8667 409.658 44.504H411.37C411.178 45.2613 410.778 45.9013 410.17 46.424C409.562 46.936 408.783 47.192 407.834 47.192ZM407.834 40.344C407.311 40.344 406.847 40.504 406.442 40.824C406.036 41.1333 405.775 41.5707 405.658 42.136H409.882C409.839 41.6027 409.631 41.1707 409.258 40.84C408.884 40.5093 408.41 40.344 407.834 40.344Z" fill="#49849E"/>
<path d="M4.912 79.192C4.176 79.192 3.51467 79.0213 2.928 78.68C2.352 78.3387 1.89867 77.8587 1.568 77.24C1.23733 76.6107 1.072 75.8747 1.072 75.032C1.072 74.1893 1.23733 73.4587 1.568 72.84C1.90933 72.2213 2.368 71.7413 2.944 71.4C3.52 71.048 4.176 70.872 4.912 70.872C5.92533 70.872 6.74133 71.128 7.36 71.64C7.98933 72.1413 8.38933 72.8347 8.56 73.72H6.784C6.67733 73.336 6.45867 73.032 6.128 72.808C5.808 72.584 5.39733 72.472 4.896 72.472C4.53333 72.472 4.18667 72.568 3.856 72.76C3.536 72.952 3.27467 73.24 3.072 73.624C2.88 73.9973 2.784 74.4667 2.784 75.032C2.784 75.5867 2.88 76.056 3.072 76.44C3.27467 76.824 3.536 77.1173 3.856 77.32C4.18667 77.512 4.53333 77.608 4.896 77.608C5.408 77.608 5.81867 77.496 6.128 77.272C6.43733 77.048 6.656 76.7387 6.784 76.344H8.56C8.34667 77.2187 7.93067 77.912 7.312 78.424C6.69333 78.936 5.89333 79.192 4.912 79.192ZM14.3938 79.192C13.6364 79.192 12.9591 79.0213 12.3618 78.68C11.7644 78.3387 11.2951 77.8587 10.9538 77.24C10.6124 76.6107 10.4418 75.8747 10.4418 75.032C10.4418 74.1893 10.6124 73.4587 10.9538 72.84C11.2951 72.2107 11.7644 71.7253 12.3618 71.384C12.9591 71.0427 13.6418 70.872 14.4098 70.872C15.1778 70.872 15.8551 71.0427 16.4418 71.384C17.0391 71.7253 17.5031 72.2107 17.8338 72.84C18.1751 73.4587 18.3458 74.1893 18.3458 75.032C18.3458 75.8747 18.1751 76.6107 17.8338 77.24C17.4924 77.8587 17.0231 78.3387 16.4258 78.68C15.8391 79.0213 15.1618 79.192 14.3938 79.192ZM14.3938 77.576C14.7991 77.576 15.1724 77.4853 15.5138 77.304C15.8551 77.1227 16.1271 76.8453 16.3298 76.472C16.5431 76.088 16.6498 75.608 16.6498 75.032C16.6498 74.4453 16.5431 73.9653 16.3298 73.592C16.1271 73.2187 15.8551 72.9413 15.5138 72.76C15.1831 72.5787 14.8151 72.488 14.4098 72.488C14.0044 72.488 13.6311 72.5787 13.2898 72.76C12.9484 72.9413 12.6711 73.2187 12.4578 73.592C12.2551 73.9653 12.1538 74.4453 12.1538 75.032C12.1538 75.9067 12.3724 76.552 12.8098 76.968C13.2578 77.3733 13.7858 77.576 14.3938 77.576ZM19.5875 79V71.064H20.9955L21.1395 71.992H21.2195C21.3582 71.6613 21.5715 71.3947 21.8595 71.192C22.1475 70.9787 22.4888 70.872 22.8835 70.872C23.2675 70.872 23.6035 70.968 23.8915 71.16C24.1795 71.352 24.3928 71.6293 24.5315 71.992H24.5955C24.7342 71.672 24.9528 71.4053 25.2515 71.192C25.5502 70.9787 25.9182 70.872 26.3555 70.872C26.9422 70.872 27.3848 71.064 27.6835 71.448C27.9928 71.832 28.1475 72.3707 28.1475 73.064V79H26.5155V73.4C26.5155 73.08 26.4462 72.8293 26.3075 72.648C26.1795 72.456 25.9715 72.36 25.6835 72.36C25.3955 72.36 25.1555 72.472 24.9635 72.696C24.7822 72.92 24.6915 73.2347 24.6915 73.64V79H23.0435V73.4C23.0435 73.08 22.9795 72.8293 22.8515 72.648C22.7235 72.456 22.5155 72.36 22.2275 72.36C21.9395 72.36 21.6995 72.472 21.5075 72.696C21.3155 72.92 21.2195 73.2347 21.2195 73.64V79H19.5875ZM29.8853 82.52V71.064H31.3573L31.4853 72.28H31.5813C31.7946 71.8853 32.1146 71.5547 32.5413 71.288C32.9786 71.0107 33.4959 70.872 34.0933 70.872C34.7119 70.872 35.2773 71.032 35.7893 71.352C36.3013 71.6613 36.7066 72.1253 37.0052 72.744C37.3146 73.352 37.4693 74.1147 37.4693 75.032C37.4693 75.9387 37.3093 76.7013 36.9893 77.32C36.6799 77.9387 36.2586 78.408 35.7253 78.728C35.1919 79.0373 34.5946 79.192 33.9333 79.192C33.3466 79.192 32.8559 79.0747 32.4613 78.84C32.0666 78.6053 31.7733 78.3387 31.5813 78.04V82.52H29.8853ZM33.6453 77.576C34.2426 77.576 34.7386 77.3627 35.1333 76.936C35.5386 76.5093 35.7413 75.8693 35.7413 75.016C35.7413 74.1627 35.5386 73.528 35.1333 73.112C34.7386 72.696 34.2426 72.488 33.6453 72.488C33.0373 72.488 32.5306 72.7013 32.1253 73.128C31.7306 73.544 31.5333 74.1787 31.5333 75.032C31.5333 75.8747 31.7306 76.5093 32.1253 76.936C32.5306 77.3627 33.0373 77.576 33.6453 77.576ZM43.175 79.192C42.4177 79.192 41.7403 79.0213 41.143 78.68C40.5457 78.3387 40.0763 77.8587 39.735 77.24C39.3937 76.6107 39.223 75.8747 39.223 75.032C39.223 74.1893 39.3937 73.4587 39.735 72.84C40.0763 72.2107 40.5457 71.7253 41.143 71.384C41.7403 71.0427 42.423 70.872 43.191 70.872C43.959 70.872 44.6363 71.0427 45.223 71.384C45.8203 71.7253 46.2843 72.2107 46.615 72.84C46.9563 73.4587 47.127 74.1893 47.127 75.032C47.127 75.8747 46.9563 76.6107 46.615 77.24C46.2737 77.8587 45.8043 78.3387 45.207 78.68C44.6203 79.0213 43.943 79.192 43.175 79.192ZM43.175 77.576C43.5803 77.576 43.9537 77.4853 44.295 77.304C44.6363 77.1227 44.9083 76.8453 45.111 76.472C45.3243 76.088 45.431 75.608 45.431 75.032C45.431 74.4453 45.3243 73.9653 45.111 73.592C44.9083 73.2187 44.6363 72.9413 44.295 72.76C43.9643 72.5787 43.5963 72.488 43.191 72.488C42.7857 72.488 42.4123 72.5787 42.071 72.76C41.7297 72.9413 41.4523 73.2187 41.239 73.592C41.0363 73.9653 40.935 74.4453 40.935 75.032C40.935 75.9067 41.1537 76.552 41.591 76.968C42.039 77.3733 42.567 77.576 43.175 77.576ZM49.2168 79V71.064H50.6888L50.8328 72.248H50.9128C51.1261 71.864 51.4568 71.5387 51.9048 71.272C52.3528 71.0053 52.8701 70.872 53.4568 70.872C54.4274 70.872 55.1581 71.1653 55.6488 71.752C56.1394 72.3387 56.3848 73.2027 56.3848 74.344V79H54.6888V74.552C54.6888 73.8907 54.5501 73.3787 54.2728 73.016C53.9954 72.6533 53.5581 72.472 52.9608 72.472C52.3741 72.472 51.8834 72.6693 51.4888 73.064C51.1048 73.4587 50.9128 74.0293 50.9128 74.776V79H49.2168ZM62.4585 79.192C61.6905 79.192 61.0132 79.0213 60.4265 78.68C59.8398 78.328 59.3812 77.8427 59.0505 77.224C58.7198 76.6053 58.5545 75.8853 58.5545 75.064C58.5545 74.232 58.7145 73.5013 59.0345 72.872C59.3652 72.2427 59.8238 71.752 60.4105 71.4C61.0078 71.048 61.6958 70.872 62.4745 70.872C63.2425 70.872 63.9038 71.048 64.4585 71.4C65.0132 71.7413 65.4398 72.2 65.7385 72.776C66.0478 73.352 66.2025 73.9867 66.2025 74.68C66.2025 74.7867 66.2025 74.904 66.2025 75.032C66.2025 75.1493 66.1972 75.2827 66.1865 75.432H60.2185C60.2718 76.168 60.5118 76.728 60.9385 77.112C61.3652 77.4853 61.8665 77.672 62.4425 77.672C62.9438 77.672 63.3385 77.5707 63.6265 77.368C63.9252 77.1547 64.1438 76.8667 64.2825 76.504H65.9945C65.8025 77.2613 65.4025 77.9013 64.7945 78.424C64.1865 78.936 63.4078 79.192 62.4585 79.192ZM62.4585 72.344C61.9358 72.344 61.4718 72.504 61.0665 72.824C60.6612 73.1333 60.3998 73.5707 60.2825 74.136H64.5065C64.4638 73.6027 64.2558 73.1707 63.8825 72.84C63.5092 72.5093 63.0345 72.344 62.4585 72.344ZM68.4043 79V71.064H69.8763L70.0203 72.248H70.1003C70.3136 71.864 70.6443 71.5387 71.0923 71.272C71.5403 71.0053 72.0576 70.872 72.6443 70.872C73.6149 70.872 74.3456 71.1653 74.8363 71.752C75.3269 72.3387 75.5723 73.2027 75.5723 74.344V79H73.8763V74.552C73.8763 73.8907 73.7376 73.3787 73.4603 73.016C73.1829 72.6533 72.7456 72.472 72.1483 72.472C71.5616 72.472 71.0709 72.6693 70.6763 73.064C70.2923 73.4587 70.1003 74.0293 70.1003 74.776V79H68.4043ZM82.414 79C81.6353 79 81.0167 78.8133 80.558 78.44C80.0993 78.056 79.87 77.3787 79.87 76.408V72.504H77.87V71.064H79.054C79.598 71.064 79.918 70.7973 80.014 70.264L80.254 68.984H81.566V71.064H84.702V72.504H81.566V76.376C81.566 76.792 81.6567 77.0853 81.838 77.256C82.03 77.416 82.3553 77.496 82.814 77.496H84.67V79H82.414ZM87.4318 80.52V79H94.8558V80.52H87.4318ZM97.1855 79V71.064H98.6575L98.8015 72.248H98.8815C99.0948 71.864 99.4255 71.5387 99.8735 71.272C100.322 71.0053 100.839 70.872 101.426 70.872C102.396 70.872 103.127 71.1653 103.618 71.752C104.108 72.3387 104.354 73.2027 104.354 74.344V79H102.658V74.552C102.658 73.8907 102.519 73.3787 102.242 73.016C101.964 72.6533 101.527 72.472 100.93 72.472C100.343 72.472 99.8522 72.6693 99.4575 73.064C99.0735 73.4587 98.8815 74.0293 98.8815 74.776V79H97.1855ZM109.611 79.192C108.982 79.192 108.454 79.0853 108.027 78.872C107.601 78.648 107.281 78.3547 107.067 77.992C106.854 77.6187 106.747 77.2133 106.747 76.776C106.747 75.9973 107.03 75.3893 107.595 74.952C108.171 74.5147 108.982 74.296 110.027 74.296H112.075V74.12C112.075 72.9253 111.521 72.328 110.411 72.328C109.953 72.328 109.563 72.4293 109.243 72.632C108.934 72.824 108.726 73.1387 108.619 73.576H106.923C107.009 72.744 107.366 72.088 107.995 71.608C108.635 71.1173 109.441 70.872 110.411 70.872C111.585 70.872 112.438 71.16 112.971 71.736C113.505 72.312 113.771 73.1067 113.771 74.12V79H112.331L112.187 77.832H112.075C111.841 78.2053 111.547 78.5253 111.195 78.792C110.843 79.0587 110.315 79.192 109.611 79.192ZM109.931 77.768C110.625 77.768 111.142 77.56 111.483 77.144C111.835 76.7173 112.027 76.1787 112.059 75.528H110.203C109.595 75.528 109.163 75.6293 108.907 75.832C108.662 76.024 108.539 76.296 108.539 76.648C108.539 77 108.662 77.2773 108.907 77.48C109.163 77.672 109.505 77.768 109.931 77.768ZM115.525 79V71.064H116.933L117.077 71.992H117.157C117.296 71.6613 117.509 71.3947 117.797 71.192C118.085 70.9787 118.426 70.872 118.821 70.872C119.205 70.872 119.541 70.968 119.829 71.16C120.117 71.352 120.33 71.6293 120.469 71.992H120.533C120.672 71.672 120.89 71.4053 121.189 71.192C121.488 70.9787 121.856 70.872 122.293 70.872C122.88 70.872 123.322 71.064 123.621 71.448C123.93 71.832 124.085 72.3707 124.085 73.064V79H122.453V73.4C122.453 73.08 122.384 72.8293 122.245 72.648C122.117 72.456 121.909 72.36 121.621 72.36C121.333 72.36 121.093 72.472 120.901 72.696C120.72 72.92 120.629 73.2347 120.629 73.64V79H118.981V73.4C118.981 73.08 118.917 72.8293 118.789 72.648C118.661 72.456 118.453 72.36 118.165 72.36C117.877 72.36 117.637 72.472 117.445 72.696C117.253 72.92 117.157 73.2347 117.157 73.64V79H115.525ZM129.615 79.192C128.847 79.192 128.169 79.0213 127.583 78.68C126.996 78.328 126.537 77.8427 126.207 77.224C125.876 76.6053 125.711 75.8853 125.711 75.064C125.711 74.232 125.871 73.5013 126.191 72.872C126.521 72.2427 126.98 71.752 127.567 71.4C128.164 71.048 128.852 70.872 129.631 70.872C130.399 70.872 131.06 71.048 131.615 71.4C132.169 71.7413 132.596 72.2 132.895 72.776C133.204 73.352 133.359 73.9867 133.359 74.68C133.359 74.7867 133.359 74.904 133.359 75.032C133.359 75.1493 133.353 75.2827 133.343 75.432H127.375C127.428 76.168 127.668 76.728 128.095 77.112C128.521 77.4853 129.023 77.672 129.599 77.672C130.1 77.672 130.495 77.5707 130.783 77.368C131.081 77.1547 131.3 76.8667 131.439 76.504H133.151C132.959 77.2613 132.559 77.9013 131.951 78.424C131.343 78.936 130.564 79.192 129.615 79.192ZM129.615 72.344C129.092 72.344 128.628 72.504 128.223 72.824C127.817 73.1333 127.556 73.5707 127.439 74.136H131.663C131.62 73.6027 131.412 73.1707 131.039 72.84C130.665 72.5093 130.191 72.344 129.615 72.344Z" fill="#216BE6"/>
<path d="M135.401 80.52V79H142.825V80.52H135.401ZM144.994 80.52V79H152.418V80.52H144.994Z" fill="black"/>
<path d="M154.604 82.52V71.064H156.076L156.204 72.28H156.3C156.513 71.8853 156.833 71.5547 157.26 71.288C157.697 71.0107 158.215 70.872 158.812 70.872C159.431 70.872 159.996 71.032 160.508 71.352C161.02 71.6613 161.425 72.1253 161.724 72.744C162.033 73.352 162.188 74.1147 162.188 75.032C162.188 75.9387 162.028 76.7013 161.708 77.32C161.399 77.9387 160.977 78.408 160.444 78.728C159.911 79.0373 159.313 79.192 158.652 79.192C158.065 79.192 157.575 79.0747 157.18 78.84C156.785 78.6053 156.492 78.3387 156.3 78.04V82.52H154.604ZM158.364 77.576C158.961 77.576 159.457 77.3627 159.852 76.936C160.257 76.5093 160.46 75.8693 160.46 75.016C160.46 74.1627 160.257 73.528 159.852 73.112C159.457 72.696 158.961 72.488 158.364 72.488C157.756 72.488 157.249 72.7013 156.844 73.128C156.449 73.544 156.252 74.1787 156.252 75.032C156.252 75.8747 156.449 76.5093 156.844 76.936C157.249 77.3627 157.756 77.576 158.364 77.576ZM164.326 79V77.528H166.262V73.064C166.262 72.712 166.091 72.536 165.75 72.536H164.486V71.064H166.39C166.827 71.064 167.184 71.192 167.462 71.448C167.739 71.6933 167.878 72.04 167.878 72.488V72.68H167.958C168.075 72.0827 168.326 71.6347 168.71 71.336C169.104 71.0267 169.675 70.872 170.422 70.872H171.654V72.664H169.926C169.296 72.664 168.811 72.8827 168.47 73.32C168.128 73.7573 167.958 74.28 167.958 74.888V77.528H170.422V79H164.326ZM177.488 79.192C176.73 79.192 176.053 79.0213 175.456 78.68C174.858 78.3387 174.389 77.8587 174.048 77.24C173.706 76.6107 173.536 75.8747 173.536 75.032C173.536 74.1893 173.706 73.4587 174.048 72.84C174.389 72.2107 174.858 71.7253 175.456 71.384C176.053 71.0427 176.736 70.872 177.504 70.872C178.272 70.872 178.949 71.0427 179.536 71.384C180.133 71.7253 180.597 72.2107 180.928 72.84C181.269 73.4587 181.44 74.1893 181.44 75.032C181.44 75.8747 181.269 76.6107 180.928 77.24C180.586 77.8587 180.117 78.3387 179.52 78.68C178.933 79.0213 178.256 79.192 177.488 79.192ZM177.488 77.576C177.893 77.576 178.266 77.4853 178.608 77.304C178.949 77.1227 179.221 76.8453 179.424 76.472C179.637 76.088 179.744 75.608 179.744 75.032C179.744 74.4453 179.637 73.9653 179.424 73.592C179.221 73.2187 178.949 72.9413 178.608 72.76C178.277 72.5787 177.909 72.488 177.504 72.488C177.098 72.488 176.725 72.5787 176.384 72.76C176.042 72.9413 175.765 73.2187 175.552 73.592C175.349 73.9653 175.248 74.4453 175.248 75.032C175.248 75.9067 175.466 76.552 175.904 76.968C176.352 77.3733 176.88 77.576 177.488 77.576ZM183.385 82.52V71.064H184.857L184.985 72.28H185.081C185.295 71.8853 185.615 71.5547 186.041 71.288C186.479 71.0107 186.996 70.872 187.593 70.872C188.212 70.872 188.777 71.032 189.289 71.352C189.801 71.6613 190.207 72.1253 190.505 72.744C190.815 73.352 190.969 74.1147 190.969 75.032C190.969 75.9387 190.809 76.7013 190.489 77.32C190.18 77.9387 189.759 78.408 189.225 78.728C188.692 79.0373 188.095 79.192 187.433 79.192C186.847 79.192 186.356 79.0747 185.961 78.84C185.567 78.6053 185.273 78.3387 185.081 78.04V82.52H183.385ZM187.145 77.576C187.743 77.576 188.239 77.3627 188.633 76.936C189.039 76.5093 189.241 75.8693 189.241 75.016C189.241 74.1627 189.039 73.528 188.633 73.112C188.239 72.696 187.743 72.488 187.145 72.488C186.537 72.488 186.031 72.7013 185.625 73.128C185.231 73.544 185.033 74.1787 185.033 75.032C185.033 75.8747 185.231 76.5093 185.625 76.936C186.031 77.3627 186.537 77.576 187.145 77.576ZM196.771 79.192C196.003 79.192 195.326 79.0213 194.739 78.68C194.152 78.328 193.694 77.8427 193.363 77.224C193.032 76.6053 192.867 75.8853 192.867 75.064C192.867 74.232 193.027 73.5013 193.347 72.872C193.678 72.2427 194.136 71.752 194.723 71.4C195.32 71.048 196.008 70.872 196.787 70.872C197.555 70.872 198.216 71.048 198.771 71.4C199.326 71.7413 199.752 72.2 200.051 72.776C200.36 73.352 200.515 73.9867 200.515 74.68C200.515 74.7867 200.515 74.904 200.515 75.032C200.515 75.1493 200.51 75.2827 200.499 75.432H194.531C194.584 76.168 194.824 76.728 195.251 77.112C195.678 77.4853 196.179 77.672 196.755 77.672C197.256 77.672 197.651 77.5707 197.939 77.368C198.238 77.1547 198.456 76.8667 198.595 76.504H200.307C200.115 77.2613 199.715 77.9013 199.107 78.424C198.499 78.936 197.72 79.192 196.771 79.192ZM196.771 72.344C196.248 72.344 195.784 72.504 195.379 72.824C194.974 73.1333 194.712 73.5707 194.595 74.136H198.819C198.776 73.6027 198.568 73.1707 198.195 72.84C197.822 72.5093 197.347 72.344 196.771 72.344ZM202.701 79V77.528H204.637V73.064C204.637 72.712 204.466 72.536 204.125 72.536H202.861V71.064H204.765C205.202 71.064 205.559 71.192 205.837 71.448C206.114 71.6933 206.253 72.04 206.253 72.488V72.68H206.333C206.45 72.0827 206.701 71.6347 207.085 71.336C207.479 71.0267 208.05 70.872 208.797 70.872H210.029V72.664H208.301C207.671 72.664 207.186 72.8827 206.845 73.32C206.503 73.7573 206.333 74.28 206.333 74.888V77.528H208.797V79H202.701ZM216.727 79C215.948 79 215.329 78.8133 214.871 78.44C214.412 78.056 214.183 77.3787 214.183 76.408V72.504H212.183V71.064H213.367C213.911 71.064 214.231 70.7973 214.327 70.264L214.567 68.984H215.879V71.064H219.015V72.504H215.879V76.376C215.879 76.792 215.969 77.0853 216.151 77.256C216.343 77.416 216.668 77.496 217.127 77.496H218.983V79H216.727ZM222.944 82.52L224.832 78.344H224.368L221.28 71.064H223.12L225.488 76.872L228 71.064H229.776L224.736 82.52H222.944ZM231.338 80.52V79H238.762V80.52H231.338ZM241.092 79V71.064H242.564L242.708 72.248H242.788C243.001 71.864 243.332 71.5387 243.78 71.272C244.228 71.0053 244.745 70.872 245.332 70.872C246.302 70.872 247.033 71.1653 247.524 71.752C248.014 72.3387 248.26 73.2027 248.26 74.344V79H246.564V74.552C246.564 73.8907 246.425 73.3787 246.148 73.016C245.87 72.6533 245.433 72.472 244.836 72.472C244.249 72.472 243.758 72.6693 243.364 73.064C242.98 73.4587 242.788 74.0293 242.788 74.776V79H241.092ZM253.518 79.192C252.888 79.192 252.36 79.0853 251.934 78.872C251.507 78.648 251.187 78.3547 250.974 77.992C250.76 77.6187 250.654 77.2133 250.654 76.776C250.654 75.9973 250.936 75.3893 251.502 74.952C252.078 74.5147 252.888 74.296 253.934 74.296H255.982V74.12C255.982 72.9253 255.427 72.328 254.318 72.328C253.859 72.328 253.47 72.4293 253.15 72.632C252.84 72.824 252.632 73.1387 252.526 73.576H250.83C250.915 72.744 251.272 72.088 251.902 71.608C252.542 71.1173 253.347 70.872 254.318 70.872C255.491 70.872 256.344 71.16 256.878 71.736C257.411 72.312 257.678 73.1067 257.678 74.12V79H256.238L256.094 77.832H255.982C255.747 78.2053 255.454 78.5253 255.102 78.792C254.75 79.0587 254.222 79.192 253.518 79.192ZM253.838 77.768C254.531 77.768 255.048 77.56 255.39 77.144C255.742 76.7173 255.934 76.1787 255.966 75.528H254.11C253.502 75.528 253.07 75.6293 252.814 75.832C252.568 76.024 252.446 76.296 252.446 76.648C252.446 77 252.568 77.2773 252.814 77.48C253.07 77.672 253.411 77.768 253.838 77.768ZM259.431 79V71.064H260.839L260.983 71.992H261.063C261.202 71.6613 261.415 71.3947 261.703 71.192C261.991 70.9787 262.333 70.872 262.727 70.872C263.111 70.872 263.447 70.968 263.735 71.16C264.023 71.352 264.237 71.6293 264.375 71.992H264.439C264.578 71.672 264.797 71.4053 265.095 71.192C265.394 70.9787 265.762 70.872 266.199 70.872C266.786 70.872 267.229 71.064 267.527 71.448C267.837 71.832 267.991 72.3707 267.991 73.064V79H266.359V73.4C266.359 73.08 266.29 72.8293 266.151 72.648C266.023 72.456 265.815 72.36 265.527 72.36C265.239 72.36 264.999 72.472 264.807 72.696C264.626 72.92 264.535 73.2347 264.535 73.64V79H262.887V73.4C262.887 73.08 262.823 72.8293 262.695 72.648C262.567 72.456 262.359 72.36 262.071 72.36C261.783 72.36 261.543 72.472 261.351 72.696C261.159 72.92 261.063 73.2347 261.063 73.64V79H259.431ZM273.521 79.192C272.753 79.192 272.076 79.0213 271.489 78.68C270.902 78.328 270.444 77.8427 270.113 77.224C269.782 76.6053 269.617 75.8853 269.617 75.064C269.617 74.232 269.777 73.5013 270.097 72.872C270.428 72.2427 270.886 71.752 271.473 71.4C272.07 71.048 272.758 70.872 273.537 70.872C274.305 70.872 274.966 71.048 275.521 71.4C276.076 71.7413 276.502 72.2 276.801 72.776C277.11 73.352 277.265 73.9867 277.265 74.68C277.265 74.7867 277.265 74.904 277.265 75.032C277.265 75.1493 277.26 75.2827 277.249 75.432H271.281C271.334 76.168 271.574 76.728 272.001 77.112C272.428 77.4853 272.929 77.672 273.505 77.672C274.006 77.672 274.401 77.5707 274.689 77.368C274.988 77.1547 275.206 76.8667 275.345 76.504H277.057C276.865 77.2613 276.465 77.9013 275.857 78.424C275.249 78.936 274.47 79.192 273.521 79.192ZM273.521 72.344C272.998 72.344 272.534 72.504 272.129 72.824C271.724 73.1333 271.462 73.5707 271.345 74.136H275.569C275.526 73.6027 275.318 73.1707 274.945 72.84C274.572 72.5093 274.097 72.344 273.521 72.344Z" fill="#49849E"/>
</svg>
