<svg width="979" height="807" viewBox="0 0 979 807" fill="none" xmlns="http://www.w3.org/2000/svg">
<path d="M138.155 586.825L45.2656 589.945L59.5669 631.807C69.2295 659.036 88.7204 675.819 114.423 680.551C123.694 681.938 131.047 681.486 137.829 680.318C131.379 682.415 120.343 687.061 116.128 695.217C110.023 707.056 109.638 715.949 110.255 734.69L114.051 766.624C114.051 766.624 180.362 738.851 180.216 737.039C189.925 730.993 202.029 722.247 209.734 711.376C215.528 703.214 218.839 693.836 216.789 683.497C229.935 668.658 228.084 660.721 211.227 659.679C209.635 659.586 207.975 659.573 206.263 659.646C205.991 655.054 205.633 649.599 205.208 643.281C202.779 626.146 194.351 610.557 181.775 599.972C171.203 591.073 158.422 586.308 145.494 586.308C143.045 586.308 140.597 586.48 138.155 586.825Z" fill="url(#paint0_linear_903_12456)"/>
<path d="M185.385 669.667C154.48 678.4 149.795 689.543 146.45 702.762C143.092 715.975 148.063 749.17 150.472 758.999C150.472 758.999 190.548 749.097 220.777 728.153C239.06 711.868 235.496 704.568 234.713 680.345C232.941 657.363 230.566 640.898 227.592 630.964C230.42 644.84 216.344 657.742 185.385 669.667Z" fill="url(#paint1_linear_903_12456)"/>
<path d="M97.7657 618.939C106.008 654.477 122.181 669.714 151.872 672.906C159.092 675.6 211.964 672.833 233.253 703.977C235.105 703.214 233.95 682.024 229.809 640.415C224.885 619.165 222.609 605.448 210.723 593.091C198.837 580.727 173.918 573.587 158.628 571.198L88.9592 562.278L97.7657 618.939Z" fill="url(#paint2_linear_903_12456)"/>
<path d="M183.481 670.251C180.886 670.961 178.862 671.691 178.231 671.897C174.853 673.025 171.495 674.392 170.095 675.096C204.113 681.141 225.814 690.963 235.198 704.568C235.901 703.075 235.151 690.831 234.979 684.884C233.22 659.255 230.652 641.204 227.5 630.679C228.747 644.715 217.087 658.22 183.481 670.251Z" fill="#FFB511"/>
<path fill-rule="evenodd" clip-rule="evenodd" d="M115.124 158.694C135.913 158.694 152.766 175.547 152.766 196.336V196.432C152.766 217.222 135.913 234.075 115.124 234.075H59.6122C57.5386 234.075 55.5041 233.907 53.5216 233.585L42.7668 243.973C42.4743 244.255 42.0837 244.413 41.6771 244.413C40.8109 244.413 40.1087 243.711 40.1087 242.845L40.108 228.634C29.2343 222.034 21.9697 210.082 21.9697 196.432V196.336C21.9697 175.547 38.8228 158.694 59.6122 158.694H115.124Z" fill="#253368"/>
<path d="M105.993 68.5088H185.255C214.954 68.5088 239.03 92.5847 239.03 122.284C239.03 151.983 214.954 176.059 185.255 176.059H105.993C76.2941 176.059 52.2182 151.983 52.2182 122.284C52.2182 92.5847 76.2941 68.5088 105.993 68.5088Z" fill="#597EF7"/>
<path fill-rule="evenodd" clip-rule="evenodd" d="M213.123 160.417V188.568C213.123 189.806 212.12 190.809 210.882 190.809C210.302 190.809 209.744 190.584 209.327 190.181L188.639 170.22L213.123 160.417Z" fill="#597EF7"/>
<path d="M181.614 129.006C176.819 129.006 172.932 125.118 172.932 120.323C172.932 115.528 176.819 111.641 181.614 111.641C186.409 111.641 190.297 115.528 190.297 120.323C190.297 125.118 186.409 129.006 181.614 129.006Z" fill="white"/>
<path d="M146.044 129.006C141.249 129.006 137.362 125.118 137.362 120.323C137.362 115.528 141.249 111.641 146.044 111.641C150.84 111.641 154.727 115.528 154.727 120.323C154.727 125.118 150.84 129.006 146.044 129.006Z" fill="white"/>
<path d="M109.634 129.006C104.839 129.006 100.952 125.118 100.952 120.323C100.952 115.528 104.839 111.641 109.634 111.641C114.429 111.641 118.317 115.528 118.317 120.323C118.317 125.118 114.429 129.006 109.634 129.006Z" fill="white"/>
<g clip-path="url(#clip0_903_12456)">
<path fill-rule="evenodd" clip-rule="evenodd" d="M500.975 226.652C500.975 226.652 538.292 224.486 544.671 264.281C579.261 280.347 566.162 318.467 566.162 318.467C566.162 318.467 581.459 350.615 544.476 363.22C538.923 394.328 503.781 385.556 503.781 385.556C503.781 385.556 493.143 409.048 466.921 396.735C435.744 416.939 381.074 407.63 363.92 378.16C322.655 403.757 258.244 362.616 268.988 336.929C223.946 330.282 206.136 280.368 236.187 241.863C218.59 207.84 243.463 190.802 243.463 190.802C243.463 190.802 243.439 116.135 295.609 110.583C325.416 72.951 379.663 109.938 379.663 109.938C379.663 109.938 418.106 105.354 428.818 139.305C470.461 149.438 466.482 172.463 468.047 192.224C505.631 197.618 500.975 226.652 500.975 226.652Z" fill="#7D4556"/>
<path fill-rule="evenodd" clip-rule="evenodd" d="M386.989 180.364C356.949 183.008 349.886 159.838 349.886 159.838C349.886 159.838 340.399 127.25 335.599 146.341C333.051 156.483 318.321 141.462 310.063 151.8C304.504 158.757 315.986 169.332 298.296 187.633C288.05 198.236 323.815 210.487 299.45 229.557C299.45 229.557 313.27 256.597 285.012 262.588L279.497 292.416C276.29 309.776 288.761 326.117 306.351 327.607C323.121 329.025 337.755 316.314 338.692 299.506L340.739 262.733C383.497 266.42 390.653 207.833 386.989 180.364Z" fill="#FFC999"/>
<path fill-rule="evenodd" clip-rule="evenodd" d="M355.45 218.861C343.079 218.992 332.249 211.771 332.249 211.771C332.249 211.771 329.025 227.885 339.339 229.818C349.355 231.696 355.45 218.861 355.45 218.861Z" fill="white"/>
<path d="M330.478 211.416L330.358 212.106C330.313 212.392 330.265 212.734 330.218 213.125C329.896 215.76 329.847 218.529 330.25 221.162C331.104 226.736 333.86 230.628 339.007 231.593C344.388 232.602 349.107 230.162 353.063 225.619C354.197 224.317 355.186 222.928 356.029 221.539C356.539 220.7 356.891 220.037 357.081 219.636C357.654 218.43 356.766 217.041 355.431 217.055C350.255 217.11 344.939 215.829 339.8 213.654C338.032 212.905 336.414 212.103 334.984 211.303L334.321 210.924C333.823 210.634 333.462 210.408 333.251 210.268C332.181 209.555 330.73 210.156 330.478 211.416ZM333.637 215.332L333.686 214.708L333.22 214.455C334.761 215.317 336.496 216.177 338.392 216.98L339.437 217.41C343.247 218.932 347.152 219.993 351.067 220.437L352.371 220.559L351.989 221.128C351.483 221.853 350.932 222.566 350.339 223.247C347.138 226.923 343.561 228.772 339.672 228.043C336.292 227.409 334.466 224.831 333.82 220.615C333.561 218.921 333.521 217.114 333.637 215.332Z" fill="#F5222D"/>
<path d="M346.492 210.196C347.089 210.184 348.076 210.055 349.462 209.713C351.585 209.188 354.074 208.286 356.935 206.926L357.442 206.68L357.018 205.886C355.07 202.143 353.745 198.492 352.948 194.998L352.744 194.049C352.197 191.351 352.023 189.083 352.075 187.343L352.119 186.535C352.123 186.497 352.126 186.464 352.129 186.438C352.212 185.694 352.883 185.159 353.626 185.243C354.295 185.318 354.795 185.869 354.828 186.52L354.802 186.995C354.71 188.567 354.846 190.781 355.399 193.512C356.235 197.64 357.868 202.037 360.489 206.583C360.875 207.253 360.623 208.11 359.934 208.464C356.14 210.413 352.869 211.662 350.111 212.343C348.515 212.737 347.31 212.893 346.491 212.905L346.125 212.9C345.378 212.853 344.811 212.21 344.857 211.464C344.899 210.792 345.424 210.265 346.073 210.2L346.289 210.194L346.492 210.196Z" fill="#DD936F"/>
<path d="M325.89 175.548C331.416 176.028 334.939 182.923 334.266 190.724C334.183 191.682 333.34 192.391 332.382 192.309C331.424 192.226 330.715 191.382 330.797 190.424C331.326 184.297 328.77 179.293 325.592 179.017C322.418 178.746 319.044 183.238 318.513 189.365C318.429 190.323 317.586 191.032 316.628 190.949C315.67 190.866 314.961 190.022 315.044 189.064C315.704 181.46 320.138 175.388 325.478 175.525L325.89 175.548Z" fill="#253368"/>
<path d="M372.658 183.861C378.182 184.336 381.705 191.232 381.032 199.033C380.949 199.991 380.106 200.7 379.148 200.618C378.19 200.535 377.48 199.692 377.563 198.734C378.092 192.607 375.536 187.603 372.36 187.33C369.183 187.057 365.811 191.546 365.282 197.673C365.199 198.631 364.356 199.341 363.398 199.258C362.44 199.175 361.731 198.332 361.813 197.374C362.469 189.769 366.905 183.696 372.246 183.838L372.658 183.861Z" fill="#253368"/>
<path d="M312.724 159.223C320.971 155.01 328.834 154.856 335.616 157.141C337.232 157.686 338.403 158.241 339.069 158.638C339.938 159.156 340.223 160.281 339.705 161.15C339.187 162.019 338.062 162.303 337.193 161.785L337.022 161.69C336.905 161.629 336.744 161.547 336.538 161.45C335.942 161.167 335.242 160.881 334.446 160.613C328.541 158.623 321.688 158.757 314.39 162.485C313.489 162.945 312.386 162.588 311.926 161.687C311.465 160.786 311.823 159.683 312.724 159.223Z" fill="#253368"/>
<path d="M313.984 253.091C314.396 252.467 315.237 252.296 315.861 252.709C323.766 257.94 332.173 260.95 340.797 261.813C341.542 261.888 342.085 262.551 342.01 263.296C341.936 264.04 341.272 264.583 340.528 264.509C331.464 263.602 322.637 260.441 314.366 254.969C313.742 254.556 313.571 253.715 313.984 253.091Z" fill="#DD936F"/>
<path fill-rule="evenodd" clip-rule="evenodd" d="M489.93 548.272L492.169 547.042C508.897 537.847 515.006 516.837 505.814 500.112L420.664 345.178C411.469 328.449 390.459 322.344 373.734 331.536L371.495 332.765C354.77 341.961 348.662 362.967 357.854 379.696L443.003 534.63C452.198 551.355 473.205 557.463 489.93 548.272Z" fill="#FFC999"/>
<path fill-rule="evenodd" clip-rule="evenodd" d="M393.86 445.209L357.254 378.604C348.434 362.548 355.342 341.645 372.616 332.151C389.891 322.66 411.241 328.03 420.065 344.086L456.32 410.059L393.86 445.209Z" fill="#08979C"/>
<path d="M371.202 331.727C371.711 331.447 372.351 331.633 372.631 332.142C372.911 332.651 372.725 333.291 372.216 333.571C355.672 342.666 348.922 362.505 356.922 377.946L357.269 378.595L393.361 444.267L454.897 409.64C455.347 409.387 455.904 409.5 456.223 409.885L456.33 410.041C456.584 410.491 456.47 411.049 456.086 411.367L455.929 411.475L393.469 446.624C393.015 446.879 392.454 446.762 392.137 446.373L392.03 446.214L355.425 379.609C346.312 363.029 353.435 341.493 371.202 331.727Z" fill="#C44343"/>
<path fill-rule="evenodd" clip-rule="evenodd" d="M427.294 1061.48C441.351 1066.89 457.211 1060.11 463.223 1046.13L591.866 747.181C601.133 725.642 590.819 700.786 569.16 692.46C547.504 684.137 523.194 695.68 515.647 717.878L410.898 1026.02C406.002 1040.42 413.237 1056.08 427.294 1061.48Z" fill="#FFC999"/>
<path fill-rule="evenodd" clip-rule="evenodd" d="M238.513 683.112C247.561 655.794 272.612 639.722 293.99 647.519L523.831 731.375C541.535 737.833 549.686 761.044 542.194 783.665C534.709 806.289 514.31 820.047 496.252 814.663L261.786 744.779C239.979 738.28 229.469 710.43 238.513 683.112Z" fill="#FFC999"/>
<path fill-rule="evenodd" clip-rule="evenodd" d="M763.062 1065.46C777.074 1059.95 784.185 1044.24 779.172 1029.87L671.945 722.584C664.222 700.448 639.82 689.097 618.229 697.598C596.639 706.096 586.527 731.038 595.966 752.498L727.013 1050.41C733.138 1064.33 749.053 1070.98 763.062 1065.46Z" fill="#FFC999"/>
<path fill-rule="evenodd" clip-rule="evenodd" d="M362.397 708.049C365.512 679.441 386.635 658.468 409.173 661.61L651.492 695.372C670.157 697.972 682.995 718.958 680.42 742.646C677.842 766.338 660.787 784.069 642.002 782.596L398.093 763.461C375.404 761.679 359.287 736.658 362.397 708.049Z" fill="#FFC999"/>
<path fill-rule="evenodd" clip-rule="evenodd" d="M401.539 372.536C407.987 388.623 420.028 416.352 420.815 434.324C422.089 463.454 402.15 484.108 402.15 484.108C402.15 484.108 402.5 490.199 405.724 550.784C318.49 561.714 255.549 553.363 255.549 553.363L257.935 522.876L246.199 475.108C246.199 475.108 245.386 456.701 229.773 416.727C218.913 388.935 223.369 356.361 225.907 338.417C226.988 330.729 220.351 320.816 227.922 319.082C254.361 313.029 267.766 316.325 267.766 316.325L271.069 299.243C271.635 296.317 274.265 294.25 277.242 294.398L340.819 297.516C343.549 297.65 345.842 299.617 346.392 302.295L350.11 317.259L392.924 325.596C399.042 327.113 403.454 332.446 403.788 338.739L401.539 372.536Z" fill="#08979C"/>
<path d="M285.584 317.008L342.832 319.817C343.435 319.846 343.899 320.358 343.87 320.961C343.843 321.496 343.436 321.922 342.922 321.99L342.725 321.998L285.477 319.189C284.875 319.159 284.411 318.647 284.44 318.045C284.466 317.51 284.874 317.083 285.387 317.016L285.584 317.008Z" fill="#C44343"/>
<path d="M266.444 311.44C267.01 311.035 267.775 311.111 268.251 311.589L268.398 311.763L325.09 390.92L352.029 320.996C352.279 320.346 352.961 319.99 353.621 320.128L353.84 320.192C354.49 320.443 354.846 321.124 354.708 321.784L354.643 322.003L326.773 394.352C326.399 395.323 325.158 395.543 324.466 394.831L324.327 394.664L266.12 313.395C265.67 312.766 265.815 311.891 266.444 311.44Z" fill="#CCD7EE"/>
<path fill-rule="evenodd" clip-rule="evenodd" d="M342.5 400.617C348.324 411.635 344.804 424.923 334.641 430.294C324.474 435.667 311.515 431.09 305.689 420.072C299.869 409.053 303.385 395.765 313.548 390.395C323.715 385.022 336.677 389.599 342.5 400.617Z" fill="#CCD7EE"/>
<path fill-rule="evenodd" clip-rule="evenodd" d="M344.783 400.676C350.603 411.694 347.087 424.982 336.924 430.352C326.757 435.726 313.799 431.149 307.972 420.131C302.149 409.112 305.668 395.824 315.831 390.454C325.998 385.081 338.96 389.658 344.783 400.676Z" fill="#E4EBF7"/>
<path fill-rule="evenodd" clip-rule="evenodd" d="M340.659 402.344C345.181 410.9 342.448 421.215 334.558 425.387C326.667 429.559 316.6 426.005 312.082 417.448C307.559 408.895 310.289 398.577 318.183 394.405C326.077 390.237 336.141 393.791 340.659 402.344Z" fill="#FAAD14"/>
<path d="M217.171 336.687C217.772 336.734 218.222 337.259 218.175 337.86L217.909 341.577L217.71 344.595C217.578 346.664 217.448 348.84 217.324 351.095C217.035 356.325 216.807 361.464 216.659 366.354L216.592 368.777C216.337 378.926 216.476 387.06 217.1 392.412C217.728 397.79 220.781 406.708 225.669 418.138L226.148 419.252C227.182 421.645 228.283 424.119 229.441 426.658C232.182 432.665 235.12 438.767 238.058 444.644L239.542 447.593L241.972 452.325L242.063 452.563L259.99 523.007L260.018 523.385L257.133 552.198L260.425 552.494L262.888 552.697C265.857 552.933 269.16 553.166 272.774 553.386C312.621 555.822 357.278 555.224 401.527 549.505L404.001 549.176L403.972 546.94C403.868 542.251 403.501 533.086 402.935 520.654L402.42 509.597L401.29 486.547C401.279 486.326 401.335 486.106 401.452 485.917L402.226 484.628L403.003 483.293C403.408 482.59 403.835 481.834 404.282 481.028C406.412 477.192 408.542 473.038 410.529 468.72C413.23 462.851 415.45 457.143 417.023 451.779C418.468 446.848 419.329 442.329 419.526 438.317C420.032 428.004 419.087 419.965 416.509 411.685C415.15 407.32 413.331 402.813 410.658 397.059L409.533 394.675C408.203 391.909 405.71 386.824 403.665 382.665L400.407 376.048L400.297 375.557L400.499 357.655C400.506 357.052 401 356.568 401.603 356.575C402.139 356.581 402.581 356.972 402.667 357.483L402.683 357.679L402.481 375.32L410.851 392.383C411.305 393.32 411.687 394.115 411.965 394.701L412.088 394.961C415.102 401.365 417.11 406.269 418.594 411.036C421.25 419.567 422.225 427.862 421.707 438.424C421.501 442.626 420.609 447.309 419.118 452.394C417.513 457.87 415.255 463.674 412.513 469.633C410.789 473.38 408.959 477.002 407.115 480.405L406.192 482.088C405.739 482.904 405.306 483.67 404.895 484.383L403.764 486.315L403.486 486.772L403.895 494.924C404.133 499.752 404.372 504.662 404.601 509.493L405.73 534.646C406.08 543.238 406.241 548.677 406.167 550.19C406.141 550.716 405.744 551.148 405.222 551.219C359.705 557.377 313.64 558.073 272.64 555.566L269.608 555.373C266.653 555.178 263.93 554.975 261.456 554.772L257.535 554.429L255.823 554.261C255.292 554.205 254.89 553.777 254.849 553.263L254.851 553.067L257.826 523.36L239.978 453.226L238.955 451.248C238.095 449.574 237.136 447.685 236.104 445.62C233.156 439.722 230.207 433.598 227.455 427.565C226.581 425.65 225.74 423.773 224.936 421.938L224.143 420.118C218.892 407.96 215.612 398.498 214.931 392.665C214.292 387.184 214.151 378.967 214.409 368.722C214.53 363.9 214.735 358.803 215.004 353.59L215.143 350.975C215.268 348.714 215.398 346.53 215.531 344.455L215.998 337.692C216.045 337.091 216.57 336.641 217.171 336.687Z" fill="#C44343"/>
<path fill-rule="evenodd" clip-rule="evenodd" d="M408.711 568.551L403.145 549.495C403.145 549.495 332.045 554.673 265.221 554.649C261.986 562.44 261.351 577.207 261.351 577.207C266.725 572.328 334.851 582.341 408.711 568.551Z" fill="#4E5C93"/>
<path fill-rule="evenodd" clip-rule="evenodd" d="M630.6 657.198L430.858 600.409L411.523 569.473L262.052 575.33C262.052 575.33 166.021 753.606 279.69 792.625C369.956 817.471 395.028 820.019 395.028 820.019L430.518 868.834L591.866 791.166L709.751 717.004L630.6 657.198Z" fill="#4E5C93"/>
<path d="M333.639 581.276C334.179 580.931 334.877 581.032 335.299 581.486L335.443 581.672L359.01 618.478L527.625 724.424C527.787 724.526 527.924 724.662 528.027 724.821L528.119 724.988L558.252 791.109C558.551 791.766 558.261 792.54 557.605 792.84C557.014 793.109 556.327 792.901 555.978 792.378L555.874 792.193L525.903 726.43L357.371 620.535C357.262 620.467 357.164 620.383 357.08 620.287L356.965 620.133L333.243 583.081C332.854 582.474 333.031 581.665 333.639 581.276Z" fill="#253368"/>
<path d="M304.697 587.932C305.345 587.887 305.915 588.322 306.059 588.934L306.091 589.144L309.699 640.993L371.951 744.378L431.692 868.269C432.006 868.919 431.733 869.7 431.083 870.013C430.498 870.295 429.807 870.102 429.446 869.587L429.339 869.404L369.655 745.619L307.298 642.069C307.227 641.951 307.175 641.823 307.144 641.689L307.114 641.486L303.484 589.326C303.434 588.606 303.977 587.982 304.697 587.932Z" fill="#253368"/>
<path d="M278.768 591.193L278.979 591.217C279.616 591.343 280.053 591.911 280.033 592.54L280.009 592.751L265.95 664.392L329.186 797.191C329.465 797.777 329.269 798.467 328.752 798.826L328.568 798.932C327.982 799.212 327.291 799.015 326.933 798.498L326.827 798.314L263.408 665.129C263.318 664.939 263.275 664.731 263.282 664.523L263.306 664.316L277.445 592.248C277.57 591.611 278.139 591.173 278.768 591.193Z" fill="#253368"/>
<path d="M410.177 567.523C410.556 567.507 410.92 567.656 411.177 567.924L411.319 568.1L433.606 601.211L630.948 655.937L631.387 656.154L710.538 715.96C711.207 716.465 711.222 717.44 710.624 717.974L710.446 718.108L592.561 792.27C591.95 792.655 591.143 792.471 590.759 791.86C590.418 791.317 590.525 790.62 590.982 790.201L591.169 790.059L707.453 716.903L630.01 658.388L432.444 603.603C432.219 603.541 432.016 603.42 431.856 603.254L431.71 603.074L409.557 570.165L262.108 576.634C261.46 576.663 260.901 576.213 260.772 575.597L260.745 575.386C260.717 574.737 261.167 574.178 261.783 574.05L261.994 574.024L410.177 567.523Z" fill="#253368"/>
<path d="M334.326 628.952C334.873 628.617 335.569 628.732 335.982 629.194L336.123 629.383L365.044 676.512L428.896 734.801C429.37 735.233 429.452 735.934 429.123 736.459L428.98 736.646C428.548 737.12 427.847 737.203 427.322 736.873L427.134 736.731L363.149 678.322L362.917 678.04L333.896 630.749C333.519 630.134 333.711 629.33 334.326 628.952Z" fill="#253368"/>
<path d="M439.748 648.789C439.959 648.175 440.582 647.819 441.202 647.925L441.408 647.978L542.649 682.749L625.783 727.996C626.416 728.341 626.651 729.135 626.306 729.769C625.995 730.339 625.322 730.586 624.728 730.378L624.534 730.292L541.6 685.132L440.559 650.449C439.877 650.215 439.514 649.472 439.748 648.789Z" fill="#253368"/>
<path fill-rule="evenodd" clip-rule="evenodd" d="M573.168 336.655C582.933 341.805 587.307 352.985 583.105 362.025L505.705 532.737C497.663 548.501 474.768 562.383 455.832 548.604C438.351 539.377 431.168 518.954 439.934 503.404L547.066 342.052C552.405 334.011 563.722 331.672 573.168 336.655Z" fill="#FFC999"/>
<path fill-rule="evenodd" clip-rule="evenodd" d="M255.121 746.987C265.927 744.24 272.866 734.276 270.871 724.37L232.346 533.129C228.168 515.687 209.077 505.42 189.897 510.293C170.549 515.213 158.672 533.61 163.613 551.015L231.179 746.775C234.527 755.963 244.67 749.645 255.121 746.987Z" fill="#FFC999"/>
<path fill-rule="evenodd" clip-rule="evenodd" d="M188.354 566.3L192.203 567.076C211.177 570.907 229.667 558.632 233.495 539.655L268.096 368.305C271.924 349.331 259.649 330.844 240.671 327.012L236.826 326.233C217.852 322.405 199.362 334.68 195.533 353.654L160.937 525.004C157.101 543.981 169.38 562.468 188.354 566.3Z" fill="#FFC999"/>
<path fill-rule="evenodd" clip-rule="evenodd" d="M181.084 425.204L197.054 346.101C200.907 327.034 220.571 314.762 240.753 318.838C260.936 322.914 274.296 341.85 270.447 360.92L254.629 439.271L181.084 425.204Z" fill="#08979C"/>
<path d="M180.74 421.771L255.228 438.887C255.803 439.019 256.162 439.592 256.03 440.167C255.913 440.678 255.447 441.018 254.941 440.995L254.75 440.968L180.262 423.852C179.687 423.72 179.328 423.147 179.46 422.572C179.578 422.061 180.043 421.721 180.549 421.744L180.74 421.771Z" fill="#C44343"/>
<path fill-rule="evenodd" clip-rule="evenodd" d="M323.102 793.115C329.396 790.714 318.23 762.916 314.752 757.227C310.117 749.635 267.43 726.039 267.43 726.039L259.931 692.503L220.613 708.531C220.613 708.531 226.66 745.525 237.74 764.595C246.008 778.824 260.072 775.778 280.069 794.622C289.326 803.343 300.911 812.573 305.629 805.613C306.559 804.239 316.184 806.763 314.948 798.258C314.948 798.258 318.22 800.809 321.303 798.231C323.978 795.988 323.102 793.115 323.102 793.115Z" fill="#FFC999"/>
<path d="M271.583 772.784C271.902 772.107 272.71 771.817 273.386 772.136L274.153 772.517L274.432 772.661C275.246 773.084 276.151 773.582 277.124 774.15C279.904 775.775 282.683 777.65 285.284 779.757C287.643 781.669 289.74 783.682 291.507 785.794L306.975 804.284C307.455 804.858 307.379 805.712 306.805 806.192C306.231 806.672 305.377 806.596 304.897 806.022L289.429 787.533C287.782 785.564 285.809 783.67 283.578 781.862C281.094 779.849 278.426 778.049 275.757 776.489C275.057 776.08 274.395 775.71 273.781 775.381L272.505 774.72C272.39 774.663 272.298 774.618 272.231 774.587C271.555 774.268 271.265 773.461 271.583 772.784Z" fill="#DD936F"/>
<path d="M282.167 760.588C282.628 759.998 283.48 759.895 284.069 760.356L284.961 761.074L286.07 761.995C286.457 762.321 286.862 762.667 287.282 763.031C289.681 765.108 292.08 767.345 294.323 769.66C296.889 772.308 299.086 774.892 300.803 777.36L302.158 779.29C302.631 779.957 303.123 780.648 303.635 781.36L305.245 783.587C306.539 785.367 307.89 787.201 309.263 789.048L313.198 794.294L315.112 796.813C315.567 797.407 315.454 798.257 314.86 798.712C314.267 799.167 313.416 799.054 312.961 798.46L310.463 795.168L309.865 794.374C308.007 791.906 306.15 789.41 304.372 786.985L302.22 784.031L300.675 781.88C299.931 780.837 299.231 779.845 298.579 778.908C296.955 776.573 294.849 774.096 292.377 771.545C290.194 769.292 287.851 767.107 285.509 765.078L284.325 764.068L282.645 762.684C282.542 762.601 282.459 762.536 282.399 762.489C281.81 762.028 281.706 761.177 282.167 760.588Z" fill="#DD936F"/>
<path d="M291.618 752.214C292.038 751.595 292.88 751.433 293.5 751.853L294.39 752.482C295.086 752.985 295.859 753.567 296.691 754.219C299.068 756.083 301.444 758.15 303.666 760.366C307.973 764.661 311.179 768.992 312.826 773.244C313.626 775.31 314.514 777.337 315.476 779.318C317.019 782.499 318.672 785.408 320.324 787.983C320.901 788.882 321.436 789.674 321.914 790.351L322.5 791.157C322.954 791.751 322.841 792.601 322.247 793.056C321.653 793.51 320.803 793.397 320.348 792.803L319.874 792.157L319.702 791.914C319.2 791.205 318.643 790.38 318.044 789.446C316.337 786.785 314.631 783.783 313.038 780.501C312.045 778.455 311.128 776.36 310.3 774.223C308.813 770.385 305.816 766.336 301.753 762.284C299.614 760.15 297.317 758.153 295.019 756.351L293.86 755.459C293.675 755.319 293.494 755.184 293.318 755.054L292.083 754.166C292.043 754.139 292.009 754.115 291.98 754.096C291.36 753.676 291.199 752.834 291.618 752.214Z" fill="#DD936F"/>
<path fill-rule="evenodd" clip-rule="evenodd" d="M543.084 340.673L553.515 285.005C553.515 285.005 582.433 220.906 595.33 223.447C607.46 227.437 582.797 247.345 579.216 265.018C590.224 263.17 586.763 280.136 586.763 280.136C586.763 280.136 595.556 278.972 594.468 292.631C603.12 296.699 598.025 312.741 598.025 312.741C598.025 312.741 593.537 344.073 577.89 372.898C577.89 372.898 545.378 388.733 543.084 340.673Z" fill="#FFC999"/>
<path fill-rule="evenodd" clip-rule="evenodd" d="M541.763 336.18C541.763 336.18 542.473 310.188 543.589 296.872C544.702 283.557 536.921 260.449 547.064 265.802C553.88 269.4 554.11 283.567 554.865 293.961C555.628 304.347 574.718 327.328 563.861 345.533C556.527 357.832 543.373 360.614 541.763 336.18Z" fill="#FFC999"/>
<path d="M578.151 264.183C578.613 263.594 579.464 263.491 580.053 263.953C580.642 264.415 580.744 265.266 580.283 265.855L579.764 266.534L578.743 267.913C578.622 268.081 578.498 268.252 578.372 268.428C576.931 270.438 575.49 272.586 574.147 274.783C572.822 276.949 571.665 279.046 570.724 281.026C567.224 288.39 567.173 292.928 571.044 294.126C571.758 294.347 572.158 295.106 571.937 295.82C571.716 296.535 570.957 296.935 570.243 296.714C564.077 294.806 564.149 288.551 568.277 279.863C569.263 277.79 570.465 275.612 571.836 273.369C573.216 271.112 574.694 268.91 576.171 266.849L576.918 265.82L578.08 264.274C578.107 264.239 578.131 264.209 578.151 264.183Z" fill="#DD936F"/>
<path d="M586.754 279.809C587.264 280.357 587.233 281.214 586.685 281.723L586.114 282.269L585.382 282.986C585.126 283.24 584.858 283.509 584.58 283.792C582.993 285.407 581.405 287.134 579.926 288.897C578.479 290.622 577.215 292.291 576.187 293.864C572.907 298.883 572.477 302.072 575.04 303.327C575.584 303.592 576.142 303.721 576.728 303.724C578.809 303.733 581.273 302.151 583.782 299.458C584.699 298.475 585.553 297.416 586.32 296.358L586.904 295.527C587.063 295.293 587.186 295.104 587.269 294.97C587.664 294.335 588.499 294.139 589.134 294.534C589.77 294.929 589.965 295.764 589.571 296.399L589.319 296.79C589.117 297.095 588.847 297.488 588.514 297.947C587.686 299.09 586.763 300.233 585.764 301.305C582.784 304.503 579.758 306.447 576.715 306.433C575.725 306.428 574.763 306.207 573.85 305.76C569.197 303.482 569.855 298.6 573.919 292.382C575.012 290.71 576.339 288.958 577.851 287.156C579.379 285.333 581.014 283.556 582.648 281.893L583.861 280.68L584.84 279.74C585.387 279.23 586.245 279.261 586.754 279.809Z" fill="#DD936F"/>
<path d="M591.27 292.58C591.995 292.394 592.733 292.831 592.919 293.556C593.105 294.28 592.668 295.019 591.943 295.205C590.198 295.652 588.088 297.468 585.679 300.92C580.621 308.167 579.855 312.584 581.628 313.406C583.47 314.26 587.445 311.968 589.751 307.89C590.58 306.426 592.806 307.485 592.191 309.052C588.941 317.339 584.688 322.718 578.692 327.237C577.883 327.846 577.05 328.438 576.102 329.08L572.19 331.653C564.263 336.872 561.28 340.864 560.314 350.209C560.237 350.953 559.572 351.494 558.828 351.417C558.084 351.34 557.543 350.674 557.62 349.93C558.653 339.936 561.972 335.266 570.036 329.833L573.868 327.317L575.243 326.385C575.889 325.937 576.483 325.509 577.061 325.073C580.567 322.431 583.42 319.495 585.814 315.759L586.124 315.26L585.864 315.397C584.085 316.274 582.299 316.538 580.824 316.002L580.489 315.864C576.476 314.005 577.545 307.841 583.457 299.37C586.202 295.436 588.779 293.22 591.27 292.58Z" fill="#DD936F"/>
<path d="M553.678 279.636C554.34 279.517 554.977 279.902 555.194 280.517L555.25 280.73L558.714 300.012L558.905 300.281C559.203 300.703 559.533 301.19 559.888 301.738C560.9 303.299 561.91 305.036 562.854 306.909C565.569 312.297 567.205 317.704 567.206 322.816C567.207 325.704 566.675 328.416 565.553 330.908C565.245 331.59 564.443 331.894 563.761 331.586C563.079 331.279 562.775 330.477 563.083 329.795C564.04 327.67 564.498 325.336 564.497 322.817C564.496 318.195 562.976 313.171 560.434 308.128C559.717 306.704 558.958 305.361 558.191 304.121L557.615 303.211C557.042 302.327 556.6 301.701 556.356 301.378C556.271 301.265 556.204 301.139 556.157 301.006L556.104 300.801L552.584 281.209C552.452 280.473 552.941 279.769 553.678 279.636Z" fill="#DD936F"/>
<path d="M403.096 548.188C403.817 548.161 404.423 548.724 404.451 549.445C404.475 550.094 404.021 550.65 403.405 550.775L403.194 550.8L265.269 555.953C264.548 555.98 263.942 555.418 263.914 554.697C263.891 554.048 264.344 553.492 264.961 553.367L265.172 553.342L403.096 548.188Z" fill="#253368"/>
</g>
<path fill-rule="evenodd" clip-rule="evenodd" d="M690.902 361.411C636.428 335.645 603.962 403.221 631.358 440.846C664.79 486.761 681.915 539.592 691.452 555.509C699.497 568.937 721.535 601.673 748.071 586.584C772.493 572.698 759.183 518.198 759.183 518.198C759.183 518.198 758.104 393.198 690.902 361.411Z" fill="#5B8C00"/>
<path fill-rule="evenodd" clip-rule="evenodd" d="M854.751 576.091C873.271 551.106 880.033 515.25 859.362 506.055C839.544 497.24 806.715 518.945 791.509 560.717C776.303 602.489 767.53 632.522 782.404 637.744C806.808 646.311 830.291 609.092 854.751 576.091Z" fill="#5B8C00"/>
<path fill-rule="evenodd" clip-rule="evenodd" d="M660.055 577.988C681.002 602.535 711.228 651.914 730.165 634.619C741.641 624.139 726.299 574.504 684.301 547.498C648.577 524.526 639.109 553.441 660.055 577.988Z" fill="#7CB305"/>
<path fill-rule="evenodd" clip-rule="evenodd" d="M860.493 407.646C852.528 402.287 842.507 401.063 833.364 403.992C820.603 408.079 801.239 420.248 782.074 455.177C757.053 500.781 744.028 550.775 746.602 582.443C748.286 603.153 773.8 612.082 788.073 596.981C794.628 590.046 801.564 579.356 808.35 563.139C835.66 497.877 861.193 456.98 864.238 452.874C872.362 441.916 878.171 419.541 860.493 407.646Z" fill="#7CB305"/>
<path fill-rule="evenodd" clip-rule="evenodd" d="M842.176 433.677C841.906 436.9 844.299 439.731 847.521 440.001C850.744 440.271 853.575 437.878 853.845 434.656C854.116 431.434 851.722 428.603 848.5 428.332C845.278 428.062 842.447 430.455 842.176 433.677Z" fill="white"/>
<path fill-rule="evenodd" clip-rule="evenodd" d="M792.446 458.675C792.175 461.897 794.568 464.728 797.791 464.998C801.013 465.269 803.844 462.876 804.115 459.653C804.385 456.432 801.992 453.601 798.769 453.33C795.547 453.06 792.716 455.453 792.446 458.675Z" fill="white"/>
<path fill-rule="evenodd" clip-rule="evenodd" d="M800.781 525.232C800.471 528.923 803.212 532.165 806.902 532.474C810.592 532.784 813.834 530.043 814.144 526.353C814.453 522.663 811.713 519.421 808.022 519.111C804.333 518.802 801.09 521.542 800.781 525.232Z" fill="white"/>
<path fill-rule="evenodd" clip-rule="evenodd" d="M648.033 425.765C648.033 431.002 652.278 435.248 657.515 435.248C662.752 435.248 666.997 431.002 666.997 425.765C666.997 420.528 662.752 416.283 657.515 416.283C652.278 416.283 648.033 420.528 648.033 425.765Z" fill="white"/>
<path fill-rule="evenodd" clip-rule="evenodd" d="M724.367 454.721C724.367 459.958 728.613 464.203 733.85 464.203C739.087 464.203 743.332 459.958 743.332 454.721C743.332 449.484 739.087 445.239 733.85 445.239C728.613 445.239 724.367 449.484 724.367 454.721Z" fill="white"/>
<path fill-rule="evenodd" clip-rule="evenodd" d="M699.645 519.087C699.645 521.276 701.419 523.051 703.608 523.051C705.797 523.051 707.571 521.276 707.571 519.087C707.571 516.898 705.797 515.124 703.608 515.124C701.419 515.124 699.645 516.898 699.645 519.087Z" fill="white"/>
<path fill-rule="evenodd" clip-rule="evenodd" d="M671.092 569.773C671.092 573.007 673.713 575.628 676.946 575.628C680.181 575.628 682.801 573.007 682.801 569.773C682.801 566.54 680.181 563.919 676.946 563.919C673.713 563.919 671.092 566.54 671.092 569.773Z" fill="white"/>
<path d="M807.845 582.76C807.3 582.239 806.436 582.26 805.915 582.805L805.666 583.075L805.476 583.284C805.132 583.668 804.735 584.127 804.288 584.659C803.019 586.173 801.608 587.981 800.091 590.082C795.766 596.069 791.446 603.213 787.417 611.501C775.917 635.154 769.02 663.248 769.02 695.68C769.02 696.434 769.632 697.046 770.386 697.046C771.14 697.046 771.751 696.434 771.751 695.68C771.751 663.676 778.548 635.987 789.872 612.695C793.831 604.553 798.07 597.544 802.304 591.68C803.695 589.754 804.991 588.085 806.162 586.675L806.38 586.414C806.712 586.018 807.015 585.666 807.286 585.359L807.628 584.975C807.755 584.835 807.843 584.74 807.891 584.69C808.412 584.144 808.391 583.28 807.845 582.76Z" fill="#253368"/>
<path d="M704.702 592.315C704.251 591.711 703.396 591.587 702.791 592.038C702.187 592.489 702.063 593.345 702.514 593.949C707.487 600.608 712.075 607.769 716.295 615.359C725.216 631.405 732.113 648.608 737.233 665.812C739.024 671.833 740.465 677.423 741.587 682.437L741.814 683.465C742.082 684.691 742.314 685.81 742.51 686.812L742.638 687.468L742.864 688.707C742.989 689.45 743.694 689.951 744.437 689.826C745.181 689.701 745.682 688.997 745.557 688.253L745.479 687.814C745.415 687.459 745.337 687.041 745.244 686.562L745.018 685.426C744.798 684.342 744.544 683.145 744.252 681.841L744.004 680.745C742.907 675.958 741.531 670.682 739.85 665.033C734.677 647.651 727.708 630.267 718.682 614.032C714.404 606.339 709.75 599.076 704.702 592.315Z" fill="#253368"/>
<path d="M680.845 421.985C680.322 422.486 680.284 423.302 680.744 423.848L680.804 423.915C680.83 423.943 680.888 424.004 680.976 424.099L681.311 424.465L681.506 424.682C682.094 425.337 682.777 426.125 683.548 427.048C685.759 429.693 688.225 432.875 690.884 436.597C698.492 447.249 706.105 460.078 713.213 475.097C725.049 500.104 734.266 528.625 739.853 560.689C746.637 599.623 747.76 642.156 742.207 688.317C742.117 689.066 742.651 689.745 743.4 689.836C744.148 689.926 744.828 689.392 744.918 688.643C750.503 642.217 749.372 599.417 742.543 560.22C736.913 527.91 727.62 499.154 715.681 473.929C708.502 458.759 700.806 445.791 693.106 435.01L692.509 434.179C690.135 430.891 687.915 428.032 685.895 425.599L685.643 425.297C684.918 424.429 684.266 423.673 683.693 423.031L683.539 422.859C683.36 422.66 683.2 422.484 683.06 422.331L682.775 422.026C682.253 421.482 681.389 421.463 680.845 421.985Z" fill="#253368"/>
<path d="M799.017 502.945C798.372 502.555 797.533 502.761 797.142 503.405L797.005 503.635C796.896 503.82 796.767 504.041 796.62 504.296L796.406 504.671C796.04 505.315 795.629 506.054 795.175 506.888L794.8 507.583C793.412 510.168 791.89 513.16 790.265 516.547L790.043 517.012C784.743 528.115 779.446 541.099 774.504 555.853C760.665 597.164 752.245 644.053 751.93 695.672C751.926 696.426 752.533 697.041 753.287 697.046C754.041 697.05 754.656 696.443 754.661 695.689C754.974 644.371 763.342 597.768 777.093 556.72C781.91 542.341 787.063 529.662 792.22 518.79L792.507 518.188C794.27 514.495 795.911 511.272 797.391 508.532L797.836 507.712C798.264 506.932 798.649 506.247 798.988 505.657L799.149 505.379L799.477 504.82C799.868 504.176 799.662 503.336 799.017 502.945Z" fill="#253368"/>
<path fill-rule="evenodd" clip-rule="evenodd" d="M693.944 763.4H811.954C818.333 763.4 823.552 758.18 823.552 751.801V665.709C823.552 659.329 818.333 654.11 811.954 654.11H693.944C687.565 654.11 682.346 659.329 682.346 665.709V751.801C682.346 758.18 687.565 763.4 693.944 763.4Z" fill="#253368"/>
<defs>
<linearGradient id="paint0_linear_903_12456" x1="67.7803" y1="686.627" x2="183.459" y2="672.134" gradientUnits="userSpaceOnUse">
<stop stop-color="#FFBA00"/>
<stop offset="1" stop-color="#FA5800"/>
</linearGradient>
<linearGradient id="paint1_linear_903_12456" x1="227.971" y1="662.43" x2="149.169" y2="763.616" gradientUnits="userSpaceOnUse">
<stop stop-color="#FFF75D"/>
<stop offset="1" stop-color="#F89800"/>
</linearGradient>
<linearGradient id="paint2_linear_903_12456" x1="91.33" y1="564.349" x2="226.159" y2="680.545" gradientUnits="userSpaceOnUse">
<stop stop-color="#FFF75D"/>
<stop offset="1" stop-color="#F89600"/>
</linearGradient>
<clipPath id="clip0_903_12456">
<rect width="979" height="807" fill="white"/>
</clipPath>
</defs>
</svg>
