<svg width="403" height="104" viewBox="0 0 403 104" fill="none" xmlns="http://www.w3.org/2000/svg">
<path d="M5.232 71.192C4.64533 71.192 4.14933 71.0747 3.744 70.84C3.34933 70.5947 3.04533 70.2587 2.832 69.832H2.736L2.592 71H1.136V59.48H2.832V64.088C3.024 63.768 3.328 63.4853 3.744 63.24C4.16 62.9947 4.656 62.872 5.232 62.872C5.89333 62.872 6.48533 63.032 7.008 63.352C7.53067 63.6613 7.94133 64.1253 8.24 64.744C8.54933 65.3627 8.704 66.1253 8.704 67.032C8.704 67.9387 8.54933 68.7013 8.24 69.32C7.94133 69.9387 7.53067 70.408 7.008 70.728C6.48533 71.0373 5.89333 71.192 5.232 71.192ZM4.88 69.576C5.488 69.576 5.98933 69.368 6.384 68.952C6.78933 68.5253 6.992 67.8907 6.992 67.048C6.992 66.1947 6.78933 65.5547 6.384 65.128C5.98933 64.7013 5.488 64.488 4.88 64.488C4.272 64.488 3.76533 64.7013 3.36 65.128C2.96533 65.544 2.768 66.1787 2.768 67.032C2.768 67.8747 2.96533 68.5093 3.36 68.936C3.76533 69.3627 4.272 69.576 4.88 69.576ZM13.6898 71.192C12.7298 71.192 11.9991 70.8987 11.4978 70.312C11.0071 69.7147 10.7618 68.8507 10.7618 67.72V63.064H12.4578V67.512C12.4578 68.1627 12.5964 68.6747 12.8738 69.048C13.1618 69.4107 13.5991 69.592 14.1858 69.592C14.7724 69.592 15.2631 69.3947 15.6578 69C16.0524 68.6053 16.2498 68.0347 16.2498 67.288V63.064H17.9458V71H16.4738L16.3298 69.816H16.2498C16.0364 70.2 15.7058 70.5253 15.2578 70.792C14.8098 71.0587 14.2871 71.192 13.6898 71.192ZM24.8515 71C24.0728 71 23.4542 70.8133 22.9955 70.44C22.5368 70.056 22.3075 69.3787 22.3075 68.408V64.504H20.3075V63.064H21.4915C22.0355 63.064 22.3555 62.7973 22.4515 62.264L22.6915 60.984H24.0035V63.064H27.1395V64.504H24.0035V68.376C24.0035 68.792 24.0942 69.0853 24.2755 69.256C24.4675 69.416 24.7928 69.496 25.2515 69.496H27.1075V71H24.8515ZM34.4453 71C33.6666 71 33.0479 70.8133 32.5893 70.44C32.1306 70.056 31.9013 69.3787 31.9013 68.408V64.504H29.9013V63.064H31.0853C31.6293 63.064 31.9493 62.7973 32.0453 62.264L32.2853 60.984H33.5973V63.064H36.7333V64.504H33.5973V68.376C33.5973 68.792 33.6879 69.0853 33.8693 69.256C34.0613 69.416 34.3866 69.496 34.8453 69.496H36.7013V71H34.4453ZM43.175 71.192C42.4177 71.192 41.7403 71.0213 41.143 70.68C40.5457 70.3387 40.0763 69.8587 39.735 69.24C39.3937 68.6107 39.223 67.8747 39.223 67.032C39.223 66.1893 39.3937 65.4587 39.735 64.84C40.0763 64.2107 40.5457 63.7253 41.143 63.384C41.7403 63.0427 42.423 62.872 43.191 62.872C43.959 62.872 44.6363 63.0427 45.223 63.384C45.8203 63.7253 46.2843 64.2107 46.615 64.84C46.9563 65.4587 47.127 66.1893 47.127 67.032C47.127 67.8747 46.9563 68.6107 46.615 69.24C46.2737 69.8587 45.8043 70.3387 45.207 70.68C44.6203 71.0213 43.943 71.192 43.175 71.192ZM43.175 69.576C43.5803 69.576 43.9537 69.4853 44.295 69.304C44.6363 69.1227 44.9083 68.8453 45.111 68.472C45.3243 68.088 45.431 67.608 45.431 67.032C45.431 66.4453 45.3243 65.9653 45.111 65.592C44.9083 65.2187 44.6363 64.9413 44.295 64.76C43.9643 64.5787 43.5963 64.488 43.191 64.488C42.7857 64.488 42.4123 64.5787 42.071 64.76C41.7297 64.9413 41.4523 65.2187 41.239 65.592C41.0363 65.9653 40.935 66.4453 40.935 67.032C40.935 67.9067 41.1537 68.552 41.591 68.968C42.039 69.3733 42.567 69.576 43.175 69.576ZM49.2168 71V63.064H50.6888L50.8328 64.248H50.9128C51.1261 63.864 51.4568 63.5387 51.9048 63.272C52.3528 63.0053 52.8701 62.872 53.4568 62.872C54.4274 62.872 55.1581 63.1653 55.6488 63.752C56.1394 64.3387 56.3848 65.2027 56.3848 66.344V71H54.6888V66.552C54.6888 65.8907 54.5501 65.3787 54.2728 65.016C53.9954 64.6533 53.5581 64.472 52.9608 64.472C52.3741 64.472 51.8834 64.6693 51.4888 65.064C51.1048 65.4587 50.9128 66.0293 50.9128 66.776V71H49.2168Z" fill="#216BE6"/>
<path d="M58.6505 72.52V71H66.0745V72.52H58.6505ZM68.2443 72.52V71H75.6683V72.52H68.2443ZM144.994 72.52V71H152.418V72.52H144.994ZM154.588 72.52V71H162.012V72.52H154.588ZM231.338 72.52V71H238.762V72.52H231.338ZM240.932 72.52V71H248.356V72.52H240.932Z" fill="#0E0E2C"/>
<path d="M77.854 74.52V63.064H79.326L79.454 64.28H79.55C79.7633 63.8853 80.0833 63.5547 80.51 63.288C80.9473 63.0107 81.4647 62.872 82.062 62.872C82.6807 62.872 83.246 63.032 83.758 63.352C84.27 63.6613 84.6753 64.1253 84.974 64.744C85.2833 65.352 85.438 66.1147 85.438 67.032C85.438 67.9387 85.278 68.7013 84.958 69.32C84.6487 69.9387 84.2273 70.408 83.694 70.728C83.1607 71.0373 82.5633 71.192 81.902 71.192C81.3153 71.192 80.8247 71.0747 80.43 70.84C80.0353 70.6053 79.742 70.3387 79.55 70.04V74.52H77.854ZM81.614 69.576C82.2113 69.576 82.7073 69.3627 83.102 68.936C83.5073 68.5093 83.71 67.8693 83.71 67.016C83.71 66.1627 83.5073 65.528 83.102 65.112C82.7073 64.696 82.2113 64.488 81.614 64.488C81.006 64.488 80.4993 64.7013 80.094 65.128C79.6993 65.544 79.502 66.1787 79.502 67.032C79.502 67.8747 79.6993 68.5093 80.094 68.936C80.4993 69.3627 81.006 69.576 81.614 69.576ZM87.5758 71V69.528H89.5118V65.064C89.5118 64.712 89.3411 64.536 88.9998 64.536H87.7358V63.064H89.6398C90.0771 63.064 90.4344 63.192 90.7118 63.448C90.9891 63.6933 91.1278 64.04 91.1278 64.488V64.68H91.2078C91.3251 64.0827 91.5758 63.6347 91.9598 63.336C92.3544 63.0267 92.9251 62.872 93.6718 62.872H94.9038V64.664H93.1758C92.5464 64.664 92.0611 64.8827 91.7198 65.32C91.3784 65.7573 91.2078 66.28 91.2078 66.888V69.528H93.6718V71H87.5758ZM100.578 61.848C100.204 61.848 99.8895 61.7307 99.6335 61.496C99.3882 61.2507 99.2655 60.952 99.2655 60.6C99.2655 60.248 99.3882 59.9547 99.6335 59.72C99.8895 59.4853 100.204 59.368 100.578 59.368C100.962 59.368 101.276 59.4853 101.522 59.72C101.778 59.9547 101.906 60.248 101.906 60.6C101.906 60.952 101.778 61.2507 101.522 61.496C101.276 61.7307 100.962 61.848 100.578 61.848ZM97.3935 71V69.528H99.8895V65.064C99.8895 64.712 99.7188 64.536 99.3775 64.536H97.6175V63.064H99.6815C100.343 63.064 100.823 63.2187 101.122 63.528C101.431 63.8267 101.586 64.3067 101.586 64.968V69.528H104.082V71H97.3935ZM105.931 71V63.064H107.339L107.483 63.992H107.563C107.702 63.6613 107.915 63.3947 108.203 63.192C108.491 62.9787 108.833 62.872 109.227 62.872C109.611 62.872 109.947 62.968 110.235 63.16C110.523 63.352 110.737 63.6293 110.875 63.992H110.939C111.078 63.672 111.297 63.4053 111.595 63.192C111.894 62.9787 112.262 62.872 112.699 62.872C113.286 62.872 113.729 63.064 114.027 63.448C114.337 63.832 114.491 64.3707 114.491 65.064V71H112.859V65.4C112.859 65.08 112.79 64.8293 112.651 64.648C112.523 64.456 112.315 64.36 112.027 64.36C111.739 64.36 111.499 64.472 111.307 64.696C111.126 64.92 111.035 65.2347 111.035 65.64V71H109.387V65.4C109.387 65.08 109.323 64.8293 109.195 64.648C109.067 64.456 108.859 64.36 108.571 64.36C108.283 64.36 108.043 64.472 107.851 64.696C107.659 64.92 107.563 65.2347 107.563 65.64V71H105.931ZM119.205 71.192C118.576 71.192 118.048 71.0853 117.621 70.872C117.194 70.648 116.874 70.3547 116.661 69.992C116.448 69.6187 116.341 69.2133 116.341 68.776C116.341 67.9973 116.624 67.3893 117.189 66.952C117.765 66.5147 118.576 66.296 119.621 66.296H121.669V66.12C121.669 64.9253 121.114 64.328 120.005 64.328C119.546 64.328 119.157 64.4293 118.837 64.632C118.528 64.824 118.32 65.1387 118.213 65.576H116.517C116.602 64.744 116.96 64.088 117.589 63.608C118.229 63.1173 119.034 62.872 120.005 62.872C121.178 62.872 122.032 63.16 122.565 63.736C123.098 64.312 123.365 65.1067 123.365 66.12V71H121.925L121.781 69.832H121.669C121.434 70.2053 121.141 70.5253 120.789 70.792C120.437 71.0587 119.909 71.192 119.205 71.192ZM119.525 69.768C120.218 69.768 120.736 69.56 121.077 69.144C121.429 68.7173 121.621 68.1787 121.653 67.528H119.797C119.189 67.528 118.757 67.6293 118.501 67.832C118.256 68.024 118.133 68.296 118.133 68.648C118.133 69 118.256 69.2773 118.501 69.48C118.757 69.672 119.098 69.768 119.525 69.768ZM125.951 71V69.528H127.887V65.064C127.887 64.712 127.716 64.536 127.375 64.536H126.111V63.064H128.015C128.452 63.064 128.809 63.192 129.087 63.448C129.364 63.6933 129.503 64.04 129.503 64.488V64.68H129.583C129.7 64.0827 129.951 63.6347 130.335 63.336C130.729 63.0267 131.3 62.872 132.047 62.872H133.279V64.664H131.551C130.921 64.664 130.436 64.8827 130.095 65.32C129.753 65.7573 129.583 66.28 129.583 66.888V69.528H132.047V71H125.951ZM136.601 74.52L138.489 70.344H138.025L134.937 63.064H136.777L139.145 68.872L141.657 63.064H143.433L138.393 74.52H136.601Z" fill="#EC396A"/>
<path d="M167.462 71.192C166.8 71.192 166.208 71.0373 165.686 70.728C165.163 70.408 164.747 69.9387 164.438 69.32C164.139 68.7013 163.99 67.9387 163.99 67.032C163.99 66.1253 164.144 65.3627 164.454 64.744C164.763 64.1253 165.179 63.6613 165.702 63.352C166.235 63.032 166.827 62.872 167.478 62.872C168.086 62.872 168.587 62.9893 168.982 63.224C169.376 63.448 169.67 63.736 169.862 64.088V59.48H171.558V71H170.102L169.958 69.832H169.862C169.648 70.248 169.344 70.5787 168.95 70.824C168.566 71.0693 168.07 71.192 167.462 71.192ZM167.814 69.576C168.422 69.576 168.923 69.3627 169.318 68.936C169.723 68.5093 169.926 67.8747 169.926 67.032C169.926 66.1787 169.723 65.544 169.318 65.128C168.923 64.7013 168.422 64.488 167.814 64.488C167.206 64.488 166.699 64.7013 166.294 65.128C165.899 65.5547 165.702 66.1947 165.702 67.048C165.702 67.8907 165.899 68.5253 166.294 68.952C166.699 69.368 167.206 69.576 167.814 69.576ZM177.584 71.192C176.816 71.192 176.138 71.0213 175.552 70.68C174.965 70.328 174.506 69.8427 174.176 69.224C173.845 68.6053 173.68 67.8853 173.68 67.064C173.68 66.232 173.84 65.5013 174.16 64.872C174.49 64.2427 174.949 63.752 175.536 63.4C176.133 63.048 176.821 62.872 177.6 62.872C178.368 62.872 179.029 63.048 179.584 63.4C180.138 63.7413 180.565 64.2 180.864 64.776C181.173 65.352 181.328 65.9867 181.328 66.68C181.328 66.7867 181.328 66.904 181.328 67.032C181.328 67.1493 181.322 67.2827 181.312 67.432H175.344C175.397 68.168 175.637 68.728 176.064 69.112C176.49 69.4853 176.992 69.672 177.568 69.672C178.069 69.672 178.464 69.5707 178.752 69.368C179.05 69.1547 179.269 68.8667 179.408 68.504H181.12C180.928 69.2613 180.528 69.9013 179.92 70.424C179.312 70.936 178.533 71.192 177.584 71.192ZM177.584 64.344C177.061 64.344 176.597 64.504 176.192 64.824C175.786 65.1333 175.525 65.5707 175.408 66.136H179.632C179.589 65.6027 179.381 65.1707 179.008 64.84C178.634 64.5093 178.16 64.344 177.584 64.344ZM183.385 74.52V73.032H184.681C185.055 73.032 185.321 72.952 185.481 72.792C185.652 72.6427 185.737 72.3867 185.737 72.024V64.504H183.721V63.064H185.737V61.96C185.737 61.0747 185.956 60.44 186.393 60.056C186.831 59.672 187.455 59.48 188.265 59.48H190.201V60.968H188.473C188.1 60.968 187.833 61.0427 187.673 61.192C187.513 61.3413 187.433 61.6027 187.433 61.976V63.064H190.201V64.504H187.433V72.04C187.433 72.9253 187.215 73.56 186.777 73.944C186.34 74.328 185.711 74.52 184.889 74.52H183.385ZM195.955 71.192C195.326 71.192 194.798 71.0853 194.371 70.872C193.944 70.648 193.624 70.3547 193.411 69.992C193.198 69.6187 193.091 69.2133 193.091 68.776C193.091 67.9973 193.374 67.3893 193.939 66.952C194.515 66.5147 195.326 66.296 196.371 66.296H198.419V66.12C198.419 64.9253 197.864 64.328 196.755 64.328C196.296 64.328 195.907 64.4293 195.587 64.632C195.278 64.824 195.07 65.1387 194.963 65.576H193.267C193.352 64.744 193.71 64.088 194.339 63.608C194.979 63.1173 195.784 62.872 196.755 62.872C197.928 62.872 198.782 63.16 199.315 63.736C199.848 64.312 200.115 65.1067 200.115 66.12V71H198.675L198.531 69.832H198.419C198.184 70.2053 197.891 70.5253 197.539 70.792C197.187 71.0587 196.659 71.192 195.955 71.192ZM196.275 69.768C196.968 69.768 197.486 69.56 197.827 69.144C198.179 68.7173 198.371 68.1787 198.403 67.528H196.547C195.939 67.528 195.507 67.6293 195.251 67.832C195.006 68.024 194.883 68.296 194.883 68.648C194.883 69 195.006 69.2773 195.251 69.48C195.507 69.672 195.848 69.768 196.275 69.768ZM205.565 71.192C204.605 71.192 203.874 70.8987 203.373 70.312C202.882 69.7147 202.637 68.8507 202.637 67.72V63.064H204.333V67.512C204.333 68.1627 204.471 68.6747 204.749 69.048C205.037 69.4107 205.474 69.592 206.061 69.592C206.647 69.592 207.138 69.3947 207.533 69C207.927 68.6053 208.125 68.0347 208.125 67.288V63.064H209.821V71H208.349L208.205 69.816H208.125C207.911 70.2 207.581 70.5253 207.133 70.792C206.685 71.0587 206.162 71.192 205.565 71.192ZM212.151 71V69.528H214.807V61.48C214.807 61.128 214.636 60.952 214.295 60.952H212.375V59.48H214.599C215.217 59.48 215.687 59.6453 216.007 59.976C216.337 60.296 216.503 60.7653 216.503 61.384V69.528H219.175V71H212.151ZM226.32 71C225.542 71 224.923 70.8133 224.464 70.44C224.006 70.056 223.776 69.3787 223.776 68.408V64.504H221.776V63.064H222.96C223.504 63.064 223.824 62.7973 223.92 62.264L224.16 60.984H225.472V63.064H228.608V64.504H225.472V68.376C225.472 68.792 225.563 69.0853 225.744 69.256C225.936 69.416 226.262 69.496 226.72 69.496H228.576V71H226.32Z" fill="#8E6AD6"/>
<path d="M254.67 71.192C254.083 71.192 253.587 71.0747 253.182 70.84C252.787 70.5947 252.483 70.2587 252.27 69.832H252.174L252.03 71H250.574V59.48H252.27V64.088C252.462 63.768 252.766 63.4853 253.182 63.24C253.598 62.9947 254.094 62.872 254.67 62.872C255.331 62.872 255.923 63.032 256.446 63.352C256.968 63.6613 257.379 64.1253 257.678 64.744C257.987 65.3627 258.142 66.1253 258.142 67.032C258.142 67.9387 257.987 68.7013 257.678 69.32C257.379 69.9387 256.968 70.408 256.446 70.728C255.923 71.0373 255.331 71.192 254.67 71.192ZM254.318 69.576C254.926 69.576 255.427 69.368 255.822 68.952C256.227 68.5253 256.43 67.8907 256.43 67.048C256.43 66.1947 256.227 65.5547 255.822 65.128C255.427 64.7013 254.926 64.488 254.318 64.488C253.71 64.488 253.203 64.7013 252.798 65.128C252.403 65.544 252.206 66.1787 252.206 67.032C252.206 67.8747 252.403 68.5093 252.798 68.936C253.203 69.3627 253.71 69.576 254.318 69.576ZM263.111 71.192C262.482 71.192 261.954 71.0853 261.527 70.872C261.101 70.648 260.781 70.3547 260.567 69.992C260.354 69.6187 260.247 69.2133 260.247 68.776C260.247 67.9973 260.53 67.3893 261.095 66.952C261.671 66.5147 262.482 66.296 263.527 66.296H265.575V66.12C265.575 64.9253 265.021 64.328 263.911 64.328C263.453 64.328 263.063 64.4293 262.743 64.632C262.434 64.824 262.226 65.1387 262.119 65.576H260.423C260.509 64.744 260.866 64.088 261.495 63.608C262.135 63.1173 262.941 62.872 263.911 62.872C265.085 62.872 265.938 63.16 266.471 63.736C267.005 64.312 267.271 65.1067 267.271 66.12V71H265.831L265.687 69.832H265.575C265.341 70.2053 265.047 70.5253 264.695 70.792C264.343 71.0587 263.815 71.192 263.111 71.192ZM263.431 69.768C264.125 69.768 264.642 69.56 264.983 69.144C265.335 68.7173 265.527 68.1787 265.559 67.528H263.703C263.095 67.528 262.663 67.6293 262.407 67.832C262.162 68.024 262.039 68.296 262.039 68.648C262.039 69 262.162 69.2773 262.407 69.48C262.663 69.672 263.005 69.768 263.431 69.768ZM273.537 71.192C272.801 71.192 272.14 71.0213 271.553 70.68C270.977 70.3387 270.524 69.8587 270.193 69.24C269.862 68.6107 269.697 67.8747 269.697 67.032C269.697 66.1893 269.862 65.4587 270.193 64.84C270.534 64.2213 270.993 63.7413 271.569 63.4C272.145 63.048 272.801 62.872 273.537 62.872C274.55 62.872 275.366 63.128 275.985 63.64C276.614 64.1413 277.014 64.8347 277.185 65.72H275.409C275.302 65.336 275.084 65.032 274.753 64.808C274.433 64.584 274.022 64.472 273.521 64.472C273.158 64.472 272.812 64.568 272.481 64.76C272.161 64.952 271.9 65.24 271.697 65.624C271.505 65.9973 271.409 66.4667 271.409 67.032C271.409 67.5867 271.505 68.056 271.697 68.44C271.9 68.824 272.161 69.1173 272.481 69.32C272.812 69.512 273.158 69.608 273.521 69.608C274.033 69.608 274.444 69.496 274.753 69.272C275.062 69.048 275.281 68.7387 275.409 68.344H277.185C276.972 69.2187 276.556 69.912 275.937 70.424C275.318 70.936 274.518 71.192 273.537 71.192ZM279.787 71V59.48H281.483V66.392L284.523 63.064H286.651L283.339 66.584V66.712L287.083 71H285.019L281.483 66.92V71H279.787ZM292.437 68.712C291.946 68.712 291.493 68.632 291.077 68.472L290.677 68.952C290.549 69.112 290.511 69.2667 290.565 69.416C290.629 69.5547 290.773 69.624 290.997 69.624H293.093C294.021 69.624 294.767 69.8213 295.333 70.216C295.909 70.6 296.197 71.192 296.197 71.992C296.197 72.4933 296.069 72.9467 295.812 73.352C295.567 73.768 295.167 74.0987 294.613 74.344C294.069 74.5893 293.349 74.712 292.453 74.712C291.322 74.712 290.41 74.4987 289.717 74.072C289.034 73.656 288.693 73.0267 288.693 72.184C288.693 71.8853 288.762 71.608 288.901 71.352C289.05 71.1067 289.242 70.8827 289.477 70.68C289.189 70.4667 289.013 70.168 288.949 69.784C288.895 69.3893 289.013 69.0107 289.301 68.648L290.005 67.752C289.503 67.2187 289.253 66.5627 289.253 65.784C289.253 65.2613 289.375 64.7813 289.621 64.344C289.877 63.896 290.239 63.5387 290.709 63.272C291.189 63.0053 291.765 62.872 292.437 62.872C292.874 62.872 293.279 62.936 293.653 63.064H296.645V64.184L295.253 64.264V64.408C295.477 64.824 295.589 65.2827 295.589 65.784C295.589 66.3067 295.461 66.792 295.205 67.24C294.959 67.688 294.602 68.0453 294.133 68.312C293.663 68.5787 293.098 68.712 292.437 68.712ZM292.437 67.352C292.906 67.352 293.29 67.2133 293.589 66.936C293.898 66.6587 294.053 66.2747 294.053 65.784C294.053 65.3147 293.898 64.9413 293.589 64.664C293.29 64.3867 292.906 64.248 292.437 64.248C291.957 64.248 291.562 64.3867 291.253 64.664C290.954 64.9413 290.805 65.3147 290.805 65.784C290.805 66.2747 290.954 66.6587 291.253 66.936C291.562 67.2133 291.957 67.352 292.437 67.352ZM290.293 72.056C290.293 72.4827 290.495 72.7973 290.901 73C291.317 73.2027 291.834 73.304 292.453 73.304C293.114 73.304 293.637 73.192 294.021 72.968C294.405 72.744 294.597 72.4293 294.597 72.024C294.597 71.6827 294.458 71.4107 294.181 71.208C293.903 71.016 293.434 70.92 292.773 70.92H290.901C290.495 71.24 290.293 71.6187 290.293 72.056ZM298.638 71V69.528H300.574V65.064C300.574 64.712 300.404 64.536 300.062 64.536H298.798V63.064H300.702C301.14 63.064 301.497 63.192 301.774 63.448C302.052 63.6933 302.19 64.04 302.19 64.488V64.68H302.27C302.388 64.0827 302.638 63.6347 303.022 63.336C303.417 63.0267 303.988 62.872 304.734 62.872H305.966V64.664H304.238C303.609 64.664 303.124 64.8827 302.782 65.32C302.441 65.7573 302.27 66.28 302.27 66.888V69.528H304.734V71H298.638ZM311.8 71.192C311.043 71.192 310.365 71.0213 309.768 70.68C309.171 70.3387 308.701 69.8587 308.36 69.24C308.019 68.6107 307.848 67.8747 307.848 67.032C307.848 66.1893 308.019 65.4587 308.36 64.84C308.701 64.2107 309.171 63.7253 309.768 63.384C310.365 63.0427 311.048 62.872 311.816 62.872C312.584 62.872 313.261 63.0427 313.848 63.384C314.445 63.7253 314.909 64.2107 315.24 64.84C315.581 65.4587 315.752 66.1893 315.752 67.032C315.752 67.8747 315.581 68.6107 315.24 69.24C314.899 69.8587 314.429 70.3387 313.832 70.68C313.245 71.0213 312.568 71.192 311.8 71.192ZM311.8 69.576C312.205 69.576 312.579 69.4853 312.92 69.304C313.261 69.1227 313.533 68.8453 313.736 68.472C313.949 68.088 314.056 67.608 314.056 67.032C314.056 66.4453 313.949 65.9653 313.736 65.592C313.533 65.2187 313.261 64.9413 312.92 64.76C312.589 64.5787 312.221 64.488 311.816 64.488C311.411 64.488 311.037 64.5787 310.696 64.76C310.355 64.9413 310.077 65.2187 309.864 65.592C309.661 65.9653 309.56 66.4453 309.56 67.032C309.56 67.9067 309.779 68.552 310.216 68.968C310.664 69.3733 311.192 69.576 311.8 69.576ZM320.69 71.192C319.73 71.192 318.999 70.8987 318.498 70.312C318.007 69.7147 317.762 68.8507 317.762 67.72V63.064H319.458V67.512C319.458 68.1627 319.596 68.6747 319.874 69.048C320.162 69.4107 320.599 69.592 321.186 69.592C321.772 69.592 322.263 69.3947 322.658 69C323.052 68.6053 323.25 68.0347 323.25 67.288V63.064H324.946V71H323.474L323.33 69.816H323.25C323.036 70.2 322.706 70.5253 322.258 70.792C321.81 71.0587 321.287 71.192 320.69 71.192ZM327.436 71V63.064H328.908L329.052 64.248H329.132C329.345 63.864 329.676 63.5387 330.124 63.272C330.572 63.0053 331.089 62.872 331.676 62.872C332.646 62.872 333.377 63.1653 333.868 63.752C334.358 64.3387 334.604 65.2027 334.604 66.344V71H332.908V66.552C332.908 65.8907 332.769 65.3787 332.492 65.016C332.214 64.6533 331.777 64.472 331.18 64.472C330.593 64.472 330.102 64.6693 329.708 65.064C329.324 65.4587 329.132 66.0293 329.132 66.776V71H327.436ZM340.149 71.192C339.488 71.192 338.896 71.0373 338.373 70.728C337.851 70.408 337.435 69.9387 337.125 69.32C336.827 68.7013 336.677 67.9387 336.677 67.032C336.677 66.1253 336.832 65.3627 337.141 64.744C337.451 64.1253 337.867 63.6613 338.389 63.352C338.923 63.032 339.515 62.872 340.165 62.872C340.773 62.872 341.275 62.9893 341.669 63.224C342.064 63.448 342.357 63.736 342.549 64.088V59.48H344.245V71H342.789L342.645 69.832H342.549C342.336 70.248 342.032 70.5787 341.637 70.824C341.253 71.0693 340.757 71.192 340.149 71.192ZM340.501 69.576C341.109 69.576 341.611 69.3627 342.005 68.936C342.411 68.5093 342.613 67.8747 342.613 67.032C342.613 66.1787 342.411 65.544 342.005 65.128C341.611 64.7013 341.109 64.488 340.501 64.488C339.893 64.488 339.387 64.7013 338.981 65.128C338.587 65.5547 338.389 66.1947 338.389 67.048C338.389 67.8907 338.587 68.5253 338.981 68.952C339.387 69.368 339.893 69.576 340.501 69.576ZM346.463 72.52V71H353.887V72.52H346.463ZM359.881 71.192C359.145 71.192 358.483 71.0213 357.897 70.68C357.321 70.3387 356.867 69.8587 356.537 69.24C356.206 68.6107 356.041 67.8747 356.041 67.032C356.041 66.1893 356.206 65.4587 356.537 64.84C356.878 64.2213 357.337 63.7413 357.913 63.4C358.489 63.048 359.145 62.872 359.881 62.872C360.894 62.872 361.71 63.128 362.329 63.64C362.958 64.1413 363.358 64.8347 363.529 65.72H361.753C361.646 65.336 361.427 65.032 361.097 64.808C360.777 64.584 360.366 64.472 359.865 64.472C359.502 64.472 359.155 64.568 358.825 64.76C358.505 64.952 358.243 65.24 358.041 65.624C357.849 65.9973 357.753 66.4667 357.753 67.032C357.753 67.5867 357.849 68.056 358.041 68.44C358.243 68.824 358.505 69.1173 358.825 69.32C359.155 69.512 359.502 69.608 359.865 69.608C360.377 69.608 360.787 69.496 361.097 69.272C361.406 69.048 361.625 68.7387 361.753 68.344H363.529C363.315 69.2187 362.899 69.912 362.281 70.424C361.662 70.936 360.862 71.192 359.881 71.192ZM369.363 71.192C368.605 71.192 367.928 71.0213 367.331 70.68C366.733 70.3387 366.264 69.8587 365.923 69.24C365.581 68.6107 365.411 67.8747 365.411 67.032C365.411 66.1893 365.581 65.4587 365.923 64.84C366.264 64.2107 366.733 63.7253 367.331 63.384C367.928 63.0427 368.611 62.872 369.379 62.872C370.147 62.872 370.824 63.0427 371.411 63.384C372.008 63.7253 372.472 64.2107 372.803 64.84C373.144 65.4587 373.315 66.1893 373.315 67.032C373.315 67.8747 373.144 68.6107 372.803 69.24C372.461 69.8587 371.992 70.3387 371.395 70.68C370.808 71.0213 370.131 71.192 369.363 71.192ZM369.363 69.576C369.768 69.576 370.141 69.4853 370.483 69.304C370.824 69.1227 371.096 68.8453 371.299 68.472C371.512 68.088 371.619 67.608 371.619 67.032C371.619 66.4453 371.512 65.9653 371.299 65.592C371.096 65.2187 370.824 64.9413 370.483 64.76C370.152 64.5787 369.784 64.488 369.379 64.488C368.973 64.488 368.6 64.5787 368.259 64.76C367.917 64.9413 367.64 65.2187 367.427 65.592C367.224 65.9653 367.123 66.4453 367.123 67.032C367.123 67.9067 367.341 68.552 367.779 68.968C368.227 69.3733 368.755 69.576 369.363 69.576ZM375.244 71V69.528H377.9V61.48C377.9 61.128 377.73 60.952 377.388 60.952H375.468V59.48H377.692C378.311 59.48 378.78 59.6453 379.1 59.976C379.431 60.296 379.596 60.7653 379.596 61.384V69.528H382.268V71H375.244ZM388.55 71.192C387.793 71.192 387.115 71.0213 386.518 70.68C385.921 70.3387 385.451 69.8587 385.11 69.24C384.769 68.6107 384.598 67.8747 384.598 67.032C384.598 66.1893 384.769 65.4587 385.11 64.84C385.451 64.2107 385.921 63.7253 386.518 63.384C387.115 63.0427 387.798 62.872 388.566 62.872C389.334 62.872 390.011 63.0427 390.598 63.384C391.195 63.7253 391.659 64.2107 391.99 64.84C392.331 65.4587 392.502 66.1893 392.502 67.032C392.502 67.8747 392.331 68.6107 391.99 69.24C391.649 69.8587 391.179 70.3387 390.582 70.68C389.995 71.0213 389.318 71.192 388.55 71.192ZM388.55 69.576C388.955 69.576 389.329 69.4853 389.67 69.304C390.011 69.1227 390.283 68.8453 390.486 68.472C390.699 68.088 390.806 67.608 390.806 67.032C390.806 66.4453 390.699 65.9653 390.486 65.592C390.283 65.2187 390.011 64.9413 389.67 64.76C389.339 64.5787 388.971 64.488 388.566 64.488C388.161 64.488 387.787 64.5787 387.446 64.76C387.105 64.9413 386.827 65.2187 386.614 65.592C386.411 65.9653 386.31 66.4453 386.31 67.032C386.31 67.9067 386.529 68.552 386.966 68.968C387.414 69.3733 387.942 69.576 388.55 69.576ZM394.576 71V69.528H396.512V65.064C396.512 64.712 396.341 64.536 396 64.536H394.736V63.064H396.64C397.077 63.064 397.434 63.192 397.712 63.448C397.989 63.6933 398.128 64.04 398.128 64.488V64.68H398.208C398.325 64.0827 398.576 63.6347 398.96 63.336C399.354 63.0267 399.925 62.872 400.672 62.872H401.904V64.664H400.176C399.546 64.664 399.061 64.8827 398.72 65.32C398.378 65.7573 398.208 66.28 398.208 66.888V69.528H400.672V71H394.576Z" fill="#49849E"/>
<path d="M5.232 15.192C4.64533 15.192 4.14933 15.0747 3.744 14.84C3.34933 14.5947 3.04533 14.2587 2.832 13.832H2.736L2.592 15H1.136V3.48H2.832V8.088C3.024 7.768 3.328 7.48533 3.744 7.24C4.16 6.99467 4.656 6.872 5.232 6.872C5.89333 6.872 6.48533 7.032 7.008 7.352C7.53067 7.66133 7.94133 8.12533 8.24 8.744C8.54933 9.36267 8.704 10.1253 8.704 11.032C8.704 11.9387 8.54933 12.7013 8.24 13.32C7.94133 13.9387 7.53067 14.408 7.008 14.728C6.48533 15.0373 5.89333 15.192 5.232 15.192ZM4.88 13.576C5.488 13.576 5.98933 13.368 6.384 12.952C6.78933 12.5253 6.992 11.8907 6.992 11.048C6.992 10.1947 6.78933 9.55467 6.384 9.128C5.98933 8.70133 5.488 8.488 4.88 8.488C4.272 8.488 3.76533 8.70133 3.36 9.128C2.96533 9.544 2.768 10.1787 2.768 11.032C2.768 11.8747 2.96533 12.5093 3.36 12.936C3.76533 13.3627 4.272 13.576 4.88 13.576ZM13.6898 15.192C12.7298 15.192 11.9991 14.8987 11.4978 14.312C11.0071 13.7147 10.7618 12.8507 10.7618 11.72V7.064H12.4578V11.512C12.4578 12.1627 12.5964 12.6747 12.8738 13.048C13.1618 13.4107 13.5991 13.592 14.1858 13.592C14.7724 13.592 15.2631 13.3947 15.6578 13C16.0524 12.6053 16.2498 12.0347 16.2498 11.288V7.064H17.9458V15H16.4738L16.3298 13.816H16.2498C16.0364 14.2 15.7058 14.5253 15.2578 14.792C14.8098 15.0587 14.2871 15.192 13.6898 15.192ZM24.8515 15C24.0728 15 23.4542 14.8133 22.9955 14.44C22.5368 14.056 22.3075 13.3787 22.3075 12.408V8.504H20.3075V7.064H21.4915C22.0355 7.064 22.3555 6.79733 22.4515 6.264L22.6915 4.984H24.0035V7.064H27.1395V8.504H24.0035V12.376C24.0035 12.792 24.0942 13.0853 24.2755 13.256C24.4675 13.416 24.7928 13.496 25.2515 13.496H27.1075V15H24.8515ZM34.4453 15C33.6666 15 33.0479 14.8133 32.5893 14.44C32.1306 14.056 31.9013 13.3787 31.9013 12.408V8.504H29.9013V7.064H31.0853C31.6293 7.064 31.9493 6.79733 32.0453 6.264L32.2853 4.984H33.5973V7.064H36.7333V8.504H33.5973V12.376C33.5973 12.792 33.6879 13.0853 33.8693 13.256C34.0613 13.416 34.3866 13.496 34.8453 13.496H36.7013V15H34.4453ZM43.175 15.192C42.4177 15.192 41.7403 15.0213 41.143 14.68C40.5457 14.3387 40.0763 13.8587 39.735 13.24C39.3937 12.6107 39.223 11.8747 39.223 11.032C39.223 10.1893 39.3937 9.45867 39.735 8.84C40.0763 8.21067 40.5457 7.72533 41.143 7.384C41.7403 7.04267 42.423 6.872 43.191 6.872C43.959 6.872 44.6363 7.04267 45.223 7.384C45.8203 7.72533 46.2843 8.21067 46.615 8.84C46.9563 9.45867 47.127 10.1893 47.127 11.032C47.127 11.8747 46.9563 12.6107 46.615 13.24C46.2737 13.8587 45.8043 14.3387 45.207 14.68C44.6203 15.0213 43.943 15.192 43.175 15.192ZM43.175 13.576C43.5803 13.576 43.9537 13.4853 44.295 13.304C44.6363 13.1227 44.9083 12.8453 45.111 12.472C45.3243 12.088 45.431 11.608 45.431 11.032C45.431 10.4453 45.3243 9.96533 45.111 9.592C44.9083 9.21867 44.6363 8.94133 44.295 8.76C43.9643 8.57867 43.5963 8.488 43.191 8.488C42.7857 8.488 42.4123 8.57867 42.071 8.76C41.7297 8.94133 41.4523 9.21867 41.239 9.592C41.0363 9.96533 40.935 10.4453 40.935 11.032C40.935 11.9067 41.1537 12.552 41.591 12.968C42.039 13.3733 42.567 13.576 43.175 13.576ZM49.2168 15V7.064H50.6888L50.8328 8.248H50.9128C51.1261 7.864 51.4568 7.53867 51.9048 7.272C52.3528 7.00533 52.8701 6.872 53.4568 6.872C54.4274 6.872 55.1581 7.16533 55.6488 7.752C56.1394 8.33867 56.3848 9.20267 56.3848 10.344V15H54.6888V10.552C54.6888 9.89067 54.5501 9.37867 54.2728 9.016C53.9954 8.65333 53.5581 8.472 52.9608 8.472C52.3741 8.472 51.8834 8.66933 51.4888 9.064C51.1048 9.45867 50.9128 10.0293 50.9128 10.776V15H49.2168Z" fill="#216BE6"/>
<path d="M58.6505 16.52V15H66.0745V16.52H58.6505ZM68.2443 16.52V15H75.6683V16.52H68.2443ZM144.994 16.52V15H152.418V16.52H144.994ZM154.588 16.52V15H162.012V16.52H154.588ZM231.338 16.52V15H238.762V16.52H231.338ZM240.932 16.52V15H248.356V16.52H240.932Z" fill="#0E0E2C"/>
<path d="M77.854 18.52V7.064H79.326L79.454 8.28H79.55C79.7633 7.88533 80.0833 7.55467 80.51 7.288C80.9473 7.01067 81.4647 6.872 82.062 6.872C82.6807 6.872 83.246 7.032 83.758 7.352C84.27 7.66133 84.6753 8.12533 84.974 8.744C85.2833 9.352 85.438 10.1147 85.438 11.032C85.438 11.9387 85.278 12.7013 84.958 13.32C84.6487 13.9387 84.2273 14.408 83.694 14.728C83.1607 15.0373 82.5633 15.192 81.902 15.192C81.3153 15.192 80.8247 15.0747 80.43 14.84C80.0353 14.6053 79.742 14.3387 79.55 14.04V18.52H77.854ZM81.614 13.576C82.2113 13.576 82.7073 13.3627 83.102 12.936C83.5073 12.5093 83.71 11.8693 83.71 11.016C83.71 10.1627 83.5073 9.528 83.102 9.112C82.7073 8.696 82.2113 8.488 81.614 8.488C81.006 8.488 80.4993 8.70133 80.094 9.128C79.6993 9.544 79.502 10.1787 79.502 11.032C79.502 11.8747 79.6993 12.5093 80.094 12.936C80.4993 13.3627 81.006 13.576 81.614 13.576ZM87.5758 15V13.528H89.5118V9.064C89.5118 8.712 89.3411 8.536 88.9998 8.536H87.7358V7.064H89.6398C90.0771 7.064 90.4344 7.192 90.7118 7.448C90.9891 7.69333 91.1278 8.04 91.1278 8.488V8.68H91.2078C91.3251 8.08267 91.5758 7.63467 91.9598 7.336C92.3544 7.02667 92.9251 6.872 93.6718 6.872H94.9038V8.664H93.1758C92.5464 8.664 92.0611 8.88267 91.7198 9.32C91.3784 9.75733 91.2078 10.28 91.2078 10.888V13.528H93.6718V15H87.5758ZM100.578 5.848C100.204 5.848 99.8895 5.73067 99.6335 5.496C99.3882 5.25067 99.2655 4.952 99.2655 4.6C99.2655 4.248 99.3882 3.95467 99.6335 3.72C99.8895 3.48533 100.204 3.368 100.578 3.368C100.962 3.368 101.276 3.48533 101.522 3.72C101.778 3.95467 101.906 4.248 101.906 4.6C101.906 4.952 101.778 5.25067 101.522 5.496C101.276 5.73067 100.962 5.848 100.578 5.848ZM97.3935 15V13.528H99.8895V9.064C99.8895 8.712 99.7188 8.536 99.3775 8.536H97.6175V7.064H99.6815C100.343 7.064 100.823 7.21867 101.122 7.528C101.431 7.82667 101.586 8.30667 101.586 8.968V13.528H104.082V15H97.3935ZM105.931 15V7.064H107.339L107.483 7.992H107.563C107.702 7.66133 107.915 7.39467 108.203 7.192C108.491 6.97867 108.833 6.872 109.227 6.872C109.611 6.872 109.947 6.968 110.235 7.16C110.523 7.352 110.737 7.62933 110.875 7.992H110.939C111.078 7.672 111.297 7.40533 111.595 7.192C111.894 6.97867 112.262 6.872 112.699 6.872C113.286 6.872 113.729 7.064 114.027 7.448C114.337 7.832 114.491 8.37067 114.491 9.064V15H112.859V9.4C112.859 9.08 112.79 8.82933 112.651 8.648C112.523 8.456 112.315 8.36 112.027 8.36C111.739 8.36 111.499 8.472 111.307 8.696C111.126 8.92 111.035 9.23467 111.035 9.64V15H109.387V9.4C109.387 9.08 109.323 8.82933 109.195 8.648C109.067 8.456 108.859 8.36 108.571 8.36C108.283 8.36 108.043 8.472 107.851 8.696C107.659 8.92 107.563 9.23467 107.563 9.64V15H105.931ZM119.205 15.192C118.576 15.192 118.048 15.0853 117.621 14.872C117.194 14.648 116.874 14.3547 116.661 13.992C116.448 13.6187 116.341 13.2133 116.341 12.776C116.341 11.9973 116.624 11.3893 117.189 10.952C117.765 10.5147 118.576 10.296 119.621 10.296H121.669V10.12C121.669 8.92533 121.114 8.328 120.005 8.328C119.546 8.328 119.157 8.42933 118.837 8.632C118.528 8.824 118.32 9.13867 118.213 9.576H116.517C116.602 8.744 116.96 8.088 117.589 7.608C118.229 7.11733 119.034 6.872 120.005 6.872C121.178 6.872 122.032 7.16 122.565 7.736C123.098 8.312 123.365 9.10667 123.365 10.12V15H121.925L121.781 13.832H121.669C121.434 14.2053 121.141 14.5253 120.789 14.792C120.437 15.0587 119.909 15.192 119.205 15.192ZM119.525 13.768C120.218 13.768 120.736 13.56 121.077 13.144C121.429 12.7173 121.621 12.1787 121.653 11.528H119.797C119.189 11.528 118.757 11.6293 118.501 11.832C118.256 12.024 118.133 12.296 118.133 12.648C118.133 13 118.256 13.2773 118.501 13.48C118.757 13.672 119.098 13.768 119.525 13.768ZM125.951 15V13.528H127.887V9.064C127.887 8.712 127.716 8.536 127.375 8.536H126.111V7.064H128.015C128.452 7.064 128.809 7.192 129.087 7.448C129.364 7.69333 129.503 8.04 129.503 8.488V8.68H129.583C129.7 8.08267 129.951 7.63467 130.335 7.336C130.729 7.02667 131.3 6.872 132.047 6.872H133.279V8.664H131.551C130.921 8.664 130.436 8.88267 130.095 9.32C129.753 9.75733 129.583 10.28 129.583 10.888V13.528H132.047V15H125.951ZM136.601 18.52L138.489 14.344H138.025L134.937 7.064H136.777L139.145 12.872L141.657 7.064H143.433L138.393 18.52H136.601Z" fill="#EC396A"/>
<path d="M167.462 15.192C166.8 15.192 166.208 15.0373 165.686 14.728C165.163 14.408 164.747 13.9387 164.438 13.32C164.139 12.7013 163.99 11.9387 163.99 11.032C163.99 10.1253 164.144 9.36267 164.454 8.744C164.763 8.12533 165.179 7.66133 165.702 7.352C166.235 7.032 166.827 6.872 167.478 6.872C168.086 6.872 168.587 6.98933 168.982 7.224C169.376 7.448 169.67 7.736 169.862 8.088V3.48H171.558V15H170.102L169.958 13.832H169.862C169.648 14.248 169.344 14.5787 168.95 14.824C168.566 15.0693 168.07 15.192 167.462 15.192ZM167.814 13.576C168.422 13.576 168.923 13.3627 169.318 12.936C169.723 12.5093 169.926 11.8747 169.926 11.032C169.926 10.1787 169.723 9.544 169.318 9.128C168.923 8.70133 168.422 8.488 167.814 8.488C167.206 8.488 166.699 8.70133 166.294 9.128C165.899 9.55467 165.702 10.1947 165.702 11.048C165.702 11.8907 165.899 12.5253 166.294 12.952C166.699 13.368 167.206 13.576 167.814 13.576ZM177.584 15.192C176.816 15.192 176.138 15.0213 175.552 14.68C174.965 14.328 174.506 13.8427 174.176 13.224C173.845 12.6053 173.68 11.8853 173.68 11.064C173.68 10.232 173.84 9.50133 174.16 8.872C174.49 8.24267 174.949 7.752 175.536 7.4C176.133 7.048 176.821 6.872 177.6 6.872C178.368 6.872 179.029 7.048 179.584 7.4C180.138 7.74133 180.565 8.2 180.864 8.776C181.173 9.352 181.328 9.98667 181.328 10.68C181.328 10.7867 181.328 10.904 181.328 11.032C181.328 11.1493 181.322 11.2827 181.312 11.432H175.344C175.397 12.168 175.637 12.728 176.064 13.112C176.49 13.4853 176.992 13.672 177.568 13.672C178.069 13.672 178.464 13.5707 178.752 13.368C179.05 13.1547 179.269 12.8667 179.408 12.504H181.12C180.928 13.2613 180.528 13.9013 179.92 14.424C179.312 14.936 178.533 15.192 177.584 15.192ZM177.584 8.344C177.061 8.344 176.597 8.504 176.192 8.824C175.786 9.13333 175.525 9.57067 175.408 10.136H179.632C179.589 9.60267 179.381 9.17067 179.008 8.84C178.634 8.50933 178.16 8.344 177.584 8.344ZM183.385 18.52V17.032H184.681C185.055 17.032 185.321 16.952 185.481 16.792C185.652 16.6427 185.737 16.3867 185.737 16.024V8.504H183.721V7.064H185.737V5.96C185.737 5.07467 185.956 4.44 186.393 4.056C186.831 3.672 187.455 3.48 188.265 3.48H190.201V4.968H188.473C188.1 4.968 187.833 5.04267 187.673 5.192C187.513 5.34133 187.433 5.60267 187.433 5.976V7.064H190.201V8.504H187.433V16.04C187.433 16.9253 187.215 17.56 186.777 17.944C186.34 18.328 185.711 18.52 184.889 18.52H183.385ZM195.955 15.192C195.326 15.192 194.798 15.0853 194.371 14.872C193.944 14.648 193.624 14.3547 193.411 13.992C193.198 13.6187 193.091 13.2133 193.091 12.776C193.091 11.9973 193.374 11.3893 193.939 10.952C194.515 10.5147 195.326 10.296 196.371 10.296H198.419V10.12C198.419 8.92533 197.864 8.328 196.755 8.328C196.296 8.328 195.907 8.42933 195.587 8.632C195.278 8.824 195.07 9.13867 194.963 9.576H193.267C193.352 8.744 193.71 8.088 194.339 7.608C194.979 7.11733 195.784 6.872 196.755 6.872C197.928 6.872 198.782 7.16 199.315 7.736C199.848 8.312 200.115 9.10667 200.115 10.12V15H198.675L198.531 13.832H198.419C198.184 14.2053 197.891 14.5253 197.539 14.792C197.187 15.0587 196.659 15.192 195.955 15.192ZM196.275 13.768C196.968 13.768 197.486 13.56 197.827 13.144C198.179 12.7173 198.371 12.1787 198.403 11.528H196.547C195.939 11.528 195.507 11.6293 195.251 11.832C195.006 12.024 194.883 12.296 194.883 12.648C194.883 13 195.006 13.2773 195.251 13.48C195.507 13.672 195.848 13.768 196.275 13.768ZM205.565 15.192C204.605 15.192 203.874 14.8987 203.373 14.312C202.882 13.7147 202.637 12.8507 202.637 11.72V7.064H204.333V11.512C204.333 12.1627 204.471 12.6747 204.749 13.048C205.037 13.4107 205.474 13.592 206.061 13.592C206.647 13.592 207.138 13.3947 207.533 13C207.927 12.6053 208.125 12.0347 208.125 11.288V7.064H209.821V15H208.349L208.205 13.816H208.125C207.911 14.2 207.581 14.5253 207.133 14.792C206.685 15.0587 206.162 15.192 205.565 15.192ZM212.151 15V13.528H214.807V5.48C214.807 5.128 214.636 4.952 214.295 4.952H212.375V3.48H214.599C215.217 3.48 215.687 3.64533 216.007 3.976C216.337 4.296 216.503 4.76533 216.503 5.384V13.528H219.175V15H212.151ZM226.32 15C225.542 15 224.923 14.8133 224.464 14.44C224.006 14.056 223.776 13.3787 223.776 12.408V8.504H221.776V7.064H222.96C223.504 7.064 223.824 6.79733 223.92 6.264L224.16 4.984H225.472V7.064H228.608V8.504H225.472V12.376C225.472 12.792 225.563 13.0853 225.744 13.256C225.936 13.416 226.262 13.496 226.72 13.496H228.576V15H226.32Z" fill="#8E6AD6"/>
<path d="M255.102 15C254.323 15 253.704 14.8133 253.246 14.44C252.787 14.056 252.558 13.3787 252.558 12.408V8.504H250.558V7.064H251.742C252.286 7.064 252.606 6.79733 252.702 6.264L252.942 4.984H254.254V7.064H257.39V8.504H254.254V12.376C254.254 12.792 254.344 13.0853 254.526 13.256C254.718 13.416 255.043 13.496 255.502 13.496H257.358V15H255.102ZM263.927 15.192C263.159 15.192 262.482 15.0213 261.895 14.68C261.309 14.328 260.85 13.8427 260.519 13.224C260.189 12.6053 260.023 11.8853 260.023 11.064C260.023 10.232 260.183 9.50133 260.503 8.872C260.834 8.24267 261.293 7.752 261.879 7.4C262.477 7.048 263.165 6.872 263.943 6.872C264.711 6.872 265.373 7.048 265.927 7.4C266.482 7.74133 266.909 8.2 267.207 8.776C267.517 9.352 267.671 9.98667 267.671 10.68C267.671 10.7867 267.671 10.904 267.671 11.032C267.671 11.1493 267.666 11.2827 267.655 11.432H261.687C261.741 12.168 261.981 12.728 262.407 13.112C262.834 13.4853 263.335 13.672 263.911 13.672C264.413 13.672 264.807 13.5707 265.095 13.368C265.394 13.1547 265.613 12.8667 265.751 12.504H267.463C267.271 13.2613 266.871 13.9013 266.263 14.424C265.655 14.936 264.877 15.192 263.927 15.192ZM263.927 8.344C263.405 8.344 262.941 8.504 262.535 8.824C262.13 9.13333 261.869 9.57067 261.751 10.136H265.975C265.933 9.60267 265.725 9.17067 265.351 8.84C264.978 8.50933 264.503 8.344 263.927 8.344ZM269.585 15L272.305 11.032L269.489 7.064H271.377L273.425 10.024L275.473 7.064H277.361L274.545 11.032L277.265 15H275.377L273.425 12.04L271.457 15H269.585ZM283.883 15C283.104 15 282.485 14.8133 282.027 14.44C281.568 14.056 281.339 13.3787 281.339 12.408V8.504H279.339V7.064H280.523C281.067 7.064 281.387 6.79733 281.483 6.264L281.723 4.984H283.035V7.064H286.171V8.504H283.035V12.376C283.035 12.792 283.125 13.0853 283.307 13.256C283.499 13.416 283.824 13.496 284.283 13.496H286.139V15H283.883ZM288.901 16.52V15H296.325V16.52H288.901ZM302.318 15.192C301.582 15.192 300.921 15.0213 300.334 14.68C299.758 14.3387 299.305 13.8587 298.974 13.24C298.644 12.6107 298.478 11.8747 298.478 11.032C298.478 10.1893 298.644 9.45867 298.974 8.84C299.316 8.22133 299.774 7.74133 300.35 7.4C300.926 7.048 301.582 6.872 302.318 6.872C303.332 6.872 304.148 7.128 304.766 7.64C305.396 8.14133 305.796 8.83467 305.966 9.72H304.19C304.084 9.336 303.865 9.032 303.534 8.808C303.214 8.584 302.804 8.472 302.302 8.472C301.94 8.472 301.593 8.568 301.262 8.76C300.942 8.952 300.681 9.24 300.478 9.624C300.286 9.99733 300.19 10.4667 300.19 11.032C300.19 11.5867 300.286 12.056 300.478 12.44C300.681 12.824 300.942 13.1173 301.262 13.32C301.593 13.512 301.94 13.608 302.302 13.608C302.814 13.608 303.225 13.496 303.534 13.272C303.844 13.048 304.062 12.7387 304.19 12.344H305.966C305.753 13.2187 305.337 13.912 304.718 14.424C304.1 14.936 303.3 15.192 302.318 15.192ZM311.8 15.192C311.043 15.192 310.365 15.0213 309.768 14.68C309.171 14.3387 308.701 13.8587 308.36 13.24C308.019 12.6107 307.848 11.8747 307.848 11.032C307.848 10.1893 308.019 9.45867 308.36 8.84C308.701 8.21067 309.171 7.72533 309.768 7.384C310.365 7.04267 311.048 6.872 311.816 6.872C312.584 6.872 313.261 7.04267 313.848 7.384C314.445 7.72533 314.909 8.21067 315.24 8.84C315.581 9.45867 315.752 10.1893 315.752 11.032C315.752 11.8747 315.581 12.6107 315.24 13.24C314.899 13.8587 314.429 14.3387 313.832 14.68C313.245 15.0213 312.568 15.192 311.8 15.192ZM311.8 13.576C312.205 13.576 312.579 13.4853 312.92 13.304C313.261 13.1227 313.533 12.8453 313.736 12.472C313.949 12.088 314.056 11.608 314.056 11.032C314.056 10.4453 313.949 9.96533 313.736 9.592C313.533 9.21867 313.261 8.94133 312.92 8.76C312.589 8.57867 312.221 8.488 311.816 8.488C311.411 8.488 311.037 8.57867 310.696 8.76C310.355 8.94133 310.077 9.21867 309.864 9.592C309.661 9.96533 309.56 10.4453 309.56 11.032C309.56 11.9067 309.779 12.552 310.216 12.968C310.664 13.3733 311.192 13.576 311.8 13.576ZM317.682 15V13.528H320.338V5.48C320.338 5.128 320.167 4.952 319.826 4.952H317.906V3.48H320.13C320.748 3.48 321.218 3.64533 321.538 3.976C321.868 4.296 322.034 4.76533 322.034 5.384V13.528H324.706V15H317.682ZM330.988 15.192C330.23 15.192 329.553 15.0213 328.956 14.68C328.358 14.3387 327.889 13.8587 327.548 13.24C327.206 12.6107 327.036 11.8747 327.036 11.032C327.036 10.1893 327.206 9.45867 327.548 8.84C327.889 8.21067 328.358 7.72533 328.956 7.384C329.553 7.04267 330.236 6.872 331.004 6.872C331.772 6.872 332.449 7.04267 333.036 7.384C333.633 7.72533 334.097 8.21067 334.428 8.84C334.769 9.45867 334.94 10.1893 334.94 11.032C334.94 11.8747 334.769 12.6107 334.428 13.24C334.086 13.8587 333.617 14.3387 333.02 14.68C332.433 15.0213 331.756 15.192 330.988 15.192ZM330.988 13.576C331.393 13.576 331.766 13.4853 332.108 13.304C332.449 13.1227 332.721 12.8453 332.924 12.472C333.137 12.088 333.244 11.608 333.244 11.032C333.244 10.4453 333.137 9.96533 332.924 9.592C332.721 9.21867 332.449 8.94133 332.108 8.76C331.777 8.57867 331.409 8.488 331.004 8.488C330.598 8.488 330.225 8.57867 329.884 8.76C329.542 8.94133 329.265 9.21867 329.052 9.592C328.849 9.96533 328.748 10.4453 328.748 11.032C328.748 11.9067 328.966 12.552 329.404 12.968C329.852 13.3733 330.38 13.576 330.988 13.576ZM337.013 15V13.528H338.949V9.064C338.949 8.712 338.779 8.536 338.437 8.536H337.173V7.064H339.077C339.515 7.064 339.872 7.192 340.149 7.448C340.427 7.69333 340.565 8.04 340.565 8.488V8.68H340.645C340.763 8.08267 341.013 7.63467 341.397 7.336C341.792 7.02667 342.363 6.872 343.109 6.872H344.341V8.664H342.613C341.984 8.664 341.499 8.88267 341.157 9.32C340.816 9.75733 340.645 10.28 340.645 10.888V13.528H343.109V15H337.013Z" fill="#49849E"/>
<path d="M5.232 43.192C4.64533 43.192 4.14933 43.0747 3.744 42.84C3.34933 42.5947 3.04533 42.2587 2.832 41.832H2.736L2.592 43H1.136V31.48H2.832V36.088C3.024 35.768 3.328 35.4853 3.744 35.24C4.16 34.9947 4.656 34.872 5.232 34.872C5.89333 34.872 6.48533 35.032 7.008 35.352C7.53067 35.6613 7.94133 36.1253 8.24 36.744C8.54933 37.3627 8.704 38.1253 8.704 39.032C8.704 39.9387 8.54933 40.7013 8.24 41.32C7.94133 41.9387 7.53067 42.408 7.008 42.728C6.48533 43.0373 5.89333 43.192 5.232 43.192ZM4.88 41.576C5.488 41.576 5.98933 41.368 6.384 40.952C6.78933 40.5253 6.992 39.8907 6.992 39.048C6.992 38.1947 6.78933 37.5547 6.384 37.128C5.98933 36.7013 5.488 36.488 4.88 36.488C4.272 36.488 3.76533 36.7013 3.36 37.128C2.96533 37.544 2.768 38.1787 2.768 39.032C2.768 39.8747 2.96533 40.5093 3.36 40.936C3.76533 41.3627 4.272 41.576 4.88 41.576ZM13.6898 43.192C12.7298 43.192 11.9991 42.8987 11.4978 42.312C11.0071 41.7147 10.7618 40.8507 10.7618 39.72V35.064H12.4578V39.512C12.4578 40.1627 12.5964 40.6747 12.8738 41.048C13.1618 41.4107 13.5991 41.592 14.1858 41.592C14.7724 41.592 15.2631 41.3947 15.6578 41C16.0524 40.6053 16.2498 40.0347 16.2498 39.288V35.064H17.9458V43H16.4738L16.3298 41.816H16.2498C16.0364 42.2 15.7058 42.5253 15.2578 42.792C14.8098 43.0587 14.2871 43.192 13.6898 43.192ZM24.8515 43C24.0728 43 23.4542 42.8133 22.9955 42.44C22.5368 42.056 22.3075 41.3787 22.3075 40.408V36.504H20.3075V35.064H21.4915C22.0355 35.064 22.3555 34.7973 22.4515 34.264L22.6915 32.984H24.0035V35.064H27.1395V36.504H24.0035V40.376C24.0035 40.792 24.0942 41.0853 24.2755 41.256C24.4675 41.416 24.7928 41.496 25.2515 41.496H27.1075V43H24.8515ZM34.4453 43C33.6666 43 33.0479 42.8133 32.5893 42.44C32.1306 42.056 31.9013 41.3787 31.9013 40.408V36.504H29.9013V35.064H31.0853C31.6293 35.064 31.9493 34.7973 32.0453 34.264L32.2853 32.984H33.5973V35.064H36.7333V36.504H33.5973V40.376C33.5973 40.792 33.6879 41.0853 33.8693 41.256C34.0613 41.416 34.3866 41.496 34.8453 41.496H36.7013V43H34.4453ZM43.175 43.192C42.4177 43.192 41.7403 43.0213 41.143 42.68C40.5457 42.3387 40.0763 41.8587 39.735 41.24C39.3937 40.6107 39.223 39.8747 39.223 39.032C39.223 38.1893 39.3937 37.4587 39.735 36.84C40.0763 36.2107 40.5457 35.7253 41.143 35.384C41.7403 35.0427 42.423 34.872 43.191 34.872C43.959 34.872 44.6363 35.0427 45.223 35.384C45.8203 35.7253 46.2843 36.2107 46.615 36.84C46.9563 37.4587 47.127 38.1893 47.127 39.032C47.127 39.8747 46.9563 40.6107 46.615 41.24C46.2737 41.8587 45.8043 42.3387 45.207 42.68C44.6203 43.0213 43.943 43.192 43.175 43.192ZM43.175 41.576C43.5803 41.576 43.9537 41.4853 44.295 41.304C44.6363 41.1227 44.9083 40.8453 45.111 40.472C45.3243 40.088 45.431 39.608 45.431 39.032C45.431 38.4453 45.3243 37.9653 45.111 37.592C44.9083 37.2187 44.6363 36.9413 44.295 36.76C43.9643 36.5787 43.5963 36.488 43.191 36.488C42.7857 36.488 42.4123 36.5787 42.071 36.76C41.7297 36.9413 41.4523 37.2187 41.239 37.592C41.0363 37.9653 40.935 38.4453 40.935 39.032C40.935 39.9067 41.1537 40.552 41.591 40.968C42.039 41.3733 42.567 41.576 43.175 41.576ZM49.2168 43V35.064H50.6888L50.8328 36.248H50.9128C51.1261 35.864 51.4568 35.5387 51.9048 35.272C52.3528 35.0053 52.8701 34.872 53.4568 34.872C54.4274 34.872 55.1581 35.1653 55.6488 35.752C56.1394 36.3387 56.3848 37.2027 56.3848 38.344V43H54.6888V38.552C54.6888 37.8907 54.5501 37.3787 54.2728 37.016C53.9954 36.6533 53.5581 36.472 52.9608 36.472C52.3741 36.472 51.8834 36.6693 51.4888 37.064C51.1048 37.4587 50.9128 38.0293 50.9128 38.776V43H49.2168Z" fill="#216BE6"/>
<path d="M58.6505 44.52V43H66.0745V44.52H58.6505ZM68.2443 44.52V43H75.6683V44.52H68.2443ZM135.401 44.52V43H142.825V44.52H135.401ZM144.994 44.52V43H152.418V44.52H144.994ZM202.557 44.52V43H209.981V44.52H202.557ZM212.151 44.52V43H219.575V44.52H212.151Z" fill="#0E0E2C"/>
<path d="M77.15 43V35.064H78.558L78.702 35.992H78.782C78.9207 35.6613 79.134 35.3947 79.422 35.192C79.71 34.9787 80.0513 34.872 80.446 34.872C80.83 34.872 81.166 34.968 81.454 35.16C81.742 35.352 81.9553 35.6293 82.094 35.992H82.158C82.2967 35.672 82.5153 35.4053 82.814 35.192C83.1127 34.9787 83.4807 34.872 83.918 34.872C84.5047 34.872 84.9473 35.064 85.246 35.448C85.5553 35.832 85.71 36.3707 85.71 37.064V43H84.078V37.4C84.078 37.08 84.0087 36.8293 83.87 36.648C83.742 36.456 83.534 36.36 83.246 36.36C82.958 36.36 82.718 36.472 82.526 36.696C82.3447 36.92 82.254 37.2347 82.254 37.64V43H80.606V37.4C80.606 37.08 80.542 36.8293 80.414 36.648C80.286 36.456 80.078 36.36 79.79 36.36C79.502 36.36 79.262 36.472 79.07 36.696C78.878 36.92 78.782 37.2347 78.782 37.64V43H77.15ZM91.2398 43.192C90.4718 43.192 89.7944 43.0213 89.2078 42.68C88.6211 42.328 88.1624 41.8427 87.8318 41.224C87.5011 40.6053 87.3358 39.8853 87.3358 39.064C87.3358 38.232 87.4958 37.5013 87.8158 36.872C88.1464 36.2427 88.6051 35.752 89.1918 35.4C89.7891 35.048 90.4771 34.872 91.2558 34.872C92.0238 34.872 92.6851 35.048 93.2398 35.4C93.7944 35.7413 94.2211 36.2 94.5198 36.776C94.8291 37.352 94.9838 37.9867 94.9838 38.68C94.9838 38.7867 94.9838 38.904 94.9838 39.032C94.9838 39.1493 94.9784 39.2827 94.9678 39.432H88.9998C89.0531 40.168 89.2931 40.728 89.7198 41.112C90.1464 41.4853 90.6478 41.672 91.2238 41.672C91.7251 41.672 92.1198 41.5707 92.4078 41.368C92.7064 41.1547 92.9251 40.8667 93.0638 40.504H94.7758C94.5838 41.2613 94.1838 41.9013 93.5758 42.424C92.9678 42.936 92.1891 43.192 91.2398 43.192ZM91.2398 36.344C90.7171 36.344 90.2531 36.504 89.8478 36.824C89.4424 37.1333 89.1811 37.5707 89.0638 38.136H93.2878C93.2451 37.6027 93.0371 37.1707 92.6638 36.84C92.2904 36.5093 91.8158 36.344 91.2398 36.344ZM100.306 43.192C99.6442 43.192 99.0522 43.0373 98.5295 42.728C98.0068 42.408 97.5908 41.9387 97.2815 41.32C96.9828 40.7013 96.8335 39.9387 96.8335 39.032C96.8335 38.1253 96.9882 37.3627 97.2975 36.744C97.6068 36.1253 98.0228 35.6613 98.5455 35.352C99.0788 35.032 99.6708 34.872 100.322 34.872C100.93 34.872 101.431 34.9893 101.826 35.224C102.22 35.448 102.514 35.736 102.706 36.088V31.48H104.402V43H102.946L102.802 41.832H102.706C102.492 42.248 102.188 42.5787 101.794 42.824C101.41 43.0693 100.914 43.192 100.306 43.192ZM100.658 41.576C101.266 41.576 101.767 41.3627 102.162 40.936C102.567 40.5093 102.77 39.8747 102.77 39.032C102.77 38.1787 102.567 37.544 102.162 37.128C101.767 36.7013 101.266 36.488 100.658 36.488C100.05 36.488 99.5428 36.7013 99.1375 37.128C98.7428 37.5547 98.5455 38.1947 98.5455 39.048C98.5455 39.8907 98.7428 40.5253 99.1375 40.952C99.5428 41.368 100.05 41.576 100.658 41.576ZM110.171 33.848C109.798 33.848 109.483 33.7307 109.227 33.496C108.982 33.2507 108.859 32.952 108.859 32.6C108.859 32.248 108.982 31.9547 109.227 31.72C109.483 31.4853 109.798 31.368 110.171 31.368C110.555 31.368 110.87 31.4853 111.115 31.72C111.371 31.9547 111.499 32.248 111.499 32.6C111.499 32.952 111.371 33.2507 111.115 33.496C110.87 33.7307 110.555 33.848 110.171 33.848ZM106.987 43V41.528H109.483V37.064C109.483 36.712 109.313 36.536 108.971 36.536H107.211V35.064H109.275C109.937 35.064 110.417 35.2187 110.715 35.528C111.025 35.8267 111.179 36.3067 111.179 36.968V41.528H113.675V43H106.987ZM119.221 43.192C118.261 43.192 117.53 42.8987 117.029 42.312C116.538 41.7147 116.293 40.8507 116.293 39.72V35.064H117.989V39.512C117.989 40.1627 118.128 40.6747 118.405 41.048C118.693 41.4107 119.13 41.592 119.717 41.592C120.304 41.592 120.794 41.3947 121.189 41C121.584 40.6053 121.781 40.0347 121.781 39.288V35.064H123.477V43H122.005L121.861 41.816H121.781C121.568 42.2 121.237 42.5253 120.789 42.792C120.341 43.0587 119.818 43.192 119.221 43.192ZM125.119 43V35.064H126.527L126.671 35.992H126.751C126.889 35.6613 127.103 35.3947 127.391 35.192C127.679 34.9787 128.02 34.872 128.415 34.872C128.799 34.872 129.135 34.968 129.423 35.16C129.711 35.352 129.924 35.6293 130.063 35.992H130.127C130.265 35.672 130.484 35.4053 130.783 35.192C131.081 34.9787 131.449 34.872 131.887 34.872C132.473 34.872 132.916 35.064 133.215 35.448C133.524 35.832 133.679 36.3707 133.679 37.064V43H132.047V37.4C132.047 37.08 131.977 36.8293 131.839 36.648C131.711 36.456 131.503 36.36 131.215 36.36C130.927 36.36 130.687 36.472 130.495 36.696C130.313 36.92 130.223 37.2347 130.223 37.64V43H128.575V37.4C128.575 37.08 128.511 36.8293 128.383 36.648C128.255 36.456 128.047 36.36 127.759 36.36C127.471 36.36 127.231 36.472 127.039 36.696C126.847 36.92 126.751 37.2347 126.751 37.64V43H125.119ZM154.588 43V41.528H157.244V33.48C157.244 33.128 157.073 32.952 156.732 32.952H154.812V31.48H157.036C157.655 31.48 158.124 31.6453 158.444 31.976C158.775 32.296 158.94 32.7653 158.94 33.384V41.528H161.612V43H154.588ZM167.174 43.192C166.544 43.192 166.016 43.0853 165.59 42.872C165.163 42.648 164.843 42.3547 164.63 41.992C164.416 41.6187 164.31 41.2133 164.31 40.776C164.31 39.9973 164.592 39.3893 165.158 38.952C165.734 38.5147 166.544 38.296 167.59 38.296H169.638V38.12C169.638 36.9253 169.083 36.328 167.974 36.328C167.515 36.328 167.126 36.4293 166.806 36.632C166.496 36.824 166.288 37.1387 166.182 37.576H164.486C164.571 36.744 164.928 36.088 165.558 35.608C166.198 35.1173 167.003 34.872 167.974 34.872C169.147 34.872 170 35.16 170.534 35.736C171.067 36.312 171.334 37.1067 171.334 38.12V43H169.894L169.75 41.832H169.638C169.403 42.2053 169.11 42.5253 168.758 42.792C168.406 43.0587 167.878 43.192 167.174 43.192ZM167.494 41.768C168.187 41.768 168.704 41.56 169.046 41.144C169.398 40.7173 169.59 40.1787 169.622 39.528H167.766C167.158 39.528 166.726 39.6293 166.47 39.832C166.224 40.024 166.102 40.296 166.102 40.648C166.102 41 166.224 41.2773 166.47 41.48C166.726 41.672 167.067 41.768 167.494 41.768ZM177.92 43.192C177.333 43.192 176.837 43.0747 176.432 42.84C176.037 42.5947 175.733 42.2587 175.52 41.832H175.424L175.28 43H173.824V31.48H175.52V36.088C175.712 35.768 176.016 35.4853 176.432 35.24C176.848 34.9947 177.344 34.872 177.92 34.872C178.581 34.872 179.173 35.032 179.696 35.352C180.218 35.6613 180.629 36.1253 180.928 36.744C181.237 37.3627 181.392 38.1253 181.392 39.032C181.392 39.9387 181.237 40.7013 180.928 41.32C180.629 41.9387 180.218 42.408 179.696 42.728C179.173 43.0373 178.581 43.192 177.92 43.192ZM177.568 41.576C178.176 41.576 178.677 41.368 179.072 40.952C179.477 40.5253 179.68 39.8907 179.68 39.048C179.68 38.1947 179.477 37.5547 179.072 37.128C178.677 36.7013 178.176 36.488 177.568 36.488C176.96 36.488 176.453 36.7013 176.048 37.128C175.653 37.544 175.456 38.1787 175.456 39.032C175.456 39.8747 175.653 40.5093 176.048 40.936C176.453 41.3627 176.96 41.576 177.568 41.576ZM187.177 43.192C186.409 43.192 185.732 43.0213 185.145 42.68C184.559 42.328 184.1 41.8427 183.769 41.224C183.439 40.6053 183.273 39.8853 183.273 39.064C183.273 38.232 183.433 37.5013 183.753 36.872C184.084 36.2427 184.543 35.752 185.129 35.4C185.727 35.048 186.415 34.872 187.193 34.872C187.961 34.872 188.623 35.048 189.177 35.4C189.732 35.7413 190.159 36.2 190.457 36.776C190.767 37.352 190.921 37.9867 190.921 38.68C190.921 38.7867 190.921 38.904 190.921 39.032C190.921 39.1493 190.916 39.2827 190.905 39.432H184.937C184.991 40.168 185.231 40.728 185.657 41.112C186.084 41.4853 186.585 41.672 187.161 41.672C187.663 41.672 188.057 41.5707 188.345 41.368C188.644 41.1547 188.863 40.8667 189.001 40.504H190.713C190.521 41.2613 190.121 41.9013 189.513 42.424C188.905 42.936 188.127 43.192 187.177 43.192ZM187.177 36.344C186.655 36.344 186.191 36.504 185.785 36.824C185.38 37.1333 185.119 37.5707 185.001 38.136H189.225C189.183 37.6027 188.975 37.1707 188.601 36.84C188.228 36.5093 187.753 36.344 187.177 36.344ZM192.963 43V41.528H195.619V33.48C195.619 33.128 195.448 32.952 195.107 32.952H193.187V31.48H195.411C196.03 31.48 196.499 31.6453 196.819 31.976C197.15 32.296 197.315 32.7653 197.315 33.384V41.528H199.987V43H192.963Z" fill="#EC396A"/>
<path d="M221.76 46.52V45.032H223.056C223.43 45.032 223.696 44.952 223.856 44.792C224.027 44.6427 224.112 44.3867 224.112 44.024V36.504H222.096V35.064H224.112V33.96C224.112 33.0747 224.331 32.44 224.768 32.056C225.206 31.672 225.83 31.48 226.64 31.48H228.576V32.968H226.848C226.475 32.968 226.208 33.0427 226.048 33.192C225.888 33.3413 225.808 33.6027 225.808 33.976V35.064H228.576V36.504H225.808V44.04C225.808 44.9253 225.59 45.56 225.152 45.944C224.715 46.328 224.086 46.52 223.264 46.52H221.76ZM235.05 43.192C234.293 43.192 233.615 43.0213 233.018 42.68C232.421 42.3387 231.951 41.8587 231.61 41.24C231.269 40.6107 231.098 39.8747 231.098 39.032C231.098 38.1893 231.269 37.4587 231.61 36.84C231.951 36.2107 232.421 35.7253 233.018 35.384C233.615 35.0427 234.298 34.872 235.066 34.872C235.834 34.872 236.511 35.0427 237.098 35.384C237.695 35.7253 238.159 36.2107 238.49 36.84C238.831 37.4587 239.002 38.1893 239.002 39.032C239.002 39.8747 238.831 40.6107 238.49 41.24C238.149 41.8587 237.679 42.3387 237.082 42.68C236.495 43.0213 235.818 43.192 235.05 43.192ZM235.05 41.576C235.455 41.576 235.829 41.4853 236.17 41.304C236.511 41.1227 236.783 40.8453 236.986 40.472C237.199 40.088 237.306 39.608 237.306 39.032C237.306 38.4453 237.199 37.9653 236.986 37.592C236.783 37.2187 236.511 36.9413 236.17 36.76C235.839 36.5787 235.471 36.488 235.066 36.488C234.661 36.488 234.287 36.5787 233.946 36.76C233.605 36.9413 233.327 37.2187 233.114 37.592C232.911 37.9653 232.81 38.4453 232.81 39.032C232.81 39.9067 233.029 40.552 233.466 40.968C233.914 41.3733 234.442 41.576 235.05 41.576ZM241.092 43V35.064H242.564L242.708 36.248H242.788C243.001 35.864 243.332 35.5387 243.78 35.272C244.228 35.0053 244.745 34.872 245.332 34.872C246.302 34.872 247.033 35.1653 247.524 35.752C248.014 36.3387 248.26 37.2027 248.26 38.344V43H246.564V38.552C246.564 37.8907 246.425 37.3787 246.148 37.016C245.87 36.6533 245.433 36.472 244.836 36.472C244.249 36.472 243.758 36.6693 243.364 37.064C242.98 37.4587 242.788 38.0293 242.788 38.776V43H241.092ZM255.102 43C254.323 43 253.704 42.8133 253.246 42.44C252.787 42.056 252.558 41.3787 252.558 40.408V36.504H250.558V35.064H251.742C252.286 35.064 252.606 34.7973 252.702 34.264L252.942 32.984H254.254V35.064H257.39V36.504H254.254V40.376C254.254 40.792 254.344 41.0853 254.526 41.256C254.718 41.416 255.043 41.496 255.502 41.496H257.358V43H255.102Z" fill="#49849E"/>
<path d="M5.232 99.192C4.64533 99.192 4.14933 99.0747 3.744 98.84C3.34933 98.5947 3.04533 98.2587 2.832 97.832H2.736L2.592 99H1.136V87.48H2.832V92.088C3.024 91.768 3.328 91.4853 3.744 91.24C4.16 90.9947 4.656 90.872 5.232 90.872C5.89333 90.872 6.48533 91.032 7.008 91.352C7.53067 91.6613 7.94133 92.1253 8.24 92.744C8.54933 93.3627 8.704 94.1253 8.704 95.032C8.704 95.9387 8.54933 96.7013 8.24 97.32C7.94133 97.9387 7.53067 98.408 7.008 98.728C6.48533 99.0373 5.89333 99.192 5.232 99.192ZM4.88 97.576C5.488 97.576 5.98933 97.368 6.384 96.952C6.78933 96.5253 6.992 95.8907 6.992 95.048C6.992 94.1947 6.78933 93.5547 6.384 93.128C5.98933 92.7013 5.488 92.488 4.88 92.488C4.272 92.488 3.76533 92.7013 3.36 93.128C2.96533 93.544 2.768 94.1787 2.768 95.032C2.768 95.8747 2.96533 96.5093 3.36 96.936C3.76533 97.3627 4.272 97.576 4.88 97.576ZM13.6898 99.192C12.7298 99.192 11.9991 98.8987 11.4978 98.312C11.0071 97.7147 10.7618 96.8507 10.7618 95.72V91.064H12.4578V95.512C12.4578 96.1627 12.5964 96.6747 12.8738 97.048C13.1618 97.4107 13.5991 97.592 14.1858 97.592C14.7724 97.592 15.2631 97.3947 15.6578 97C16.0524 96.6053 16.2498 96.0347 16.2498 95.288V91.064H17.9458V99H16.4738L16.3298 97.816H16.2498C16.0364 98.2 15.7058 98.5253 15.2578 98.792C14.8098 99.0587 14.2871 99.192 13.6898 99.192ZM24.8515 99C24.0728 99 23.4542 98.8133 22.9955 98.44C22.5368 98.056 22.3075 97.3787 22.3075 96.408V92.504H20.3075V91.064H21.4915C22.0355 91.064 22.3555 90.7973 22.4515 90.264L22.6915 88.984H24.0035V91.064H27.1395V92.504H24.0035V96.376C24.0035 96.792 24.0942 97.0853 24.2755 97.256C24.4675 97.416 24.7928 97.496 25.2515 97.496H27.1075V99H24.8515ZM34.4453 99C33.6666 99 33.0479 98.8133 32.5893 98.44C32.1306 98.056 31.9013 97.3787 31.9013 96.408V92.504H29.9013V91.064H31.0853C31.6293 91.064 31.9493 90.7973 32.0453 90.264L32.2853 88.984H33.5973V91.064H36.7333V92.504H33.5973V96.376C33.5973 96.792 33.6879 97.0853 33.8693 97.256C34.0613 97.416 34.3866 97.496 34.8453 97.496H36.7013V99H34.4453ZM43.175 99.192C42.4177 99.192 41.7403 99.0213 41.143 98.68C40.5457 98.3387 40.0763 97.8587 39.735 97.24C39.3937 96.6107 39.223 95.8747 39.223 95.032C39.223 94.1893 39.3937 93.4587 39.735 92.84C40.0763 92.2107 40.5457 91.7253 41.143 91.384C41.7403 91.0427 42.423 90.872 43.191 90.872C43.959 90.872 44.6363 91.0427 45.223 91.384C45.8203 91.7253 46.2843 92.2107 46.615 92.84C46.9563 93.4587 47.127 94.1893 47.127 95.032C47.127 95.8747 46.9563 96.6107 46.615 97.24C46.2737 97.8587 45.8043 98.3387 45.207 98.68C44.6203 99.0213 43.943 99.192 43.175 99.192ZM43.175 97.576C43.5803 97.576 43.9537 97.4853 44.295 97.304C44.6363 97.1227 44.9083 96.8453 45.111 96.472C45.3243 96.088 45.431 95.608 45.431 95.032C45.431 94.4453 45.3243 93.9653 45.111 93.592C44.9083 93.2187 44.6363 92.9413 44.295 92.76C43.9643 92.5787 43.5963 92.488 43.191 92.488C42.7857 92.488 42.4123 92.5787 42.071 92.76C41.7297 92.9413 41.4523 93.2187 41.239 93.592C41.0363 93.9653 40.935 94.4453 40.935 95.032C40.935 95.9067 41.1537 96.552 41.591 96.968C42.039 97.3733 42.567 97.576 43.175 97.576ZM49.2168 99V91.064H50.6888L50.8328 92.248H50.9128C51.1261 91.864 51.4568 91.5387 51.9048 91.272C52.3528 91.0053 52.8701 90.872 53.4568 90.872C54.4274 90.872 55.1581 91.1653 55.6488 91.752C56.1394 92.3387 56.3848 93.2027 56.3848 94.344V99H54.6888V94.552C54.6888 93.8907 54.5501 93.3787 54.2728 93.016C53.9954 92.6533 53.5581 92.472 52.9608 92.472C52.3741 92.472 51.8834 92.6693 51.4888 93.064C51.1048 93.4587 50.9128 94.0293 50.9128 94.776V99H49.2168Z" fill="#216BE6"/>
<path d="M58.6505 100.52V99H66.0745V100.52H58.6505ZM68.2443 100.52V99H75.6683V100.52H68.2443Z" fill="#0E0E2C"/>
<path d="M81.662 99.192C80.926 99.192 80.2647 99.0213 79.678 98.68C79.102 98.3387 78.6487 97.8587 78.318 97.24C77.9873 96.6107 77.822 95.8747 77.822 95.032C77.822 94.1893 77.9873 93.4587 78.318 92.84C78.6593 92.2213 79.118 91.7413 79.694 91.4C80.27 91.048 80.926 90.872 81.662 90.872C82.6753 90.872 83.4913 91.128 84.11 91.64C84.7393 92.1413 85.1393 92.8347 85.31 93.72H83.534C83.4273 93.336 83.2087 93.032 82.878 92.808C82.558 92.584 82.1473 92.472 81.646 92.472C81.2833 92.472 80.9367 92.568 80.606 92.76C80.286 92.952 80.0247 93.24 79.822 93.624C79.63 93.9973 79.534 94.4667 79.534 95.032C79.534 95.5867 79.63 96.056 79.822 96.44C80.0247 96.824 80.286 97.1173 80.606 97.32C80.9367 97.512 81.2833 97.608 81.646 97.608C82.158 97.608 82.5687 97.496 82.878 97.272C83.1873 97.048 83.406 96.7387 83.534 96.344H85.31C85.0967 97.2187 84.6807 97.912 84.062 98.424C83.4433 98.936 82.6433 99.192 81.662 99.192ZM91.1438 99.192C90.3864 99.192 89.7091 99.0213 89.1118 98.68C88.5144 98.3387 88.0451 97.8587 87.7038 97.24C87.3624 96.6107 87.1918 95.8747 87.1918 95.032C87.1918 94.1893 87.3624 93.4587 87.7038 92.84C88.0451 92.2107 88.5144 91.7253 89.1118 91.384C89.7091 91.0427 90.3918 90.872 91.1598 90.872C91.9278 90.872 92.6051 91.0427 93.1918 91.384C93.7891 91.7253 94.2531 92.2107 94.5838 92.84C94.9251 93.4587 95.0958 94.1893 95.0958 95.032C95.0958 95.8747 94.9251 96.6107 94.5838 97.24C94.2424 97.8587 93.7731 98.3387 93.1758 98.68C92.5891 99.0213 91.9118 99.192 91.1438 99.192ZM91.1438 97.576C91.5491 97.576 91.9224 97.4853 92.2638 97.304C92.6051 97.1227 92.8771 96.8453 93.0798 96.472C93.2931 96.088 93.3998 95.608 93.3998 95.032C93.3998 94.4453 93.2931 93.9653 93.0798 93.592C92.8771 93.2187 92.6051 92.9413 92.2638 92.76C91.9331 92.5787 91.5651 92.488 91.1598 92.488C90.7544 92.488 90.3811 92.5787 90.0398 92.76C89.6984 92.9413 89.4211 93.2187 89.2078 93.592C89.0051 93.9653 88.9038 94.4453 88.9038 95.032C88.9038 95.9067 89.1224 96.552 89.5598 96.968C90.0078 97.3733 90.5358 97.576 91.1438 97.576ZM97.1695 99V97.528H99.1055V93.064C99.1055 92.712 98.9348 92.536 98.5935 92.536H97.3295V91.064H99.2335C99.6708 91.064 100.028 91.192 100.306 91.448C100.583 91.6933 100.722 92.04 100.722 92.488V92.68H100.802C100.919 92.0827 101.17 91.6347 101.554 91.336C101.948 91.0267 102.519 90.872 103.266 90.872H104.498V92.664H102.77C102.14 92.664 101.655 92.8827 101.314 93.32C100.972 93.7573 100.802 94.28 100.802 94.888V97.528H103.266V99H97.1695ZM106.779 99V91.064H108.251L108.395 92.248H108.475C108.689 91.864 109.019 91.5387 109.467 91.272C109.915 91.0053 110.433 90.872 111.019 90.872C111.99 90.872 112.721 91.1653 113.211 91.752C113.702 92.3387 113.947 93.2027 113.947 94.344V99H112.251V94.552C112.251 93.8907 112.113 93.3787 111.835 93.016C111.558 92.6533 111.121 92.472 110.523 92.472C109.937 92.472 109.446 92.6693 109.051 93.064C108.667 93.4587 108.475 94.0293 108.475 94.776V99H106.779ZM120.021 99.192C119.253 99.192 118.576 99.0213 117.989 98.68C117.402 98.328 116.944 97.8427 116.613 97.224C116.282 96.6053 116.117 95.8853 116.117 95.064C116.117 94.232 116.277 93.5013 116.597 92.872C116.928 92.2427 117.386 91.752 117.973 91.4C118.57 91.048 119.258 90.872 120.037 90.872C120.805 90.872 121.466 91.048 122.021 91.4C122.576 91.7413 123.002 92.2 123.301 92.776C123.61 93.352 123.765 93.9867 123.765 94.68C123.765 94.7867 123.765 94.904 123.765 95.032C123.765 95.1493 123.76 95.2827 123.749 95.432H117.781C117.834 96.168 118.074 96.728 118.501 97.112C118.928 97.4853 119.429 97.672 120.005 97.672C120.506 97.672 120.901 97.5707 121.189 97.368C121.488 97.1547 121.706 96.8667 121.845 96.504H123.557C123.365 97.2613 122.965 97.9013 122.357 98.424C121.749 98.936 120.97 99.192 120.021 99.192ZM120.021 92.344C119.498 92.344 119.034 92.504 118.629 92.824C118.224 93.1333 117.962 93.5707 117.845 94.136H122.069C122.026 93.6027 121.818 93.1707 121.445 92.84C121.072 92.5093 120.597 92.344 120.021 92.344ZM125.951 99V97.528H127.887V93.064C127.887 92.712 127.716 92.536 127.375 92.536H126.111V91.064H128.015C128.452 91.064 128.809 91.192 129.087 91.448C129.364 91.6933 129.503 92.04 129.503 92.488V92.68H129.583C129.7 92.0827 129.951 91.6347 130.335 91.336C130.729 91.0267 131.3 90.872 132.047 90.872H133.279V92.664H131.551C130.921 92.664 130.436 92.8827 130.095 93.32C129.753 93.7573 129.583 94.28 129.583 94.888V97.528H132.047V99H125.951ZM135.401 100.52V99H142.825V100.52H135.401ZM145.138 99V97.528H147.074V93.064C147.074 92.712 146.904 92.536 146.562 92.536H145.298V91.064H147.202C147.64 91.064 147.997 91.192 148.274 91.448C148.552 91.6933 148.69 92.04 148.69 92.488V92.68H148.77C148.888 92.0827 149.138 91.6347 149.522 91.336C149.917 91.0267 150.488 90.872 151.234 90.872H152.466V92.664H150.738C150.109 92.664 149.624 92.8827 149.282 93.32C148.941 93.7573 148.77 94.28 148.77 94.888V97.528H151.234V99H145.138ZM157.58 99.192C156.951 99.192 156.423 99.0853 155.996 98.872C155.569 98.648 155.249 98.3547 155.036 97.992C154.823 97.6187 154.716 97.2133 154.716 96.776C154.716 95.9973 154.999 95.3893 155.564 94.952C156.14 94.5147 156.951 94.296 157.996 94.296H160.044V94.12C160.044 92.9253 159.489 92.328 158.38 92.328C157.921 92.328 157.532 92.4293 157.212 92.632C156.903 92.824 156.695 93.1387 156.588 93.576H154.892C154.977 92.744 155.335 92.088 155.964 91.608C156.604 91.1173 157.409 90.872 158.38 90.872C159.553 90.872 160.407 91.16 160.94 91.736C161.473 92.312 161.74 93.1067 161.74 94.12V99H160.3L160.156 97.832H160.044C159.809 98.2053 159.516 98.5253 159.164 98.792C158.812 99.0587 158.284 99.192 157.58 99.192ZM157.9 97.768C158.593 97.768 159.111 97.56 159.452 97.144C159.804 96.7173 159.996 96.1787 160.028 95.528H158.172C157.564 95.528 157.132 95.6293 156.876 95.832C156.631 96.024 156.508 96.296 156.508 96.648C156.508 97 156.631 97.2773 156.876 97.48C157.132 97.672 157.473 97.768 157.9 97.768ZM167.462 99.192C166.8 99.192 166.208 99.0373 165.686 98.728C165.163 98.408 164.747 97.9387 164.438 97.32C164.139 96.7013 163.99 95.9387 163.99 95.032C163.99 94.1253 164.144 93.3627 164.454 92.744C164.763 92.1253 165.179 91.6613 165.702 91.352C166.235 91.032 166.827 90.872 167.478 90.872C168.086 90.872 168.587 90.9893 168.982 91.224C169.376 91.448 169.67 91.736 169.862 92.088V87.48H171.558V99H170.102L169.958 97.832H169.862C169.648 98.248 169.344 98.5787 168.95 98.824C168.566 99.0693 168.07 99.192 167.462 99.192ZM167.814 97.576C168.422 97.576 168.923 97.3627 169.318 96.936C169.723 96.5093 169.926 95.8747 169.926 95.032C169.926 94.1787 169.723 93.544 169.318 93.128C168.923 92.7013 168.422 92.488 167.814 92.488C167.206 92.488 166.699 92.7013 166.294 93.128C165.899 93.5547 165.702 94.1947 165.702 95.048C165.702 95.8907 165.899 96.5253 166.294 96.952C166.699 97.368 167.206 97.576 167.814 97.576ZM177.328 89.848C176.954 89.848 176.64 89.7307 176.384 89.496C176.138 89.2507 176.016 88.952 176.016 88.6C176.016 88.248 176.138 87.9547 176.384 87.72C176.64 87.4853 176.954 87.368 177.328 87.368C177.712 87.368 178.026 87.4853 178.272 87.72C178.528 87.9547 178.656 88.248 178.656 88.6C178.656 88.952 178.528 89.2507 178.272 89.496C178.026 89.7307 177.712 89.848 177.328 89.848ZM174.144 99V97.528H176.64V93.064C176.64 92.712 176.469 92.536 176.128 92.536H174.368V91.064H176.432C177.093 91.064 177.573 91.2187 177.872 91.528C178.181 91.8267 178.336 92.3067 178.336 92.968V97.528H180.832V99H174.144ZM186.377 99.192C185.417 99.192 184.687 98.8987 184.185 98.312C183.695 97.7147 183.449 96.8507 183.449 95.72V91.064H185.145V95.512C185.145 96.1627 185.284 96.6747 185.561 97.048C185.849 97.4107 186.287 97.592 186.873 97.592C187.46 97.592 187.951 97.3947 188.345 97C188.74 96.6053 188.937 96.0347 188.937 95.288V91.064H190.633V99H189.161L189.017 97.816H188.937C188.724 98.2 188.393 98.5253 187.945 98.792C187.497 99.0587 186.975 99.192 186.377 99.192ZM196.739 99.192C195.694 99.192 194.862 98.9467 194.243 98.456C193.624 97.9653 193.272 97.3147 193.187 96.504H194.931C194.995 96.8773 195.182 97.1813 195.491 97.416C195.811 97.6507 196.232 97.768 196.755 97.768C197.256 97.768 197.64 97.6667 197.907 97.464C198.184 97.2507 198.323 97.0053 198.323 96.728C198.323 96.3227 198.158 96.0453 197.827 95.896C197.507 95.7467 197.032 95.6347 196.403 95.56C195.859 95.496 195.363 95.3733 194.915 95.192C194.478 95 194.131 94.744 193.875 94.424C193.619 94.0933 193.491 93.6827 193.491 93.192C193.491 92.4987 193.763 91.9387 194.307 91.512C194.851 91.0853 195.608 90.872 196.579 90.872C197.55 90.872 198.302 91.0907 198.835 91.528C199.368 91.9653 199.678 92.5627 199.763 93.32H198.131C198.088 93 197.923 92.7493 197.635 92.568C197.347 92.376 196.99 92.28 196.563 92.28C196.126 92.28 195.779 92.3653 195.523 92.536C195.267 92.696 195.139 92.9093 195.139 93.176C195.139 93.752 195.758 94.104 196.995 94.232C197.582 94.296 198.104 94.408 198.563 94.568C199.022 94.7173 199.384 94.9573 199.651 95.288C199.918 95.608 200.051 96.0613 200.051 96.648C200.062 97.128 199.923 97.56 199.635 97.944C199.358 98.328 198.968 98.632 198.467 98.856C197.976 99.08 197.4 99.192 196.739 99.192Z" fill="#49849E"/>
</svg>
