<svg id="Layer_1" data-name="Layer 1" xmlns="http://www.w3.org/2000/svg" xmlns:xlink="http://www.w3.org/1999/xlink" viewBox="0 0 1098.91 1033.11"><defs><style>.cls-1{fill:url(#Áåçûìÿííûé_ãðàäèåíò_6);}.cls-2{fill:url(#Áåçûìÿííûé_ãðàäèåíò_6-2);}.cls-3{fill:#5d9656;}.cls-4{fill:url(#Áåçûìÿííûé_ãðàäèåíò_2);}.cls-5{fill:url(#Áåçûìÿííûé_ãðàäèåíò_5);}.cls-6{fill:url(#Áåçûìÿííûé_ãðàäèåíò_3);}.cls-7{fill:url(#Áåçûìÿííûé_ãðàäèåíò_4);}.cls-8{fill:url(#Áåçûìÿííûé_ãðàäèåíò_3-2);}.cls-9{fill:url(#Áåçûìÿííûé_ãðàäèåíò_2-2);}</style><linearGradient id="Áåçûìÿííûé_ãðàäèåíò_6" y1="766.22" x2="519.11" y2="766.22" gradientUnits="userSpaceOnUse"><stop offset="0" stop-color="#b5ceb1"/><stop offset="1" stop-color="#a5ef9c"/></linearGradient><linearGradient id="Áåçûìÿííûé_ãðàäèåíò_6-2" x1="621.37" y1="660.97" x2="1098.91" y2="660.97" xlink:href="#Áåçûìÿííûé_ãðàäèåíò_6"/><linearGradient id="Áåçûìÿííûé_ãðàäèåíò_2" x1="312.12" y1="467.64" x2="810.79" y2="1051.99" gradientUnits="userSpaceOnUse"><stop offset="0" stop-color="#4fe54e"/><stop offset="1" stop-color="#5d9656"/></linearGradient><linearGradient id="Áåçûìÿííûé_ãðàäèåíò_5" x1="493.03" y1="406.3" x2="605.25" y2="406.3" gradientUnits="userSpaceOnUse"><stop offset="0" stop-color="#ff8d8d"/><stop offset="1" stop-color="#fff"/></linearGradient><linearGradient id="Áåçûìÿííûé_ãðàäèåíò_3" x1="457.05" y1="301.25" x2="613.01" y2="301.25" gradientUnits="userSpaceOnUse"><stop offset="0" stop-color="#f99"/><stop offset="1" stop-color="#ff7474"/></linearGradient><linearGradient id="Áåçûìÿííûé_ãðàäèåíò_4" x1="447.9" y1="214.9" x2="658.25" y2="214.9" gradientUnits="userSpaceOnUse"><stop offset="0" stop-color="#b57863"/><stop offset="1" stop-color="#aa634b"/></linearGradient><linearGradient id="Áåçûìÿííûé_ãðàäèåíò_3-2" x1="522.14" y1="470.41" x2="584.01" y2="470.41" xlink:href="#Áåçûìÿííûé_ãðàäèåíò_3"/><linearGradient id="Áåçûìÿííûé_ãðàäèåíò_2-2" x1="339.53" y1="581.89" x2="603.03" y2="827.01" xlink:href="#Áåçûìÿííûé_ãðàäèåíò_2"/></defs><path class="cls-1" d="M302.73,1015.73s-157.57,34.94-204.06-52,43.14-43.45,102-40.42S256,868.61,155.89,816.93s-211-182.15-125.16-242.38S180.46,726.84,221.44,720.87s-79.79-175.55,0-206.19S324.86,603.44,347.65,689,463.42,786.2,506.33,862.46,484.75,1040.61,302.73,1015.73Z"/><path class="cls-2" d="M701.06,1018.86c17.49,3.49,160.13,7.56,237.58-34.74S1070.13,801,989.17,831.39c-119.79,44.93-238.33,1.05-124.3-83.66S1175,432.53,1068,358.84c-87.19-60-161.43-45.67-177.9,56.46S886.35,592,839.51,616.56s-87.9-89.89-44-158-7.11-193.32-71.42-147.76-55.09,100-65.89,243.18S559.51,990.56,701.06,1018.86Z"/><path class="cls-3" d="M772.21,205a17.18,17.18,0,0,1-12.62-5.52A17.42,17.42,0,0,1,754.16,187q0-12.09,22.43-29.79l41.88-31.55q22.6-19.45,22.61-35.57,0-20.33-19.1-37.51-18.4-16.64-39.08-16.64-11,0-28,11.3t-21,11.3a16.06,16.06,0,0,1-12.36-5.78,19,19,0,0,1-5.17-13q0-13.84,26.82-27.51Q767.12,0,782.9,0q35.22,0,64,27.52T875.6,90.08a69,69,0,0,1-16.47,45.39q-9.82,11.91-36.45,30.84-26.82,19.45-37.33,31.54Q779.21,205.05,772.21,205Zm-9.64,66.59a21.21,21.21,0,0,1-13.93-5.17q-6.23-5.18-6.23-12.53a34.86,34.86,0,0,1,5.79-19.63q6.48-9.81,16.65-9.81,16.81,0,16.82,20.68a33.42,33.42,0,0,1-4.56,17.35Q771.5,271.63,762.57,271.63Z"/><path class="cls-4" d="M493,419.28s-75.38,10.33-112.56,27.88-68.15,44.41-82.61,106.36S289.6,767.28,337.1,848.86c0,0-12.39,63-9.29,110.5s21.68,74.35,78.48,73.32,234.54.16,279.85-5.17c56.22-6.61,85.14-4.55,96.5-6.61s14.81-86.63,12.75-123.8-1.17-135.9-.41-157c1.36-37.21,2.9-228.15-59.28-280.6C675.81,409,605.25,409,605.25,409Z"/><path class="cls-5" d="M511.62,382.1s1.78,13.55-2.76,22.72C502.38,417.94,493,419.28,493,419.28s15.15,18.59,57.14,16.52S605.25,409,605.25,409s-21.24,0-20.94-32.39Z"/><path class="cls-6" d="M611.44,236.84c-5.51-28.22-74.35-30.29-74.35-30.29-23.41,0-61.27,17.9-63.34,58.52-.28,5.69-.45,11.45-.49,17.2,0-.69-15.15-6.26-16,11.71-2.41,49.23,20.45,46,20.45,46,2.09,10.44,29.12,57.92,67,55.85s51-24.78,56.46-38.55S617,265.07,611.44,236.84Z"/><path class="cls-7" d="M457.23,294s-13.08-38.55-8.26-68.84,18.59-40.62,23.41-44.75,2.75-29.6,31-37.86,32.7,5.33,45.78,6.71,12.54-13.35,41.48-13.42c23-.06,34.93,13.42,33.56,27.88s7.58,22.89,23.23,28.91c20.14,7.75,6.71,50.6,3.1,58.86-11.17,25.55-37.74,19-37.74,19s-8.59-46.48-47.45-48.91C532.27,219.46,536.92,242.7,508,251s-32.1,20.16-31.61,32.56C476.39,283.52,460.9,273.37,457.23,294Z"/><path class="cls-3" d="M709.66,705.41c10.33-77.8-9-125.91-9-125.91-26.68,62.84-27.8,164.69-23.33,186.72S696.86,829,688.66,882c-12.34,79.85-120.07,69.13-159.37,75.38-78.72,12.54-84.58,54.56-109.46,75,67.35-1.81,213.68,1.93,256.1.35,38-1.42,49.43-10.29,57.14-37.47C741.56,945.49,705.3,738.26,709.66,705.41Z"/><path class="cls-8" d="M525.81,513.45s-8.26-26.17,0-44.37,15.49-29.16,26.85-44.74S574,411.11,580.88,431s.33,30.12,0,51.74-8.52,42.38-13.68,43.52S535.1,527.11,525.81,513.45Z"/><path class="cls-9" d="M525.81,514.68s9.65,14.12,43.37,11.36c0,0-14.46,291.9-123.18,325.9-87.16,27.26-108.9-3.08-108.9-3.08S281.5,720.87,525.81,514.68Z"/></svg>