<svg xmlns="http://www.w3.org/2000/svg" viewBox="0 0 907.14 897.05"><defs><style>.cls-1{fill:#f1edce;}.cls-2{fill:#fff;}</style></defs><g id="Layer_2" data-name="Layer 2"><g id="Illustration"><path class="cls-1" d="M331,47.1C280.4,66.38,64.71,148.66,11.72,347.06-48.71,573.3,132,839.65,381.85,888.73,641,939.64,915.06,745.09,907,625.45c-5.29-78.16-130.34-114-118-200.7,8.53-59.82,71.6-67.8,99.47-148.9,19-55.19,14.3-122.87-12.05-168.12C802.32-19.45,523.62-26.4,331,47.1Z"/><path d="M659.83,72.2a1.64,1.64,0,0,1-1.64-1.62V62.24a1.64,1.64,0,0,1,3.28,0v8.34A1.63,1.63,0,0,1,659.83,72.2Z"/><path d="M659.83,91.63A1.64,1.64,0,0,1,658.19,90V81.67a1.64,1.64,0,0,1,3.28,0V90A1.63,1.63,0,0,1,659.83,91.63Z"/><path d="M654.23,77.74h-8.44a1.62,1.62,0,1,1,0-3.24h8.44a1.62,1.62,0,1,1,0,3.24Z"/><path d="M673.87,77.74h-8.43a1.62,1.62,0,1,1,0-3.24h8.43a1.62,1.62,0,1,1,0,3.24Z"/><path d="M185.88,127.39a1.66,1.66,0,0,1-.83-.22L60.33,55.36a1.61,1.61,0,0,1-.6-2.22A1.66,1.66,0,0,1,62,52.56L186.7,124.37a1.62,1.62,0,0,1-.82,3Z"/><path d="M189.17,113.31a1.65,1.65,0,0,1-1.26-.57L135.67,51.37a1.61,1.61,0,0,1,.2-2.28,1.64,1.64,0,0,1,2.31.2l52.24,61.36a1.62,1.62,0,0,1-1.25,2.66Z"/><path d="M324.14,875.12a1.63,1.63,0,0,1-.52-.09c-80.86-26.53-137.69-88.38-138.26-89a1.62,1.62,0,0,1,.13-2.29,1.65,1.65,0,0,1,2.31.12c.56.62,56.84,61.84,136.86,88.1a1.61,1.61,0,0,1,1,2A1.65,1.65,0,0,1,324.14,875.12Z"/><path d="M252,844.63a1.65,1.65,0,0,1-.58-.1c-51.62-19.35-91.11-57.35-91.5-57.73a1.6,1.6,0,0,1,0-2.29,1.65,1.65,0,0,1,2.31,0c.39.38,39.42,37.91,90.37,57a1.62,1.62,0,0,1,.95,2.09A1.64,1.64,0,0,1,252,844.63Z"/><path d="M155.37,752.94a7.2,7.2,0,1,1,7.29-7.2A7.25,7.25,0,0,1,155.37,752.94Zm0-11.16a4,4,0,1,0,4,4A4,4,0,0,0,155.37,741.78Z"/><path class="cls-2" d="M805.14,143.36a1.65,1.65,0,0,1-1.51-1C774.4,75.89,681.78,45.07,680.84,44.77a1.62,1.62,0,0,1-1-2.05,1.64,1.64,0,0,1,2.07-1,287.58,287.58,0,0,1,51,23.93c25,14.85,58.15,40,73.75,75.48a1.61,1.61,0,0,1-.85,2.13A1.64,1.64,0,0,1,805.14,143.36Z"/><path class="cls-2" d="M827.35,155.84a1.64,1.64,0,0,1-1.58-1.19c-18.55-66.8-72-90.69-72.52-90.93a1.61,1.61,0,0,1-.84-2.13,1.65,1.65,0,0,1,2.16-.84c.55.24,55.4,24.77,74.36,93a1.61,1.61,0,0,1-1.14,2A1.72,1.72,0,0,1,827.35,155.84Z"/><g id="User_guide" data-name="User guide"><path d="M834,797.63l-624.39-85.4c-17.75,0-68.53,16.53-68.53-1.21L100.32,262c0-17.75,38.44,48.37,56.19,48.37L834,229.82A32.13,32.13,0,0,1,866.14,262V765.5A32.13,32.13,0,0,1,834,797.63Z"/><rect class="cls-2" x="89.32" y="229.82" width="765.82" height="567.8" rx="32.13"/><rect class="cls-2" x="130.91" y="265.02" width="681.61" height="462.45" rx="22.69"/><path d="M89.66,392.74a1,1,0,0,1-1-1V262a33.21,33.21,0,0,1,33.13-33.2l132.57-.91h0a1,1,0,0,1,0,2l-132.58.91A31.21,31.21,0,0,0,90.66,262V391.74A1,1,0,0,1,89.66,392.74Z"/><path d="M121.79,798.63a33.2,33.2,0,0,1-33.13-33.2V532a1,1,0,0,1,2,0V765.43a31.21,31.21,0,0,0,31.13,31.2l10.65,0h0a1,1,0,0,1,0,2Z"/><path d="M252.17,798.87c-.76,0-1.38-.45-1.38-1s.61-1,1.38-1l524.88-.94h0c.76,0,1.37.44,1.38,1s-.62,1-1.38,1l-524.89.94Z"/><path d="M856.74,744.48a1,1,0,0,1-1-1L854.49,262a31.21,31.21,0,0,0-31.13-31.2l-102.09.09h0a1,1,0,0,1,0-2l102.09-.09A33.21,33.21,0,0,1,856.49,262l1.25,481.46a1,1,0,0,1-1,1Z"/><path d="M652.73,265.46H437.57a1,1,0,0,1,0-2H652.73a1,1,0,0,1,0,2Z"/><path d="M727.11,727.78h0L312,727.06a1,1,0,0,1,0-2h0l415.08.72a1,1,0,0,1,0,2Z"/><path d="M812.09,633.59h0a1,1,0,0,1-1-1l.43-345.38a21.74,21.74,0,0,0-21.68-21.74l-63.05,1a1,1,0,0,1-1-1,1,1,0,0,1,1-1l63.07-1a23.74,23.74,0,0,1,23.7,23.74l-.43,345.39A1,1,0,0,1,812.09,633.59Z"/><path d="M812.09,358.46h0a1,1,0,0,0-1,1l.43,345.38a21.74,21.74,0,0,1-21.68,21.74l-63.05-1a1,1,0,0,0-1,1,1,1,0,0,0,1,1l63.07,1a23.74,23.74,0,0,0,23.7-23.74l-.43-345.39A1,1,0,0,0,812.09,358.46Z"/><path d="M131.4,639.8h0a1,1,0,0,0,1-1L132,293.41a21.73,21.73,0,0,1,21.68-21.73l63,1a1,1,0,0,0,1-1,1,1,0,0,0-1-1l-63.07-1A23.74,23.74,0,0,0,130,293.41l.43,345.39A1,1,0,0,0,131.4,639.8Z"/><path class="cls-2" d="M672.16,691.56l-401.41-.18a18.76,18.76,0,0,1-18.5-19V131.73a18.75,18.75,0,0,1,18.5-19l401.41.18a18.78,18.78,0,0,1,18.51,19V672.58A18.74,18.74,0,0,1,672.16,691.56Z"/><path d="M650.21,224h0l-198-.12c-4.41,0-8-5-8-11.17a13.69,13.69,0,0,1,2.23-7.74,7.09,7.09,0,0,1,5.78-3.41h0l198,.13c4.41,0,8,5,8,11.16a13.8,13.8,0,0,1-2.23,7.75A7.1,7.1,0,0,1,650.21,224Zm-198-20.44a5.15,5.15,0,0,0-4.13,2.54,11.71,11.71,0,0,0-1.88,6.61c0,5.05,2.7,9.16,6,9.17l198,.12h0a5.15,5.15,0,0,0,4.13-2.54,11.71,11.71,0,0,0,1.88-6.61c0-5.05-2.7-9.16-6-9.16l-198-.13Z"/><path d="M650.93,180.44h0l-198-.12c-4.42,0-8-5-8-11.16a13.7,13.7,0,0,1,2.23-7.75,7.06,7.06,0,0,1,5.77-3.41h0l198,.13c4.42,0,8,5,8,11.16a13.7,13.7,0,0,1-2.23,7.75A7.1,7.1,0,0,1,650.93,180.44Zm0-2h0a5.17,5.17,0,0,0,4.14-2.54,11.71,11.71,0,0,0,1.87-6.61c0-5-2.7-9.16-6-9.16l-198-.13h0a5.18,5.18,0,0,0-4.13,2.54,11.74,11.74,0,0,0-1.87,6.62c0,5.05,2.69,9.15,6,9.16Z"/><path d="M649.67,270.08h0l-198-.12c-4.41,0-8-5-8-11.16a13.78,13.78,0,0,1,2.23-7.75,7.07,7.07,0,0,1,5.78-3.4h0l198,.12c4.41,0,8,5,8,11.16a13.7,13.7,0,0,1-2.23,7.75A7.1,7.1,0,0,1,649.67,270.08Zm0-2h0a5.15,5.15,0,0,0,4.13-2.54,11.71,11.71,0,0,0,1.88-6.61c0-5.05-2.7-9.16-6-9.16l-198-.12h0a5.16,5.16,0,0,0-4.13,2.53,11.75,11.75,0,0,0-1.88,6.62c0,5.05,2.7,9.15,6,9.16Z"/><path d="M643.13,475.68h0l-285.3-.13a11.16,11.16,0,0,1,0-22.31h0l285.3.12A11.17,11.17,0,0,1,651,472.41,11,11,0,0,1,643.13,475.68Zm0-2h0a9,9,0,0,0,6.43-2.68,9.17,9.17,0,0,0-6.43-15.64l-285.3-.12h0a9.13,9.13,0,0,0-9.1,9.15,9.15,9.15,0,0,0,9.11,9.16Z"/><path d="M308,477h0a13.33,13.33,0,0,1-9.37-22.72,13.13,13.13,0,0,1,9.36-3.89h0a13.31,13.31,0,0,1,9.36,22.71A13.12,13.12,0,0,1,308,477Zm0-24.61a11.13,11.13,0,0,0-7.94,3.3A11.33,11.33,0,0,0,308,475h0a11.28,11.28,0,0,0,11.24-11.3A11.3,11.3,0,0,0,308,452.36Z"/><path d="M644.18,432.13h0L358.87,432A11.17,11.17,0,0,1,351,413a11,11,0,0,1,7.85-3.27h0l285.3.13a11.17,11.17,0,0,1,7.86,19A11,11,0,0,1,644.18,432.13ZM358.87,411.69a9,9,0,0,0-6.43,2.68A9.16,9.16,0,0,0,358.87,430l285.3.13h0a9,9,0,0,0,6.43-2.68,9.16,9.16,0,0,0-6.44-15.63l-285.3-.13Z"/><path d="M644.18,369.7h0l-285.3-.13a11.17,11.17,0,0,1-7.85-19,11,11,0,0,1,7.85-3.27h0l285.3.13a11.17,11.17,0,0,1,7.86,19A11,11,0,0,1,644.18,369.7Zm0-2h0a9,9,0,0,0,6.43-2.68,9.16,9.16,0,0,0-6.44-15.63l-285.3-.13h0a9,9,0,0,0-6.43,2.68,9.16,9.16,0,0,0,6.43,15.63Z"/><path d="M309,433.42h0a13.31,13.31,0,0,1-9.36-22.71,13.08,13.08,0,0,1,9.35-3.9h0a13.31,13.31,0,0,1,9.36,22.71A13.08,13.08,0,0,1,309,433.42Zm0-24.61a11.13,11.13,0,0,0-7.94,3.31,11.32,11.32,0,0,0,7.95,19.3h0a11.14,11.14,0,0,0,7.94-3.31,11.32,11.32,0,0,0-8-19.3Z"/><path d="M642.36,521.77h0l-285.3-.13a11.17,11.17,0,0,1-7.85-19,11,11,0,0,1,7.85-3.27h0l285.3.13a11.17,11.17,0,0,1,7.86,19A11,11,0,0,1,642.36,521.77ZM357.05,501.33a9,9,0,0,0-6.43,2.68,9.16,9.16,0,0,0,6.43,15.63l285.3.13h0a9,9,0,0,0,6.43-2.68,9.16,9.16,0,0,0-6.44-15.63l-285.3-.13Z"/><ellipse class="cls-2" cx="307.21" cy="509.75" rx="12.24" ry="12.3" transform="translate(-21.16 13.36) rotate(-2.41)"/><path d="M641.58,567.08h0L356.27,567a11.16,11.16,0,0,1,0-22.31h0l285.31.12a11.17,11.17,0,0,1,7.85,19A11,11,0,0,1,641.58,567.08Zm0-2h0A9,9,0,0,0,648,562.4a9.17,9.17,0,0,0-6.43-15.64l-285.31-.12h0a9.13,9.13,0,0,0-9.1,9.15,9.14,9.14,0,0,0,9.1,9.16Z"/><path d="M306.44,568.37h0a13.32,13.32,0,0,1-9.36-22.72,13.11,13.11,0,0,1,9.36-3.89h0a13.32,13.32,0,0,1,9.37,22.71A13.14,13.14,0,0,1,306.44,568.37Zm0-24.61a11.13,11.13,0,0,0-7.94,3.3,11.32,11.32,0,0,0,7.94,19.31h0a11.14,11.14,0,0,0,7.94-3.31,11.32,11.32,0,0,0-7.95-19.3Z"/><path d="M640.8,615.51h0l-285.3-.13a11.17,11.17,0,0,1-7.86-19,11,11,0,0,1,7.85-3.27h0l285.3.13a11.17,11.17,0,0,1,7.85,19A11,11,0,0,1,640.8,615.51Zm0-2a9.16,9.16,0,0,0,0-18.31l-285.3-.13h0a9,9,0,0,0-6.43,2.68,9.16,9.16,0,0,0,6.44,15.63Z"/><path d="M305.66,616.8h0a13.32,13.32,0,0,1-9.36-22.71,13.12,13.12,0,0,1,9.36-3.9h0A13.33,13.33,0,0,1,315,612.91,13.11,13.11,0,0,1,305.66,616.8Zm0-24.61a11.27,11.27,0,0,0-11.23,11.3,11.29,11.29,0,0,0,11.24,11.31h0a11.13,11.13,0,0,0,7.94-3.3,11.33,11.33,0,0,0-8-19.31Z"/><path d="M640,661.6h0l-285.3-.12a11.17,11.17,0,0,1-7.85-19.05,11,11,0,0,1,7.84-3.27h0l285.3.13a11.17,11.17,0,0,1,7.86,19.05A11,11,0,0,1,640,661.6Zm0-2h0a9,9,0,0,0,6.43-2.67A9.17,9.17,0,0,0,640,641.29l-285.3-.13h0a9,9,0,0,0-6.43,2.68,9.18,9.18,0,0,0,6.44,15.64Z"/><path d="M304.88,662.89h0a13.31,13.31,0,0,1-9.36-22.71,13.09,13.09,0,0,1,9.35-3.89h0A13.31,13.31,0,0,1,314.24,659,13.11,13.11,0,0,1,304.88,662.89Zm0-24.6a11.13,11.13,0,0,0-7.94,3.3,11.32,11.32,0,0,0,7.95,19.3h0a11.13,11.13,0,0,0,7.94-3.3,11.31,11.31,0,0,0-7.94-19.3Z"/><path d="M673.17,692.56h0l-373.53-.69a1,1,0,0,1-1-1,1,1,0,0,1,1-1h0l373.53.69h0a17.14,17.14,0,0,0,12.36-5.26,18.21,18.21,0,0,0,5.14-12.76V505.36a1,1,0,0,1,2,0V672.54A20.15,20.15,0,0,1,687,686.69,19.09,19.09,0,0,1,673.17,692.56Z"/><path d="M274.13,692.56h0l373.53-.69a1,1,0,0,0,1-1,1,1,0,0,0-1-1h0l-373.54.69h0a17.14,17.14,0,0,1-12.36-5.26,18.21,18.21,0,0,1-5.14-12.76V505.36a1,1,0,0,0-2,0V672.54a20.15,20.15,0,0,0,5.71,14.15A19.09,19.09,0,0,0,274.13,692.56Z"/><path d="M691.67,416.18a1,1,0,0,1-1-1V131a17.82,17.82,0,0,0-17.51-18l-401.41-.18h0A17.13,17.13,0,0,0,259.39,118a18.17,18.17,0,0,0-5.14,12.76l-.46,112.84a1,1,0,0,1-1,1h0a1,1,0,0,1-1-1l.46-112.83a20.16,20.16,0,0,1,5.7-14.15,19.09,19.09,0,0,1,13.79-5.87h0l401.41.18a19.81,19.81,0,0,1,19.51,20V415.18A1,1,0,0,1,691.67,416.18Z"/><path d="M252.79,416.18a1,1,0,0,0,1-1V131a17.82,17.82,0,0,1,17.51-18l401.41-.18h0A17.17,17.17,0,0,1,685.08,118a18.2,18.2,0,0,1,5.13,12.76l.46,112.84a1,1,0,0,0,1,1h0a1,1,0,0,0,1-1l-.46-112.83a20.16,20.16,0,0,0-5.7-14.15,19.09,19.09,0,0,0-13.79-5.87h0l-401.41.18a19.81,19.81,0,0,0-19.51,20V415.18A1,1,0,0,0,252.79,416.18Z"/><path class="cls-2" d="M182,793.27s-39.09-85.88-16.66-197.22c0,0,60.58,50.89,38.74,197.22Z"/><path d="M204,794.27H182a1,1,0,0,1-.91-.59c-.09-.21-9.9-22-16.81-57.08a364,364,0,0,1,.08-140.75,1,1,0,0,1,.65-.74,1,1,0,0,1,1,.17c.63.53,15.48,13.24,27.85,44.13,11.37,28.41,22.56,78.19,11.24,154A1,1,0,0,1,204,794.27Zm-21.42-2h20.56c11-74.79,0-123.9-11.19-152-10.1-25.31-22.17-38.49-26.06-42.3a362.24,362.24,0,0,0,.26,138.14C172.43,767.86,181,788.59,182.62,792.27Z"/><path d="M191.52,785.31h-.05a1,1,0,0,1-.95-1c3-54.93-21.71-172.15-22-173.33a1,1,0,0,1,.77-1.18,1,1,0,0,1,1.19.77c.25,1.18,25,118.66,22,173.85A1,1,0,0,1,191.52,785.31Z"/><path class="cls-2" d="M221.29,653.64s-50.37,91.21-20.07,130.67h16.21S249.82,713,221.29,653.64Z"/><path d="M217.43,785.31H201.22a1,1,0,0,1-.79-.39c-12.78-16.64-13.28-43.91-1.49-81a316.89,316.89,0,0,1,21.48-50.71,1,1,0,0,1,1.77.05c14.85,30.91,13,65,8.85,88.21a203.45,203.45,0,0,1-12.7,43.31A1,1,0,0,1,217.43,785.31Zm-15.71-2h15.05c2.95-6.87,29.67-72.36,4.46-127.44C214.55,668.63,175,747.61,201.72,783.31Z"/><path d="M208.79,787.73a1,1,0,0,1-1-1c-1.46-37.64,12.37-132.32,12.51-133.28a1,1,0,0,1,2,.29c-.14,1-13.94,95.46-12.49,132.91a1,1,0,0,1-1,1Z"/><path class="cls-2" d="M125.13,687.64S168,702.31,183.57,789.18H166.7S131.48,741.47,125.13,687.64Z"/><path d="M183.57,790.18H166.7a1,1,0,0,1-.81-.41c-.35-.48-35.45-48.54-41.75-102a1,1,0,0,1,1.32-1.07c.44.16,11.12,3.93,23.82,18.49,11.64,13.35,27.21,38.72,35.28,83.82a1,1,0,0,1-.22.82A1,1,0,0,1,183.57,790.18Zm-16.36-2h15.17c-8-43.8-23.16-68.51-34.49-81.55-9.62-11.07-18.18-15.81-21.55-17.39C132.78,738.91,163.84,783.47,167.21,788.18Z"/><path d="M174.35,787.73a1,1,0,0,1-1-.84c-6.39-38.72-34-77.7-34.32-78.09a1,1,0,1,1,1.62-1.16c.29.39,28.21,39.75,34.68,78.93a1,1,0,0,1-.83,1.15Z"/><path d="M141.68,782.28H247.54l2.37,50.19a21.55,21.55,0,0,1-21.5,22.59H168a26.34,26.34,0,0,1-26.31-26.39Z"/><ellipse class="cls-2" cx="312.63" cy="250.25" rx="91.89" ry="92.1"/><path d="M312.63,343.4c-51.25,0-92.95-41.79-92.95-93.15s41.7-93.16,92.95-93.16,92.94,41.79,92.94,93.16S363.88,343.4,312.63,343.4Zm0-184.2c-50.09,0-90.84,40.84-90.84,91.05s40.75,91.05,90.84,91.05,90.84-40.85,90.84-91.05S362.72,159.2,312.63,159.2Z"/><ellipse cx="313.68" cy="202.1" rx="11.19" ry="11.21"/><path d="M300.29,303h-.08V220.17a.8.8,0,0,1,.84-.75l36.44-.19-.22,2.37a.7.7,0,0,1-.71.6,37.28,37.28,0,0,0-12.37,2.16.68.68,0,0,0-.45.63v78.3l4.7.83v2.26h-32v-2.54Z"/></g></g></g></svg>