<svg xmlns="http://www.w3.org/2000/svg" viewBox="0 0 777.48 744.32"><defs><style>.cls-1{fill:#fff;}</style></defs><g id="Layer_2" data-name="Layer 2"><g id="Illustration"><g id="User_guide" data-name="User guide"><path d="M745.35,686.89,121,601.49c-17.74,0-68.53,16.53-68.53-1.21L11.65,151.22c0-17.75,38.45,48.37,56.2,48.37l677.5-80.5a32.13,32.13,0,0,1,32.13,32.13V654.76A32.14,32.14,0,0,1,745.35,686.89Z"/><rect class="cls-1" x="0.66" y="119.08" width="765.82" height="567.8" rx="32.13"/><rect class="cls-1" x="42.25" y="154.28" width="681.61" height="462.45" rx="22.69"/><path d="M1,282a1,1,0,0,1-1-1V151.28a33.2,33.2,0,0,1,33.12-33.2l132.57-.91h0a1,1,0,0,1,0,2l-132.58.91A31.2,31.2,0,0,0,2,151.28V281A1,1,0,0,1,1,282Z"/><path d="M33.12,687.89A33.2,33.2,0,0,1,0,654.69V421.3a1,1,0,0,1,2,0V654.69a31.2,31.2,0,0,0,31.12,31.2H43.78a1,1,0,0,1,1,1,1,1,0,0,1-1,1Z"/><path d="M163.51,688.13c-.76,0-1.38-.45-1.38-1s.61-1,1.37-1l524.89-.94h0c.76,0,1.38.44,1.38,1s-.61,1-1.37,1l-524.89.94Z"/><path d="M768.08,633.74a1,1,0,0,1-1-1l-1.26-481.47a31.2,31.2,0,0,0-31.12-31.2l-102.09.09h0a1,1,0,0,1,0-2l102.09-.09a33.2,33.2,0,0,1,33.12,33.2l1.26,481.46a1,1,0,0,1-1,1Z"/><path d="M564.06,154.72H348.9a1,1,0,0,1,0-2H564.06a1,1,0,0,1,0,2Z"/><path d="M638.44,617h0l-415.08-.72a1,1,0,0,1,0-2h0l415.08.72a1,1,0,0,1,0,2Z"/><path d="M723.42,522.85h0a1,1,0,0,1-1-1l.44-345.38a21.74,21.74,0,0,0-21.69-21.74l-63,1a1,1,0,0,1-1-1,1,1,0,0,1,1-1l63.07-1a23.75,23.75,0,0,1,23.7,23.74l-.44,345.39A1,1,0,0,1,723.42,522.85Z"/><path class="cls-1" d="M583.5,580.82l-401.41-.18a18.76,18.76,0,0,1-18.5-19V21a18.75,18.75,0,0,1,18.5-19l401.41.18a18.77,18.77,0,0,1,18.5,19V561.84A18.73,18.73,0,0,1,583.5,580.82Z"/><path d="M561.55,113.25h0l-198-.12c-4.42,0-8-5-8-11.17a13.69,13.69,0,0,1,2.23-7.74,7.07,7.07,0,0,1,5.78-3.41h0l198,.13c4.42,0,8,5,8,11.16a13.72,13.72,0,0,1-2.23,7.75A7.07,7.07,0,0,1,561.55,113.25Zm-198-20.44a5.19,5.19,0,0,0-4.14,2.54,11.73,11.73,0,0,0-1.87,6.61c0,5.05,2.7,9.16,6,9.17l198,.12h0a5.15,5.15,0,0,0,4.13-2.54,11.71,11.71,0,0,0,1.87-6.61c0-5-2.69-9.16-6-9.16l-198-.13Z"/><path d="M562.27,69.7h0l-198-.12c-4.41,0-8-5-8-11.16a13.78,13.78,0,0,1,2.23-7.75,7.07,7.07,0,0,1,5.78-3.4h0l198,.12c4.41,0,8,5,8,11.16a13.7,13.7,0,0,1-2.23,7.75A7.1,7.1,0,0,1,562.27,69.7Zm0-2h0a5.15,5.15,0,0,0,4.13-2.54,11.71,11.71,0,0,0,1.88-6.61c0-5-2.7-9.16-6-9.16l-198-.12h0a5.16,5.16,0,0,0-4.13,2.53,11.75,11.75,0,0,0-1.88,6.62c0,5,2.7,9.15,6,9.16Z"/><path d="M561,159.34h0l-198-.12c-4.42,0-8-5-8-11.16a13.7,13.7,0,0,1,2.23-7.75,7.07,7.07,0,0,1,5.78-3.4h0L561,137c4.42,0,8,5,8,11.16a13.7,13.7,0,0,1-2.23,7.75A7.07,7.07,0,0,1,561,159.34Zm0-2h0a5.15,5.15,0,0,0,4.13-2.54,11.71,11.71,0,0,0,1.87-6.61c0-5.05-2.69-9.16-6-9.16l-198-.12h0a5.14,5.14,0,0,0-4.13,2.54,11.71,11.71,0,0,0-1.88,6.61c0,5.05,2.7,9.16,6,9.16Z"/><path d="M554.47,364.94h0l-285.31-.13a11.17,11.17,0,0,1-7.85-19,11,11,0,0,1,7.85-3.27h0l285.31.12a11.17,11.17,0,0,1,7.85,19.05A11,11,0,0,1,554.47,364.94Zm0-2h0a9,9,0,0,0,6.43-2.68,9.17,9.17,0,0,0-6.43-15.64l-285.31-.12h0a9.13,9.13,0,0,0-9.1,9.15,9.14,9.14,0,0,0,9.1,9.16Z"/><path d="M219.33,366.23h0A13.32,13.32,0,0,1,210,343.51a13.11,13.11,0,0,1,9.36-3.89h0a13.32,13.32,0,0,1,9.37,22.71A13.14,13.14,0,0,1,219.33,366.23Zm0-24.61a11.13,11.13,0,0,0-7.94,3.3,11.32,11.32,0,0,0,7.94,19.31h0a11.14,11.14,0,0,0,7.94-3.31,11.32,11.32,0,0,0-8-19.3Z"/><path d="M555.52,321.39h0l-285.3-.13a11.17,11.17,0,0,1-7.86-19A11,11,0,0,1,270.2,299h0l285.3.13a11.17,11.17,0,0,1,7.85,19A11,11,0,0,1,555.52,321.39ZM270.2,301a9,9,0,0,0-6.43,2.68,9.16,9.16,0,0,0,6.44,15.63l285.3.13h0a9,9,0,0,0,6.43-2.68,9.17,9.17,0,0,0-6.44-15.63L270.21,301Z"/><path d="M555.51,259h0l-285.3-.13a11.17,11.17,0,0,1-7.86-19,11,11,0,0,1,7.85-3.27h0l285.3.13a11.17,11.17,0,0,1,7.85,19A11,11,0,0,1,555.51,259Zm0-2h0a9.12,9.12,0,0,0,9.1-9.15,9.14,9.14,0,0,0-9.1-9.16l-285.3-.13h0a9,9,0,0,0-6.43,2.68,9.16,9.16,0,0,0,6.44,15.63Z"/><path d="M220.37,322.68h0A13.32,13.32,0,0,1,211,300a13.1,13.1,0,0,1,9.36-3.9h0a13.31,13.31,0,0,1,9.36,22.71A13.08,13.08,0,0,1,220.37,322.68Zm0-24.61a11.09,11.09,0,0,0-7.94,3.31,11.32,11.32,0,0,0,8,19.3h0a11.09,11.09,0,0,0,7.94-3.31,11.31,11.31,0,0,0-7.94-19.3Z"/><path d="M553.69,411h0l-285.3-.13a11.17,11.17,0,0,1-7.86-19,11,11,0,0,1,7.85-3.27h0l285.3.13a11.17,11.17,0,0,1,7.85,19A11,11,0,0,1,553.69,411ZM268.38,390.59a9,9,0,0,0-6.43,2.68,9.16,9.16,0,0,0,6.44,15.63l285.3.13h0a9,9,0,0,0,6.44-2.68,9.17,9.17,0,0,0-6.44-15.63l-285.3-.13Z"/><ellipse class="cls-1" cx="218.55" cy="399.02" rx="12.24" ry="12.3" transform="translate(-16.58 9.54) rotate(-2.41)"/><path d="M552.92,456.34h0l-285.3-.13a11.17,11.17,0,0,1-7.85-19,11,11,0,0,1,7.85-3.26h0l285.3.12a11.17,11.17,0,0,1,7.86,19.05A11,11,0,0,1,552.92,456.34Zm0-2h0a9,9,0,0,0,6.43-2.68A9.17,9.17,0,0,0,552.91,436l-285.3-.12h0a9,9,0,0,0-6.43,2.68,9.16,9.16,0,0,0,6.43,15.63Z"/><path d="M217.78,457.63h0a13.32,13.32,0,0,1-9.36-22.72,13.11,13.11,0,0,1,9.35-3.89h0a13.31,13.31,0,0,1,9.36,22.71A13.12,13.12,0,0,1,217.78,457.63Zm0-24.61a11.16,11.16,0,0,0-7.94,3.3,11.33,11.33,0,0,0,8,19.31h0A11.27,11.27,0,0,0,229,444.33,11.29,11.29,0,0,0,217.77,433Z"/><path d="M552.14,504.77h0l-285.3-.13a11.17,11.17,0,0,1-7.85-19,11,11,0,0,1,7.85-3.27h0l285.31.13a11.17,11.17,0,0,1,7.85,19A11,11,0,0,1,552.14,504.77Zm0-2a9.16,9.16,0,0,0,0-18.31l-285.3-.13h0A9,9,0,0,0,260.4,487a9.16,9.16,0,0,0,6.43,15.63Z"/><path d="M217,506.06h0a13.31,13.31,0,0,1-9.36-22.71,13.12,13.12,0,0,1,9.36-3.9h0a13.33,13.33,0,0,1,9.37,22.72A13.13,13.13,0,0,1,217,506.06Zm0-24.61a11.28,11.28,0,0,0-11.24,11.3A11.29,11.29,0,0,0,217,504.06h0a11.13,11.13,0,0,0,7.94-3.3A11.33,11.33,0,0,0,217,481.45Z"/><path d="M551.36,550.86h0l-285.3-.12a11.17,11.17,0,0,1-7.86-19,11,11,0,0,1,7.85-3.27h0l285.3.13a11.17,11.17,0,0,1,7.85,19.05A11,11,0,0,1,551.36,550.86Zm0-2h0a9,9,0,0,0,6.43-2.67,9.17,9.17,0,0,0-6.43-15.64l-285.3-.13h0a9.13,9.13,0,0,0-9.1,9.16,9.15,9.15,0,0,0,9.11,9.16Z"/><path d="M216.22,552.15h0a13.32,13.32,0,0,1-9.36-22.71,13.11,13.11,0,0,1,9.36-3.89h0a13.31,13.31,0,0,1,9.36,22.71A13.11,13.11,0,0,1,216.22,552.15Zm0-24.6a11.13,11.13,0,0,0-7.94,3.3,11.32,11.32,0,0,0,7.95,19.3h0a11.13,11.13,0,0,0,7.94-3.3,11.31,11.31,0,0,0-7.95-19.3Z"/><path d="M584.51,581.82h0L211,581.13a1,1,0,1,1,0-2h0l373.53.69h0a17.17,17.17,0,0,0,12.36-5.26A18.2,18.2,0,0,0,602,561.8V394.62a1,1,0,0,1,2,0V561.8A20.14,20.14,0,0,1,598.3,576,19.09,19.09,0,0,1,584.51,581.82Z"/><path d="M603,305.44a1,1,0,0,1-1-1V20.22c0-9.94-7.85-18-17.5-18L183.09,2h0a17.15,17.15,0,0,0-12.36,5.26A18.2,18.2,0,0,0,165.59,20l-.46,112.84a1,1,0,0,1-1,1h0a1,1,0,0,1-1-1L163.59,20a20.16,20.16,0,0,1,5.7-14.15A19.09,19.09,0,0,1,183.08,0h0L584.5.18c10.75,0,19.5,9,19.5,20V304.44A1,1,0,0,1,603,305.44Z"/><path class="cls-1" d="M93.3,682.53S54.21,596.65,76.63,485.31c0,0,60.59,50.89,38.75,197.22Z"/><path d="M115.38,683.53H93.3a1,1,0,0,1-.91-.59c-.1-.21-9.9-22-16.81-57.08a364.13,364.13,0,0,1,.07-140.75,1,1,0,0,1,.65-.74,1,1,0,0,1,1,.17c.62.53,15.48,13.24,27.84,44.13,11.38,28.41,22.56,78.19,11.25,154A1,1,0,0,1,115.38,683.53Zm-21.43-2h20.56c11-74.79,0-123.9-11.18-152-10.11-25.31-22.18-38.49-26.07-42.3a362.44,362.44,0,0,0,.26,138.14C83.76,657.12,92.36,677.85,94,681.53Z"/><path d="M102.86,674.57h0a1,1,0,0,1-1-1.05c3-54.93-21.71-172.15-22-173.32a1,1,0,1,1,2-.42c.25,1.18,25,118.66,22,173.85A1,1,0,0,1,102.86,674.57Z"/><path class="cls-1" d="M132.63,542.9s-50.37,91.21-20.07,130.67h16.2S161.15,602.28,132.63,542.9Z"/><path d="M128.76,674.57h-16.2a1,1,0,0,1-.79-.39c-12.78-16.64-13.28-43.91-1.49-81a317.39,317.39,0,0,1,21.47-50.71,1,1,0,0,1,.91-.52,1,1,0,0,1,.87.57c14.85,30.91,13,65,8.85,88.21A203.45,203.45,0,0,1,129.68,674,1,1,0,0,1,128.76,674.57Zm-15.7-2h15.05c2.95-6.87,29.67-72.36,4.46-127.44C125.88,557.89,86.37,636.87,113.06,672.57Z"/><path d="M120.13,677a1,1,0,0,1-1-1c-1.46-37.64,12.37-132.32,12.51-133.28a1,1,0,0,1,2,.29c-.14,1-14,95.46-12.49,132.91a1,1,0,0,1-1,1Z"/><path class="cls-1" d="M36.47,576.9s42.9,14.67,58.44,101.54H78S42.82,630.73,36.47,576.9Z"/><path d="M94.91,679.44H78a1,1,0,0,1-.8-.41c-.36-.48-35.45-48.54-41.76-102A1,1,0,0,1,36.79,576c.45.16,11.13,3.93,23.83,18.49,11.64,13.35,27.21,38.72,35.27,83.82a1,1,0,0,1-.21.82A1,1,0,0,1,94.91,679.44Zm-16.37-2H93.71c-8-43.8-23.15-68.51-34.48-81.55-9.62-11.07-18.18-15.81-21.56-17.39C44.12,628.17,75.18,672.73,78.54,677.44Z"/><path d="M85.68,677a1,1,0,0,1-1-.84c-6.39-38.71-34.05-77.7-34.33-78.08a1,1,0,0,1,.24-1.4,1,1,0,0,1,1.39.23c.28.39,28.21,39.76,34.67,78.93a1,1,0,0,1-.82,1.15Z"/><path d="M53,671.54H158.87l2.38,50.19a21.56,21.56,0,0,1-21.51,22.59H79.29A26.33,26.33,0,0,1,53,717.93Z"/><ellipse class="cls-1" cx="223.96" cy="139.51" rx="91.89" ry="92.1"/><path d="M224,232.66c-51.24,0-92.94-41.79-92.94-93.15S172.72,46.36,224,46.36s93,41.78,93,93.15S275.21,232.66,224,232.66Zm0-184.2c-50.08,0-90.83,40.84-90.83,91s40.75,91.05,90.83,91.05,90.84-40.85,90.84-91.05S274.05,48.46,224,48.46Z"/><ellipse cx="225.02" cy="91.36" rx="11.19" ry="11.21"/><path d="M211.63,192.25h-.08V109.43a.79.79,0,0,1,.83-.75l36.44-.19-.21,2.37a.7.7,0,0,1-.71.6,37,37,0,0,0-12.37,2.17.67.67,0,0,0-.46.62v78.3l4.71.83v2.26h-32V193.1Z"/></g></g></g></svg>