<svg width="979" height="899" viewBox="0 0 979 899" fill="none" xmlns="http://www.w3.org/2000/svg">
<path d="M138.155 678.825L45.2656 681.945L59.5669 723.807C69.2295 751.035 88.7204 767.819 114.423 772.55C123.694 773.937 131.047 773.486 137.829 772.318C131.379 774.415 120.343 779.061 116.128 787.217C110.023 799.056 109.638 807.949 110.255 826.69L114.051 858.624C114.051 858.624 180.362 830.851 180.216 829.039C189.925 822.993 202.029 814.247 209.734 803.376C215.528 795.214 218.839 785.836 216.789 775.497C229.935 760.658 228.084 752.721 211.227 751.679C209.635 751.586 207.975 751.573 206.263 751.646C205.991 747.054 205.633 741.599 205.208 735.281C202.779 718.146 194.351 702.557 181.775 691.972C171.203 683.073 158.422 678.308 145.494 678.308C143.045 678.308 140.597 678.48 138.155 678.825Z" fill="url(#paint0_linear_3_7509)"/>
<path d="M185.385 761.667C154.48 770.4 149.795 781.543 146.45 794.762C143.092 807.975 148.063 841.17 150.472 850.999C150.472 850.999 190.548 841.097 220.777 820.153C239.06 803.867 235.496 796.567 234.713 772.345C232.941 749.363 230.566 732.898 227.592 722.964C230.42 736.84 216.344 749.741 185.385 761.667Z" fill="url(#paint1_linear_3_7509)"/>
<path d="M97.7657 710.939C106.008 746.477 122.181 761.714 151.872 764.906C159.092 767.6 211.964 764.833 233.253 795.977C235.105 795.214 233.95 774.024 229.809 732.415C224.885 711.165 222.609 697.448 210.723 685.091C198.837 672.727 173.918 665.587 158.628 663.198L88.9593 654.278L97.7657 710.939Z" fill="url(#paint2_linear_3_7509)"/>
<path d="M183.481 762.251C180.886 762.961 178.862 763.691 178.231 763.897C174.853 765.025 171.495 766.392 170.095 767.096C204.113 773.142 225.814 782.963 235.198 796.568C235.901 795.075 235.151 782.831 234.979 776.884C233.22 751.255 230.652 733.204 227.5 722.679C228.747 736.715 217.087 750.22 183.481 762.251Z" fill="#FFB511"/>
<path fill-rule="evenodd" clip-rule="evenodd" d="M115.124 250.694C135.913 250.694 152.766 267.547 152.766 288.336V288.432C152.766 309.222 135.913 326.075 115.124 326.075H59.6122C57.5386 326.075 55.5041 325.907 53.5216 325.585L42.7668 335.973C42.4743 336.255 42.0837 336.413 41.6771 336.413C40.8109 336.413 40.1087 335.711 40.1087 334.845L40.108 320.634C29.2343 314.034 21.9697 302.082 21.9697 288.432V288.336C21.9697 267.547 38.8228 250.694 59.6122 250.694H115.124Z" fill="#253368"/>
<path d="M105.993 160.509H185.255C214.954 160.509 239.03 184.585 239.03 214.284C239.03 243.983 214.954 268.059 185.255 268.059H105.993C76.2941 268.059 52.2182 243.983 52.2182 214.284C52.2182 184.585 76.2941 160.509 105.993 160.509Z" fill="#597EF7"/>
<path fill-rule="evenodd" clip-rule="evenodd" d="M213.123 252.417V280.568C213.123 281.806 212.12 282.809 210.882 282.809C210.302 282.809 209.744 282.584 209.327 282.181L188.639 262.22L213.123 252.417Z" fill="#597EF7"/>
<path d="M181.614 221.006C176.819 221.006 172.932 217.118 172.932 212.323C172.932 207.528 176.819 203.641 181.614 203.641C186.409 203.641 190.297 207.528 190.297 212.323C190.297 217.118 186.409 221.006 181.614 221.006Z" fill="white"/>
<path d="M146.044 221.006C141.249 221.006 137.362 217.118 137.362 212.323C137.362 207.528 141.249 203.641 146.044 203.641C150.839 203.641 154.727 207.528 154.727 212.323C154.727 217.118 150.839 221.006 146.044 221.006Z" fill="white"/>
<path d="M109.634 221.006C104.839 221.006 100.952 217.118 100.952 212.323C100.952 207.528 104.839 203.641 109.634 203.641C114.429 203.641 118.317 207.528 118.317 212.323C118.317 217.118 114.429 221.006 109.634 221.006Z" fill="white"/>
<path fill-rule="evenodd" clip-rule="evenodd" d="M492.079 410.448C484.774 410.448 478.852 405.159 478.852 398.634V117.334H915.585V398.634C915.585 405.159 909.663 410.448 902.357 410.448H492.079Z" fill="#E4EBF7"/>
<path d="M882.124 142.826H629.235C626.323 142.826 623.964 145.186 623.964 148.097V384.018C623.964 386.929 626.323 389.289 629.235 389.289H882.124C885.035 389.289 887.395 386.929 887.395 384.018V148.097C887.395 145.186 885.035 142.826 882.124 142.826Z" fill="white"/>
<path d="M597.626 140.865H511.576C508.665 140.865 506.305 143.225 506.305 146.136V382.057C506.305 384.968 508.665 387.328 511.576 387.328H597.626C600.537 387.328 602.897 384.968 602.897 382.057V146.136C602.897 143.225 600.537 140.865 597.626 140.865Z" fill="white"/>
<path d="M579.158 238.914H530.87C529.216 238.914 527.876 240.254 527.876 241.908V249.313C527.876 250.967 529.216 252.307 530.87 252.307H579.158C580.812 252.307 582.152 250.967 582.152 249.313V241.908C582.152 240.254 580.812 238.914 579.158 238.914Z" fill="#597EF7"/>
<path d="M579.204 264.407H530.825C529.196 264.407 527.876 265.727 527.876 267.355V274.446C527.876 276.074 529.196 277.395 530.825 277.395H579.204C580.832 277.395 582.152 276.074 582.152 274.446V267.355C582.152 265.727 580.832 264.407 579.204 264.407Z" fill="#ADC6FF"/>
<path d="M579.204 289.899H530.825C529.196 289.899 527.876 291.219 527.876 292.848V299.938C527.876 301.567 529.196 302.887 530.825 302.887H579.204C580.832 302.887 582.152 301.567 582.152 299.938V292.848C582.152 291.219 580.832 289.899 579.204 289.899Z" fill="#FF7946"/>
<path d="M579.204 315.392H530.825C529.196 315.392 527.876 316.712 527.876 318.341V325.431C527.876 327.06 529.196 328.38 530.825 328.38H579.204C580.832 328.38 582.152 327.06 582.152 325.431V318.341C582.152 316.712 580.832 315.392 579.204 315.392Z" fill="#ADC6FF"/>
<path d="M804.001 323.236H652.97C651.029 323.236 649.456 324.809 649.456 326.75V326.764C649.456 328.704 651.029 330.278 652.97 330.278H804.001C805.942 330.278 807.515 328.704 807.515 326.764V326.75C807.515 324.809 805.942 323.236 804.001 323.236Z" fill="#597EF7"/>
<path d="M804.001 360.494H652.97C651.029 360.494 649.456 362.068 649.456 364.008V364.022C649.456 365.963 651.029 367.536 652.97 367.536H804.001C805.942 367.536 807.515 365.963 807.515 364.022V364.008C807.515 362.068 805.942 360.494 804.001 360.494Z" fill="#597EF7"/>
<path d="M856.688 340.885H652.97C651.029 340.885 649.456 342.458 649.456 344.399V344.412C649.456 346.353 651.029 347.926 652.97 347.926H856.688C858.628 347.926 860.202 346.353 860.202 344.412V344.399C860.202 342.458 858.628 340.885 856.688 340.885Z" fill="#597EF7"/>
<path d="M854.213 166.358H656.484C652.603 166.358 649.456 169.505 649.456 173.386V300.52C649.456 304.401 652.603 307.548 656.484 307.548H854.213C858.095 307.548 861.241 304.401 861.241 300.52V173.386C861.241 169.505 858.095 166.358 854.213 166.358Z" fill="#597EF7"/>
<path fill-rule="evenodd" clip-rule="evenodd" d="M916.001 122.076H479.29V91.958C479.29 85.4248 484.609 80.1278 491.168 80.1278H904.123C910.683 80.1278 916.001 85.4248 916.001 91.958V122.076Z" fill="#253368"/>
<path fill-rule="evenodd" clip-rule="evenodd" d="M509.913 99.8228C509.913 103.923 506.596 107.247 502.504 107.247C498.413 107.247 495.097 103.923 495.097 99.8228C495.097 95.7226 498.413 92.3983 502.504 92.3983C506.596 92.3983 509.913 95.7226 509.913 99.8228Z" fill="#FF7946"/>
<path fill-rule="evenodd" clip-rule="evenodd" d="M537.573 99.8228C537.573 103.923 534.256 107.247 530.165 107.247C526.073 107.247 522.757 103.923 522.757 99.8228C522.757 95.7226 526.073 92.3983 530.165 92.3983C534.256 92.3983 537.573 95.7226 537.573 99.8228Z" fill="#FAAD14"/>
<path fill-rule="evenodd" clip-rule="evenodd" d="M565.233 99.8228C565.233 103.923 561.916 107.247 557.825 107.247C553.734 107.247 550.417 103.923 550.417 99.8228C550.417 95.7226 553.734 92.3983 557.825 92.3983C561.916 92.3983 565.233 95.7226 565.233 99.8228Z" fill="#7CB305"/>
<path d="M556.299 211.565C569.69 211.565 580.544 200.587 580.544 187.045C580.544 173.503 569.69 162.524 556.299 162.524C542.909 162.524 532.054 173.503 532.054 187.045C532.054 200.587 542.909 211.565 556.299 211.565Z" fill="#FAAD14"/>
<path d="M556.299 211.566C563.287 211.57 569.919 208.447 574.415 203.037C570.873 196.236 563.897 191.978 556.296 191.978C548.695 191.978 541.719 196.236 538.176 203.037C542.674 208.449 549.309 211.571 556.299 211.566Z" fill="#253368"/>
<path d="M556.428 192.953C561.464 192.953 565.547 188.824 565.547 183.731C565.547 178.638 561.464 174.509 556.428 174.509C551.392 174.509 547.31 178.638 547.31 183.731C547.31 188.824 551.392 192.953 556.428 192.953Z" fill="#253368"/>
<path d="M861.914 215.382C862.455 215.382 862.894 215.821 862.894 216.363C862.894 216.88 862.494 217.303 861.987 217.341L861.914 217.343H651.417C650.876 217.343 650.437 216.904 650.437 216.363C650.437 215.846 650.837 215.422 651.344 215.385L651.417 215.382H861.914Z" fill="white"/>
<path d="M698.48 164.562C698.997 164.562 699.421 164.962 699.458 165.469L699.461 165.542V307.548C699.461 308.089 699.022 308.528 698.48 308.528C697.964 308.528 697.54 308.128 697.503 307.621L697.5 307.548V165.542C697.5 165.001 697.939 164.562 698.48 164.562Z" fill="white"/>
<path d="M755.349 164.562C755.866 164.562 756.289 164.962 756.327 165.469L756.329 165.542V307.548C756.329 308.089 755.89 308.528 755.349 308.528C754.832 308.528 754.408 308.128 754.371 307.621L754.368 307.548V165.542C754.368 165.001 754.807 164.562 755.349 164.562Z" fill="white"/>
<path d="M810.256 164.562C810.773 164.562 811.196 164.962 811.234 165.469L811.236 165.542V307.548C811.236 308.089 810.797 308.528 810.256 308.528C809.739 308.528 809.316 308.128 809.278 307.621L809.275 307.548V165.542C809.275 165.001 809.714 164.562 810.256 164.562Z" fill="white"/>
<path d="M861.914 262.446C862.455 262.446 862.894 262.885 862.894 263.426C862.894 263.943 862.494 264.367 861.987 264.404L861.914 264.407H651.417C650.876 264.407 650.437 263.968 650.437 263.426C650.437 262.909 650.837 262.486 651.344 262.448L651.417 262.446H861.914Z" fill="white"/>
<g clip-path="url(#clip0_3_7509)">
<path fill-rule="evenodd" clip-rule="evenodd" d="M500.975 318.652C500.975 318.652 538.292 316.486 544.671 356.281C579.261 372.347 566.162 410.467 566.162 410.467C566.162 410.467 581.459 442.615 544.476 455.22C538.923 486.328 503.781 477.556 503.781 477.556C503.781 477.556 493.143 501.048 466.921 488.735C435.744 508.939 381.074 499.63 363.92 470.16C322.655 495.757 258.244 454.616 268.988 428.929C223.946 422.282 206.136 372.368 236.187 333.863C218.59 299.84 243.463 282.802 243.463 282.802C243.463 282.802 243.439 208.135 295.609 202.583C325.416 164.951 379.663 201.938 379.663 201.938C379.663 201.938 418.106 197.354 428.818 231.305C470.461 241.438 466.482 264.463 468.047 284.224C505.631 289.618 500.975 318.652 500.975 318.652Z" fill="#9E7D6C"/>
<path fill-rule="evenodd" clip-rule="evenodd" d="M386.989 272.364C356.949 275.008 349.886 251.838 349.886 251.838C349.886 251.838 340.399 219.25 335.599 238.341C333.051 248.483 318.321 233.462 310.063 243.8C304.504 250.757 315.986 261.332 298.296 279.633C288.05 290.236 323.815 302.487 299.45 321.557C299.45 321.557 313.27 348.597 285.012 354.588L279.497 384.416C276.29 401.776 288.761 418.117 306.351 419.607C323.121 421.025 337.755 408.314 338.692 391.506L340.739 354.733C383.497 358.42 390.653 299.833 386.989 272.364Z" fill="#FFC999"/>
<path fill-rule="evenodd" clip-rule="evenodd" d="M355.45 310.861C343.079 310.992 332.249 303.771 332.249 303.771C332.249 303.771 329.025 319.885 339.339 321.818C349.355 323.696 355.45 310.861 355.45 310.861Z" fill="white"/>
<path d="M330.478 303.416L330.358 304.106C330.313 304.392 330.265 304.734 330.218 305.125C329.896 307.76 329.847 310.529 330.25 313.162C331.104 318.736 333.86 322.628 339.007 323.593C344.388 324.602 349.107 322.162 353.063 317.619C354.197 316.317 355.186 314.928 356.029 313.539C356.539 312.7 356.891 312.037 357.081 311.636C357.654 310.43 356.766 309.041 355.431 309.055C350.255 309.11 344.938 307.829 339.8 305.654C338.032 304.905 336.414 304.103 334.984 303.303L334.321 302.924C333.823 302.634 333.462 302.408 333.251 302.268C332.181 301.555 330.73 302.156 330.478 303.416ZM333.637 307.332L333.686 306.708L333.22 306.455C334.761 307.317 336.496 308.177 338.392 308.98L339.437 309.41C343.247 310.932 347.152 311.993 351.067 312.437L352.371 312.559L351.989 313.128C351.483 313.853 350.932 314.566 350.339 315.247C347.138 318.923 343.561 320.772 339.672 320.043C336.292 319.409 334.466 316.831 333.82 312.615C333.561 310.921 333.521 309.114 333.637 307.332Z" fill="#F5222D"/>
<path d="M346.492 302.196C347.089 302.184 348.076 302.055 349.462 301.713C351.585 301.188 354.074 300.286 356.935 298.926L357.442 298.68L357.018 297.886C355.07 294.143 353.745 290.492 352.948 286.998L352.744 286.05C352.197 283.351 352.024 281.084 352.075 279.343L352.119 278.535C352.123 278.497 352.126 278.464 352.129 278.438C352.212 277.694 352.883 277.159 353.626 277.243C354.295 277.318 354.795 277.869 354.828 278.52L354.802 278.995C354.71 280.567 354.846 282.781 355.399 285.512C356.235 289.64 357.868 294.037 360.489 298.583C360.875 299.253 360.623 300.111 359.934 300.464C356.141 302.413 352.869 303.662 350.111 304.343C348.515 304.737 347.31 304.893 346.491 304.905L346.125 304.9C345.379 304.853 344.811 304.21 344.857 303.464C344.899 302.792 345.424 302.265 346.073 302.2L346.289 302.194L346.492 302.196Z" fill="#DD936F"/>
<path d="M325.891 267.548C331.417 268.028 334.939 274.923 334.266 282.724C334.183 283.682 333.34 284.391 332.382 284.309C331.424 284.226 330.715 283.382 330.797 282.424C331.326 276.297 328.77 271.293 325.592 271.017C322.418 270.746 319.044 275.238 318.513 281.365C318.43 282.323 317.586 283.032 316.628 282.949C315.67 282.866 314.961 282.022 315.044 281.064C315.704 273.46 320.139 267.388 325.478 267.525L325.891 267.548Z" fill="#253368"/>
<path d="M372.659 275.861C378.183 276.336 381.705 283.232 381.032 291.033C380.949 291.991 380.106 292.7 379.148 292.618C378.19 292.535 377.481 291.692 377.563 290.734C378.092 284.607 375.536 279.603 372.36 279.33C369.183 279.057 365.811 283.546 365.282 289.673C365.199 290.631 364.356 291.341 363.398 291.258C362.44 291.175 361.731 290.332 361.813 289.374C362.47 281.769 366.905 275.696 372.246 275.838L372.659 275.861Z" fill="#253368"/>
<path d="M312.723 251.223C320.971 247.01 328.833 246.856 335.616 249.141C337.232 249.686 338.403 250.241 339.069 250.638C339.938 251.156 340.222 252.281 339.705 253.15C339.187 254.019 338.062 254.303 337.193 253.785L337.022 253.69C336.905 253.629 336.744 253.547 336.538 253.45C335.942 253.167 335.242 252.881 334.446 252.613C328.541 250.624 321.688 250.757 314.39 254.485C313.489 254.946 312.386 254.588 311.925 253.687C311.465 252.786 311.823 251.683 312.723 251.223Z" fill="#253368"/>
<path d="M313.984 345.091C314.396 344.467 315.237 344.296 315.861 344.709C323.766 349.94 332.173 352.95 340.797 353.813C341.542 353.888 342.085 354.551 342.01 355.296C341.936 356.04 341.272 356.583 340.528 356.509C331.464 355.602 322.637 352.441 314.366 346.969C313.742 346.556 313.571 345.715 313.984 345.091Z" fill="#DD936F"/>
<path fill-rule="evenodd" clip-rule="evenodd" d="M489.93 640.272L492.169 639.042C508.897 629.847 515.006 608.837 505.814 592.112L420.664 437.178C411.469 420.449 390.459 414.344 373.734 423.536L371.495 424.765C354.77 433.961 348.662 454.967 357.854 471.696L443.003 626.63C452.198 643.355 473.205 649.463 489.93 640.272Z" fill="#FFC999"/>
<path fill-rule="evenodd" clip-rule="evenodd" d="M393.86 537.208L357.254 470.604C348.433 454.548 355.342 433.644 372.616 424.151C389.891 414.66 411.241 420.03 420.065 436.086L456.32 502.059L393.86 537.208Z" fill="#FF7A46"/>
<path d="M371.202 423.727C371.711 423.447 372.351 423.633 372.631 424.142C372.911 424.651 372.725 425.291 372.216 425.571C355.672 434.666 348.922 454.505 356.923 469.946L357.269 470.595L393.362 536.267L454.897 501.64C455.347 501.387 455.904 501.5 456.223 501.885L456.33 502.041C456.584 502.491 456.47 503.049 456.086 503.367L455.929 503.475L393.469 538.624C393.015 538.879 392.454 538.762 392.137 538.373L392.03 538.214L355.425 471.609C346.312 455.029 353.435 433.493 371.202 423.727Z" fill="#C44343"/>
<path fill-rule="evenodd" clip-rule="evenodd" d="M427.294 1153.48C441.351 1158.89 457.211 1152.11 463.223 1138.13L591.866 839.181C601.133 817.642 590.819 792.786 569.16 784.459C547.504 776.136 523.194 787.68 515.647 809.878L410.898 1118.02C406.002 1132.42 413.237 1148.08 427.294 1153.48Z" fill="#FFC999"/>
<path fill-rule="evenodd" clip-rule="evenodd" d="M238.513 775.112C247.561 747.794 272.612 731.722 293.99 739.519L523.831 823.375C541.534 829.833 549.686 853.044 542.194 875.665C534.709 898.289 514.31 912.047 496.252 906.663L261.786 836.779C239.979 830.28 229.469 802.43 238.513 775.112Z" fill="#FFC999"/>
<path fill-rule="evenodd" clip-rule="evenodd" d="M763.062 1157.46C777.074 1151.95 784.185 1136.24 779.172 1121.87L671.945 814.584C664.222 792.448 639.82 781.097 618.229 789.598C596.639 798.096 586.527 823.038 595.966 844.498L727.013 1142.41C733.138 1156.33 749.053 1162.98 763.062 1157.46Z" fill="#FFC999"/>
<path fill-rule="evenodd" clip-rule="evenodd" d="M362.397 800.049C365.512 771.441 386.635 750.468 409.173 753.61L651.492 787.372C670.157 789.972 682.995 810.958 680.42 834.646C677.842 858.338 660.787 876.069 642.002 874.596L398.093 855.461C375.404 853.679 359.287 828.658 362.397 800.049Z" fill="#FFC999"/>
<path fill-rule="evenodd" clip-rule="evenodd" d="M401.539 464.536C407.987 480.623 420.028 508.353 420.815 526.324C422.089 555.455 402.15 576.108 402.15 576.108C402.15 576.108 402.5 582.199 405.724 642.785C318.49 653.714 255.549 645.363 255.549 645.363L257.935 614.876L246.199 567.108C246.199 567.108 245.386 548.701 229.773 508.727C218.913 480.935 223.369 448.361 225.907 430.417C226.988 422.729 220.351 412.816 227.922 411.082C254.361 405.029 267.766 408.325 267.766 408.325L271.069 391.243C271.635 388.318 274.265 386.251 277.242 386.398L340.819 389.516C343.549 389.65 345.842 391.617 346.392 394.295L350.11 409.259L392.924 417.596C399.042 419.113 403.454 424.446 403.788 430.74L401.539 464.536Z" fill="#FF7A46"/>
<path d="M285.584 409.008L342.833 411.817C343.435 411.846 343.899 412.358 343.87 412.961C343.843 413.496 343.436 413.922 342.922 413.99L342.726 413.998L285.477 411.189C284.875 411.16 284.411 410.647 284.44 410.045C284.466 409.51 284.874 409.083 285.387 409.016L285.584 409.008Z" fill="#C44343"/>
<path d="M266.444 403.44C267.01 403.035 267.775 403.111 268.251 403.589L268.398 403.763L325.09 482.92L352.029 412.996C352.279 412.346 352.961 411.99 353.621 412.128L353.84 412.192C354.489 412.443 354.846 413.124 354.708 413.784L354.643 414.003L326.773 486.352C326.399 487.323 325.158 487.543 324.466 486.831L324.327 486.664L266.12 405.395C265.67 404.766 265.815 403.891 266.444 403.44Z" fill="#CCD7EE"/>
<path fill-rule="evenodd" clip-rule="evenodd" d="M342.5 492.617C348.324 503.635 344.804 516.923 334.641 522.294C324.474 527.667 311.515 523.09 305.689 512.072C299.869 501.053 303.385 487.765 313.548 482.395C323.715 477.022 336.677 481.599 342.5 492.617Z" fill="#CCD7EE"/>
<path fill-rule="evenodd" clip-rule="evenodd" d="M344.784 492.676C350.603 503.694 347.087 516.982 336.924 522.352C326.757 527.726 313.799 523.149 307.972 512.131C302.149 501.112 305.668 487.824 315.831 482.454C325.998 477.081 338.96 481.658 344.784 492.676Z" fill="#E4EBF7"/>
<path fill-rule="evenodd" clip-rule="evenodd" d="M340.659 494.344C345.181 502.9 342.448 513.215 334.558 517.387C326.668 521.558 316.6 518.005 312.082 509.448C307.56 500.895 310.289 490.577 318.183 486.405C326.077 482.237 336.141 485.791 340.659 494.344Z" fill="#FAAD14"/>
<path d="M217.171 428.688C217.772 428.734 218.222 429.259 218.175 429.86L217.909 433.577L217.71 436.595C217.578 438.664 217.448 440.841 217.324 443.095C217.035 448.325 216.807 453.464 216.659 458.354L216.592 460.777C216.337 470.926 216.476 479.06 217.1 484.412C217.728 489.791 220.781 498.708 225.669 510.138L226.148 511.252C227.182 513.645 228.283 516.119 229.441 518.658C232.182 524.666 235.12 530.767 238.058 536.644L239.542 539.593L241.972 544.325L242.063 544.563L259.99 615.007L260.018 615.385L257.133 644.198L260.425 644.494L262.888 644.697C265.857 644.933 269.16 645.166 272.774 645.387C312.621 647.822 357.278 647.225 401.527 641.505L404.001 641.176L403.972 638.94C403.868 634.251 403.501 625.086 402.935 612.654L402.42 601.597L401.29 578.547C401.279 578.326 401.335 578.106 401.452 577.917L402.226 576.628L403.003 575.293C403.408 574.59 403.835 573.834 404.282 573.028C406.412 569.192 408.542 565.038 410.529 560.72C413.23 554.851 415.45 549.144 417.023 543.779C418.468 538.848 419.329 534.329 419.526 530.317C420.032 520.004 419.087 511.965 416.509 503.685C415.15 499.32 413.331 494.813 410.658 489.059L409.533 486.675C408.203 483.909 405.71 478.824 403.665 474.665L400.407 468.048L400.297 467.557L400.499 449.655C400.506 449.052 401 448.568 401.603 448.575C402.139 448.581 402.581 448.972 402.667 449.483L402.683 449.679L402.481 467.32L410.851 484.383C411.305 485.32 411.687 486.115 411.965 486.701L412.088 486.961C415.102 493.365 417.11 498.269 418.594 503.036C421.25 511.567 422.225 519.862 421.707 530.424C421.501 534.626 420.609 539.309 419.118 544.394C417.513 549.87 415.255 555.674 412.513 561.633C410.789 565.38 408.959 569.002 407.115 572.405L406.192 574.088C405.739 574.904 405.306 575.67 404.895 576.383L403.764 578.315L403.486 578.772L403.895 586.924C404.133 591.752 404.372 596.662 404.601 601.493L405.73 626.646C406.08 635.238 406.241 640.677 406.167 642.191C406.141 642.716 405.744 643.149 405.222 643.219C359.705 649.378 313.64 650.073 272.64 647.566L269.608 647.373C266.653 647.178 263.93 646.976 261.456 646.772L257.535 646.429L255.823 646.261C255.292 646.205 254.89 645.777 254.849 645.263L254.851 645.067L257.826 615.36L239.978 545.226L238.955 543.248C238.095 541.574 237.136 539.685 236.104 537.62C233.156 531.722 230.207 525.598 227.455 519.565C226.581 517.65 225.74 515.773 224.936 513.938L224.143 512.118C218.892 499.96 215.612 490.498 214.931 484.665C214.292 479.184 214.151 470.967 214.409 460.722C214.53 455.9 214.735 450.803 215.004 445.59L215.143 442.975C215.268 440.714 215.398 438.53 215.531 436.455L215.998 429.692C216.045 429.091 216.57 428.641 217.171 428.688Z" fill="#C44343"/>
<path fill-rule="evenodd" clip-rule="evenodd" d="M408.711 660.551L403.145 641.495C403.145 641.495 332.045 646.673 265.221 646.649C261.986 654.44 261.351 669.207 261.351 669.207C266.725 664.328 334.851 674.341 408.711 660.551Z" fill="#4E5C93"/>
<path fill-rule="evenodd" clip-rule="evenodd" d="M630.6 749.197L430.857 692.409L411.523 661.473L262.052 667.33C262.052 667.33 166.021 845.606 279.69 884.625C369.956 909.471 395.028 912.018 395.028 912.018L430.517 960.834L591.865 883.166L709.751 809.004L630.6 749.197Z" fill="#4E5C93"/>
<path d="M333.639 673.276C334.179 672.931 334.877 673.032 335.299 673.486L335.443 673.672L359.01 710.478L527.625 816.424C527.787 816.526 527.924 816.662 528.027 816.821L528.119 816.988L558.252 883.109C558.551 883.766 558.261 884.54 557.605 884.84C557.014 885.109 556.327 884.901 555.978 884.378L555.874 884.193L525.903 818.43L357.371 712.535C357.262 712.467 357.164 712.383 357.08 712.287L356.965 712.133L333.243 675.081C332.854 674.474 333.031 673.665 333.639 673.276Z" fill="#253368"/>
<path d="M304.697 679.932C305.345 679.887 305.915 680.322 306.059 680.934L306.091 681.144L309.699 732.993L371.951 836.378L431.692 960.269C432.006 960.918 431.733 961.699 431.083 962.013C430.498 962.295 429.807 962.102 429.446 961.587L429.339 961.403L369.655 837.619L307.298 734.069C307.227 733.951 307.175 733.822 307.144 733.689L307.114 733.486L303.484 681.326C303.434 680.606 303.977 679.982 304.697 679.932Z" fill="#253368"/>
<path d="M278.768 683.193L278.979 683.217C279.616 683.343 280.053 683.911 280.033 684.54L280.009 684.751L265.95 756.392L329.186 889.191C329.465 889.777 329.269 890.467 328.752 890.826L328.568 890.932C327.982 891.212 327.291 891.015 326.933 890.498L326.827 890.314L263.408 757.129C263.318 756.939 263.275 756.731 263.282 756.523L263.306 756.316L277.445 684.248C277.57 683.611 278.139 683.173 278.768 683.193Z" fill="#253368"/>
<path d="M410.178 659.523C410.556 659.507 410.92 659.656 411.177 659.925L411.319 660.1L433.606 693.211L630.948 747.937L631.387 748.154L710.538 807.96C711.207 808.465 711.222 809.44 710.625 809.974L710.446 810.108L592.561 884.27C591.95 884.655 591.143 884.471 590.759 883.86C590.418 883.317 590.525 882.62 590.982 882.202L591.169 882.059L707.453 808.903L630.01 750.388L432.444 695.603C432.219 695.541 432.016 695.42 431.856 695.254L431.71 695.074L409.557 662.165L262.108 668.634C261.46 668.663 260.901 668.213 260.772 667.597L260.745 667.386C260.717 666.737 261.167 666.178 261.783 666.05L261.994 666.024L410.178 659.523Z" fill="#253368"/>
<path d="M334.326 720.952C334.873 720.617 335.569 720.732 335.982 721.194L336.123 721.383L365.044 768.512L428.896 826.801C429.37 827.233 429.452 827.934 429.123 828.459L428.98 828.646C428.548 829.12 427.847 829.203 427.322 828.873L427.134 828.731L363.149 770.322L362.917 770.04L333.896 722.749C333.519 722.134 333.711 721.33 334.326 720.952Z" fill="#253368"/>
<path d="M439.748 740.789C439.959 740.175 440.582 739.819 441.202 739.925L441.408 739.978L542.649 774.749L625.783 819.996C626.416 820.341 626.651 821.135 626.306 821.769C625.995 822.339 625.322 822.586 624.728 822.378L624.534 822.292L541.6 777.132L440.559 742.449C439.877 742.215 439.514 741.472 439.748 740.789Z" fill="#253368"/>
<path fill-rule="evenodd" clip-rule="evenodd" d="M573.168 428.655C582.933 433.805 587.308 444.985 583.105 454.025L505.705 624.737C497.663 640.501 474.768 654.383 455.832 640.604C438.351 631.377 431.168 610.954 439.934 595.404L547.066 434.052C552.405 426.011 563.722 423.672 573.168 428.655Z" fill="#FFC999"/>
<path fill-rule="evenodd" clip-rule="evenodd" d="M255.121 838.987C265.927 836.24 272.866 826.276 270.871 816.37L232.346 625.129C228.168 607.687 209.077 597.42 189.897 602.293C170.548 607.213 158.672 625.61 163.613 643.015L231.179 838.775C234.527 847.963 244.669 841.645 255.121 838.987Z" fill="#FFC999"/>
<path fill-rule="evenodd" clip-rule="evenodd" d="M188.354 658.3L192.203 659.076C211.177 662.907 229.667 650.632 233.495 631.655L268.096 460.305C271.924 441.331 259.649 422.844 240.671 419.012L236.826 418.233C217.852 414.405 199.362 426.68 195.533 445.654L160.937 617.004C157.101 635.981 169.38 654.468 188.354 658.3Z" fill="#FFC999"/>
<path fill-rule="evenodd" clip-rule="evenodd" d="M181.085 517.204L197.054 438.1C200.907 419.034 220.571 406.762 240.754 410.838C260.936 414.913 274.296 433.85 270.447 452.92L254.629 531.271L181.085 517.204Z" fill="#FF7A46"/>
<path d="M180.74 513.77L255.228 530.887C255.803 531.019 256.162 531.592 256.03 532.167C255.913 532.678 255.447 533.018 254.941 532.995L254.75 532.968L180.262 515.852C179.687 515.72 179.328 515.147 179.46 514.572C179.578 514.061 180.043 513.721 180.549 513.744L180.74 513.77Z" fill="#C44343"/>
<path fill-rule="evenodd" clip-rule="evenodd" d="M323.102 885.115C329.396 882.715 318.23 854.916 314.752 849.227C310.117 841.635 267.43 818.039 267.43 818.039L259.931 784.504L220.613 800.532C220.613 800.532 226.66 837.525 237.74 856.595C246.008 870.824 260.072 867.778 280.069 886.622C289.326 895.343 300.911 904.573 305.629 897.613C306.559 896.239 316.184 898.763 314.948 890.258C314.948 890.258 318.22 892.809 321.303 890.231C323.978 887.989 323.102 885.115 323.102 885.115Z" fill="#FFC999"/>
<path d="M271.583 864.784C271.902 864.107 272.71 863.817 273.386 864.136L274.153 864.517L274.432 864.661C275.246 865.084 276.151 865.581 277.124 866.15C279.904 867.774 282.684 869.65 285.284 871.757C287.643 873.668 289.74 875.682 291.507 877.794L306.975 896.284C307.455 896.858 307.379 897.712 306.805 898.192C306.231 898.672 305.377 898.596 304.897 898.022L289.429 879.532C287.782 877.564 285.809 875.669 283.578 873.862C281.094 871.849 278.426 870.048 275.757 868.489C275.057 868.08 274.395 867.71 273.781 867.381L272.505 866.72C272.39 866.663 272.298 866.618 272.231 866.587C271.555 866.268 271.265 865.461 271.583 864.784Z" fill="#DD936F"/>
<path d="M282.167 852.588C282.628 851.998 283.48 851.895 284.069 852.356L284.961 853.074L286.069 853.995C286.457 854.321 286.862 854.667 287.282 855.031C289.681 857.108 292.08 859.345 294.323 861.66C296.888 864.308 299.086 866.892 300.803 869.36L302.158 871.29C302.63 871.957 303.123 872.648 303.634 873.36L305.244 875.587C306.539 877.367 307.89 879.201 309.263 881.048L313.198 886.294L315.112 888.813C315.567 889.407 315.454 890.257 314.86 890.712C314.266 891.167 313.416 891.054 312.961 890.46L310.463 887.168L309.864 886.374C308.007 883.906 306.15 881.41 304.371 878.985L302.22 876.031L300.675 873.88C299.931 872.837 299.231 871.845 298.579 870.908C296.955 868.573 294.849 866.096 292.377 863.545C290.194 861.292 287.851 859.107 285.508 857.078L284.325 856.068L282.645 854.684C282.542 854.601 282.459 854.536 282.399 854.489C281.81 854.028 281.706 853.177 282.167 852.588Z" fill="#DD936F"/>
<path d="M291.619 844.214C292.038 843.595 292.881 843.433 293.5 843.853L294.391 844.483C295.086 844.986 295.859 845.567 296.691 846.219C299.068 848.083 301.444 850.15 303.666 852.366C307.973 856.662 311.179 860.993 312.826 865.245C313.626 867.31 314.514 869.337 315.476 871.319C317.019 874.499 318.672 877.408 320.324 879.983C320.901 880.882 321.436 881.674 321.914 882.351L322.5 883.157C322.954 883.751 322.841 884.601 322.247 885.056C321.653 885.51 320.803 885.397 320.348 884.803L319.874 884.157L319.702 883.915C319.201 883.205 318.643 882.38 318.044 881.446C316.337 878.785 314.631 875.783 313.038 872.501C312.046 870.455 311.128 868.36 310.3 866.223C308.813 862.386 305.816 858.336 301.753 854.284C299.614 852.15 297.317 850.153 295.02 848.351L293.86 847.459C293.675 847.32 293.494 847.184 293.318 847.054L292.083 846.166C292.043 846.139 292.009 846.115 291.98 846.096C291.361 845.676 291.199 844.834 291.619 844.214Z" fill="#DD936F"/>
<path fill-rule="evenodd" clip-rule="evenodd" d="M543.084 432.673L553.515 377.005C553.515 377.005 582.433 312.906 595.329 315.447C607.46 319.437 582.797 339.345 579.216 357.018C590.224 355.17 586.763 372.136 586.763 372.136C586.763 372.136 595.556 370.972 594.468 384.631C603.12 388.699 598.025 404.741 598.025 404.741C598.025 404.741 593.537 436.073 577.89 464.898C577.89 464.898 545.378 480.733 543.084 432.673Z" fill="#FFC999"/>
<path fill-rule="evenodd" clip-rule="evenodd" d="M541.763 428.18C541.763 428.18 542.473 402.188 543.589 388.872C544.702 375.557 536.921 352.449 547.064 357.802C553.88 361.4 554.11 375.567 554.865 385.961C555.628 396.347 574.718 419.328 563.861 437.533C556.527 449.832 543.373 452.614 541.763 428.18Z" fill="#FFC999"/>
<path d="M578.151 356.182C578.613 355.594 579.465 355.491 580.053 355.953C580.642 356.415 580.745 357.266 580.283 357.855L579.764 358.534L578.744 359.913C578.622 360.08 578.498 360.252 578.372 360.428C576.931 362.438 575.49 364.586 574.147 366.782C572.822 368.949 571.665 371.046 570.724 373.026C567.224 380.39 567.173 384.928 571.044 386.126C571.758 386.347 572.159 387.105 571.937 387.82C571.716 388.535 570.958 388.935 570.243 388.714C564.078 386.805 564.149 380.55 568.277 371.863C569.263 369.79 570.465 367.611 571.836 365.369C573.217 363.112 574.694 360.91 576.171 358.849L576.918 357.82L578.08 356.274C578.107 356.239 578.131 356.209 578.151 356.182Z" fill="#DD936F"/>
<path d="M586.754 371.809C587.264 372.357 587.233 373.214 586.685 373.723L586.114 374.269L585.382 374.986C585.126 375.24 584.858 375.509 584.58 375.792C582.993 377.407 581.405 379.134 579.926 380.897C578.479 382.622 577.215 384.291 576.187 385.864C572.907 390.883 572.477 394.072 575.04 395.327C575.584 395.592 576.142 395.721 576.728 395.724C578.809 395.733 581.273 394.151 583.783 391.458C584.699 390.475 585.553 389.416 586.321 388.358L586.904 387.527C587.064 387.293 587.186 387.104 587.269 386.97C587.664 386.335 588.499 386.139 589.135 386.534C589.77 386.929 589.965 387.764 589.571 388.399L589.32 388.79C589.117 389.095 588.847 389.488 588.514 389.947C587.686 391.09 586.763 392.233 585.765 393.305C582.784 396.503 579.758 398.447 576.715 398.433C575.725 398.428 574.763 398.207 573.85 397.76C569.197 395.482 569.855 390.6 573.919 384.382C575.012 382.71 576.339 380.958 577.851 379.156C579.379 377.333 581.014 375.556 582.648 373.893L583.861 372.68L584.84 371.74C585.388 371.23 586.245 371.261 586.754 371.809Z" fill="#DD936F"/>
<path d="M591.27 384.58C591.995 384.394 592.733 384.831 592.919 385.556C593.105 386.28 592.668 387.019 591.943 387.205C590.198 387.652 588.088 389.468 585.679 392.92C580.621 400.167 579.855 404.584 581.628 405.406C583.47 406.26 587.445 403.968 589.751 399.89C590.58 398.426 592.806 399.485 592.191 401.052C588.941 409.339 584.688 414.718 578.692 419.237C577.883 419.846 577.05 420.438 576.102 421.08L572.19 423.653C564.263 428.872 561.28 432.864 560.314 442.209C560.237 442.953 559.572 443.494 558.828 443.417C558.084 443.34 557.543 442.674 557.62 441.93C558.653 431.936 561.973 427.266 570.036 421.833L573.868 419.317L575.243 418.385C575.889 417.937 576.483 417.509 577.061 417.073C580.567 414.431 583.42 411.495 585.814 407.759L586.124 407.26L585.865 407.397C584.085 408.274 582.299 408.538 580.824 408.002L580.489 407.864C576.476 406.005 577.546 399.841 583.457 391.37C586.202 387.436 588.779 385.22 591.27 384.58Z" fill="#DD936F"/>
<path d="M553.678 371.636C554.341 371.517 554.977 371.902 555.194 372.517L555.251 372.73L558.714 392.012L558.905 392.281C559.203 392.702 559.533 393.19 559.888 393.738C560.9 395.299 561.91 397.036 562.854 398.908C565.569 404.296 567.205 409.703 567.206 414.816C567.207 417.704 566.675 420.416 565.553 422.908C565.245 423.59 564.443 423.894 563.761 423.586C563.079 423.279 562.775 422.477 563.083 421.795C564.04 419.67 564.498 417.336 564.497 414.817C564.496 410.195 562.976 405.171 560.435 400.128C559.717 398.704 558.958 397.361 558.191 396.121L557.615 395.211C557.042 394.327 556.6 393.701 556.356 393.378C556.271 393.265 556.204 393.139 556.157 393.006L556.104 392.801L552.584 373.209C552.452 372.473 552.942 371.768 553.678 371.636Z" fill="#DD936F"/>
<path d="M403.096 640.188C403.817 640.161 404.423 640.724 404.451 641.445C404.474 642.094 404.021 642.65 403.405 642.775L403.193 642.8L265.269 647.953C264.548 647.98 263.942 647.418 263.914 646.697C263.891 646.048 264.344 645.492 264.961 645.367L265.172 645.342L403.096 640.188Z" fill="#253368"/>
</g>
<path fill-rule="evenodd" clip-rule="evenodd" d="M690.902 453.411C636.428 427.645 603.961 495.221 631.358 532.846C664.79 578.76 681.915 631.591 691.452 647.509C699.497 660.936 721.535 693.673 748.071 678.584C772.493 664.698 759.183 610.198 759.183 610.198C759.183 610.198 758.104 485.198 690.902 453.411Z" fill="#5B8C00"/>
<path fill-rule="evenodd" clip-rule="evenodd" d="M854.751 668.091C873.271 643.105 880.033 607.25 859.362 598.055C839.543 589.24 806.714 610.945 791.508 652.717C776.303 694.489 767.53 724.522 782.404 729.744C806.808 738.311 830.291 701.091 854.751 668.091Z" fill="#5B8C00"/>
<path fill-rule="evenodd" clip-rule="evenodd" d="M660.055 669.988C681.002 694.535 711.228 743.914 730.165 726.619C741.641 716.139 726.298 666.504 684.301 639.498C648.577 616.526 639.109 645.441 660.055 669.988Z" fill="#7CB305"/>
<path fill-rule="evenodd" clip-rule="evenodd" d="M860.493 499.646C852.528 494.287 842.506 493.063 833.364 495.992C820.603 500.079 801.239 512.248 782.074 547.177C757.053 592.781 744.027 642.775 746.602 674.443C748.285 695.153 773.8 704.082 788.073 688.981C794.628 682.046 801.564 671.356 808.35 655.139C835.66 589.877 861.193 548.98 864.238 544.874C872.362 533.916 878.171 511.541 860.493 499.646Z" fill="#7CB305"/>
<path fill-rule="evenodd" clip-rule="evenodd" d="M842.176 525.677C841.906 528.9 844.299 531.731 847.521 532.001C850.744 532.271 853.575 529.878 853.845 526.656C854.116 523.434 851.722 520.603 848.5 520.332C845.278 520.062 842.447 522.455 842.176 525.677Z" fill="white"/>
<path fill-rule="evenodd" clip-rule="evenodd" d="M792.446 550.675C792.175 553.897 794.568 556.728 797.791 556.998C801.013 557.269 803.844 554.876 804.115 551.653C804.385 548.432 801.992 545.601 798.769 545.33C795.547 545.06 792.716 547.453 792.446 550.675Z" fill="white"/>
<path fill-rule="evenodd" clip-rule="evenodd" d="M800.781 617.232C800.471 620.923 803.212 624.165 806.902 624.474C810.592 624.784 813.834 622.043 814.144 618.353C814.453 614.663 811.713 611.421 808.023 611.111C804.333 610.802 801.091 613.542 800.781 617.232Z" fill="white"/>
<path fill-rule="evenodd" clip-rule="evenodd" d="M648.033 517.765C648.033 523.002 652.278 527.248 657.515 527.248C662.752 527.248 666.997 523.002 666.997 517.765C666.997 512.528 662.752 508.283 657.515 508.283C652.278 508.283 648.033 512.528 648.033 517.765Z" fill="white"/>
<path fill-rule="evenodd" clip-rule="evenodd" d="M724.367 546.721C724.367 551.958 728.613 556.203 733.85 556.203C739.087 556.203 743.332 551.958 743.332 546.721C743.332 541.484 739.087 537.239 733.85 537.239C728.613 537.239 724.367 541.484 724.367 546.721Z" fill="white"/>
<path fill-rule="evenodd" clip-rule="evenodd" d="M699.645 611.087C699.645 613.276 701.419 615.051 703.608 615.051C705.797 615.051 707.571 613.276 707.571 611.087C707.571 608.898 705.797 607.124 703.608 607.124C701.419 607.124 699.645 608.898 699.645 611.087Z" fill="white"/>
<path fill-rule="evenodd" clip-rule="evenodd" d="M671.092 661.773C671.092 665.007 673.713 667.628 676.947 667.628C680.181 667.628 682.801 665.007 682.801 661.773C682.801 658.54 680.181 655.919 676.947 655.919C673.713 655.919 671.092 658.54 671.092 661.773Z" fill="white"/>
<path d="M807.845 674.76C807.3 674.239 806.436 674.26 805.915 674.805L805.666 675.075L805.476 675.284C805.132 675.669 804.735 676.127 804.288 676.66C803.019 678.173 801.608 679.981 800.091 682.082C795.766 688.07 791.446 695.213 787.417 703.501C775.917 727.154 769.02 755.248 769.02 787.68C769.02 788.434 769.632 789.046 770.386 789.046C771.14 789.046 771.751 788.434 771.751 787.68C771.751 755.676 778.548 727.987 789.872 704.695C793.831 696.553 798.07 689.544 802.304 683.681C803.695 681.754 804.991 680.085 806.162 678.675L806.38 678.414C806.712 678.018 807.015 677.666 807.286 677.359L807.628 676.976C807.755 676.835 807.843 676.74 807.891 676.69C808.412 676.144 808.391 675.28 807.845 674.76Z" fill="#253368"/>
<path d="M704.702 684.315C704.251 683.711 703.396 683.587 702.791 684.038C702.187 684.489 702.063 685.345 702.514 685.949C707.487 692.609 712.075 699.769 716.295 707.359C725.216 723.405 732.113 740.608 737.233 757.812C739.024 763.833 740.465 769.423 741.587 774.437L741.814 775.465C742.082 776.692 742.314 777.81 742.51 778.812L742.638 779.469L742.864 780.707C742.989 781.45 743.694 781.952 744.437 781.826C745.181 781.701 745.682 780.997 745.557 780.253L745.479 779.814C745.415 779.459 745.337 779.041 745.244 778.563L745.018 777.426C744.798 776.342 744.544 775.145 744.252 773.841L744.004 772.745C742.907 767.958 741.531 762.682 739.85 757.033C734.677 739.651 727.708 722.267 718.682 706.033C714.404 698.339 709.75 691.076 704.702 684.315Z" fill="#253368"/>
<path d="M680.845 513.985C680.322 514.486 680.284 515.302 680.744 515.849L680.804 515.915C680.83 515.943 680.888 516.005 680.976 516.099L681.311 516.465L681.506 516.682C682.094 517.337 682.777 518.126 683.548 519.048C685.759 521.693 688.225 524.875 690.884 528.597C698.492 539.249 706.105 552.078 713.213 567.097C725.049 592.104 734.266 620.625 739.853 652.689C746.637 691.623 747.76 734.156 742.207 780.317C742.117 781.066 742.651 781.746 743.4 781.836C744.148 781.926 744.828 781.392 744.918 780.643C750.503 734.217 749.372 691.417 742.543 652.22C736.913 619.91 727.62 591.154 715.681 565.929C708.502 550.759 700.806 537.791 693.106 527.01L692.509 526.179C690.135 522.891 687.915 520.032 685.895 517.599L685.643 517.297C684.918 516.429 684.266 515.674 683.693 515.031L683.539 514.859C683.36 514.66 683.2 514.484 683.06 514.331L682.775 514.026C682.253 513.482 681.389 513.463 680.845 513.985Z" fill="#253368"/>
<path d="M799.017 594.945C798.372 594.555 797.533 594.761 797.142 595.406L797.005 595.636C796.896 595.82 796.767 596.041 796.62 596.296L796.406 596.671C796.04 597.315 795.629 598.054 795.175 598.889L794.8 599.584C793.412 602.169 791.89 605.16 790.265 608.548L790.043 609.012C784.743 620.115 779.446 633.099 774.504 647.853C760.665 689.164 752.245 736.053 751.93 787.672C751.926 788.426 752.533 789.041 753.287 789.046C754.041 789.05 754.656 788.443 754.661 787.689C754.974 736.371 763.342 689.768 777.093 648.721C781.91 634.341 787.063 621.663 792.22 610.79L792.507 610.188C794.27 606.495 795.911 603.272 797.391 600.532L797.836 599.712C798.264 598.932 798.649 598.247 798.988 597.657L799.149 597.379L799.477 596.821C799.868 596.176 799.662 595.336 799.017 594.945Z" fill="#253368"/>
<path fill-rule="evenodd" clip-rule="evenodd" d="M693.944 855.4H811.954C818.333 855.4 823.552 850.18 823.552 843.801V757.709C823.552 751.329 818.333 746.11 811.954 746.11H693.944C687.565 746.11 682.346 751.329 682.346 757.709V843.801C682.346 850.18 687.565 855.4 693.944 855.4Z" fill="#253368"/>
<g clip-path="url(#clip1_3_7509)">
<path d="M783.866 393.965L822.774 357.585L833.943 380.345C841.062 395.296 839.965 409.997 831.466 422.33C828.271 426.65 825.108 429.447 821.886 431.722C825.35 429.958 831.705 427.368 836.719 428.965C843.991 431.289 847.751 434.737 855.096 442.582L866.499 457.062C866.499 457.062 828.371 472.679 827.696 471.886C821.311 473.37 812.861 474.731 805.333 473.448C799.677 472.488 794.535 470.03 791.176 465.009C779.834 464.323 777.368 460.356 783.777 453.103C784.385 452.42 785.052 451.742 785.775 451.078C784.024 449.106 781.959 446.75 779.571 444.018C773.611 436.089 770.709 426.356 771.516 416.97C772.194 409.079 775.442 401.969 780.681 396.73C781.674 395.737 782.736 394.815 783.866 393.965Z" fill="url(#paint3_linear_3_7509)"/>
<path d="M798.297 446.678C814.361 437.692 820.776 440.309 827.488 444.311C834.204 448.305 845.642 463.772 848.649 468.731C848.649 468.731 828.395 480.96 807.657 484.723C793.647 485.532 792.133 481.129 782.634 470.996C774.039 460.964 768.329 453.329 765.508 448.098C769.986 454.867 780.918 454.391 798.297 446.678Z" fill="url(#paint4_linear_3_7509)"/>
<path d="M813.248 390.611C824.31 408.354 823.931 421.083 813.192 434.409C811.357 438.427 788.809 458.732 792.803 479.981C791.743 480.422 783.624 471.367 768.439 452.826C761.823 442.219 757.187 435.737 756.996 425.913C756.802 416.086 764.007 403.093 769.236 395.928L793.855 364.08L813.248 390.611Z" fill="url(#paint5_linear_3_7509)"/>
<path d="M799.306 446.143C800.645 445.379 801.761 444.855 802.1 444.682C803.926 443.771 805.841 442.964 806.694 442.681C795.358 458.918 790.544 471.692 792.254 481.009C791.364 480.689 786.706 475.423 784.366 472.943C774.692 461.844 768.418 453.488 765.43 447.945C770.612 454.138 780.811 454.886 799.306 446.143Z" fill="#FFB511"/>
</g>
<defs>
<linearGradient id="paint0_linear_3_7509" x1="67.7803" y1="778.626" x2="183.459" y2="764.134" gradientUnits="userSpaceOnUse">
<stop stop-color="#FFBA00"/>
<stop offset="1" stop-color="#FA5800"/>
</linearGradient>
<linearGradient id="paint1_linear_3_7509" x1="227.971" y1="754.43" x2="149.169" y2="855.616" gradientUnits="userSpaceOnUse">
<stop stop-color="#FFF75D"/>
<stop offset="1" stop-color="#F89800"/>
</linearGradient>
<linearGradient id="paint2_linear_3_7509" x1="91.3301" y1="656.349" x2="226.159" y2="772.545" gradientUnits="userSpaceOnUse">
<stop stop-color="#FFF75D"/>
<stop offset="1" stop-color="#F89600"/>
</linearGradient>
<linearGradient id="paint3_linear_3_7509" x1="852.831" y1="405.89" x2="800.078" y2="446.897" gradientUnits="userSpaceOnUse">
<stop stop-color="#FFBA00"/>
<stop offset="1" stop-color="#FA5800"/>
</linearGradient>
<linearGradient id="paint4_linear_3_7509" x1="778.106" y1="461.003" x2="851.048" y2="470.075" gradientUnits="userSpaceOnUse">
<stop stop-color="#FFF75D"/>
<stop offset="1" stop-color="#F89800"/>
</linearGradient>
<linearGradient id="paint5_linear_3_7509" x1="793.733" y1="365.88" x2="786.182" y2="467.61" gradientUnits="userSpaceOnUse">
<stop stop-color="#FFF75D"/>
<stop offset="1" stop-color="#F89600"/>
</linearGradient>
<clipPath id="clip0_3_7509">
<rect width="979" height="807" fill="white" transform="translate(0 92)"/>
</clipPath>
<clipPath id="clip1_3_7509">
<rect width="151.878" height="151.878" fill="white" transform="matrix(-0.707107 0.707107 0.707107 0.707107 814.394 319)"/>
</clipPath>
</defs>
</svg>
