<svg xmlns="http://www.w3.org/2000/svg" viewBox="0 0 830 830"><defs><style>.cls-1{fill:#f9f1de;}.cls-2{fill:#fff;}.cls-3{fill:#dce1e3;}.cls-4{fill:#516b75;}.cls-5{fill:#ddd;}.cls-6{fill:#dee1eb;}.cls-7{fill:#416c7c;}</style></defs><g id="Layer_2" data-name="Layer 2"><g id="Illustration"><g id="HTML5_website_development" data-name="HTML5 website development"><path class="cls-1" d="M179.36,37.56c168.56-93.25,394.39,3.63,512.07,111C725,179.27,806.55,255.81,825.8,378.49,849.71,530.87,771.45,715.58,592,794.59c-195.38,86-413.82,4.49-516.06-127.8C-19.72,543.06-.58,397.38,6.25,345.34,14.27,284.28,38.13,115.69,179.36,37.56Z"/><path d="M654.22,234.37,37.27,210.55a26.64,26.64,0,0,0-26.61,26.61V667.85a26.64,26.64,0,0,0,26.61,26.61l222.92-15.1L231.57,783.83l-30.28.24a17.13,17.13,0,1,0,0,34.25l253.61-12.1c9.44,0-8.23-111.76-8.23-111.76S668.89,234.37,654.22,234.37Z"/><polygon class="cls-2" points="442.68 639.4 285.36 639.4 240.73 802.31 487.31 802.31 442.68 639.4"/><path d="M487.31,803.81H240.73a1.5,1.5,0,0,1-1.45-1.9L283.91,639a1.5,1.5,0,0,1,1.45-1.11H442.68a1.5,1.5,0,0,1,1.45,1.11l44.63,162.9a1.5,1.5,0,0,1-1.45,1.9Zm-244.62-3H485.35L441.54,640.9h-155Z"/><rect class="cls-2" x="24.82" y="212.06" width="678.4" height="480.9" rx="25.11"/><path d="M678.11,694.46H49.93a26.64,26.64,0,0,1-26.61-26.61V237.16a26.64,26.64,0,0,1,26.61-26.6H678.11a26.64,26.64,0,0,1,26.61,26.6V667.85A26.64,26.64,0,0,1,678.11,694.46ZM49.93,213.56a23.63,23.63,0,0,0-23.61,23.6V667.85a23.63,23.63,0,0,0,23.61,23.61H678.11a23.63,23.63,0,0,0,23.61-23.61V237.16a23.63,23.63,0,0,0-23.61-23.6Z"/><path class="cls-2" d="M514.09,785.57H214a15.62,15.62,0,0,0,0,31.24H514.09a15.62,15.62,0,1,0,0-31.24Z"/><path d="M514.09,818.31H214a17.12,17.12,0,0,1,0-34.24H514.09a17.12,17.12,0,1,1,0,34.24ZM214,787.07a14.12,14.12,0,0,0,0,28.24H514.09a14.12,14.12,0,1,0,0-28.24Z"/><path class="cls-3" d="M48.64,233.84l-1.5,407.07c0,16.42,5.57,29.73,12.45,29.73H667c6.88,0,12.45-13.31,12.45-29.73V236.63Z"/><path class="cls-3" d="M668.42,672.14H59.62a14,14,0,0,1-14-14V554.68a1.5,1.5,0,0,1,3,0V658.16a11,11,0,0,0,11,11h608.8a11,11,0,0,0,11-11V488.46a1.5,1.5,0,1,1,3,0v169.7A14,14,0,0,1,668.42,672.14Z"/><path class="cls-3" d="M47.14,267.87v0Z"/><path class="cls-3" d="M47.14,295.85a1.5,1.5,0,0,1-1.5-1.5V267.87a1.5,1.5,0,0,1,3,0v26.48A1.5,1.5,0,0,1,47.14,295.85Z"/><path class="cls-3" d="M95.83,234.37H59.62a12.49,12.49,0,0,0-12.48,12.49Z"/><path class="cls-3" d="M47.14,248.36a1.5,1.5,0,0,1-1.5-1.5,14,14,0,0,1,14-14H95.83a1.5,1.5,0,0,1,0,3H59.62a11,11,0,0,0-11,11A1.5,1.5,0,0,1,47.14,248.36Z"/><path class="cls-3" d="M680.9,267.87v-21a12.49,12.49,0,0,0-12.48-12.49H631.19Z"/><path class="cls-3" d="M680.9,269.37a1.5,1.5,0,0,1-1.5-1.5v-21a11,11,0,0,0-11-11H631.19a1.5,1.5,0,0,1,0-3h37.23a14,14,0,0,1,14,14v21A1.5,1.5,0,0,1,680.9,269.37Z"/><path class="cls-3" d="M680.9,326.53v0Z"/><path class="cls-3" d="M680.9,328a1.5,1.5,0,0,1-1.5-1.5V297.26a1.5,1.5,0,0,1,3,0v29.27A1.5,1.5,0,0,1,680.9,328Z"/><path class="cls-2" d="M593.49,669H123.74V131.29A35.46,35.46,0,0,1,159.2,95.84H558a35.46,35.46,0,0,1,35.46,35.45Z"/><path d="M593.49,170.74a1.5,1.5,0,0,1-1.5-1.5v-38a34,34,0,0,0-34-33.95H516.12a1.5,1.5,0,0,1,0-3H558a37,37,0,0,1,37,36.95v38A1.5,1.5,0,0,1,593.49,170.74Z"/><path d="M426.27,97.34H338.12a1.5,1.5,0,0,1,0-3h88.15a1.5,1.5,0,0,1,0,3Z"/><path d="M123.74,286.07a1.5,1.5,0,0,1-1.5-1.5V131.29a37,37,0,0,1,37-36.95H300.12a1.5,1.5,0,0,1,0,3H159.2a34,34,0,0,0-34,33.95V284.57A1.5,1.5,0,0,1,123.74,286.07Z"/><rect class="cls-4" x="158.43" y="130.09" width="226.76" height="14.31"/><rect class="cls-5" x="234.71" y="154.35" width="265.06" height="14.89"/><rect class="cls-6" x="293.74" y="178.91" width="265.06" height="14.89"/><rect class="cls-6" x="389.83" y="203.46" width="137.01" height="14.89"/><rect class="cls-4" x="158.43" y="326.53" width="226.76" height="14.31"/><rect class="cls-5" x="234.71" y="350.79" width="265.06" height="14.89"/><rect class="cls-2" x="293.74" y="375.35" width="265.06" height="14.89"/><rect class="cls-5" x="389.83" y="399.9" width="168.97" height="14.89"/><rect class="cls-5" x="234.71" y="228.02" width="265.06" height="14.89"/><rect class="cls-5" x="293.74" y="252.57" width="265.06" height="14.89"/><rect class="cls-2" x="389.83" y="301.68" width="105.04" height="14.89"/><rect class="cls-5" x="389.83" y="277.13" width="168.97" height="14.89"/><rect class="cls-4" x="158.43" y="424.75" width="226.76" height="14.31"/><rect class="cls-5" x="234.71" y="449.01" width="265.06" height="14.89"/><rect class="cls-5" x="293.74" y="473.57" width="256.54" height="14.89"/><rect class="cls-4" x="389.83" y="498.12" width="168.97" height="14.89"/><rect class="cls-4" x="293.74" y="620.9" width="143.23" height="14.89"/><rect class="cls-5" x="234.71" y="522.68" width="265.06" height="14.89"/><rect class="cls-5" x="293.74" y="547.23" width="265.06" height="14.89"/><rect class="cls-5" x="389.83" y="596.34" width="168.97" height="14.89"/><rect class="cls-5" x="389.83" y="571.79" width="96.73" height="14.89"/><path d="M666.06,773.57a1.5,1.5,0,0,1-.78-2.78c62.22-37.72,98.45-83.28,117.89-114.86,21-34.17,27.43-59.69,27.5-59.94a1.5,1.5,0,1,1,2.91.71c-.06.26-6.58,26.23-27.86,60.8-19.61,31.86-56.16,77.82-118.88,115.85A1.49,1.49,0,0,1,666.06,773.57Z"/><path d="M684.18,779.5a1.5,1.5,0,0,1-.7-2.83C747,743.54,791.41,674,791.86,673.29a1.5,1.5,0,1,1,2.53,1.61c-.44.7-45.34,70.93-109.52,104.43A1.44,1.44,0,0,1,684.18,779.5Z"/><path d="M32.78,727.67A10.6,10.6,0,0,1,22.69,713.8h0a10.6,10.6,0,1,1,10.09,13.87Zm-7.24-12.94a7.6,7.6,0,1,0,9.57-4.88,7.57,7.57,0,0,0-9.57,4.88Z"/><path d="M55.33,748.93a7,7,0,0,1-2.16-.34,7,7,0,0,1-4.47-8.77h0a7,7,0,1,1,6.63,9.11Zm0-10.93a4,4,0,0,0-3.77,2.74h0a4,4,0,0,0,2.55,5,4,4,0,0,0,5-2.55,4,4,0,0,0-2.55-5A4,4,0,0,0,55.32,738Zm-5.2,2.28h0Z"/><path class="cls-3" d="M152.57,758.39s-37.92-83.12-16.17-190.86c0,0,58.77,49.24,37.58,190.86Z"/><path d="M174,759.89H152.57a1.51,1.51,0,0,1-1.37-.88c-.09-.21-9.63-21.33-16.35-55.36a352.12,352.12,0,0,1,.08-136.42,1.49,1.49,0,0,1,1-1.12,1.51,1.51,0,0,1,1.46.27c.61.51,15.12,12.89,27.17,42.91,11.05,27.56,21.93,75.83,10.93,149.32A1.5,1.5,0,0,1,174,759.89Zm-20.43-3h19.14c10.58-72.11-.09-119.43-10.95-146.48-9.23-23-20.08-35.53-24.4-39.92C118.21,669.43,149.67,747.78,153.55,756.89Z"/><path class="cls-2" d="M161.84,751.22h-.08a1.51,1.51,0,0,1-1.42-1.58c2.9-53.09-21.05-166.46-21.29-167.6a1.51,1.51,0,0,1,1.16-1.78,1.49,1.49,0,0,1,1.77,1.16c.25,1.14,24.28,114.9,21.36,168.38A1.51,1.51,0,0,1,161.84,751.22Z"/><path class="cls-2" d="M190.71,623.26s-48.85,88.26-19.46,126.46H187S218.38,680.72,190.71,623.26Z"/><path d="M187,751.22H171.25a1.49,1.49,0,0,1-1.19-.59c-12.51-16.25-13-42.8-1.53-78.92a308.33,308.33,0,0,1,20.87-49.18,1.44,1.44,0,0,1,1.36-.77,1.47,1.47,0,0,1,1.3.85c14.47,30,12.68,63.18,8.63,85.69a197,197,0,0,1-12.36,42A1.49,1.49,0,0,1,187,751.22Zm-15-3h14c3.41-8.05,27.89-69.46,4.64-121.59C182.94,641.46,147.21,714.62,172,748.22Z"/><path d="M178.59,753.56a1.5,1.5,0,0,1-1.5-1.44c-1.42-36.48,12-128.16,12.14-129.08a1.5,1.5,0,1,1,3,.44c-.14.92-13.52,92.33-12.11,128.52a1.51,1.51,0,0,1-1.44,1.56Z"/><path class="cls-2" d="M97.44,656.16s41.62,14.2,56.69,98.27H137.76S103.6,708.26,97.44,656.16Z"/><path d="M154.13,755.93H137.76a1.51,1.51,0,0,1-1.21-.61c-.34-.47-34.47-47.09-40.6-99a1.51,1.51,0,0,1,2-1.6c.44.15,10.92,3.85,23.33,18,11.34,13,26.5,37.62,34.34,81.38a1.5,1.5,0,0,1-1.47,1.77Zm-15.6-3h13.8c-12.91-69.42-44.29-89.86-53.06-94.31C105.68,705.47,134.61,747.42,138.53,752.93Z"/><path d="M145.18,753.56a1.5,1.5,0,0,1-1.48-1.26c-6.18-37.34-32.93-75-33.2-75.34a1.5,1.5,0,1,1,2.44-1.75c.27.38,27.43,38.57,33.72,76.6a1.5,1.5,0,0,1-1.23,1.73Z"/><path class="cls-7" d="M113.5,747.75H216.17l2.3,48.57a20.87,20.87,0,0,1-20.85,21.87H139a25.53,25.53,0,0,1-25.53-25.55Z"/></g></g></g></svg>