<?xml version="1.0" encoding="UTF-8"?><svg id="Layer_2" xmlns="http://www.w3.org/2000/svg" viewBox="0 0 482.7 482.22"><defs><style>.cls-1{stroke:#9ecd28;}.cls-1,.cls-2{fill:none;stroke-linecap:round;stroke-linejoin:round;stroke-width:12px;}.cls-2{stroke:#046b99;}</style></defs><g id="Layer_1-2"><g id="idea"><path id="path" class="cls-1" d="m143.04,175.68c0-14.04,7.92-26.22,19.54-32.34-5.11-4.61-8.32-11.28-8.32-18.7,0-13.91,11.28-25.19,25.19-25.19,4.18,0,8.11,1.02,11.58,2.82,1.05-12.94,11.88-23.12,25.1-23.12,13.91,0,25.19,11.28,25.19,25.19v142.69c0,13.91-11.28,25.19-25.19,25.19s-24.04-10.18-25.1-23.12c-3.47,1.8-7.41,2.82-11.58,2.82-13.91,0-25.19-11.28-25.19-25.19,0-7.42,3.21-14.1,8.32-18.7-11.61-6.12-19.54-18.3-19.54-32.35Z"/><path id="path_2" class="cls-1" d="m162.58,208.04c5.08,2.68,10.87,4.19,17.01,4.19"/><path id="path_3" class="cls-1" d="m179.59,139.14c-6.14,0-11.93,1.52-17.01,4.19"/><path id="path_4" class="cls-1" d="m241.39,247.03c0,13.91,11.28,25.19,25.19,25.19s24.04-10.18,25.1-23.12c3.47,1.8,7.4,2.82,11.58,2.82,13.91,0,25.19-11.28,25.19-25.19,0-7.42-3.21-14.09-8.32-18.7,11.62-6.12,19.54-18.3,19.54-32.35s-7.92-26.22-19.54-32.34c5.11-4.61,8.32-11.28,8.32-18.71,0-13.91-11.28-25.19-25.19-25.19-4.18,0-8.11,1.02-11.58,2.82-1.05-12.94-11.88-23.12-25.1-23.12-13.91,0-25.19,11.28-25.19,25.19"/><path id="path_5" class="cls-1" d="m320.12,208.04c-5.08,2.68-10.87,4.19-17.01,4.19"/><path id="path_6" class="cls-1" d="m303.12,139.14c6.14,0,11.93,1.52,17.01,4.19"/><path id="path_7" class="cls-1" d="m241.35,358.35v-111.33"/><path id="path_8" class="cls-1" d="m55.95,15.77l-9.77-9.77"/><path id="path_9" class="cls-1" d="m426.76,15.77l9.76-9.77"/><path id="path_10" class="cls-1" d="m426.76,298.92l9.76,9.77"/><path id="path_11" class="cls-1" d="m55.95,298.92l-9.77,9.77"/><path id="path_12" class="cls-1" d="m476.7,157.34h-10.87"/><path id="path_13" class="cls-1" d="m16.87,157.34H6"/><path id="path_14" class="cls-2" d="m407.69,172.34c0-91.33-73.61-165.47-164.74-166.33-92.24-.87-167.94,74.09-167.94,166.33,0,48.27,20.57,91.74,53.41,122.12,29.6,27.38,46.88,65.56,46.88,105.89v36.13c0,21.95,17.79,39.75,39.74,39.75h52.61c21.95,0,39.74-17.8,39.74-39.75v-36.13c0-39.84,16.38-78.13,45.85-104.94,33.44-30.42,54.44-74.29,54.44-123.06Z"/><path id="path_15" class="cls-2" d="m168.91,358.35h144.71"/><path id="path_16" class="cls-2" d="m175.3,416.94h132.1"/></g></g></svg>