<svg width="24" height="24" viewBox="0 0 24 24" fill="none" xmlns="http://www.w3.org/2000/svg">
<path d="M5.42186 7.84948C8.4166 6.34256 12.1604 6.84052 14.6601 9.34336C17.0979 11.7843 17.6313 15.41 16.2601 18.3693C16.4505 18.277 16.639 18.1736 16.825 18.0585C17.0098 17.9441 17.1021 17.887 17.172 17.8593C17.3055 17.8064 17.4068 17.791 17.55 17.8021C17.6249 17.8079 17.7097 17.8299 17.8794 17.874C18.9472 18.1511 19.4812 18.2897 19.8659 18.2113C20.5335 18.0753 21.0553 17.5528 21.1912 16.8843C21.2695 16.4992 21.1311 15.9646 20.8543 14.8954C20.8103 14.7254 20.7883 14.6404 20.7825 14.5652C20.7716 14.4218 20.7872 14.3192 20.8403 14.1856C20.8682 14.1155 20.9252 14.0237 21.0392 13.8401C23.0976 10.5236 21.5046 6.50314 19.4938 4.48982C16.1782 1.17006 10.8026 1.17006 7.48697 4.48982C6.51176 5.46626 5.82339 6.62113 5.42186 7.84948Z" fill="black"/>
<path fill-rule="evenodd" clip-rule="evenodd" d="M6.26246 21.2246C8.99614 22.9161 12.3643 21.5412 13.9526 19.9508C16.6831 17.2169 16.6831 12.7844 13.9526 10.0504C11.2222 7.31652 6.79517 7.31652 4.06469 10.0504C2.40875 11.7085 1.09685 15.0195 2.792 17.7506C2.88588 17.9019 2.93282 17.9775 2.95578 18.0352C2.99954 18.1453 3.0124 18.2297 3.00335 18.3478C2.9986 18.4098 2.98049 18.4797 2.94426 18.6197C2.71632 19.5002 2.60234 19.9405 2.66681 20.2577C2.77871 20.8082 3.2084 21.2384 3.75822 21.3505C4.07501 21.415 4.51472 21.3009 5.39415 21.0727C5.53389 21.0364 5.6038 21.0183 5.66547 21.0135C5.78339 21.0044 5.86679 21.017 5.97675 21.0606C6.03427 21.0834 6.11033 21.1305 6.26246 21.2246ZM11.0005 15C11.0005 15.5523 11.4482 16 12.0005 16C12.5528 16 13.0005 15.5523 13.0005 15C13.0005 14.4477 12.5528 14 12.0005 14C11.4482 14 11.0005 14.4477 11.0005 15ZM8.0005 15C8.0005 15.5523 8.44822 16 9.0005 16C9.55279 16 10.0005 15.5523 10.0005 15C10.0005 14.4477 9.55279 14 9.0005 14C8.44822 14 8.0005 14.4477 8.0005 15ZM6.0005 16C5.44822 16 5.0005 15.5523 5.0005 15C5.0005 14.4477 5.44822 14 6.0005 14C6.55279 14 7.0005 14.4477 7.0005 15C7.0005 15.5523 6.55279 16 6.0005 16Z" fill="black"/>
</svg>
