<svg width="1024" height="1024" viewBox="0 0 1024 1024" fill="none" xmlns="http://www.w3.org/2000/svg">
<path fill-rule="evenodd" clip-rule="evenodd" d="M900.683 221.855H122.999V155.655C122.999 141.295 135.255 129.652 150.371 129.652H873.312C888.429 129.652 900.683 141.295 900.683 155.655V221.855Z" fill="#253368"/>
<path fill-rule="evenodd" clip-rule="evenodd" d="M873.312 893.354H150.371C135.255 893.354 122.999 881.175 122.999 866.15V218.388H900.683V866.15C900.683 881.175 888.429 893.354 873.312 893.354Z" fill="#E4EBF7"/>
<path fill-rule="evenodd" clip-rule="evenodd" d="M186.801 175.498C186.801 184.836 179.183 192.407 169.787 192.407C160.391 192.407 152.774 184.836 152.774 175.498C152.774 166.161 160.391 158.59 169.787 158.59C179.183 158.59 186.801 166.161 186.801 175.498Z" fill="#A3B5D6"/>
<path fill-rule="evenodd" clip-rule="evenodd" d="M246.349 175.498C246.349 184.836 238.732 192.407 229.335 192.407C219.939 192.407 212.322 184.836 212.322 175.498C212.322 166.161 219.939 158.59 229.335 158.59C238.732 158.59 246.349 166.161 246.349 175.498Z" fill="#E4EBF7"/>
<path fill-rule="evenodd" clip-rule="evenodd" d="M314.404 175.498C314.404 184.836 306.787 192.407 297.39 192.407C287.994 192.407 280.377 184.836 280.377 175.498C280.377 166.161 287.994 158.59 297.39 158.59C306.787 158.59 314.404 166.161 314.404 175.498Z" fill="#E4EBF7"/>
<path fill-rule="evenodd" clip-rule="evenodd" d="M208.084 805.34C203.377 805.34 199.562 801.521 199.562 796.811V302.386C199.562 297.676 203.377 293.857 208.084 293.857H824.8C829.507 293.857 833.323 297.676 833.323 302.386V796.811C833.323 801.521 829.507 805.34 824.8 805.34H208.084Z" fill="white"/>
<path fill-rule="evenodd" clip-rule="evenodd" d="M564.405 596.004V730.607C564.405 738.207 558.154 744.43 550.514 744.43H290.214C282.573 744.43 276.317 738.207 276.317 730.607V596.004C276.317 588.399 282.573 582.181 290.214 582.181H550.514C558.154 582.181 564.405 588.399 564.405 596.004Z" fill="#CCD7EE"/>
<path fill-rule="evenodd" clip-rule="evenodd" d="M762 513.28C762 520.88 755.749 527.104 748.109 527.104H290.214C282.573 527.104 276.317 520.88 276.317 513.28V378.672C276.317 371.073 282.573 364.854 290.214 364.854H748.109C755.749 364.854 762 371.073 762 378.672V513.28Z" fill="#A3B5D6"/>
<path fill-rule="evenodd" clip-rule="evenodd" d="M761.66 730.607C761.66 738.207 755.409 744.43 747.769 744.43H629.426C621.786 744.43 615.535 738.207 615.535 730.607V596.004C615.535 588.399 621.786 582.181 629.426 582.181H747.769C755.409 582.181 761.66 588.399 761.66 596.004V730.607Z" fill="#4E5C93"/>
</svg>
