<?xml version="1.0" encoding="UTF-8"?><svg id="Layer_2" xmlns="http://www.w3.org/2000/svg" viewBox="0 0 4578.76 3751.45"><defs><style>.cls-1{fill:#5f64a0;}.cls-2{fill:#fff;}.cls-3{fill:#9191d2;}.cls-4{fill:#b4b4f5;}.cls-5{fill:#ebebf5;}.cls-6{fill:#414169;}</style></defs><g id="Layer_1-2"><path class="cls-2" d="m1519.13,727.61c0-128-105.53-231.77-235.67-231.77-30.88,0-60.35,5.92-87.35,16.53-27.34-84.47-105.39-146.74-198.93-152.17-54.28-119.85-176.32-203.45-318.35-203.45-180.58,0-329.03,135.1-346.64,308.14-19.52-4.7-39.88-7.23-60.85-7.23-140.87,0-255.08,112.32-255.08,250.84s114.21,250.89,255.08,250.89h1023.8l.15-.33c124.66-6.01,223.85-107.34,223.85-231.44Z"/><path class="cls-2" d="m4578.76,2316.24c0-102.41-84.42-185.42-188.54-185.42-24.71,0-48.28,4.74-69.89,13.22-21.86-67.57-84.3-117.38-159.13-121.73-43.42-95.88-141.06-162.75-254.69-162.75-144.46,0-263.22,108.07-277.31,246.51-15.62-3.76-31.9-5.79-48.67-5.79-112.7,0-204.07,89.85-204.07,200.68s91.37,200.71,204.07,200.71h819.04l.11-.26c99.74-4.82,179.09-85.88,179.09-185.16Z"/><path class="cls-2" d="m1723.15,3411.92c0-76.81-63.32-139.06-141.41-139.06-18.53,0-36.21,3.55-52.41,9.91-16.4-50.68-63.23-88.04-119.36-91.29-32.56-71.92-105.8-122.07-191.01-122.07-108.35,0-197.42,81.06-207.99,184.87-11.71-2.81-23.93-4.34-36.52-4.34-84.52,0-153.04,67.4-153.04,150.52s68.53,150.53,153.04,150.53h614.29l.09-.2c74.8-3.61,134.31-64.41,134.31-138.88Z"/><path class="cls-6" d="m1763.91,77.78h-25.91c-2.04-27.69-24.18-49.83-51.87-51.87V0h-8.33v25.91c-27.69,2.04-49.82,24.18-51.87,51.87h-25.9v8.33h25.9c2.05,27.69,24.19,49.83,51.87,51.87v25.9h8.33v-25.9c27.7-2.04,49.84-24.19,51.87-51.87h25.91v-8.33Zm-77.78,51.87v-21.32h-8.33v21.32c-23.1-2-41.54-20.44-43.54-43.54h21.32v-8.33h-21.32c2.01-23.1,20.44-41.54,43.54-43.54v21.31h8.33v-21.31c23.1,2,41.54,20.44,43.54,43.54h-21.31v8.33h21.31c-2,23.1-20.43,41.54-43.54,43.54Z"/><path class="cls-6" d="m2286.14,613.9h-25.91c-2.04-27.69-24.18-49.83-51.87-51.87v-25.91h-8.33v25.91c-27.69,2.04-49.82,24.18-51.87,51.87h-25.89v8.33h25.89c2.05,27.69,24.19,49.83,51.87,51.87v25.9h8.33v-25.9c27.7-2.04,49.84-24.19,51.87-51.87h25.91v-8.33Zm-77.78,51.87v-21.32h-8.33v21.32c-23.1-2-41.54-20.44-43.54-43.54h21.32v-8.33h-21.32c2.01-23.1,20.44-41.54,43.54-43.54v21.31h8.33v-21.31c23.1,2,41.54,20.44,43.54,43.54h-21.31v8.33h21.31c-2,23.1-20.43,41.54-43.54,43.54Z"/><path class="cls-6" d="m3517.61,1661.12h-25.91c-2.04-27.69-24.18-49.83-51.87-51.87v-25.91h-8.33v25.91c-27.69,2.04-49.82,24.18-51.87,51.87h-25.9v8.33h25.9c2.05,27.69,24.19,49.83,51.87,51.87v25.9h8.33v-25.9c27.7-2.04,49.84-24.19,51.87-51.87h25.91v-8.33Zm-77.78,51.87v-21.32h-8.33v21.32c-23.1-2-41.54-20.44-43.54-43.54h21.32v-8.33h-21.32c2.01-23.1,20.44-41.54,43.54-43.54v21.31h8.33v-21.31c23.1,2,41.54,20.44,43.54,43.54h-21.3v8.33h21.3c-2,23.1-20.43,41.54-43.54,43.54Z"/><path class="cls-6" d="m3536.14,2817.58h-25.91c-2.04-27.69-24.18-49.83-51.87-51.87v-25.91h-8.33v25.91c-27.69,2.04-49.82,24.18-51.87,51.87h-25.89v8.33h25.89c2.05,27.69,24.19,49.83,51.87,51.87v25.9h8.33v-25.9c27.7-2.04,49.84-24.19,51.87-51.87h25.91v-8.33Zm-77.78,51.87v-21.32h-8.33v21.32c-23.1-2-41.54-20.44-43.54-43.54h21.32v-8.33h-21.32c2.01-23.1,20.44-41.54,43.54-43.54v21.31h8.33v-21.31c23.1,2,41.54,20.44,43.54,43.54h-21.31v8.33h21.31c-2,23.1-20.43,41.54-43.54,43.54Z"/><path class="cls-6" d="m1879.68,3077.78h-25.91c-2.04-27.69-24.18-49.83-51.87-51.87v-25.91h-8.33v25.91c-27.69,2.04-49.82,24.18-51.87,51.87h-25.9v8.33h25.9c2.05,27.69,24.19,49.83,51.87,51.87v25.9h8.33v-25.9c27.7-2.04,49.84-24.19,51.87-51.87h25.91v-8.33Zm-77.78,51.87v-21.32h-8.33v21.32c-23.1-2-41.54-20.44-43.54-43.54h21.32v-8.33h-21.32c2.01-23.1,20.44-41.54,43.54-43.54v21.31h8.33v-21.31c23.1,2,41.54,20.44,43.54,43.54h-21.31v8.33h21.31c-2,23.1-20.43,41.54-43.54,43.54Z"/><path class="cls-6" d="m1236.14,2350.91h-25.91c-2.04-27.69-24.18-49.83-51.87-51.87v-25.91h-8.33v25.91c-27.69,2.04-49.82,24.18-51.87,51.87h-25.89v8.33h25.89c2.05,27.69,24.19,49.83,51.87,51.87v25.9h8.33v-25.9c27.7-2.04,49.84-24.19,51.87-51.87h25.91v-8.33Zm-77.78,51.87v-21.32h-8.33v21.32c-23.1-2-41.54-20.44-43.54-43.54h21.32v-8.33h-21.32c2.01-23.1,20.44-41.54,43.54-43.54v21.31h8.33v-21.31c23.1,2,41.54,20.44,43.54,43.54h-21.31v8.33h21.31c-2,23.1-20.43,41.54-43.54,43.54Z"/><path class="cls-6" d="m2847.29,54.45h-791.66c-6.9,0-12.5-5.6-12.5-12.5s5.6-12.5,12.5-12.5h791.66c6.9,0,12.5,5.6,12.5,12.5s-5.6,12.5-12.5,12.5Z"/><path class="cls-6" d="m2213.96,346.12h-791.66c-6.9,0-12.5-5.6-12.5-12.5s5.6-12.5,12.5-12.5h791.66c6.9,0,12.5,5.6,12.5,12.5s-5.6,12.5-12.5,12.5Z"/><path class="cls-6" d="m4430.63,1454.45h-791.66c-6.9,0-12.5-5.6-12.5-12.5s5.6-12.5,12.5-12.5h791.66c6.9,0,12.5,5.6,12.5,12.5s-5.6,12.5-12.5,12.5Z"/><path class="cls-6" d="m2738.96,3329.45h-791.66c-6.9,0-12.5-5.6-12.5-12.5s5.6-12.5,12.5-12.5h791.66c6.9,0,12.5,5.6,12.5,12.5s-5.6,12.5-12.5,12.5Z"/><path class="cls-6" d="m1355.63,2837.78h-791.66c-6.9,0-12.5-5.6-12.5-12.5s5.6-12.5,12.5-12.5h791.66c6.9,0,12.5,5.6,12.5,12.5s-5.6,12.5-12.5,12.5Z"/><path class="cls-6" d="m1645.86,956.95h1125c45.99,0,83.33,37.34,83.33,83.33v1625c0,45.99-37.34,83.33-83.33,83.33h-1125c-45.99,0-83.33-37.34-83.33-83.33v-1625c0-45.99,37.34-83.33,83.33-83.33Z"/><rect class="cls-4" x="1579.2" y="973.62" width="1258.33" height="1758.33" rx="66.67" ry="66.67"/><path class="cls-5" d="m2770.86,1006.95h-312.5v33.33c0,18.41-18.65,33.33-41.67,33.33h-416.67c-23.01,0-41.67-14.93-41.67-33.33v-33.33h-312.5c-18.38,0-33.33,14.95-33.33,33.33v1625c0,18.38,14.95,33.33,33.33,33.33h1125c18.38,0,33.33-14.95,33.33-33.33v-1625c0-18.38-14.95-33.33-33.33-33.33Z"/><rect class="cls-1" x="1693.78" y="1177.78" width="1029.17" height="41.67"/><rect class="cls-1" x="1693.78" y="1261.12" width="1029.17" height="41.67"/><rect class="cls-1" x="1937.53" y="2606.95" width="541.67" height="16.67"/><rect class="cls-3" x="1693.78" y="2506.95" width="862.5" height="16.67"/><rect class="cls-3" x="1693.78" y="2456.95" width="1029.17" height="16.67"/><rect class="cls-3" x="1693.78" y="2406.95" width="1029.17" height="16.67"/><rect class="cls-3" x="1693.78" y="2356.95" width="1029.17" height="16.67"/><rect class="cls-3" x="1777.11" y="2306.95" width="945.83" height="16.67"/><rect class="cls-3" x="1693.78" y="2206.95" width="862.5" height="16.67"/><rect class="cls-3" x="1693.78" y="2156.95" width="1029.17" height="16.67"/><rect class="cls-3" x="1693.78" y="2106.95" width="1029.17" height="16.67"/><rect class="cls-3" x="1693.78" y="2056.95" width="1029.17" height="16.67"/><rect class="cls-3" x="1777.11" y="2006.95" width="945.83" height="16.67"/><rect class="cls-3" x="1693.78" y="1906.95" width="862.5" height="16.67"/><rect class="cls-3" x="1693.78" y="1856.95" width="1029.17" height="16.67"/><rect class="cls-3" x="1693.78" y="1806.95" width="1029.17" height="16.67"/><rect class="cls-3" x="1693.78" y="1756.95" width="1029.17" height="16.67"/><rect class="cls-3" x="1777.11" y="1706.95" width="945.83" height="16.67"/><rect class="cls-3" x="1693.78" y="1606.95" width="862.5" height="16.67"/><rect class="cls-3" x="1693.78" y="1556.95" width="1029.17" height="16.67"/><rect class="cls-3" x="1693.78" y="1506.95" width="1029.17" height="16.67"/><rect class="cls-3" x="1693.78" y="1456.95" width="1029.17" height="16.67"/><rect class="cls-3" x="1777.11" y="1406.95" width="945.83" height="16.67"/><path class="cls-3" d="m2643.88,652.71c-62.49,0-113.32,50.85-113.32,113.32v356.75c0,62.5,50.83,113.33,113.32,113.33h131.14l-277.19,320.04,475.41-320.04h619.21c62.49,0,113.33-50.83,113.33-113.33v-356.75c0-62.48-50.84-113.32-113.33-113.32h-948.57Z"/><rect class="cls-5" x="2652.28" y="804.31" width="948.57" height="25.19"/><rect class="cls-5" x="2652.28" y="930.22" width="948.57" height="25.18"/><rect class="cls-5" x="2652.28" y="1056.14" width="948.57" height="25.18"/><path class="cls-1" d="m885.51,1812.61c-30.39,0-55.09-24.71-55.09-55.09v-356.48c0-30.37,24.71-55.09,55.09-55.09h356.48c30.39,0,55.09,24.72,55.09,55.09v356.48c0,30.39-24.71,55.09-55.09,55.09h-356.48Z"/><path class="cls-5" d="m1030.42,1448.1c0-4.76.79-9.13,2.38-13.09,1.59-3.97,3.82-7.4,6.71-10.29,2.88-2.88,6.38-5.12,10.5-6.71,4.11-1.59,8.7-2.38,13.75-2.38s9.63.8,13.75,2.38c4.11,1.59,7.61,3.82,10.5,6.71,2.88,2.89,5.12,6.32,6.71,10.29,1.59,3.96,2.38,8.33,2.38,13.09s-.79,9.12-2.38,13.09c-1.59,3.97-3.82,7.43-6.71,10.39-2.89,2.95-6.38,5.23-10.5,6.82-4.11,1.59-8.7,2.38-13.75,2.38s-9.63-.79-13.75-2.38c-4.11-1.59-7.61-3.87-10.5-6.82-2.89-2.96-5.12-6.42-6.71-10.39-1.59-3.97-2.38-8.33-2.38-13.09Zm64.29,294.81h-61.47v-234.2h61.47v234.2Z"/><rect class="cls-4" x="2463.46" y="2524.04" width="600" height="600" rx="70.83" ry="70.83"/><path class="cls-6" d="m2717.62,2643.68c0-6.54,1.09-12.55,3.27-18,2.18-5.46,5.26-10.17,9.23-14.14,3.97-3.97,8.78-7.05,14.44-9.23,5.65-2.18,11.95-3.27,18.9-3.27s13.25,1.09,18.9,3.27c5.66,2.18,10.47,5.26,14.44,9.23,3.97,3.96,7.04,8.67,9.23,14.14,2.18,5.45,3.27,11.46,3.27,18s-1.09,12.56-3.27,18.01c-2.19,5.45-5.26,10.22-9.23,14.28-3.97,4.07-8.78,7.19-14.44,9.38-5.65,2.18-11.95,3.27-18.9,3.27s-13.25-1.09-18.9-3.27c-5.66-2.19-10.47-5.31-14.44-9.38-3.97-4.06-7.05-8.83-9.23-14.28-2.18-5.45-3.27-11.46-3.27-18.01Zm88.39,405.36h-84.52v-322.02h84.52v322.02Z"/><path class="cls-6" d="m2872.13,518.48c-.68,0-1.37-.04-2.05-.11l-10.33-1.15c-9.89-1.12-17.02-10.08-15.91-19.96l2.82-25.01c-6.8-2.04-13.51-4.69-20.02-7.89l-14.96,20.29c-5.7,7.7-17.5,9.48-25.24,3.78l-8.34-6.16c-3.87-2.85-6.41-7.05-7.14-11.82-.73-4.77.45-9.54,3.3-13.42l14.99-20.3c-4.92-5.22-9.41-10.85-13.4-16.8l-23.11,10.07c-8.87,3.93-19.87-.45-23.76-9.3l-4.15-9.53c-1.93-4.42-2.02-9.33-.26-13.81,1.76-4.48,5.16-8.02,9.57-9.94l23.1-10.1c-1.66-7-2.74-14.13-3.21-21.26l-25.04-2.84c-4.78-.53-9.07-2.9-12.08-6.66-3-3.77-4.36-8.47-3.81-13.26l1.16-10.36c1.12-9.81,10.03-17.07,19.97-15.89l25.01,2.82c2.03-6.8,4.66-13.51,7.86-20.04l-20.26-14.97c-3.89-2.86-6.41-7.07-7.13-11.83-.72-4.76.47-9.52,3.34-13.39l6.17-8.36c5.68-7.7,17.45-9.51,25.2-3.84l20.32,15.03c5.22-4.92,10.85-9.42,16.81-13.43l-10.09-23.13c-1.93-4.39-2.02-9.29-.27-13.77,1.77-4.49,5.18-8.03,9.6-9.95l9.51-4.17c8.94-3.9,19.9.46,23.76,9.32l10.08,23.1c7.05-1.68,14.18-2.75,21.29-3.22l2.82-25.03c1.09-9.78,9.85-17.02,19.92-15.9l10.35,1.18c9.88,1.12,17.01,10.07,15.9,19.94l-2.81,25.02c6.79,2.03,13.5,4.67,20.02,7.89l14.97-20.3c5.71-7.69,17.54-9.48,25.23-3.78l8.37,6.18c3.87,2.85,6.41,7.05,7.13,11.82.72,4.77-.47,9.53-3.34,13.4l-14.97,20.28c4.89,5.2,9.38,10.83,13.4,16.81l23.1-10.1c8.97-3.91,19.92.49,23.78,9.35l4.15,9.53c1.93,4.4,2.02,9.31.26,13.79-1.77,4.49-5.18,8.02-9.59,9.94l-23.08,10.08c1.67,7.04,2.75,14.16,3.22,21.26l24.98,2.81c9.91,1.14,17.06,10.11,15.93,19.99l-1.17,10.33c-1.03,9.14-8.76,16.03-17.97,16.03h0c-.65,0-1.3-.03-1.97-.11l-25.02-2.84c-2.04,6.85-4.68,13.57-7.86,20.04l20.27,14.95c7.99,5.93,9.68,17.24,3.77,25.23l-6.14,8.37c-5.73,7.73-17.53,9.52-25.24,3.79l-20.28-14.96c-5.19,4.87-10.82,9.37-16.81,13.39l10.08,23.1c3.96,9.14-.23,19.8-9.33,23.77l-9.54,4.17c-8.97,3.9-19.88-.48-23.73-9.34l-10.08-23.09c-7.1,1.68-14.23,2.77-21.27,3.23l-2.83,25.02c-1.03,9.13-8.73,16.02-17.9,16.02Zm-47.98-64.79l3.17,1.67c8.04,4.22,16.44,7.53,24.95,9.82l3.47.93-3.61,32.07c-.6,5.32,3.24,10.15,8.55,10.75l10.33,1.15c5.52.57,10.15-3.27,10.75-8.55l3.62-32.1,3.59-.13c8.73-.32,17.65-1.67,26.51-4.01l3.46-.91,12.91,29.6c2.08,4.77,7.96,7.12,12.78,5.03l9.52-4.16c4.91-2.14,7.16-7.89,5.03-12.81l-12.92-29.59,3-1.91c7.63-4.85,14.7-10.48,20.99-16.72l2.53-2.52,26.01,19.18c4.18,3.11,10.51,2.11,13.57-2.04l6.14-8.37c3.19-4.31,2.28-10.39-2.02-13.58l-25.98-19.16,1.67-3.17c4.21-7.97,7.5-16.37,9.8-24.96l.93-3.48,32.1,3.65c5.03.62,10.14-3.3,10.73-8.59l1.17-10.33c.6-5.32-3.25-10.15-8.59-10.76l-32.06-3.61-.13-3.58c-.34-8.83-1.69-17.74-4.02-26.51l-.91-3.45,29.59-12.93c2.38-1.03,4.22-2.93,5.16-5.35.95-2.42.9-5.05-.13-7.42l-4.16-9.54c-2.08-4.76-7.97-7.14-12.8-5.03l-29.61,12.94-1.91-3.02c-4.83-7.62-10.46-14.67-16.72-20.97l-2.52-2.53,19.19-26c1.55-2.08,2.18-4.65,1.8-7.21-.38-2.57-1.75-4.83-3.83-6.36l-8.37-6.19c-4.21-3.11-10.48-2.13-13.59,2.03l-19.17,26.01-3.17-1.67c-8.07-4.24-16.45-7.54-24.94-9.81l-3.47-.93,3.6-32.1c.6-5.31-3.24-10.13-8.56-10.73l-10.34-1.17c-5.22-.57-10.12,3.29-10.71,8.54l-3.62,32.12-3.59.13c-8.84.33-17.76,1.67-26.51,4.01l-3.47.92-12.91-29.61c-2.08-4.77-7.94-7.12-12.79-5.02l-9.51,4.17c-2.38,1.04-4.22,2.95-5.17,5.35-.94,2.41-.89,5.04.15,7.4l12.92,29.65-3.02,1.9c-7.58,4.79-14.63,10.42-20.96,16.74l-2.54,2.54-26.03-19.26c-4.18-3.06-10.47-2.1-13.55,2.08l-6.17,8.36c-1.55,2.09-2.18,4.65-1.81,7.21.39,2.56,1.75,4.83,3.84,6.36l25.96,19.18-1.65,3.17c-4.23,8.06-7.53,16.47-9.79,24.97l-.93,3.47-32.1-3.6c-5.58-.72-10.14,3.26-10.74,8.54l-1.16,10.36c-.3,2.58.42,5.1,2.03,7.13,1.62,2.02,3.92,3.29,6.49,3.57l32.11,3.65.14,3.57c.34,8.9,1.68,17.81,4,26.49l.92,3.46-29.61,12.95c-2.38,1.04-4.2,2.95-5.15,5.35-.95,2.42-.89,5.05.14,7.43l4.16,9.52c2.08,4.75,7.97,7.14,12.79,5.01l29.62-12.91,1.9,3.02c4.79,7.56,10.42,14.61,16.72,20.96l2.52,2.54-19.21,26c-1.53,2.08-2.16,4.65-1.77,7.22.39,2.56,1.76,4.83,3.84,6.36l8.35,6.17c4.22,3.1,10.5,2.14,13.6-2.03l19.17-26Zm60.06-22.44c-3.12,0-6.28-.17-9.47-.53-22.28-2.52-42.25-13.56-56.22-31.07-13.98-17.52-20.28-39.44-17.77-61.71,5.15-45.62,46.22-79.23,92.78-74.01,45.99,5.19,79.18,46.81,74,92.77-4.79,42.5-40.59,74.55-83.32,74.55Zm-.2-159.52c-38.43,0-70.67,28.87-74.98,67.15-2.26,20.06,3.42,39.79,16,55.57,12.58,15.78,30.57,25.72,50.64,27.99,41.93,4.74,78.95-25.58,83.57-66.67,4.67-41.4-25.23-78.88-66.65-83.55-2.88-.33-5.74-.49-8.58-.49Z"/><path class="cls-6" d="m2884.19,393.11h0c-1.71,0-3.44-.1-5.18-.29-25.07-2.82-43.18-25.51-40.38-50.6,2.84-24.89,25.21-43.31,50.62-40.39,25.1,2.83,43.21,25.55,40.38,50.63-2.6,23.18-22.14,40.65-45.43,40.65Zm-.11-83.24c-19.04,0-35.02,14.31-37.18,33.28-2.29,20.52,12.52,39.09,33.02,41.38,20.78,2.35,39.12-12.65,41.41-33,2.32-20.52-12.5-39.11-33.02-41.42-1.42-.16-2.83-.24-4.22-.24Z"/><path class="cls-6" d="m638.46,2626.45c-.94,0-1.9-.05-2.85-.16l-15.66-1.73c-13.8-1.56-23.77-14.08-22.22-27.86l4.47-39.68c-11.3-3.29-22.49-7.68-33.31-13.13l-23.74,32.18c-7.94,10.74-24.41,13.26-35.25,5.29l-12.63-9.34c-5.42-3.97-8.97-9.85-9.97-16.52-1.01-6.64.63-13.3,4.61-18.7l23.78-32.21c-8.27-8.64-15.75-18.02-22.3-27.95l-36.68,15.97c-3.19,1.4-6.57,2.1-10.04,2.1-10.02,0-19.09-5.92-23.11-15.1l-6.29-14.44c-5.56-12.73.27-27.6,12.99-33.17l36.65-16.02c-2.87-11.62-4.66-23.49-5.34-35.38l-39.75-4.51c-6.67-.73-12.66-4.04-16.85-9.31-4.19-5.26-6.08-11.83-5.31-18.51l1.76-15.69c1.54-13.68,13.89-23.83,27.86-22.17l39.7,4.46c3.27-11.34,7.67-22.53,13.09-33.35l-32.16-23.72c-11.17-8.28-13.54-24.09-5.29-35.25l9.36-12.67c7.92-10.75,24.37-13.28,35.17-5.33l32.23,23.82c8.63-8.29,18.03-15.79,27.99-22.36l-16.01-36.7c-2.69-6.12-2.82-12.96-.37-19.21,2.47-6.28,7.22-11.21,13.4-13.9l14.42-6.33c3.21-1.4,6.6-2.12,10.07-2.12,10.02,0,19.08,5.94,23.1,15.14l15.98,36.65c11.76-2.9,23.64-4.7,35.42-5.35l4.48-39.72c1.52-13.66,13.83-23.76,27.82-22.21l15.67,1.78c13.79,1.59,23.75,14.08,22.21,27.85l-4.47,39.7c11.29,3.26,22.46,7.67,33.31,13.12l23.75-32.2c7.98-10.75,24.47-13.25,35.25-5.27l12.65,9.35c5.41,4,8.95,9.85,9.96,16.5,1.01,6.66-.64,13.3-4.64,18.72l-23.75,32.18c8.19,8.54,15.67,17.94,22.31,28l36.66-16.03c3.21-1.39,6.58-2.1,10.04-2.1,10.05,0,19.14,5.96,23.14,15.15l6.28,14.44c2.69,6.17,2.82,13.02.37,19.29-2.47,6.25-7.21,11.18-13.37,13.85l-36.65,16.02c2.89,11.68,4.7,23.55,5.38,35.39l39.66,4.44c13.81,1.59,23.79,14.1,22.25,27.9l-1.78,15.64c-1.46,12.76-12.25,22.4-25.09,22.4h0c-.91,0-1.84-.05-2.77-.15l-39.7-4.49c-3.29,11.43-7.68,22.62-13.09,33.33l32.16,23.73c11.16,8.28,13.53,24.07,5.28,35.22l-9.34,12.66c-7.97,10.79-24.46,13.3-35.22,5.29l-32.18-23.71c-8.59,8.22-17.98,15.71-27.99,22.3l16,36.65c5.53,12.76-.31,27.65-13.03,33.19l-14.44,6.3c-3.21,1.4-6.59,2.12-10.07,2.12-10.03,0-19.08-5.96-23.07-15.15l-16-36.62c-11.78,2.91-23.66,4.7-35.41,5.37l-4.48,39.7c-1.44,12.74-12.19,22.35-25,22.35Zm-72.05-93.25l3.17,1.66c12.37,6.49,25.24,11.56,38.25,15.06l3.46.94-5.27,46.76c-1.03,9.23,5.63,17.61,14.87,18.65l15.65,1.73c9.43,1.01,17.61-5.68,18.64-14.84l5.29-46.79,3.58-.13c13.46-.49,27.13-2.56,40.64-6.14l3.45-.93,18.86,43.16c3.59,8.29,13.8,12.35,22.17,8.72l14.43-6.3c8.52-3.71,12.44-13.69,8.72-22.23l-18.84-43.15,3.02-1.92c11.65-7.39,22.46-16,32.15-25.62l2.54-2.51,37.91,27.95c7.23,5.37,18.22,3.66,23.55-3.53l9.34-12.68c5.52-7.47,3.93-18.03-3.53-23.58l-37.9-27.95,1.68-3.17c6.45-12.19,11.5-25.07,15.02-38.26l.93-3.47,46.78,5.3c8.94,1,17.6-5.74,18.65-14.9l1.78-15.63c1.03-9.24-5.66-17.63-14.9-18.69l-46.74-5.23-.14-3.58c-.52-13.58-2.6-27.25-6.17-40.62l-.92-3.46,43.18-18.86c4.13-1.79,7.29-5.09,8.94-9.27,1.65-4.19,1.56-8.77-.24-12.9l-6.28-14.44c-3.61-8.28-13.83-12.37-22.23-8.76l-43.16,18.88-1.91-3.01c-7.44-11.72-16.06-22.53-25.63-32.15l-2.52-2.53,27.99-37.91c2.68-3.63,3.78-8.07,3.1-12.53-.68-4.44-3.04-8.37-6.66-11.04l-12.66-9.36c-7.23-5.36-18.25-3.65-23.59,3.52l-27.96,37.92-3.17-1.66c-12.4-6.51-25.27-11.57-38.24-15.04l-3.47-.93,5.27-46.79c1.03-9.21-5.64-17.58-14.87-18.64l-15.67-1.79c-9.24-1.06-17.59,5.71-18.6,14.86l-5.29,46.83-3.58.13c-13.5.49-27.18,2.56-40.66,6.14l-3.46.92-18.81-43.17c-3.62-8.29-13.84-12.39-22.2-8.72l-14.43,6.33c-4.14,1.81-7.32,5.1-8.97,9.3-1.64,4.18-1.55,8.74.24,12.83l18.86,43.23-3.02,1.9c-11.58,7.33-22.39,15.97-32.15,25.68l-2.54,2.52-37.94-28.05c-7.27-5.34-18.17-3.69-23.53,3.56l-9.36,12.68c-5.53,7.47-3.94,18.06,3.54,23.6l37.87,27.93-1.65,3.17c-6.48,12.35-11.53,25.23-15.02,38.28l-.93,3.46-46.79-5.26c-9.68-1.13-17.61,5.67-18.64,14.82l-1.76,15.7c-.51,4.47.74,8.86,3.55,12.38,2.8,3.52,6.8,5.73,11.26,6.23l46.84,5.31.14,3.57c.51,13.66,2.57,27.33,6.12,40.61l.92,3.46-43.17,18.87c-8.51,3.73-12.41,13.69-8.69,22.2l6.29,14.44c3.63,8.25,13.84,12.37,22.19,8.71l43.2-18.81,1.91,3.01c7.31,11.54,15.92,22.35,25.61,32.11l2.51,2.54-27.99,37.91c-2.66,3.61-3.76,8.07-3.08,12.53.68,4.46,3.04,8.38,6.67,11.05l12.63,9.34c7.32,5.39,18.25,3.73,23.61-3.53l27.96-37.91Zm90.37-38.9c-4.69,0-9.43-.28-14.11-.8-68.51-7.75-117.96-69.74-110.24-138.2,7.15-63.31,60.49-111.05,124.07-111.05,4.69,0,9.44.28,14.13.8,68.51,7.75,117.96,69.73,110.24,138.18-7.12,63.31-60.47,111.07-124.09,111.07Zm-.28-241.72c-59.33,0-109.11,44.56-115.79,103.65-7.21,63.9,38.95,121.76,102.89,128.99,4.37.49,8.81.75,13.18.75,59.38,0,109.16-44.56,115.8-103.66,7.21-63.89-38.95-121.75-102.88-128.97-4.39-.5-8.82-.75-13.2-.75Z"/><path class="cls-6" d="m656.72,2436.49h0c-2.51,0-5.05-.13-7.61-.42-36.82-4.13-63.4-37.46-59.27-74.3,4.15-36.54,37.04-63.51,74.32-59.3,36.83,4.17,63.43,37.52,59.29,74.34-3.83,34.03-32.52,59.68-66.72,59.68Zm-.13-126.11c-29.95,0-55.09,22.49-58.47,52.33-1.76,15.63,2.68,31.01,12.48,43.3,9.81,12.29,23.81,20.04,39.44,21.78,32.8,3.7,61.53-19.91,65.13-51.9,3.63-32.27-19.67-61.48-51.94-65.13-2.22-.25-4.44-.37-6.63-.37Z"/><path class="cls-6" d="m3130.12,3751.45c-.94,0-1.9-.05-2.85-.16l-15.66-1.73c-13.8-1.56-23.77-14.08-22.22-27.86l4.47-39.68c-11.3-3.29-22.48-7.68-33.31-13.13l-23.74,32.18c-7.94,10.74-24.41,13.26-35.25,5.29l-12.63-9.34c-5.42-3.97-8.97-9.85-9.97-16.52-1.01-6.64.63-13.3,4.61-18.7l23.78-32.21c-8.27-8.64-15.75-18.02-22.3-27.95l-36.68,15.97c-3.19,1.4-6.57,2.1-10.04,2.1-10.02,0-19.09-5.92-23.11-15.1l-6.29-14.44c-5.56-12.73.27-27.6,12.99-33.17l36.64-16.02c-2.87-11.62-4.66-23.49-5.34-35.38l-39.75-4.51c-6.67-.73-12.66-4.04-16.85-9.31-4.19-5.26-6.08-11.83-5.31-18.51l1.76-15.69c1.54-13.68,13.89-23.83,27.86-22.17l39.7,4.46c3.27-11.34,7.67-22.53,13.09-33.35l-32.16-23.72c-11.17-8.28-13.54-24.09-5.29-35.25l9.36-12.67c7.92-10.75,24.37-13.28,35.17-5.33l32.23,23.82c8.63-8.29,18.03-15.79,28-22.36l-16.01-36.7c-2.69-6.12-2.82-12.96-.37-19.21,2.47-6.28,7.22-11.21,13.4-13.9l14.42-6.33c3.21-1.4,6.6-2.12,10.08-2.12,10.02,0,19.08,5.94,23.1,15.14l15.98,36.65c11.76-2.9,23.64-4.7,35.42-5.35l4.48-39.72c1.52-13.66,13.83-23.76,27.82-22.21l15.67,1.78c13.79,1.59,23.75,14.08,22.21,27.85l-4.47,39.7c11.29,3.26,22.46,7.67,33.31,13.12l23.75-32.2c7.98-10.75,24.47-13.25,35.25-5.27l12.66,9.35c5.41,4,8.95,9.85,9.96,16.5,1.01,6.66-.64,13.3-4.64,18.72l-23.76,32.18c8.19,8.54,15.67,17.94,22.31,28l36.66-16.03c3.21-1.39,6.58-2.1,10.04-2.1,10.05,0,19.14,5.96,23.14,15.15l6.28,14.44c2.69,6.17,2.82,13.02.37,19.29-2.47,6.25-7.21,11.18-13.37,13.85l-36.65,16.02c2.89,11.68,4.7,23.55,5.38,35.39l39.66,4.44c13.81,1.59,23.79,14.1,22.25,27.9l-1.78,15.64c-1.46,12.76-12.25,22.4-25.09,22.4h0c-.91,0-1.84-.05-2.77-.15l-39.7-4.49c-3.29,11.43-7.68,22.62-13.09,33.33l32.16,23.73c11.16,8.28,13.53,24.07,5.28,35.22l-9.34,12.66c-7.97,10.79-24.46,13.3-35.22,5.29l-32.18-23.71c-8.59,8.22-17.99,15.71-28,22.3l16,36.65c5.53,12.76-.31,27.65-13.03,33.19l-14.44,6.3c-3.21,1.4-6.59,2.12-10.07,2.12-10.03,0-19.08-5.96-23.07-15.15l-16-36.62c-11.78,2.91-23.66,4.7-35.41,5.37l-4.48,39.7c-1.44,12.74-12.19,22.35-25,22.35Zm-72.05-93.25l3.17,1.66c12.37,6.49,25.24,11.56,38.25,15.06l3.46.94-5.26,46.76c-1.03,9.23,5.63,17.61,14.87,18.65l15.65,1.73c9.43,1.01,17.61-5.68,18.64-14.84l5.29-46.79,3.58-.13c13.46-.49,27.13-2.56,40.64-6.14l3.45-.93,18.86,43.16c3.59,8.29,13.8,12.35,22.17,8.72l14.43-6.3c8.52-3.71,12.43-13.69,8.72-22.23l-18.84-43.15,3.02-1.92c11.65-7.39,22.46-16,32.15-25.62l2.54-2.51,37.91,27.95c7.23,5.37,18.22,3.66,23.55-3.53l9.34-12.68c5.52-7.47,3.93-18.03-3.53-23.58l-37.9-27.95,1.68-3.17c6.45-12.19,11.5-25.07,15.02-38.26l.93-3.47,46.78,5.3c8.94,1,17.6-5.74,18.65-14.9l1.78-15.63c1.03-9.24-5.66-17.63-14.9-18.69l-46.74-5.23-.14-3.58c-.52-13.58-2.6-27.25-6.17-40.62l-.92-3.46,43.18-18.86c4.12-1.79,7.29-5.09,8.94-9.27,1.65-4.19,1.56-8.77-.24-12.9l-6.28-14.44c-3.6-8.28-13.83-12.37-22.22-8.76l-43.16,18.88-1.91-3.01c-7.44-11.72-16.06-22.53-25.63-32.15l-2.52-2.53,27.99-37.91c2.68-3.63,3.78-8.07,3.1-12.53-.68-4.44-3.04-8.37-6.67-11.04l-12.66-9.36c-7.23-5.36-18.25-3.65-23.59,3.52l-27.96,37.92-3.17-1.66c-12.4-6.51-25.27-11.57-38.24-15.04l-3.47-.93,5.27-46.79c1.03-9.21-5.64-17.58-14.87-18.64l-15.66-1.79c-9.24-1.06-17.59,5.71-18.6,14.86l-5.29,46.83-3.58.13c-13.5.49-27.18,2.56-40.66,6.14l-3.46.92-18.82-43.17c-3.62-8.29-13.84-12.39-22.2-8.72l-14.43,6.33c-4.14,1.81-7.32,5.1-8.97,9.3-1.64,4.18-1.55,8.74.24,12.83l18.86,43.23-3.02,1.9c-11.58,7.33-22.39,15.97-32.15,25.68l-2.54,2.52-37.94-28.05c-7.27-5.34-18.17-3.69-23.53,3.56l-9.36,12.68c-5.53,7.47-3.94,18.06,3.54,23.6l37.87,27.93-1.65,3.17c-6.48,12.35-11.53,25.23-15.02,38.28l-.93,3.46-46.79-5.26c-9.68-1.13-17.61,5.67-18.64,14.82l-1.76,15.7c-.51,4.47.74,8.86,3.55,12.38,2.8,3.52,6.8,5.73,11.26,6.23l46.84,5.31.14,3.57c.51,13.66,2.57,27.33,6.12,40.61l.92,3.46-43.17,18.87c-8.51,3.73-12.41,13.69-8.69,22.2l6.29,14.44c3.63,8.25,13.84,12.37,22.19,8.71l43.2-18.81,1.91,3.01c7.31,11.54,15.92,22.35,25.61,32.11l2.51,2.54-27.99,37.91c-2.66,3.61-3.76,8.07-3.08,12.53.67,4.46,3.04,8.38,6.67,11.05l12.63,9.34c7.32,5.39,18.25,3.73,23.61-3.53l27.96-37.91Zm90.37-38.9c-4.69,0-9.43-.28-14.11-.8-68.51-7.75-117.96-69.74-110.24-138.2,7.15-63.31,60.49-111.05,124.07-111.05,4.69,0,9.44.28,14.13.8,68.51,7.75,117.96,69.73,110.24,138.18-7.12,63.31-60.47,111.07-124.09,111.07Zm-.28-241.72c-59.33,0-109.11,44.56-115.79,103.65-7.21,63.9,38.95,121.76,102.89,128.99,4.37.49,8.81.75,13.18.75,59.38,0,109.16-44.56,115.8-103.66,7.21-63.89-38.95-121.75-102.88-128.97-4.39-.5-8.82-.75-13.2-.75Z"/><path class="cls-6" d="m3148.38,3561.49h0c-2.52,0-5.05-.13-7.61-.42-36.82-4.13-63.4-37.46-59.27-74.3,4.15-36.54,37.04-63.51,74.32-59.3,36.83,4.17,63.43,37.52,59.29,74.34-3.83,34.03-32.52,59.68-66.72,59.68Zm-.13-126.11c-29.95,0-55.09,22.49-58.47,52.33-1.76,15.63,2.68,31.01,12.47,43.3,9.81,12.29,23.81,20.04,39.44,21.78,32.8,3.7,61.53-19.91,65.13-51.9,3.63-32.27-19.67-61.48-51.94-65.13-2.22-.25-4.44-.37-6.63-.37Z"/><path class="cls-6" d="m314.12,2223.73c-1.19,0-2.39-.06-3.61-.21l-20.67-2.29c-17.48-1.99-30.09-17.82-28.14-35.32l6.02-53.5c-15.62-4.44-31.01-10.5-45.83-18.03l-32.01,43.38c-5.98,8.11-15.58,12.94-25.68,12.94-6.87,0-13.44-2.16-18.99-6.25l-16.67-12.32c-6.87-5.05-11.35-12.48-12.63-20.93-1.28-8.43.81-16.86,5.85-23.71l32.05-43.41c-11.43-11.83-21.71-24.74-30.67-38.46l-49.44,21.53c-4.04,1.77-8.33,2.67-12.73,2.67-12.7,0-24.19-7.5-29.3-19.14l-8.32-19.06c-7.03-16.11.36-34.98,16.48-42.03l49.39-21.6c-4.01-15.93-6.48-32.28-7.34-48.68l-53.56-6.07c-8.46-.93-16.05-5.12-21.37-11.78-5.31-6.66-7.7-14.99-6.74-23.45l2.33-20.71c1.96-17.36,17.55-30.17,35.3-28.1l53.52,6.02c4.41-15.59,10.46-30.99,18-45.88l-43.36-31.99c-14.15-10.47-17.15-30.51-6.69-44.64l12.35-16.72c5.98-8.13,15.58-12.98,25.68-12.98,6.83,0,13.35,2.14,18.88,6.19l43.45,32.14c11.79-11.43,24.71-21.76,38.5-30.75l-21.58-49.47c-3.4-7.78-3.56-16.42-.46-24.35,3.12-7.95,9.14-14.2,16.97-17.61l19.04-8.35c4.07-1.78,8.37-2.68,12.76-2.68,12.7,0,24.19,7.53,29.27,19.18l21.54,49.4c16.11-4.06,32.47-6.53,48.73-7.36l6.05-53.55c1.91-17.32,17.5-30.11,35.25-28.13l20.69,2.35c17.48,1.99,30.09,17.82,28.15,35.28l-6.04,53.54c15.58,4.41,30.97,10.47,45.83,18.03l32.01-43.42c6.02-8.1,15.63-12.93,25.72-12.93,6.85,0,13.41,2.16,18.93,6.25l16.72,12.36c6.85,5.05,11.34,12.48,12.61,20.92,1.27,8.43-.81,16.86-5.88,23.72l-32.02,43.38c11.34,11.73,21.65,24.67,30.7,38.51l49.42-21.61c4.06-1.77,8.34-2.66,12.73-2.66,12.74,0,24.24,7.54,29.32,19.21l8.3,19.06c3.41,7.8,3.57,16.48.46,24.41-3.12,7.94-9.13,14.18-16.94,17.57l-49.39,21.57c4.03,16.02,6.51,32.36,7.38,48.68l53.47,6.02c17.5,1.99,30.15,17.85,28.2,35.34l-2.35,20.65c-1.85,16.18-15.51,28.37-31.77,28.37h0c-1.16,0-2.34-.05-3.52-.18l-53.52-6.07c-4.46,15.75-10.5,31.15-18.01,45.87l43.37,32c14.14,10.5,17.12,30.52,6.67,44.63l-12.32,16.73c-6.01,8.12-15.61,12.97-25.72,12.97-6.85,0-13.39-2.16-18.9-6.25l-43.41-32c-11.77,11.34-24.69,21.65-38.49,30.68l21.57,49.4c7.01,16.18-.41,35.04-16.52,42.06l-19.04,8.33c-4.08,1.77-8.36,2.65-12.74,2.65-12.72,0-24.2-7.52-29.25-19.17l-21.57-49.4c-16.24,4.08-32.58,6.56-48.73,7.39l-6.03,53.53c-1.83,16.15-15.45,28.32-31.68,28.32Zm-94.7-120.04l3.17,1.66c16.34,8.58,33.41,15.3,50.75,19.97l3.46.93-6.81,60.58c-1.45,12.94,7.88,24.64,20.78,26.11l20.67,2.29c13.23,1.53,24.63-7.96,26.09-20.77l6.84-60.63,3.58-.13c17.82-.63,35.97-3.39,53.94-8.17l3.47-.91,24.42,55.92c5.02,11.6,19.29,17.29,31.01,12.22l19.04-8.33c11.91-5.19,17.4-19.14,12.21-31.1l-24.41-55.91,3.02-1.92c15.45-9.8,29.8-21.24,42.66-33.98l2.53-2.52,49.14,36.23c10.09,7.5,25.51,5.11,32.95-4.96l12.33-16.73c7.72-10.43,5.51-25.23-4.93-32.99l-49.11-36.21,1.68-3.17c8.55-16.2,15.27-33.27,19.94-50.78l.93-3.47,60.61,6.87c12.83,1.35,24.63-8.02,26.09-20.85l2.36-20.64c1.43-12.93-7.91-24.66-20.86-26.13l-60.56-6.81-.13-3.58c-.71-18.08-3.46-36.21-8.17-53.91l-.93-3.47,55.93-24.43c5.77-2.51,10.21-7.11,12.51-12.97,2.31-5.86,2.19-12.27-.33-18.04l-8.29-19.07c-3.76-8.62-12.27-14.19-21.69-14.19-3.24,0-6.4.67-9.4,1.97l-55.93,24.45-1.91-3.01c-9.83-15.49-21.28-29.85-34.02-42.66l-2.52-2.54,36.25-49.11c3.75-5.07,5.29-11.29,4.35-17.52-.94-6.23-4.26-11.72-9.33-15.46l-16.72-12.37c-10.11-7.47-25.55-5.11-33.01,4.94l-36.24,49.15-3.17-1.67c-16.4-8.63-33.48-15.34-50.76-19.96l-3.47-.92,6.84-60.64c1.44-12.9-7.89-24.59-20.8-26.07l-20.68-2.34c-13.02-1.42-24.63,7.98-26.03,20.78l-6.84,60.66-3.59.13c-17.99.66-36.15,3.4-53.96,8.15l-3.46.92-24.4-55.94c-5.06-11.6-19.35-17.3-31.05-12.2l-19.04,8.35c-5.79,2.52-10.24,7.14-12.55,13.02-2.29,5.85-2.17,12.23.34,17.97l24.43,56-3.02,1.91c-15.41,9.75-29.75,21.21-42.64,34.06l-2.54,2.52-49.19-36.36c-4.07-2.99-8.89-4.57-13.93-4.57-7.57,0-14.49,3.5-18.98,9.59l-12.35,16.73c-7.73,10.45-5.52,25.24,4.93,32.99l49.09,36.21-1.66,3.17c-8.59,16.41-15.3,33.51-19.92,50.81l-.92,3.47-60.64-6.82c-13.25-1.55-24.63,7.93-26.07,20.75l-2.33,20.71c-.72,6.26,1.05,12.4,4.97,17.33,3.93,4.91,9.53,8.01,15.78,8.69l60.67,6.88.14,3.58c.69,18.16,3.43,36.3,8.12,53.89l.93,3.45-55.93,24.46c-11.91,5.21-17.37,19.14-12.17,31.05l8.3,19.06c5.08,11.56,19.38,17.29,31.05,12.17l55.97-24.38,1.9,3.01c9.72,15.35,21.14,29.69,33.98,42.63l2.51,2.54-36.26,49.12c-3.73,5.06-5.26,11.28-4.31,17.51.94,6.25,4.25,11.75,9.33,15.48l16.67,12.32c4.11,3.03,8.98,4.62,14.05,4.62,7.57,0,14.49-3.48,18.97-9.55l36.25-49.1Zm118.9-54.43c-6.13,0-12.36-.34-18.49-1.03-89.71-10.16-154.44-91.32-144.33-180.96,9.35-82.89,79.18-145.39,162.43-145.39,6.15,0,12.37.35,18.52,1.04,89.7,10.14,154.44,91.31,144.31,180.92-9.31,82.91-79.14,145.41-162.45,145.41Zm-.38-319.04c-79,0-145.28,59.33-154.15,137.99-9.6,85.08,51.84,162.11,136.98,171.75,5.83.65,11.73.98,17.55.98,79.06,0,145.34-59.33,154.17-138,9.61-85.06-51.83-162.09-136.97-171.71-5.83-.67-11.74-.99-17.58-.99Z"/><path class="cls-6" d="m338.23,1972.98h0c-3.26,0-6.57-.18-9.89-.55-23.2-2.6-43.99-14.09-58.54-32.34-14.53-18.23-21.12-41.06-18.51-64.27,5.4-47.51,48.15-82.51,96.63-77.1,47.89,5.42,82.46,48.78,77.08,96.66-4.98,44.24-42.29,77.6-86.75,77.6Zm-.18-166.49c-40.19,0-73.94,30.21-78.5,70.26-2.34,20.98,3.6,41.63,16.76,58.14,13.15,16.5,31.97,26.89,52.95,29.25,43.95,4.96,82.6-26.73,87.44-69.69,4.87-43.33-26.4-82.55-69.73-87.45-3-.33-5.97-.5-8.92-.5Z"/></g></svg>