<svg xmlns="http://www.w3.org/2000/svg" viewBox="0 0 829.74 827.95"><defs><style>.cls-1{fill:#faf3e2;}.cls-2{fill:#97a6ac;}.cls-3{fill:#dce1e3;}.cls-4{fill:#fff;}.cls-5{fill:#f6e7c3;}.cls-6{fill:#526b75;}.cls-7{fill:#99b9ff;}.cls-8{fill:#758991;}.cls-9{fill:#e9c369;}.cls-10{fill:#bac4c8;}</style></defs><g id="Layer_2" data-name="Layer 2"><g id="Illustration"><g id="Online_workshop" data-name="Online workshop"><path class="cls-1" d="M9.61,678.29c24.47,59.3,81.6,87.37,118.11,105.32,143.93,70.72,362.51,62.56,519.8-66.21,36.8-30.14,218.21-188,175.85-401.95C785.92,126.32,598,16.51,439.71,1.84,308.61-10.31,137.43,37.33,77,152.66,39,225.18,84.7,248.25,53.67,412.6,26.81,554.86-20.32,605.77,9.61,678.29Z"/><path class="cls-2" d="M173.91,49.92H791.73a31.32,31.32,0,0,1,31.32,31.32V562.07a31.33,31.33,0,0,1-31.33,31.33H173.91a31.33,31.33,0,0,1-31.33-31.33V81.24A31.33,31.33,0,0,1,173.91,49.92Z"/><path class="cls-2" d="M823.21,116.88H142.74V81.32a31.4,31.4,0,0,1,31.4-31.4H791.8a31.4,31.4,0,0,1,31.41,31.4Z"/><rect class="cls-3" x="193.94" y="164.46" width="577.76" height="378.54" rx="25.95"/><circle class="cls-4" cx="713.59" cy="84.59" r="11.43" transform="translate(467.31 759.66) rotate(-76.72)"/><circle class="cls-4" cx="750.96" cy="84.59" r="11.43" transform="translate(496.1 796.03) rotate(-76.72)"/><circle class="cls-4" cx="788.34" cy="84.59" r="11.43" transform="translate(171.08 582.21) rotate(-45)"/><path class="cls-4" d="M745.74,544.5H219.89a27.48,27.48,0,0,1-27.45-27.45v-181a1.5,1.5,0,0,1,3,0v181a24.47,24.47,0,0,0,24.45,24.45H745.74a24.48,24.48,0,0,0,24.46-24.45V190.41A24.48,24.48,0,0,0,745.74,166h-294a1.5,1.5,0,0,1,0-3H745.74a27.48,27.48,0,0,1,27.46,27.45V517.05A27.49,27.49,0,0,1,745.74,544.5Z"/><path d="M791.73,594.89H547.27a1.5,1.5,0,0,1,0-3H791.73a29.86,29.86,0,0,0,29.82-29.82V81.24a29.86,29.86,0,0,0-29.82-29.82H451.28a1.5,1.5,0,0,1,0-3H791.73a32.85,32.85,0,0,1,32.82,32.82V562.07A32.85,32.85,0,0,1,791.73,594.89Z"/><rect class="cls-4" x="13.79" y="1.81" width="412.61" height="307.26" rx="21"/><path class="cls-3" d="M386.5,40.59H316.22A5.27,5.27,0,0,1,311,35.33h0a5.26,5.26,0,0,1,5.26-5.26H386.5a5.26,5.26,0,0,1,5.26,5.26h0A5.27,5.27,0,0,1,386.5,40.59Z"/><path class="cls-3" d="M401.59,63.11H301a5.26,5.26,0,0,1-5.26-5.26h0A5.25,5.25,0,0,1,301,52.59H401.59a5.25,5.25,0,0,1,5.26,5.26h0A5.26,5.26,0,0,1,401.59,63.11Z"/><path class="cls-3" d="M401.85,105.44H301.28a5.27,5.27,0,0,1-5.26-5.26h0a5.26,5.26,0,0,1,5.26-5.26H401.85a5.26,5.26,0,0,1,5.26,5.26h0A5.27,5.27,0,0,1,401.85,105.44Z"/><path class="cls-3" d="M401.51,125.77H303.14a5.25,5.25,0,0,1-5.26-5.26h0a5.26,5.26,0,0,1,5.26-5.26h98.37a5.26,5.26,0,0,1,5.26,5.26h0A5.25,5.25,0,0,1,401.51,125.77Z"/><path class="cls-3" d="M402.18,146.44H303.8a5.27,5.27,0,0,1-5.26-5.26h0a5.26,5.26,0,0,1,5.26-5.26h98.38a5.26,5.26,0,0,1,5.26,5.26h0A5.27,5.27,0,0,1,402.18,146.44Z"/><path class="cls-3" d="M401.85,166.77H301.28a5.26,5.26,0,0,1-5.26-5.26h0a5.27,5.27,0,0,1,5.26-5.26H401.85a5.27,5.27,0,0,1,5.26,5.26h0A5.26,5.26,0,0,1,401.85,166.77Z"/><path class="cls-3" d="M401.51,187.77H301a5.25,5.25,0,0,1-5.26-5.26h0a5.25,5.25,0,0,1,5.26-5.25H401.51a5.25,5.25,0,0,1,5.26,5.25h0A5.25,5.25,0,0,1,401.51,187.77Z"/><path class="cls-3" d="M337.76,85.18H301.13a5.26,5.26,0,0,1-5.25-5.26h0a5.25,5.25,0,0,1,5.25-5.26h36.63A5.25,5.25,0,0,1,343,79.92h0A5.26,5.26,0,0,1,337.76,85.18Z"/><path class="cls-3" d="M402.1,85.18H363.44a5.26,5.26,0,0,1-5.25-5.26h0a5.25,5.25,0,0,1,5.25-5.26H402.1a5.25,5.25,0,0,1,5.25,5.26h0A5.26,5.26,0,0,1,402.1,85.18Z"/><path class="cls-3" d="M140.33,204.52H41.21A5.25,5.25,0,0,1,36,199.26h0A5.26,5.26,0,0,1,41.21,194h99.12a5.27,5.27,0,0,1,5.26,5.26h0A5.26,5.26,0,0,1,140.33,204.52Z"/><path class="cls-3" d="M234.43,204.19H158.54a5.27,5.27,0,0,1-5.26-5.26h0a5.26,5.26,0,0,1,5.26-5.26h75.89a5.26,5.26,0,0,1,5.26,5.26h0A5.27,5.27,0,0,1,234.43,204.19Z"/><path class="cls-3" d="M110.74,182.59H40.87a5.26,5.26,0,0,1-5.26-5.26h0a5.27,5.27,0,0,1,5.26-5.26h69.87a5.27,5.27,0,0,1,5.26,5.26h0A5.26,5.26,0,0,1,110.74,182.59Z"/><rect class="cls-3" x="35.35" y="218.7" width="206.67" height="75.33" rx="7.33"/><rect class="cls-3" x="258.69" y="218.7" width="152.01" height="75.33" rx="7.33"/><rect class="cls-5" x="35.36" y="29.7" width="247" height="116.35" rx="8"/><path d="M361.69,310.57H34.79a22.52,22.52,0,0,1-22.5-22.5V22.81A22.52,22.52,0,0,1,34.79.31H405.41a22.52,22.52,0,0,1,22.49,22.5V217.05a1.5,1.5,0,1,1-3,0V22.81a19.52,19.52,0,0,0-19.49-19.5H34.79a19.53,19.53,0,0,0-19.5,19.5V288.07a19.53,19.53,0,0,0,19.5,19.5h326.9a1.5,1.5,0,0,1,0,3Z"/><path d="M748,542.8c-1-5-1.87-8.71-2.7-12.23-6.1-26-12.65-47.24-17.43-61.55l-13-47.26-160,29.1s-5.18,34.94-15.75,91.94Z"/><path d="M575.57,536.83c17.56,0,29-19.13,21.14-35.4-1.81-3.73-3.64-7.49-5.45-11.13-13.5-27.25-52.13-21.3-57,8.91-.08.53-1.16,1.07-1.23,1.61-2.49,19.11,12.22,36,30.85,36Z"/><path class="cls-6" d="M691,199.27c91.39,25.12,104.43,56.13,104.43,123.31,0,58.57-60.31,90.83-60.31,90.83s29,96.64,12.61,106S709,534.05,684,524.58c-49.88-19-127.72-40.42-151-23.78,0,0,36.95-156.29,5-216.81,0,0-77.69-20.41-10.15-66.63C570.44,188.25,648.85,187.68,691,199.27Z"/><path class="cls-6" d="M552.85,299.35c-21.45,2.49-93.52,24.2-127.5,19.14-38.37-5.72-79.83-75.15-91.63-96.29a20.87,20.87,0,0,1-2.26-14.1c1.44-7.48,4.86-18.14,12.87-22.69,6.69-3.81,19.18-10.28,31,2.51,0,0,29.57,46.21,65.16,47.34,34.34,1.08,72-45.47,177.81-41.06Z"/><path d="M356.1,231.87c-10.58,0-17.4-11.63-17.68-12.13a1.49,1.49,0,0,1,.55-2.05,1.51,1.51,0,0,1,2,.55c.06.11,6.25,10.63,15.09,10.63h.17c6.88-.11,13.74-6.43,20.38-18.8a1.5,1.5,0,1,1,2.64,1.42c-7.2,13.41-14.93,20.26-23,20.38Z"/><path class="cls-3" d="M652.11,384.86a1.51,1.51,0,0,1-.63-2.87c33.74-15.61,50.1-38.5,57.89-55,8.44-17.85,8.9-32.22,8.91-32.36a1.5,1.5,0,1,1,3,.08c0,.6-.47,15-9.14,33.43-8,16.95-24.77,40.52-59.4,56.54A1.6,1.6,0,0,1,652.11,384.86Z"/><path class="cls-3" d="M667.09,432a1.5,1.5,0,0,1,0-3c41.39-.5,68.75-15.89,69-16a1.5,1.5,0,1,1,1.49,2.6c-.27.16-28.26,15.93-70.48,16.44Z"/><path class="cls-4" d="M628.6,427.83s8.52.91,25.38-3.31c12.74-3.19,9-44.54-6.52-33.34C634.52,400.53,627,401.75,627,401.75l-12.47-6.22a47.41,47.41,0,0,0-15.55-4.68c-21.5-2.53-20.21,2.44-20.21,2.44-.93,5,.87,5.77,4.82,7.43l16.82,7.07a3.59,3.59,0,0,1,1,5.9h0A31.8,31.8,0,0,1,591.4,420a214.93,214.93,0,0,1-30.1,9.52c-5.6,1.27-7.38,8.21-2.22,10.78L596.22,443A34.26,34.26,0,0,0,622,433.94Z"/><path d="M598.66,444.58q-1.27,0-2.55-.09L559,441.75a1.33,1.33,0,0,1-.55-.15,6.57,6.57,0,0,1-3.85-6.83A8.09,8.09,0,0,1,561,428a217.45,217.45,0,0,0,29.88-9.45,30.35,30.35,0,0,0,9.48-6l0,0a2.06,2.06,0,0,0,.6-1.88,2,2,0,0,0-1.17-1.51L583,402.11c-3.94-1.66-6.79-2.86-5.76-8.88a3,3,0,0,1,.79-2.06c2.29-2.62,9.19-3.21,21.11-1.81a48.69,48.69,0,0,1,16,4.83l12,6c1.76-.42,8.73-2.47,19.43-10.21,4.35-3.14,7.63-2.35,9.62-1.14,5.8,3.54,7.91,15.38,6.54,24.33-1.08,7.08-4.14,11.76-8.4,12.83-14.42,3.61-22.81,3.52-25.2,3.39L623,435A36.08,36.08,0,0,1,598.66,444.58Zm-39.15-5.8,36.82,2.72A33,33,0,0,0,621,432.83l6.64-6.11a1.48,1.48,0,0,1,1.17-.38h0c.09,0,8.53.81,24.85-3.27,3-.76,5.28-4.54,6.17-10.38,1.35-8.85-1-18.81-5.14-21.31-1.79-1.09-3.85-.76-6.3,1-13.08,9.46-20.82,10.79-21.15,10.84a1.47,1.47,0,0,1-.9-.14l-12.48-6.22a45.78,45.78,0,0,0-15.06-4.53c-15.8-1.86-18.28.52-18.53.85a1.54,1.54,0,0,1,0,.37c-.7,3.83,0,4.13,3.93,5.78l16.82,7.07a5,5,0,0,1,3,3.76,5.09,5.09,0,0,1-1.54,4.62l0,0A33.3,33.3,0,0,1,592,421.36,215.63,215.63,0,0,1,561.63,431a5.07,5.07,0,0,0-4.08,4.17A3.58,3.58,0,0,0,559.51,438.78Zm20.66-45.86Zm0,0h0Zm0,0Z"/><path class="cls-4" d="M272.3,124.33A4.91,4.91,0,0,1,278,121c6.82,1.5,41.93,9.24,48.48,10.72s6.8,8.78,10.53,15.46c3.25,5.8,14.41,27.07,26.57,41.89A14.25,14.25,0,0,1,364.9,205a22.14,22.14,0,0,1-6.19,7.46c-6.34,4.34-11.11,9.51-23.86-21a10,10,0,0,0-3.77-4.57,46.15,46.15,0,0,1-9.74-8.72S300,204.23,294.53,151.3a11.89,11.89,0,0,1,5.57-11.6c.32-.19.65-.37,1-.56l-25.58-8.2a5.2,5.2,0,0,1-3.22-6.61Z"/><path d="M351.88,217.24A6.42,6.42,0,0,1,350,217c-4.89-1.42-9.85-8.88-16.56-24.95a8.61,8.61,0,0,0-3.21-3.89,47.06,47.06,0,0,1-8.95-7.72c-2.38,2.39-8,7.06-13.91,5.27-7.42-2.23-12.25-13.74-14.36-34.23a13.61,13.61,0,0,1,4.59-11.84l-22.57-7.24a6.48,6.48,0,0,1-3.79-3.26,6.91,6.91,0,0,1-.4-5.26h0a6.43,6.43,0,0,1,7.45-4.35c11.44,2.52,42.46,9.35,48.48,10.72,5.34,1.21,7.07,5.64,8.9,10.32a46.45,46.45,0,0,0,2.61,5.87c.36.63.81,1.46,1.35,2.43C344,156.67,354,175,364.73,188.08a15.78,15.78,0,0,1,1.47,17.63,23.31,23.31,0,0,1-6.64,8l-.83.58C356.61,215.72,354.43,217.24,351.88,217.24Zm-30.54-40.58a1.47,1.47,0,0,1,1.14.53,44.89,44.89,0,0,0,9.43,8.44,11.57,11.57,0,0,1,4.33,5.24c6.07,14.53,10.86,22.12,14.63,23.22,1.9.56,3.57-.52,6.14-2.31l.86-.59a20.36,20.36,0,0,0,5.72-6.95A12.75,12.75,0,0,0,362.41,190c-10.92-13.31-21.06-31.81-25.38-39.7-.54-1-1-1.79-1.34-2.42a50,50,0,0,1-2.78-6.23c-1.91-4.88-3.16-7.67-6.78-8.49-6-1.37-37-8.21-48.46-10.72a3.44,3.44,0,0,0-3.95,2.37,3.83,3.83,0,0,0,.22,3,3.5,3.5,0,0,0,2,1.76l25.58,8.2a1.51,1.51,0,0,1,.24,2.76c-.33.17-.64.35-.94.52A10.43,10.43,0,0,0,296,151.14c2.46,23.86,8,30.39,12.24,31.67,5.79,1.74,11.86-5.53,11.92-5.6a1.47,1.47,0,0,1,1.15-.55Z"/><path d="M326.22,167.71a1.48,1.48,0,0,1-.75-.2c-1.71-1-4.85-3.23-6.12-4.13a51,51,0,0,1-12.57-12.5,10.24,10.24,0,0,1-1.81-5.95,5.23,5.23,0,0,1,3.9-5.36c4.33-1.51,11.11,2.56,11.87,3a1.5,1.5,0,1,1-1.58,2.55c-2.4-1.48-7.05-3.53-9.3-2.74-1,.35-1.83.64-1.89,2.6a7.18,7.18,0,0,0,1.3,4.19,48.11,48.11,0,0,0,11.83,11.74c1,.69,4.23,3,5.88,4a1.5,1.5,0,0,1-.76,2.79Z"/><path d="M321.62,180a1.51,1.51,0,0,1-1.09-.47c-5.8-6.17-5.46-12.77-5.44-13.05a1.5,1.5,0,0,1,3,.18c0,.24-.23,5.64,4.64,10.82a1.49,1.49,0,0,1-1.1,2.52Z"/><path class="cls-4" d="M657.8,197.69l-2.32-62.6-43.91,23.06.48,39.57c.32,8.82,7.56,13.74,7.56,13.74,9,6.83,21.55,5.59,30.7-1l2.12-1.52A13.13,13.13,0,0,0,657.8,197.69Z"/><path d="M633.64,217.56a24.49,24.49,0,0,1-14.94-4.9c-.25-.18-7.81-5.41-8.15-14.88l-.48-39.61a1.48,1.48,0,0,1,.8-1.34l43.91-23.07A1.5,1.5,0,0,1,657,135l2.32,62.59a14.55,14.55,0,0,1-6,12.54l-2.12,1.52A30.17,30.17,0,0,1,633.64,217.56Zm-20.56-58.51.47,38.65c.28,7.89,6.84,12.48,6.91,12.52,7.93,6,19.82,5.61,29-1l2.12-1.53a11.55,11.55,0,0,0,4.75-10h0l-2.23-60.22Z"/><path d="M591.64,63.39c11.72-.7-3,11.72,40.33-1.31,17.27-5.19,8.53,15.54,13,14.21,16.55-4.93,16-4.78,24.06-2.59,5.35,1.44,8.83,11.59,7.83,19.17-1.33,10-9.36,12.59-16.46,33.73-5,14.85-3.77,23.87-9.56,26s-10.16-5.88-16.73-4c-8.49,2.46-6.81,17.59-15.08,23.86-5.21,4-17.35,5.8-36.79-3.93a7.6,7.6,0,0,1-3.84-8.75c1.2-4.47,2.73-10.11,4.64-15.38,9.08-25.08,17.76-30.75,14.62-37.25-4.82-10-23.13-4.24-26.16-12.42C568.37,86.29,575.59,64.35,591.64,63.39Z"/><path class="cls-4" d="M632.55,106.58,629.19,113a75.55,75.55,0,0,0-4.11,9.4c-2.18,6.06-6.3,16.31-8.56,22.1-7.25,18.62-29.51-1.83-29.51-1.83l-1.55-5.13-3-1.25a3.6,3.6,0,0,1-1.5-1.12,3.64,3.64,0,0,1-.14-4.2c4.47-6.8,13.79-22.06,17.14-35.75A36.89,36.89,0,0,1,632.55,106.58Z"/><path d="M606.47,153.84c-9.42,0-20-9.6-20.47-10.05a1.47,1.47,0,0,1-.42-.67l-1.35-4.45-2.34-1a5,5,0,0,1-2.11-1.6,5.14,5.14,0,0,1-.21-5.93c4-6,13.6-21.59,16.95-35.28a1.5,1.5,0,0,1,1.07-1.09c.82-.22,20.15-5.11,36,11.76a1.5,1.5,0,0,1,.24,1.72l-3.36,6.44a74.79,74.79,0,0,0-4,9.22c-1.58,4.41-4.23,11.12-6.36,16.51-.83,2.1-1.59,4-2.21,5.63-1.84,4.71-4.75,7.56-8.67,8.47A12.33,12.33,0,0,1,606.47,153.84Zm-18.14-12c1.91,1.66,12.55,10.55,20.24,8.76,2.94-.68,5.08-2.85,6.55-6.63l2.22-5.64c2.12-5.37,4.76-12.06,6.33-16.42a79.43,79.43,0,0,1,4.19-9.6l2.86-5.48A35.68,35.68,0,0,0,599.2,96.51c-3.5,13.38-12.18,27.8-17.12,35.3a2.15,2.15,0,0,0,.09,2.48,2.37,2.37,0,0,0,.88.64l3,1.25a1.48,1.48,0,0,1,.86.95Z"/><path class="cls-4" d="M627.81,129.06s8.05-15.5,14.09-10.22-3.23,22.11-14.09,10.22Z"/><path d="M598.05,132.2a6.47,6.47,0,0,1-4.63-1.77c-2.23-2.15-3.16-6-2.83-11.83.25-4.49,1.55-7.19,4-8.26h0a6.66,6.66,0,0,1,5.3-.14,5.21,5.21,0,0,1,2.91,2.86c2.73,7.27,1.57,13.26-.43,16.45a5,5,0,0,1-3.48,2.66Zm-.62-19.48a4.06,4.06,0,0,0-1.66.37h0c-1.27.56-2,2.47-2.19,5.68-.33,6,.86,8.48,1.92,9.5a3.7,3.7,0,0,0,3.07.91c.12,0,.72-.35,1.39-1.55,1.47-2.61,2.24-7.53,0-13.52a2.32,2.32,0,0,0-1.26-1.15A3.36,3.36,0,0,0,597.43,112.72Zm-2.27-1h0Z"/><path d="M635.08,117.51l-.2,0-36.65-4.78a1.5,1.5,0,0,1,.39-3l36.65,4.79a1.5,1.5,0,0,1-.19,3Z"/><path d="M582,128.28a1.51,1.51,0,0,1-.65-.15c-.93-.44-1.75-1.75-2.42-3.89-1.15-3.64-1.53-9,.84-13.23a5.22,5.22,0,0,1,3.61-2.7c3.65-.68,7.66,2.49,8.1,2.85a1.5,1.5,0,1,1-1.89,2.33c-.86-.7-3.73-2.6-5.66-2.23a2.18,2.18,0,0,0-1.55,1.23c-2.75,4.88-.6,12,.39,13a1.5,1.5,0,0,1-.77,2.79Zm.65-2.85Z"/><circle class="cls-7" cx="352.08" cy="495.84" r="27.74"/><circle class="cls-2" cx="442.79" cy="495.84" r="27.74"/><path class="cls-4" d="M433.57,506.58V485.1a1.48,1.48,0,0,1,2.14-1.32l21.47,10.6a1.48,1.48,0,0,1,0,2.64L435.72,507.9A1.49,1.49,0,0,1,433.57,506.58Z"/><circle class="cls-2" cx="533.5" cy="495.84" r="27.74"/><path class="cls-4" d="M542.6,506.41a1.49,1.49,0,0,1-1.06-.44L523,487.46a1.5,1.5,0,1,1,2.12-2.12l18.51,18.51a1.51,1.51,0,0,1,0,2.12A1.53,1.53,0,0,1,542.6,506.41Z"/><path class="cls-4" d="M524.09,506.41a1.5,1.5,0,0,1-1.06-2.56l18.51-18.51a1.49,1.49,0,0,1,2.12,0,1.51,1.51,0,0,1,0,2.12L525.15,506A1.53,1.53,0,0,1,524.09,506.41Z"/><path class="cls-4" d="M400.83,386.27a1.5,1.5,0,0,1-.81-2.76L449.12,352a1.5,1.5,0,1,1,1.62,2.52L401.64,386A1.5,1.5,0,0,1,400.83,386.27Z"/><path class="cls-4" d="M335.6,428.2a1.5,1.5,0,0,1-.81-2.77l44.46-28.57a1.5,1.5,0,1,1,1.62,2.52L336.41,428A1.5,1.5,0,0,1,335.6,428.2Z"/><path class="cls-4" d="M378.11,435.38a1.5,1.5,0,0,1-.81-2.76l114.33-73.49a1.5,1.5,0,0,1,1.62,2.53L378.92,435.15A1.49,1.49,0,0,1,378.11,435.38Z"/><path class="cls-8" d="M243.19,642.05l-140.12-1.4c-25.33,0-47-16.54-51.44-41.72l-24-136.09a26.38,26.38,0,0,1,25.81-31.09h91.42Z"/><polygon class="cls-8" points="159.6 808.44 136.54 808.44 136.54 640.41 159.6 641.29 159.6 808.44"/><path class="cls-8" d="M202.51,780.33H98.81a29.3,29.3,0,0,0-29.29,29.29H231.8A29.3,29.3,0,0,0,202.51,780.33Z"/><path class="cls-3" d="M65.54,538.32a1.49,1.49,0,0,1-1.47-1.24L52.44,471a1.5,1.5,0,1,1,3-.52L67,536.56a1.5,1.5,0,0,1-1.22,1.74Z"/><path d="M197.35,322.05c9.21-.82,15.65,7.58,20.8,20.29,4.2,10.38,2.55,19-3.13,24.71-18.38,18.41-38.31,71.52-65.57,87.68-21.75,12.89-67.28,10.5-88.3-16.22-20-25.41-23-62.22-.41-78.77,20.34-14.89,39.28,10.62,60.86-3.22,21.28-13.65,21-25,33.53-31.62C168.65,317.76,171.26,324.36,197.35,322.05Z"/><path class="cls-2" d="M328.56,726.46c-.19.8,9.19,43.72,9.19,43.72l-21.56-3.61-6.49-36.29Z"/><path class="cls-4" d="M326.3,756.1a9.31,9.31,0,0,1,5.61-2.29,9,9,0,0,1,8.4,5.43c3.74,8.31,13.6,31.46,16.38,50.37,1,6.69-4.06,12.13-11.92,7.75-12.88-7.18-30.76-23.67-40.11-48a8.8,8.8,0,0,1,1.07-8.36,42.31,42.31,0,0,1,5.66-6.39,5.89,5.89,0,0,1,7.68-.12l2,1.66A4,4,0,0,0,326.3,756.1Z"/><path d="M350.08,820.44a12.41,12.41,0,0,1-6-1.77c-13.56-7.56-31.39-24.34-40.78-48.78a10.28,10.28,0,0,1,1.26-9.79,42.81,42.81,0,0,1,5.87-6.62,7.37,7.37,0,0,1,9.64-.16l2,1.66a2.58,2.58,0,0,0,3.29,0h0a10.78,10.78,0,0,1,6.5-2.65,10.52,10.52,0,0,1,9.84,6.31c4,9,13.71,31.85,16.5,50.78.59,4-.77,7.75-3.55,9.67A7.91,7.91,0,0,1,350.08,820.44Zm-34.79-65.83a4.33,4.33,0,0,0-2.89,1.1,39.81,39.81,0,0,0-5.46,6.16,7.26,7.26,0,0,0-.88,6.94c9.1,23.7,26.34,39.94,39.44,47.24,2.94,1.63,5.57,1.83,7.42.55s2.72-3.86,2.29-6.77c-2.74-18.55-12.29-41.13-16.27-50a7.5,7.5,0,0,0-7-4.55,7.72,7.72,0,0,0-4.7,1.94,5.57,5.57,0,0,1-7.12,0l-2-1.67A4.48,4.48,0,0,0,315.29,754.61Z"/><path d="M351.8,812.9c-1.73,0-20.2-1.07-42.38-44.9a1.5,1.5,0,0,1,2.68-1.35c21.95,43.38,39.52,43.26,39.7,43.25a1.5,1.5,0,0,1,.11,3Z"/><path d="M338,788.92a1.5,1.5,0,0,1-.55-2.89l10.22-4a1.5,1.5,0,1,1,1.1,2.79l-10.22,4A1.52,1.52,0,0,1,338,788.92Z"/><path d="M334.41,781.09a1.5,1.5,0,0,1-.55-2.9l12-4.66a1.5,1.5,0,0,1,1.09,2.8L335,781A1.47,1.47,0,0,1,334.41,781.09Z"/><path class="cls-2" d="M236.57,726.35a92.86,92.86,0,0,0-2.29,13.85c-1.55,14.15,14.28,27.24,14.28,27.24l-37.51-5.05,1.44-32.74Z"/><path class="cls-4" d="M219.71,752.89c2.2-.73,1.7-4.12,3.5-5.73,2.71-2.42,6.1-2.37,9.34-.73,8.09,4.07,30.18,15.8,44.15,28.72,4.93,4.57,4.4,12-4.44,13.6-14.49,2.6-38.65,1.15-61.1-11.81a8.76,8.76,0,0,1-4.39-7.19,106.29,106.29,0,0,1,.5-13.57,6,6,0,0,1,5.89-5h2.61C217.73,751.22,217.85,753.5,219.71,752.89Z"/><path d="M259.14,791.34a98.72,98.72,0,0,1-48.74-13.11,10.22,10.22,0,0,1-5.13-8.41,106.11,106.11,0,0,1,.52-13.88,7.41,7.41,0,0,1,7.35-6.24h2.64a4,4,0,0,1,3,1.42,3.9,3.9,0,0,0,.41.36l.09,0h0c.44-.14.67-.72,1.06-1.93a7.3,7.3,0,0,1,1.91-3.49c3-2.64,7-3,11-.95,8.73,4.4,30.52,16,44.49,29,3,2.76,4.24,6.5,3.29,9.75-.56,1.93-2.41,5.33-8.47,6.42A75.87,75.87,0,0,1,259.14,791.34Zm-46-38.64a4.43,4.43,0,0,0-4.39,3.72,103.22,103.22,0,0,0-.48,13.27,7.22,7.22,0,0,0,3.64,5.95c21.84,12.62,45.36,14.28,60.09,11.63,3.31-.6,5.48-2.13,6.12-4.31s-.3-4.73-2.44-6.71c-13.69-12.67-35.2-24.14-43.81-28.49-2.06-1-5.07-1.79-7.67.52a5.23,5.23,0,0,0-1,2.17c-.46,1.43-1,3.22-3,3.86h0a3.23,3.23,0,0,1-3.55-1c-.44-.44-.58-.55-.86-.55h-2.63Zm6-1.19h0Z"/><path d="M258.76,784.77c-9.54,0-23.91-2.59-44.74-11.92a1.5,1.5,0,0,1,1.23-2.74c43.73,19.59,57.69,8.49,57.83,8.37a1.5,1.5,0,0,1,2,2.26C274.72,781,270.22,784.77,258.76,784.77Z"/><path d="M248.32,771.3a1.51,1.51,0,0,1-1.3-2.24l5.42-9.63a1.5,1.5,0,0,1,2.62,1.47l-5.43,9.63A1.5,1.5,0,0,1,248.32,771.3Z"/><path d="M240.66,767.49a1.46,1.46,0,0,1-.78-.22,1.5,1.5,0,0,1-.5-2.06l6.11-10a1.5,1.5,0,0,1,2.56,1.56l-6.11,10A1.51,1.51,0,0,1,240.66,767.49Z"/><path d="M135,561.31s131.28-5.69,145.64,7.63C300.05,587,333.5,737.52,333.5,737.52l-32.29,9.06S252.55,623.06,240.5,623.06s-125.72-4-125.72-4Z"/><path d="M109.13,557.17s-17.32,50.83-3.54,60.1,113.09,8.48,109.65,7.32-8.88,83.23-8.88,115.68l31.27,1.21S287.46,611,282.09,596.4c-9.61-26.07-82.07-34.87-105.74-38.35C171.48,557.33,109.13,557.17,109.13,557.17Z"/><path class="cls-3" d="M265.58,668.7a1.43,1.43,0,0,1-.46-.07,1.5,1.5,0,0,1-1-1.89c1.12-3.51,2.24-7,3.33-10.34,8.73-27,16.26-50.24,13.18-59.53-6.54-19.76-56-27.41-72.25-29.92a1.5,1.5,0,0,1,.46-3c29,4.49,68.26,12.67,74.64,31.95,3.39,10.22-3.92,32.8-13.17,61.39q-1.65,5.07-3.34,10.34A1.48,1.48,0,0,1,265.58,668.7Z"/><path class="cls-4" d="M124.69,403.05s.46-8.38-4.72,79c0,0,3.57,67.59,4,75.22s66.55,4.3,66.55,4.3c7.82-34.28,7-73.62,1.51-115.64l11.33-1,.79-26.41c-2-7.78-10.71-13.37-16.52-15.45C172.15,396.08,144.7,398.32,124.69,403.05Z"/><path d="M160.86,563.77h-3.45c-30.38-.23-34.74-3.22-34.93-6.43-.44-7.54-4-74.55-4-75.23a.43.43,0,0,1,0-.16c2.17-36.65,3.35-56.45,4-67.09.31-5.32.5-8.35.6-10.05,0-.65.07-1.19.12-1.64v-.37h0c.17-1.14.51-1.52,1.54-1.46a1.6,1.6,0,0,1,.36.07c19.22-4.43,46.93-7,63.06.25,5.39,1.94,15.06,7.57,17.41,16.45a1.58,1.58,0,0,1,0,.43l-.79,26.41a1.5,1.5,0,0,1-1.37,1.45l-9.77.88C199.61,493.48,199,531,192,561.89a1.49,1.49,0,0,1-1.38,1.16C190.45,563.06,176.09,563.77,160.86,563.77ZM121.48,482c.14,2.74,3.57,67.72,4,75.13.15.31,2.45,3.45,33,3.61,13.51.06,26.91-.48,30.82-.66,6.81-30.68,7.21-68,1.23-114a1.54,1.54,0,0,1,.32-1.13,1.47,1.47,0,0,1,1-.55l10-.9.74-24.86c-1.87-6.61-9.32-12-15.52-14.21l-.11,0c-15.36-6.91-42.14-4.45-60.91-.16C125.87,408.22,124.93,423.71,121.48,482Z"/><path class="cls-9" d="M209.44,560.65l-2.87-139.33c-1-6.51-3.27-9.14-8.72-12.77a27.46,27.46,0,0,0-8.79-3.63s-1.54-.87-1.88,7.57c-.16,4.12,5.07,49.85,6,89.06.65,27.43-3.44,51.4-3.17,56.67,0,.39,18.08,4,19.3,2.79Z"/><path d="M164.19,476.61a1.5,1.5,0,0,1-.7-2.83C179,465.62,180,442.59,180,442.36a1.51,1.51,0,0,1,1.56-1.44,1.49,1.49,0,0,1,1.44,1.55c0,1-1.12,25-18.11,34A1.49,1.49,0,0,1,164.19,476.61Z"/><path class="cls-9" d="M135.86,401.88s-15.92-1.83-26.17,12.17-11.42,29.75-9.5,42.5c3.26,21.63,16.85,46.26,16.23,53-.31,3.26-3.77,26.45-16.86,47.22-10.78,17.1-10.32,54.82-8.21,56,14.19,8.27,37.46,25.05,65.18,27.05,5.12.37,9.3-2.28,10-6.42,3-16.56,10.89-64.59,12.09-109.67,1-39-26.77-98.33-28-103.42C147.69,408,135.86,401.88,135.86,401.88Z"/><path class="cls-9" d="M150.39,506.29c13,29.66,36.15,36.71,74.18,41.77l-4,11.22c-56.83,7.1-67.53-4.14-90.5-34.23Z"/><path class="cls-9" d="M205.31,454.36c2.9,24.53,41.25,60.91,61.88,68.92l-13.83,10.43c-17.83.65-41-19.9-49-27.18Z"/><path class="cls-4" d="M243.69,526.36a4.57,4.57,0,0,1,2.48-2.22,17.64,17.64,0,0,0,2.26-1l10-5.33c1.88-.92,4.57,1.23,6.53,1.87,5.89,1.94,18.09,6.5,17.09,10.78-1.09,4.62-11.58,2.44-15.3,1.5-.85-.21-8.55,2.58-11,2.77-3.37.25-4.14-.61-5.79-1.47a5.47,5.47,0,0,0-2.49-.58,4.6,4.6,0,0,1-3.58-1.67l0,0a3.89,3.89,0,0,1-.42-4.2Z"/><path d="M254.68,536.24a8,8,0,0,1-4.68-1.3l-.69-.38a3.89,3.89,0,0,0-1.8-.41,6.07,6.07,0,0,1-4.74-2.24,5.42,5.42,0,0,1-.61-5.85l.2-.38a6,6,0,0,1,3.3-2.95,16.48,16.48,0,0,0,2.06-.94l10-5.33c2-1,4.23.11,6,1a14.73,14.73,0,0,0,1.7.78c19.53,6.41,18.44,11,18.09,12.54a4.49,4.49,0,0,1-2.1,2.83c-3.54,2.16-10.75.84-14.85-.17-.62.08-2.58.67-4,1.1a43.46,43.46,0,0,1-6.66,1.66C255.46,536.23,255.05,536.24,254.68,536.24Zm4.83-17.18a.92.92,0,0,0-.38.07l-10,5.31a18.32,18.32,0,0,1-2.45,1.11A3,3,0,0,0,245,527h0l-.2.39a2.4,2.4,0,0,0,.26,2.58,3.07,3.07,0,0,0,2.44,1.14,6.91,6.91,0,0,1,3.18.75l.78.43a5.72,5.72,0,0,0,4.2.87,45.52,45.52,0,0,0,6-1.55c3.75-1.11,4.7-1.36,5.44-1.17,6,1.49,10.84,1.71,12.72.56a1.48,1.48,0,0,0,.75-.95c.32-1.39-3.7-4.94-16.1-9a17,17,0,0,1-2.12-.94A8.4,8.4,0,0,0,259.51,519.06Zm-15.82,7.3h0Z"/><path class="cls-3" d="M122.19,580.17a35.93,35.93,0,0,1-13.49-2.8,1.51,1.51,0,0,1-.83-2,1.49,1.49,0,0,1,1.95-.82c25.33,10.22,38.19-12.81,38.72-13.79a1.5,1.5,0,1,1,2.64,1.43C151.06,562.44,141.18,580.17,122.19,580.17Z"/><path class="cls-3" d="M208.42,508.85a1.5,1.5,0,0,1-1.5-1.45l-1.36-38a1.5,1.5,0,1,1,3-.1l1.36,38a1.5,1.5,0,0,1-1.45,1.55Z"/><path class="cls-3" d="M189.13,562.89c-14.37,0-21.43-3.09-30.39-7-2.25-1-4.59-2-7.22-3.07-7.72-3.1-13.3-7.89-18.11-15.51-2.21-3.51-4.09-7.23-5.9-10.83-1.6-3.16-3.25-6.42-5.09-9.48a1.5,1.5,0,0,1,2.57-1.55c1.9,3.16,3.57,6.47,5.19,9.68,1.79,3.53,3.64,7.19,5.77,10.58,4.45,7.06,9.6,11.47,16.68,14.32,2.68,1.08,5,2.11,7.32,3.11,11.73,5.13,19.48,8.53,44.62,5.81,2.17-.23,10.42-.13,12.18-.06a1.5,1.5,0,0,1-.12,3c-2.17-.09-10-.15-11.74,0A148.55,148.55,0,0,1,189.13,562.89Z"/><path class="cls-3" d="M177.69,536.55a1.56,1.56,0,0,1-.69-.17l-9-4.62-.18-.21C162,525,157.71,513.8,153.9,502.65a1.5,1.5,0,0,1,2.84-1c3.67,10.73,7.79,21.49,13.11,27.67l8.52,4.36a1.5,1.5,0,0,1-.68,2.84Z"/><path class="cls-4" d="M215.54,553.3a4.54,4.54,0,0,1,2.48-2.22,19.13,19.13,0,0,0,2.26-1l10-5.33c1.88-.92,4.57,1.23,6.53,1.87,5.89,1.93,18.09,6.49,17.09,10.78-1.09,4.62-11.57,2.43-15.3,1.5-.85-.21-8.55,2.58-11,2.76-3.37.26-4.14-.6-5.79-1.46a5.19,5.19,0,0,0-2.49-.58,4.57,4.57,0,0,1-3.58-1.68l0,0a3.91,3.91,0,0,1-.42-4.21Z"/><path d="M226.53,563.18a8,8,0,0,1-4.68-1.31l-.69-.38a3.89,3.89,0,0,0-1.8-.4,6.07,6.07,0,0,1-4.74-2.24A5.43,5.43,0,0,1,214,553l.2-.39h0a6,6,0,0,1,3.3-2.94,16,16,0,0,0,2.07-.95l10-5.32c2-1,4.23.1,6,1a13,13,0,0,0,1.7.77c19.53,6.42,18.44,11,18.09,12.55a4.52,4.52,0,0,1-2.1,2.83c-3.54,2.16-10.75.84-14.85-.17-.62.08-2.57.66-4,1.09a42.54,42.54,0,0,1-6.66,1.67C227.32,563.16,226.91,563.18,226.53,563.18Zm-9.65-9.2-.2.38a2.41,2.41,0,0,0,.26,2.59,3.13,3.13,0,0,0,2.44,1.14,6.88,6.88,0,0,1,3.18.75c.28.14.53.29.78.43a5.85,5.85,0,0,0,4.2.87,47.16,47.16,0,0,0,6-1.55c3.75-1.12,4.7-1.36,5.44-1.18,6,1.5,10.84,1.71,12.73.57a1.51,1.51,0,0,0,.74-1c.32-1.39-3.69-4.93-16.1-9a15.52,15.52,0,0,1-2.11-.94c-1.12-.56-2.64-1.32-3.29-1l-10,5.3a18.5,18.5,0,0,1-2.45,1.12,3,3,0,0,0-1.65,1.49Z"/><path class="cls-4" d="M208.91,384.88a2.43,2.43,0,0,0,2-2.91c-1.91-8.56-1.18-23.21-1.46-22.8-3.05,4.48-9.4-1.14-18.44-1.5-5.39-.21-7.47,3-8.27,5.6a1,1,0,0,1-1.87.26c-1.32-2-3.57-3.78-6.91-.43-3.72,3.72-.61,12.35,2.75,15.18-.81.93-13.67,14.79-23.53,25.2a4.77,4.77,0,0,0,.58,7.08l8.77,6.65a16.36,16.36,0,0,0,18.75.73l1.36-.87a2.66,2.66,0,0,0,.49-4.07l-2.65-2.81c-2.16-2.56-1.76-5.8-.38-8.5l5.41-9.18a24.71,24.71,0,0,0,4.27,4.23,7,7,0,0,0,9-.72,25.69,25.69,0,0,0,7-10.72Z"/><path d="M172.47,422a17.85,17.85,0,0,1-10.81-3.62l-8.76-6.66a6.25,6.25,0,0,1-.77-9.3c8.52-9,19.29-20.58,22.55-24.13a17.58,17.58,0,0,1-3.86-9.91,8.21,8.21,0,0,1,2.12-6.37c1.7-1.7,3.41-2.48,5.07-2.3a5.36,5.36,0,0,1,3.64,2.24c1-2.59,3.49-6,9.45-5.8a38.15,38.15,0,0,1,10,2c4.36,1.35,6.11,1.71,7.2.11a1.53,1.53,0,0,1,1.7-.6c1.12.35,1.12.78,1.12,4.12,0,4.47,0,13.77,1.34,19.79a3.87,3.87,0,0,1-.6,3.06,4,4,0,0,1-2.69,1.66h0l-2.11.3a27.68,27.68,0,0,1-7.13,10.44A8.45,8.45,0,0,1,189,398a19.85,19.85,0,0,1-3.17-2.91l-4.36,7.39c-.74,1.46-1.76,4.4.23,6.77l2.6,2.75a4.16,4.16,0,0,1-.77,6.36l-1.35.87A17.88,17.88,0,0,1,172.47,422Zm5.08-59.31a4.2,4.2,0,0,0-2.49,1.44,5.44,5.44,0,0,0-1.24,4.12c.15,3.57,2.14,7.37,3.9,8.85a1.5,1.5,0,0,1,.16,2.14c-.8.91-13.46,14.56-23.57,25.24a3.26,3.26,0,0,0-.89,2.51,3.29,3.29,0,0,0,1.29,2.35l8.77,6.65a14.91,14.91,0,0,0,17,.66l1.36-.87a1.17,1.17,0,0,0,.21-1.78l-2.65-2.81c-2.33-2.76-2.54-6.46-.63-10.21l5.46-9.27a1.51,1.51,0,0,1,1.18-.73,1.47,1.47,0,0,1,1.27.54,22.31,22.31,0,0,0,4,4,5.46,5.46,0,0,0,7.13-.58,24.09,24.09,0,0,0,6.64-10.07,1.5,1.5,0,0,1,1.23-1l3-.43a.89.89,0,0,0,.64-.4.83.83,0,0,0,.14-.7c-1.38-6.23-1.41-15.52-1.41-20.18-2.25.74-5-.13-7.9-1a35,35,0,0,0-9.18-1.92c-3.54-.14-5.81,1.39-6.77,4.53a2.54,2.54,0,0,1-4.57.64c-.45-.69-1.15-1.53-2-1.62Zm31.36,22.16h0Z"/><path class="cls-4" d="M183.82,390.09l1.73,2.42Z"/><path d="M185.56,394a1.49,1.49,0,0,1-1.22-.63L182.6,391a1.5,1.5,0,1,1,2.44-1.75l1.73,2.41a1.5,1.5,0,0,1-1.21,2.38Z"/><path class="cls-8" d="M270.14,557.68,300.57,468a10,10,0,0,1,8.42-4.52H390.1a5,5,0,0,1,4.85,6.73c-.48,1.26-1,2.5-1.41,3.78L366,557.84h0a9,9,0,0,1-9,8.85H207.35a9,9,0,0,1-9-9Z"/><path d="M357,568.19H207.35a10.52,10.52,0,0,1-10.5-10.51,1.5,1.5,0,0,1,1.5-1.5h70.72l30.08-88.66a1.5,1.5,0,0,1,.16-.34A11.49,11.49,0,0,1,309,462H390.1a6.59,6.59,0,0,1,5.51,2.87,6.38,6.38,0,0,1,.74,5.9l-.42,1.07c-.35.91-.68,1.76-1,2.63l-27.44,83.69A10.57,10.57,0,0,1,357,568.19Zm-157-9a7.52,7.52,0,0,0,7.35,6H357a7.53,7.53,0,0,0,7.49-7.38,1.7,1.7,0,0,1,.14-.6l27.45-83.69c.31-1,.68-1.89,1-2.79l.41-1.05a3.35,3.35,0,0,0-.41-3.13,3.61,3.61,0,0,0-3-1.57H309a8.49,8.49,0,0,0-7.06,3.69l-30.37,89.49a1.51,1.51,0,0,1-1.42,1Z"/><path class="cls-10" d="M330.43,509.45c-1.14,3.8.6,7.68,3.9,8.68s6.9-1.27,8-5.07-.6-7.69-3.9-8.68S331.57,505.65,330.43,509.45Z"/><path class="cls-4" d="M506.92,565.19H146.81c-6.71,0-11.92,6.31-11.16,13.5L160.51,814.4h18L162.9,593.18a6.54,6.54,0,0,1,6.21-7.22H478.23c5.42,0,9.69,5,9.28,10.81l-15.41,219h17.95l25.29-240.42C515.91,570,512,565.19,506.92,565.19Z"/><path d="M301.16,387.16a1.49,1.49,0,0,1-1-.35,1.5,1.5,0,0,1-.18-2.11l5-5.94a1.5,1.5,0,0,1,2.3,1.93l-5,5.94A1.52,1.52,0,0,1,301.16,387.16Z"/><path d="M289.53,401a1.56,1.56,0,0,1-1-.35,1.51,1.51,0,0,1-.18-2.12l5-5.93a1.5,1.5,0,1,1,2.3,1.93l-5,5.93A1.48,1.48,0,0,1,289.53,401Z"/><path d="M293.89,387.79a1.46,1.46,0,0,1-1-.35l-5.94-5a1.5,1.5,0,1,1,1.93-2.3l5.94,5a1.5,1.5,0,0,1-1,2.64Z"/><path d="M307.72,399.42a1.46,1.46,0,0,1-1-.35l-5.94-5a1.5,1.5,0,0,1,1.93-2.3l5.94,5a1.51,1.51,0,0,1,.18,2.12A1.49,1.49,0,0,1,307.72,399.42Z"/><path d="M273.74,363.19a8.31,8.31,0,0,1-7.35-4.43,8.54,8.54,0,0,1,3.29-11.49h0a8.18,8.18,0,0,1,6.31-.71,8.36,8.36,0,0,1,5,4.09,8.55,8.55,0,0,1-3.29,11.49A8.1,8.1,0,0,1,273.74,363.19Zm-2.6-13.3a5.54,5.54,0,0,0-2.11,7.45,5.4,5.4,0,0,0,3.23,2.64,5.2,5.2,0,0,0,4-.46,5.52,5.52,0,0,0,2.11-7.44,5.36,5.36,0,0,0-3.23-2.64,5.15,5.15,0,0,0-4,.45Z"/><path class="cls-2" d="M353.38,368.79a6.16,6.16,0,1,1,6.23,6A6.14,6.14,0,0,1,353.38,368.79Z"/><path d="M667,10.69a1.48,1.48,0,0,1-1.06-.44L661.57,5.9a1.5,1.5,0,0,1,2.12-2.13l4.36,4.36A1.5,1.5,0,0,1,667,10.69Z"/><path d="M682.26,26a1.53,1.53,0,0,1-1.06-.44l-4.36-4.36A1.5,1.5,0,0,1,679,19l4.37,4.36a1.51,1.51,0,0,1,0,2.12A1.53,1.53,0,0,1,682.26,26Z"/><path d="M662.63,26a1.5,1.5,0,0,1-1.06-2.56L665.93,19a1.5,1.5,0,1,1,2.12,2.12l-4.36,4.36A1.49,1.49,0,0,1,662.63,26Z"/><path d="M677.9,10.69a1.47,1.47,0,0,1-1.06-.44,1.49,1.49,0,0,1,0-2.12l4.36-4.36a1.51,1.51,0,1,1,2.13,2.13L679,10.25A1.45,1.45,0,0,1,677.9,10.69Z"/><path d="M674.07,745.08a1.5,1.5,0,0,1-.91-2.69A401.71,401.71,0,0,0,775,628.52a1.5,1.5,0,1,1,2.57,1.54A404.58,404.58,0,0,1,675,744.77,1.49,1.49,0,0,1,674.07,745.08Z"/><path d="M743.83,714.08a1.51,1.51,0,0,1-1.1-2.53,405.79,405.79,0,0,0,44.81-57.7,1.5,1.5,0,1,1,2.52,1.62,408.33,408.33,0,0,1-45.14,58.13A1.47,1.47,0,0,1,743.83,714.08Z"/><path class="cls-4" d="M414.27,761.55c4.89-10.17,5.35-20.41,0-30.76l3.84-4.66,127,3.5-3.62,33.73-123.6,1.19Z"/><path class="cls-3" d="M417.85,766.05a1.53,1.53,0,0,1-1-.35l-3.58-3a1.49,1.49,0,0,1-.39-1.8c4.94-10.28,4.94-19.9,0-29.42a1.51,1.51,0,0,1,.17-1.65l3.84-4.65a1.55,1.55,0,0,1,1.2-.55l127,3.5a1.48,1.48,0,0,1,1.09.51,1.46,1.46,0,0,1,.36,1.15l-3.62,33.73a1.49,1.49,0,0,1-1.48,1.34l-123.59,1.19Zm-1.73-4.91,2.27,1.9,121.71-1.16,3.31-30.8L418.8,727.65,416.05,731C420.75,740.66,420.77,750.8,416.12,761.14Z"/><path class="cls-2" d="M627.8,722.42H410.87a4.17,4.17,0,0,0,0,8.34H522.41a12,12,0,0,1,11.89,12v6.75a12,12,0,0,1-11.89,12H410.87a4.17,4.17,0,0,0,0,8.34H627.8a22,22,0,0,0,21.93-22.15v-3.17A22,22,0,0,0,627.8,722.42Z"/><path class="cls-4" d="M425.16,819.85H623.22V774.77H425.16A66.13,66.13,0,0,1,425.16,819.85Z"/><path class="cls-3" d="M623.22,821.35H425.16a1.49,1.49,0,0,1-1.4-2,64.75,64.75,0,0,0,0-44.06,1.52,1.52,0,0,1,.19-1.37,1.49,1.49,0,0,1,1.22-.63H623.22a1.5,1.5,0,0,1,1.5,1.5v45.08A1.5,1.5,0,0,1,623.22,821.35Zm-195.93-3H621.72V776.27H427.25A67.77,67.77,0,0,1,427.29,818.35Z"/><path class="cls-3" d="M592.75,792.07H442.82a1.5,1.5,0,0,1,0-3H592.75a1.5,1.5,0,0,1,0,3Z"/><path class="cls-3" d="M592.75,804.67H469.57a1.5,1.5,0,0,1,0-3H592.75a1.5,1.5,0,0,1,0,3Z"/><path class="cls-9" d="M600.56,776.92h-178a3.43,3.43,0,0,1-3.41-3.44h0a3.42,3.42,0,0,1,3.41-3.43H647.06a15,15,0,0,1,15,15.1v23.74a15,15,0,0,1-15,15.11H422.51a3.44,3.44,0,0,1,0-6.88h178a10.61,10.61,0,0,0,10.56-10.67V787.59A10.61,10.61,0,0,0,600.56,776.92Z"/><path class="cls-3" d="M519.88,742H428.37a1.5,1.5,0,0,1,0-3h91.51a1.5,1.5,0,0,1,0,3Z"/></g></g></g></svg>