<svg xmlns="http://www.w3.org/2000/svg" xmlns:xlink="http://www.w3.org/1999/xlink" viewBox="0 0 3921.25 2281.68"><defs><style>.cls-1,.cls-22,.cls-27{fill:#fff;}.cls-2{fill:#7cbbcf;}.cls-3{fill:#91c271;}.cls-4{fill:#599c82;}.cls-5{clip-path:url(#clip-path);}.cls-6{fill:#edf6fd;}.cls-7{fill:#bcdfea;}.cls-10,.cls-30,.cls-32,.cls-8{fill:none;stroke-miterlimit:10;}.cls-8{stroke:#fff;}.cls-10,.cls-8{stroke-width:4px;}.cls-9{fill:#1f314e;}.cls-10{stroke:#1f314e;}.cls-11{fill:#172436;}.cls-12{fill:#e29f7b;}.cls-13{fill:#6aa0bc;}.cls-14{clip-path:url(#clip-path-2);}.cls-15{fill:#6faaae;}.cls-16{fill:#cb775e;}.cls-17{fill:#bacdcb;}.cls-18,.cls-33,.cls-35{opacity:0.1;}.cls-19{fill:#3d94c8;}.cls-20{fill:#90c7eb;}.cls-21{fill:#c9513c;}.cls-22{opacity:0.3;}.cls-23{fill:#f8e7cb;}.cls-24{fill:#58666e;}.cls-25{fill:#bc594f;}.cls-26{fill:#2c5891;}.cls-27{opacity:0.2;}.cls-28{fill:#b03e34;}.cls-29{clip-path:url(#clip-path-3);}.cls-30{stroke:#599c82;}.cls-30,.cls-32{stroke-width:5px;}.cls-31{clip-path:url(#clip-path-4);}.cls-32{stroke:#91c271;}.cls-33,.cls-36{fill:#272425;}.cls-34{fill:#dcd9d8;}</style><clipPath id="clip-path" transform="translate(0 80.05)"><rect class="cls-1" width="3791.83" height="2000"/></clipPath><clipPath id="clip-path-2" transform="translate(0 80.05)"><path class="cls-2" d="M2741.79,1697.31c17.27-15.34.93-60.32-2-77.16-5.52-32.12-7.44-67.27,3.47-98.52,15.65-44.84,34.85-80.22,36-130.17,1-42.77-7.62-84.9-16.2-126.56-8.49-41.26-12.34-53.24-52.73-59.53-14.4-2.24-28.62-6.14-43-8.69a426.77,426.77,0,0,0-73.83-6.32h-1.93a425.77,425.77,0,0,0-73.83,6.31c-14.36,2.55-28.58,6.45-43,8.69-40.4,6.29-44.24,18.27-52.73,59.53-8.58,41.66-17.2,83.79-16.2,126.56,1.17,50,20.37,85.33,36,130.17,16.61,47.6,4,96.33-8.67,142.7-1.91,7-2.55,15.14,1.91,20.83,2.77,3.53,7,5.5,11.27,7,14.2,5,29.48,5.88,44.52,6.59,77.91,3.65,155.94,3.57,233.93,3.44,3.87,0,7.85,0,11.43-1.49A18.55,18.55,0,0,0,2741.79,1697.31Z"/></clipPath><clipPath id="clip-path-3" transform="translate(0 80.05)"><path class="cls-3" d="M3345.73,887.66c-12.41-.07-24.45-1.67-32.95-13.84-16.68-23.89-42.14-45.34-70.7-21-16.47,14-4.08,42.83-18.26,56.7-12.53,12.26-28.47,10.23-34.89,30.58-9.43,29.94,20.3,56.17,29.84,82.06,8,21.73-10,30-18.09,46.93-6.24,13-3,27,3.76,39.51,12,22,38.56,39.71,32.41,68.2-5.14,23.78-9.92,45,11.06,63,14.38,12.35,41.06,23.61,39,46.47-.72,8.09-6.32,15-7.85,23-2.43,12.62,5.74,24.9,15.24,33.57,21.61,19.71,40.58,38.3,56.77,63.11,6.91,10.59,34.6,34.53,23.54,49,20.11-26.34,41.37-51.88,59.64-79.57,15-22.77,37.69-56.08,22.27-84.13-4.8-8.72-13.72-15.23-16.17-24.88-4.41-17.43,12.71-33.59,19.08-48.41,10-23.28,2.66-50.32-14.95-67.8-8.33-8.27-17.37-17.36-18.59-29-1.34-12.75,6.66-24.63,10.28-36.39a181.56,181.56,0,0,0,6.65-33.62c.86-8,1.19-16.09-.68-23.86-3.56-14.79-16.87-23-26.73-33.5-23.46-25-11.13-54.35-21.38-83.38C3384.86,884.26,3364.86,887.77,3345.73,887.66Z"/></clipPath><clipPath id="clip-path-4" transform="translate(0 80.05)"><path class="cls-4" d="M3498.11,1069.68c9,1.66,18,2.17,25.81-5.48,15.41-15,36.85-27,54.2-5.48,10,12.44-3,31.64,5.4,43.66,7.39,10.63,19.24,11.36,21.07,27,2.7,23-22.5,37.94-33,55.39-8.82,14.65,3.1,23.15,6.63,36.55,2.72,10.33-1.55,20-8.2,28.14-11.74,14.3-33.47,23.47-32.95,45,.44,18,1,34-16.74,44.16-12.14,7-33.06,11.44-34.75,28.31-.59,6,2.51,11.75,2.52,17.74,0,9.5-7.61,17.28-15.7,22.25-18.4,11.31-34.74,22.17-49.91,37.92-6.49,6.73-29.88,20.25-23.86,32.3-11-21.89-22.83-43.36-32.25-66-7.76-18.6-19.58-45.89-4.51-64.1,4.69-5.67,12.06-9.15,15.17-15.81,5.61-12-4.57-26.12-7.14-37.76-4-18.27,5-36.87,20.23-47.11,7.18-4.84,15-10.19,17.5-18.48,2.74-9.07-1.42-18.79-2.42-27.82a134.6,134.6,0,0,1-.17-25.31c.48-5.89,1.37-11.83,3.8-17.21,4.62-10.24,15.42-14.36,24-20.6,20.48-14.87,15.6-37.89,27-57.52C3470.19,1061.8,3484.21,1067.11,3498.11,1069.68Z"/></clipPath></defs><g id="Layer_2" data-name="Layer 2"><g id="Layer_1-2" data-name="Layer 1"><rect class="cls-1" y="80.05" width="3791.83" height="2000"/><g class="cls-5"><path class="cls-6" d="M3920.61,1203.45q.34-149.34.54-298.68c.28-181.44.55-362.94-6.58-544.24-4.26-108.39-11.68-219-53-319.3-6.11-14.86-13.18-29.76-24.6-41-11.63-11.48-26.93-18.41-42.2-24.23-91.31-34.8-191.2-37.63-288.89-40l-605.86-15c-125.13-3.09-260.39-3.2-361.63,70.41-83,60.37-127.05,159-185.4,243.52-36.08,52.24-102,140.81-166.4,154.87-34.48,7.54-70.25,4.13-105.55,4.16A539.61,539.61,0,0,0,1855,444c-86.26,40.1-166.16,111.44-181.7,205.29-11.13,67.17,11.88,137.7-6.06,203.38-20.52,75.1-89.18,126-156.43,165.22s-140.61,75.62-184,140.3c-26.06,38.9-42,92.08-48.69,138.23-7.88,54.13,7.53,106.25-16.88,158.67-16.6,35.64-46.24,63.4-76.65,88.33-46.19,37.86-96.25,71.86-135.14,117.17s-66,105.48-55.16,164.2c8.52,46.24,40.23,86.46,80.61,110.54,49.12,29.29,114,36.39,168.14,54.87,72.88,24.89,155.94,27.87,232.18,31,307.62,12.54,615.43-19.91,922.93-1.06,143.22,8.78,281.53,18.79,422.48,45.81,155.73,29.84,310.7,63.4,465.64,97,103.55,22.48,208.92,46,314.47,36.61s213.39-57.35,268-148.17c45.95-76.45,48.2-170.47,49-259.66Q3920.22,1497.57,3920.61,1203.45Z" transform="translate(0 80.05)"/><path class="cls-6" d="M1433.47,339.11c-1-6,7-18.19,15.7-18,3.46.08,6.85,1,10.31.81,9.21-.45,14-7.63,17.54-13.57s10.63-12.72,19.61-11.21c12.94,2.17,19.46,19.24,34.16,6.42,9.62-8.38,10.34-20.11,21.24-28.24,7.48-5.58,19.64-8.89,29.67-5.81,13.08,4,18,17,31.89,19.26,15.43,2.5,26.53-9.24,31.46-17.71,6-10.27,8.2-21.38,13.32-31.84,4.74-9.68,14.27-22.65,31.35-22.37,14.44.24,20.8,9.38,27.89,16.64,9.22,9.44,28.38,43.33,49.87,39.25,8.38-1.6,12.56-8.25,20.12-11.23,12.15-4.79,27.64,1.79,35,10.08s10.22,18.28,18.5,26.11a19,19,0,0,0,8.1,4.86c11.56,3.17,22.31-6.56,34.69-7.29,8.54-.49,16.46,3.52,21.37,8.41s7.59,10.68,11.34,16.05a12.16,12.16,0,0,0,4.13,4c5.43,2.91,13.06.45,19.71-.69,16.43-2.83,35.1,4.71,39.73,16.05Z" transform="translate(0 80.05)"/><path class="cls-1" d="M3634.11,424.43c1-5.88-6.81-17.73-15.29-17.54-3.37.08-6.67.95-10,.79-9-.44-13.63-7.43-17.09-13.22s-10.35-12.38-19.1-10.91c-12.6,2.11-19,18.73-33.27,6.25-9.37-8.17-10.07-19.59-20.69-27.51-7.28-5.44-19.13-8.66-28.89-5.65-12.75,3.92-17.49,16.55-31.06,18.75-15,2.44-25.85-9-30.65-17.25-5.82-10-8-20.82-13-31-4.62-9.43-13.9-22.06-30.54-21.78-14.06.23-20.26,9.13-27.16,16.2-9,9.2-27.65,42.21-48.57,38.23-8.16-1.55-12.24-8-19.6-10.94-11.84-4.66-26.93,1.75-34.06,9.82s-10,17.8-18,25.43a18.56,18.56,0,0,1-7.89,4.74c-11.25,3.08-21.73-6.4-33.79-7.1-8.32-.49-16,3.42-20.81,8.19s-7.39,10.4-11,15.62a11.72,11.72,0,0,1-4,3.92c-5.29,2.83-12.72.44-19.2-.67-16-2.75-34.18,4.59-38.7,15.64Z" transform="translate(0 80.05)"/><rect class="cls-1" y="1728.23" width="3791.83" height="273.07" transform="translate(3791.83 3809.58) rotate(180)"/><path class="cls-7" d="M2941,369.54h-72.13a55.92,55.92,0,0,0-55.75,55.76h0a55.78,55.78,0,0,0,24.17,45.86v39.25l40.13-29.36H2941a55.92,55.92,0,0,0,55.76-55.75h0A55.92,55.92,0,0,0,2941,369.54Z" transform="translate(0 80.05)"/><circle class="cls-1" cx="2864.55" cy="505.34" r="8.46"/><circle class="cls-1" cx="2904.95" cy="505.34" r="8.46"/><circle class="cls-1" cx="2945.35" cy="505.34" r="8.46"/><path class="cls-7" d="M2745.15,592.36c-11.12-19-39.19-28.58-66.33,3.13-27.13-31.71-55.2-22.16-66.32-3.13-27.41,46.89,66.32,102.07,66.32,102.07S2772.56,639.25,2745.15,592.36Z" transform="translate(0 80.05)"/><rect class="cls-7" x="2255.49" y="482.88" width="166.24" height="110.92" rx="12"/><path class="cls-8" d="M2258.18,406.39,2331,477a11.18,11.18,0,0,0,15.31,0l72.78-70.58" transform="translate(0 80.05)"/><line class="cls-8" x1="2258.18" y1="590.22" x2="2317.9" y2="544.35"/><line class="cls-8" x1="2419.05" y1="590.22" x2="2359.33" y2="544.35"/><rect class="cls-7" x="1802.54" y="651.23" width="192.04" height="133.39" rx="12"/><polygon class="cls-7" points="1898.56 826.77 1932.23 781.35 1864.88 781.35 1898.56 826.77"/><path class="cls-1" d="M1907.52,617.63c-5.45-9.33-19.21-14-32.52,1.53-13.3-15.55-27.06-10.86-32.51-1.53-13.44,23,32.51,50,32.51,50S1921,640.62,1907.52,617.63Z" transform="translate(0 80.05)"/><path class="cls-1" d="M1949.08,655h-8.31V632.29l.08-3.74.14-4.09c-1.38,1.38-2.34,2.29-2.88,2.72l-4.52,3.63-4-5,12.66-10.08h6.83Z" transform="translate(0 80.05)"/><rect class="cls-7" x="3100.92" y="647.31" width="192.04" height="133.39" rx="12"/><polygon class="cls-7" points="3196.94 822.84 3230.61 777.43 3163.27 777.43 3196.94 822.84"/><path class="cls-1" d="M3247.47,651.11h-8.31V628.36l.08-3.73.13-4.09c-1.38,1.38-2.33,2.29-2.87,2.72l-4.52,3.63-4-5,12.67-10.09h6.83Z" transform="translate(0 80.05)"/><path class="cls-1" d="M3185.88,610.48h-27.25a21.13,21.13,0,0,0-21.07,21.07h0a21.1,21.1,0,0,0,9.13,17.33v14.83l15.17-11.09h24A21.13,21.13,0,0,0,3207,631.55h0A21.13,21.13,0,0,0,3185.88,610.48Z" transform="translate(0 80.05)"/><path class="cls-9" d="M2847.56,1387.37c-39.54,16.13-89.39,11.25-124.32-13.59-35.09-25-67.27-43.32-111.87-44.64-27.69-.82-53.65,10.76-80,17.38-23.2,5.81-40.93,24.45-65.93,27.87-32.87,4.51-66.63-15.7-81.41-45.4s-11.56-66.67,5-95.43c12.07-21,23.17-36.67,9.61-60.07-3-5.1-6.67-9.83-8.7-15.36-1.91-5.22-2.2-10.9-2-16.46,1.23-30.33,24.2-53.07,39.51-78.11,3.57-5.86,7.17-11.93,8.25-18.71,2.75-17.24-10.95-32.14-18.26-48-23.66-51.39,16.72-109.84,56-140.67,23.19-18.19,51-25.54,76-40.36,11.39-6.75,21.77-15.11,33.3-21.63,20.09-11.36,42-11.84,64.3-8.71,63.57,8.91,135.83,55.11,150.56,121.61,10,45.08-6.37,97.48,38.29,129,13.45,9.51,30.44,15.16,39.61,28.84,19.49,29.07-9.15,72.13,8.68,102.25,4,6.72,9.91,12,15.32,17.63A145.23,145.23,0,0,1,2938.73,1298c-1,10-3.08,20.08-8,28.84-6.78,12-18.28,20.53-29.52,28.54-16.82,12-34,23.84-53.07,31.75Z" transform="translate(0 80.05)"/><path class="cls-10" d="M2905.18,1219c-19.74-17-24-46.61-18.26-72,3.74-16.61,11.11-32.77,10.46-49.79-.83-21.31-15.64-41.4-35.75-48.49-10.25-3.62-21.54-4.1-31.35-8.77-14.86-7.08-23-22-28.45-36.85-5.91-16.14-3.45-29.91-3.52-46.81-.1-21.61-.64-43.24-2.84-64.75-2.53-24.79-17.37-49.37-34.39-67.18q-3.66-3.84-7.62-7.38c-44.18-39.43-128.62-56.7-181-24.63-10.43,6.4-16.91,15.23-25.19,23.69S2528,831.62,2517.84,838c-20.55,12.9-42.64,23.06-64.34,33.81-13.87,6.87-27.95,14.28-38.14,25.93-12.28,14-17.71,33.25-17.16,51.89s6.67,36.78,15.21,53.36c6,11.71,13.35,22.92,17.19,35.52,6.26,20.54-5.7,39.86-20.86,53-11.49,10-24.7,19.12-31,33a41.91,41.91,0,0,0,1.23,36.61c5.6,10.39,15.45,18.05,20.68,28.63a38.7,38.7,0,0,1,.4,32.87c-6.07,13.09-19.88,25.25-15.34,38.94" transform="translate(0 80.05)"/><path class="cls-11" d="M2763.81,1189.82c2.48,16.45.6,33.34-6.61,48.35-19.46,40.48-67.63,48.38-108.25,50a241.5,241.5,0,0,1-45-2.39c-13.26-2-25.08,0-38.49-.26a147.5,147.5,0,0,1-75.23-22.64c-10.88-6.92-21.14-15.65-26.73-27.28-7.68-16-5.44-34.87-1.38-52.13,2.35-10,5.29-19.91,10.41-28.77,5.48-9.49,13.33-17.55,17.9-27.51,8.57-18.71,1.53-40.59,9.15-59,6-14.38,21-30.61,33.44-39.59,17-12.23,38.82-16.1,59.68-14.68s41,7.71,60.91,14.21c15.64,5.11,29.09,1.95,40.56,14.87,9.1,10.24,5.92,27,8.83,39.37C2712.73,1124.12,2757.22,1146.15,2763.81,1189.82Z" transform="translate(0 80.05)"/><path class="cls-12" d="M2428.49,1577.77c-45.89-10.71-89.19-31-135.86-38.69-29.5-4.83-83.38-12.42-99.05,20.11-7.87,16.34-4.2,36.69,7,50.62,25.13,31.26,77.54,39.6,114.36,47.46,58.81,12.53,118.43,15,178.37,13.15,16.93-.51,34.62-1.68,49.12-10.42s24.4-27.48,17.69-43c-10.24-23.7-48.13-23.29-69.76-26.87Q2459.24,1585,2428.49,1577.77Z" transform="translate(0 80.05)"/><path class="cls-13" d="M2481.24,1373.54c-34.41,39.89-71.76,77.37-107.92,115.66-7.46,7.9-14.92,15.81-22.07,24-3.57,4.07-7.74,8.2-10.67,12.76a142.82,142.82,0,0,0-12.37,21.6c-43.07-12.85-93.32-3.4-134.63,11.63,4.75-32.34,17.64-52.2,21.28-60.45,18.13-41.06,47.74-75.55,75.71-110.13,33.92-41.94,69.59-82.46,102.17-125.47,26.48-35,71.13-74.29,115.1-42.14,33.84,24.74,18.57,74.77,4.78,106.31C2505.25,1344.16,2493.68,1359.12,2481.24,1373.54Z" transform="translate(0 80.05)"/><path class="cls-12" d="M2755.29,1577.77c45.89-10.71,89.19-31,135.86-38.69,29.5-4.83,83.38-12.42,99,20.11,7.87,16.34,4.2,36.69-7,50.62-25.13,31.26-77.54,39.6-114.36,47.46-58.81,12.53-118.43,15-178.37,13.15-16.93-.51-34.62-1.68-49.12-10.42s-24.4-27.48-17.69-43c10.24-23.7,48.13-23.29,69.76-26.87Q2724.55,1585,2755.29,1577.77Z" transform="translate(0 80.05)"/><path class="cls-13" d="M2702.54,1373.54c34.41,39.89,71.76,77.37,107.92,115.66,7.46,7.9,14.92,15.81,22.07,24,3.57,4.07,7.74,8.2,10.67,12.76a142.82,142.82,0,0,1,12.37,21.6c43.07-12.85,93.32-3.4,134.63,11.63-4.75-32.34-17.64-52.2-21.28-60.45-18.13-41.06-47.74-75.55-75.71-110.13-33.92-41.94-69.59-82.46-102.16-125.47-26.49-35-71.14-74.29-115.11-42.14-33.84,24.74-18.57,74.77-4.78,106.31C2678.53,1344.16,2690.1,1359.12,2702.54,1373.54Z" transform="translate(0 80.05)"/><path class="cls-2" d="M2741.79,1697.31c17.27-15.34.93-60.32-2-77.16-5.52-32.12-7.44-67.27,3.47-98.52,15.65-44.84,34.85-80.22,36-130.17,1-42.77-7.62-84.9-16.2-126.56-8.49-41.26-12.34-53.24-52.73-59.53-14.4-2.24-28.62-6.14-43-8.69a426.77,426.77,0,0,0-73.83-6.32h-1.93a425.77,425.77,0,0,0-73.83,6.31c-14.36,2.55-28.58,6.45-43,8.69-40.4,6.29-44.24,18.27-52.73,59.53-8.58,41.66-17.2,83.79-16.2,126.56,1.17,50,20.37,85.33,36,130.17,16.61,47.6,4,96.33-8.67,142.7-1.91,7-2.55,15.14,1.91,20.83,2.77,3.53,7,5.5,11.27,7,14.2,5,29.48,5.88,44.52,6.59,77.91,3.65,155.94,3.57,233.93,3.44,3.87,0,7.85,0,11.43-1.49A18.55,18.55,0,0,0,2741.79,1697.31Z" transform="translate(0 80.05)"/><g class="cls-14"><path class="cls-2" d="M2720.46,1214c2.49-7.67,11.88-24.78,7.15-31.48s-22.45-5.3-29.35-5.06l-227.84,7.65c4.4,16.28,4.58,31.46,10.83,47.57a152.87,152.87,0,0,0,21.33,38.3c18,23.21,43.3,39.47,72.19,45.14,48.92,9.59,103-14.27,127.74-57.54C2710.48,1244.69,2715.5,1229.3,2720.46,1214Z" transform="translate(0 80.05)"/></g><path class="cls-12" d="M2535.67,1270.82c23.8,27,69.53,29.2,101.54,18.13,21.79-7.53,37.19-24.71,37.64-48.32.52-26.41-22.64-45.17-28.49-69.77-3.32-13.95-3-28.32-2.65-42.52.4-16.57.52-33.18,1.32-49.72-16.4-3.46-29.7-5.2-47.11-4.48-14.41.6-28.8-.91-43.2-.06a5,5,0,0,0-3.23,1,4.66,4.66,0,0,0-1.08,3.11c-1.93,22.37,0,45-1.54,67.43-1.39,20.59-6,41.33-18.07,58.39C2516.1,1224.75,2519.72,1252.69,2535.67,1270.82Z" transform="translate(0 80.05)"/><path class="cls-15" d="M2579.45,838.8c12-6.22,25.48-9.22,39-9.79a150.76,150.76,0,0,1,40.25,4.16,144.22,144.22,0,0,1,70.5,38.63c19.3,19.13,32.78,44.48,36.59,71.62,1.87,13.61,1.19,27.19,1.47,40.57s1.33,26.87,6.85,38.71,15.3,21.39,26,29.11,22.73,14,34.26,21.16c5.67,3.56,11.78,7.28,16,13.24s5.14,13.43,5.23,20.21a74.45,74.45,0,0,1-2.6,20.42c-1.74,6.69-4.87,12.88-7.43,19s-4.29,12.46-3.62,19,2.79,12.83,5.57,18.86c5.71,12.08,12.74,23.65,18.54,35.87s10.25,25.27,11.29,38.81a95.69,95.69,0,0,1-5,39.89,95.1,95.1,0,0,0,4-39.8c-1.34-13.39-6-26.13-12-38.09s-13.07-23.46-19-35.66c-2.92-6.14-5.34-12.68-6.05-19.63s.95-14.09,3.56-20.34,5.49-12.29,7.07-18.69a72.88,72.88,0,0,0,2.39-19.55c-.11-6.54-1.06-13.21-4.71-18.32s-9.34-8.72-15-12.22c-11.41-7-23.45-13.21-34.56-21.16s-21.28-17.8-27.34-30.44c-5.88-12.8-6.81-26.82-7-40.28s.49-27-1.26-40.15c-3.56-26.4-16.69-51-35.25-70.06A142.14,142.14,0,0,0,2658.24,835c-13-3.28-26.36-5.32-39.79-5S2591.58,832.86,2579.45,838.8Z" transform="translate(0 80.05)"/><path class="cls-16" d="M2645.41,1167.54c-2.59-13-2.32-26.25-2-39.38.4-16.57.51-33.18,1.32-49.72-16.4-3.47-29.7-5.2-47.11-4.49-14.41.6-28.8-.91-43.2-.06a5.1,5.1,0,0,0-3.24,1,4.66,4.66,0,0,0-1.07,3.1c-1.93,22.37,0,45-1.55,67.44a162.86,162.86,0,0,1-2.42,19.16c2.27,2,4.57,3.88,6.93,5.63a73.83,73.83,0,0,0,63,11.48A95.07,95.07,0,0,0,2645.41,1167.54Z" transform="translate(0 80.05)"/><path class="cls-12" d="M2706.14,989.79c-.45-21.94-3.77-42.71-9.66-59.91-25.43-74.22-118.71-91.31-174-37-61.61,60.59-35.66,203,30.86,252.15a73.81,73.81,0,0,0,63,11.48C2680.81,1138.27,2707.53,1058.32,2706.14,989.79Z" transform="translate(0 80.05)"/><path class="cls-16" d="M2706,925.39c-20-75.85-111.84-99.6-170.85-49.39-9.41,8-15.94,17.57-22.65,27.79-5.7,8.67-13.63,15.23-18.65,24.75a85.85,85.85,0,0,0-9.45,31.63c-1,10.73,2.46,20.1,2.74,30.41a37.58,37.58,0,0,1,12.43-28.69c6.26-5.56,14.16-8.82,21.44-12.95s14.4-9.66,17.14-17.57c23.48,30.77,59.91,40.2,95.75,49.08,30.07,7.45,63.08,26.41,63.76,61.53.08,4.45.39,5.69,2.31,11.5a51.13,51.13,0,0,0,3.52-14.78c.64-5.72,2.31-11.43,3.43-17.15a255.21,255.21,0,0,0,4.41-35.71C2712.5,963.93,2710.68,943,2706,925.39Z" transform="translate(0 80.05)"/><path class="cls-9" d="M2723.13,1055.61a40.53,40.53,0,0,0,13.07-18.18c8-23.57,7.15-49.65,6.18-74.9-.55-14.08-1.13-28.37-5-41.79-4.2-14.64-12.17-27.64-21.59-38.78C2688.6,849.79,2648,833.45,2609,836.78c-15.67,1.34-27.2,8.86-41,15.23-13.44,6.22-29.23,9.64-43.37,14.3-16.31,5.38-33.1,11-46.05,22.32-9.46,8.26-16.34,19.15-21.27,30.7-5.9,13.85-6.48,29.25-4.79,44,1.39,12.17,3,25.17,8.39,36.53,5.06,10.64,16.32,17.6,26.4,22.9-1.49-.79-.2-18.35-.24-21.06-.23-15.51.62-31.44,5.48-46.29,4.69-14.51,14-23.4,26.07-32.25,4.85-3.55,9.68-7.2,13.73-11.67,2-2.23,10.84-12.53,9.39-15.72,6.86,15.13,17.6,30.65,31,40.56,25.52,18.85,53.93,32.15,82.74,43.37,2.13.83,4.26,1.65,6.39,2.51,7.92,3.17,15.73,6.8,22.24,12.72,14.53,13.22,15.59,33.55,15,51.88a17.28,17.28,0,0,0,.55,6C2702.77,1061.8,2717.3,1060.05,2723.13,1055.61Z" transform="translate(0 80.05)"/><path class="cls-7" d="M3566.2,1726.16H1615.38c-19.88,0-36-15.36-36-34.31h0c0-18.94,16.11-34.3,36-34.3H3566.2c19.88,0,36,15.36,36,34.3h0C3602.19,1710.8,3586.08,1726.16,3566.2,1726.16Z" transform="translate(0 80.05)"/><path class="cls-17" d="M2836.24,1626.63H2351.85L2317.15,1266a10.93,10.93,0,0,1,10.78-12.06h532.24A10.93,10.93,0,0,1,2871,1266Z" transform="translate(0 80.05)"/><path class="cls-1" d="M2840,1636.83h-492l-35.25-360.62a11,11,0,0,1,10.95-12.07h540.6a11,11,0,0,1,10.94,12.07Z" transform="translate(0 80.05)"/><rect class="cls-17" x="2348.05" y="1716.88" width="491.7" height="21.88"/><path class="cls-17" d="M2628.16,1450.49a34.11,34.11,0,1,1-34.11-34.12A34.11,34.11,0,0,1,2628.16,1450.49Z" transform="translate(0 80.05)"/><rect class="cls-2" x="1706.27" y="1142.28" width="13.02" height="497.03" transform="translate(-275.69 514.85) rotate(-13.4)"/><rect class="cls-2" x="1733.42" y="1136.79" width="13.02" height="509.81" transform="translate(-275.14 521.14) rotate(-13.4)"/><rect class="cls-2" x="1806.43" y="821.99" width="13.02" height="348.01" transform="translate(1335.01 -936.5) rotate(47.86)"/><rect class="cls-2" x="1813.95" y="850.52" width="13.01" height="348.01" transform="translate(1358.64 -932.69) rotate(47.86)"/><rect class="cls-13" x="1745.84" y="1716.84" width="261.87" height="20.29"/><path class="cls-2" d="M1967.13,1596.21H1786.42a40.58,40.58,0,0,0-40.58,40.58h261.87A40.58,40.58,0,0,0,1967.13,1596.21Z" transform="translate(0 80.05)"/><rect class="cls-2" x="1980.6" y="840.87" width="13.02" height="89.54" transform="translate(1760.55 -1198.03) rotate(60)"/><path class="cls-13" d="M1715.2,1145.52l-18.38,25.53a9.23,9.23,0,0,1-11.7,2.83l-38.62-19.72a9.24,9.24,0,0,1-3.25-13.69l29.37-40.08a9.24,9.24,0,0,1,14.65-.33l27.63,34.27A9.23,9.23,0,0,1,1715.2,1145.52Z" transform="translate(0 80.05)"/><path class="cls-1" d="M1654.73,1145a4.24,4.24,0,1,1-4.24-4.24A4.23,4.23,0,0,1,1654.73,1145Z" transform="translate(0 80.05)"/><path class="cls-1" d="M1694.18,1165.21A4.23,4.23,0,1,1,1690,1161,4.23,4.23,0,0,1,1694.18,1165.21Z" transform="translate(0 80.05)"/><path class="cls-1" d="M1711.89,1139.8a4.24,4.24,0,1,1-4.23-4.23A4.23,4.23,0,0,1,1711.89,1139.8Z" transform="translate(0 80.05)"/><path class="cls-13" d="M1921.76,879.85l12.39,49.92a8,8,0,0,0,13.32,3.83l37-35.68a8,8,0,0,0-3.33-13.45l-49.43-14.24A8,8,0,0,0,1921.76,879.85Z" transform="translate(0 80.05)"/><path class="cls-1" d="M1946.73,926.57a4.23,4.23,0,1,1-1.23-5.86A4.23,4.23,0,0,1,1946.73,926.57Z" transform="translate(0 80.05)"/><path class="cls-1" d="M1934.87,881.36a4.23,4.23,0,1,1-1.23-5.86A4.24,4.24,0,0,1,1934.87,881.36Z" transform="translate(0 80.05)"/><path class="cls-1" d="M1980.58,895.36a4.23,4.23,0,1,1-1.23-5.87A4.25,4.25,0,0,1,1980.58,895.36Z" transform="translate(0 80.05)"/><path class="cls-1" d="M1684.56,1105a4.24,4.24,0,1,1-4.23-4.23A4.23,4.23,0,0,1,1684.56,1105Z" transform="translate(0 80.05)"/><path class="cls-2" d="M2025.89,765.26h62.4a11.92,11.92,0,0,1,11.92,11.92V894.61a0,0,0,0,1,0,0H2014a0,0,0,0,1,0,0V777.18A11.92,11.92,0,0,1,2025.89,765.26Z" transform="translate(-128.09 528.65) rotate(-12.07)"/><rect class="cls-13" x="2019.15" y="843.47" width="86.59" height="22.98" transform="translate(-133.2 530.32) rotate(-12.07)"/><polygon class="cls-2" points="2211.76 1019.67 1969.57 1071.47 2022.66 955.14 2106.98 937.1 2211.76 1019.67"/><path class="cls-18" d="M2066.08,865.8l40.9-8.74,104.78,82.56s-87.57,19.3-123,26.64" transform="translate(0 80.05)"/><path class="cls-18" d="M2055,761.12h30.53a11.66,11.66,0,0,1,11.66,11.66v89.73a0,0,0,0,1,0,0H2055a0,0,0,0,1,0,0V761.12A0,0,0,0,1,2055,761.12Z" transform="translate(-123.88 532.23) rotate(-12.07)"/><path class="cls-19" d="M1959.35,1575.06h0a2.52,2.52,0,0,1-3-2l-4.27-20.5a2.5,2.5,0,0,1,1.94-3h0a2.51,2.51,0,0,1,3,1.95l4.27,20.5A2.51,2.51,0,0,1,1959.35,1575.06Z" transform="translate(0 80.05)"/><path class="cls-19" d="M1928,1424.59h0a7,7,0,0,1-8.2-5.37l-5.12-24.54a7,7,0,0,1,5.37-8.21h0a7,7,0,0,1,8.2,5.37l5.12,24.55A7,7,0,0,1,1928,1424.59Z" transform="translate(0 80.05)"/><path class="cls-19" d="M1956.88,1563.22h0a7,7,0,0,1-8.2-5.38l-5.12-24.54a7,7,0,0,1,5.37-8.21h0a7,7,0,0,1,8.2,5.38l5.12,24.54A7,7,0,0,1,1956.88,1563.22Z" transform="translate(0 80.05)"/><path class="cls-20" d="M1931.65,1403.94l-15.31,3.19a7.09,7.09,0,0,0-5.49,8.38l13,62.38,16.22,62.07a7.09,7.09,0,0,0,8.3,5.14l9-1.89a7.07,7.07,0,0,0,5.55-8L1953,1471.8l-13-62.38A7.08,7.08,0,0,0,1931.65,1403.94Z" transform="translate(0 80.05)"/><path class="cls-19" d="M1951.28,1476.39l-24,5a4.14,4.14,0,0,1-4.89-3.2h0a4.14,4.14,0,0,1,3.2-4.89l24-5a4.13,4.13,0,0,1,4.89,3.2h0A4.14,4.14,0,0,1,1951.28,1476.39Z" transform="translate(0 80.05)"/><path class="cls-19" d="M1962,1465.71h0a3.26,3.26,0,0,1-3.84-2.51l-12.29-58.92a3.26,3.26,0,0,1,2.52-3.84h0a3.26,3.26,0,0,1,3.84,2.52l12.29,58.91A3.26,3.26,0,0,1,1962,1465.71Z" transform="translate(0 80.05)"/><rect class="cls-20" x="1941.76" y="1408.54" width="6.79" height="17.7" transform="translate(-248.47 507.17) rotate(-11.78)"/><rect class="cls-21" x="1960.9" y="1365.68" width="31.46" height="149.5" transform="translate(76.41 -19.35) rotate(2.94)"/><rect class="cls-22" x="1968.06" y="1365.68" width="17.13" height="149.5" transform="translate(76.41 -19.35) rotate(2.94)"/><polygon class="cls-9" points="1969.98 1645.19 1988.51 1595.93 1956.59 1594.3 1969.98 1645.19"/><polygon class="cls-23" points="1979.64 1619.5 1988.51 1595.93 1956.59 1594.3 1962.99 1618.64 1979.64 1619.5"/><rect class="cls-9" x="1965.13" y="1350.21" width="31.46" height="15.57" transform="translate(72.19 -19.68) rotate(2.94)"/><path class="cls-2" d="M1996.93,1351.65l-31.41-1.61h0a15.56,15.56,0,0,1,16.35-14.75h.31a15.57,15.57,0,0,1,14.75,16.35Z" transform="translate(0 80.05)"/><rect class="cls-21" x="1994.35" y="1404.61" width="31.46" height="149.5" transform="translate(3215.17 3744.98) rotate(-155.22)"/><rect class="cls-22" x="2001.52" y="1404.61" width="17.13" height="149.5" transform="translate(3215.14 3745) rotate(-155.22)"/><polygon class="cls-9" points="2062.65 1446.12 2027.13 1484.95 2056.14 1498.34 2062.65 1446.12"/><polygon class="cls-23" points="2044.12 1466.37 2027.13 1484.95 2056.14 1498.34 2059.26 1473.36 2044.12 1466.37"/><rect class="cls-24" x="1959.76" y="1546.52" width="31.46" height="15.57" transform="translate(3117.77 3873.46) rotate(-155.22)"/><path class="cls-25" d="M1955.5,1560.09H1983a2,2,0,0,1,2,2v13.57a0,0,0,0,1,0,0H1953.5a0,0,0,0,1,0,0v-13.57A2,2,0,0,1,1955.5,1560.09Z" transform="translate(3100.13 3896.73) rotate(-155.22)"/><rect class="cls-26" x="1924.75" y="1504.59" width="95.17" height="152.68" transform="translate(3944.68 3241.91) rotate(180)"/><rect class="cls-18" x="1924.75" y="1504.59" width="47.59" height="152.68" transform="translate(3897.09 3241.91) rotate(180)"/><path class="cls-21" d="M2053.6,1559.81h124.19a0,0,0,0,1,0,0v147.88a30,30,0,0,1-30,30H2083.6a30,30,0,0,1-30-30V1559.81A0,0,0,0,1,2053.6,1559.81Z"/><path class="cls-21" d="M2186.46,1520c-29.78,0-53.92,24.5-53.92,54.71s24.14,54.72,53.92,54.72,53.92-24.5,53.92-54.72S2216.24,1520,2186.46,1520Zm0,89.92c-19.16,0-34.69-15.76-34.69-35.21s15.53-35.2,34.69-35.2,34.69,15.76,34.69,35.2S2205.62,1609.91,2186.46,1609.91Z" transform="translate(0 80.05)"/><path class="cls-27" d="M2072.17,1590.12h0a6.73,6.73,0,0,1-6.71-6.71v-86.57a6.73,6.73,0,0,1,6.71-6.71h0a6.73,6.73,0,0,1,6.71,6.71v86.57A6.73,6.73,0,0,1,2072.17,1590.12Z" transform="translate(0 80.05)"/><path class="cls-28" d="M2149.11,1479.76v146.43a31.45,31.45,0,0,1-31.45,31.45h28.68a31.45,31.45,0,0,0,31.45-31.45V1479.76Z" transform="translate(0 80.05)"/><path class="cls-3" d="M3345.73,887.66c-12.41-.07-24.45-1.67-32.95-13.84-16.68-23.89-42.14-45.34-70.7-21-16.47,14-4.08,42.83-18.26,56.7-12.53,12.26-28.47,10.23-34.89,30.58-9.43,29.94,20.3,56.17,29.84,82.06,8,21.73-10,30-18.09,46.93-6.24,13-3,27,3.76,39.51,12,22,38.56,39.71,32.41,68.2-5.14,23.78-9.92,45,11.06,63,14.38,12.35,41.06,23.61,39,46.47-.72,8.09-6.32,15-7.85,23-2.43,12.62,5.74,24.9,15.24,33.57,21.61,19.71,40.58,38.3,56.77,63.11,6.91,10.59,34.6,34.53,23.54,49,20.11-26.34,41.37-51.88,59.64-79.57,15-22.77,37.69-56.08,22.27-84.13-4.8-8.72-13.72-15.23-16.17-24.88-4.41-17.43,12.71-33.59,19.08-48.41,10-23.28,2.66-50.32-14.95-67.8-8.33-8.27-17.37-17.36-18.59-29-1.34-12.75,6.66-24.63,10.28-36.39a181.56,181.56,0,0,0,6.65-33.62c.86-8,1.19-16.09-.68-23.86-3.56-14.79-16.87-23-26.73-33.5-23.46-25-11.13-54.35-21.38-83.38C3384.86,884.26,3364.86,887.77,3345.73,887.66Z" transform="translate(0 80.05)"/><g class="cls-29"><path class="cls-30" d="M3377.13,1484.58c8.72-99.87.71-200.52-17.74-298.87-17.59-93.82-40.69-188-75.71-276.9a849.61,849.61,0,0,0-39.33-86.15" transform="translate(0 80.05)"/><path class="cls-30" d="M3165.51,956.57a602.9,602.9,0,0,1,139.09,70.51c10.92,7.46,17,9.74,26.1,19.33" transform="translate(0 80.05)"/><path class="cls-30" d="M3354,1153.4a411.78,411.78,0,0,0-156.1-60.26" transform="translate(0 80.05)"/><path class="cls-30" d="M3372.67,1282.23a351.88,351.88,0,0,0-154.17-77.39" transform="translate(0 80.05)"/><path class="cls-30" d="M3328.26,1043.12A437.45,437.45,0,0,1,3366.86,890" transform="translate(0 80.05)"/><path class="cls-30" d="M3353.41,1149.05a386.63,386.63,0,0,1,94-125.66" transform="translate(0 80.05)"/><path class="cls-30" d="M3375.59,1285.89a145.08,145.08,0,0,1,16-42.09c8.69-15.21,20.07-28.71,31.64-41.86q12.51-14.22,25.44-28" transform="translate(0 80.05)"/></g><path class="cls-4" d="M3498.11,1069.68c9,1.66,18,2.17,25.81-5.48,15.41-15,36.85-27,54.2-5.48,10,12.44-3,31.64,5.4,43.66,7.39,10.63,19.24,11.36,21.07,27,2.7,23-22.5,37.94-33,55.39-8.82,14.65,3.1,23.15,6.63,36.55,2.72,10.33-1.55,20-8.2,28.14-11.74,14.3-33.47,23.47-32.95,45,.44,18,1,34-16.74,44.16-12.14,7-33.06,11.44-34.75,28.31-.59,6,2.51,11.75,2.52,17.74,0,9.5-7.61,17.28-15.7,22.25-18.4,11.31-34.74,22.17-49.91,37.92-6.49,6.73-29.88,20.25-23.86,32.3-11-21.89-22.83-43.36-32.25-66-7.76-18.6-19.58-45.89-4.51-64.1,4.69-5.67,12.06-9.15,15.17-15.81,5.61-12-4.57-26.12-7.14-37.76-4-18.27,5-36.87,20.23-47.11,7.18-4.84,15-10.19,17.5-18.48,2.74-9.07-1.42-18.79-2.42-27.82a134.6,134.6,0,0,1-.17-25.31c.48-5.89,1.37-11.83,3.8-17.21,4.62-10.24,15.42-14.36,24-20.6,20.48-14.87,15.6-37.89,27-57.52C3470.19,1061.8,3484.21,1067.11,3498.11,1069.68Z" transform="translate(0 80.05)"/><g class="cls-31"><path class="cls-32" d="M3392.71,1498.32c7.5-73.65,27.24-145.55,54.23-214.34,25.75-65.62,55.54-130.71,93.25-190.38a630.08,630.08,0,0,1,40.45-57" transform="translate(0 80.05)"/><path class="cls-32" d="M3619.29,1144.6a445.6,445.6,0,0,0-110.64,31.9c-9,3.9-13.68,4.71-21.62,10.41" transform="translate(0 80.05)"/><path class="cls-32" d="M3455.32,1261.29a304.1,304.1,0,0,1,121.57-22.1" transform="translate(0 80.05)"/><path class="cls-32" d="M3424,1352.15a259.94,259.94,0,0,1,122.54-34.79" transform="translate(0 80.05)"/><path class="cls-32" d="M3489.26,1184.86a323.33,323.33,0,0,0-6.79-116.45" transform="translate(0 80.05)"/><path class="cls-32" d="M3456.36,1258.22a285.45,285.45,0,0,0-50.82-104.16" transform="translate(0 80.05)"/><path class="cls-32" d="M3421.32,1354.41a106.73,106.73,0,0,0-5.75-32.74c-4.2-12.24-10.58-23.6-17.15-34.75q-7.11-12-14.57-23.86" transform="translate(0 80.05)"/></g><polygon class="cls-28" points="3305.11 1552.86 3489.22 1552.86 3456.92 1737.11 3337.41 1737.11 3305.11 1552.86"/><rect class="cls-21" x="3282.56" y="1421.09" width="229.19" height="51.72" transform="translate(6794.32 2973.95) rotate(180)"/><polygon class="cls-33" points="3484.93 1577.29 3309.39 1577.29 3305.11 1552.86 3489.22 1552.86 3484.93 1577.29"/><path class="cls-2" d="M3331.14,1656.91h-287c-23.86,0-43.21-15.06-43.21-33.64v-8.62c0-18.58,19.35-33.64,43.21-33.64h287v10.35h-267c-9.18,0-16.62,5.79-16.62,12.94v29.32c0,7.14,7.44,12.94,16.62,12.94h267Z" transform="translate(0 80.05)"/><path class="cls-13" d="M3364.38,1656.91h-287c-23.86,0-43.21-15.06-43.21-33.64v-8.62c0-18.58,19.35-33.64,43.21-33.64h287v10.35h-287c-16.52,0-29.91,10.43-29.91,23.29v8.62c0,12.86,13.39,23.29,29.91,23.29h287Z" transform="translate(0 80.05)"/><path class="cls-1" d="M3356.63,1646.56H3074.27a27.6,27.6,0,0,1-27.59-27.6h0a27.6,27.6,0,0,1,27.59-27.6h282.36Z" transform="translate(0 80.05)"/><path class="cls-34" d="M3062.19,1615.15q32.19-.92,64.4-1.22c21.46-.25,42.93-.32,64.4-.35s42.93.1,64.4.35,42.93.61,64.4,1.22q-32.2.91-64.4,1.22c-21.47.25-42.94.32-64.4.35s-42.94-.1-64.4-.35S3083.65,1615.76,3062.19,1615.15Z" transform="translate(0 80.05)"/><path class="cls-34" d="M3096.81,1632.25q32.21-.91,64.4-1.22c21.47-.25,42.94-.32,64.4-.35s42.94.09,64.4.34,42.94.62,64.4,1.23q-32.19.91-64.4,1.22c-21.46.25-42.93.32-64.4.35s-42.93-.1-64.4-.35S3118.28,1632.85,3096.81,1632.25Z" transform="translate(0 80.05)"/><g class="cls-35"><path class="cls-36" d="M3049.32,1606.7c7.21-13,17.49-15.34,24.95-15.34h282.91v17.35" transform="translate(0 80.05)"/></g><path class="cls-26" d="M3350.12,1581H3049.86A30,30,0,0,1,3020,1551.1v-37.68a30,30,0,0,1,29.91-29.91h300.26v13.29H3049.86a16.64,16.64,0,0,0-16.62,16.62v37.68a16.64,16.64,0,0,0,16.62,16.62h300.26Z" transform="translate(0 80.05)"/><path class="cls-1" d="M3342.36,1567.72H3049a16.63,16.63,0,0,1-16.62-16.62v-37.67a16.62,16.62,0,0,1,16.62-16.62h293.33Z" transform="translate(0 80.05)"/><g class="cls-35"><path class="cls-36" d="M3032.41,1513.43a16.62,16.62,0,0,1,16.62-16.62h293.33v17.35" transform="translate(0 80.05)"/></g><path class="cls-34" d="M3073.41,1527.65q32.19-1.05,64.4-1.41c21.46-.29,42.93-.37,64.4-.4s42.93.11,64.4.39,42.93.71,64.4,1.42q-32.21,1-64.4,1.41c-21.47.29-42.94.37-64.4.4s-42.94-.11-64.4-.4S3094.87,1528.35,3073.41,1527.65Z" transform="translate(0 80.05)"/><path class="cls-34" d="M3050.14,1542.91q32.19-1,64.4-1.41c21.47-.29,42.93-.37,64.4-.4s42.93.11,64.4.4,42.93.71,64.4,1.41q-32.2,1.06-64.4,1.42c-21.47.28-42.93.36-64.4.39s-42.93-.11-64.4-.4S3071.6,1543.61,3050.14,1542.91Z" transform="translate(0 80.05)"/><path class="cls-13" d="M3067.45,1433.79h287c23.87,0,43.21-15.06,43.21-33.64v-8.62c0-18.58-19.34-33.64-43.21-33.64h-287v10.35h267c9.18,0,16.62,5.79,16.62,12.94v29.32c0,7.15-7.44,12.94-16.62,12.94h-267Z" transform="translate(0 80.05)"/><path class="cls-26" d="M3034.21,1433.79h287c23.87,0,43.21-15.06,43.21-33.64v-8.62c0-18.58-19.34-33.64-43.21-33.64h-287v10.35h287c16.52,0,29.92,10.43,29.92,23.29v8.62c0,12.86-13.4,23.29-29.92,23.29h-287Z" transform="translate(0 80.05)"/><path class="cls-1" d="M3042,1423.44h282.35a27.6,27.6,0,0,0,27.6-27.6h0a27.6,27.6,0,0,0-27.6-27.6H3042Z" transform="translate(0 80.05)"/><path class="cls-34" d="M3336.41,1392q-32.2-.91-64.4-1.22c-21.47-.25-42.94-.32-64.4-.35s-42.94.1-64.4.35-42.94.61-64.4,1.22q32.19.92,64.4,1.23c21.46.24,42.93.31,64.4.34s42.93-.1,64.4-.35S3314.94,1392.64,3336.41,1392Z" transform="translate(0 80.05)"/><path class="cls-34" d="M3301.78,1409.13q-32.19-.92-64.4-1.22c-21.46-.25-42.93-.32-64.4-.35s-42.93.09-64.4.34-42.93.62-64.4,1.23q32.21.91,64.4,1.22c21.47.25,42.94.32,64.4.35s42.94-.1,64.4-.35S3280.32,1409.74,3301.78,1409.13Z" transform="translate(0 80.05)"/><g class="cls-35"><path class="cls-36" d="M3349.28,1383.58c-7.21-13-17.49-15.34-25-15.34H3041.41v17.35" transform="translate(0 80.05)"/></g><rect class="cls-3" x="3009.84" y="1513.83" width="363.41" height="51.24"/><rect class="cls-4" x="3042.66" y="1521.73" width="13.71" height="35.45"/><rect class="cls-4" x="3110.8" y="1521.73" width="13.71" height="35.45"/><rect class="cls-4" x="3064.68" y="1513.83" width="38.64" height="51.24"/><rect class="cls-20" x="2976.6" y="1307.93" width="363.41" height="51.24"/><rect class="cls-19" x="3293.47" y="1307.93" width="13.71" height="51.24"/><rect class="cls-19" x="3264.13" y="1307.93" width="21.03" height="51.24"/><rect class="cls-21" x="3012.79" y="1359.18" width="363.41" height="79.46"/><rect class="cls-28" x="3045.62" y="1371.42" width="13.71" height="52.83"/><rect class="cls-28" x="3338.67" y="1371.42" width="13.71" height="52.83"/><rect class="cls-28" x="3314.02" y="1371.42" width="13.71" height="52.83"/><circle class="cls-28" cx="3098.56" cy="1317.78" r="26.41" transform="translate(-230.03 1905.86) rotate(-31.72)"/><rect class="cls-19" x="3260.32" y="1472.08" width="18.7" height="55.16"/></g></g></g></svg>