<?xml version="1.0" encoding="UTF-8"?><svg id="Layer_2" xmlns="http://www.w3.org/2000/svg" viewBox="0 0 2367.37 670.35"><defs><style>.cls-1{fill:#fff;}.cls-2{fill:#231f20;}</style></defs><g id="Layer_3"><path class="cls-1" d="m640.45,670.35c-14.88,0-26.17-7.76-29.66-20.51-10.03-36.66,35.02-172.67,49.07-213.49,8.34-24.24,17.86-50.32,27.72-75.37-6.25-37.68-12.91-71.52-17.66-94.43-10.91,20.8-25.65,35.73-44.02,44.54-7.96,3.82-16.03,6.22-23.92,7.57-2.19,15.03-6.58,28.7-13.06,40.44-11.49,20.83-29,34.74-50.63,40.22-22.36,5.66-43.76,2.99-60.27-7.54-16.25-10.36-27.04-27.46-31.22-49.46-4.66-24.55,1.49-49.81,8.07-67.75-20.79,7.81-42.78,10.34-65.3,7.52-7.04,14.09-15.15,26.49-23.22,37.06-51.12,67.02-130.2,102.25-178.57,101.33-48.72-.9-93.53-16.04-126.15-42.63-18.92-15.42-33.75-34.55-44.07-56.86C6.31,296.69.41,268.56.02,237.36c-.77-61.88,22.65-120.11,65.97-163.97C105.66,33.22,157.54,10.18,208.3,10.18v19c-45.72,0-92.66,20.98-128.8,57.57-39.72,40.22-61.2,93.62-60.49,150.38,1.49,118.9,88.33,162.86,169.11,164.36,44.39.83,117.5-34.06,163.11-93.86,6.48-8.49,13-18.28,18.84-29.28-5.04-1.3-10.1-2.87-15.18-4.7-63.3-22.84-116.88-82.64-132.12-127.25-26.96-78.96,16.29-109.95,36.14-119.61,18.13-8.83,41.75-8.45,63.17,1.01,25.03,11.05,59.23,39.06,80.02,109.72,14.49,49.26,8.81,91.89-4.51,126.39,25.28,2.08,49.33-3.78,71.83-17.55,3.71-2.27,8.49-1.73,11.6,1.31,3.11,3.04,3.76,7.81,1.57,11.57-.24.41-24.19,42.39-17.14,79.54,3.18,16.73,11.05,29.52,22.76,36.99,12.22,7.79,27.92,9.57,45.39,5.14,25.75-6.52,43.16-28.85,48.91-60.82-20.3-.38-37.64-6.24-46.52-9.88-19.36-7.94-34.1-24.13-39.43-43.33-4.25-15.32-1.8-30.66,6.72-42.09,10.17-13.64,28.46-18.47,47.75-12.62,13.37,4.06,25.81,12.9,35.01,24.88,10.36,13.5,16.34,30.54,17.31,49.28.22,4.26.29,8.46.21,12.59,4.73-1.12,9.46-2.73,14.12-4.96,21.15-10.14,36.58-31.18,45.86-62.54,1.22-4.14,5.07-6.92,9.41-6.8,4.32.13,8,3.16,8.96,7.37.92,4,9.87,43.35,19.28,95.58,18.25-43.04,36.32-78.32,49.04-88.39,9.17-7.26,20.37-8.59,31.53-3.73,12.33,5.35,24.6,18.23,34.56,36.27,9.35,16.93,15.53,36.59,16.95,53.92,1.98,24.2-5.24,42.89-20.34,52.63-2.27,1.46-4.55,2.67-6.82,3.65,5.38,1.01,11.27,1.54,17.7,1.34,6.52-.2,21.72-5.9,50.31-41.89,19.76-24.88,39.22-55.66,53.43-78.14,11.59-18.34,17.84-28.12,22.03-32.53,18.7-19.68,51.33-10.01,52.71-9.59,4.28,1.31,7.06,5.42,6.69,9.88-.37,4.46-3.8,8.05-8.24,8.63-6.15.8-26.44,4.7-29.45,21.24-1.11,6.13,4.03,22.89,8.17,36.36,5.73,18.68,11.66,37.99,10.75,52.54-.25,4.07-.83,8.26-1.85,12.41,235.94,27.59,388.68-.4,536.74-27.52,119.94-21.97,233.22-42.72,384.74-34.91l-.98,18.97c-149.29-7.7-261.52,12.86-380.34,34.62-105.85,19.39-214.12,39.22-353.04,39.22-58.99,0-123.47-3.57-195.69-12.27-8.33,10.58-22.71,18.11-47.02,17.51-16.25-.39-28-1.9-35.93-4.62-12.9-4.43-14.83-12.31-14.83-16.62,0-2.94,1.07-7.38,6.14-11.77,7.83-6.78,24.7-12.81,48.54-9.37,11.1,1.6,22,3.08,32.75,4.44,1.06-3.55,1.56-7.38,1.8-11.29.69-11.09-4.96-29.52-9.95-45.78-5.32-17.33-9.96-32.45-9-43.07-2.71,4.21-5.67,8.89-8.69,13.67-40.85,64.62-83.7,127.8-119.24,128.87-49.12,1.45-74.04-31.16-75.08-32.54-2.88-3.85-2.42-9.24,1.06-12.56,3.48-3.32,8.88-3.51,12.59-.46.85.69,21.65,17.24,39.68,5.61,11.44-7.38,12.68-23.17,11.7-35.12-2.48-30.31-21.98-66.42-40.13-74.31-6.1-2.65-9.71-.75-12.17,1.2-10.67,8.44-31.75,51.06-54.75,108.83,12.42,76.06,22.76,166.56,12.79,217.38-5.37,27.39-16.59,50.53-32.44,66.92-13.66,14.13-30.27,22.55-45.57,23.12-.54.02-1.07.03-1.6.03Zm53.02-271.56c-5.24,14.09-10.48,28.73-15.65,43.74-34.13,99.17-54.16,182.36-48.71,202.29,1.64,6,8.37,6.66,12.24,6.51,10.28-.38,22.47-6.86,32.61-17.34,9.27-9.58,21.55-27.32,27.45-57.37,8.04-40.99,1.71-111.55-7.94-177.84Zm212.79-22.67c4.79,1.14,13.03,2.34,26.96,2.67,7.78.19,13.97-.57,18.9-2.05-5.98-.81-12.04-1.65-18.13-2.53-12.62-1.82-22.04-.15-27.73,1.91Zm-370.98-147.38c-7.12,0-13.14,2.56-16.75,7.4-4.98,6.69-6.31,16.04-3.64,25.66,3.77,13.58,14.36,25.11,28.33,30.83,6.24,2.56,22.46,8.34,41.3,8.39.15-4.44.11-9.02-.13-13.72-1.74-33.86-22.02-51.84-38.86-56.95-3.56-1.08-7.01-1.61-10.24-1.61ZM288.04,39.39c-7.52,0-14.64,1.49-20.8,4.49-19.02,9.26-47.75,34.09-26.47,96.39,13.49,39.5,63.42,94.89,120.59,115.52,5.71,2.06,11.36,3.75,16.96,5.06,13.08-31.9,19.16-71.75,5.56-117.96-14.61-49.68-39.28-84.37-69.46-97.7-8.72-3.85-17.8-5.79-26.38-5.79Z"/><path class="cls-1" d="m1971.07,374.04l24.57-.12-.14-29.92,49.42-.24c4.01-.02,7.27-3.31,7.25-7.32-.02-4.01-3.31-7.27-7.32-7.25l-49.42.24-.2-40.55,49.42-.24c4.01-.02,7.27-3.31,7.25-7.32-.02-4.01-3.31-7.27-7.32-7.25l-49.42.24-.14-29.92-24.57.12c-35.77.17-64.62,29.31-64.45,65.08.17,35.77,29.31,64.62,65.08,64.45Z"/><path class="cls-1" d="m2139.21,131.7c-5.25,0-9.5-4.25-9.5-9.5V9.5c0-5.25,4.25-9.5,9.5-9.5s9.5,4.25,9.5,9.5v112.7c0,5.25-4.25,9.5-9.5,9.5Z"/><path class="cls-1" d="m2226.31,159.33c-1.62,0-3.25-.41-4.75-1.28-4.54-2.63-6.09-8.44-3.46-12.98l56.48-97.52c2.63-4.54,8.44-6.09,12.98-3.46,4.54,2.63,6.09,8.44,3.46,12.98l-56.48,97.52c-1.76,3.04-4.95,4.74-8.23,4.74Z"/><path class="cls-1" d="m2052.11,159.33c-3.28,0-6.47-1.7-8.23-4.74l-56.47-97.52c-2.63-4.54-1.08-10.35,3.46-12.98,4.54-2.63,10.35-1.08,12.98,3.46l56.47,97.52c2.63,4.54,1.08,10.35-3.46,12.98-1.5.87-3.14,1.28-4.75,1.28Z"/><circle class="cls-1" cx="2302.54" cy="309.22" r="64.82" transform="translate(1628.49 2532.5) rotate(-80.78)"/><circle class="cls-2" cx="2274.96" cy="308.91" r="8.8" transform="translate(1451.64 2452.04) rotate(-76.72)"/><circle class="cls-2" cx="2330.13" cy="308.91" r="8.8" transform="translate(464.05 1738.13) rotate(-45)"/></g></svg>