<svg width="1024" height="1024" viewBox="0 0 1024 1024" fill="none" xmlns="http://www.w3.org/2000/svg">
<path d="M871.8 182.938C873.398 182.938 874.704 184.186 874.795 185.761L874.8 185.938V493.4C874.8 495.057 873.457 496.4 871.8 496.4C870.202 496.4 868.896 495.151 868.805 493.576L868.8 493.4V185.938C868.8 184.281 870.143 182.938 871.8 182.938Z" fill="white"/>
<path d="M928.836 219.512H219.6C203.694 219.512 190.8 232.406 190.8 248.312V575C190.8 590.906 203.694 603.8 219.6 603.8H928.836C944.742 603.8 957.636 590.906 957.636 575V248.312C957.636 232.406 944.742 219.512 928.836 219.512Z" fill="#4E5C93"/>
<path d="M832.8 315.512H507.6C502.298 315.512 498 319.81 498 325.112V344.312C498 349.614 502.298 353.912 507.6 353.912H832.8C838.102 353.912 842.4 349.614 842.4 344.312V325.112C842.4 319.81 838.102 315.512 832.8 315.512Z" fill="#A3B5D6"/>
<path d="M681.6 469.112H507.6C502.298 469.112 498 473.41 498 478.712V497.912C498 503.214 502.298 507.512 507.6 507.512H681.6C686.902 507.512 691.2 503.214 691.2 497.912V478.712C691.2 473.41 686.902 469.112 681.6 469.112Z" fill="#4E5C93"/>
<path d="M832.8 392.312H507.6C502.298 392.312 498 396.611 498 401.912V421.112C498 426.414 502.298 430.712 507.6 430.712H832.8C838.102 430.712 842.4 426.414 842.4 421.112V401.912C842.4 396.611 838.102 392.312 832.8 392.312Z" fill="#A3B5D6"/>
<path d="M373.2 315.512H258C247.396 315.512 238.8 324.108 238.8 334.712V449.912C238.8 460.516 247.396 469.112 258 469.112H373.2C383.804 469.112 392.4 460.516 392.4 449.912V334.712C392.4 324.108 383.804 315.512 373.2 315.512Z" fill="#A3B5D6"/>
<path d="M441 315.512V565.52" stroke="#A3B5D6" stroke-width="6" stroke-linecap="round" stroke-linejoin="round"/>
<path d="M804.036 453.8H94.8C78.8942 453.8 66 466.694 66 482.6V809.288C66 825.194 78.8942 838.088 94.8 838.088H804.036C819.942 838.088 832.836 825.194 832.836 809.288V482.6C832.836 466.694 819.942 453.8 804.036 453.8Z" fill="#E4EBF7"/>
<path d="M708 549.8H382.8C377.498 549.8 373.2 554.098 373.2 559.4V578.6C373.2 583.902 377.498 588.2 382.8 588.2H708C713.302 588.2 717.6 583.902 717.6 578.6V559.4C717.6 554.098 713.302 549.8 708 549.8Z" fill="#A3B5D6"/>
<path d="M556.8 703.4H382.8C377.498 703.4 373.2 707.698 373.2 713V732.2C373.2 737.502 377.498 741.8 382.8 741.8H556.8C562.102 741.8 566.4 737.502 566.4 732.2V713C566.4 707.698 562.102 703.4 556.8 703.4Z" fill="#A3B5D6"/>
<path d="M708 626.6H382.8C377.498 626.6 373.2 630.898 373.2 636.2V655.4C373.2 660.702 377.498 665 382.8 665H708C713.302 665 717.6 660.702 717.6 655.4V636.2C717.6 630.898 713.302 626.6 708 626.6Z" fill="#A3B5D6"/>
<path d="M248.4 549.8H133.2C122.596 549.8 114 558.396 114 569V684.2C114 694.804 122.596 703.4 133.2 703.4H248.4C259.004 703.4 267.6 694.804 267.6 684.2V569C267.6 558.396 259.004 549.8 248.4 549.8Z" fill="#A3B5D6"/>
<path d="M316.2 543.8C317.798 543.8 319.104 545.049 319.195 546.624L319.2 546.8V796.808C319.2 798.465 317.857 799.808 316.2 799.808C314.602 799.808 313.296 798.559 313.205 796.984L313.2 796.808V546.8C313.2 545.143 314.543 543.8 316.2 543.8Z" fill="#A3B5D6"/>
</svg>
