<svg width="1024" height="1024" viewBox="0 0 1024 1024" fill="none" xmlns="http://www.w3.org/2000/svg">
<path fill-rule="evenodd" clip-rule="evenodd" d="M968.999 212.013H56.9993V138.911C56.9993 123.053 69.905 110.196 85.8229 110.196H940.176C956.095 110.196 968.999 123.053 968.999 138.911V212.013Z" fill="#253368"/>
<path fill-rule="evenodd" clip-rule="evenodd" d="M936.901 914.458H89.0989C71.3723 914.458 57 901.62 57 885.783V203.006H969V885.783C969 901.62 954.629 914.458 936.901 914.458Z" fill="#E4EBF7"/>
<path fill-rule="evenodd" clip-rule="evenodd" d="M123.139 157.579C123.139 167.531 115.09 175.6 105.161 175.6C95.233 175.6 87.1851 167.531 87.1851 157.579C87.1851 147.627 95.233 139.559 105.161 139.559C115.09 139.559 123.139 147.627 123.139 157.579Z" fill="#A3B5D6"/>
<path fill-rule="evenodd" clip-rule="evenodd" d="M190.273 157.579C190.273 167.531 182.225 175.6 172.296 175.6C162.368 175.6 154.321 167.531 154.321 157.579C154.321 147.627 162.368 139.559 172.296 139.559C182.225 139.559 190.273 147.627 190.273 157.579Z" fill="#E4EBF7"/>
<path fill-rule="evenodd" clip-rule="evenodd" d="M257.409 157.579C257.409 167.531 249.361 175.6 239.432 175.6C229.504 175.6 221.456 167.531 221.456 157.579C221.456 147.627 229.504 139.559 239.432 139.559C249.361 139.559 257.409 147.627 257.409 157.579Z" fill="#E4EBF7"/>
<path d="M888.028 266.683H137.972C128.557 266.683 120.925 274.315 120.925 283.729V351.916C120.925 361.331 128.557 368.963 137.972 368.963H888.028C897.443 368.963 905.075 361.331 905.075 351.916V283.729C905.075 274.315 897.443 266.683 888.028 266.683Z" fill="white"/>
<path d="M721.823 266.683H892.29C901.704 266.683 909.336 274.315 909.336 283.729V351.916C909.336 361.331 901.704 368.963 892.29 368.963H721.823V266.683Z" fill="#A3B5D6"/>
<path d="M291.393 420.103H137.972C128.557 420.103 120.925 427.735 120.925 437.149V743.99C120.925 753.405 128.557 761.037 137.972 761.037H291.393C300.807 761.037 308.439 753.405 308.439 743.99V437.149C308.439 427.735 300.807 420.103 291.393 420.103Z" fill="#4E5C93"/>
<path d="M888.028 420.103H368.103C358.688 420.103 351.056 427.735 351.056 437.149V743.99C351.056 753.405 358.688 761.037 368.103 761.037H888.028C897.443 761.037 905.075 753.405 905.075 743.99V437.149C905.075 427.735 897.443 420.103 888.028 420.103Z" fill="white"/>
<path d="M817.682 488.29H412.879C406.979 488.29 402.196 493.073 402.196 498.973C402.196 504.872 406.979 509.655 412.879 509.655H817.682C823.582 509.655 828.365 504.872 828.365 498.973C828.365 493.073 823.582 488.29 817.682 488.29Z" fill="#CCD7EE"/>
<path d="M817.682 616.141H412.879C406.979 616.141 402.196 620.923 402.196 626.823C402.196 632.723 406.979 637.506 412.879 637.506H817.682C823.582 637.506 828.365 632.723 828.365 626.823C828.365 620.923 823.582 616.141 817.682 616.141Z" fill="#CCD7EE"/>
<path d="M689.832 552.215H412.879C406.979 552.215 402.196 556.998 402.196 562.897C402.196 568.797 406.979 573.58 412.879 573.58H689.832C695.731 573.58 700.514 568.797 700.514 562.897C700.514 556.998 695.731 552.215 689.832 552.215Z" fill="#CCD7EE"/>
<path d="M689.832 680.065H412.879C406.979 680.065 402.196 684.848 402.196 690.748C402.196 696.648 406.979 701.43 412.879 701.43H689.832C695.731 701.43 700.514 696.648 700.514 690.748C700.514 684.848 695.731 680.065 689.832 680.065Z" fill="#CCD7EE"/>
<path d="M193.374 799.393H129.449C124.741 799.393 120.925 803.209 120.925 807.916V844.282C120.925 848.989 124.741 852.805 129.449 852.805H193.374C198.081 852.805 201.897 848.989 201.897 844.282V807.916C201.897 803.209 198.081 799.393 193.374 799.393Z" fill="#CCD7EE"/>
<path d="M885.897 799.393H858.196C851.135 799.393 845.411 805.117 845.411 812.178V840.02C845.411 847.081 851.135 852.805 858.196 852.805H885.897C892.958 852.805 898.682 847.081 898.682 840.02V812.178C898.682 805.117 892.958 799.393 885.897 799.393Z" fill="#A3B5D6"/>
<path d="M813.449 799.393H785.748C778.687 799.393 772.963 805.117 772.963 812.178V840.02C772.963 847.081 778.687 852.805 785.748 852.805H813.449C820.51 852.805 826.234 847.081 826.234 840.02V812.178C826.234 805.117 820.51 799.393 813.449 799.393Z" fill="#CCD7EE"/>
<path d="M736.738 799.393H709.037C701.976 799.393 696.252 805.117 696.252 812.178V840.02C696.252 847.081 701.976 852.805 709.037 852.805H736.738C743.799 852.805 749.523 847.081 749.523 840.02V812.178C749.523 805.117 743.799 799.393 736.738 799.393Z" fill="#CCD7EE"/>
<path d="M266.468 488.29H161.526C157.932 488.29 155.019 491.203 155.019 494.797V510.89C155.019 514.484 157.932 517.397 161.526 517.397H266.468C270.062 517.397 272.975 514.484 272.975 510.89V494.797C272.975 491.203 270.062 488.29 266.468 488.29Z" fill="white"/>
<path d="M266.567 543.691H161.427C157.888 543.691 155.019 546.56 155.019 550.1V565.509C155.019 569.048 157.888 571.917 161.427 571.917H266.567C270.106 571.917 272.975 569.048 272.975 565.509V550.1C272.975 546.56 270.106 543.691 266.567 543.691Z" fill="white"/>
<path d="M266.567 599.094H161.427C157.888 599.094 155.019 601.963 155.019 605.502V620.911C155.019 624.451 157.888 627.32 161.427 627.32H266.567C270.106 627.32 272.975 624.451 272.975 620.911V605.502C272.975 601.963 270.106 599.094 266.567 599.094Z" fill="white"/>
<path d="M266.567 654.495H161.427C157.888 654.495 155.019 657.364 155.019 660.903V676.313C155.019 679.852 157.888 682.721 161.427 682.721H266.567C270.106 682.721 272.975 679.852 272.975 676.313V660.903C272.975 657.364 270.106 654.495 266.567 654.495Z" fill="white"/>
</svg>
