<svg xmlns="http://www.w3.org/2000/svg" xmlns:xlink="http://www.w3.org/1999/xlink" viewBox="0 0 830 857.1"><defs><style>.cls-1{fill:none;}.cls-2{fill:#caddff;}.cls-3{fill:#99b9ff;}.cls-4{fill:#fff;}.cls-5{clip-path:url(#clip-path);}.cls-6{fill:#5479f7;}</style><clipPath id="clip-path"><path class="cls-1" d="M613.09,799.2,588.47,604.07,740.63,558.9l78.89-355.59C788,9.37,520.92,12.36,517.2,12.36L141.77,95.91a5.8,5.8,0,0,0-5.88,6.73L20,148.88V447.11L152.89,586.26l49.75,45.38L223.78,799.2a7.86,7.86,0,0,0,7.58,6.73H607.21A5.8,5.8,0,0,0,613.09,799.2Z"/></clipPath></defs><g id="Layer_2" data-name="Layer 2"><g id="Illustration"><g id="Support"><path class="cls-2" d="M201,209.62c86.82-87.38,62-142.14,121.37-182.6C413.75-35.23,584.35,18.33,685,104,808.28,208.82,871.88,400.31,799.43,573.54,722.27,758,519.25,853.79,338.1,824.93,176.33,799.16,17.3,671.66,1.37,518.75-.36,502.17-8,412.58,45.49,335.33,89.69,271.49,132.14,278.89,201,209.62Z"/><path class="cls-3" d="M812,370.36l-8.81-32.21-36.41,1.66a138.74,138.74,0,0,0-11.69-20.1l19.27-30.9-23.72-23.47L720,285a139.6,139.6,0,0,0-20.17-11.51L701,237l-32.27-8.47L652,260.9a137.8,137.8,0,0,0-23.24.17l-17.12-32.19-32.18,8.81,1.65,36.43A139.28,139.28,0,0,0,561,285.83l-30.87-19.29-23.46,23.74L526.35,321a139.75,139.75,0,0,0-11.5,20.19l-36.43-1.26L470,372.23,502.28,389a139.1,139.1,0,0,0,.16,23.26l-32.16,17.13,8.81,32.2,36.4-1.65a137.88,137.88,0,0,0,11.7,20.1l-19.28,30.89,23.72,23.48,30.71-19.65a139.6,139.6,0,0,0,20.17,11.51l-1.26,36.45,32.27,8.46,16.75-32.33a137.92,137.92,0,0,0,23.25-.17l17.12,32.19L702.82,562l-1.66-36.42a138.21,138.21,0,0,0,20.09-11.71l30.87,19.29,23.46-23.74L756,478.73a140.12,140.12,0,0,0,11.49-20.18l36.43,1.26,8.46-32.3L780,410.75a138,138,0,0,0-.17-23.26ZM663.83,482.76A85.94,85.94,0,1,1,724,377.17,85.88,85.88,0,0,1,663.83,482.76Z"/><path class="cls-3" d="M183.82,486.13l-4.21-15.4-17.41.79a66.22,66.22,0,0,0-5.59-9.61l9.22-14.77-11.35-11.23-14.68,9.4a66.06,66.06,0,0,0-9.64-5.5l.6-17.43-15.43-4.05-8,15.46a65.48,65.48,0,0,0-11.11.08L88,418.48l-15.38,4.21.79,17.42a67.2,67.2,0,0,0-9.61,5.6l-14.76-9.22L37.84,447.84l9.39,14.69a68.62,68.62,0,0,0-5.5,9.65l-17.41-.6L20.27,487l15.45,8a66.77,66.77,0,0,0,.08,11.13l-15.38,8.19,4.21,15.4L42,529a65.69,65.69,0,0,0,5.59,9.61l-9.21,14.78,11.34,11.22,14.68-9.39a68.51,68.51,0,0,0,9.64,5.5l-.6,17.43,15.43,4,8-15.47A65.61,65.61,0,0,0,108,566.6l8.18,15.4,15.39-4.22-.79-17.42a65.58,65.58,0,0,0,9.6-5.59L155.18,564l11.22-11.35L157,538a66.69,66.69,0,0,0,5.5-9.65l17.42.6,4-15.45-15.45-8a65.61,65.61,0,0,0-.08-11.12ZM113,539.87a41.09,41.09,0,1,1,28.76-50.49A41.06,41.06,0,0,1,113,539.87Z"/><circle class="cls-4" cx="682.5" cy="719.23" r="33.2"/><path d="M682.5,753.93a34.7,34.7,0,1,1,34.7-34.7A34.74,34.74,0,0,1,682.5,753.93Zm0-66.4a31.7,31.7,0,1,0,31.7,31.7A31.74,31.74,0,0,0,682.5,687.53Z"/><path d="M682.5,737.23a1.5,1.5,0,0,1-1.5-1.5v-33a1.5,1.5,0,0,1,3,0v33A1.5,1.5,0,0,1,682.5,737.23Z"/><path d="M699,720.73H666a1.5,1.5,0,0,1,0-3h33a1.5,1.5,0,0,1,0,3Z"/><circle class="cls-4" cx="765.05" cy="624.56" r="54.46" transform="translate(-120.39 187.09) rotate(-12.93)"/><path d="M765,680.5a55.94,55.94,0,1,1,47.51-26.23A55.61,55.61,0,0,1,765,680.5Zm.19-108.91A53.5,53.5,0,0,0,753.2,573a52.6,52.6,0,0,0-33,23.5h0a52.92,52.92,0,1,0,45-24.86Zm-46.24,24.06h0Z"/><rect class="cls-3" x="733.2" y="602.17" width="62.93" height="46.59" rx="5.06" transform="matrix(0.85, 0.53, -0.53, 0.85, 448.71, -310.53)"/><path d="M777.34,661.5a6.48,6.48,0,0,1-3.47-1h0l-44.74-28a6.56,6.56,0,0,1-2.08-9l19.36-30.91a6.57,6.57,0,0,1,9-2.07l44.75,28a6.56,6.56,0,0,1,2.08,9l-19.36,30.91a6.54,6.54,0,0,1-4.09,2.91A6.88,6.88,0,0,1,777.34,661.5ZM752,592.44a3.57,3.57,0,0,0-3,1.67L729.59,625a3.57,3.57,0,0,0,1.13,4.91l44.75,28h0a3.47,3.47,0,0,0,2.68.45,3.54,3.54,0,0,0,2.23-1.58l19.35-30.9a3.53,3.53,0,0,0,.46-2.69,3.58,3.58,0,0,0-1.58-2.22l-44.75-28A3.5,3.5,0,0,0,752,592.44Z"/><path d="M763.77,628.85a1.5,1.5,0,0,1-1.36-.88l-10.09-22a1.5,1.5,0,1,1,2.72-1.25l10.09,22a1.5,1.5,0,0,1-.73,2A1.6,1.6,0,0,1,763.77,628.85Z"/><path d="M763.89,628.92a1.5,1.5,0,0,1,0-3l24.16-.5a1.52,1.52,0,0,1,1.53,1.47,1.5,1.5,0,0,1-1.47,1.53l-24.16.5Z"/><circle class="cls-4" cx="656.42" cy="102.22" r="54.46" transform="translate(119.98 494.1) rotate(-45)"/><path d="M656.38,158.18a56,56,0,0,1-55.67-50.73h0a56,56,0,1,1,60.94,50.48C659.88,158.1,658.12,158.18,656.38,158.18Zm-52.69-51A53,53,0,1,0,651.47,49.5a53,53,0,0,0-47.78,57.67Z"/><path class="cls-3" d="M679,123.78l-7.22-9a4.06,4.06,0,0,0-2.83-1.32l-1.21,0a9,9,0,0,0-3.18.71c-2.84,1.17-7.44,1.21-13.45-9.2s-3.71-14.33-1.28-16.22a11.19,11.19,0,0,0,2.59-3l.27-.45a4,4,0,0,0,.27-3.11l-4.13-10.72a2.2,2.2,0,0,0-2.34-1.31l-2.66.49A9.93,9.93,0,0,0,638,74c-6.31,7.36-5.25,22.11,3.21,36.77s20.77,23,30.3,21.16a9.88,9.88,0,0,0,5.62-3.34l1.8-2.11A2.18,2.18,0,0,0,679,123.78Z"/><path d="M668.84,133.65c-9.76,0-21-8.5-28.9-22.16-8.68-15-9.9-30.5-3.05-38.5a11.47,11.47,0,0,1,6.67-3.76l2.66-.49a3.71,3.71,0,0,1,4,2.24l4.13,10.72a5.54,5.54,0,0,1-.38,4.42l-.27.45a12.49,12.49,0,0,1-3,3.43c-1.12.88-4.54,3.55,1.66,14.29s10.25,9.11,11.58,8.56a10.61,10.61,0,0,1,3.72-.82l1.22,0a5.57,5.57,0,0,1,4,1.88l7.22,8.94a3.68,3.68,0,0,1-.06,4.59l-1.79,2.11a11.41,11.41,0,0,1-6.48,3.84A15.7,15.7,0,0,1,668.84,133.65Zm-22-62h-.06l-2.67.49a8.48,8.48,0,0,0-4.93,2.76c-5.93,6.93-4.55,21.34,3.37,35.05s19.74,22.15,28.72,20.43a8.4,8.4,0,0,0,4.76-2.83l1.8-2.11a.72.72,0,0,0,0-.76h0l-7.22-8.94A2.7,2.7,0,0,0,669,115l-1.2,0a7.47,7.47,0,0,0-2.64.6c-5.24,2.15-10.25-1.07-15.32-9.84s-5.34-14.69-.91-18.15A9.5,9.5,0,0,0,651.14,85l.27-.45a2.6,2.6,0,0,0,.15-1.8l-4.13-10.72A.72.72,0,0,0,646.83,71.68Z"/><path d="M69.79,34.21a1.5,1.5,0,0,1-1.5-1.5V25a1.5,1.5,0,0,1,3,0v7.76A1.5,1.5,0,0,1,69.79,34.21Z"/><path d="M69.79,52.28a1.5,1.5,0,0,1-1.5-1.5V43a1.5,1.5,0,0,1,3,0v7.75A1.5,1.5,0,0,1,69.79,52.28Z"/><path d="M64.64,39.37H56.88a1.5,1.5,0,0,1,0-3h7.76a1.5,1.5,0,0,1,0,3Z"/><path d="M82.71,39.37H75a1.5,1.5,0,0,1,0-3h7.76a1.5,1.5,0,0,1,0,3Z"/><path class="cls-4" d="M192.09,177.05a16.16,16.16,0,1,1,16.15-16.16A16.18,16.18,0,0,1,192.09,177.05Zm0-29.31a13.16,13.16,0,1,0,13.15,13.15A13.17,13.17,0,0,0,192.09,147.74Z"/><path class="cls-4" d="M616.15,317.2a7.1,7.1,0,1,1-7.09-7.09A7.09,7.09,0,0,1,616.15,317.2Z"/><path class="cls-3" d="M212.58,827.36H586.41c16.11,0,27.52-13,25.49-29.08l-92-727.19C517.82,55,503.11,42,487,42L131.93,37.87C91.18,37.87,85.65,55,87.68,71.09l92,727.19C181.76,814.34,196.47,827.36,212.58,827.36Z"/><path class="cls-4" d="M235.07,827.36H608.91c16.11,0,27.52-13.06,25.49-29.17l-92-729.5c-2-16.11-16.74-29.17-32.85-29.17H135.66c-16.11,0-27.52,13.06-25.49,29.17l92.05,729.5C204.26,814.3,219,827.36,235.07,827.36Z"/><path d="M122,164a1.5,1.5,0,0,1-1.49-1.31L108.69,68.87A27.35,27.35,0,0,1,115.06,47a27,27,0,0,1,20.6-9h43.39a1.5,1.5,0,0,1,0,3H135.66A24,24,0,0,0,117.31,49a24.42,24.42,0,0,0-5.65,19.53l11.84,93.82a1.5,1.5,0,0,1-1.3,1.67Z"/><path d="M273,41H205.65a1.5,1.5,0,0,1,0-3H273a1.5,1.5,0,0,1,0,3Z"/><path d="M608.91,828.86H490.83a1.5,1.5,0,0,1,0-3H608.91a24,24,0,0,0,18.35-8,24.46,24.46,0,0,0,5.65-19.53l-7.73-61.26a1.5,1.5,0,1,1,3-.38L635.88,798a27.36,27.36,0,0,1-6.37,21.89A27,27,0,0,1,608.91,828.86Z"/><path d="M465.45,828.86H336.9a1.5,1.5,0,0,1,0-3H465.45a1.5,1.5,0,0,1,0,3Z"/><path d="M273,828.86h-37.9c-16.81,0-32.21-13.67-34.33-30.48L186.65,686.75a1.5,1.5,0,1,1,3-.38L203.71,798c1.94,15.36,16,27.86,31.36,27.86H273a1.5,1.5,0,0,1,0,3Z"/><path class="cls-2" d="M613.09,799.2,525.2,102.64a7.86,7.86,0,0,0-7.58-6.73H141.77a5.8,5.8,0,0,0-5.88,6.73L223.78,799.2a7.86,7.86,0,0,0,7.58,6.73H607.21A5.8,5.8,0,0,0,613.09,799.2Z"/><ellipse class="cls-2" cx="325.88" cy="65.69" rx="10.26" ry="11.64" transform="translate(54.93 258.3) rotate(-46.8)"/><g class="cls-5"><path d="M452,51.7a63.27,63.27,0,0,1,13.59,5.68c47.82,27,17.73,89.6,40.59,130.14,19.6,34.75,9.19,62.21-16.92,89.74-15.1,15.94-29.28,29.18-33.9,51.51-2.66,12.87-3.28,26.14-6.66,38.84-16.7,62.7-89.57,82.17-146.41,68.56a155,155,0,0,1-68.38-36.63c-22.22-20.44-50.4-55.49-25.63-84.68,8-9.44,19.19-15.62,30.49-20.67,19.69-8.8,53.47-17.82,59.87-41.82,4.82-18.08-9.05-37,1-54.59,7.83-13.73,25.47-17.92,33.89-31.32,7.28-11.57,5.66-26.43,5.4-40.1C337.4,50.56,404.75,38.1,452,51.7Z"/><path d="M237.7,813.62s13.36-62.8,24.89-101.21c18.6-62,59.32-132.07,59.32-132.07l207.76-40.67s71.78,144,85.82,269.34c0,0-57.86,41.26-131.73,47.78C434.64,861.13,332.16,818.45,237.7,813.62Z"/><path class="cls-4" d="M812.72,191.68c-2.64-16.33-3.75-21.91-5.66-28.45-2-6.72-5.8-11.06-11.42-12.9-8-2.62-17.6.69-22.46,2.92.93-4.33,2-9.44,2.6-13s1.84-18.79-4-26.26c-2.64-3.37-8.72-7-13.39-4-4.07,2.62-3.55,7.1-2.89,12.77.73,6.28,1.72,14.88-2.94,25.43a70.22,70.22,0,0,1-5.21,9.65,77.25,77.25,0,0,0-6.51,12.47c-4.45,10.65-3.77,28.58-3.74,29.35,1.81,35.73-9.46,81.5-30.13,122.41-18.76,37.13-42,63.15-57.8,64.77-12.65,1.28-30.85-23.54-48.44-47.55-15.63-21.33-30.39-41.48-42.41-45.44a1.49,1.49,0,0,0-1.83.81l-41.89,93a1.54,1.54,0,0,0,0,1.19,177.28,177.28,0,0,0,32.79,48.41c18.74,19.59,49.58,41.72,93.3,41.71q6.55,0,13.49-.68c32.31-3.26,58.74-18.62,78.56-45.67,15.78-21.52,27.41-50.45,34.55-86,11.06-54.92,7.87-109,7.16-118.78a118.21,118.21,0,0,0,16.1-2c11.56-2.26,14.19-4.69,18.21-9.15C813.26,211.77,814.6,203.31,812.72,191.68Z"/><path d="M640.65,480.58c-44.67,0-76-22.93-94.38-42.18a178.3,178.3,0,0,1-33.09-48.87,3,3,0,0,1,0-2.37L555.1,294.1a3,3,0,0,1,3.68-1.61c12.46,4.11,27.36,24.45,43.14,46C618.45,361,637.19,386.61,649,385.4c15.32-1.56,38.08-27.26,56.61-63.94,20.56-40.7,31.76-86.18,30-121.67,0-.78-.71-19,3.86-30a78.1,78.1,0,0,1,6.62-12.68,68.9,68.9,0,0,0,5.11-9.47c4.5-10.17,3.53-18.54,2.82-24.65-.66-5.7-1.29-11.08,3.57-14.2,5.45-3.5,12.41.49,15.38,4.3,6.26,8,5,23.68,4.31,27.45-.49,2.74-1.24,6.53-2,10.21,5-1.94,13.44-4.27,20.87-1.84,6.11,2,10.28,6.68,12.39,13.9,1.93,6.61,3,12.23,5.7,28.63,2,12.11.49,21-4.37,26.38-4.12,4.58-7,7.28-19,9.62A118.58,118.58,0,0,1,776,229.37c.88,13.26,3.31,65-7.28,117.67-7.2,35.75-18.91,64.88-34.82,86.58-20.08,27.4-46.87,43-79.62,46.27C649.72,480.35,645.13,480.58,640.65,480.58ZM557.83,295.33,516,388.39a176,176,0,0,0,32.49,47.94c18,18.82,48.6,41.26,92.21,41.25,4.38,0,8.86-.22,13.34-.67,31.87-3.22,57.94-18.38,77.5-45.06,15.65-21.35,27.19-50.08,34.29-85.4,11-54.58,7.87-108.19,7.14-118.38a1.49,1.49,0,0,1,1.41-1.6,115.18,115.18,0,0,0,15.89-2c11.11-2.16,13.48-4.34,17.38-8.68,4.22-4.69,5.45-12.73,3.64-23.89h0c-2.63-16.26-3.73-21.8-5.62-28.27-1.81-6.22-5.33-10.22-10.45-11.89-8-2.62-17.6,1.13-21.36,2.85a1.5,1.5,0,0,1-2.1-1.67c1-4.44,2-9.52,2.59-12.94.8-4.41,1.4-18.53-3.72-25.06-2.39-3.06-7.68-6-11.4-3.63-3.14,2-2.92,5.28-2.21,11.34.75,6.45,1.77,15.28-3.06,26.21a70.36,70.36,0,0,1-5.31,9.83A76.09,76.09,0,0,0,742.21,171c-4.32,10.34-3.66,28-3.63,28.71,1.82,36-9.51,82-30.29,123.15-19,37.56-42.68,63.92-59,65.58a10.38,10.38,0,0,1-1.12.05c-13.36,0-30.53-23.43-48.68-48.2C584,319.11,569.39,299.15,557.83,295.33Z"/><path d="M785.13,218.72a1.86,1.86,0,0,1-.33,0c-10.48-2.41-16.59-8.79-16.34-17.07l0-1.16c.21-6.22.47-14-4.58-29.15-2.88-8.67,3.62-15.09,7.46-17.27a1.5,1.5,0,1,1,1.49,2.6h0c-.37.21-8.92,5.24-6.1,13.72,5.21,15.7,4.93,24.08,4.73,30.2l0,1.15c-.28,9.72,9.71,13.06,14,14.05a1.5,1.5,0,0,1-.34,3Z"/><path class="cls-3" d="M249.18,421.83s-16.59-111.45,7.88-127.72c1.28-.85,17.7,4.9,30.63,20.78,12.21,15,14.5,54,14.5,54l-4.58,64.33Z"/><path class="cls-4" d="M270.75,318.81C249.28,328,206.55,516.13,205.61,515c-27.26-33.55-68.22-100.65-68.22-100.65-4.09-12.53-8-27.1-12.39-33.25a81.45,81.45,0,0,0-24.5-23.14c-5.81-3.65-17.68-10.65-26.78-13.08s-5.12,15.13,3,18.28S91.2,372,89,373.57c-1.56,1.07-5.88,5.74-14.21,3.74-9.33-2.24-15.51-11-15.28-20.62a26.3,26.3,0,0,1,.56-5c2.15-10-2.56-20.42-12-24.47A28.28,28.28,0,0,0,32,325.4c-10,1.65-12.33,58.28,25.6,76.53,7.85,3.77,40.18,10.42,46.83,19.6a99.24,99.24,0,0,1,9.92,18.35h0c12.45,77.37,34.3,155.88,96,164.58s91.83-168.89,91.83-168.89Z"/><path d="M214.82,606.27a33.44,33.44,0,0,1-4.67-.33c-28.75-4.05-50.87-22.81-67.62-57.37-16.35-33.72-24.75-77.9-29.64-108.27a98.08,98.08,0,0,0-9.68-17.89c-4.32-6-21.12-11.06-33.39-14.78-5.57-1.69-10.37-3.14-12.88-4.35C28.5,389.6,22.1,355.15,24.75,336.64c1.09-7.64,3.58-12.16,7-12.72a29.86,29.86,0,0,1,16.92,1.93c9.8,4.21,15.2,15.22,12.84,26.17a25.23,25.23,0,0,0-.52,4.71c-.22,9.06,5.72,17.11,14.13,19.12a12.87,12.87,0,0,0,12.22-2.92l.54-.42c-.51-1.4-4.93-5.4-11.65-8C69.77,362,65.65,352,67.4,346.62c.95-2.89,3.45-4.1,6.71-3.23,9.2,2.46,21,9.36,27.19,13.26a83.44,83.44,0,0,1,24.93,23.55c3.59,5.09,6.76,15.19,10.12,25.88.8,2.55,1.6,5.12,2.41,7.6,2.11,3.44,39.79,64.92,66.27,98.18.89-3.27,2.47-9.5,4.32-16.82,20-79.17,45-170.89,60.82-177.61l1.58-.67,32,118.74-.06.32c-.07.45-7.72,45-22.84,87.95C261.55,578.56,239.36,606.27,214.82,606.27ZM37,326.48a29.36,29.36,0,0,0-4.81.4c-1.5.25-3.56,3.54-4.51,10.19-2.53,17.66,3.52,50.52,30.52,63.5a113,113,0,0,0,12.45,4.19c13.38,4.06,30,9.12,35,15.89a101.17,101.17,0,0,1,10.08,18.65l.1.34c4.86,30.19,13.2,74.2,29.4,107.63,16.29,33.58,37.66,51.8,65.35,55.7,58.38,8.23,88.6-158.86,90.09-167.33l-30.83-114.5C253,334.7,222.49,455.32,212.26,495.77c-5.16,20.41-5.16,20.41-6.32,20.66l-.9.2-.6-.72c-14.12-17.38-31.95-43.87-44.42-63C153,442,146.84,432.34,142.94,426.12c-5.35-8.56-6.64-10.62-6.95-11.35h0c-.83-2.55-1.65-5.18-2.48-7.81-3.13-10-6.38-20.33-9.7-25A79.51,79.51,0,0,0,99.7,359.19c-6.06-3.81-17.55-10.54-26.37-12.9-2.16-.58-2.76.31-3.07,1.26-1.19,3.65,1.9,12.19,7,14.17,6.22,2.4,13.19,7.15,13.6,10.63a2.54,2.54,0,0,1-1.08,2.45c-.17.12-.37.28-.62.48a16,16,0,0,1-14.79,3.49c-9.78-2.35-16.69-11.65-16.43-22.12a27.84,27.84,0,0,1,.59-5.26c2-9.56-2.61-19.13-11.09-22.78A26.28,26.28,0,0,0,37,326.48Z"/><path class="cls-6" d="M571.62,548.42c-1.38-9.48-2.47-19-2.92-28.58l-5-107.74-.32-121.65c-106.81-12.48-306.33,3.66-306.33,3.66,15.67,3.63,22.24,72.43,32.64,119.82,0,0-9.91,113.82-11.2,161.69s54.35,29.26,161.5,40.15C492.72,621.12,581.59,616.44,571.62,548.42Z"/><path class="cls-4" d="M396.85,207.83l-9.8,74.81-36.93,5.59s14.14,44.9,63,48.22,72-30.86,74.74-48.9l-34.75-4.9L447.23,210Z"/><path d="M419.68,338.18q-3.23,0-6.64-.23c-49.33-3.35-64.2-48.81-64.35-49.27a1.53,1.53,0,0,1,.16-1.25,1.51,1.51,0,0,1,1-.69l35.81-5.41,9.65-73.7a1.5,1.5,0,0,1,1.56-1.3l50.38,2.21a1.51,1.51,0,0,1,1.43,1.37l5.81,71.43,33.56,4.73a1.46,1.46,0,0,1,1,.58,1.52,1.52,0,0,1,.28,1.13c-1.28,8.42-7.44,22.22-20.58,33.37C459.4,329.13,443.49,338.18,419.68,338.18Zm-67.52-48.74c3.16,8,19.14,42.67,61.09,45.52,47.36,3.21,69.36-29.31,72.89-46.14l-33.21-4.68a1.52,1.52,0,0,1-1.29-1.36l-5.8-71.31-47.68-2.08-9.62,73.45a1.52,1.52,0,0,1-1.27,1.29Zm34.89-6.8h0Z"/><path class="cls-4" d="M472.63,151.23c-2-.49-4.05.2-6,1.74,0-.42-.07-.86-.11-1.27V106.5c-51,37.06-60.5,13.37-92.75,24,0,0-.34,21-.44,22.47-1.95-1.53-4-2.21-6-1.72-5,1.24-7.18,9.5-4.94,18.43,2.17,8.64,10.93,18.26,16,17.76,7.8,22.79,23.49,42.43,41.6,42.43s33.81-19.64,41.6-42.43c5.07.5,13.82-9.12,16-17.76C479.81,160.73,477.6,152.47,472.63,151.23Z"/><path d="M420,231.35c-20.45,0-35.66-22.64-42.67-42.45-6.23-.72-14.35-10.81-16.37-18.87a26.17,26.17,0,0,1-.23-12.86c1.08-4,3.3-6.66,6.26-7.4a7.38,7.38,0,0,1,4.93.55c.11-4.87.29-15.3.36-19.87a1.51,1.51,0,0,1,1-1.4c11.91-3.92,20.9-3.26,29.59-2.62,15,1.1,30.56,2.23,62.74-21.14A1.51,1.51,0,0,1,468,106.5v43.85a7.43,7.43,0,0,1,5-.58h0c5.86,1.47,8.5,10.37,6,20.26-2,8.06-10.14,18.15-16.38,18.87C455.64,208.71,440.43,231.35,420,231.35Zm-41.59-45.43a1.5,1.5,0,0,1,1.41,1c6.53,19.1,21,41.41,40.18,41.41s33.65-22.31,40.18-41.41a1.51,1.51,0,0,1,1.57-1H462c4.12,0,12.07-8.49,14.11-16.64,2-8,.24-15.59-3.84-16.62-1.81-.45-3.56.55-4.72,1.47a1.5,1.5,0,0,1-2.43-1.05l0-.26c0-.33-.05-.66-.09-1V109.42c-31.48,22.26-47.17,21.11-62.35,20-8.52-.62-16.59-1.21-27.42,2.16-.07,4.35-.34,20.16-.43,21.47a1.48,1.48,0,0,1-.88,1.27,1.51,1.51,0,0,1-1.54-.19c-1.15-.91-2.9-1.89-4.69-1.45s-3.31,2.34-4.09,5.27a23.23,23.23,0,0,0,.24,11.35c2.09,8.33,10.4,17,14.39,16.63Z"/><path class="cls-6" d="M409.83,216.46l-.3,0-16.09-3.27a25.91,25.91,0,0,1-22.66-24.71l-.47-11.54a1.51,1.51,0,0,1,1.44-1.56,1.48,1.48,0,0,1,1.56,1.44l.47,11.53a22.91,22.91,0,0,0,20.1,21.87l.11,0,16.14,3.28a1.5,1.5,0,0,1-.3,3Z"/><path class="cls-6" d="M418.41,218.55a6.81,6.81,0,1,0-9.26,2.29A6.74,6.74,0,0,0,418.41,218.55Z"/><path class="cls-3" d="M374,143.41a4.15,4.15,0,0,0-4.48-3.8,13.83,13.83,0,0,0-12.66,14.91l1.8,22.06a13.83,13.83,0,0,0,14.91,12.66,4.15,4.15,0,0,0,3.8-4.48Z"/><path d="M372.4,190.78a15.35,15.35,0,0,1-15.27-14.08l-1.8-22.06a15.35,15.35,0,0,1,14-16.53,5.65,5.65,0,0,1,6.09,5.18l3.38,41.35a5.65,5.65,0,0,1-5.18,6.09C373.24,190.77,372.82,190.78,372.4,190.78Zm-2.57-49.69h-.22a12.33,12.33,0,0,0-11.29,13.3l1.8,22.06a12.35,12.35,0,0,0,13.3,11.28,2.58,2.58,0,0,0,1.8-.92,2.69,2.69,0,0,0,.63-1.94l-3.38-41.35h0a2.58,2.58,0,0,0-.92-1.8A2.62,2.62,0,0,0,369.83,141.09Z"/><path class="cls-3" d="M464.64,143.41a4.15,4.15,0,0,1,4.48-3.8,13.83,13.83,0,0,1,12.66,14.91L480,176.58a13.83,13.83,0,0,1-14.91,12.66,4.15,4.15,0,0,1-3.8-4.48Z"/><path d="M466.21,190.78c-.42,0-.84,0-1.26-.05a5.65,5.65,0,0,1-5.18-6.09l3.38-41.35a5.65,5.65,0,0,1,6.09-5.18,15.36,15.36,0,0,1,14,16.53l-1.8,22.06A15.36,15.36,0,0,1,466.21,190.78Zm2.57-49.69a2.68,2.68,0,0,0-2.64,2.44h0l-3.38,41.35a2.69,2.69,0,0,0,.63,1.94,2.6,2.6,0,0,0,1.8.92,12.35,12.35,0,0,0,13.3-11.28l1.8-22.06A12.36,12.36,0,0,0,469,141.1Zm-4.14,2.32h0Z"/><path class="cls-6" d="M471.54,126.1a1.5,1.5,0,0,1-1.5-1.5v-4.33a48,48,0,0,0-48-48h-6a48,48,0,0,0-48,48,1.5,1.5,0,0,1-3,0,51,51,0,0,1,51-51h6a51,51,0,0,1,51,51v4.33A1.5,1.5,0,0,1,471.54,126.1Z"/></g><circle cx="126.02" cy="217.74" r="104.73"/><circle class="cls-3" cx="130.5" cy="214.63" r="101.62" transform="translate(-94.16 326.98) rotate(-85.27)"/><path d="M130.5,317.75A103.12,103.12,0,1,1,233.62,214.63,103.24,103.24,0,0,1,130.5,317.75Zm0-203.24A100.12,100.12,0,1,0,230.62,214.63,100.23,100.23,0,0,0,130.5,114.51Z"/><circle class="cls-4" cx="130.5" cy="214.63" r="85.28" transform="translate(-112.74 277.33) rotate(-73.15)"/><path d="M202.19,262.32a1.42,1.42,0,0,1-.81-.24,1.5,1.5,0,0,1-.44-2.07,83.38,83.38,0,0,0,9.94-21.69,1.5,1.5,0,1,1,2.88.84,86.37,86.37,0,0,1-10.31,22.48A1.48,1.48,0,0,1,202.19,262.32Z"/><path d="M207.26,178.93a1.5,1.5,0,0,1-1.35-.84,83.24,83.24,0,0,0-75.41-47.24,84.14,84.14,0,0,0-67.61,34.29,1.5,1.5,0,0,1-2.42-1.77,86.79,86.79,0,0,1,148.14,13.41,1.5,1.5,0,0,1-1.35,2.15Z"/><path d="M130.5,301.41a86.8,86.8,0,0,1-75.72-129.2,1.5,1.5,0,1,1,2.61,1.47A83.81,83.81,0,0,0,130.5,298.41a1.5,1.5,0,0,1,0,3Z"/><path class="cls-6" d="M68.58,249.66v-4c0-16.84,6.73-20,25.67-31.67,8.53-5.26,11.68-7.9,11.68-12.73,0-5.69-4.21-8.53-14.73-8.53a90.3,90.3,0,0,0-19.36,2.63l-2.52-12.2A86.85,86.85,0,0,1,93,179.59c18.41,0,28.09,8.31,28.09,21,0,9.79-6,15.47-17.15,22.73-8.73,5.68-16.62,9.89-17.57,13.15h35v13.15Z"/><path class="cls-6" d="M182.42,234.72v14.94H167.9V234.72H132.44V221.47l33.67-40.83h16.31v41.67h10v12.41ZM167.9,197.06l-21,25.25h21Z"/><path class="cls-6" d="M147.05,650.28,144.23,640l-11.64.53a44.42,44.42,0,0,0-3.74-6.43L135,624.2l-7.59-7.51L117.6,623a45.12,45.12,0,0,0-6.45-3.68l.4-11.66-10.32-2.7-5.36,10.34a45,45,0,0,0-7.43.05L83,605l-10.29,2.82.53,11.65a44.42,44.42,0,0,0-6.43,3.74l-9.87-6.17-7.51,7.6,6.28,9.83A44.13,44.13,0,0,0,52,641l-11.66-.4-2.7,10.33L48,656.24a44.06,44.06,0,0,0,.06,7.44l-10.29,5.48,2.82,10.3,11.64-.53a44.42,44.42,0,0,0,3.74,6.43l-6.16,9.89,7.58,7.51,9.83-6.29a45.12,45.12,0,0,0,6.45,3.68l-.4,11.66,10.32,2.71,5.36-10.35a42.91,42.91,0,0,0,7.43,0l5.48,10.3,10.29-2.82L111.59,700A44.47,44.47,0,0,0,118,696.2l9.87,6.17,7.51-7.59L129.12,685a44.76,44.76,0,0,0,3.67-6.46l11.66.4,2.7-10.33-10.33-5.36a44.06,44.06,0,0,0-.06-7.44Zm-47.4,36a27.49,27.49,0,1,1,19.24-33.78A27.46,27.46,0,0,1,99.65,686.24Z"/></g></g></g></svg>