<svg width="1024" height="1024" viewBox="0 0 1024 1024" fill="none" xmlns="http://www.w3.org/2000/svg">
<path fill-rule="evenodd" clip-rule="evenodd" d="M967.261 248.719H56.9146V187.252C56.9146 173.918 68.001 163.107 81.6749 163.107H942.5C956.175 163.107 967.261 173.918 967.261 187.252V248.719Z" fill="#253368"/>
<path fill-rule="evenodd" clip-rule="evenodd" d="M120.749 203.303C120.749 211.671 113.834 218.455 105.305 218.455C96.7769 218.455 89.8635 211.671 89.8635 203.303C89.8635 194.935 96.7769 188.15 105.305 188.15C113.834 188.15 120.749 194.935 120.749 203.303Z" fill="#A3B5D6"/>
<path fill-rule="evenodd" clip-rule="evenodd" d="M178.407 203.303C178.407 211.671 171.494 218.455 162.965 218.455C154.436 218.455 147.523 211.671 147.523 203.303C147.523 194.935 154.436 188.15 162.965 188.15C171.494 188.15 178.407 194.935 178.407 203.303Z" fill="#E4EBF7"/>
<path fill-rule="evenodd" clip-rule="evenodd" d="M236.067 203.303C236.067 211.671 229.153 218.455 220.624 218.455C212.096 218.455 205.182 211.671 205.182 203.303C205.182 194.935 212.096 188.15 220.624 188.15C229.153 188.15 236.067 194.935 236.067 203.303Z" fill="#E4EBF7"/>
<path fill-rule="evenodd" clip-rule="evenodd" d="M83.6095 861.047C68.3622 861.047 56 849.933 56 836.222V245.123H967.568V836.222C967.568 849.933 955.207 861.047 939.958 861.047H83.6095Z" fill="#E4EBF7"/>
<path d="M903.15 290.291H128.63C122.534 290.291 117.593 295.233 117.593 301.328V796.63C117.593 802.726 122.534 807.667 128.63 807.667H903.15C909.246 807.667 914.188 802.726 914.188 796.63V301.328C914.188 295.233 909.246 290.291 903.15 290.291Z" fill="white"/>
<path d="M803.321 401.157H409.13C404.594 401.157 400.917 404.834 400.917 409.37V450.431C400.917 454.967 404.594 458.643 409.13 458.643H803.321C807.857 458.643 811.534 454.967 811.534 450.431V409.37C811.534 404.834 807.857 401.157 803.321 401.157Z" fill="#CCD7EE"/>
<path d="M803.321 602.359H655.499C650.964 602.359 647.287 606.036 647.287 610.572V651.633C647.287 656.169 650.964 659.846 655.499 659.846H803.321C807.857 659.846 811.534 656.169 811.534 651.633V610.572C811.534 606.036 807.857 602.359 803.321 602.359Z" fill="#CCD7EE"/>
<path d="M803.321 512.023H655.499C650.964 512.023 647.287 515.7 647.287 520.236V561.297C647.287 565.833 650.964 569.51 655.499 569.51H803.321C807.857 569.51 811.534 565.833 811.534 561.297V520.236C811.534 515.7 807.857 512.023 803.321 512.023Z" fill="#CCD7EE"/>
<path fill-rule="evenodd" clip-rule="evenodd" d="M299.317 405.264H342.377L437.873 655.74H397.244L373.978 591.191H267.37L244.104 655.74H203.822L299.317 405.264ZM277.733 561.298H359.856L319.646 450.431H318.283L277.733 561.298ZM530.99 503.812C550.327 503.812 564.576 508.965 573.736 519.272C581.624 528.222 585.695 541.242 585.695 558.329V647.836H560.759V628.036C555.671 635.088 549.31 640.784 541.676 644.853C533.025 649.192 522.848 651.633 511.143 651.633C497.404 651.633 486.717 647.836 479.084 640.513C470.687 633.19 466.616 623.696 466.616 612.033C466.616 596.302 472.468 584.096 484.173 575.688C494.859 567.551 510.126 563.483 529.463 562.94L558.978 562.127V556.431C558.978 536.902 549.055 527.138 529.209 527.138C520.812 527.138 513.942 528.765 508.853 532.02C502.747 535.817 498.93 541.513 497.404 549.379L470.687 546.938C473.486 531.749 480.61 520.357 491.806 513.305C501.475 506.795 514.706 503.812 530.99 503.812ZM565.164 585.935L536.97 586.723C511.881 587.248 499.465 596.176 499.465 612.983C499.465 618.235 501.535 622.437 505.932 625.85C510.07 629.264 515.761 631.103 522.744 631.103C534.384 631.103 544.213 627.426 552.49 620.336C560.767 613.246 565.164 604.317 565.164 593.813V585.935Z" fill="#253368"/>
<path d="M813.094 713.226C814.228 713.226 815.147 714.145 815.147 715.279C815.147 716.361 814.309 717.248 813.247 717.326L813.094 717.332H462.51C461.376 717.332 460.457 716.413 460.457 715.279C460.457 714.196 461.294 713.31 462.357 713.231L462.51 713.226H813.094Z" fill="#4E5C93"/>
<path d="M239.628 727.695V712.912H244.424V710.711H239.628V708.839C239.628 708.018 239.792 707.427 240.12 707.065C240.449 706.671 241.007 706.507 241.73 706.507H244.654V704.24H241.401C239.956 704.24 238.839 704.634 238.084 705.456C237.361 706.244 237 707.328 237 708.773V710.711H232.729V712.912H237V727.695H239.628ZM254.443 728.154C256.972 728.154 259.009 727.268 260.553 725.494C261.965 723.851 262.688 721.749 262.688 719.219C262.688 716.657 261.965 714.555 260.52 712.88C259.009 711.106 256.972 710.252 254.443 710.252C251.88 710.252 249.877 711.106 248.366 712.88C246.92 714.555 246.197 716.657 246.197 719.219C246.197 721.749 246.92 723.851 248.366 725.494C249.877 727.268 251.88 728.154 254.443 728.154ZM254.443 725.954C252.636 725.954 251.223 725.264 250.238 723.884C249.318 722.636 248.891 721.092 248.891 719.219C248.891 717.314 249.318 715.77 250.238 714.522C251.223 713.142 252.636 712.452 254.443 712.452C256.216 712.452 257.629 713.142 258.68 714.522C259.567 715.77 260.027 717.314 260.027 719.219C260.027 721.059 259.567 722.636 258.68 723.884C257.629 725.264 256.216 725.954 254.443 725.954ZM268.732 727.695V717.446C268.831 715.902 269.323 714.686 270.243 713.766C271.097 712.912 272.116 712.485 273.298 712.485C276.255 712.485 277.766 714.128 277.766 717.446V727.695H280.394V717.248C280.394 712.584 278.258 710.252 274.054 710.252C272.937 710.252 271.918 710.514 270.999 711.04C270.079 711.533 269.323 712.255 268.732 713.208V710.711H266.104V727.695H268.732ZM292.778 727.695V725.494H290.61C290.018 725.494 289.591 725.329 289.361 725.067C289.099 724.804 289 724.344 289 723.72V712.912H293.205V710.711H289V705.226L286.405 706.31V710.711H282.989V712.912H286.405V723.72C286.405 725.001 286.668 725.954 287.226 726.611C287.818 727.333 288.836 727.695 290.215 727.695H292.778ZM314.13 728.154C316.692 728.154 318.597 727.07 319.78 724.902V727.695H322.244V703.78H319.616V713.832C318.302 711.434 316.429 710.252 313.998 710.252C311.568 710.252 309.695 711.139 308.315 712.978C307.034 714.621 306.41 716.657 306.41 719.154C306.41 721.716 307.034 723.818 308.315 725.461C309.695 727.235 311.633 728.154 314.13 728.154ZM314.458 725.986C312.619 725.986 311.239 725.297 310.319 723.983C309.498 722.8 309.104 721.19 309.104 719.154C309.104 717.117 309.498 715.54 310.352 714.391C311.272 713.077 312.684 712.42 314.557 712.42C316.068 712.42 317.316 713.011 318.269 714.259C319.189 715.475 319.681 717.084 319.681 719.055V719.384C319.681 721.289 319.254 722.833 318.433 724.015C317.48 725.329 316.166 725.986 314.458 725.986ZM333.412 728.154C335.613 728.154 337.42 727.497 338.832 726.249C339.982 725.198 340.738 723.884 341.132 722.242H338.504C338.077 723.424 337.518 724.311 336.796 724.902C335.942 725.592 334.792 725.954 333.412 725.954C331.803 725.954 330.522 725.428 329.602 724.377C328.682 723.326 328.189 721.847 328.058 719.942H341.46C341.395 716.986 340.738 714.653 339.489 713.011C338.11 711.171 336.04 710.252 333.314 710.252C330.85 710.252 328.912 711.138 327.467 712.912C326.021 714.588 325.331 716.69 325.331 719.187C325.331 721.946 326.054 724.114 327.565 725.756C329.011 727.333 330.981 728.154 333.412 728.154ZM338.734 717.905H328.124C328.288 716.23 328.813 714.916 329.733 713.931C330.653 712.945 331.868 712.452 333.379 712.452C336.599 712.452 338.405 714.259 338.734 717.905ZM350.855 728.154C355.651 728.154 358.049 726.381 358.049 722.899C358.049 721.42 357.359 720.271 356.013 719.417C355.126 718.858 353.68 718.333 351.644 717.84C349.936 717.38 348.753 717.019 348.129 716.723C347.143 716.23 346.683 715.606 346.683 714.883C346.683 714.128 347.045 713.536 347.767 713.109C348.424 712.65 349.344 712.452 350.527 712.452C351.874 712.452 352.925 712.715 353.647 713.241C354.304 713.701 354.731 714.489 354.961 715.54H357.524C357.064 711.993 354.764 710.252 350.56 710.252C348.654 710.252 347.078 710.679 345.895 711.533C344.614 712.387 343.99 713.504 343.99 714.949C343.99 716.394 344.614 717.478 345.928 718.267C346.716 718.792 348.129 719.285 350.133 719.778C351.972 720.238 353.188 720.599 353.746 720.862C354.797 721.387 355.356 722.11 355.356 723.063C355.356 724.968 353.812 725.954 350.79 725.954C349.344 725.954 348.26 725.691 347.538 725.165C346.815 724.574 346.322 723.621 346.125 722.274H343.563C343.957 726.183 346.388 728.154 350.855 728.154ZM363.305 708.215C363.864 708.215 364.324 708.018 364.718 707.656C365.112 707.262 365.309 706.802 365.309 706.244C365.309 705.653 365.112 705.193 364.718 704.864C364.324 704.47 363.864 704.306 363.305 704.306C362.747 704.306 362.287 704.47 361.893 704.864C361.498 705.193 361.334 705.653 361.334 706.244C361.334 706.802 361.498 707.262 361.893 707.656C362.287 708.018 362.747 708.215 363.305 708.215ZM364.619 727.695V710.711H361.991V727.695H364.619ZM377.135 734.659C382.292 734.659 384.887 731.932 384.887 726.512V710.711H382.259V713.635C381.011 711.368 379.106 710.252 376.543 710.252C374.178 710.252 372.306 711.073 370.926 712.748C369.547 714.325 368.89 716.329 368.89 718.825C368.89 721.289 369.547 723.293 370.926 724.87C372.306 726.479 374.178 727.3 376.543 727.3C379.106 727.3 381.011 726.151 382.259 723.884V726.873C382.259 730.618 380.551 732.523 377.135 732.523C375.591 732.523 374.441 732.228 373.686 731.669C372.93 731.144 372.437 730.29 372.24 729.14H369.612C369.908 730.979 370.663 732.359 371.879 733.279C373.061 734.199 374.835 734.659 377.135 734.659ZM376.905 725.099C375.065 725.099 373.718 724.442 372.799 723.194C371.977 722.077 371.583 720.599 371.583 718.825C371.583 716.92 372.043 715.376 372.963 714.259C373.916 713.011 375.229 712.42 376.938 712.42C378.613 712.42 379.927 713.011 380.912 714.259C381.832 715.376 382.292 716.92 382.292 718.825C382.292 720.665 381.832 722.176 380.912 723.326C379.927 724.508 378.613 725.099 376.905 725.099ZM391.588 727.695V717.446C391.687 715.902 392.18 714.686 393.099 713.766C393.954 712.912 394.972 712.485 396.154 712.485C399.111 712.485 400.622 714.128 400.622 717.446V727.695H403.25V717.248C403.25 712.584 401.115 710.252 396.91 710.252C395.793 710.252 394.775 710.514 393.855 711.04C392.935 711.533 392.18 712.255 391.588 713.208V710.711H388.96V727.695H391.588Z" fill="#253368"/>
</svg>
