<svg width="1024" height="1024" viewBox="0 0 1024 1024" fill="none" xmlns="http://www.w3.org/2000/svg">
<path fill-rule="evenodd" clip-rule="evenodd" d="M967.693 252.594H56.915V189.782C56.915 176.156 68.0067 165.109 81.6871 165.109H942.921C956.602 165.109 967.693 176.156 967.693 189.782V252.594Z" fill="#253368"/>
<path fill-rule="evenodd" clip-rule="evenodd" d="M120.779 206.184C120.779 214.735 113.862 221.668 105.328 221.668C96.7961 221.668 89.8794 214.735 89.8794 206.184C89.8794 197.633 96.7961 190.7 105.328 190.7C113.862 190.7 120.779 197.633 120.779 206.184Z" fill="#A3B5D6"/>
<path fill-rule="evenodd" clip-rule="evenodd" d="M178.465 206.184C178.465 214.735 171.548 221.668 163.015 221.668C154.483 221.668 147.566 214.735 147.566 206.184C147.566 197.633 154.483 190.7 163.015 190.7C171.548 190.7 178.465 197.633 178.465 206.184Z" fill="#E4EBF7"/>
<path fill-rule="evenodd" clip-rule="evenodd" d="M236.152 206.184C236.152 214.735 229.235 221.668 220.702 221.668C212.17 221.668 205.253 214.735 205.253 206.184C205.253 197.633 212.17 190.7 220.702 190.7C229.235 190.7 236.152 197.633 236.152 206.184Z" fill="#E4EBF7"/>
<path fill-rule="evenodd" clip-rule="evenodd" d="M83.587 858.096C68.3521 858.096 56 847.065 56 833.457V246.794H966.825V833.457C966.825 847.065 954.474 858.096 939.238 858.096H83.587Z" fill="#E4EBF7"/>
<path d="M895.662 291.78H124.249C118.177 291.78 113.256 296.702 113.256 302.773V796.088C113.256 802.159 118.177 807.081 124.249 807.081H895.662C901.733 807.081 906.655 802.159 906.655 796.088V302.773C906.655 296.702 901.733 291.78 895.662 291.78Z" fill="white"/>
<path d="M493.596 365.395H207.318C196.025 365.395 186.87 374.55 186.87 385.843C186.87 397.136 196.025 406.291 207.318 406.291H493.596C504.89 406.291 514.045 397.136 514.045 385.843C514.045 374.55 504.89 365.395 493.596 365.395Z" fill="#A3B5D6"/>
<path d="M738.978 610.775H207.318C196.025 610.775 186.87 619.93 186.87 631.224C186.87 642.517 196.025 651.672 207.318 651.672H738.978C750.271 651.672 759.426 642.517 759.426 631.224C759.426 619.93 750.271 610.775 738.978 610.775Z" fill="#E4EBF7"/>
<path d="M657.184 692.569H207.318C196.025 692.569 186.87 701.724 186.87 713.018C186.87 724.311 196.025 733.466 207.318 733.466H657.184C668.477 733.466 677.632 724.311 677.632 713.018C677.632 701.724 668.477 692.569 657.184 692.569Z" fill="#E4EBF7"/>
<path d="M575.39 528.982H207.318C196.025 528.982 186.87 538.137 186.87 549.431C186.87 560.724 196.025 569.879 207.318 569.879H575.39C586.683 569.879 595.839 560.724 595.839 549.431C595.839 538.137 586.683 528.982 575.39 528.982Z" fill="#E4EBF7"/>
<path d="M820.771 447.188H207.318C196.025 447.188 186.87 456.344 186.87 467.637C186.87 478.93 196.025 488.085 207.318 488.085H820.771C832.065 488.085 841.22 478.93 841.22 467.637C841.22 456.344 832.065 447.188 820.771 447.188Z" fill="#A3B5D6"/>
</svg>
