<?xml version="1.0" encoding="UTF-8"?><svg id="Layer_2" xmlns="http://www.w3.org/2000/svg" viewBox="0 0 287.72 243.9"><defs><style>.cls-1{fill:#fff;}.cls-2{fill:#b487f7;}.cls-3{fill:#6a1ee5;}</style></defs><g id="_Layer_"><g><path class="cls-2" d="M159.45,35.17c-1.52-.46-3.05-.91-4.58-1.33-26.96-7.51-59.26-11.95-86.62-4.51C37.81,37.61,13.38,59.89,4.12,90.29-4.54,118.73-.53,157.98,25.59,176.49c16.94,12.01,39.31,11.57,59.88,14.43,12.78,1.77,26.3,4.88,37.42,11.66,10.68,6.51,19.54,15.66,30.65,21.52,24.44,12.87,59.62,8.28,79.71-10.87,12.39-11.81,18.64-28.93,20.38-45.95,3.23-31.63-2.45-63.57-23.52-88.44-18.24-21.52-43.91-35.52-70.66-43.66Z"/><circle class="cls-2" cx="104.61" cy="224.59" r="19.31" transform="translate(-126.34 134.87) rotate(-43.79)"/><path class="cls-2" d="M166.98,34.75c8.53,6.4,20.63,4.67,27.03-3.86,6.4-8.53,4.67-20.63-3.86-27.03s-20.63-4.67-27.03,3.86c-6.4,8.53-4.67,20.63,3.85,27.03Z"/><path class="cls-1" d="M228.93,18.09H100.54V100.59H228.93c22.78,0,41.25-18.47,41.25-41.25s-18.47-41.25-41.25-41.25Z"/><path d="M228.93,101.32H100.54c-.4,0-.73-.33-.73-.73V18.09c0-.4,.33-.73,.73-.73H228.93c23.15,0,41.98,18.83,41.98,41.98s-18.83,41.98-41.98,41.98Zm-127.66-1.46h127.66c22.34,0,40.52-18.18,40.52-40.52s-18.18-40.52-40.52-40.52H101.26V99.86Z"/><circle class="cls-3" cx="100.54" cy="59.34" r="41.25" transform="translate(25.66 148.91) rotate(-80.66)"/><path d="M100.54,101.32c-23.15,0-41.98-18.83-41.98-41.98s18.83-41.98,41.98-41.98,41.98,18.83,41.98,41.98-18.83,41.98-41.98,41.98Zm0-82.5c-22.34,0-40.52,18.18-40.52,40.52s18.18,40.52,40.52,40.52,40.52-18.18,40.52-40.52-18.18-40.52-40.52-40.52Z"/><g><path class="cls-1" d="M228.93,118.55H100.54v82.5H228.93c22.78,0,41.25-18.47,41.25-41.25s-18.47-41.25-41.25-41.25Z"/><path d="M228.93,201.78H100.54c-.4,0-.73-.33-.73-.73V118.55c0-.4,.33-.73,.73-.73H228.93c23.15,0,41.98,18.83,41.98,41.98s-18.83,41.98-41.98,41.98Zm-127.66-1.46h127.66c22.34,0,40.52-18.18,40.52-40.52s-18.18-40.52-40.52-40.52H101.26v81.04Z"/><circle class="cls-1" cx="100.54" cy="159.8" r="41.25" transform="translate(-52.54 49.3) rotate(-22)"/><path d="M100.54,201.78c-23.15,0-41.98-18.83-41.98-41.98s18.83-41.98,41.98-41.98,41.98,18.83,41.98,41.98-18.83,41.98-41.98,41.98Zm0-82.5c-22.34,0-40.52,18.18-40.52,40.52s18.18,40.52,40.52,40.52,40.52-18.18,40.52-40.52-18.18-40.52-40.52-40.52Z"/></g><path class="cls-1" d="M93.09,71.5c-.18,0-.37-.07-.51-.21l-13.48-13.1c-.29-.28-.3-.74-.02-1.03,.28-.29,.74-.3,1.03-.02l12.98,12.61,27.6-26.29c.29-.28,.75-.27,1.03,.02,.28,.29,.27,.75-.02,1.03l-28.1,26.78c-.14,.13-.32,.2-.5,.2Z"/><path d="M43.64,122.77c-5.24,0-9.51-4.26-9.51-9.51s4.26-9.51,9.51-9.51,9.51,4.26,9.51,9.51-4.26,9.51-9.51,9.51Zm0-17.55c-4.44,0-8.05,3.61-8.05,8.05s3.61,8.05,8.05,8.05,8.05-3.61,8.05-8.05-3.61-8.05-8.05-8.05Z"/><g><path d="M119.99,179.99c-.19,0-.37-.07-.52-.21l-38.91-38.91c-.28-.28-.28-.75,0-1.03s.75-.29,1.03,0l38.91,38.91c.28,.28,.28,.75,0,1.03-.14,.14-.33,.21-.52,.21Z"/><path d="M81.08,179.99c-.19,0-.37-.07-.52-.21-.28-.28-.28-.75,0-1.03l38.91-38.91c.28-.29,.75-.29,1.03,0,.28,.28,.28,.75,0,1.03l-38.91,38.91c-.14,.14-.33,.21-.52,.21Z"/></g><g><path class="cls-1" d="M267.24,144.08c-1-.97-1.76-2.16-2.21-3.48-2.48-7.34-11.59-33.28-21.66-49.82-11.83-19.43-25.66-9.29-25.66-9.29-11.61-13.28-25.38-3.56-25.38-3.56-12.63-12-24.1-5.92-30.42-.42-22.26-38.6-30.77-46.64-39.97-42.57-11.29,4.99-11.35,14.07,2.19,39.59,4.18,7.87,21.92,39,21.92,39,0,0-9.75-8.76-25.62-8.75-16.9,.02-21.2,18.79-5.19,26.85,14.73,7.41,29.39,18.52,39.02,30.94,8.16,10.52,25.52,16.61,33.8,20.53,1.55,.73,2.85,1.91,3.73,3.38l11.43,19.03c12.97,21.6,41.13,28.38,62.51,15.06,24.95-15.54,28.6-50.41,7.42-70.78l-5.91-5.69Z"/><path d="M241.98,228.12c-3.6,0-7.23-.43-10.83-1.29-12.04-2.9-22.18-10.34-28.56-20.96l-11.43-19.03c-.81-1.35-1.99-2.42-3.42-3.1-1.44-.68-3.19-1.44-5.05-2.25-8.83-3.85-22.17-9.66-29.02-18.49-9.07-11.7-23.21-22.9-38.78-30.73-7.72-3.88-11.67-10.78-10.06-17.58,1.53-6.46,7.64-10.64,15.57-10.65,11.16,0,19.25,4.17,23.27,6.81-4.57-8.03-16.85-29.66-20.21-35.99-9.14-17.22-11.98-26.77-9.83-32.99,1.14-3.28,3.67-5.7,7.99-7.6,5.26-2.33,10.02-.7,15.91,5.45,5.92,6.18,13.28,17.17,24.55,36.67,6.16-5.09,17.68-11.01,30.31,.62,2.62-1.59,14.87-8,25.42,3.52,1.52-.93,5.98-3.23,11.58-2.12,5.5,1.09,10.4,5.12,14.58,11.99,10.08,16.55,19.18,42.43,21.73,49.96,.41,1.2,1.11,2.31,2.02,3.19l5.91,5.69c10.26,9.87,15.29,23.65,13.8,37.81-1.48,14.16-9.27,26.59-21.35,34.12-7.37,4.59-15.68,6.95-24.14,6.95ZM120.46,105.51c-7.27,0-12.82,3.74-14.19,9.52-1.45,6.11,2.2,12.37,9.29,15.94,15.76,7.92,30.07,19.28,39.27,31.14,6.62,8.53,19.75,14.26,28.45,18.04,1.87,.81,3.63,1.58,5.09,2.27,1.68,.8,3.08,2.06,4.04,3.66l11.43,19.03c6.17,10.28,15.99,17.48,27.65,20.29,11.66,2.81,23.68,.86,33.85-5.48,11.7-7.29,19.23-19.33,20.67-33.03,1.44-13.71-3.43-27.05-13.37-36.6l-5.91-5.69c-1.08-1.04-1.91-2.35-2.39-3.77-2.54-7.5-11.59-33.25-21.59-49.67-3.95-6.49-8.53-10.3-13.6-11.31-6.16-1.23-10.97,2.2-11.01,2.23-.31,.22-.73,.17-.98-.11-11.03-12.62-23.87-3.82-24.42-3.44-.28,.2-.67,.17-.92-.07-11.82-11.22-22.53-6.41-29.44-.4-.16,.14-.38,.21-.6,.17-.22-.04-.4-.17-.51-.36-21.22-36.79-29.98-46.28-39.04-42.27-3.92,1.73-6.21,3.88-7.2,6.75-1.98,5.72,.93,15.24,9.74,31.83,4.12,7.77,21.73,38.67,21.91,38.98,.18,.31,.1,.7-.18,.93-.28,.22-.68,.21-.94-.02-.1-.09-9.73-8.56-25.1-8.56Z"/><path d="M273.15,149.77l-5.05-4.86c2.3,17.97-5.5,36.82-22.45,47.38-15.74,9.8-34.88,9.48-49.87,.85l7.43,12.36c12.97,21.6,41.13,28.38,62.51,15.06,24.95-15.54,28.6-50.41,7.42-70.78Z"/><path d="M155.46,131.03c-.26,0-.5-.13-.64-.37l-9.41-16.78c-.2-.35-.07-.8,.28-.99,.35-.2,.8-.07,.99,.28l9.41,16.78c.2,.35,.07,.8-.28,.99-.11,.06-.24,.09-.36,.09Z"/><path d="M171.31,94.73c-.25,0-.5-.13-.63-.37l-9.41-16.49c-.2-.35-.08-.8,.27-.99,.35-.2,.8-.08,1,.27l9.41,16.49c.2,.35,.08,.8-.27,.99-.11,.06-.24,.1-.36,.1Z"/><path d="M201.96,95.01c-.25,0-.49-.13-.63-.36l-9.63-16.35c-.2-.35-.09-.79,.26-1,.35-.21,.79-.09,1,.26l9.63,16.35c.2,.35,.09,.79-.26,1-.12,.07-.24,.1-.37,.1Z"/><path d="M226.93,99.06c-.26,0-.51-.14-.64-.38l-9.22-16.84c-.19-.35-.06-.8,.29-.99,.35-.19,.8-.06,.99,.29l9.22,16.84c.19,.35,.06,.8-.29,.99-.11,.06-.23,.09-.35,.09Z"/></g></g></g></svg>