<svg xmlns="http://www.w3.org/2000/svg" viewBox="0 0 830 828.81"><defs><style>.cls-1{fill:#f1edce;}.cls-2{fill:#fff;}.cls-3{fill:#caddff;}.cls-4{fill:#d4dadd;}.cls-5{fill:#99b9ff;}.cls-6{fill:#a8b5ba;}.cls-7{fill:#264653;}.cls-8{fill:#e9c46a;}.cls-9{fill:#516b75;}</style></defs><g id="Layer_2" data-name="Layer 2"><g id="Illustration"><g id="UI_and_UX_design" data-name="UI and UX design"><path class="cls-1" d="M700.44,691.42c93.48-94.31,104.38-206.59,125-418.64,16.74-172.43-16.93-200.2-27.08-207.28C714.73,7.12,516.17,157.31,488,120.37,471.73,99.05,536.25,47,521.31,20.79,494.55-26.11,205.94-1.65,75.59,177.27c-125.94,172.86-98.78,482.57,113.71,603C363.56,879,585.83,807,700.44,691.42Z"/><path d="M809.41,189H529.78c-11.43,0-22.07,9.27-23.77,20.7L425.37,753.56c-1.7,11.43,6.19,20.69,17.62,20.69H722.62c11.43,0,22.07-9.26,23.77-20.69L827,209.74C828.73,198.31,820.84,189,809.41,189Z"/><path d="M722.62,775.76H443a19.14,19.14,0,0,1-14.8-6.51,19.53,19.53,0,0,1-4.31-15.91l80.65-543.82c1.8-12.12,13.12-22,25.25-22H809.41a19.16,19.16,0,0,1,14.8,6.5A19.56,19.56,0,0,1,828.52,210L747.87,753.78C746.07,765.9,734.75,775.76,722.62,775.76ZM529.78,190.54c-10.7,0-20.69,8.71-22.28,19.42L426.85,753.78a16.58,16.58,0,0,0,3.61,13.51A16.19,16.19,0,0,0,443,772.76H722.62c10.7,0,20.69-8.71,22.28-19.42l80.65-543.82A16.6,16.6,0,0,0,821.94,196a16.21,16.21,0,0,0-12.53-5.46Z"/><path class="cls-2" d="M798.31,189H518.68c-11.43,0-22.07,9.27-23.76,20.7L414.27,753.56c-1.69,11.43,6.2,20.69,17.63,20.69H711.52c11.44,0,22.07-9.26,23.77-20.69l80.65-543.82C817.63,198.31,809.74,189,798.31,189Z"/><path d="M711.52,775.76H431.9a19.16,19.16,0,0,1-14.81-6.51,19.56,19.56,0,0,1-4.3-15.91l80.64-543.82c1.8-12.12,13.13-22,25.25-22H798.31a19.15,19.15,0,0,1,14.8,6.5A19.56,19.56,0,0,1,817.42,210L736.77,753.78C735,765.9,723.65,775.76,711.52,775.76ZM518.68,190.54C508,190.54,498,199.25,496.4,210L415.75,753.78a16.59,16.59,0,0,0,3.62,13.51,16.17,16.17,0,0,0,12.53,5.47H711.52c10.7,0,20.7-8.71,22.29-19.42l80.64-543.82A16.61,16.61,0,0,0,810.84,196a16.21,16.21,0,0,0-12.53-5.46Z"/><path d="M577.39,189l-1.72,11.61c-1.83,12.33,6.69,22.33,19,22.33H712.24c12.33,0,23.81-10,25.64-22.33L739.6,189Z"/><path class="cls-3" d="M655,212.49a6.82,6.82,0,0,1-6.91-8.11,9.74,9.74,0,0,1,9.32-8.12,6.83,6.83,0,0,1,6.91,8.12A9.75,9.75,0,0,1,655,212.49Z"/><polygon class="cls-4" points="777.45 276.51 513.61 276.51 517.15 252.6 780.99 252.6 777.45 276.51"/><polygon class="cls-4" points="751.26 453.09 487.42 453.09 511.01 293.99 774.85 293.99 751.26 453.09"/><path class="cls-2" d="M768.22,264.55a6.92,6.92,0,0,1-6.61,5.76,4.85,4.85,0,0,1-4.9-5.76,6.91,6.91,0,0,1,6.61-5.75A4.84,4.84,0,0,1,768.22,264.55Z"/><polygon class="cls-4" points="734.93 563.23 471.09 563.23 485.8 464.04 749.63 464.04 734.93 563.23"/><polygon class="cls-4" points="718.07 676.9 454.23 676.9 468.94 577.71 732.78 577.71 718.07 676.9"/><polygon class="cls-3" points="706.19 757 442.35 757 452.08 691.39 715.92 691.39 706.19 757"/><polygon class="cls-4" points="706.19 757 442.35 757 452.08 691.39 715.92 691.39 706.19 757"/><ellipse class="cls-2" cx="610.36" cy="513.63" rx="34.14" ry="29.44" transform="translate(-186.41 552.55) rotate(-42.88)"/><ellipse class="cls-2" cx="593.5" cy="627.31" rx="34.14" ry="29.44" transform="translate(-268.26 571.47) rotate(-42.88)"/><path class="cls-2" d="M600.7,758.2A36.23,36.23,0,0,0,608.35,741c2.6-17.51-9.49-31.7-27-31.7s-33.81,14.19-36.41,31.7a28.8,28.8,0,0,0,2.54,17.22Z"/><path class="cls-2" d="M146.24,38.39,75.43,104.13a5.31,5.31,0,0,0-.74,6.94l60.85,86.37a5.3,5.3,0,0,0,8,.84l70.81-65.74a5.31,5.31,0,0,0,.74-6.94L154.19,39.22A5.3,5.3,0,0,0,146.24,38.39Z"/><path d="M139.88,201.2a5.79,5.79,0,0,1-.72,0,6.77,6.77,0,0,1-4.85-2.85L73.47,111.93a6.82,6.82,0,0,1,.94-8.9l70.81-65.74h0a6.81,6.81,0,0,1,10.2,1.07l60.84,86.38a6.82,6.82,0,0,1-.94,8.9l-70.81,65.74A6.79,6.79,0,0,1,139.88,201.2Zm7.38-161.71L76.45,105.23a3.82,3.82,0,0,0-.53,5l60.84,86.37a3.81,3.81,0,0,0,5.71.6l70.81-65.74a3.82,3.82,0,0,0,.53-5L153,40.09a3.81,3.81,0,0,0-5.71-.6Z"/><polygon class="cls-5" points="197.39 116.03 131.76 176.96 84.34 109.48 149.97 48.55 197.39 116.03"/><polygon class="cls-6" points="197.39 116.03 131.76 176.96 84.34 109.48 149.97 48.55 197.39 116.03"/><path class="cls-4" d="M159.28,87.23a6.72,6.72,0,0,0-7.42,6l-2.72,26.86a4.24,4.24,0,0,1-4.69,3.79l-9.55-1.06a6.72,6.72,0,0,0-7.42,6l-3,30.12,8,11.43,59.17-54.93L172.88,88.74Z"/><path class="cls-4" d="M129.28,94.56a11.73,11.73,0,0,1-1.51,14.93,8.45,8.45,0,0,1-13-1.44,11.73,11.73,0,0,1,1.51-14.93A8.45,8.45,0,0,1,129.28,94.56Z"/><path class="cls-2" d="M134.85,89.5,64,155.24a5.31,5.31,0,0,0-.74,6.94l60.85,86.38a5.31,5.31,0,0,0,7.95.84l70.81-65.75a5.31,5.31,0,0,0,.74-6.94L142.8,90.34A5.3,5.3,0,0,0,134.85,89.5Z"/><path d="M128.49,252.31q-.36,0-.72,0a6.82,6.82,0,0,1-4.85-2.86L62.08,163.05a6.83,6.83,0,0,1,.94-8.91L133.83,88.4h0A6.81,6.81,0,0,1,144,89.47l60.84,86.38a6.83,6.83,0,0,1-.93,8.9l-70.82,65.74A6.79,6.79,0,0,1,128.49,252.31ZM135.87,90.6,65.06,156.34a3.82,3.82,0,0,0-.53,5l60.84,86.37a3.82,3.82,0,0,0,5.71.61l70.81-65.75a3.81,3.81,0,0,0,.53-5L141.58,91.2a3.81,3.81,0,0,0-5.71-.6Z"/><polygon class="cls-5" points="186 167.15 120.37 228.08 72.95 160.59 138.59 99.66 186 167.15"/><polygon class="cls-6" points="186 167.15 120.37 228.08 72.95 160.59 138.59 99.66 186 167.15"/><path class="cls-4" d="M147.89,138.34a6.72,6.72,0,0,0-7.42,6l-2.72,26.85a4.25,4.25,0,0,1-4.69,3.8l-9.55-1.06a6.72,6.72,0,0,0-7.42,6l-3,30.13,8,11.42,59.17-54.93-18.75-26.69Z"/><ellipse class="cls-4" cx="110.62" cy="152.42" rx="10.61" ry="9.26" transform="translate(-49.28 251.91) rotate(-85.92)"/><path d="M110.46,164.53a8.72,8.72,0,0,1-1-.06,10.17,10.17,0,0,1-7.31-4.45,13.29,13.29,0,0,1,1.72-16.89,10.58,10.58,0,0,1,4.9-2.6,1.5,1.5,0,1,1,.63,2.93,7.46,7.46,0,0,0-3.49,1.87,10.21,10.21,0,0,0-1.3,13,7.27,7.27,0,0,0,5.16,3.19,7.12,7.12,0,0,0,5.61-2,9.83,9.83,0,0,0,3-6.22,1.5,1.5,0,1,1,3,.3,12.79,12.79,0,0,1-3.92,8.11A10.19,10.19,0,0,1,110.46,164.53Z"/><path d="M113.71,204.91h-.15a1.5,1.5,0,0,1-1.34-1.65L114.58,180a8.4,8.4,0,0,1,9.28-7.49l9.46,1a2.67,2.67,0,0,0,2-.58,2.63,2.63,0,0,0,1-1.79L139,144.37a8.41,8.41,0,0,1,9.28-7.5l2.51.28a1.5,1.5,0,1,1-.33,3l-2.51-.27a5.38,5.38,0,0,0-6,4.81l-2.72,26.77a5.58,5.58,0,0,1-2.06,3.82,5.65,5.65,0,0,1-4.18,1.23l-9.46-1.05a5.39,5.39,0,0,0-6,4.82l-2.36,23.31A1.5,1.5,0,0,1,113.71,204.91Z"/><path class="cls-2" d="M697.38,71.86H409.92a16,16,0,0,0-15.25,13.28L313.15,634.85c-1.09,7.33,4,13.28,11.31,13.28H611.92a16,16,0,0,0,15.26-13.28L708.7,85.14C709.78,77.8,704.72,71.86,697.38,71.86Z"/><path d="M611.92,649.63H324.46a12.81,12.81,0,0,1-9.9-4.36,13,13,0,0,1-2.89-10.64L393.19,84.92c1.19-8,8.7-14.56,16.73-14.56H697.38a12.79,12.79,0,0,1,9.91,4.36,13,13,0,0,1,2.89,10.64L628.66,635.07C627.47,643.1,620,649.63,611.92,649.63Zm-202-576.27a14.43,14.43,0,0,0-13.77,12L314.63,635.07a10.14,10.14,0,0,0,2.2,8.24,9.86,9.86,0,0,0,7.63,3.32H611.92a14.44,14.44,0,0,0,13.77-12L707.21,84.92A10.08,10.08,0,0,0,705,76.68a9.85,9.85,0,0,0-7.64-3.32Z"/><path d="M681.57,108.82H414.92a1.5,1.5,0,0,1,0-3H681.57a1.5,1.5,0,0,1,0,3Z"/><path class="cls-3" d="M432.25,93.79a4.78,4.78,0,0,1-4.57,4,3.35,3.35,0,0,1-3.39-4,4.79,4.79,0,0,1,4.57-4A3.35,3.35,0,0,1,432.25,93.79Z"/><path class="cls-3" d="M448.16,93.79a4.77,4.77,0,0,1-4.57,4,3.36,3.36,0,0,1-3.39-4,4.8,4.8,0,0,1,4.57-4A3.35,3.35,0,0,1,448.16,93.79Z"/><path class="cls-3" d="M464.08,93.79a4.79,4.79,0,0,1-4.57,4,3.35,3.35,0,0,1-3.39-4,4.78,4.78,0,0,1,4.57-4A3.36,3.36,0,0,1,464.08,93.79Z"/><path d="M683.77,95.29H661.36a1.5,1.5,0,0,1,0-3h22.41a1.5,1.5,0,0,1,0,3Z"/><path d="M651.28,95.29H517.79a1.5,1.5,0,0,1,0-3H651.28a1.5,1.5,0,0,1,0,3Z"/><path d="M493.38,95.29H473.62a1.5,1.5,0,0,1,0-3h19.76a1.5,1.5,0,0,1,0,3Z"/><path class="cls-2" d="M641,28H327.81a17.39,17.39,0,0,0-16.62,14.47l-88.83,599c-1.18,8,4.34,14.47,12.33,14.47H547.91a17.38,17.38,0,0,0,16.62-14.47l88.83-599C654.55,34.43,649,28,641,28Z"/><path d="M547.91,657.37H234.69a13.83,13.83,0,0,1-10.69-4.7,14.11,14.11,0,0,1-3.12-11.49l88.82-599c1.29-8.68,9.42-15.75,18.11-15.75H641a13.87,13.87,0,0,1,10.7,4.7,14.1,14.1,0,0,1,3.11,11.49L566,641.62C564.73,650.3,556.61,657.37,547.91,657.37ZM327.81,29.45a15.87,15.87,0,0,0-15.14,13.19l-88.82,599a11.12,11.12,0,0,0,2.42,9.09,10.9,10.9,0,0,0,8.42,3.66H547.91a15.87,15.87,0,0,0,15.14-13.19l88.83-599a11.19,11.19,0,0,0-2.42-9.09A10.9,10.9,0,0,0,641,29.45Z"/><polygon class="cls-2" points="591.92 283.72 300.95 283.72 330.17 86.71 621.14 86.71 591.92 283.72"/><path class="cls-4" d="M591.92,285.22h-12a1.5,1.5,0,0,1,0-3h12a1.5,1.5,0,0,1,0,3Zm-24,0h-12a1.5,1.5,0,0,1,0-3h12a1.5,1.5,0,0,1,0,3Zm-24,0h-12a1.5,1.5,0,0,1,0-3h12a1.5,1.5,0,0,1,0,3Zm-24,0h-12a1.5,1.5,0,0,1,0-3h12a1.5,1.5,0,0,1,0,3Zm-24,0h-12a1.5,1.5,0,0,1,0-3h12a1.5,1.5,0,1,1,0,3Zm-24,0h-12a1.5,1.5,0,0,1,0-3h12a1.5,1.5,0,1,1,0,3Zm-24,0h-12a1.5,1.5,0,0,1,0-3h12a1.5,1.5,0,1,1,0,3Zm-24,0h-12a1.5,1.5,0,0,1,0-3h12a1.5,1.5,0,1,1,0,3Zm-24,0h-12a1.5,1.5,0,0,1,0-3h12a1.5,1.5,0,1,1,0,3Zm-24,0h-12a1.5,1.5,0,0,1,0-3h12a1.5,1.5,0,1,1,0,3Zm-24,0h-12a1.5,1.5,0,0,1,0-3h12a1.5,1.5,0,1,1,0,3Zm-24,0h-12a1.5,1.5,0,0,1,0-3h12a1.5,1.5,0,1,1,0,3Zm-24,0h-3a1.51,1.51,0,0,1-1.14-.52,1.49,1.49,0,0,1-.34-1.2l1.32-8.93a1.5,1.5,0,0,1,3,.44l-1.07,7.21h1.23a1.5,1.5,0,1,1,0,3ZM593.14,277h-.22a1.5,1.5,0,0,1-1.26-1.71l1.76-11.87a1.5,1.5,0,1,1,3,.44l-1.76,11.87A1.49,1.49,0,0,1,593.14,277ZM304,264.42h-.23a1.51,1.51,0,0,1-1.26-1.71l1.76-11.87a1.5,1.5,0,0,1,3,.44l-1.76,11.87A1.49,1.49,0,0,1,304,264.42Zm292.62-11.14h-.22a1.5,1.5,0,0,1-1.26-1.71l1.76-11.87a1.5,1.5,0,1,1,3,.44L598.14,252A1.49,1.49,0,0,1,596.66,253.28Zm-289.1-12.6h-.23a1.52,1.52,0,0,1-1.26-1.71l1.76-11.87a1.5,1.5,0,0,1,3,.44L309,239.4A1.49,1.49,0,0,1,307.56,240.68Zm292.62-11.14H600a1.5,1.5,0,0,1-1.26-1.71L600.46,216a1.5,1.5,0,1,1,3,.44l-1.76,11.87A1.49,1.49,0,0,1,600.18,229.54Zm-289.1-12.6h-.22a1.52,1.52,0,0,1-1.27-1.71l1.76-11.87a1.5,1.5,0,0,1,3,.44l-1.76,11.87A1.49,1.49,0,0,1,311.08,216.94ZM603.7,205.8h-.22a1.5,1.5,0,0,1-1.26-1.71L604,192.21a1.5,1.5,0,0,1,3,.44l-1.76,11.87A1.49,1.49,0,0,1,603.7,205.8ZM314.6,193.2h-.22a1.52,1.52,0,0,1-1.27-1.71l1.76-11.87a1.5,1.5,0,0,1,3,.44l-1.76,11.87A1.49,1.49,0,0,1,314.6,193.2Zm292.62-11.14H607a1.51,1.51,0,0,1-1.26-1.71l1.76-11.87a1.5,1.5,0,1,1,3,.44l-1.76,11.87A1.49,1.49,0,0,1,607.22,182.06Zm-289.1-12.6a.82.82,0,0,1-.22,0,1.5,1.5,0,0,1-1.27-1.7l1.76-11.87a1.51,1.51,0,0,1,1.71-1.26,1.49,1.49,0,0,1,1.26,1.7l-1.76,11.87A1.49,1.49,0,0,1,318.12,169.46Zm292.62-11.14h-.22a1.51,1.51,0,0,1-1.26-1.71L611,144.73a1.5,1.5,0,0,1,3,.44L612.22,157A1.49,1.49,0,0,1,610.74,158.32Zm-289.1-12.6a.82.82,0,0,1-.22,0,1.5,1.5,0,0,1-1.27-1.7l1.76-11.87a1.51,1.51,0,0,1,1.71-1.26,1.49,1.49,0,0,1,1.26,1.7l-1.76,11.87A1.49,1.49,0,0,1,321.64,145.72Zm292.62-11.14H614a1.51,1.51,0,0,1-1.26-1.71L614.54,121a1.5,1.5,0,0,1,3,.44l-1.76,11.87A1.5,1.5,0,0,1,614.26,134.58ZM325.16,122l-.22,0a1.5,1.5,0,0,1-1.27-1.7l1.76-11.87a1.51,1.51,0,0,1,1.71-1.26,1.49,1.49,0,0,1,1.26,1.7l-1.76,11.87A1.5,1.5,0,0,1,325.16,122Zm292.63-11.14h-.23a1.51,1.51,0,0,1-1.26-1.71l1.76-11.87a1.5,1.5,0,0,1,3,.44l-1.76,11.87A1.49,1.49,0,0,1,617.79,110.84ZM328.68,98.24l-.22,0a1.5,1.5,0,0,1-1.27-1.7l1.49-10a1.5,1.5,0,0,1,1.49-1.28H332a1.5,1.5,0,0,1,0,3h-.56L330.16,97A1.5,1.5,0,0,1,328.68,98.24ZM620,88.21H608a1.5,1.5,0,0,1,0-3h12a1.5,1.5,0,0,1,0,3Zm-24,0H584a1.5,1.5,0,0,1,0-3h12a1.5,1.5,0,0,1,0,3Zm-24,0H560a1.5,1.5,0,0,1,0-3h12a1.5,1.5,0,0,1,0,3Zm-24,0H536a1.5,1.5,0,0,1,0-3h12a1.5,1.5,0,0,1,0,3Zm-24,0H512a1.5,1.5,0,0,1,0-3h12a1.5,1.5,0,0,1,0,3Zm-24,0H488a1.5,1.5,0,0,1,0-3h12a1.5,1.5,0,0,1,0,3Zm-24,0H464a1.5,1.5,0,0,1,0-3h12a1.5,1.5,0,0,1,0,3Zm-24,0H440a1.5,1.5,0,0,1,0-3h12a1.5,1.5,0,0,1,0,3Zm-24,0H416a1.5,1.5,0,0,1,0-3h12a1.5,1.5,0,0,1,0,3Zm-24,0H392a1.5,1.5,0,0,1,0-3h12a1.5,1.5,0,0,1,0,3Zm-24,0H368a1.5,1.5,0,0,1,0-3h12a1.5,1.5,0,0,1,0,3Zm-24,0H344a1.5,1.5,0,0,1,0-3h12a1.5,1.5,0,0,1,0,3Z"/><polygon class="cls-4" points="495.82 381.13 286.5 381.13 297.35 307.99 506.67 307.99 495.82 381.13"/><polygon class="cls-4" points="577.48 381.13 516.52 381.13 527.37 307.99 588.32 307.99 577.48 381.13"/><polygon class="cls-2" points="539.63 636.33 248.66 636.33 282.81 406.06 573.78 406.06 539.63 636.33"/><path class="cls-6" d="M539.63,637.83h-12a1.5,1.5,0,0,1,0-3h12a1.5,1.5,0,0,1,0,3Zm-24,0h-12a1.5,1.5,0,0,1,0-3h12a1.5,1.5,0,0,1,0,3Zm-24,0h-12a1.5,1.5,0,0,1,0-3h12a1.5,1.5,0,0,1,0,3Zm-24,0h-12a1.5,1.5,0,0,1,0-3h12a1.5,1.5,0,0,1,0,3Zm-24,0h-12a1.5,1.5,0,0,1,0-3h12a1.5,1.5,0,0,1,0,3Zm-24,0h-12a1.5,1.5,0,0,1,0-3h12a1.5,1.5,0,0,1,0,3Zm-24,0h-12a1.5,1.5,0,0,1,0-3h12a1.5,1.5,0,0,1,0,3Zm-24,0h-12a1.5,1.5,0,0,1,0-3h12a1.5,1.5,0,0,1,0,3Zm-24,0h-12a1.5,1.5,0,0,1,0-3h12a1.5,1.5,0,0,1,0,3Zm-24,0h-12a1.5,1.5,0,0,1,0-3h12a1.5,1.5,0,0,1,0,3Zm-24,0h-12a1.5,1.5,0,0,1,0-3h12a1.5,1.5,0,0,1,0,3Zm-24,0h-12a1.5,1.5,0,0,1,0-3h12a1.5,1.5,0,0,1,0,3Zm-24,0h-3a1.51,1.51,0,0,1-1.14-.52,1.54,1.54,0,0,1-.35-1.2l1.33-8.93a1.5,1.5,0,0,1,3,.44l-1.07,7.21h1.23a1.5,1.5,0,0,1,0,3Zm288.52-3.48h-.22a1.52,1.52,0,0,1-1.27-1.71l1.76-11.87a1.5,1.5,0,0,1,3,.44l-1.76,11.87A1.49,1.49,0,0,1,540.15,634.35ZM251.75,617h-.23a1.5,1.5,0,0,1-1.26-1.71L252,603.44a1.5,1.5,0,0,1,3,.44l-1.76,11.87A1.49,1.49,0,0,1,251.75,617Zm291.92-6.42a.82.82,0,0,1-.22,0,1.5,1.5,0,0,1-1.27-1.7L543.94,597a1.51,1.51,0,0,1,1.71-1.26,1.49,1.49,0,0,1,1.26,1.7l-1.76,11.87A1.49,1.49,0,0,1,543.67,610.61Zm-288.4-17.32H255a1.51,1.51,0,0,1-1.26-1.71l1.76-11.87a1.5,1.5,0,0,1,3,.44L256.75,592A1.49,1.49,0,0,1,255.27,593.29Zm291.92-6.42-.22,0a1.49,1.49,0,0,1-1.26-1.7l1.76-11.87a1.5,1.5,0,1,1,3,.44l-1.76,11.87A1.49,1.49,0,0,1,547.19,586.87Zm-288.4-17.32h-.23a1.52,1.52,0,0,1-1.26-1.71L259.06,556a1.5,1.5,0,0,1,3,.44l-1.76,11.87A1.49,1.49,0,0,1,258.79,569.55Zm291.92-6.42-.22,0a1.49,1.49,0,0,1-1.26-1.7L551,549.54a1.5,1.5,0,1,1,3,.44l-1.76,11.87A1.5,1.5,0,0,1,550.71,563.13Zm-288.4-17.32h-.22a1.52,1.52,0,0,1-1.27-1.71l1.76-11.87a1.5,1.5,0,0,1,3,.44l-1.76,11.87A1.49,1.49,0,0,1,262.31,545.81Zm291.92-6.42-.22,0a1.49,1.49,0,0,1-1.26-1.7l1.76-11.87a1.5,1.5,0,1,1,3,.44l-1.76,11.87A1.5,1.5,0,0,1,554.23,539.39Zm-288.4-17.32h-.22a1.52,1.52,0,0,1-1.27-1.71l1.76-11.87a1.5,1.5,0,0,1,3,.44l-1.76,11.87A1.49,1.49,0,0,1,265.83,522.07Zm291.92-6.42-.22,0a1.49,1.49,0,0,1-1.26-1.7L558,502.06a1.5,1.5,0,1,1,3,.44l-1.76,11.87A1.5,1.5,0,0,1,557.75,515.65Zm-288.4-17.32h-.22a1.52,1.52,0,0,1-1.27-1.71l1.76-11.87a1.5,1.5,0,0,1,3,.44l-1.76,11.87A1.49,1.49,0,0,1,269.35,498.33Zm291.92-6.42-.22,0a1.49,1.49,0,0,1-1.26-1.7l1.76-11.87a1.5,1.5,0,1,1,3,.44l-1.76,11.87A1.5,1.5,0,0,1,561.27,491.91Zm-288.4-17.32a.82.82,0,0,1-.22,0,1.5,1.5,0,0,1-1.27-1.7L273.14,461a1.51,1.51,0,0,1,1.71-1.26,1.49,1.49,0,0,1,1.26,1.7l-1.76,11.87A1.49,1.49,0,0,1,272.87,474.59Zm291.92-6.42-.22,0a1.49,1.49,0,0,1-1.26-1.7l1.76-11.87a1.5,1.5,0,1,1,3,.44l-1.76,11.87A1.51,1.51,0,0,1,564.79,468.17Zm-288.4-17.32-.22,0a1.5,1.5,0,0,1-1.27-1.7l1.76-11.87a1.51,1.51,0,0,1,1.71-1.26,1.49,1.49,0,0,1,1.26,1.7l-1.76,11.87A1.49,1.49,0,0,1,276.39,450.85Zm291.92-6.42-.22,0a1.49,1.49,0,0,1-1.26-1.7l1.76-11.87a1.5,1.5,0,1,1,3,.44l-1.76,11.87A1.51,1.51,0,0,1,568.31,444.43Zm-288.4-17.32-.22,0a1.5,1.5,0,0,1-1.27-1.7l1.77-11.87a1.5,1.5,0,1,1,3,.44l-1.76,11.87A1.5,1.5,0,0,1,279.91,427.11Zm291.93-6.42-.23,0a1.49,1.49,0,0,1-1.26-1.7l1.76-11.87a1.5,1.5,0,1,1,3,.44l-1.76,11.87A1.5,1.5,0,0,1,571.84,420.69Zm-8.79-13.13h-12a1.5,1.5,0,0,1,0-3h12a1.5,1.5,0,0,1,0,3Zm-24,0h-12a1.5,1.5,0,0,1,0-3h12a1.5,1.5,0,0,1,0,3Zm-24,0h-12a1.5,1.5,0,0,1,0-3h12a1.5,1.5,0,0,1,0,3Zm-24,0h-12a1.5,1.5,0,0,1,0-3h12a1.5,1.5,0,0,1,0,3Zm-24,0h-12a1.5,1.5,0,0,1,0-3h12a1.5,1.5,0,0,1,0,3Zm-24,0h-12a1.5,1.5,0,0,1,0-3h12a1.5,1.5,0,0,1,0,3Zm-24,0h-12a1.5,1.5,0,0,1,0-3h12a1.5,1.5,0,0,1,0,3Zm-24,0h-12a1.5,1.5,0,0,1,0-3h12a1.5,1.5,0,0,1,0,3Zm-24,0h-12a1.5,1.5,0,0,1,0-3h12a1.5,1.5,0,0,1,0,3Zm-24,0h-12a1.5,1.5,0,0,1,0-3h12a1.5,1.5,0,0,1,0,3Zm-24,0h-12a1.5,1.5,0,0,1,0-3h12a1.5,1.5,0,0,1,0,3Zm-24,0h-12a1.5,1.5,0,0,1,0-3h12a1.5,1.5,0,0,1,0,3Z"/><path d="M623.8,68.09H333.26a1.5,1.5,0,0,1,0-3H623.8a1.5,1.5,0,0,1,0,3Z"/><path class="cls-4" d="M352.13,51.85a5.2,5.2,0,0,1-5,4.34,3.65,3.65,0,0,1-3.7-4.34,5.22,5.22,0,0,1,5-4.33A3.64,3.64,0,0,1,352.13,51.85Z"/><path class="cls-4" d="M369.47,51.85a5.2,5.2,0,0,1-5,4.34,3.65,3.65,0,0,1-3.7-4.34,5.22,5.22,0,0,1,5-4.33A3.64,3.64,0,0,1,369.47,51.85Z"/><path class="cls-4" d="M386.82,51.85a5.22,5.22,0,0,1-5,4.34,3.65,3.65,0,0,1-3.7-4.34,5.22,5.22,0,0,1,5-4.33A3.65,3.65,0,0,1,386.82,51.85Z"/><path d="M626.2,53.35H601.78a1.5,1.5,0,0,1,0-3H626.2a1.5,1.5,0,0,1,0,3Z"/><path d="M590.8,53.35H445.34a1.5,1.5,0,0,1,0-3H590.8a1.5,1.5,0,0,1,0,3Z"/><path d="M418.75,53.35H397.22a1.5,1.5,0,0,1,0-3h21.53a1.5,1.5,0,0,1,0,3Z"/><path d="M300.18,319.78c-21.51-23.29-53.5-28.19-77.54-21.62-30.43,8.31-45.77,34.63-56.59,53.19-19.13,32.82-9.89,44.7-24.92,63.77-26.63,33.76-68.36,12.65-100.81,37.32-49.5,37.62-56.23,165.3,10.75,213.91C95.74,698.77,156.5,680,173,674.92c50.17-15.49,112.59-58.7,121.55-117.27,7.41-48.44-24.51-88.73,2.2-129.33,6.8-10.34,12.43-13.15,17.49-26.08C322.47,381.25,324.32,345.9,300.18,319.78Z"/><path d="M235.3,325.52c11.43-9.28,4.2-36.62-3.12-51.38-2.74-5.53-15-30.27-31.14-29.31-16.57,1-32.44,28.81-26.53,50.85C181.91,323.23,221.91,336.38,235.3,325.52Z"/><path class="cls-2" d="M423.21,709.69s-114.95-200.37-130.77-210,0,91.79,0,91.79l85.84,143.3Z"/><path d="M378.28,736.29a1.5,1.5,0,0,1-1.29-.73L291.15,592.27a1.52,1.52,0,0,1-.19-.54c0-.22-3.36-21.63-5.42-43.59-3.8-40.54-.24-47.9,2.76-49.91,1-.67,2.66-1.18,4.92.19,16,9.71,126.59,202.33,131.29,210.52a1.54,1.54,0,0,1,.15,1.15,1.5,1.5,0,0,1-.72.91L379,736.1A1.47,1.47,0,0,1,378.28,736.29ZM293.88,591l84.94,141.79,42.34-23.65C381.23,639.58,303.84,508.39,291.66,501c-1.09-.66-1.51-.38-1.69-.26-1.66,1.11-5.12,7.92-1.44,47.14C290.45,568.34,293.47,588.36,293.88,591Z"/><path class="cls-7" d="M122.74,495.65s78.85-38.68,169.7,4.05c0,0,77.83,262.49,83.32,289.79s-31.13,26-66.23,20.38-121.3-5.55-157.42,14.32S112.29,795.43,116.35,763,122.74,495.65,122.74,495.65Z"/><path class="cls-2" d="M129.26,706.43l112.57-67.11L303,659.79a13.6,13.6,0,0,1-14.06,3c-8.7-2.86-21-2.08-29.65,5s-20.53,0-20.53,0S167.18,773.85,104.11,776c-51.28,1.78-23.26-178.33-11-245.77a45.11,45.11,0,0,1,28.29-34L140.3,489Z"/><path d="M103.36,777.55c-6.2,0-11.53-2.54-15.87-7.57-29.47-34.1-6.9-179.19,4.17-240a46.84,46.84,0,0,1,29.23-35.16l18.88-7.2a1.49,1.49,0,0,1,1.41.19,1.53,1.53,0,0,1,.62,1.29L130.9,703.7,241.06,638a1.5,1.5,0,0,1,1.24-.13l61.15,20.47a1.47,1.47,0,0,1,1,1,1.5,1.5,0,0,1-.34,1.39,15,15,0,0,1-15.64,3.44c-7.95-2.61-19.77-2.15-28.23,4.77-7.79,6.37-17.57,2.5-21,.8a458.44,458.44,0,0,1-43.06,52.36c-34.48,35.82-65.43,54.44-92,55.36Zm35.33-286.29L122,497.64a43.8,43.8,0,0,0-27.35,32.89C83.62,590.9,61.14,734.9,89.76,768c4,4.58,8.63,6.71,14.29,6.51C165.64,772.4,236.78,668.07,237.49,667a1.5,1.5,0,0,1,2-.44c.1.06,11,6.47,18.8.12,9.35-7.64,22.34-8.16,31.06-5.3a12.25,12.25,0,0,0,10.49-1.06L242,641,130,707.72a1.51,1.51,0,0,1-2.27-1.37Z"/><path d="M431,731.83l-164.31,6.64a7.11,7.11,0,0,1-6.06-10.83l82.88-134.95a11.2,11.2,0,0,1,9.54-5.34l166.09,3.8Z"/><path d="M266.78,740a8.61,8.61,0,0,1-7.39-13.12l82.88-135a12.8,12.8,0,0,1,10.82-6l168.77,3.86-90,143.58L266.79,740Zm86.27-151.12a9.73,9.73,0,0,0-8.22,4.62L261.94,728.42a5.62,5.62,0,0,0,4.79,8.55l163.46-6.61,86.32-137.77Z"/><polygon class="cls-6" points="442.87 738.47 265.51 738.47 358.32 587.35 535.68 587.35 442.87 738.47"/><path d="M442.87,740H265.51a1.5,1.5,0,0,1-1.31-.77,1.48,1.48,0,0,1,0-1.52L357,586.57a1.51,1.51,0,0,1,1.28-.72H535.68a1.5,1.5,0,0,1,1.31.77,1.48,1.48,0,0,1,0,1.52L444.15,739.25A1.51,1.51,0,0,1,442.87,740Zm-174.68-3H442l91-148.12H359.16Z"/><path class="cls-2" d="M447,731.83s-3.34-17.47,0-29.12,24-46.3,29.9-53.56S487.77,719.33,447,731.83Z"/><path d="M447,733.33a1.56,1.56,0,0,1-.78-.22,1.51,1.51,0,0,1-.7-1c-.13-.73-3.36-18,0-29.81,3.34-11.67,23.95-46.44,30.19-54.09a2.33,2.33,0,0,1,2.7-.9c4.33,1.62,3.92,19.43,3.86,21.46-.78,26.26-10.35,57-34.86,64.49A1.39,1.39,0,0,1,447,733.33Zm30.63-82.67c-6.55,8.5-26.09,41.63-29.19,52.46-2.6,9.11-1,22.12-.25,26.73,17.3-6.25,24.95-24.73,28.33-39.36C480.87,671.43,479.29,654.38,477.58,650.66Z"/><path class="cls-2" d="M255.19,438.75a13.32,13.32,0,0,0,15.4-2.49A77.85,77.85,0,0,0,282,421.63l5.87.12a3.45,3.45,0,0,0,3.52-3.3l1-22.91c13.49-22,2.87-33.8,2.87-33.8-1-11.29-29.5-18-45.46,3.74-10.83,14.75-26.41,0-26.41,0s-8.15-22-17.69-8.47,9.37,37.32,9.37,37.32L201,454.54a43.07,43.07,0,0,1-26.51,30.37l-13.58,5.2s21.21,69.47,81.27,68.18c45.84-1,26.07-62.93,26.07-62.93l-6-2.65a36,36,0,0,1-20.58-40.9l4-17.83Z"/><path d="M250.48,440a1.51,1.51,0,0,1-.65-.15c-17.53-8.52-19.21-29.16-19.27-30a1.5,1.5,0,1,1,3-.21c0,.19,1.64,19.8,17.59,27.55a1.5,1.5,0,0,1-.66,2.85Z"/><path class="cls-8" d="M601,267.53H579.56a6.89,6.89,0,0,0-6.79,7v22a6.89,6.89,0,0,0,6.79,7H601a6.9,6.9,0,0,0,6.8-7v-22A6.9,6.9,0,0,0,601,267.53Z"/><path d="M601,305H579.56a8.35,8.35,0,0,1-8.23-8.45v-22a8.36,8.36,0,0,1,8.23-8.46H601a8.36,8.36,0,0,1,8.23,8.46v22A8.35,8.35,0,0,1,601,305Zm-21.42-36a5.44,5.44,0,0,0-5.36,5.5v22a5.44,5.44,0,0,0,5.36,5.5H601a5.44,5.44,0,0,0,5.36-5.5v-22A5.44,5.44,0,0,0,601,269Z"/><path class="cls-9" d="M739.62,388.1,729,339.29a6.58,6.58,0,0,0-3.92-3.89L596.88,281c-5.13-1.84-10,3.22-8.26,8.49l52.94,131.78a6.59,6.59,0,0,0,3.79,4l47.5,10.89a6.38,6.38,0,0,0,6.92-1.51l38.38-39.44A6.81,6.81,0,0,0,739.62,388.1Zm-49-2.31a20.88,20.88,0,0,1-30.1,0,22.3,22.3,0,0,1,0-30.93,20.88,20.88,0,0,1,30.1,0A22.29,22.29,0,0,1,690.6,385.79Z"/><path d="M695.18,438.09a7.67,7.67,0,0,1-2.74-.5L645,426.72l-.21-.06a8,8,0,0,1-4.63-4.91L587.29,290a8.25,8.25,0,0,1,1.85-8.51,7.71,7.71,0,0,1,8.21-1.94L725.66,334a8,8,0,0,1,4.71,4.73.83.83,0,0,1,.06.21L741,387.68a8.31,8.31,0,0,1-1.83,8.58l-38.38,39.45A7.86,7.86,0,0,1,695.18,438.09Zm-49.4-14.22,47.38,10.85.21.07a5,5,0,0,0,5.38-1.17l38.39-39.45a5.31,5.31,0,0,0,1.14-5.53.83.83,0,0,1-.06-.21l-10.57-48.7a5.13,5.13,0,0,0-3-2.94L596.33,282.36a4.8,4.8,0,0,0-5.16,1.26A5.19,5.19,0,0,0,590,289L642.89,420.7A5.23,5.23,0,0,0,645.78,423.87Zm29.77-30.21a22.33,22.33,0,0,1-16.06-6.82,23.83,23.83,0,0,1,0-33,22.32,22.32,0,0,1,32.13,0,23.83,23.83,0,0,1,0,33h0A22.35,22.35,0,0,1,675.55,393.66Zm0-43.71a19.49,19.49,0,0,0-14,6,20.81,20.81,0,0,0,0,28.84,19.49,19.49,0,0,0,28.06,0h0a20.81,20.81,0,0,0,0-28.84A19.53,19.53,0,0,0,675.55,350Zm15.05,35.84h0Z"/><path d="M768.82,428.8l-36.37,37.37a10,10,0,0,1-14.48,0l-9.34-9.6a10.73,10.73,0,0,1,0-14.88L745,404.32a10,10,0,0,1,14.48,0l9.35,9.6A10.73,10.73,0,0,1,768.82,428.8Z"/><path d="M648.35,343.85a1.38,1.38,0,0,1-1-.44c-20.19-21-50.77-52.73-53.27-54.82a2,2,0,0,1-.34-.26,1.51,1.51,0,0,1,0-2.09,1.43,1.43,0,0,1,1-.44h0c.86,0,1.07,0,28.1,28,13.16,13.61,26.39,27.41,26.52,27.55a1.51,1.51,0,0,1,0,2.09A1.43,1.43,0,0,1,648.35,343.85Zm-52.59-55.52a1.48,1.48,0,0,1-.81.42A1.42,1.42,0,0,0,595.76,288.33Z"/><path d="M607.5,211.81a1.47,1.47,0,0,1-1.06-.44,1.49,1.49,0,0,1,0-2.12l82.12-82.12a19,19,0,0,1,26.88,0,16,16,0,0,0,22.62,0L766.19,99a1.51,1.51,0,0,1,2.12,0,1.49,1.49,0,0,1,0,2.12l-28.12,28.13a19,19,0,0,1-26.88,0,16,16,0,0,0-22.62,0l-82.13,82.12A1.47,1.47,0,0,1,607.5,211.81Z"/><path d="M495,216.31a1.47,1.47,0,0,1-1.06-.44,1.49,1.49,0,0,1,0-2.12l27-27a1.51,1.51,0,0,1,2.12,0,1.49,1.49,0,0,1,0,2.12l-27,27A1.47,1.47,0,0,1,495,216.31Z"/><path d="M414,297.31a1.47,1.47,0,0,1-1.06-.44,1.49,1.49,0,0,1,0-2.12l63-63a1.51,1.51,0,0,1,2.12,0,1.49,1.49,0,0,1,0,2.12l-63,63A1.47,1.47,0,0,1,414,297.31Z"/><path d="M396,315.31a1.47,1.47,0,0,1-1.06-.44,1.49,1.49,0,0,1,0-2.12l9-9a1.51,1.51,0,0,1,2.12,0,1.49,1.49,0,0,1,0,2.12l-9,9A1.47,1.47,0,0,1,396,315.31Z"/><path d="M405,558.31a1.47,1.47,0,0,1-1.06-.44,1.49,1.49,0,0,1,0-2.12l117-117a1.51,1.51,0,0,1,2.12,0,1.49,1.49,0,0,1,0,2.12l-117,117A1.47,1.47,0,0,1,405,558.31Z"/><path d="M63,378.31a1.47,1.47,0,0,1-1.06-.44,1.49,1.49,0,0,1,0-2.12l85.5-85.5a1.51,1.51,0,0,1,2.12,0,1.49,1.49,0,0,1,0,2.12l-85.5,85.5A1.47,1.47,0,0,1,63,378.31Z"/><path d="M485.46,190.37a11,11,0,1,1,0-22.06,1.5,1.5,0,0,1,0,3,8,8,0,1,0,8,8,1.5,1.5,0,0,1,3,0A11,11,0,0,1,485.46,190.37Z"/><path d="M461.89,550a1.49,1.49,0,0,1-1.09-2.53l4.73-4.94a1.5,1.5,0,0,1,2.16,2.08L463,549.58A1.48,1.48,0,0,1,461.89,550Z"/><path d="M445.37,567.31a1.52,1.52,0,0,1-1-.41,1.5,1.5,0,0,1-.05-2.12l4.72-4.94a1.5,1.5,0,0,1,2.17,2.08l-4.72,4.93A1.48,1.48,0,0,1,445.37,567.31Z"/><path d="M450,550.31a1.52,1.52,0,0,1-1.05-.43l-4.8-4.73a1.5,1.5,0,1,1,2.11-2.13l4.79,4.72a1.5,1.5,0,0,1-1.05,2.57Z"/><path d="M466.77,566.84a1.52,1.52,0,0,1-1-.43l-4.8-4.73a1.51,1.51,0,0,1,0-2.12,1.49,1.49,0,0,1,2.12,0l4.79,4.72a1.5,1.5,0,0,1-1.05,2.57Z"/><path d="M503.82,517.39a10.56,10.56,0,0,1-3.82-.72,10.72,10.72,0,0,1-6-5.8,11,11,0,0,1,5.47-14.33,10.45,10.45,0,0,1,8.12-.21,10.72,10.72,0,0,1,6,5.79,11,11,0,0,1-5.47,14.33A10.53,10.53,0,0,1,503.82,517.39Zm0-18.78a7.37,7.37,0,0,0-3.08.67h0a8,8,0,0,0-4,10.41,7.72,7.72,0,0,0,4.31,4.18,7.46,7.46,0,0,0,5.81-.15,8,8,0,0,0,3.94-10.41,7.72,7.72,0,0,0-4.31-4.18A7.34,7.34,0,0,0,503.81,498.61Zm-3.7-.7h0Z"/><path d="M780.55,94.69a7.94,7.94,0,0,1-2.87-.54,8.06,8.06,0,0,1-4.5-4.36A8.26,8.26,0,0,1,777.29,79a7.9,7.9,0,0,1,6.13-.16,8.09,8.09,0,0,1,4.5,4.36A8.27,8.27,0,0,1,783.8,94,7.86,7.86,0,0,1,780.55,94.69Zm0-13.38a4.9,4.9,0,0,0-2,.44,5.24,5.24,0,0,0-2.6,6.85,5.09,5.09,0,0,0,2.83,2.75,4.89,4.89,0,0,0,3.81-.1,5.24,5.24,0,0,0,2.59-6.85,5.06,5.06,0,0,0-2.83-2.75A4.81,4.81,0,0,0,780.55,81.31Z"/></g></g></g></svg>