<svg width="234" height="443" viewBox="0 0 234 443" fill="none" xmlns="http://www.w3.org/2000/svg">
<g clip-path="url(#clip0_903_11985)">
<path d="M82.4037 317.102L58.8794 334.547H176.315L152.661 317.102H82.4037Z" fill="#E4EBF7"/>
<path d="M152.661 334.531L176.315 334.547L152.661 317.102V334.531Z" fill="#A3B5D6"/>
<path d="M78.9733 286.096L99.0237 400.864C99.4822 403.491 101.988 405.252 104.615 404.791L113.542 403.232C116.169 402.771 117.93 400.268 117.469 397.641L97.4216 282.873L78.9733 286.096Z" fill="#FFA940"/>
<path d="M81.6785 266.626L78.976 286.107L97.4216 282.884L88.7881 265.385L81.6785 266.626Z" fill="#FFE7BA"/>
<path d="M83.7955 258.084C83.6336 258.111 83.5042 258.24 83.4745 258.402L81.9048 266.599L88.6476 265.42L84.2135 258.267C84.138 258.149 84.0085 258.076 83.871 258.076C83.844 258.076 83.8197 258.079 83.7955 258.084Z" fill="#253368"/>
<path d="M84.5398 285.19L105.41 404.654L112.94 403.338L92.0728 283.871L84.5398 285.19Z" fill="#FE9921"/>
<path d="M110.211 395.61L109.893 404.751C109.793 407.577 112.005 409.948 114.831 410.045C117.658 410.145 120.029 407.933 120.128 405.109L120.444 395.966L110.214 395.61H110.211Z" fill="#253368"/>
<path d="M119.581 258.812L119.017 262.046C118.893 262.753 119.37 263.43 120.077 263.551C120.786 263.675 121.461 263.2 121.585 262.491L122.148 259.257C122.272 258.548 121.798 257.874 121.088 257.75C121.013 257.739 120.937 257.731 120.862 257.731C120.241 257.731 119.691 258.176 119.581 258.812Z" fill="#50548B"/>
<path d="M91.0451 387.203C90.5839 389.833 92.3478 392.336 94.9775 392.794L100.272 393.717C102.902 394.173 105.405 392.414 105.86 389.784L125.215 278.663L110.397 276.082L91.0451 387.203Z" fill="#597EF7"/>
<path d="M118.267 262.019L110.397 276.082L125.223 278.666L122.331 262.715C122.269 262.381 122.005 262.116 121.668 262.062L119.111 261.617C119.065 261.609 119.019 261.606 118.974 261.606C118.685 261.606 118.413 261.76 118.267 262.019Z" fill="#E4EBF7"/>
<path d="M56.49 273.873L51.3924 277.417C50.8099 277.822 50.5941 278.582 50.8773 279.232L53.9682 286.31C54.2945 287.065 55.1738 287.407 55.929 287.078L61.5093 284.643C62.2645 284.311 62.6098 283.435 62.2807 282.679L58.7097 274.496C58.5317 274.089 58.1784 273.782 57.7469 273.66C57.6174 273.625 57.4798 273.606 57.3477 273.606C57.0429 273.606 56.7462 273.695 56.49 273.873Z" fill="#FF7946"/>
<path d="M55.6294 306.387L94.2737 394.923L115.179 385.798L76.5348 297.263L55.6294 306.387Z" fill="#FF7946"/>
<path d="M55.6294 306.387L59.0143 314.136L79.9197 305.014L76.5348 297.263L55.6294 306.387Z" fill="#253368"/>
<path d="M53.0321 285.044L53.55 301.616L55.6294 306.387L76.5348 297.262L74.4688 292.529L62.0081 281.125L53.0321 285.044Z" fill="#E4EBF7"/>
<path d="M53.5446 301.699L55.6267 306.468L76.5294 297.341L74.4472 292.575L53.5446 301.699Z" fill="#F5F5F5"/>
<path d="M81.2653 322.607L70.1747 323.373C69.8996 323.392 69.6488 323.546 69.5059 323.783C69.3602 324.018 69.3413 324.312 69.4519 324.568L69.5247 324.733C69.6704 325.064 70.0075 325.269 70.3689 325.242L74.1044 324.967C74.4659 324.94 74.8057 325.148 74.9513 325.48L75.9007 327.656C77.074 330.345 79.0051 331.567 81.6186 331.327C84.2321 331.09 84.9604 329.652 83.8249 327.049L82.1068 323.12C81.9692 322.807 81.6591 322.607 81.3192 322.607C81.3031 322.607 81.2842 322.607 81.2653 322.607ZM78.9215 329.115C78.436 328.775 78.0018 328.206 77.6539 327.408L76.9931 325.895C76.8825 325.641 76.9014 325.35 77.0443 325.113C77.1873 324.875 77.4381 324.722 77.7132 324.703L80.2377 324.517C80.5991 324.492 80.9362 324.695 81.0819 325.026L81.9665 327.057C82.3064 327.832 82.3819 328.43 82.2174 328.821C82.0502 329.212 81.6024 329.458 80.8284 329.525C80.7016 329.536 80.5721 329.541 80.4508 329.541C79.8439 329.541 79.3234 329.401 78.9215 329.115Z" fill="white"/>
<path d="M85.5783 332.535L74.6118 333.585C74.3421 333.612 74.0967 333.765 73.9591 334C73.8189 334.235 73.8027 334.523 73.9079 334.771L76.8154 341.431C76.9664 341.773 77.3224 341.978 77.6946 341.935C77.9616 341.905 78.2017 341.746 78.3365 341.514C78.4714 341.279 78.4876 340.996 78.377 340.748L76.489 336.417C76.3838 336.166 76.4 335.88 76.5376 335.645C76.6751 335.413 76.9179 335.257 77.1876 335.233L79.2644 335.044C79.6312 335.009 79.9764 335.211 80.1247 335.548L82.1395 340.16C82.2905 340.503 82.6492 340.71 83.0214 340.67C83.2885 340.638 83.5258 340.478 83.6634 340.244C83.7955 340.012 83.8117 339.726 83.7038 339.478L82.1287 335.869C82.0208 335.618 82.0397 335.332 82.1772 335.1C82.3148 334.868 82.5575 334.712 82.8273 334.685L84.575 334.51C84.9418 334.475 85.2897 334.674 85.4381 335.011L87.5769 339.907C87.7279 340.252 88.0839 340.454 88.4561 340.411C88.7259 340.379 88.9659 340.222 89.0981 339.985C89.2329 339.745 89.2464 339.459 89.1304 339.211L86.436 333.04C86.2984 332.727 85.9937 332.53 85.6592 332.53C85.6323 332.53 85.6053 332.533 85.5783 332.535Z" fill="white"/>
<path d="M59.1901 355.841V412.038C59.1901 414.463 61.1563 416.429 63.581 416.429H171.868C174.292 416.429 176.259 414.463 176.259 412.038V355.841H59.1901Z" fill="#597EF7"/>
<path d="M59.1895 343.024V375.767L176.258 366.43V343.024H59.1895Z" fill="#3D60E0"/>
<g clip-path="url(#clip1_903_11985)">
<path d="M126.225 341.73C133.316 345.824 142.509 343.191 146.746 335.853L154.421 322.559L141.575 315.142C134.484 311.048 125.29 313.681 121.054 321.019C116.817 328.358 119.134 337.636 126.225 341.73Z" fill="#0ACF83"/>
<path d="M151.832 267.709C156.083 260.347 165.288 257.694 172.379 261.788L185.226 269.204L169.824 295.882L156.977 288.465C149.886 284.371 147.581 275.072 151.832 267.709Z" fill="#F24E1E"/>
<path d="M185.226 269.205L198.072 276.621C205.163 280.715 207.468 290.014 203.217 297.377C198.966 304.74 189.761 307.393 182.67 303.299L169.824 295.882L185.226 269.205Z" fill="#FF7262"/>
<path d="M187.867 323.964C183.616 331.327 174.411 333.98 167.319 329.886C160.228 325.792 157.923 316.494 162.174 309.131C166.425 301.768 175.63 299.115 182.722 303.209C189.813 307.303 192.118 316.602 187.867 323.964Z" fill="#1ABCFE"/>
<path d="M136.482 294.297C140.733 286.934 149.938 284.281 157.029 288.376L169.875 295.792L154.473 322.47L141.627 315.053C134.536 310.959 132.231 301.66 136.482 294.297Z" fill="#A259FF"/>
</g>
<path d="M58.8875 334.547L47.4652 359.676C47.0309 360.585 47.0903 361.651 47.6243 362.503C48.161 363.353 49.0969 363.87 50.1002 363.873H184.916C185.943 363.873 186.898 363.334 187.427 362.452C187.955 361.57 187.985 360.475 187.505 359.571L176.315 334.547H58.8875Z" fill="#E4EBF7"/>
</g>
<path fill-rule="evenodd" clip-rule="evenodd" d="M214.43 55.3093H12.6173V41.6828C12.6173 38.7269 15.075 36.3303 18.1064 36.3303H208.941C211.972 36.3303 214.43 38.7269 214.43 41.6828V55.3093Z" fill="#253368"/>
<path fill-rule="evenodd" clip-rule="evenodd" d="M26.7685 45.241C26.7685 47.096 25.2357 48.6001 23.3448 48.6001C21.4542 48.6001 19.9216 47.096 19.9216 45.241C19.9216 43.3859 21.4542 41.8818 23.3448 41.8818C25.2357 41.8818 26.7685 43.3859 26.7685 45.241Z" fill="#FF7946"/>
<path fill-rule="evenodd" clip-rule="evenodd" d="M39.5506 45.241C39.5506 47.096 38.018 48.6001 36.1272 48.6001C34.2366 48.6001 32.704 47.096 32.704 45.241C32.704 43.3859 34.2366 41.8818 36.1272 41.8818C38.018 41.8818 39.5506 43.3859 39.5506 45.241Z" fill="#FAAD14"/>
<path fill-rule="evenodd" clip-rule="evenodd" d="M52.333 45.241C52.333 47.096 50.8004 48.6001 48.9095 48.6001C47.0189 48.6001 45.4863 47.096 45.4863 45.241C45.4863 43.3859 47.0189 41.8818 48.9095 41.8818C50.8004 41.8818 52.333 43.3859 52.333 45.241Z" fill="#7CB305"/>
<path fill-rule="evenodd" clip-rule="evenodd" d="M18.5352 191.055C15.1551 191.055 12.4146 188.591 12.4146 185.551V54.5122H214.498V185.551C214.498 188.591 211.757 191.055 208.377 191.055H18.5352Z" fill="#E4EBF7"/>
<path d="M200.217 64.5251H28.5156C27.1642 64.5251 26.0687 65.6206 26.0687 66.972V176.774C26.0687 178.126 27.1642 179.221 28.5156 179.221H200.217C201.568 179.221 202.664 178.126 202.664 176.774V66.972C202.664 65.6206 201.568 64.5251 200.217 64.5251Z" fill="white"/>
<path d="M178.086 89.103H90.699C89.6935 89.103 88.8784 89.9181 88.8784 90.9236V100.026C88.8784 101.032 89.6935 101.847 90.699 101.847H178.086C179.092 101.847 179.907 101.032 179.907 100.026V90.9236C179.907 89.9181 179.092 89.103 178.086 89.103Z" fill="#FAAD14"/>
<path d="M178.086 133.707H145.316C144.311 133.707 143.495 134.522 143.495 135.527V144.63C143.495 145.636 144.311 146.451 145.316 146.451H178.086C179.092 146.451 179.907 145.636 179.907 144.63V135.527C179.907 134.522 179.092 133.707 178.086 133.707Z" fill="#FF7946"/>
<path d="M178.086 113.681H145.316C144.311 113.681 143.495 114.496 143.495 115.501V124.604C143.495 125.61 144.311 126.425 145.316 126.425H178.086C179.092 126.425 179.907 125.61 179.907 124.604V115.501C179.907 114.496 179.092 113.681 178.086 113.681Z" fill="#597EF7"/>
<path fill-rule="evenodd" clip-rule="evenodd" d="M66.3549 90.0132H75.9007L97.0709 145.541H88.064L82.9061 131.231H59.2725L54.1147 145.541H45.1847L66.3549 90.0132ZM61.5698 124.604H79.7755L70.8615 100.026H70.5593L61.5698 124.604ZM117.714 111.86C122.001 111.86 125.159 113.002 127.19 115.287C128.939 117.272 129.841 120.158 129.841 123.946V143.788H124.313V139.399C123.185 140.962 121.775 142.225 120.083 143.127C118.165 144.089 115.909 144.63 113.314 144.63C110.268 144.63 107.899 143.788 106.207 142.165C104.345 140.541 103.443 138.437 103.443 135.851C103.443 132.364 104.74 129.658 107.335 127.794C109.704 125.99 113.088 125.088 117.375 124.968L123.918 124.788V123.525C123.918 119.196 121.719 117.031 117.319 117.031C115.457 117.031 113.935 117.392 112.806 118.113C111.453 118.955 110.607 120.218 110.268 121.962L104.345 121.421C104.966 118.053 106.545 115.528 109.027 113.965C111.171 112.521 114.104 111.86 117.714 111.86ZM125.29 130.066L119.04 130.24C113.478 130.357 110.725 132.336 110.725 136.062C110.725 137.226 111.184 138.158 112.159 138.915C113.076 139.671 114.338 140.079 115.886 140.079C118.466 140.079 120.645 139.264 122.48 137.692C124.315 136.12 125.29 134.141 125.29 131.812V130.066Z" fill="#253368"/>
<path d="M180.253 158.285C180.504 158.285 180.708 158.488 180.708 158.74C180.708 158.98 180.522 159.176 180.287 159.194L180.253 159.195H102.533C102.281 159.195 102.078 158.991 102.078 158.74C102.078 158.5 102.263 158.303 102.499 158.286L102.533 158.285H180.253Z" fill="#253368"/>
<path d="M53.1224 161.492V158.215H54.1856V157.727H53.1224V157.312C53.1224 157.13 53.1588 156.999 53.2317 156.919C53.3045 156.832 53.4283 156.795 53.5885 156.795H54.2366V156.293H53.5157C53.1952 156.293 52.9476 156.38 52.7802 156.562C52.6199 156.737 52.5398 156.977 52.5398 157.298V157.727H51.5931V158.215H52.5398V161.492H53.1224ZM56.4067 161.594C56.9675 161.594 57.419 161.398 57.7612 161.004C58.0744 160.64 58.2346 160.174 58.2346 159.613C58.2346 159.045 58.0744 158.579 57.7539 158.208C57.419 157.815 56.9675 157.625 56.4067 157.625C55.8387 157.625 55.3945 157.815 55.0595 158.208C54.7391 158.579 54.5789 159.045 54.5789 159.613C54.5789 160.174 54.7391 160.64 55.0595 161.004C55.3945 161.398 55.8387 161.594 56.4067 161.594ZM56.4067 161.106C56.0062 161.106 55.6931 160.953 55.4746 160.647C55.2707 160.371 55.176 160.028 55.176 159.613C55.176 159.191 55.2707 158.849 55.4746 158.572C55.6931 158.266 56.0062 158.113 56.4067 158.113C56.8 158.113 57.1131 158.266 57.3461 158.572C57.5428 158.849 57.6447 159.191 57.6447 159.613C57.6447 160.021 57.5428 160.371 57.3461 160.647C57.1131 160.953 56.8 161.106 56.4067 161.106ZM59.5745 161.492V159.22C59.5964 158.878 59.7056 158.608 59.9095 158.404C60.0988 158.215 60.3246 158.12 60.5868 158.12C61.2422 158.12 61.5771 158.485 61.5771 159.22V161.492H62.1597V159.176C62.1597 158.142 61.6864 157.625 60.7542 157.625C60.5066 157.625 60.2809 157.684 60.077 157.8C59.8731 157.909 59.7056 158.069 59.5745 158.281V157.727H58.9919V161.492H59.5745ZM64.9051 161.492V161.004H64.4245C64.2934 161.004 64.1988 160.968 64.1478 160.91C64.0895 160.851 64.0677 160.749 64.0677 160.611V158.215H64.9998V157.727H64.0677V156.511L63.4924 156.751V157.727H62.735V158.215H63.4924V160.611C63.4924 160.895 63.5506 161.106 63.6744 161.252C63.8055 161.412 64.0313 161.492 64.3371 161.492H64.9051ZM69.6386 161.594C70.2066 161.594 70.629 161.354 70.8912 160.873V161.492H71.4373V156.191H70.8548V158.419C70.5635 157.887 70.1484 157.625 69.6095 157.625C69.0706 157.625 68.6555 157.822 68.3497 158.23C68.0656 158.594 67.9273 159.045 67.9273 159.599C67.9273 160.167 68.0656 160.633 68.3497 160.997C68.6555 161.39 69.0852 161.594 69.6386 161.594ZM69.7114 161.113C69.3036 161.113 68.9978 160.961 68.7939 160.669C68.6118 160.407 68.5244 160.05 68.5244 159.599C68.5244 159.147 68.6118 158.798 68.8012 158.543C69.0051 158.252 69.3182 158.106 69.7333 158.106C70.0683 158.106 70.345 158.237 70.5562 158.514C70.7601 158.783 70.8693 159.14 70.8693 159.577V159.65C70.8693 160.072 70.7747 160.414 70.5926 160.677C70.3814 160.968 70.0901 161.113 69.7114 161.113ZM73.9133 161.594C74.4012 161.594 74.8018 161.448 75.1149 161.172C75.3698 160.939 75.5373 160.647 75.6247 160.283H75.0421C74.9474 160.545 74.8236 160.742 74.6634 160.873C74.4741 161.026 74.2192 161.106 73.9133 161.106C73.5565 161.106 73.2725 160.99 73.0686 160.757C72.8647 160.524 72.7554 160.196 72.7263 159.774H75.6975C75.6829 159.118 75.5373 158.601 75.2605 158.237C74.9547 157.829 74.4959 157.625 73.8915 157.625C73.3453 157.625 72.9156 157.822 72.5952 158.215C72.2748 158.587 72.1219 159.053 72.1219 159.606C72.1219 160.218 72.2821 160.698 72.6171 161.063C72.9375 161.412 73.3744 161.594 73.9133 161.594ZM75.093 159.322H72.7409C72.7773 158.951 72.8938 158.659 73.0977 158.441C73.3016 158.222 73.571 158.113 73.906 158.113C74.6197 158.113 75.0202 158.514 75.093 159.322ZM77.7802 161.594C78.8434 161.594 79.375 161.201 79.375 160.429C79.375 160.101 79.2221 159.846 78.9235 159.657C78.7269 159.533 78.4065 159.417 77.955 159.307C77.5763 159.206 77.3141 159.125 77.1758 159.06C76.9573 158.951 76.8554 158.812 76.8554 158.652C76.8554 158.485 76.9355 158.354 77.0957 158.259C77.2413 158.157 77.4452 158.113 77.7074 158.113C78.006 158.113 78.239 158.171 78.3992 158.288C78.5448 158.39 78.6395 158.565 78.6905 158.798H79.2585C79.1566 158.011 78.6468 157.625 77.7147 157.625C77.2923 157.625 76.9427 157.72 76.6806 157.909C76.3966 158.099 76.2582 158.346 76.2582 158.667C76.2582 158.987 76.3966 159.227 76.6879 159.402C76.8626 159.519 77.1758 159.628 77.62 159.737C78.0278 159.839 78.2972 159.919 78.421 159.977C78.6541 160.094 78.7779 160.254 78.7779 160.465C78.7779 160.888 78.4356 161.106 77.7656 161.106C77.4452 161.106 77.2049 161.048 77.0447 160.931C76.8845 160.8 76.7752 160.589 76.7316 160.291H76.1635C76.2509 161.157 76.7898 161.594 77.7802 161.594ZM80.5402 157.174C80.664 157.174 80.7659 157.13 80.8533 157.05C80.9407 156.963 80.9844 156.861 80.9844 156.737C80.9844 156.606 80.9407 156.504 80.8533 156.431C80.7659 156.344 80.664 156.307 80.5402 156.307C80.4164 156.307 80.3144 156.344 80.227 156.431C80.1397 156.504 80.1033 156.606 80.1033 156.737C80.1033 156.861 80.1397 156.963 80.227 157.05C80.3144 157.13 80.4164 157.174 80.5402 157.174ZM80.8315 161.492V157.727H80.2489V161.492H80.8315ZM83.606 163.036C84.7493 163.036 85.3246 162.432 85.3246 161.23V157.727H84.7421V158.375C84.4653 157.873 84.043 157.625 83.4749 157.625C82.9506 157.625 82.5355 157.807 82.2297 158.179C81.9238 158.528 81.7782 158.973 81.7782 159.526C81.7782 160.072 81.9238 160.516 82.2297 160.866C82.5355 161.223 82.9506 161.405 83.4749 161.405C84.043 161.405 84.4653 161.15 84.7421 160.647V161.31C84.7421 162.14 84.3634 162.563 83.606 162.563C83.2638 162.563 83.0089 162.497 82.8414 162.373C82.6739 162.257 82.5647 162.067 82.521 161.813H81.9384C82.0039 162.22 82.1714 162.526 82.4409 162.73C82.703 162.934 83.0963 163.036 83.606 163.036ZM83.555 160.917C83.1472 160.917 82.8487 160.771 82.6448 160.495C82.4627 160.247 82.3753 159.919 82.3753 159.526C82.3753 159.104 82.4773 158.761 82.6812 158.514C82.8924 158.237 83.1837 158.106 83.5623 158.106C83.9337 158.106 84.225 158.237 84.4435 158.514C84.6474 158.761 84.7493 159.104 84.7493 159.526C84.7493 159.934 84.6474 160.269 84.4435 160.524C84.225 160.786 83.9337 160.917 83.555 160.917ZM86.8102 161.492V159.22C86.8321 158.878 86.9413 158.608 87.1452 158.404C87.3345 158.215 87.5603 158.12 87.8225 158.12C88.4779 158.12 88.8129 158.485 88.8129 159.22V161.492H89.3954V159.176C89.3954 158.142 88.9221 157.625 87.99 157.625C87.7424 157.625 87.5166 157.684 87.3127 157.8C87.1088 157.909 86.9413 158.069 86.8102 158.281V157.727H86.2276V161.492H86.8102Z" fill="#253368"/>
<path d="M137.83 217.158C137.83 221.743 141.548 225.461 146.133 225.461C150.719 225.461 154.437 221.743 154.437 217.158C154.437 212.572 150.719 208.854 146.133 208.854C141.548 208.854 137.83 212.572 137.83 217.158Z" fill="#597EF7"/>
<path d="M144.123 248.389C144.123 251.043 146.275 253.196 148.93 253.196C151.585 253.196 153.737 251.043 153.737 248.389C153.737 245.734 151.585 243.582 148.93 243.582C146.275 243.582 144.123 245.734 144.123 248.389Z" fill="#597EF7"/>
<path d="M108.318 242.474L108.318 242.183C108.318 239.448 110.536 237.23 113.271 237.23C116.006 237.23 118.223 239.448 118.223 242.183V242.474C118.223 245.21 116.006 247.427 113.271 247.427C110.536 247.427 108.318 245.21 108.318 242.474Z" fill="#597EF7"/>
<defs>
<clipPath id="clip0_903_11985">
<rect width="212.092" height="212.092" fill="white" transform="translate(21.9083 230.908)"/>
</clipPath>
<clipPath id="clip1_903_11985">
<rect width="105.497" height="105.497" fill="white" transform="translate(142.844 237.122) rotate(30)"/>
</clipPath>
</defs>
</svg>
