<svg width="64" height="64" viewBox="0 0 64 64" fill="none" xmlns="http://www.w3.org/2000/svg">
<circle cx="32" cy="32" r="32" fill="#DEDEDE"/>
<g clip-path="url(#clip0_62_229)">
<path d="M23.9102 17.5898V49H21.3535V20.834L12.8457 23.9922V21.5645L23.4805 17.5898H23.9102ZM50.2129 30.6738V35.9375C50.2129 38.2292 49.998 40.2272 49.5684 41.9316C49.1387 43.6217 48.5085 45.0254 47.6777 46.1426C46.8613 47.2454 45.8587 48.069 44.6699 48.6133C43.4954 49.1576 42.1491 49.4297 40.6309 49.4297C39.4277 49.4297 38.3249 49.2578 37.3223 48.9141C36.3197 48.5703 35.4245 48.0475 34.6367 47.3457C33.8633 46.6296 33.2044 45.7344 32.6602 44.6602C32.1159 43.5859 31.7005 42.3255 31.4141 40.8789C31.1276 39.418 30.9844 37.7708 30.9844 35.9375V30.6738C30.9844 28.3678 31.1992 26.377 31.6289 24.7012C32.0729 23.0254 32.7031 21.6361 33.5195 20.5332C34.3503 19.4303 35.36 18.6139 36.5488 18.084C37.7376 17.5397 39.084 17.2676 40.5879 17.2676C41.791 17.2676 42.8939 17.4466 43.8965 17.8047C44.9134 18.1484 45.8086 18.6641 46.582 19.3516C47.3698 20.0391 48.0286 20.9199 48.5586 21.9941C49.1029 23.054 49.5111 24.3073 49.7832 25.7539C50.0697 27.2005 50.2129 28.8405 50.2129 30.6738ZM47.6562 36.2383V30.3516C47.6562 28.9336 47.556 27.6445 47.3555 26.4844C47.1693 25.3242 46.89 24.3073 46.5176 23.4336C46.1452 22.5599 45.6725 21.8294 45.0996 21.2422C44.541 20.6549 43.8822 20.2181 43.123 19.9316C42.3783 19.6309 41.5332 19.4805 40.5879 19.4805C39.4277 19.4805 38.4036 19.7168 37.5156 20.1895C36.6419 20.6478 35.9115 21.3353 35.3242 22.252C34.737 23.1543 34.293 24.2858 33.9922 25.6465C33.7057 27.0072 33.5625 28.5755 33.5625 30.3516V36.2383C33.5625 37.6419 33.6556 38.9238 33.8418 40.084C34.028 41.2298 34.3145 42.2467 34.7012 43.1348C35.0879 44.0228 35.5605 44.7747 36.1191 45.3906C36.6921 45.9922 37.3509 46.4505 38.0957 46.7656C38.8548 47.0664 39.6999 47.2168 40.6309 47.2168C41.8197 47.2168 42.8509 46.9805 43.7246 46.5078C44.5983 46.0208 45.3288 45.3118 45.916 44.3809C46.5033 43.4355 46.9401 42.2826 47.2266 40.9219C47.513 39.5469 47.6562 37.9857 47.6562 36.2383Z" fill="#333333"/>
</g>
<defs>
<clipPath id="clip0_62_229">
<rect width="54" height="46" fill="white" transform="translate(9 7)"/>
</clipPath>
</defs>
</svg>
