<svg width="64" height="64" viewBox="0 0 64 64" fill="none" xmlns="http://www.w3.org/2000/svg">
<circle cx="32" cy="32" r="32" fill="#DEDEDE"/>
<g clip-path="url(#clip0_62_205)">
<path d="M43.5371 44.7871V47H23.9648V45.002L34.2129 33.3789C35.4876 31.9323 36.5046 30.6647 37.2637 29.5762C38.0228 28.4733 38.5671 27.4707 38.8965 26.5684C39.2402 25.6517 39.4121 24.7637 39.4121 23.9043C39.4121 22.6439 39.1615 21.5339 38.6602 20.5742C38.1732 19.6146 37.4427 18.8626 36.4688 18.3184C35.4948 17.7741 34.2917 17.502 32.8594 17.502C31.4271 17.502 30.181 17.8099 29.1211 18.4258C28.0612 19.0417 27.2448 19.901 26.6719 21.0039C26.1133 22.0924 25.834 23.3314 25.834 24.7207H23.2773C23.2773 23.002 23.6569 21.4264 24.416 19.9941C25.1895 18.5618 26.2923 17.4232 27.7246 16.5781C29.1569 15.7188 30.8685 15.2891 32.8594 15.2891C34.75 15.2891 36.3757 15.6257 37.7363 16.2988C39.097 16.9577 40.1426 17.9102 40.873 19.1562C41.6178 20.4023 41.9902 21.9062 41.9902 23.668C41.9902 24.6133 41.8184 25.5658 41.4746 26.5254C41.1452 27.485 40.6868 28.4447 40.0996 29.4043C39.5267 30.3496 38.8678 31.2878 38.123 32.2188C37.3926 33.1497 36.6263 34.0664 35.8242 34.9688L27.1016 44.7871H43.5371Z" fill="#333333"/>
</g>
<defs>
<clipPath id="clip0_62_205">
<rect width="21.76" height="46.08" fill="white" transform="translate(21 5)"/>
</clipPath>
</defs>
</svg>
