<svg width="64" height="64" viewBox="0 0 64 64" fill="none" xmlns="http://www.w3.org/2000/svg">
<circle cx="32" cy="32" r="32" fill="#DEDEDE"/>
<g clip-path="url(#clip0_62_210)">
<path d="M29.6797 29.9414H32.3008C33.9049 29.9414 35.2441 29.6693 36.3184 29.125C37.4069 28.5664 38.2233 27.8288 38.7676 26.9121C39.3262 25.9954 39.6055 24.9785 39.6055 23.8613C39.6055 22.6009 39.3691 21.498 38.8965 20.5527C38.4238 19.5931 37.7005 18.8483 36.7266 18.3184C35.7669 17.7741 34.5352 17.502 33.0312 17.502C31.7135 17.502 30.5391 17.7598 29.5078 18.2754C28.4766 18.791 27.6602 19.5286 27.0586 20.4883C26.457 21.4479 26.1562 22.5938 26.1562 23.9258H23.5996C23.5996 22.2214 24.0078 20.7246 24.8242 19.4355C25.6406 18.1322 26.765 17.1152 28.1973 16.3848C29.6296 15.6543 31.2409 15.2891 33.0312 15.2891C34.8789 15.2891 36.4831 15.6257 37.8438 16.2988C39.2188 16.972 40.2786 17.9531 41.0234 19.2422C41.7826 20.5312 42.1621 22.0996 42.1621 23.9473C42.1621 24.8926 41.9544 25.8236 41.5391 26.7402C41.138 27.6569 40.5365 28.4876 39.7344 29.2324C38.9323 29.9629 37.9368 30.5501 36.748 30.9941C35.5592 31.4382 34.1771 31.6602 32.6016 31.6602H29.6797V29.9414ZM29.6797 32.1543V30.457H32.6016C34.3919 30.457 35.9245 30.6647 37.1992 31.0801C38.474 31.4811 39.5195 32.054 40.3359 32.7988C41.1667 33.5293 41.7754 34.3815 42.1621 35.3555C42.5488 36.3294 42.7422 37.375 42.7422 38.4922C42.7422 39.9245 42.5059 41.1921 42.0332 42.2949C41.5605 43.3978 40.8874 44.3359 40.0137 45.1094C39.1543 45.8685 38.1374 46.4486 36.9629 46.8496C35.8027 47.2363 34.528 47.4297 33.1387 47.4297C31.8783 47.4297 30.6465 47.2435 29.4434 46.8711C28.2546 46.4987 27.1803 45.9473 26.2207 45.2168C25.2754 44.472 24.5234 43.541 23.9648 42.4238C23.4062 41.2923 23.127 39.9889 23.127 38.5137H25.6836C25.6836 39.8314 25.9987 40.9987 26.6289 42.0156C27.2591 43.0182 28.1328 43.806 29.25 44.3789C30.3815 44.9375 31.6777 45.2168 33.1387 45.2168C34.6139 45.2168 35.8743 44.9661 36.9199 44.4648C37.9798 43.9492 38.7891 43.1973 39.3477 42.209C39.9062 41.2207 40.1855 40.0104 40.1855 38.5781C40.1855 37.0742 39.849 35.8496 39.1758 34.9043C38.5169 33.959 37.5931 33.2643 36.4043 32.8203C35.2298 32.3763 33.862 32.1543 32.3008 32.1543H29.6797Z" fill="#333333"/>
</g>
<defs>
<clipPath id="clip0_62_210">
<rect width="21.76" height="46.08" fill="white" transform="translate(21 5)"/>
</clipPath>
</defs>
</svg>
