<svg width="64" height="64" viewBox="0 0 64 64" fill="none" xmlns="http://www.w3.org/2000/svg">
<circle cx="32" cy="32" r="32" fill="#DEDEDE"/>
<g clip-path="url(#clip0_62_220)">
<path d="M26.7246 31.5312L24.7051 30.9512L26.2305 15.7188H41.8711V18.125H28.4219L27.3262 28.6523C27.8704 28.2656 28.6582 27.8861 29.6895 27.5137C30.735 27.127 31.9095 26.9336 33.2129 26.9336C34.6022 26.9336 35.8626 27.1699 36.9941 27.6426C38.14 28.1009 39.1211 28.7741 39.9375 29.6621C40.7539 30.5358 41.3841 31.5957 41.8281 32.8418C42.2721 34.0736 42.4941 35.4701 42.4941 37.0312C42.4941 38.5352 42.3079 39.9173 41.9355 41.1777C41.5632 42.4382 40.9974 43.541 40.2383 44.4863C39.4792 45.4173 38.5124 46.1406 37.3379 46.6562C36.1634 47.1719 34.7669 47.4297 33.1484 47.4297C31.9023 47.4297 30.7279 47.2578 29.625 46.9141C28.5365 46.556 27.5625 46.0189 26.7031 45.3027C25.8438 44.5866 25.1419 43.6842 24.5977 42.5957C24.0677 41.5072 23.7383 40.2324 23.6094 38.7715H26.0801C26.252 40.1751 26.6315 41.3568 27.2188 42.3164C27.806 43.276 28.5938 43.9993 29.582 44.4863C30.5846 44.9733 31.7734 45.2168 33.1484 45.2168C34.2656 45.2168 35.2396 45.0378 36.0703 44.6797C36.9154 44.3216 37.6172 43.7988 38.1758 43.1113C38.7487 42.4095 39.1784 41.5573 39.4648 40.5547C39.7656 39.5378 39.916 38.3776 39.916 37.0742C39.916 35.957 39.7585 34.9329 39.4434 34.002C39.1283 33.0566 38.6628 32.2331 38.0469 31.5312C37.4453 30.8151 36.7005 30.2637 35.8125 29.877C34.9245 29.4902 33.9076 29.2969 32.7617 29.2969C31.2721 29.2969 30.0833 29.4974 29.1953 29.8984C28.3216 30.2995 27.498 30.8438 26.7246 31.5312Z" fill="#333333"/>
</g>
<defs>
<clipPath id="clip0_62_220">
<rect width="28" height="46" fill="white" transform="translate(20 5)"/>
</clipPath>
</defs>
</svg>
