<svg width="64" height="64" viewBox="0 0 64 64" fill="none" xmlns="http://www.w3.org/2000/svg">
<circle cx="32" cy="32" r="32" fill="#DEDEDE"/>
<g clip-path="url(#clip0_62_225)">
<path d="M37.7461 15.4824H38.1113V17.7383H37.7461C35.7695 17.7383 34.0078 18.0605 32.4609 18.7051C30.9284 19.3496 29.6322 20.2806 28.5723 21.498C27.5267 22.7012 26.7318 24.1621 26.1875 25.8809C25.6432 27.5996 25.3711 29.526 25.3711 31.6602V35.9785C25.3711 37.4251 25.5645 38.7214 25.9512 39.8672C26.3379 40.9987 26.875 41.9655 27.5625 42.7676C28.25 43.5697 29.0521 44.1784 29.9688 44.5938C30.8854 45.0091 31.8737 45.2168 32.9336 45.2168C33.9792 45.2168 34.9173 45.002 35.748 44.5723C36.5788 44.1426 37.2806 43.541 37.8535 42.7676C38.4408 41.9941 38.8848 41.1061 39.1855 40.1035C39.5007 39.0866 39.6582 37.998 39.6582 36.8379C39.6582 35.735 39.515 34.6966 39.2285 33.7227C38.9564 32.7344 38.5339 31.8607 37.9609 31.1016C37.388 30.3424 36.6719 29.748 35.8125 29.3184C34.9531 28.8887 33.9434 28.6738 32.7832 28.6738C31.4655 28.6738 30.2337 28.9746 29.0879 29.5762C27.9421 30.1777 27.0039 30.9798 26.2734 31.9824C25.5573 32.985 25.1777 34.0807 25.1348 35.2695L23.6523 35.248C23.7526 33.9017 24.0605 32.6914 24.5762 31.6172C25.0918 30.5286 25.7721 29.6048 26.6172 28.8457C27.4766 28.0723 28.4577 27.485 29.5605 27.084C30.6777 26.6686 31.8809 26.4609 33.1699 26.4609C34.6738 26.4609 35.9844 26.7331 37.1016 27.2773C38.2331 27.8216 39.1712 28.5736 39.916 29.5332C40.6751 30.4785 41.2409 31.5742 41.6133 32.8203C42 34.0521 42.1934 35.3555 42.1934 36.7305C42.1934 38.2344 41.9785 39.638 41.5488 40.9414C41.1335 42.2305 40.5176 43.362 39.7012 44.3359C38.8991 45.3099 37.9251 46.069 36.7793 46.6133C35.6478 47.1576 34.3659 47.4297 32.9336 47.4297C31.3581 47.4297 29.9473 47.1289 28.7012 46.5273C27.4551 45.9258 26.388 45.0951 25.5 44.0352C24.6263 42.9753 23.9531 41.7578 23.4805 40.3828C23.0221 38.9935 22.793 37.5111 22.793 35.9355V33.1855C22.793 30.5215 23.1009 28.1081 23.7168 25.9453C24.3327 23.7682 25.2565 21.8991 26.4883 20.3379C27.7344 18.7767 29.2884 17.5807 31.1504 16.75C33.0267 15.9049 35.2253 15.4824 37.7461 15.4824Z" fill="#333333"/>
</g>
<defs>
<clipPath id="clip0_62_225">
<rect width="21.76" height="46.08" fill="white" transform="translate(20 5)"/>
</clipPath>
</defs>
</svg>
