<svg width="64" height="64" viewBox="0 0 64 64" fill="none" xmlns="http://www.w3.org/2000/svg">
<circle cx="32" cy="32" r="32" fill="#DEDEDE"/>
<g clip-path="url(#clip0_62_237)">
<path d="M43.1934 38.707C43.1934 40.5977 42.7493 42.1947 41.8613 43.498C40.9876 44.8014 39.7988 45.7826 38.2949 46.4414C36.791 47.1003 35.1081 47.4297 33.2461 47.4297C31.3698 47.4297 29.6797 47.1003 28.1758 46.4414C26.6719 45.7826 25.4759 44.8014 24.5879 43.498C23.7142 42.1947 23.2773 40.5977 23.2773 38.707C23.2773 37.4609 23.5208 36.3294 24.0078 35.3125C24.5091 34.2812 25.2038 33.3932 26.0918 32.6484C26.9941 31.8893 28.0469 31.3021 29.25 30.8867C30.4531 30.4714 31.7708 30.2637 33.2031 30.2637C35.0938 30.2637 36.791 30.6289 38.2949 31.3594C39.7988 32.0755 40.9876 33.0638 41.8613 34.3242C42.7493 35.5846 43.1934 37.0456 43.1934 38.707ZM40.6152 38.707C40.6152 37.375 40.293 36.2077 39.6484 35.2051C39.0039 34.2025 38.123 33.429 37.0059 32.8848C35.8887 32.3262 34.6211 32.0469 33.2031 32.0469C31.7708 32.0469 30.5033 32.3262 29.4004 32.8848C28.2975 33.429 27.431 34.2025 26.8008 35.2051C26.1706 36.2077 25.8555 37.375 25.8555 38.707C25.8555 40.0964 26.1634 41.278 26.7793 42.252C27.4095 43.2259 28.2832 43.9635 29.4004 44.4648C30.5176 44.9661 31.7995 45.2168 33.2461 45.2168C34.6927 45.2168 35.9674 44.9661 37.0703 44.4648C38.1732 43.9635 39.0397 43.2259 39.6699 42.252C40.3001 41.278 40.6152 40.0964 40.6152 38.707ZM42.377 23.7539C42.377 25.2865 41.9688 26.6543 41.1523 27.8574C40.3503 29.0462 39.2617 29.9844 37.8867 30.6719C36.5117 31.3451 34.9577 31.6816 33.2246 31.6816C31.4772 31.6816 29.9089 31.3451 28.5195 30.6719C27.1445 29.9844 26.056 29.0462 25.2539 27.8574C24.4661 26.6543 24.0723 25.2865 24.0723 23.7539C24.0723 21.9349 24.4661 20.4023 25.2539 19.1562C26.056 17.8958 27.1445 16.9362 28.5195 16.2773C29.8945 15.6185 31.4557 15.2891 33.2031 15.2891C34.9362 15.2891 36.4902 15.6185 37.8652 16.2773C39.2546 16.9362 40.3503 17.8958 41.1523 19.1562C41.9688 20.4023 42.377 21.9349 42.377 23.7539ZM39.8203 23.7324C39.8203 22.515 39.5267 21.4408 38.9395 20.5098C38.3665 19.5788 37.5788 18.8483 36.5762 18.3184C35.5879 17.7741 34.4635 17.502 33.2031 17.502C31.9284 17.502 30.7969 17.7526 29.8086 18.2539C28.8346 18.7552 28.0612 19.4714 27.4883 20.4023C26.9297 21.3333 26.6504 22.4434 26.6504 23.7324C26.6504 24.9928 26.9297 26.0814 27.4883 26.998C28.0612 27.9004 28.8418 28.6022 29.8301 29.1035C30.8184 29.6048 31.9499 29.8555 33.2246 29.8555C34.4993 29.8555 35.6309 29.6048 36.6191 29.1035C37.6074 28.6022 38.388 27.9004 38.9609 26.998C39.5339 26.0814 39.8203 24.9928 39.8203 23.7324Z" fill="#333333"/>
</g>
<defs>
<clipPath id="clip0_62_237">
<rect width="21.76" height="46.08" fill="white" transform="translate(21 5)"/>
</clipPath>
</defs>
</svg>
