<svg width="1133" height="1010" viewBox="0 0 1133 1010" fill="none" xmlns="http://www.w3.org/2000/svg">
<g id="Frame 9" clip-path="url(#clip0_11026_7089)">
<g id="Designer/standing/explaining">
<g id="leg">
<path fill-rule="evenodd" clip-rule="evenodd" d="M155.713 1914.82C136.233 1912.41 122.134 1899.45 123.767 1879.9L158.752 1457.24C161.27 1427.11 188.355 1405.12 218.368 1408.84C248.386 1412.55 269.288 1440.48 264.383 1470.31L191.882 1888.88C188.699 1908.24 175.194 1917.23 155.713 1914.82Z" fill="#FFC999"/>
<path fill-rule="evenodd" clip-rule="evenodd" d="M394.331 1908.84C413.957 1909.3 430.443 1894.19 431.684 1874.61L458.232 1455.73C460.148 1425.56 436.568 1399.85 406.335 1399.14C376.093 1398.42 351.333 1422.99 351.826 1453.23L358.633 1872.89C358.95 1892.51 374.706 1908.38 394.331 1908.84Z" fill="#FFC999"/>
<path fill-rule="evenodd" clip-rule="evenodd" d="M415.544 1007.89C451.171 1008.72 479.123 1038.72 477.437 1074.3L459.317 1456.91C457.921 1486.38 433.254 1509.34 403.751 1508.65C374.249 1507.95 350.691 1483.85 350.687 1454.35L350.59 1071.32C350.581 1035.69 379.916 1007.05 415.544 1007.89Z" fill="#FFC999"/>
<path fill-rule="evenodd" clip-rule="evenodd" d="M266.467 1020.44C231.1 1016.06 199.061 1041.65 195.525 1077.1L157.507 1458.24C154.579 1487.6 175.622 1513.93 204.909 1517.55C234.195 1521.17 261.025 1500.77 265.349 1471.59L321.447 1092.69C326.665 1057.44 301.835 1024.82 266.467 1020.44Z" fill="#FFC999"/>
</g>
<path id="Fill 41" fill-rule="evenodd" clip-rule="evenodd" d="M513.545 415.344C513.545 415.344 559.573 400.972 579.995 448.776C628.313 458.073 623.83 509.86 623.83 509.86C623.83 509.86 653.024 545.309 610.673 572.631C613.443 613.295 566.715 613.295 566.715 613.295C566.715 613.295 560.74 646.01 524.073 638.795C491.361 673.816 420.027 679.248 389.345 647.735C345.695 692.652 252.217 661.297 257.633 625.801C199.183 631.554 161.293 574.66 186.871 517.097C154.216 480.025 180.02 450.933 180.02 450.933C180.02 450.933 156.66 357.517 220.222 334.27C245.77 277.869 325.224 307.203 325.224 307.203C325.224 307.203 371.912 289.46 395.932 328.592C451.225 328.257 453.44 358.318 461.573 382.55C510.304 377.563 513.545 415.344 513.545 415.344Z" fill="#9E7D6C"/>
<g id="Vector">
<path fill-rule="evenodd" clip-rule="evenodd" d="M356.408 393.035C319.636 405.726 303.555 378.941 303.555 378.941C303.555 378.941 281.49 341.129 281.455 366.519C281.433 380.01 258.298 365.81 251.191 381.326C246.409 391.768 264.088 401.408 247.668 429.839C238.153 446.307 286.743 450.462 262.212 481.935C262.212 481.935 287.963 511.45 254.463 527.776L256.884 566.821C258.293 589.543 279.002 606.094 301.49 602.462C322.925 599.003 337.267 578.521 333.189 557.198L324.26 510.547C378.931 501.805 369.578 426.261 356.408 393.035Z" fill="#FFC999"/>
<path fill-rule="evenodd" clip-rule="evenodd" d="M672.035 569.864L699.776 471.861C699.776 471.861 745.209 392.342 761.616 397.232C776.856 403.901 742.409 426.663 735.579 449.13C750.084 448.091 743.496 469.66 743.496 469.66C743.496 469.66 755.042 469.242 751.937 486.814C762.659 493.157 754.064 513.327 754.064 513.327C754.064 513.327 732.523 566.453 708.657 601.888C708.657 601.888 669.062 632.454 672.035 569.864Z" fill="#FFC999"/>
<path fill-rule="evenodd" clip-rule="evenodd" d="M678.199 536.751C678.199 536.751 682.338 503.139 685.433 486.02C688.529 468.897 681.294 437.974 693.786 446.165C702.184 451.677 700.722 470.072 700.418 483.638C700.118 497.201 722.034 529.352 705.702 551.607C694.667 566.649 677.27 568.621 678.199 536.751Z" fill="#FFC999"/>
<path fill-rule="evenodd" clip-rule="evenodd" d="M703.668 563.193C692.294 555.635 676.984 558.36 668.917 569.377L513.172 782.04C499.504 802.055 504.836 829.377 525.03 842.79C545.4 856.317 572.916 850.414 585.937 829.721L712.004 596.607C718.287 584.991 714.672 570.504 703.668 563.193Z" fill="#FFC999"/>
</g>
<path id="Stroke 45" d="M293.055 444.174C293.851 443.075 295.387 442.83 296.486 443.625L296.796 443.835C297.002 443.968 297.284 444.143 297.637 444.348C298.651 444.938 299.831 445.533 301.16 446.089C307.325 448.67 314.229 449.522 321.496 447.627C322.809 447.284 324.152 448.071 324.494 449.383C324.837 450.696 324.05 452.037 322.737 452.38C314.328 454.573 306.352 453.588 299.262 450.62C296.62 449.514 294.695 448.393 293.604 447.604C292.505 446.809 292.259 445.273 293.055 444.174Z" fill="#F5222D"/>
<g id="Vector_2">
<path d="M291.39 405.294C292.679 405.089 293.892 405.967 294.097 407.256C295.53 416.224 289.953 424.649 281.514 426.003C273.079 427.348 265.148 421.079 263.716 412.113C263.511 410.823 264.389 409.611 265.679 409.406C266.968 409.2 268.181 410.078 268.386 411.367C269.42 417.839 275.005 422.253 280.767 421.335C286.534 420.409 290.462 414.477 289.427 408.001C289.222 406.712 290.1 405.5 291.39 405.294Z" fill="#253368"/>
<path d="M350.556 397.477C351.779 397.281 352.93 398.113 353.126 399.336C354.546 408.198 349.65 416.506 341.934 417.739C334.219 418.972 326.976 412.609 325.556 403.748C325.36 402.525 326.193 401.374 327.416 401.179C328.64 400.983 329.79 401.815 329.986 403.038C331.041 409.62 336.163 414.119 341.226 413.31C346.288 412.501 349.75 406.627 348.695 400.046C348.499 398.823 349.332 397.673 350.556 397.477Z" fill="#253368"/>
<path d="M266.746 381.489C274.509 378.482 282.701 378.334 290.319 379.869L291.544 380.133C292.681 380.394 293.549 380.643 294.106 380.832C295.343 381.251 296.006 382.593 295.586 383.829C295.167 385.066 293.824 385.728 292.588 385.309L292.067 385.147C291.448 384.966 290.539 384.737 289.384 384.504C282.575 383.131 275.254 383.263 268.455 385.897C265.287 387.124 262.356 388.868 259.701 391.182C258.716 392.04 257.223 391.938 256.365 390.953C255.506 389.969 255.609 388.476 256.593 387.618C259.67 384.936 263.076 382.911 266.746 381.489Z" fill="#253368"/>
</g>
<path id="Fill 71" fill-rule="evenodd" clip-rule="evenodd" d="M576.179 839.085C596.267 825.087 601.194 797.461 587.187 777.38L450.728 581.722C436.721 561.645 409.09 556.715 389.002 570.713C368.919 584.711 363.992 612.337 377.994 632.418L514.457 828.076C528.46 848.157 556.091 853.083 576.179 839.085Z" fill="#FFC999"/>
<path id="Stroke 75" d="M376.142 632.002C376.705 631.609 377.458 631.688 377.929 632.156L378.091 632.349L435.127 714.127L506.164 663.47C506.723 663.071 507.476 663.143 507.952 663.605L508.117 663.797C508.516 664.356 508.445 665.109 507.982 665.585L507.79 665.749L435.602 717.229C435.038 717.631 434.279 717.556 433.804 717.085L433.64 716.89L375.794 633.95C375.351 633.316 375.507 632.444 376.142 632.002Z" fill="#4E5C93"/>
<g id="Vector_3">
<path fill-rule="evenodd" clip-rule="evenodd" d="M435.841 715.36L377.991 632.416C364.045 612.422 368.999 584.655 389.003 570.715C409.003 556.774 436.779 561.726 450.725 581.724L508.025 663.876L435.841 715.36Z" fill="#597EF7"/>
<path fill-rule="evenodd" clip-rule="evenodd" d="M416.386 642.575C425.858 663.206 443.405 698.72 445.584 722.182C449.125 760.223 424.352 788.527 424.352 788.527C424.352 788.527 424.101 777.342 421.696 875.895C308.214 895.796 235.859 874.636 235.859 874.636L238.069 848.511L219.641 786.758C219.641 786.758 208.444 763.758 185.436 712.454C169.443 676.786 170.553 632.569 172.72 608.927C173.649 598.798 168.836 577.652 178.889 576.072C213.045 570.701 236.748 567.809 236.748 567.809L240.905 555.039C241.46 551.175 244.771 548.305 248.677 548.305H336.497C340.081 548.305 343.207 550.73 344.097 554.203L350.253 567.809L396.536 569.46C404.642 571.049 411.652 596.439 412.498 604.653L416.386 642.575Z" fill="#597EF7"/>
</g>
<g id="Vector_4">
<path d="M235.636 571.298C236.351 570.731 237.358 570.782 238.011 571.377L238.215 571.595L317.505 671.537L348.278 578.31C348.564 577.444 349.433 576.934 350.306 577.072L350.597 577.142C351.463 577.428 351.974 578.297 351.836 579.17L351.765 579.461L319.929 675.923C319.502 677.217 317.891 677.585 316.94 676.698L316.747 676.488L235.338 573.877C234.708 573.082 234.841 571.928 235.636 571.298Z" fill="#CCD7EE"/>
<path fill-rule="evenodd" clip-rule="evenodd" d="M340.912 683.107C349.243 697.149 345.487 714.761 332.528 722.447C319.569 730.128 302.308 724.969 293.982 710.927C285.651 696.881 289.402 679.269 302.366 671.588C315.325 663.906 332.581 669.065 340.912 683.107Z" fill="#CCD7EE"/>
</g>
<path id="Fill 85" fill-rule="evenodd" clip-rule="evenodd" d="M343.906 683.037C352.237 697.079 348.481 714.691 335.522 722.372C322.563 730.057 305.302 724.898 296.971 710.852C288.644 696.81 292.395 679.199 305.359 671.517C318.313 663.836 335.574 668.995 343.906 683.037Z" fill="#E4EBF7"/>
<path id="Fill 87" fill-rule="evenodd" clip-rule="evenodd" d="M338.616 685.483C345.084 696.387 342.169 710.059 332.103 716.023C322.042 721.988 308.643 717.986 302.178 707.083C295.71 696.18 298.621 682.508 308.687 676.543C318.748 670.574 332.147 674.58 338.616 685.483Z" fill="#FAAD14"/>
<path id="Stroke 89" d="M172.76 607.526C173.533 607.55 174.142 608.194 174.12 608.967L173.998 614.533L173.979 615.595C173.79 626.685 173.77 638.402 174.029 649.368L174.113 652.524C174.461 664.424 175.144 673.988 176.215 680.421C177.433 687.715 182.106 700.107 189.349 716.076C190.614 718.867 191.947 721.741 193.339 724.685C197.174 732.798 201.285 741.086 205.395 749.101L207.472 753.127L210.811 759.5L210.966 759.818L240.728 848.524L240.794 849.106L238.26 874.851L240.463 875.283C241.092 875.402 241.759 875.525 242.465 875.653L243.553 875.847C248.877 876.788 255.048 877.73 261.991 878.609C309.388 884.61 363.036 884.64 418.303 874.783L420.555 874.372L420.745 867.21C420.885 862.521 421.098 856.077 421.371 848.133L422.459 817.422L423.407 791.578L423.581 790.953L424.26 789.693L425.344 787.613C425.65 787.016 425.969 786.389 426.297 785.732L426.798 784.727C429.219 779.835 431.64 774.53 433.9 769.002C437.112 761.142 439.724 753.492 441.521 746.306C443.259 739.359 444.185 733.039 444.185 727.496C444.185 713.62 442.345 702.972 438.214 691.988C436.146 686.488 433.491 680.81 429.666 673.563L427.762 670.018C425.191 665.303 420.224 656.348 417.349 651.172L415.16 647.229L414.988 646.607L414.103 623.167C414.074 622.395 414.676 621.745 415.449 621.716C416.136 621.69 416.726 622.163 416.869 622.811L416.901 623.061L417.772 646.165L429.245 666.894L431.355 670.774L432.905 673.711C436.378 680.373 438.862 685.754 440.836 691.003C445.087 702.31 446.986 713.292 446.986 727.496C446.986 733.292 446.028 739.832 444.238 746.985C442.405 754.313 439.751 762.086 436.492 770.061C434.532 774.856 432.453 779.483 430.357 783.823L429.308 785.969C428.793 787.008 428.301 787.985 427.834 788.893L426.191 792.014L423.901 856.142C423.565 866.228 423.369 872.854 423.346 875.158L423.344 875.543C423.344 876.218 422.863 876.796 422.199 876.92C365.426 887.449 310.27 887.544 261.639 881.386C255.349 880.59 249.685 879.742 244.701 878.889L243.065 878.604C241.936 878.405 240.894 878.214 239.94 878.033L236.443 877.333C235.837 877.199 235.403 876.688 235.35 876.09L235.351 875.829L237.976 849.126L208.403 760.924L206.889 758.061C205.686 755.772 204.346 753.193 202.903 750.379C198.78 742.338 194.656 734.024 190.807 725.882L188.755 721.499C188.421 720.778 188.091 720.062 187.764 719.351L186.798 717.232C179.455 701.042 174.724 688.496 173.453 680.881C172.261 673.725 171.549 662.926 171.229 649.434C171.006 639.997 170.989 630.015 171.108 620.349L171.217 613.459L171.321 608.888C171.343 608.115 171.987 607.506 172.76 607.526Z" fill="#4E5C93"/>
<path id="Vector_5" fill-rule="evenodd" clip-rule="evenodd" d="M89.1905 872.086L87.9267 871.597C65.4522 862.873 54.3073 837.589 63.0303 815.122L146.257 600.822C154.985 578.355 180.282 567.213 202.757 575.938L204.02 576.427C226.495 585.151 237.64 610.435 228.912 632.907L145.689 847.198C136.962 869.669 111.665 880.811 89.1905 872.086Z" fill="#FFC999"/>
<g id="Vector_6">
<path fill-rule="evenodd" clip-rule="evenodd" d="M237.637 895.53C197.765 898.651 80.1871 1147.42 44.4365 1237.49C49.1965 1255.63 101.217 1290.74 101.217 1290.74C101.217 1290.74 98.1086 1305.18 96.1888 1313.85C130.213 1341.83 196.016 1357.02 196.016 1357.02L196.162 1369.43C301.37 1417.86 442.254 1371.45 442.254 1371.45C442.254 1371.45 444.883 1368.76 442.999 1359.02C490.766 1358.47 593.051 1297.89 593.051 1297.89L578.511 1267.91L620.58 1224.87C620.58 1224.87 506.975 1015.95 472.008 957.508C441.308 906.209 412.514 891.436 412.514 891.436C412.514 891.436 308.38 889.993 237.637 895.53Z" fill="#4E5C93"/>
<path fill-rule="evenodd" clip-rule="evenodd" d="M420.132 895.526L417.129 872.742C417.129 872.742 327.142 873.279 238.887 868.859C236.659 878.975 234.096 897.177 234.096 897.177C241.515 891.084 321.682 908.877 420.132 895.526Z" fill="#4E5C93"/>
</g>
<g id="Vector_7">
<path d="M416.85 939.958C417.641 939.571 418.58 939.827 419.074 940.522L419.221 940.77L592.848 1295.35C593.217 1296.1 593.008 1297.01 592.348 1297.53L591.259 1298.35L589.482 1299.66C589.048 1299.97 588.587 1300.3 588.101 1300.65C584.633 1303.11 580.553 1305.85 575.886 1308.8C562.564 1317.21 547.2 1325.62 529.998 1333.48C503.257 1345.68 474.563 1355.38 444.254 1361.64C443.295 1361.83 442.357 1361.22 442.159 1360.26C441.961 1359.3 442.578 1358.36 443.536 1358.17C473.573 1351.96 502.017 1342.35 528.525 1330.25C545.576 1322.47 560.8 1314.13 573.992 1305.8C578.092 1303.21 581.73 1300.79 584.887 1298.58L586.745 1297.26L589.02 1295.6L416.037 942.328C415.65 941.537 415.906 940.598 416.602 940.105L416.85 939.958Z" fill="#253368"/>
<path d="M206.76 1013.6C207.106 1012.68 208.129 1012.22 209.044 1012.57C209.868 1012.88 210.325 1013.74 210.155 1014.57L210.075 1014.85L96.6051 1314.92L98.467 1316.08L100.724 1317.43C102.688 1318.6 104.857 1319.85 107.22 1321.17C116.68 1326.44 127.281 1331.72 138.768 1336.65C157.49 1344.67 176.702 1350.96 195.92 1354.84C196.879 1355.04 197.5 1355.97 197.306 1356.93C197.112 1357.89 196.177 1358.51 195.217 1358.32C175.743 1354.38 156.304 1348.02 137.371 1339.9C125.765 1334.93 115.056 1329.6 105.493 1324.26C102.622 1322.66 100.031 1321.16 97.7407 1319.78L95.3628 1318.33L93.4648 1317.12C92.848 1316.72 92.5545 1315.98 92.7031 1315.28L92.7797 1315.02L206.76 1013.6Z" fill="#253368"/>
<path d="M282.814 902.229L283.1 902.267C283.964 902.44 284.555 903.213 284.525 904.065L284.476 904.426L277.687 938.688C275.349 950.548 272.856 963.247 270.236 976.663L268.794 984.051C257.862 1040.11 246.93 1097.19 236.626 1152.39L234.26 1165.09C233.001 1171.87 231.759 1178.57 230.533 1185.21L223.974 1221.02C214.308 1274.19 206.107 1321.21 199.681 1360.67L198.169 1370L200.592 1370.8C203.158 1371.64 205.74 1372.44 208.337 1373.21L212.244 1374.34C275.344 1392.21 342.78 1391.19 406.466 1378.75C416.571 1376.77 425.687 1374.66 433.659 1372.54L435.963 1371.92C437.073 1371.62 438.119 1371.33 439.099 1371.05L441.975 1370.2L362.965 974.323C362.793 973.459 363.28 972.617 364.079 972.318L364.356 972.239C365.22 972.067 366.063 972.554 366.362 973.352L366.441 973.63L445.767 1371.08C445.943 1371.96 445.43 1372.83 444.574 1373.11L441.976 1373.9L440.076 1374.45C438.751 1374.83 437.31 1375.23 435.755 1375.65L434.568 1375.97C426.522 1378.1 417.331 1380.24 407.146 1382.23C342.96 1394.77 274.992 1395.79 211.279 1377.75C205.995 1376.26 200.773 1374.64 195.613 1372.88C194.795 1372.6 194.297 1371.78 194.434 1370.92L196.633 1357.34C202.995 1318.43 211.041 1272.34 220.487 1220.38L224.619 1197.76C226.623 1186.85 228.676 1175.74 230.775 1164.45C240.98 1109.54 251.862 1052.53 262.792 996.328L272.262 947.893L281.015 903.657C281.188 902.794 281.961 902.203 282.814 902.229Z" fill="#253368"/>
<path d="M325.335 909.057C326.214 909.01 326.98 909.611 327.165 910.443L327.204 910.729L345.848 1241.28C345.903 1242.25 345.155 1243.09 344.178 1243.15C343.298 1243.2 342.532 1242.6 342.348 1241.76L342.308 1241.48L323.665 910.928C323.61 909.951 324.357 909.115 325.335 909.057Z" fill="#253368"/>
<path d="M372.713 900.604C373.554 900.343 374.443 900.739 374.824 901.503L374.931 901.77L444.931 1127.06C445.221 1127.99 444.699 1128.98 443.764 1129.27C442.922 1129.54 442.034 1129.14 441.653 1128.38L441.546 1128.11L371.546 902.821C371.256 901.887 371.778 900.894 372.713 900.604Z" fill="#253368"/>
<path d="M243.57 895.404C283.289 897.261 321.845 898.097 356.17 898.094L367.881 898.059C379.977 897.987 390.661 897.804 398.818 897.551L402.699 897.417C403.882 897.371 404.952 897.325 405.893 897.279L407.79 897.176C408.423 897.137 408.944 897.099 409.341 897.064L409.817 897.013L410.021 896.934C410.281 896.853 410.562 896.832 410.843 896.88L411.122 896.952L411.348 896.979C411.775 897.056 411.824 897.333 412.188 899.41L411.462 900.168C411.24 900.379 411.176 900.383 411.016 900.394C410.879 900.434 410.733 900.465 410.557 900.492L410.268 900.531C410.022 900.56 409.71 900.59 409.333 900.621L408.007 900.713C406.304 900.817 403.907 900.924 400.967 901.026L394.865 901.207C386.851 901.414 376.956 901.559 365.977 901.613L364.029 901.622C327.726 901.764 286.24 900.946 243.404 898.944C242.427 898.898 241.671 898.069 241.717 897.091C241.762 896.114 242.592 895.359 243.57 895.404Z" fill="#253368"/>
</g>
<path id="Fill 109" fill-rule="evenodd" clip-rule="evenodd" d="M195.681 718.474L232.29 624.213C241.114 601.49 229.736 575.682 207.006 566.861C184.276 558.04 158.46 569.41 149.631 592.132L113.374 685.5L195.681 718.474Z" fill="#597EF7"/>
<g id="Vector_8">
<path d="M336.158 577.387C336.931 577.387 337.558 578.013 337.558 578.787C337.558 579.474 337.063 580.045 336.41 580.164L336.158 580.186H261.046C260.273 580.186 259.646 579.56 259.646 578.787C259.646 578.099 260.141 577.528 260.794 577.409L261.046 577.387H336.158Z" fill="#4E5C93"/>
<path d="M232.175 624.172C232.455 623.452 233.267 623.094 233.988 623.374C234.628 623.623 234.982 624.291 234.856 624.943L234.786 625.186L198.177 719.443C197.926 720.088 197.25 720.441 196.594 720.308L196.351 720.235L114.044 687.261C113.326 686.973 112.977 686.158 113.265 685.441C113.521 684.803 114.193 684.457 114.844 684.59L115.086 684.662L196.079 717.108L232.175 624.172Z" fill="#4E5C93"/>
</g>
<g id="pad">
<path id="Fill 113" fill-rule="evenodd" clip-rule="evenodd" d="M319.802 878.794L392.417 680.838C393.614 677.576 396.767 675.441 400.241 675.543L580.271 680.679C585.863 680.838 589.606 686.49 587.576 691.702L512.363 884.204C511.157 887.303 508.171 889.341 504.847 889.345L327.406 889.658C321.779 889.666 317.864 884.072 319.802 878.794Z" fill="#4E5C93"/>
<path id="Fill 115" fill-rule="evenodd" clip-rule="evenodd" d="M329.388 876.746L400.739 682.242C402.188 678.289 406.001 675.709 410.211 675.828L592.469 681.031C596.379 681.141 598.999 685.09 597.572 688.734L521.324 883.904C519.986 887.333 516.683 889.591 513.002 889.6L338.595 889.904C331.783 889.917 327.041 883.142 329.388 876.746Z" fill="#253368"/>
<path id="Fill 117" fill-rule="evenodd" clip-rule="evenodd" d="M424.89 695.476C426.832 697.827 425.933 701.775 422.878 704.293C419.826 706.815 415.779 706.952 413.838 704.601C411.896 702.25 412.794 698.302 415.845 695.784C418.901 693.262 422.948 693.125 424.89 695.476Z" fill="#4E5C93"/>
<path id="Fill 119" fill-rule="evenodd" clip-rule="evenodd" d="M422.374 697.741C423.383 698.961 422.916 701.012 421.331 702.319C419.745 703.627 417.641 703.701 416.637 702.482C415.628 701.258 416.095 699.207 417.68 697.9C419.261 696.592 421.366 696.522 422.374 697.741Z" fill="#FFC999"/>
</g>
<g id="Vector_9">
<path fill-rule="evenodd" clip-rule="evenodd" d="M388.438 875.827C386.505 889.341 374.277 898.946 360.684 897.629L98.2635 872.2C74.2258 869.066 57.3831 846.898 60.8177 822.912C64.2787 798.707 87.0086 782.116 111.121 786.179L369.046 847.36C381.903 850.411 390.309 862.754 388.438 875.827Z" fill="#FFC999"/>
<path fill-rule="evenodd" clip-rule="evenodd" d="M388.481 907.702C388.481 907.702 328.266 901.601 320.52 874.798C313.506 850.526 336.883 840.613 336.883 840.613C336.883 840.613 358.561 827.082 386.583 822.411C405.047 819.339 440.753 817.05 443.677 826.527C447.495 838.883 406.931 839.121 406.856 848.532C406.782 858.185 415.165 858.757 433.8 866.329C445.451 871.061 452.713 868.125 461.823 874.019C479.63 885.538 458.683 919.794 388.481 907.702Z" fill="#FFC999"/>
</g>
<g id="Vector_10">
<path d="M316.858 401.704C317.718 401.628 318.487 402.193 318.694 403.003L318.817 403.772C318.861 404 318.924 404.292 319.013 404.644C319.323 405.873 319.816 407.302 320.534 408.91C322.62 413.58 326.105 418.706 331.329 424.114C332.019 424.828 331.971 425.973 331.224 426.627L328.964 428.587C325.667 431.419 322.792 433.768 320.334 435.671L318.595 436.994L316.799 438.291C316.755 438.322 316.716 438.348 316.683 438.37C315.886 438.904 314.807 438.691 314.273 437.895C313.739 437.098 313.952 436.019 314.749 435.485L315.582 434.897L316.523 434.206C316.86 433.954 317.222 433.681 317.609 433.385L318.206 432.925C320.351 431.265 322.826 429.252 325.635 426.863L327.577 425.194L326.85 424.401C322.738 419.823 319.78 415.415 317.801 411.276L317.362 410.326C315.98 407.232 315.398 404.924 315.28 403.586C315.196 402.631 315.903 401.788 316.858 401.704Z" fill="#DD936F"/>
<path d="M287.77 506.847C288.09 505.943 289.082 505.469 289.986 505.788C301.513 509.862 312.98 511.002 324.049 509.387C324.998 509.249 325.88 509.906 326.018 510.855C326.157 511.804 325.5 512.685 324.55 512.824C312.921 514.521 300.885 513.324 288.829 509.063C287.924 508.743 287.45 507.751 287.77 506.847Z" fill="#DD936F"/>
<path d="M736.775 447.871C737.47 448.532 737.498 449.631 736.836 450.326L736.032 451.194L735.004 452.333C734.644 452.737 734.268 453.164 733.878 453.613C731.647 456.18 729.416 458.924 727.337 461.729C725.278 464.507 723.482 467.196 722.024 469.733C717.054 478.381 716.642 483.905 721.367 485.875C722.253 486.245 722.671 487.261 722.302 488.147C721.933 489.032 720.916 489.45 720.03 489.081C712.55 485.962 713.126 478.245 719.011 468.003C720.542 465.338 722.412 462.541 724.546 459.661C726.683 456.778 728.969 453.966 731.255 451.335L732.952 449.418L734.319 447.933C734.98 447.238 736.08 447.21 736.775 447.871Z" fill="#DD936F"/>
<path d="M743.501 469.254C744.085 470.015 743.941 471.105 743.179 471.689L742.333 472.355L741.251 473.232C740.872 473.543 740.476 473.872 740.065 474.219C737.716 476.197 735.367 478.319 733.18 480.494C730.852 482.81 728.847 485.049 727.267 487.151C723.053 492.756 722.395 496.45 725.408 498.296C726.664 499.066 728.077 499.237 729.706 498.857C732.088 498.303 734.778 496.607 737.53 494.119C738.778 492.991 739.953 491.777 741.017 490.563L741.829 489.612C742.051 489.343 742.222 489.127 742.339 488.974C742.92 488.211 744.01 488.064 744.774 488.645C745.537 489.226 745.684 490.316 745.103 491.079L744.521 491.807C744.274 492.107 743.976 492.458 743.63 492.853C742.483 494.161 741.216 495.469 739.86 496.695C736.71 499.543 733.566 501.525 730.494 502.24C728.019 502.816 725.673 502.533 723.592 501.257C718.166 497.932 719.206 492.093 724.49 485.065C726.181 482.815 728.292 480.456 730.73 478.032C732.991 475.783 735.409 473.599 737.826 471.563L739.047 470.547L741.066 468.933C741.827 468.349 742.917 468.493 743.501 469.254Z" fill="#DD936F"/>
<path d="M747.8 486.379C748.748 486.229 749.638 486.876 749.787 487.824C749.937 488.771 749.29 489.66 748.342 489.81C746.018 490.176 743.049 492.275 739.496 496.456C732.031 505.235 730.486 510.883 732.705 512.181C735.002 513.524 740.454 511.041 743.957 506.032C745.194 504.263 747.906 505.887 746.93 507.812C742.568 516.417 737.454 522.417 731.096 527.083L729.51 528.207C726.847 530.054 725.872 530.581 718.523 534.457L716.805 535.384C706.832 540.901 702.806 545.748 700.501 557.228C700.313 558.169 699.397 558.778 698.456 558.589C697.516 558.4 696.906 557.485 697.095 556.545C699.697 543.585 704.572 538.034 716.009 531.861L722.719 528.292C725.277 526.899 726.174 526.303 728.141 524.927C731.948 522.264 735.28 519.137 738.27 515.221L738.386 515.059L737.959 515.236C735.548 516.151 733.206 516.273 731.366 515.398L730.951 515.178C725.999 512.283 728.145 504.443 736.849 494.207C740.888 489.453 744.501 486.9 747.8 486.379Z" fill="#DD936F"/>
<path d="M700.653 464.95C701.513 464.879 702.279 465.447 702.481 466.258L702.527 466.537L704.633 491.967L705.286 493.12L705.768 494.018C706.765 495.907 707.761 498.009 708.69 500.274C711.389 506.853 713.001 513.454 712.966 519.679C712.94 524.537 711.895 528.969 709.68 532.847C709.205 533.68 708.144 533.97 707.311 533.495C706.477 533.019 706.187 531.959 706.663 531.126C708.561 527.801 709.469 523.953 709.492 519.66C709.524 513.96 708.016 507.783 705.476 501.592C704.768 499.867 704.019 498.24 703.264 496.74L702.696 495.64C702.131 494.571 701.697 493.815 701.457 493.426C701.362 493.271 701.291 493.102 701.249 492.927L701.205 492.658L699.065 466.824C698.986 465.868 699.697 465.029 700.653 464.95Z" fill="#DD936F"/>
<path d="M408.853 873.169C409.426 872.4 410.514 872.241 411.284 872.814L411.731 873.131C412.272 873.5 413.091 874.021 414.182 874.653C416.635 876.075 419.532 877.5 422.853 878.833C434.325 883.436 447.765 885.79 462.945 884.677C463.902 884.606 464.735 885.325 464.805 886.281C464.875 887.238 464.156 888.07 463.2 888.14C447.467 889.295 433.502 886.848 421.559 882.056C418.079 880.659 415.033 879.161 412.44 877.658C411.755 877.261 411.137 876.884 410.587 876.532L410.061 876.189C409.649 875.916 409.364 875.715 409.208 875.599C408.439 875.026 408.28 873.938 408.853 873.169Z" fill="#DD936F"/>
<path d="M399.948 888.29C400.355 887.422 401.389 887.047 402.258 887.454C403.124 887.859 403.999 888.248 404.885 888.621C418.22 894.247 432.159 895.963 443.897 895.474L445.242 895.408C446.017 895.364 446.549 895.321 446.815 895.293C447.769 895.194 448.623 895.886 448.722 896.84C448.822 897.794 448.129 898.648 447.174 898.747L446.187 898.828C445.965 898.844 445.715 898.86 445.438 898.875C432.945 899.584 417.949 897.903 403.534 891.821C402.608 891.43 401.691 891.023 400.785 890.599C399.916 890.193 399.542 889.159 399.948 888.29Z" fill="#DD936F"/>
<path d="M385.012 896.907C385.507 896.085 386.575 895.82 387.397 896.315L387.791 896.537C388.275 896.797 389.031 897.168 390.064 897.621C392.405 898.646 395.267 899.676 398.667 900.641C406.161 902.768 415.123 904.261 425.613 904.832C426.571 904.885 427.305 905.703 427.253 906.661C427.201 907.619 426.382 908.353 425.424 908.3C414.678 907.715 405.461 906.179 397.718 903.982C394.166 902.974 391.154 901.89 388.67 900.802C387.153 900.138 386.136 899.61 385.605 899.29C384.783 898.795 384.518 897.728 385.012 896.907Z" fill="#DD936F"/>
</g>
</g>
</g>
<defs>
<clipPath id="clip0_11026_7089">
<rect width="1133" height="1010" fill="white"/>
</clipPath>
</defs>
</svg>
