<svg width="64" height="64" viewBox="0 0 64 64" fill="none" xmlns="http://www.w3.org/2000/svg">
<circle cx="32" cy="32" r="32" fill="#DEDEDE"/>
<g clip-path="url(#clip0_62_233)">
<path d="M27.4883 44.9805H28.0469C30.3242 44.9805 32.2292 44.651 33.7617 43.9922C35.2943 43.319 36.5189 42.3952 37.4355 41.2207C38.3665 40.0319 39.0326 38.6426 39.4336 37.0527C39.8346 35.4629 40.0352 33.737 40.0352 31.875V27.5137C40.0352 25.8665 39.8561 24.4199 39.498 23.1738C39.14 21.9277 38.6315 20.8893 37.9727 20.0586C37.3138 19.2135 36.5332 18.5762 35.6309 18.1465C34.7428 17.7168 33.7546 17.502 32.666 17.502C31.5918 17.502 30.6178 17.7311 29.7441 18.1895C28.8848 18.6478 28.1543 19.2852 27.5527 20.1016C26.9655 20.9036 26.5072 21.8275 26.1777 22.873C25.8626 23.9043 25.7051 25 25.7051 26.1602C25.7051 27.2201 25.8483 28.2513 26.1348 29.2539C26.4355 30.2422 26.8724 31.1374 27.4453 31.9395C28.0182 32.7272 28.7201 33.3574 29.5508 33.8301C30.3958 34.2884 31.3698 34.5176 32.4727 34.5176C33.7188 34.5176 34.8216 34.2812 35.7812 33.8086C36.7552 33.3359 37.5788 32.7272 38.252 31.9824C38.9395 31.2233 39.4622 30.4069 39.8203 29.5332C40.1927 28.6452 40.3932 27.7858 40.4219 26.9551L41.7109 26.9336C41.7109 28.237 41.4674 29.4831 40.9805 30.6719C40.5078 31.8464 39.8346 32.8919 38.9609 33.8086C38.1016 34.7109 37.0918 35.4271 35.9316 35.957C34.7715 36.487 33.5182 36.752 32.1719 36.752C30.7109 36.752 29.4147 36.4655 28.2832 35.8926C27.166 35.3053 26.2279 34.5176 25.4688 33.5293C24.724 32.5267 24.1582 31.4023 23.7715 30.1562C23.3848 28.9102 23.1914 27.6139 23.1914 26.2676C23.1914 24.7637 23.3991 23.3529 23.8145 22.0352C24.2441 20.7031 24.8672 19.5358 25.6836 18.5332C26.5 17.5163 27.4883 16.7214 28.6484 16.1484C29.8229 15.5755 31.1478 15.2891 32.623 15.2891C34.2988 15.2891 35.7598 15.597 37.0059 16.2129C38.252 16.8145 39.2832 17.6738 40.0996 18.791C40.9303 19.9082 41.5462 21.2259 41.9473 22.7441C42.3626 24.2624 42.5703 25.9382 42.5703 27.7715V30.2422C42.5703 32.0898 42.4271 33.8587 42.1406 35.5488C41.8542 37.2389 41.3743 38.8001 40.7012 40.2324C40.0423 41.6504 39.1543 42.8822 38.0371 43.9277C36.9199 44.9733 35.5378 45.7897 33.8906 46.377C32.2435 46.9499 30.2956 47.2363 28.0469 47.2363H27.4668L27.4883 44.9805Z" fill="#333333"/>
</g>
<defs>
<clipPath id="clip0_62_233">
<rect width="21.76" height="46.08" fill="white" transform="translate(21 5)"/>
</clipPath>
</defs>
</svg>
