<svg width="487" height="487" viewBox="0 0 487 487" fill="none" xmlns="http://www.w3.org/2000/svg">
<g id="Color/Text specification page">
<path id="Fill 1" fill-rule="evenodd" clip-rule="evenodd" d="M460.015 118.288H27.0674V89.0549C27.0674 82.7136 32.3399 77.5723 38.8431 77.5723H448.24C454.743 77.5723 460.015 82.7136 460.015 89.0549V118.288Z" fill="#253368"/>
<path id="Fill 5" fill-rule="evenodd" clip-rule="evenodd" d="M57.4269 96.6887C57.4269 100.668 54.1385 103.895 50.0821 103.895C46.0262 103.895 42.7383 100.668 42.7383 96.6887C42.7383 92.7091 46.0262 89.4824 50.0821 89.4824C54.1385 89.4824 57.4269 92.7091 57.4269 96.6887Z" fill="#FF7946"/>
<path id="Fill 7" fill-rule="evenodd" clip-rule="evenodd" d="M84.8483 96.6887C84.8483 100.668 81.5603 103.895 77.504 103.895C73.4481 103.895 70.1602 100.668 70.1602 96.6887C70.1602 92.7091 73.4481 89.4824 77.504 89.4824C81.5603 89.4824 84.8483 92.7091 84.8483 96.6887Z" fill="#FAAD14"/>
<path id="Fill 9" fill-rule="evenodd" clip-rule="evenodd" d="M112.27 96.6887C112.27 100.668 108.982 103.895 104.926 103.895C100.87 103.895 97.582 100.668 97.582 96.6887C97.582 92.7091 100.87 89.4824 104.926 89.4824C108.982 89.4824 112.27 92.7091 112.27 96.6887Z" fill="#7CB305"/>
<path id="Fill 3 Copy 3" fill-rule="evenodd" clip-rule="evenodd" d="M39.7635 409.503C32.5121 409.503 26.6328 404.217 26.6328 397.697V116.578H460.162V397.697C460.162 404.217 454.283 409.503 447.031 409.503H39.7635Z" fill="#E4EBF7"/>
<path id="Rectangle" d="M429.526 138.059H61.175C58.2759 138.059 55.9258 140.409 55.9258 143.308V378.866C55.9258 381.765 58.2759 384.115 61.175 384.115H429.526C432.425 384.115 434.775 381.765 434.775 378.866V143.308C434.775 140.409 432.425 138.059 429.526 138.059Z" fill="white"/>
<path id="Rectangle_2" d="M382.048 190.785H194.577C192.42 190.785 190.671 192.534 190.671 194.691V214.219C190.671 216.376 192.42 218.125 194.577 218.125H382.048C384.206 218.125 385.954 216.376 385.954 214.219V194.691C385.954 192.534 384.206 190.785 382.048 190.785Z" fill="#FAAD14"/>
<path id="Rectangle_3" d="M382.048 286.473H311.746C309.589 286.473 307.841 288.221 307.841 290.378V309.907C307.841 312.064 309.589 313.812 311.746 313.812H382.048C384.205 313.812 385.954 312.064 385.954 309.907V290.378C385.954 288.221 384.205 286.473 382.048 286.473Z" fill="#FF7946"/>
<path id="Rectangle_4" d="M382.048 243.512H311.746C309.589 243.512 307.841 245.26 307.841 247.417V266.946C307.841 269.103 309.589 270.851 311.746 270.851H382.048C384.205 270.851 385.954 269.103 385.954 266.946V247.417C385.954 245.26 384.205 243.512 382.048 243.512Z" fill="#597EF7"/>
<path id="Aa" fill-rule="evenodd" clip-rule="evenodd" d="M142.351 192.738H162.83L208.246 311.861H188.923L177.858 281.163H127.157L116.092 311.861H96.9346L142.351 192.738ZM132.086 266.946H171.142L152.019 214.219H151.371L132.086 266.946ZM252.531 239.606C261.728 239.606 268.504 242.057 272.861 246.959C276.612 251.216 278.548 257.407 278.548 265.534V308.102H266.689V298.686C264.269 302.04 261.244 304.748 257.613 306.683C253.499 308.747 248.659 309.908 243.092 309.908C236.558 309.908 231.476 308.102 227.845 304.619C223.852 301.137 221.916 296.622 221.916 291.075C221.916 283.593 224.699 277.789 230.265 273.79C235.348 269.92 242.608 267.985 251.805 267.727L265.842 267.34V264.631C265.842 255.344 261.123 250.7 251.684 250.7C247.691 250.7 244.423 251.474 242.003 253.022C239.099 254.828 237.284 257.536 236.558 261.277L223.852 260.116C225.183 252.893 228.571 247.475 233.896 244.121C238.494 241.025 244.787 239.606 252.531 239.606ZM268.784 278.663L255.375 279.038C243.443 279.287 237.539 283.534 237.539 291.527C237.539 294.024 238.523 296.023 240.614 297.646C242.582 299.27 245.288 300.144 248.61 300.144C254.145 300.144 258.82 298.396 262.756 295.024C266.693 291.652 268.784 287.405 268.784 282.41V278.663Z" fill="#253368"/>
<path id="Path" d="M386.696 339.199C387.235 339.199 387.672 339.636 387.672 340.176C387.672 340.69 387.274 341.112 386.768 341.149L386.696 341.152H219.963C219.423 341.152 218.986 340.715 218.986 340.176C218.986 339.661 219.385 339.239 219.89 339.202L219.963 339.199H386.696Z" fill="#253368"/>
<path id="fontdesign" d="M113.963 346.082V339.052H116.244V338.005H113.963V337.115C113.963 336.724 114.041 336.443 114.198 336.271C114.354 336.084 114.62 336.006 114.963 336.006H116.354V334.928H114.807C114.12 334.928 113.588 335.115 113.229 335.506C112.885 335.881 112.714 336.396 112.714 337.084V338.005H110.683V339.052H112.714V346.082H113.963ZM121.009 346.301C122.212 346.301 123.181 345.879 123.915 345.036C124.587 344.254 124.93 343.255 124.93 342.052C124.93 340.833 124.587 339.833 123.899 339.036C123.181 338.193 122.212 337.787 121.009 337.787C119.791 337.787 118.838 338.193 118.119 339.036C117.432 339.833 117.088 340.833 117.088 342.052C117.088 343.255 117.432 344.254 118.119 345.036C118.838 345.879 119.791 346.301 121.009 346.301ZM121.009 345.254C120.15 345.254 119.478 344.926 119.009 344.27C118.572 343.676 118.369 342.942 118.369 342.052C118.369 341.146 118.572 340.411 119.009 339.818C119.478 339.161 120.15 338.833 121.009 338.833C121.853 338.833 122.525 339.161 123.025 339.818C123.446 340.411 123.665 341.146 123.665 342.052C123.665 342.926 123.446 343.676 123.025 344.27C122.525 344.926 121.853 345.254 121.009 345.254ZM127.805 346.082V341.208C127.852 340.474 128.086 339.896 128.524 339.458C128.93 339.052 129.414 338.849 129.977 338.849C131.383 338.849 132.101 339.63 132.101 341.208V346.082H133.351V341.114C133.351 338.896 132.336 337.787 130.336 337.787C129.805 337.787 129.32 337.912 128.883 338.162C128.446 338.396 128.086 338.74 127.805 339.193V338.005H126.555V346.082H127.805ZM139.241 346.082V345.036H138.21C137.929 345.036 137.725 344.957 137.616 344.832C137.491 344.707 137.444 344.489 137.444 344.192V339.052H139.444V338.005H137.444V335.396L136.21 335.912V338.005H134.585V339.052H136.21V344.192C136.21 344.801 136.335 345.254 136.601 345.567C136.882 345.91 137.366 346.082 138.022 346.082H139.241ZM149.396 346.301C150.614 346.301 151.52 345.785 152.083 344.754V346.082H153.254V334.709H152.005V339.49C151.38 338.349 150.489 337.787 149.333 337.787C148.177 337.787 147.287 338.208 146.63 339.083C146.021 339.864 145.724 340.833 145.724 342.02C145.724 343.239 146.021 344.239 146.63 345.02C147.287 345.864 148.208 346.301 149.396 346.301ZM149.552 345.27C148.677 345.27 148.021 344.942 147.583 344.317C147.193 343.754 147.005 342.989 147.005 342.02C147.005 341.052 147.193 340.302 147.599 339.755C148.036 339.13 148.708 338.818 149.599 338.818C150.317 338.818 150.911 339.099 151.364 339.693C151.801 340.271 152.036 341.036 152.036 341.974V342.13C152.036 343.036 151.833 343.77 151.442 344.333C150.989 344.957 150.364 345.27 149.552 345.27ZM158.566 346.301C159.613 346.301 160.472 345.989 161.144 345.395C161.691 344.895 162.05 344.27 162.237 343.489H160.988C160.784 344.051 160.519 344.473 160.175 344.754C159.769 345.082 159.222 345.254 158.566 345.254C157.801 345.254 157.191 345.004 156.754 344.504C156.316 344.004 156.082 343.301 156.02 342.395H162.394C162.362 340.989 162.05 339.88 161.456 339.099C160.8 338.224 159.816 337.787 158.519 337.787C157.347 337.787 156.426 338.208 155.738 339.052C155.051 339.849 154.723 340.849 154.723 342.036C154.723 343.348 155.067 344.379 155.785 345.161C156.473 345.91 157.41 346.301 158.566 346.301ZM161.097 341.427H156.051C156.129 340.63 156.379 340.005 156.816 339.536C157.254 339.068 157.832 338.833 158.55 338.833C160.081 338.833 160.941 339.693 161.097 341.427ZM166.862 346.301C169.143 346.301 170.283 345.457 170.283 343.801C170.283 343.098 169.955 342.552 169.314 342.145C168.893 341.88 168.205 341.63 167.237 341.395C166.424 341.177 165.862 341.005 165.565 340.864C165.096 340.63 164.878 340.333 164.878 339.989C164.878 339.63 165.049 339.349 165.393 339.146C165.706 338.927 166.143 338.833 166.705 338.833C167.346 338.833 167.846 338.958 168.19 339.208C168.502 339.427 168.705 339.802 168.815 340.302H170.033C169.814 338.615 168.721 337.787 166.721 337.787C165.815 337.787 165.065 337.99 164.503 338.396C163.893 338.802 163.597 339.333 163.597 340.021C163.597 340.708 163.893 341.224 164.518 341.599C164.893 341.849 165.565 342.083 166.518 342.317C167.393 342.536 167.971 342.708 168.236 342.833C168.736 343.083 169.002 343.426 169.002 343.879C169.002 344.786 168.268 345.254 166.83 345.254C166.143 345.254 165.628 345.129 165.284 344.879C164.94 344.598 164.706 344.145 164.612 343.505H163.393C163.581 345.364 164.737 346.301 166.862 346.301ZM172.783 336.818C173.048 336.818 173.267 336.724 173.454 336.552C173.642 336.365 173.736 336.146 173.736 335.881C173.736 335.599 173.642 335.381 173.454 335.225C173.267 335.037 173.048 334.959 172.783 334.959C172.517 334.959 172.298 335.037 172.111 335.225C171.923 335.381 171.845 335.599 171.845 335.881C171.845 336.146 171.923 336.365 172.111 336.552C172.298 336.724 172.517 336.818 172.783 336.818ZM173.408 346.082V338.005H172.158V346.082H173.408ZM179.36 349.394C181.813 349.394 183.047 348.098 183.047 345.52V338.005H181.797V339.396C181.203 338.318 180.297 337.787 179.079 337.787C177.954 337.787 177.063 338.177 176.407 338.974C175.751 339.724 175.439 340.677 175.439 341.864C175.439 343.036 175.751 343.989 176.407 344.739C177.063 345.504 177.954 345.895 179.079 345.895C180.297 345.895 181.203 345.348 181.797 344.27V345.692C181.797 347.473 180.985 348.379 179.36 348.379C178.626 348.379 178.079 348.238 177.719 347.973C177.36 347.723 177.126 347.316 177.032 346.77H175.782C175.923 347.645 176.282 348.301 176.86 348.738C177.423 349.176 178.266 349.394 179.36 349.394ZM179.25 344.848C178.376 344.848 177.735 344.536 177.298 343.942C176.907 343.411 176.72 342.708 176.72 341.864C176.72 340.958 176.938 340.224 177.376 339.693C177.829 339.099 178.454 338.818 179.266 338.818C180.063 338.818 180.688 339.099 181.156 339.693C181.594 340.224 181.813 340.958 181.813 341.864C181.813 342.739 181.594 343.458 181.156 344.004C180.688 344.567 180.063 344.848 179.25 344.848ZM186.234 346.082V341.208C186.281 340.474 186.515 339.896 186.952 339.458C187.359 339.052 187.843 338.849 188.405 338.849C189.811 338.849 190.53 339.63 190.53 341.208V346.082H191.78V341.114C191.78 338.896 190.764 337.787 188.765 337.787C188.233 337.787 187.749 337.912 187.312 338.162C186.874 338.396 186.515 338.74 186.234 339.193V338.005H184.984V346.082H186.234Z" fill="#253368"/>
</g>
</svg>
