<svg width="455" height="455" viewBox="0 0 455 455" fill="none" xmlns="http://www.w3.org/2000/svg">
<g id="Color/Tool box" clip-path="url(#clip0_11026_7087)">
<path id="Vector" d="M129.781 184.912L79.3145 222.337H331.248L280.504 184.912H129.781Z" fill="#E4EBF7"/>
<path id="Vector_2" d="M280.504 222.302L331.248 222.337L280.504 184.912V222.302Z" fill="#A3B5D6"/>
<g id="pencile">
<path id="Vector_3" d="M122.421 118.395L165.435 364.606C166.419 370.242 171.794 374.02 177.43 373.031L196.582 369.686C202.217 368.697 205.996 363.328 205.006 357.692L161.998 111.48L122.421 118.395Z" fill="#FFA940"/>
<path id="Vector_4" d="M128.224 76.6265L122.427 118.42L161.998 111.505L143.477 73.9648L128.224 76.6265Z" fill="#FFE7BA"/>
<path id="Vector_5" d="M132.766 58.3006C132.419 58.3584 132.141 58.6362 132.077 58.9833L128.71 76.5674L143.175 74.0388L133.663 58.694C133.501 58.4394 133.223 58.2832 132.928 58.2832C132.87 58.2832 132.818 58.289 132.766 58.3006Z" fill="#253368"/>
<path id="Vector_6" d="M134.363 116.452L179.136 372.737L195.291 369.914L150.524 113.623L134.363 116.452Z" fill="#FE9921"/>
</g>
<path id="Vector_7" d="M189.436 353.334L188.753 372.943C188.539 379.007 193.284 384.093 199.347 384.301C205.411 384.515 210.497 379.771 210.711 373.713L211.388 354.098L189.442 353.334H189.436Z" fill="#253368"/>
<g id="pen">
<path id="Vector_8" d="M209.537 59.8613L208.327 66.7988C208.061 68.3148 209.085 69.7671 210.601 70.0275C212.123 70.2936 213.569 69.2753 213.836 67.7535L215.045 60.816C215.311 59.2942 214.293 57.8477 212.771 57.5815C212.609 57.5584 212.447 57.541 212.285 57.541C210.954 57.541 209.774 58.4957 209.537 59.8613Z" fill="#50548B"/>
<path id="Vector_9" d="M148.319 335.299C147.33 340.94 151.114 346.31 156.756 347.293L168.114 349.272C173.755 350.25 179.125 346.477 180.103 340.836L221.624 102.447L189.835 96.9102L148.319 335.299Z" fill="#597EF7"/>
<path id="Vector_10" d="M206.718 66.7407L189.834 96.9096L221.64 102.453L215.438 68.2336C215.305 67.5161 214.737 66.949 214.014 66.8333L208.529 65.8786C208.431 65.8613 208.332 65.8555 208.234 65.8555C207.615 65.8555 207.03 66.1853 206.718 66.7407Z" fill="#E4EBF7"/>
</g>
<g id="marker">
<path id="Vector_11" d="M74.1883 92.1724L63.2525 99.7754C62.0027 100.643 61.5398 102.275 62.1473 103.669L68.7782 118.852C69.4784 120.472 71.3646 121.207 72.9847 120.501L84.9562 115.276C86.5764 114.565 87.317 112.684 86.6111 111.064L78.9502 93.509C78.5684 92.6353 77.8104 91.9757 76.8846 91.7153C76.6069 91.6401 76.3118 91.5996 76.0282 91.5996C75.3744 91.5996 74.7379 91.7906 74.1883 92.1724Z" fill="#FF7946"/>
<path id="Vector_12" d="M72.3418 161.924L155.245 351.86L200.094 332.285L117.19 142.35L72.3418 161.924Z" fill="#FF7946"/>
<path id="Vector_13" d="M72.3418 161.924L79.6034 178.548L124.452 158.979L117.19 142.35L72.3418 161.924Z" fill="#253368"/>
<path id="Vector_14" d="M66.7695 116.138L67.8805 151.688L72.3416 161.923L117.19 142.349L112.758 132.194L86.0258 107.73L66.7695 116.138Z" fill="#E4EBF7"/>
<path id="Vector_15" d="M67.8691 151.867L72.336 162.097L117.179 142.517L112.712 132.293L67.8691 151.867Z" fill="#F5F5F5"/>
<path id="Vector_16" d="M127.338 196.721L103.546 198.364C102.956 198.404 102.418 198.734 102.111 199.243C101.798 199.747 101.758 200.378 101.995 200.927L102.151 201.28C102.464 201.992 103.187 202.432 103.962 202.374L111.976 201.784C112.752 201.726 113.481 202.171 113.793 202.883L115.83 207.552C118.347 213.321 122.49 215.942 128.096 215.427C133.703 214.918 135.265 211.834 132.829 206.25L129.144 197.82C128.849 197.149 128.183 196.721 127.454 196.721C127.419 196.721 127.379 196.721 127.338 196.721ZM122.31 210.683C121.269 209.954 120.337 208.733 119.591 207.02L118.173 203.774C117.936 203.23 117.976 202.605 118.283 202.096C118.59 201.587 119.128 201.257 119.718 201.217L125.134 200.817C125.909 200.765 126.633 201.199 126.945 201.911L128.843 206.268C129.572 207.928 129.734 209.213 129.381 210.052C129.022 210.891 128.062 211.417 126.401 211.562C126.129 211.585 125.851 211.597 125.591 211.597C124.289 211.597 123.172 211.296 122.31 210.683Z" fill="white"/>
<path id="Vector_17" d="M136.591 218.021L113.065 220.272C112.486 220.33 111.959 220.66 111.664 221.163C111.363 221.667 111.329 222.286 111.554 222.818L117.792 237.104C118.116 237.839 118.88 238.279 119.678 238.186C120.251 238.122 120.766 237.781 121.055 237.283C121.345 236.78 121.379 236.172 121.142 235.64L117.092 226.348C116.866 225.809 116.901 225.196 117.196 224.693C117.491 224.195 118.012 223.86 118.59 223.807L123.046 223.402C123.833 223.327 124.573 223.761 124.891 224.484L129.214 234.379C129.538 235.114 130.307 235.559 131.106 235.472C131.679 235.403 132.188 235.061 132.483 234.558C132.766 234.06 132.801 233.447 132.57 232.915L129.191 225.173C128.959 224.635 129 224.022 129.295 223.524C129.59 223.026 130.111 222.691 130.689 222.633L134.439 222.257C135.225 222.182 135.972 222.61 136.29 223.333L140.879 233.835C141.203 234.575 141.966 235.009 142.765 234.917C143.343 234.847 143.858 234.512 144.142 234.003C144.431 233.488 144.46 232.874 144.211 232.342L138.431 219.103C138.136 218.432 137.482 218.01 136.765 218.01C136.707 218.01 136.649 218.016 136.591 218.021Z" fill="white"/>
</g>
<path id="Vector_18" d="M79.9805 268.018V388.577C79.9805 393.779 84.1986 397.997 89.4003 397.997H321.708C326.909 397.997 331.127 393.779 331.127 388.577V268.018H79.9805Z" fill="#597EF7"/>
<path id="Vector_19" d="M79.9795 240.521V310.765L331.126 290.734V240.521H79.9795Z" fill="#3D60E0"/>
<g id="Color/Figma" clip-path="url(#clip1_11026_7087)">
<path id="Path" d="M223.789 237.745C239.002 246.528 258.725 240.88 267.814 225.137L284.279 196.617L256.72 180.706C241.508 171.923 221.785 177.572 212.695 193.314C203.606 209.057 208.576 228.962 223.789 237.745Z" fill="#0ACF83"/>
<path id="Path_2" d="M278.725 78.9494C287.845 63.1537 307.593 57.4622 322.805 66.2452L350.364 82.1565L317.322 139.387L289.763 123.476C274.55 114.693 269.605 94.7451 278.725 78.9494Z" fill="#F24E1E"/>
<path id="Path_3" d="M350.364 82.1562L377.923 98.0675C393.136 106.851 398.081 126.798 388.961 142.594C379.842 158.39 360.094 164.081 344.881 155.298L317.322 139.387L350.364 82.1562Z" fill="#FF7262"/>
<path id="Path_4" d="M356.03 199.633C346.91 215.429 327.162 221.12 311.95 212.337C296.737 203.554 291.792 183.606 300.912 167.811C310.031 152.015 329.779 146.324 344.992 155.107C360.204 163.89 365.149 183.838 356.03 199.633Z" fill="#1ABCFE"/>
<path id="Path_5" d="M245.793 135.988C254.913 120.193 274.661 114.501 289.874 123.284L317.433 139.196L284.39 196.426L256.831 180.515C241.619 171.732 236.674 151.784 245.793 135.988Z" fill="#A259FF"/>
</g>
<path id="Vector_20" d="M79.3314 222.336L54.8272 276.245C53.8956 278.195 54.0229 280.481 55.1685 282.309C56.32 284.132 58.3278 285.243 60.4802 285.249H349.7C351.904 285.249 353.953 284.091 355.087 282.199C356.221 280.307 356.284 277.958 355.255 276.02L331.248 222.336H79.3314Z" fill="#E4EBF7"/>
</g>
<defs>
<clipPath id="clip0_11026_7087">
<rect width="455" height="455" fill="white"/>
</clipPath>
<clipPath id="clip1_11026_7087">
<rect width="226.322" height="226.322" fill="white" transform="translate(259.443 13.3301) rotate(30)"/>
</clipPath>
</defs>
</svg>
