<svg width="903" height="368" viewBox="0 0 903 368" fill="none" xmlns="http://www.w3.org/2000/svg">
<g clip-path="url(#clip0_221_2370)">
<path fill-rule="evenodd" clip-rule="evenodd" d="M0 10.5225C0 4.99969 4.47715 0.522552 10 0.522552L177.294 0.522552C182.817 0.522552 187.294 4.99971 187.294 10.5226V175.765C187.294 181.288 182.817 185.765 177.294 185.765H10C4.47716 185.765 0 181.288 0 175.765L0 10.5225Z" fill="#6A1EE5"/>
<path d="M6.58195 95.6203L52.1592 32.2218L97.7365 95.6203L52.1592 159.019L6.58195 95.6203Z" fill="#BB8EFF"/>
<path d="M-33.4708 32.2218H5.99347L52.1592 95.6203L5.99347 159.019H-33.4708V32.2218Z" fill="black"/>
<path d="M6.58195 95.6203L29.3706 63.9211L52.1592 95.6203L29.3706 127.32L6.58195 95.6203Z" fill="#9F5FFF"/>
<path d="M110.59 127.677V110.877H121.558V113.349H113.662V117.957H120.838V120.357H113.662V125.205H121.558V127.677H110.59ZM131.809 127.965C130.225 127.965 128.841 127.605 127.657 126.885C126.473 126.165 125.553 125.165 124.897 123.885C124.241 122.589 123.913 121.085 123.913 119.373C123.913 117.645 124.249 116.125 124.921 114.813C125.609 113.485 126.577 112.453 127.825 111.717C129.089 110.965 130.585 110.589 132.313 110.589C134.281 110.589 135.913 111.061 137.209 112.005C138.505 112.949 139.345 114.253 139.729 115.917H136.297C136.041 115.133 135.577 114.525 134.905 114.093C134.233 113.645 133.369 113.421 132.313 113.421C130.633 113.421 129.337 113.957 128.425 115.029C127.513 116.085 127.057 117.541 127.057 119.397C127.057 121.253 127.505 122.693 128.401 123.717C129.313 124.725 130.545 125.229 132.097 125.229C133.617 125.229 134.761 124.821 135.529 124.005C136.313 123.173 136.785 122.085 136.945 120.741H132.697V118.437H140.041V127.677H137.209L136.969 125.469C136.425 126.269 135.745 126.885 134.929 127.317C134.113 127.749 133.073 127.965 131.809 127.965ZM143.028 127.677V110.877H148.764C150.732 110.877 152.348 111.229 153.612 111.933C154.892 112.621 155.836 113.597 156.444 114.861C157.068 116.109 157.38 117.581 157.38 119.277C157.38 120.973 157.068 122.453 156.444 123.717C155.836 124.965 154.892 125.941 153.612 126.645C152.348 127.333 150.732 127.677 148.764 127.677H143.028ZM146.1 125.037H148.62C150.028 125.037 151.14 124.813 151.956 124.365C152.772 123.901 153.356 123.245 153.708 122.397C154.06 121.533 154.236 120.493 154.236 119.277C154.236 118.077 154.06 117.045 153.708 116.181C153.356 115.317 152.772 114.653 151.956 114.189C151.14 113.725 150.028 113.493 148.62 113.493H146.1V125.037ZM165.826 127.965C164.594 127.965 163.506 127.757 162.562 127.341C161.618 126.909 160.874 126.301 160.33 125.517C159.786 124.717 159.506 123.749 159.49 122.613H162.73C162.762 123.397 163.042 124.061 163.57 124.605C164.114 125.133 164.858 125.397 165.802 125.397C166.618 125.397 167.266 125.205 167.746 124.821C168.226 124.421 168.466 123.893 168.466 123.237C168.466 122.549 168.25 122.013 167.818 121.629C167.402 121.245 166.842 120.933 166.138 120.693C165.434 120.453 164.682 120.197 163.882 119.925C162.586 119.477 161.594 118.901 160.906 118.197C160.234 117.493 159.898 116.557 159.898 115.389C159.882 114.397 160.114 113.549 160.594 112.845C161.09 112.125 161.762 111.573 162.61 111.189C163.458 110.789 164.434 110.589 165.538 110.589C166.658 110.589 167.642 110.789 168.49 111.189C169.354 111.589 170.026 112.149 170.506 112.869C171.002 113.589 171.266 114.445 171.298 115.437H168.01C167.994 114.845 167.762 114.325 167.314 113.877C166.882 113.413 166.274 113.181 165.49 113.181C164.818 113.165 164.25 113.333 163.786 113.685C163.338 114.021 163.114 114.517 163.114 115.173C163.114 115.733 163.29 116.181 163.642 116.517C163.994 116.837 164.474 117.109 165.082 117.333C165.69 117.557 166.386 117.797 167.17 118.053C168.002 118.341 168.762 118.677 169.45 119.061C170.138 119.445 170.69 119.957 171.106 120.597C171.522 121.221 171.73 122.029 171.73 123.021C171.73 123.901 171.506 124.717 171.058 125.469C170.61 126.221 169.946 126.829 169.066 127.293C168.186 127.741 167.106 127.965 165.826 127.965Z" fill="white"/>
</g>
<path d="M207.561 89.4662L207.561 93.4286L217.531 93.4286L217.531 89.4662L207.561 89.4662ZM217.531 97.391L207.561 97.391L207.561 101.353L217.531 101.353L217.531 97.391Z" fill="#6A1EE5"/>
<g clip-path="url(#clip1_221_2370)">
<rect x="238" width="187.294" height="183.261" rx="10" fill="#E1CFFC"/>
<path d="M266.632 133V116.2H272.368C274.336 116.2 275.952 116.552 277.216 117.256C278.496 117.944 279.44 118.92 280.048 120.184C280.672 121.432 280.984 122.904 280.984 124.6C280.984 126.296 280.672 127.776 280.048 129.04C279.44 130.288 278.496 131.264 277.216 131.968C275.952 132.656 274.336 133 272.368 133H266.632ZM269.704 130.36H272.224C273.632 130.36 274.744 130.136 275.56 129.688C276.376 129.224 276.96 128.568 277.312 127.72C277.664 126.856 277.84 125.816 277.84 124.6C277.84 123.4 277.664 122.368 277.312 121.504C276.96 120.64 276.376 119.976 275.56 119.512C274.744 119.048 273.632 118.816 272.224 118.816H269.704V130.36ZM289.407 133.288C288.207 133.288 287.143 133.032 286.215 132.52C285.287 132.008 284.559 131.288 284.031 130.36C283.503 129.432 283.239 128.36 283.239 127.144C283.239 125.912 283.495 124.816 284.007 123.856C284.535 122.896 285.255 122.152 286.167 121.624C287.095 121.08 288.183 120.808 289.431 120.808C290.599 120.808 291.631 121.064 292.527 121.576C293.423 122.088 294.119 122.792 294.615 123.688C295.127 124.568 295.383 125.552 295.383 126.64C295.383 126.816 295.375 127 295.359 127.192C295.359 127.384 295.351 127.584 295.335 127.792H286.287C286.351 128.72 286.671 129.448 287.247 129.976C287.839 130.504 288.551 130.768 289.383 130.768C290.007 130.768 290.527 130.632 290.943 130.36C291.375 130.072 291.695 129.704 291.903 129.256H295.023C294.799 130.008 294.423 130.696 293.895 131.32C293.383 131.928 292.743 132.408 291.975 132.76C291.223 133.112 290.367 133.288 289.407 133.288ZM289.431 123.304C288.679 123.304 288.015 123.52 287.439 123.952C286.863 124.368 286.495 125.008 286.335 125.872H292.263C292.215 125.088 291.927 124.464 291.399 124C290.871 123.536 290.215 123.304 289.431 123.304ZM302.886 133.288C301.83 133.288 300.902 133.12 300.102 132.784C299.302 132.432 298.662 131.952 298.182 131.344C297.702 130.736 297.414 130.032 297.318 129.232H300.414C300.51 129.696 300.766 130.096 301.182 130.432C301.614 130.752 302.166 130.912 302.838 130.912C303.51 130.912 303.998 130.776 304.302 130.504C304.622 130.232 304.782 129.92 304.782 129.568C304.782 129.056 304.558 128.712 304.11 128.536C303.662 128.344 303.038 128.16 302.238 127.984C301.726 127.872 301.206 127.736 300.678 127.576C300.15 127.416 299.662 127.216 299.214 126.976C298.782 126.72 298.43 126.4 298.158 126.016C297.886 125.616 297.75 125.128 297.75 124.552C297.75 123.496 298.166 122.608 298.998 121.888C299.846 121.168 301.03 120.808 302.55 120.808C303.958 120.808 305.078 121.136 305.91 121.792C306.758 122.448 307.262 123.352 307.422 124.504H304.518C304.342 123.624 303.678 123.184 302.526 123.184C301.95 123.184 301.502 123.296 301.182 123.52C300.878 123.744 300.726 124.024 300.726 124.36C300.726 124.712 300.958 124.992 301.422 125.2C301.886 125.408 302.502 125.6 303.27 125.776C304.102 125.968 304.862 126.184 305.55 126.424C306.254 126.648 306.814 126.992 307.23 127.456C307.646 127.904 307.854 128.552 307.854 129.4C307.87 130.136 307.678 130.8 307.278 131.392C306.878 131.984 306.302 132.448 305.55 132.784C304.798 133.12 303.91 133.288 302.886 133.288ZM312.232 119.248C311.672 119.248 311.208 119.08 310.84 118.744C310.488 118.408 310.312 117.984 310.312 117.472C310.312 116.96 310.488 116.544 310.84 116.224C311.208 115.888 311.672 115.72 312.232 115.72C312.792 115.72 313.248 115.888 313.6 116.224C313.968 116.544 314.152 116.96 314.152 117.472C314.152 117.984 313.968 118.408 313.6 118.744C313.248 119.08 312.792 119.248 312.232 119.248ZM310.696 133V121.096H313.768V133H310.696ZM322.014 129.448C321.438 129.448 320.902 129.384 320.406 129.256L319.518 130.144C319.79 130.288 320.158 130.408 320.622 130.504C321.086 130.6 321.838 130.696 322.878 130.792C324.462 130.936 325.614 131.312 326.334 131.92C327.054 132.528 327.414 133.368 327.414 134.44C327.414 135.144 327.222 135.808 326.838 136.432C326.454 137.072 325.862 137.584 325.062 137.968C324.262 138.368 323.238 138.568 321.99 138.568C320.294 138.568 318.926 138.248 317.886 137.608C316.846 136.984 316.326 136.04 316.326 134.776C316.326 133.704 316.846 132.776 317.886 131.992C317.566 131.848 317.286 131.696 317.046 131.536C316.822 131.376 316.622 131.208 316.446 131.032V130.48L318.534 128.272C317.606 127.456 317.142 126.408 317.142 125.128C317.142 124.328 317.334 123.6 317.718 122.944C318.118 122.288 318.678 121.768 319.398 121.384C320.118 121 320.99 120.808 322.014 120.808C322.686 120.808 323.31 120.904 323.886 121.096H328.398V122.968L326.358 123.112C326.678 123.72 326.838 124.392 326.838 125.128C326.838 125.928 326.646 126.656 326.262 127.312C325.878 127.968 325.318 128.488 324.582 128.872C323.862 129.256 323.006 129.448 322.014 129.448ZM322.014 127.096C322.638 127.096 323.15 126.928 323.55 126.592C323.966 126.256 324.174 125.776 324.174 125.152C324.174 124.528 323.966 124.048 323.55 123.712C323.15 123.376 322.638 123.208 322.014 123.208C321.358 123.208 320.83 123.376 320.43 123.712C320.03 124.048 319.83 124.528 319.83 125.152C319.83 125.776 320.03 126.256 320.43 126.592C320.83 126.928 321.358 127.096 322.014 127.096ZM319.134 134.464C319.134 135.056 319.406 135.496 319.95 135.784C320.51 136.088 321.19 136.24 321.99 136.24C322.758 136.24 323.382 136.08 323.862 135.76C324.342 135.456 324.582 135.04 324.582 134.512C324.582 134.08 324.422 133.72 324.102 133.432C323.798 133.144 323.182 132.968 322.254 132.904C321.598 132.856 320.99 132.784 320.43 132.688C319.966 132.944 319.63 133.224 319.422 133.528C319.23 133.832 319.134 134.144 319.134 134.464ZM330.638 133V121.096H333.35L333.59 123.112C333.958 122.408 334.486 121.848 335.174 121.432C335.878 121.016 336.702 120.808 337.646 120.808C339.118 120.808 340.262 121.272 341.078 122.2C341.894 123.128 342.302 124.488 342.302 126.28V133H339.23V126.568C339.23 125.544 339.022 124.76 338.606 124.216C338.19 123.672 337.542 123.4 336.662 123.4C335.798 123.4 335.086 123.704 334.526 124.312C333.982 124.92 333.71 125.768 333.71 126.856V133H330.638Z" fill="#262D33"/>
<path d="M278.263 52.3684L295.632 35L313 52.3684L295.632 69.7368L278.263 52.3684Z" fill="#BB8EFF"/>
<path d="M263 35H278.039L295.632 52.3684L278.039 69.7368H263V35Z" fill="black"/>
<path d="M278.263 52.3684L286.947 43.6842L295.632 52.3684L286.947 61.0526L278.263 52.3684Z" fill="#9F5FFF"/>
</g>
<g clip-path="url(#clip2_221_2370)">
<rect x="476.569" width="187.294" height="183.261" rx="10" fill="#E1CFFC"/>
<path d="M512.809 133.288C511.113 133.288 509.657 132.928 508.441 132.208C507.225 131.472 506.289 130.456 505.633 129.16C504.977 127.848 504.649 126.336 504.649 124.624C504.649 122.912 504.977 121.4 505.633 120.088C506.289 118.776 507.225 117.752 508.441 117.016C509.657 116.28 511.113 115.912 512.809 115.912C514.825 115.912 516.473 116.416 517.753 117.424C519.049 118.416 519.857 119.816 520.177 121.624H516.793C516.585 120.712 516.137 120 515.449 119.488C514.777 118.96 513.881 118.696 512.761 118.696C511.209 118.696 509.993 119.224 509.113 120.28C508.233 121.336 507.793 122.784 507.793 124.624C507.793 126.464 508.233 127.912 509.113 128.968C509.993 130.008 511.209 130.528 512.761 130.528C513.881 130.528 514.777 130.288 515.449 129.808C516.137 129.312 516.585 128.632 516.793 127.768H520.177C519.857 129.496 519.049 130.848 517.753 131.824C516.473 132.8 514.825 133.288 512.809 133.288ZM528.536 133.288C527.384 133.288 526.344 133.024 525.416 132.496C524.504 131.968 523.776 131.24 523.232 130.312C522.704 129.368 522.44 128.28 522.44 127.048C522.44 125.816 522.712 124.736 523.256 123.808C523.8 122.864 524.528 122.128 525.44 121.6C526.368 121.072 527.408 120.808 528.56 120.808C529.696 120.808 530.72 121.072 531.632 121.6C532.56 122.128 533.288 122.864 533.816 123.808C534.36 124.736 534.632 125.816 534.632 127.048C534.632 128.28 534.36 129.368 533.816 130.312C533.288 131.24 532.56 131.968 531.632 132.496C530.704 133.024 529.672 133.288 528.536 133.288ZM528.536 130.624C529.336 130.624 530.032 130.328 530.624 129.736C531.216 129.128 531.512 128.232 531.512 127.048C531.512 125.864 531.216 124.976 530.624 124.384C530.032 123.776 529.344 123.472 528.56 123.472C527.744 123.472 527.04 123.776 526.448 124.384C525.872 124.976 525.584 125.864 525.584 127.048C525.584 128.232 525.872 129.128 526.448 129.736C527.04 130.328 527.736 130.624 528.536 130.624ZM542.851 133.288C541.731 133.288 540.731 133.016 539.851 132.472C538.971 131.928 538.275 131.184 537.763 130.24C537.251 129.296 536.995 128.224 536.995 127.024C536.995 125.824 537.251 124.76 537.763 123.832C538.275 122.888 538.971 122.152 539.851 121.624C540.731 121.08 541.731 120.808 542.851 120.808C543.747 120.808 544.531 120.976 545.203 121.312C545.875 121.648 546.419 122.12 546.835 122.728V115.72H549.907V133H547.171L546.835 131.296C546.451 131.824 545.939 132.288 545.299 132.688C544.675 133.088 543.859 133.288 542.851 133.288ZM543.499 130.6C544.491 130.6 545.299 130.272 545.923 129.616C546.563 128.944 546.883 128.088 546.883 127.048C546.883 126.008 546.563 125.16 545.923 124.504C545.299 123.832 544.491 123.496 543.499 123.496C542.523 123.496 541.715 123.824 541.075 124.48C540.435 125.136 540.115 125.984 540.115 127.024C540.115 128.064 540.435 128.92 541.075 129.592C541.715 130.264 542.523 130.6 543.499 130.6ZM558.819 133.288C557.619 133.288 556.555 133.032 555.627 132.52C554.699 132.008 553.971 131.288 553.443 130.36C552.915 129.432 552.651 128.36 552.651 127.144C552.651 125.912 552.907 124.816 553.419 123.856C553.947 122.896 554.667 122.152 555.579 121.624C556.507 121.08 557.595 120.808 558.843 120.808C560.011 120.808 561.043 121.064 561.939 121.576C562.835 122.088 563.531 122.792 564.027 123.688C564.539 124.568 564.795 125.552 564.795 126.64C564.795 126.816 564.787 127 564.771 127.192C564.771 127.384 564.763 127.584 564.747 127.792H555.699C555.763 128.72 556.083 129.448 556.659 129.976C557.251 130.504 557.963 130.768 558.795 130.768C559.419 130.768 559.939 130.632 560.355 130.36C560.787 130.072 561.107 129.704 561.315 129.256H564.435C564.211 130.008 563.835 130.696 563.307 131.32C562.795 131.928 562.155 132.408 561.387 132.76C560.635 133.112 559.779 133.288 558.819 133.288ZM558.843 123.304C558.091 123.304 557.427 123.52 556.851 123.952C556.275 124.368 555.907 125.008 555.747 125.872H561.675C561.627 125.088 561.339 124.464 560.811 124C560.283 123.536 559.627 123.304 558.843 123.304Z" fill="#262D33"/>
<path d="M516.832 52.3684L534.2 35L551.569 52.3684L534.2 69.7368L516.832 52.3684Z" fill="#BB8EFF"/>
<path d="M501.569 35H516.608L534.2 52.3684L516.608 69.7368H501.569V35Z" fill="black"/>
<path d="M516.832 52.3684L525.516 43.6842L534.2 52.3684L525.516 61.0526L516.832 52.3684Z" fill="#9F5FFF"/>
</g>
<g clip-path="url(#clip3_221_2370)">
<rect x="715.137" width="187.294" height="183.261" rx="10" fill="#E1CFFC"/>
<path d="M743.769 133V116.2H749.505C751.473 116.2 753.089 116.552 754.353 117.256C755.633 117.944 756.577 118.92 757.185 120.184C757.809 121.432 758.121 122.904 758.121 124.6C758.121 126.296 757.809 127.776 757.185 129.04C756.577 130.288 755.633 131.264 754.353 131.968C753.089 132.656 751.473 133 749.505 133H743.769ZM746.841 130.36H749.361C750.769 130.36 751.881 130.136 752.697 129.688C753.513 129.224 754.097 128.568 754.449 127.72C754.801 126.856 754.977 125.816 754.977 124.6C754.977 123.4 754.801 122.368 754.449 121.504C754.097 120.64 753.513 119.976 752.697 119.512C751.881 119.048 750.769 118.816 749.361 118.816H746.841V130.36ZM766.472 133.288C765.32 133.288 764.28 133.024 763.352 132.496C762.44 131.968 761.712 131.24 761.168 130.312C760.64 129.368 760.376 128.28 760.376 127.048C760.376 125.816 760.648 124.736 761.192 123.808C761.736 122.864 762.464 122.128 763.376 121.6C764.304 121.072 765.344 120.808 766.496 120.808C767.632 120.808 768.656 121.072 769.568 121.6C770.496 122.128 771.224 122.864 771.752 123.808C772.296 124.736 772.568 125.816 772.568 127.048C772.568 128.28 772.296 129.368 771.752 130.312C771.224 131.24 770.496 131.968 769.568 132.496C768.64 133.024 767.608 133.288 766.472 133.288ZM766.472 130.624C767.272 130.624 767.968 130.328 768.56 129.736C769.152 129.128 769.448 128.232 769.448 127.048C769.448 125.864 769.152 124.976 768.56 124.384C767.968 123.776 767.28 123.472 766.496 123.472C765.68 123.472 764.976 123.776 764.384 124.384C763.808 124.976 763.52 125.864 763.52 127.048C763.52 128.232 763.808 129.128 764.384 129.736C764.976 130.328 765.672 130.624 766.472 130.624ZM781.146 133.288C779.93 133.288 778.858 133.024 777.93 132.496C777.002 131.968 776.266 131.232 775.722 130.288C775.194 129.344 774.93 128.264 774.93 127.048C774.93 125.832 775.194 124.752 775.722 123.808C776.266 122.864 777.002 122.128 777.93 121.6C778.858 121.072 779.93 120.808 781.146 120.808C782.666 120.808 783.946 121.208 784.986 122.008C786.026 122.792 786.69 123.88 786.978 125.272H783.738C783.578 124.696 783.258 124.248 782.778 123.928C782.314 123.592 781.762 123.424 781.122 123.424C780.274 123.424 779.554 123.744 778.962 124.384C778.37 125.024 778.074 125.912 778.074 127.048C778.074 128.184 778.37 129.072 778.962 129.712C779.554 130.352 780.274 130.672 781.122 130.672C781.762 130.672 782.314 130.512 782.778 130.192C783.258 129.872 783.578 129.416 783.738 128.824H786.978C786.69 130.168 786.026 131.248 784.986 132.064C783.946 132.88 782.666 133.288 781.146 133.288ZM794.625 133.288C793.569 133.288 792.641 133.12 791.841 132.784C791.041 132.432 790.401 131.952 789.921 131.344C789.441 130.736 789.153 130.032 789.057 129.232H792.153C792.249 129.696 792.505 130.096 792.921 130.432C793.353 130.752 793.905 130.912 794.577 130.912C795.249 130.912 795.737 130.776 796.041 130.504C796.361 130.232 796.521 129.92 796.521 129.568C796.521 129.056 796.297 128.712 795.849 128.536C795.401 128.344 794.777 128.16 793.977 127.984C793.465 127.872 792.945 127.736 792.417 127.576C791.889 127.416 791.401 127.216 790.953 126.976C790.521 126.72 790.169 126.4 789.897 126.016C789.625 125.616 789.489 125.128 789.489 124.552C789.489 123.496 789.905 122.608 790.737 121.888C791.585 121.168 792.769 120.808 794.289 120.808C795.697 120.808 796.817 121.136 797.649 121.792C798.497 122.448 799.001 123.352 799.161 124.504H796.257C796.081 123.624 795.417 123.184 794.265 123.184C793.689 123.184 793.241 123.296 792.921 123.52C792.617 123.744 792.465 124.024 792.465 124.36C792.465 124.712 792.697 124.992 793.161 125.2C793.625 125.408 794.241 125.6 795.009 125.776C795.841 125.968 796.601 126.184 797.289 126.424C797.993 126.648 798.553 126.992 798.969 127.456C799.385 127.904 799.593 128.552 799.593 129.4C799.609 130.136 799.417 130.8 799.017 131.392C798.617 131.984 798.041 132.448 797.289 132.784C796.537 133.12 795.649 133.288 794.625 133.288Z" fill="#262D33"/>
<path d="M755.4 52.3684L772.769 35L790.137 52.3684L772.769 69.7368L755.4 52.3684Z" fill="#BB8EFF"/>
<path d="M740.137 35H755.176L772.769 52.3684L755.176 69.7368H740.137V35Z" fill="black"/>
<path d="M755.4 52.3684L764.085 43.6842L772.769 52.3684L764.085 61.0526L755.4 52.3684Z" fill="#9F5FFF"/>
</g>
<path d="M455.916 96.0884H451.644V102.032H450.219V96.0884H445.946V94.1072H450.219V88.1635H451.644V94.1072H455.916V96.0884Z" fill="#6A1EE5"/>
<path d="M694.485 96.0884H690.212V102.032H688.788V96.0884H684.515V94.1072H688.788V88.1635H690.212V94.1072H694.485V96.0884Z" fill="#6A1EE5"/>
<defs>
<clipPath id="clip0_221_2370">
<rect width="187.294" height="366.523" fill="white" transform="translate(0 0.522552)"/>
</clipPath>
<clipPath id="clip1_221_2370">
<rect width="187.294" height="366.523" fill="white" transform="translate(238)"/>
</clipPath>
<clipPath id="clip2_221_2370">
<rect width="187.294" height="366.523" fill="white" transform="translate(476.569)"/>
</clipPath>
<clipPath id="clip3_221_2370">
<rect width="187.294" height="366.523" fill="white" transform="translate(715.137)"/>
</clipPath>
</defs>
</svg>
