<?xml version="1.0" encoding="utf-8"?>
<!-- Generator: Adobe Illustrator 26.5.0, SVG Export Plug-In . SVG Version: 6.00 Build 0)  -->
<svg version="1.1" id="Layer_1" xmlns="http://www.w3.org/2000/svg" xmlns:xlink="http://www.w3.org/1999/xlink" x="0px" y="0px"
	 viewBox="0 0 830 830" style="enable-background:new 0 0 830 830;" xml:space="preserve">
<style type="text/css">
	.st0{fill-rule:evenodd;clip-rule:evenodd;fill:#253368;}
	.st1{fill-rule:evenodd;clip-rule:evenodd;fill:#E4EBF7;}
	.st2{fill-rule:evenodd;clip-rule:evenodd;fill:#A3B5D6;}
	.st3{fill-rule:evenodd;clip-rule:evenodd;fill:#FFFFFF;}
	.st4{fill:#A3B5D6;}
	.st5{fill:#4E5C93;}
	.st6{fill:#E4EBF7;}
</style>
<path class="st0" d="M824.3,113.3H6V40c0-15.9,12.9-28.8,28.8-28.8h760.7c15.9,0,28.8,12.9,28.8,28.8V113.3z"/>
<path class="st1" d="M795.5,819.3H34.8C18.9,819.3,6,806.4,6,790.5V104.7h818.3v685.7C824.3,806.4,811.4,819.3,795.5,819.3z"/>
<path class="st2" d="M72.5,58.7c0,10-8.1,18.1-18.1,18.1c-10,0-18.1-8.1-18.1-18.1c0-10,8.1-18.1,18.1-18.1
	C64.4,40.6,72.5,48.7,72.5,58.7z"/>
<path class="st1" d="M140,58.7c0,10-8.1,18.1-18.1,18.1c-10,0-18.1-8.1-18.1-18.1c0-10,8.1-18.1,18.1-18.1
	C131.9,40.6,140,48.7,140,58.7z"/>
<path class="st1" d="M207.5,58.7c0,10-8.1,18.1-18.1,18.1c-10,0-18.1-8.1-18.1-18.1c0-10,8.1-18.1,18.1-18.1
	C199.4,40.6,207.5,48.7,207.5,58.7z"/>
<path class="st3" d="M94.4,722.1c-5,0-9-4-9-9V192.5c0-5,4-9,9-9h650.3c5,0,9,4,9,9v520.6c0,5-4,9-9,9H94.4z"/>
<path class="st1" d="M317.3,251.7H152.7c-6.7,0-12.3-5.5-12.3-12.3c0-6.7,5.5-12.3,12.3-12.3h164.6c6.7,0,12.3,5.5,12.3,12.3
	C329.5,246.2,324,251.7,317.3,251.7z"/>
<path class="st1" d="M222.1,309.5h-61.3c-6.8,0-12.3-5.5-12.3-12.3c0-6.8,5.5-12.3,12.3-12.3h61.3c6.8,0,12.3,5.5,12.3,12.3
	C234.4,304,228.9,309.5,222.1,309.5z"/>
<path class="st4" d="M415.1,299.4c-84.7,0-153.3,68.6-153.3,153.3c0,84.7,68.6,153.3,153.3,153.3c84.7,0,153.3-68.6,153.3-153.3
	C568.4,368,499.7,299.4,415.1,299.4z M415.1,347.4c58.2,0,105.3,47.1,105.3,105.3c0,58.2-47.1,105.3-105.3,105.3
	c-58.2,0-105.3-47.1-105.3-105.3C309.8,394.6,356.9,347.4,415.1,347.4z"/>
<path class="st5" d="M522.7,377.1c12.1-5.5,26.3-0.2,31.8,11.8c9.1,19.8,13.8,41.5,13.8,63.7c0,18.2-3.2,36.1-9.4,52.9
	c-4.6,12.4-18.4,18.8-30.8,14.3c-12.3-4.5-18.7-18.1-14.4-30.4l0.1-0.4c4.2-11.5,6.4-23.7,6.4-36.3c0-15-3.1-29.6-9.1-42.9l-0.4-0.8
	C505.4,396.9,510.7,382.6,522.7,377.1z"/>
<path class="st6" d="M666,576.1c-28.7,0-51.9,23.5-51.9,52.5c0,29,23.2,52.5,51.9,52.5s51.9-23.5,51.9-52.5
	C717.9,599.6,694.7,576.1,666,576.1z M666,595.9c17.7,0,32.1,14.6,32.1,32.7s-14.4,32.7-32.1,32.7s-32.1-14.6-32.1-32.7
	S648.3,595.9,666,595.9z"/>
<path class="st4" d="M700.5,600.9c5-2.2,10.8,0.2,13,5.2c2.9,6.7,4.4,14.1,4.4,21.6c0,6.2-1,12.2-3,17.9c-1.8,5.2-7.4,7.9-12.6,6.1
	c-5.1-1.7-7.8-7.2-6.2-12.3l0.1-0.3c1.2-3.6,1.9-7.5,1.9-11.5c0-4.9-1-9.5-2.8-13.8C693.2,608.9,695.5,603.1,700.5,600.9z"/>
</svg>
