<?xml version="1.0" encoding="UTF-8"?><svg id="Layer_2" xmlns="http://www.w3.org/2000/svg" viewBox="0 0 818.27 808.08"><defs><style>.cls-1{fill:#4e5c93;}.cls-2,.cls-3{fill:#e4ebf7;}.cls-4{fill:#fff;}.cls-4,.cls-5,.cls-3,.cls-6{fill-rule:evenodd;}.cls-5{fill:#253368;}.cls-7,.cls-6{fill:#a3b5d6;}</style></defs><g id="Layer_1-2"><path class="cls-5" d="M818.27,102.12H0V28.8C0,12.9,12.89,0,28.8,0H789.47c15.91,0,28.8,12.9,28.8,28.8V102.12Z"/><path class="cls-3" d="M789.47,808.08H28.8c-15.9,0-28.8-12.89-28.8-28.8V93.53H818.27V779.28c0,15.91-12.89,28.8-28.8,28.8Z"/><path class="cls-6" d="M66.5,47.52c0,9.98-8.09,18.07-18.07,18.07s-18.07-8.09-18.07-18.07,8.09-18.08,18.07-18.08,18.07,8.09,18.07,18.08Z"/><path class="cls-3" d="M134,47.52c0,9.98-8.09,18.07-18.07,18.07s-18.07-8.09-18.07-18.07,8.09-18.08,18.07-18.08,18.07,8.09,18.07,18.08Z"/><path class="cls-3" d="M201.5,47.52c0,9.98-8.09,18.07-18.07,18.07s-18.07-8.09-18.07-18.07,8.09-18.08,18.07-18.08,18.07,8.09,18.07,18.08Z"/><path class="cls-4" d="M88.44,710.88c-4.96,0-8.99-4.02-8.99-8.98V181.34c0-4.96,4.02-8.98,8.99-8.98H738.77c4.96,0,8.99,4.02,8.99,8.98V701.9c0,4.96-4.02,8.98-8.99,8.98H88.44Z"/><path class="cls-3" d="M311.28,240.51H146.66c-6.74,0-12.25-5.51-12.25-12.25s5.51-12.25,12.25-12.25h164.62c6.74,0,12.25,5.51,12.25,12.25s-5.51,12.25-12.25,12.25Z"/><path class="cls-3" d="M216.1,298.3h-61.27c-6.77,0-12.26-5.49-12.26-12.25s5.49-12.25,12.26-12.25h61.27c6.77,0,12.25,5.49,12.25,12.25s-5.49,12.25-12.25,12.25Z"/><path class="cls-7" d="M409.08,288.21c-84.66,0-153.3,68.63-153.3,153.3s68.63,153.3,153.3,153.3,153.3-68.63,153.3-153.3-68.63-153.3-153.3-153.3Zm0,48c58.15,0,105.3,47.14,105.3,105.3s-47.14,105.3-105.3,105.3-105.3-47.14-105.3-105.3,47.14-105.3,105.3-105.3Z"/><path class="cls-1" d="M516.72,365.93c12.05-5.52,26.29-.22,31.81,11.83,9.08,19.84,13.85,41.48,13.85,63.74,0,18.23-3.2,36.06-9.36,52.85-4.57,12.44-18.36,18.82-30.8,14.25-12.32-4.52-18.69-18.09-14.39-30.43l.13-.37c4.23-11.51,6.42-23.74,6.42-36.3,0-15.02-3.13-29.56-9.11-42.93l-.38-.83c-5.52-12.05-.22-26.3,11.83-31.81Z"/><path class="cls-2" d="M660,564.91c-28.69,0-51.89,23.53-51.89,52.49s23.2,52.49,51.89,52.49,51.89-23.53,51.89-52.49-23.2-52.49-51.89-52.49Zm0,19.78c17.7,0,32.11,14.61,32.11,32.71s-14.41,32.71-32.11,32.71-32.11-14.61-32.11-32.71,14.41-32.71,32.11-32.71Z"/><path class="cls-7" d="M694.5,589.71c5.02-2.15,10.84,.17,12.99,5.19,2.89,6.74,4.4,14.07,4.4,21.61,0,6.17-1.01,12.21-2.97,17.91-1.78,5.17-7.4,7.91-12.57,6.14-5.08-1.75-7.82-7.21-6.22-12.3l.09-.27c1.25-3.63,1.9-7.5,1.9-11.47,0-4.85-.96-9.53-2.8-13.81-2.15-5.02,.17-10.84,5.19-12.99Z"/></g></svg>