<?xml version="1.0" encoding="UTF-8"?><svg xmlns="http://www.w3.org/2000/svg" viewBox="0 0 828.74 829.9"><defs><style>.e{fill:#516b75;}.f{fill:#fff;}.g{fill:#97a6ac;}.h{fill:#748991;}.i{fill:#99b9ff;}.j{fill:#edd088;}.k{fill:#b9c4c8;}.l{fill:none;}</style></defs><g id="a"/><g id="b"><g id="c"><g id="d"><path class="l" d="M32.22,123.08C107.08-2.31,291.31-.44,343.12,.09c191.25,1.94,318.33,118.67,349.37,149.07,44.27,43.35,121.68,119.15,134.43,229.85,24.23,210.38-196.02,451.96-426.35,449.46-105.9-1.15-251.35-54.3-291.38-156.68-32.14-82.17,25.37-140.49-24.1-245.57-30.05-63.83-63.94-69.24-79.28-132.13C-15.71,205.9,29.33,127.93,32.22,123.08Z"/><path d="M577.78,806.6c-55.63,0-121.76-8.03-189.87-23.23-6.14-1.37-12.36-2.82-18.49-4.29-12.27-2.96-20.02-15.38-17.28-27.69l61.04-273.47c1.35-6.05,5.14-11.39,10.39-14.67,5.25-3.28,11.72-4.32,17.74-2.88,5.88,1.41,11.85,2.8,17.77,4.12,80.92,18.06,159,25.97,219.87,22.27,29.5-1.79,53.31-6.22,70.77-13.15,17.74-7.04,28.01-16.34,30.53-27.61,.18-.81,.98-1.32,1.79-1.14,.81,.18,1.32,.98,1.14,1.79-5.37,24.05-42.32,39.35-104.04,43.11-61.13,3.72-139.51-4.22-220.7-22.34-5.93-1.32-11.93-2.71-17.82-4.13-5.24-1.26-10.87-.35-15.45,2.5-4.57,2.85-7.87,7.51-9.05,12.77l-61.04,273.47c-2.39,10.72,4.36,21.54,15.05,24.12,6.1,1.47,12.31,2.91,18.44,4.28,80.92,18.06,159.01,25.97,219.87,22.27,29.5-1.79,53.31-6.22,70.77-13.15,17.74-7.04,28.01-16.34,30.53-27.61,.18-.81,.98-1.32,1.79-1.14,.81,.18,1.32,.98,1.14,1.79-5.37,24.05-42.32,39.35-104.04,43.11-9.85,.6-20.15,.9-30.84,.9Z"/><g><g><path class="f" d="M618.65,326.01c-12.34-4.45-25.79,2.93-28.64,15.73l-60.96,273.14c-2.4,10.74,3.6,21.58,13.98,25.25,106.41,37.61,176.28,85.87,168.18,122.14l70.52-315.94c7.97-35.69-59.54-82.98-163.07-120.32Z"/><path class="h" d="M711.2,763.78c-.11,0-.22-.01-.33-.04-.81-.18-1.32-.98-1.14-1.79,3.78-16.92-10.25-37.33-40.56-59.03-29.99-21.47-73.78-42.69-126.66-61.38-11.08-3.92-17.5-15.52-14.94-26.99l60.96-273.14c1.45-6.51,5.64-12.1,11.5-15.31,5.86-3.22,12.83-3.77,19.12-1.5,51.72,18.65,94.5,39.74,123.72,60.97,30.36,22.07,44.3,43.19,40.3,61.08l-70.51,315.94c-.16,.7-.78,1.17-1.46,1.17Zm-99.95-437.56c-3.38,0-6.75,.84-9.77,2.51-5.1,2.8-8.75,7.66-10.01,13.34l-60.96,273.14c-2.23,9.99,3.37,20.1,13.02,23.51,53.13,18.78,97.19,40.14,127.4,61.77,24.09,17.25,38.2,33.92,41.6,48.97l67.73-303.45c7.54-33.8-56.09-80.34-162.11-118.58-2.23-.81-4.56-1.2-6.88-1.2Z"/></g><path class="j" d="M596.92,440.67c-2.04-.75-4.3-.59-6.21,.45-1.91,1.04-3.28,2.85-3.76,4.97-8.97,40.18-20.85,93.4-36.56,163.81-.82,3.68,1.2,7.4,4.74,8.7,62.38,22.92,111.58,49.31,139.2,74.58,1.98,1.81,4.78,2.43,7.34,1.62,2.56-.81,4.49-2.92,5.08-5.54,15.4-68.98,27.12-121.5,36.03-161.45,.55-2.45-.17-5.03-1.9-6.84-25.72-26.92-77.18-55.58-143.97-80.29Z"/><path class="k" d="M616.77,351.72c-2.04-.75-4.3-.59-6.21,.45-1.91,1.04-3.28,2.85-3.76,4.97-2.54,11.4-5.93,26.59-10.44,46.78-.82,3.68,1.21,7.39,4.75,8.69,62.47,23,111.66,49.47,139.12,74.79,1.98,1.82,4.78,2.45,7.34,1.65,2.57-.8,4.51-2.91,5.1-5.54,4.22-18.9,7.47-33.46,9.97-44.66,.55-2.46-.17-5.02-1.91-6.84-25.72-26.92-77.18-55.58-143.96-80.29Z"/></g><g><g><path class="f" d="M344.47,571.68c6.09,1.36,12.12,2.76,18.1,4.2,12.01,2.89,24.05-4.64,26.74-16.69L494.28,91.61c2.63-11.8-4.69-23.5-16.44-26.34-6.2-1.5-12.46-2.95-18.77-4.36C288.66,22.87,141.64,31.81,130.69,80.87L16.08,591.64c10.95-49.06,157.97-58,328.38-19.96Z"/><path class="h" d="M16.09,593.14c-.11,0-.22-.01-.33-.04-.81-.18-1.32-.98-1.14-1.79,0-.02,0-.04,.01-.06L129.23,80.54c5.45-24.44,43.02-40,105.77-43.81,62.16-3.78,141.86,4.29,224.41,22.71,6.26,1.4,12.58,2.87,18.8,4.37,12.46,3.01,20.34,15.63,17.55,28.12l-104.97,467.58c-1.39,6.23-5.14,11.53-10.56,14.91-5.41,3.37-11.8,4.41-18,2.92-5.97-1.44-12.05-2.85-18.08-4.19-82.29-18.36-161.68-26.41-223.57-22.64-30,1.82-54.21,6.32-71.97,13.37-18.04,7.17-28.49,16.62-31.05,28.1h0c-.16,.7-.78,1.17-1.46,1.17ZM266.36,38.82c-10.81,0-21.22,.3-31.19,.91-30,1.82-54.21,6.32-71.97,13.37-18.04,7.17-28.49,16.62-31.05,28.1L20.38,579.33c13.59-17.53,48.22-28.68,100-31.83,62.16-3.78,141.86,4.29,224.41,22.71h0c6.04,1.35,12.14,2.76,18.13,4.2,5.41,1.3,10.99,.4,15.71-2.55,4.73-2.95,8.01-7.57,9.22-13.02L492.82,91.28c2.44-10.91-4.44-21.92-15.33-24.55-6.2-1.5-12.51-2.96-18.75-4.35-69.04-15.41-136.05-23.55-192.38-23.55Z"/></g><path class="k" d="M413.93,201.28c8.72,1.95,16.41,3.79,22.73,5.36,3.26,.81,6.71,.27,9.57-1.5,2.86-1.77,4.89-4.61,5.62-7.89l1.56-6.97,10.08-43.09,1.04-4.68c1.73-7.75-3.05-15.45-10.75-17.35-6.03-1.49-13.23-3.2-21.29-5-150.03-33.48-279.14-21.7-287.69,9l-15.26,69.06c20.54-15.9,134.36-30.43,284.39,3.05Z"/><path class="k" d="M361.27,421.39c5.34,1.19,14.7,3.43,22.75,5.41,3.26,.8,6.7,.26,9.56-1.51,2.85-1.77,4.88-4.61,5.61-7.89l1.57-7.02,37.48-162.16,1.04-4.68c1.73-7.75-3.05-15.45-10.75-17.35-6.03-1.49-13.23-3.2-21.29-5-150.03-33.49-279.14-21.7-287.69,9l-42.66,188.13c20.54-15.9,134.36-30.43,284.39,3.05Z"/><path class="k" d="M333.2,541.82c3.39,.76,13.81,3.25,22.76,5.44,3.26,.8,6.7,.25,9.55-1.52,2.85-1.77,4.87-4.61,5.6-7.88l1.57-7.03,14.37-60.32,1.04-4.68c1.73-7.75-3.05-15.45-10.75-17.35-6.03-1.49-13.23-3.2-21.29-5-150.03-33.48-279.14-21.7-287.69,9l-19.55,86.3c20.54-15.9,134.36-30.43,284.39,3.05Z"/><circle class="h" cx="463.65" cy="94.73" r="7.71" transform="translate(-.96 184.64) rotate(-22.5)"/><circle class="k" cx="437.56" cy="89.02" r="7.71"/><circle class="k" cx="410.7" cy="83.52" r="7.71"/></g><g><g><g><path class="f" d="M724.99,474.22c.8-.67,1.18-1.72,.98-2.74-.22-1.18-1.39-1.89-1.92-2.19-6.61-3.84-17.51-1.09-17.51-1.09-3,.76-7.71,1.94-12.52,5.65-5.71,4.4-8.1,9.67-10.93,16.11-2.38,5.42-5.32,13.74-6.48,24.6,5.47-4.43,45.13-37.64,48.38-40.35Z"/><path d="M676.61,516.07c-.25,0-.49-.06-.72-.18-.53-.29-.84-.87-.77-1.48,.94-8.79,3.16-17.22,6.6-25.05,2.71-6.16,5.26-11.97,11.39-16.7,5.06-3.9,10.07-5.17,13.07-5.92,.47-.12,11.57-2.85,18.63,1.25,.56,.33,2.28,1.33,2.64,3.21,.3,1.56-.28,3.16-1.49,4.17h0c-.65,.54-2.77,2.31-5.78,4.83-12.41,10.38-38.23,31.98-42.62,35.52-.27,.22-.61,.33-.94,.33Zm38.2-47.32c-4.2,0-7.84,.89-7.9,.91-2.95,.74-7.41,1.87-11.97,5.39-5.52,4.26-7.82,9.48-10.47,15.53-2.83,6.44-4.8,13.3-5.88,20.44,8.28-6.85,28.96-24.15,39.66-33.1,3.01-2.52,5.13-4.29,5.79-4.84h0c.38-.32,.56-.82,.47-1.31-.1-.53-.93-1.02-1.2-1.17-2.44-1.42-5.6-1.84-8.49-1.84Zm10.18,5.48h0Z"/></g><path class="e" d="M491.14,439.89c18.86,27.12,39.43,42.49,52.18,50.57,8.09,5.13,75.16,47.66,116.37,19.97,10.2-6.85,15.94-16.08,18.98-22.01,4.91,5.25,9.83,10.5,14.74,15.75-.98,6.52-10.48,63.99-56.23,84.42-23.38,10.44-47.27,8.34-62.47,4.93-21.33-4.78-51.86-13.21-63.96-25-46.7-45.49-19.61-128.64-19.61-128.64Z"/><path class="e" d="M526.98,618.76c-18.56-96.94,13.26-135.74-18.89-167.06-29.42-28.67-83.23-22.64-106.52-20.04-26.42,2.96-48.3,5.41-63.92,21.27-4.15,4.21-7.16,8.69-9.33,13.51v-.02c-30.93,51.64-10.89,107.63,1.9,133.68-2.9,101.66-44.66,130.1-20.12,169.07,26.56,42.19,97.51,43.79,135.13,37.59,13.2-2.17,87.27-16.01,106.69-67.88,12.73-34.01-11.31-48.9-24.94-120.13Z"/><g><path class="f" d="M480.21,605.99s63.91-7.26,91.68-41.99l46.3-26.12s-4.64,16.9-17.58,21.31c0,0,4.96,21.73-12.49,31.7,0,0-12.71,5.91-19.11,4.53,0,0-33.36,56.68-88.03,62.78,0,0-8.95-24.87-.78-52.21Z"/><path d="M480.99,659.7c-.63,0-1.19-.39-1.41-.99-.37-1.03-9.02-25.65-.81-53.14,.17-.58,.67-.99,1.27-1.06,.63-.07,63.62-7.6,90.68-41.44,.12-.15,.27-.28,.43-.37l46.3-26.12c.53-.3,1.18-.25,1.66,.12,.48,.37,.68,1,.52,1.58-.19,.7-4.72,16.71-17.33,21.88,.75,4.99,2.24,23.08-13.44,32.04-.04,.02-.07,.04-.11,.06-.51,.24-11.99,5.53-18.98,4.8-4.55,7.24-37.59,56.94-88.62,62.63-.06,0-.11,0-.17,0Zm.38-52.34c-6.53,22.93-.88,44.16,.67,49.2,52.59-6.65,85.36-61.35,85.69-61.9,.33-.56,.98-.84,1.61-.71,4.8,1.04,14.64-2.8,18.1-4.4,16.23-9.33,11.76-29.83,11.72-30.03-.17-.75,.25-1.51,.98-1.75,8.43-2.87,13.17-11.57,15.28-16.6l-42.53,24c-26.35,32.67-82.99,41.1-91.5,42.19Z"/></g><path class="g" d="M454.46,649.23c-38.54,0-65.75-8.93-82.52-17.04-22-10.65-31.65-22.33-31.73-22.44-.29-.4-.27-.92,.08-1.29,.49-.52,1.42-.64,2.09-.26,.2,.11,.36,.26,.46,.42,1,1.23,38.05,44.01,129.59,37.64,.83-.06,1.55,.42,1.63,1.06,.07,.64-.54,1.21-1.36,1.27-6.34,.44-12.42,.64-18.24,.64Z"/><path class="g" d="M469.28,604.86c-.07,0-.14,0-.2-.01-51.24-6.97-72.95-40.47-82.14-67.34-9.91-28.98-7.72-56.7-7.7-56.98,.07-.83,.82-1.43,1.62-1.37,.83,.07,1.44,.79,1.37,1.62-.02,.27-2.15,27.45,7.58,55.84,12.98,37.87,39.78,59.82,79.67,65.25,.82,.11,1.4,.87,1.28,1.69-.1,.75-.75,1.3-1.48,1.3Z"/><path class="g" d="M511.44,556.71c-.1,0-.2,0-.29-.03-.81-.16-1.34-.95-1.18-1.76,10.68-53.6-12.48-85.44-12.72-85.75-.5-.66-.36-1.6,.3-2.1,.66-.5,1.6-.36,2.1,.3,.24,.33,24.21,33.15,13.25,88.14-.14,.71-.77,1.21-1.47,1.21Z"/></g><path class="f" d="M504.01,814.57l6.67-64.21c.03-5.3-.32-57-31.42-75.01-33.58-19.46-94.65,1-128.85,69.81-5.56,24.97-3.68,37.3-3.74,55.6-.05,13.17-.21,11.35-.48,24.14,23.78,4.27,56.72,7.41,95.27,2.52,24.3-3.08,45.62-7.05,62.56-12.86Z"/><g><path d="M464.42,304.79c13.73,9.84,7.32,21.36,25.95,51.87,10.62,17.39,17.08,20.82,18.74,26.63,.41,1.45,.44,2.48,.41,3.87-.25,13.19-18.02,25.57-33.21,29.85-28.17,7.94-42.36-13.42-61.38-3.23-13.77,7.38-12.35,21.8-24.26,23.81-12,2.03-24.79-10.7-30.75-20.85-12.91-22-3.35-48.26,1.2-60.34,7.45-19.78,18.73-31.34,22.28-34.79,3.89-3.79,11.13-10.72,22.23-15.84,2.3-1.06,37.06-16.56,58.8-.99Z"/><g><path class="f" d="M398.54,428.81c2.36-1.16,5.05-2.66,7.26-5.66,1.06-1.44,1.85-3.22,2.45-5.68l11.38-47.45s-9.84-2.48-9.74-15.12c.08-9.81,10.52-6.91,10.52-6.91l2.65-17.75c6.74,5.11,2.38,15.86,10.48,13.46l35.79-10.61s8.72-.28,3.54,25.85c-1.49,8.99,4.19,13.3,5.56,15.94,.97,1.86,.03,4.15-1.97,4.8l-2.77,.91c-10.95,22.13-16.97,25.09-24.87,21.86l-2.34,9.55c-.64,3.88-.87,9.36,2.37,12.98,2.54,2.84,5.84,3,12.51,4.98,3.61,1.07,8.86,2.87,15.08,5.92-4.86,2.75-10.33,5.26-16.43,7.27-34.29,11.29-66.3-.9-79.81-7.1,4.72-1.51,11.51-3.91,18.34-7.25Z"/><path d="M430.57,449.31c-19.89,0-37.79-5.85-50.98-11.9-.56-.26-.91-.84-.87-1.45,.04-.62,.45-1.15,1.04-1.34,6.65-2.12,12.75-4.53,18.13-7.17h0c2.17-1.06,4.66-2.43,6.71-5.21,.96-1.31,1.66-2.94,2.2-5.15l11.07-46.15c-2.96-1.3-9.55-5.41-9.47-16.07,.03-3.22,1.06-5.62,3.06-7.13,2.46-1.86,5.75-1.79,7.71-1.53l2.42-16.21c.08-.52,.43-.97,.92-1.17,.49-.2,1.05-.13,1.47,.19,3.42,2.59,4.31,6.33,5.03,9.34,.43,1.8,.83,3.51,1.64,3.97,.61,.35,1.68,.14,2.48-.1l35.79-10.61c.12-.04,.25-.06,.38-.06,.2,0,2.14-.01,3.88,2.05,3.36,3.96,3.75,12.57,1.17,25.6-1.05,6.33,1.8,10.02,3.88,12.72,.64,.83,1.18,1.54,1.55,2.24,.66,1.28,.73,2.78,.19,4.11-.55,1.34-1.64,2.36-3.02,2.81l-2.18,.71c-9.58,19.22-16.1,25.27-24.87,22.6l-1.93,7.88c-.86,5.3-.18,9.23,2.02,11.68,1.62,1.81,3.68,2.35,7.44,3.33,1.28,.33,2.72,.71,4.38,1.21,5.14,1.53,10.3,3.55,15.31,6.02,.5,.25,.82,.75,.84,1.3,.02,.56-.28,1.08-.76,1.35-5.34,3.01-10.96,5.5-16.69,7.39-10.23,3.37-20.31,4.74-29.92,4.74Zm-46.2-13.06c19.05,8.12,46.53,14.91,75.19,5.48,4.64-1.53,9.2-3.46,13.58-5.75-4.02-1.83-8.11-3.37-12.2-4.58-1.61-.48-3.03-.85-4.29-1.18-4.03-1.06-6.69-1.75-8.91-4.24-2.84-3.17-3.76-7.96-2.73-14.23,0-.04,.01-.08,.02-.11l2.34-9.55c.1-.42,.39-.78,.78-.98,.39-.2,.84-.22,1.25-.05,5.9,2.41,11.33,2.38,22.96-21.14,.18-.36,.49-.63,.88-.76l2.77-.91c.53-.18,.96-.57,1.17-1.09,.21-.52,.19-1.09-.07-1.59-.24-.46-.71-1.08-1.26-1.79-2.14-2.78-5.72-7.43-4.45-15.09,3.09-15.59,1.08-21.08-.39-22.97-.64-.82-1.26-1.05-1.53-1.12l-35.5,10.52c-2.01,.6-3.59,.54-4.84-.18-1.92-1.11-2.47-3.43-3.06-5.87-.44-1.83-.91-3.83-1.99-5.53l-2.19,14.66c-.06,.43-.31,.8-.67,1.04-.36,.23-.81,.3-1.22,.19-.04-.01-4.29-1.14-6.76,.73-1.21,.92-1.84,2.52-1.86,4.75-.09,11.33,8.52,13.64,8.6,13.66,.8,.2,1.28,1.01,1.09,1.8l-11.38,47.45c-.64,2.61-1.5,4.59-2.7,6.22-2.33,3.16-5.13,4.81-7.8,6.12-4.5,2.2-9.47,4.25-14.84,6.1Z"/></g><path d="M448.83,403.95c-.15,0-.3-.02-.45-.07-16.41-5.2-22.42-15.36-22.67-15.79-.41-.72-.17-1.64,.55-2.05,.72-.41,1.63-.17,2.05,.55,.08,.14,5.78,9.61,20.98,14.43,.79,.25,1.23,1.09,.98,1.88-.2,.64-.79,1.05-1.43,1.05Z"/><path d="M429.65,305.09c-.8-.98,12.87-31.02-10.67-38.14-23.53-7.12-41.41,36.21-19.84,48.37,21.57,12.16,30.5-10.23,30.5-10.23Z"/><path d="M456.49,372.66c-5.32,0-9.74-4.24-9.92-9.6-.18-5.47,4.12-10.07,9.59-10.25,2.64-.09,5.17,.86,7.11,2.68,1.93,1.81,3.05,4.27,3.13,6.92h0c.09,2.65-.86,5.18-2.67,7.11-1.81,1.94-4.27,3.05-6.92,3.14-.11,0-.22,0-.33,0Zm0-16.85c-.08,0-.16,0-.23,0-3.82,.13-6.82,3.33-6.69,7.15,.12,3.82,3.32,6.83,7.15,6.69,1.85-.06,3.56-.84,4.83-2.19,1.26-1.35,1.93-3.11,1.87-4.96h0c-.06-1.85-.84-3.56-2.19-4.83-1.29-1.21-2.96-1.87-4.73-1.87Z"/><path class="f" d="M475.4,370.09c-.41,0-.83-.17-1.12-.5-.55-.62-.5-1.57,.12-2.12,1.54-1.37,2.39-3.34,2.32-5.4-.07-2.07-1.05-3.98-2.69-5.25-.66-.51-.78-1.45-.27-2.1,.51-.66,1.45-.78,2.1-.27,2.35,1.82,3.75,4.56,3.85,7.53,.1,2.95-1.11,5.78-3.33,7.74-.29,.25-.64,.38-1,.38Z"/><path d="M447.93,362.56c-.23,0-.46-.05-.67-.16l-28.47-14.28c-.74-.37-1.04-1.27-.67-2.01,.37-.74,1.27-1.04,2.01-.67l28.47,14.28c.74,.37,1.04,1.27,.67,2.01-.26,.52-.79,.83-1.34,.83Z"/><path d="M465.13,364.03c-.27,0-.54-.07-.79-.23-.7-.44-.92-1.35-.49-2.06,.19-.3,1.91-2.99,4.83-3.58,1.66-.33,3.29,.07,4.87,1.2,.67,.48,.83,1.42,.35,2.09-.48,.67-1.42,.83-2.09,.35-.88-.63-1.7-.86-2.51-.7-1.4,.28-2.56,1.69-2.89,2.22-.29,.45-.78,.7-1.28,.7Z"/></g></g><g><g><path class="f" d="M654.34,529.26h-.01c-3.91-.03-7.96-.11-12.03-.24-.83-.03-1.48-.72-1.45-1.55,.03-.83,.69-1.48,1.55-1.45,4.05,.13,8.07,.21,11.96,.24,.83,0,1.5,.68,1.49,1.51,0,.82-.68,1.49-1.5,1.49Zm12-.07c-.81,0-1.48-.65-1.5-1.47-.02-.83,.64-1.51,1.47-1.53,4.08-.08,8.1-.22,11.94-.42,.84-.05,1.53,.59,1.58,1.42,.04,.83-.59,1.53-1.42,1.58-3.88,.2-7.93,.34-12.04,.42h-.03Zm-35.99-.68s-.05,0-.08,0c-3.92-.21-7.96-.46-12.01-.75-.83-.06-1.45-.78-1.39-1.6,.06-.83,.77-1.45,1.6-1.39,4.03,.29,8.05,.54,11.95,.75,.83,.04,1.46,.75,1.42,1.58-.04,.8-.71,1.42-1.5,1.42Zm59.95-.58c-.77,0-1.42-.59-1.49-1.36-.07-.82,.53-1.55,1.36-1.63,4.09-.37,8.08-.82,11.85-1.35,.83-.11,1.58,.46,1.69,1.28,.11,.82-.46,1.58-1.28,1.69-3.81,.53-7.85,.99-11.99,1.36-.05,0-.09,0-.14,0Zm-83.89-1.13s-.09,0-.13,0c-3.92-.35-7.94-.74-11.97-1.16-.82-.09-1.42-.82-1.34-1.65,.09-.82,.85-1.42,1.65-1.34,4.01,.42,8.02,.81,11.92,1.16,.83,.07,1.43,.8,1.36,1.63-.07,.78-.72,1.37-1.49,1.37Zm107.64-2.23c-.7,0-1.32-.49-1.47-1.2-.16-.81,.36-1.6,1.17-1.77,4.09-.83,7.97-1.78,11.53-2.83,.79-.23,1.63,.22,1.86,1.02,.23,.79-.22,1.63-1.02,1.86-3.64,1.07-7.6,2.04-11.78,2.89-.1,.02-.2,.03-.3,.03Zm-131.51-.27c-.06,0-.12,0-.18-.01-3.93-.47-7.94-.98-11.93-1.51-.82-.11-1.4-.86-1.29-1.69,.11-.82,.85-1.4,1.69-1.29,3.97,.53,7.97,1.04,11.88,1.51,.82,.1,1.41,.85,1.31,1.67-.09,.76-.74,1.32-1.49,1.32Zm-23.79-3.18c-.07,0-.15,0-.22-.02-3.92-.57-7.92-1.19-11.88-1.82-.82-.13-1.38-.9-1.25-1.72,.13-.82,.9-1.38,1.72-1.25,3.95,.63,7.94,1.24,11.84,1.81,.82,.12,1.39,.88,1.27,1.7-.11,.75-.75,1.28-1.48,1.28Zm-23.7-3.77c-.08,0-.17,0-.25-.02-3.9-.67-7.88-1.37-11.83-2.09-.81-.15-1.35-.93-1.21-1.75,.15-.82,.93-1.35,1.75-1.21,3.94,.72,7.91,1.42,11.8,2.09,.82,.14,1.37,.92,1.23,1.73-.12,.73-.76,1.25-1.48,1.25Zm-23.61-4.31c-.09,0-.19,0-.29-.03-3.9-.76-7.83-1.54-11.79-2.35-.81-.17-1.34-.96-1.17-1.77,.17-.81,.97-1.33,1.77-1.17,3.94,.81,7.86,1.59,11.76,2.34,.81,.16,1.34,.94,1.19,1.76-.14,.72-.77,1.22-1.47,1.22Zm-23.52-4.8c-.1,0-.21-.01-.32-.03-3.89-.84-7.8-1.7-11.74-2.58-.81-.18-1.32-.98-1.13-1.79,.18-.81,.98-1.32,1.79-1.13,3.92,.88,7.83,1.74,11.71,2.57,.81,.17,1.33,.97,1.15,1.78-.15,.7-.77,1.19-1.46,1.19Zm-23.42-5.27c-.11,0-.23-.01-.34-.04-3.88-.91-7.77-1.85-11.68-2.8-.8-.2-1.3-1.01-1.1-1.81,.2-.8,1.01-1.3,1.81-1.1,3.9,.96,7.79,1.89,11.66,2.8,.81,.19,1.31,1,1.12,1.8-.16,.69-.78,1.16-1.46,1.16Zm-23.31-5.71c-.12,0-.25-.01-.37-.05-3.86-.98-7.74-1.99-11.63-3.02-.8-.21-1.28-1.03-1.07-1.83,.21-.8,1.04-1.28,1.83-1.07,3.88,1.03,7.75,2.03,11.6,3.01,.8,.2,1.29,1.02,1.08,1.82-.17,.68-.78,1.13-1.45,1.13Zm-23.21-6.13c-.13,0-.26-.02-.4-.05-3.85-1.05-7.71-2.13-11.57-3.22-.8-.23-1.26-1.05-1.04-1.85,.23-.8,1.06-1.26,1.85-1.03,3.86,1.09,7.71,2.16,11.55,3.21,.8,.22,1.27,1.04,1.05,1.84-.18,.67-.79,1.1-1.45,1.1Zm-23.09-6.54c-.14,0-.28-.02-.42-.06-3.86-1.13-7.7-2.27-11.52-3.42-.79-.24-1.24-1.08-1-1.87,.24-.79,1.08-1.24,1.87-1,3.81,1.15,7.64,2.29,11.49,3.42,.79,.23,1.25,1.07,1.02,1.86-.19,.65-.79,1.08-1.44,1.08Zm-22.98-6.94c-.15,0-.3-.02-.45-.07-3.84-1.2-7.66-2.41-11.46-3.63-.79-.25-1.22-1.1-.97-1.89,.25-.79,1.1-1.22,1.89-.97,3.79,1.22,7.6,2.42,11.43,3.62,.79,.25,1.23,1.09,.99,1.88-.2,.64-.79,1.05-1.43,1.05Zm-22.85-7.35c-.16,0-.32-.02-.47-.08-3.82-1.27-7.62-2.55-11.39-3.84-.78-.27-1.2-1.12-.93-1.91,.27-.78,1.12-1.2,1.9-.93,3.76,1.29,7.55,2.56,11.36,3.83,.79,.26,1.21,1.11,.95,1.9-.21,.63-.79,1.03-1.42,1.03Zm-22.71-7.77c-.17,0-.33-.03-.5-.09-3.8-1.34-7.57-2.69-11.31-4.05-.78-.28-1.18-1.14-.9-1.92,.28-.78,1.15-1.18,1.92-.9,3.73,1.36,7.49,2.71,11.29,4.04,.78,.28,1.19,1.13,.92,1.91-.22,.62-.8,1-1.41,1Zm-22.56-8.21c-.18,0-.35-.03-.53-.1-3.78-1.42-7.52-2.85-11.23-4.28-.77-.3-1.16-1.17-.86-1.94,.3-.77,1.17-1.16,1.94-.86,3.7,1.43,7.43,2.86,11.2,4.27,.78,.29,1.17,1.16,.88,1.93-.23,.6-.8,.97-1.4,.97Zm-22.38-8.67c-.19,0-.37-.03-.56-.11-3.71-1.48-7.46-3-11.14-4.52-.77-.32-1.13-1.19-.81-1.96,.32-.77,1.19-1.13,1.96-.81,3.67,1.51,7.41,3.03,11.11,4.51,.77,.31,1.14,1.18,.84,1.95-.23,.59-.8,.94-1.39,.94Zm-22.19-9.16c-.2,0-.4-.04-.59-.12-3.71-1.58-7.42-3.19-11.03-4.78-.76-.33-1.1-1.22-.77-1.98,.33-.76,1.22-1.1,1.98-.77,3.59,1.58,7.29,3.19,10.99,4.77,.76,.33,1.12,1.21,.79,1.97-.24,.57-.8,.91-1.38,.91Zm-21.96-9.69c-.21,0-.42-.04-.62-.14-3.67-1.68-7.34-3.38-10.9-5.07-.75-.35-1.07-1.25-.71-2,.35-.75,1.25-1.07,2-.71,3.55,1.68,7.21,3.38,10.87,5.05,.75,.34,1.09,1.23,.74,1.99-.25,.55-.8,.88-1.37,.88Zm-21.7-10.28c-.22,0-.45-.05-.66-.15-3.62-1.78-7.24-3.6-10.75-5.39-.74-.38-1.03-1.28-.65-2.02,.38-.74,1.28-1.03,2.02-.65,3.49,1.79,7.1,3.6,10.71,5.37,.74,.37,1.05,1.26,.68,2.01-.26,.53-.79,.84-1.35,.84Zm-21.37-10.94c-.24,0-.48-.06-.71-.18-3.59-1.92-7.15-3.86-10.56-5.77-.72-.4-.98-1.32-.58-2.04,.41-.72,1.32-.98,2.04-.58,3.4,1.9,6.93,3.83,10.51,5.74,.73,.39,1.01,1.3,.62,2.03-.27,.51-.79,.79-1.32,.79Zm-20.95-11.72c-.26,0-.52-.07-.76-.21-3.52-2.07-6.99-4.16-10.31-6.22-.7-.44-.92-1.36-.48-2.07,.44-.7,1.36-.92,2.07-.48,3.3,2.05,6.75,4.13,10.25,6.18,.71,.42,.95,1.34,.53,2.05-.28,.48-.78,.74-1.29,.74Zm-20.39-12.67c-.28,0-.57-.08-.83-.25-3.43-2.27-6.78-4.55-9.95-6.8-.68-.48-.84-1.42-.36-2.09,.48-.68,1.41-.84,2.09-.36,3.14,2.23,6.46,4.5,9.87,6.74,.69,.46,.88,1.39,.43,2.08-.29,.44-.77,.67-1.25,.67Zm-19.57-13.9c-.32,0-.64-.1-.91-.31-3.3-2.54-6.46-5.1-9.39-7.6-.63-.54-.7-1.48-.17-2.11,.54-.63,1.49-.71,2.12-.17,2.89,2.46,6.01,4.99,9.27,7.5,.66,.51,.78,1.45,.27,2.1-.3,.38-.74,.58-1.19,.58Zm-18.21-15.61c-.38,0-.75-.14-1.05-.42-2.33-2.27-4.53-4.54-6.52-6.76-.55-.62-.5-1.56,.11-2.12,.62-.55,1.56-.5,2.12,.11,1.95,2.17,4.09,4.39,6.38,6.61,.59,.58,.61,1.53,.03,2.12-.29,.3-.68,.45-1.08,.45Z"/><path class="f" d="M701.9,422.54c-.29,0-.58-.08-.83-.25l-.23-.15c-.69-.46-.87-1.39-.41-2.08,.46-.69,1.39-.87,2.08-.41l.22,.15c.69,.46,.87,1.39,.41,2.08-.29,.43-.76,.67-1.25,.67Zm-10.29-6.68c-.27,0-.55-.07-.8-.23-3.29-2.07-6.72-4.17-10.21-6.24-.71-.42-.95-1.34-.52-2.06,.42-.71,1.34-.95,2.06-.52,3.51,2.08,6.96,4.2,10.27,6.28,.7,.44,.91,1.37,.47,2.07-.29,.45-.77,.7-1.27,.7Zm-20.62-12.27c-.25,0-.5-.06-.74-.19-3.39-1.92-6.92-3.86-10.48-5.78-.73-.39-1-1.3-.61-2.03,.39-.73,1.3-1,2.03-.61,3.58,1.93,7.12,3.89,10.53,5.81,.72,.41,.98,1.32,.57,2.04-.28,.49-.78,.76-1.31,.76Zm-21.12-11.4c-.23,0-.47-.05-.69-.17-3.49-1.8-7.09-3.62-10.69-5.41-.74-.37-1.04-1.27-.68-2.01,.37-.74,1.27-1.04,2.01-.68,3.61,1.79,7.22,3.62,10.73,5.43,.74,.38,1.02,1.29,.64,2.02-.27,.52-.79,.81-1.33,.81Zm-21.5-10.67c-.22,0-.44-.05-.65-.15-3.53-1.69-7.18-3.4-10.85-5.09-.75-.35-1.08-1.24-.74-1.99,.35-.75,1.24-1.08,1.99-.74,3.68,1.69,7.34,3.41,10.89,5.1,.75,.36,1.06,1.25,.71,2-.26,.54-.79,.85-1.35,.85Zm-21.8-10.04c-.2,0-.41-.04-.61-.13-3.6-1.6-7.3-3.22-10.98-4.8-.76-.33-1.11-1.21-.79-1.97,.33-.76,1.21-1.11,1.97-.79,3.69,1.59,7.4,3.21,11.01,4.81,.76,.34,1.1,1.22,.76,1.98-.25,.56-.8,.89-1.37,.89Zm-22.05-9.48c-.19,0-.39-.04-.58-.12-3.63-1.51-7.36-3.03-11.09-4.54-.77-.31-1.14-1.18-.83-1.95,.31-.77,1.18-1.14,1.95-.83,3.74,1.51,7.49,3.04,11.12,4.55,.76,.32,1.13,1.2,.81,1.96-.24,.58-.8,.92-1.39,.92Zm-22.26-8.97c-.18,0-.37-.03-.54-.1-3.69-1.44-7.42-2.87-11.19-4.3-.78-.29-1.17-1.16-.87-1.93,.29-.78,1.16-1.16,1.93-.87,3.78,1.43,7.51,2.86,11.22,4.31,.77,.3,1.15,1.17,.85,1.94-.23,.59-.8,.96-1.4,.96Zm-22.45-8.49c-.17,0-.35-.03-.52-.09-3.73-1.37-7.48-2.72-11.27-4.07-.78-.28-1.19-1.14-.91-1.92,.28-.78,1.13-1.19,1.92-.91,3.8,1.35,7.57,2.71,11.3,4.08,.78,.29,1.18,1.15,.89,1.92-.22,.61-.8,.98-1.41,.98Z"/><path class="f" d="M343.9,289.62c-.1,0-.19,0-.29-.03-3.95-.78-7.88-1.53-11.77-2.25-.81-.15-1.35-.93-1.2-1.75,.15-.81,.93-1.35,1.75-1.2,3.91,.72,7.84,1.48,11.8,2.25,.81,.16,1.34,.95,1.18,1.76-.14,.72-.77,1.21-1.47,1.21Zm-23.6-4.38c-.09,0-.17,0-.26-.02-3.94-.69-7.91-1.35-11.82-1.99-.82-.13-1.37-.9-1.24-1.72,.13-.82,.91-1.37,1.72-1.24,3.92,.64,7.9,1.31,11.85,1.99,.82,.14,1.36,.92,1.22,1.74-.13,.73-.76,1.24-1.48,1.24Zm-23.69-3.84c-.07,0-.15,0-.22-.02-3.97-.6-7.96-1.17-11.86-1.7-.82-.11-1.39-.87-1.28-1.69,.11-.82,.87-1.4,1.69-1.28,3.91,.54,7.92,1.11,11.9,1.71,.82,.12,1.38,.89,1.26,1.71-.11,.74-.75,1.28-1.48,1.28Zm-23.78-3.26c-.06,0-.12,0-.19-.01-3.99-.49-7.99-.96-11.9-1.38-.82-.09-1.42-.83-1.33-1.65,.09-.82,.84-1.42,1.65-1.33,3.92,.43,7.94,.89,11.94,1.39,.82,.1,1.41,.85,1.3,1.67-.09,.76-.74,1.32-1.49,1.32Zm-23.86-2.59s-.09,0-.14,0c-4.01-.37-8.02-.72-11.93-1.01-.83-.06-1.44-.78-1.38-1.61,.06-.83,.79-1.44,1.61-1.38,3.93,.3,7.96,.64,11.98,1.02,.82,.08,1.43,.81,1.35,1.63-.07,.78-.73,1.36-1.49,1.36Z"/></g><g><path class="f" d="M582.43,543.39c-.06,0-.11,0-.17,0-3.93-.45-7.95-.93-11.94-1.44-.82-.1-1.4-.86-1.3-1.68,.1-.82,.86-1.4,1.68-1.3,3.97,.51,7.97,.99,11.89,1.43,.82,.09,1.41,.84,1.32,1.66-.09,.77-.74,1.33-1.49,1.33Zm-23.81-3.03c-.07,0-.14,0-.21-.01-3.92-.55-7.92-1.14-11.89-1.75-.82-.13-1.38-.89-1.25-1.71,.13-.82,.9-1.38,1.71-1.25,3.96,.61,7.95,1.2,11.85,1.75,.82,.12,1.39,.87,1.28,1.69-.11,.75-.75,1.29-1.48,1.29Zm-23.72-3.64c-.08,0-.16,0-.25-.02-3.91-.65-7.9-1.33-11.84-2.03-.82-.14-1.36-.92-1.21-1.74,.14-.82,.93-1.36,1.74-1.21,3.94,.7,7.91,1.38,11.81,2.03,.82,.14,1.37,.91,1.23,1.73-.12,.73-.76,1.25-1.48,1.25Zm-23.63-4.19c-.09,0-.19,0-.28-.03-3.91-.74-7.84-1.5-11.8-2.29-.81-.16-1.34-.95-1.18-1.76s.95-1.34,1.76-1.18c3.95,.79,7.87,1.55,11.76,2.28,.81,.15,1.35,.94,1.2,1.75-.14,.72-.76,1.22-1.47,1.22Zm-23.54-4.7c-.1,0-.21-.01-.31-.03-3.89-.82-7.81-1.66-11.75-2.53-.81-.18-1.32-.98-1.14-1.79,.18-.81,.97-1.32,1.79-1.14,3.93,.87,7.83,1.71,11.72,2.52,.81,.17,1.33,.97,1.16,1.78-.15,.71-.77,1.19-1.47,1.19Zm-23.44-5.16c-.11,0-.22-.01-.34-.04-3.88-.89-7.78-1.81-11.7-2.75-.81-.19-1.3-1-1.11-1.81,.19-.81,1-1.3,1.81-1.11,3.91,.94,7.8,1.85,11.67,2.75,.81,.19,1.31,.99,1.12,1.8-.16,.69-.78,1.16-1.46,1.16Zm-23.34-5.61c-.12,0-.24-.01-.37-.05-3.86-.97-7.75-1.96-11.64-2.97-.8-.21-1.28-1.03-1.08-1.83,.21-.8,1.03-1.28,1.83-1.07,3.89,1.01,7.76,2,11.62,2.96,.8,.2,1.29,1.02,1.09,1.82-.17,.68-.78,1.14-1.45,1.14Zm-23.23-6.03c-.13,0-.26-.02-.39-.05-3.85-1.04-7.71-2.09-11.58-3.17-.8-.22-1.26-1.05-1.04-1.85,.22-.8,1.05-1.26,1.85-1.04,3.86,1.08,7.72,2.13,11.56,3.17,.8,.22,1.27,1.04,1.06,1.84-.18,.67-.79,1.11-1.45,1.11Zm-23.11-6.44c-.14,0-.28-.02-.42-.06-3.87-1.11-7.71-2.24-11.53-3.38-.79-.24-1.25-1.07-1.01-1.87,.24-.79,1.07-1.25,1.87-1.01,3.81,1.14,7.65,2.26,11.5,3.37,.8,.23,1.26,1.06,1.03,1.86-.19,.66-.79,1.09-1.44,1.09Zm-23.01-6.85c-.15,0-.29-.02-.44-.07-3.85-1.18-7.67-2.38-11.47-3.58-.79-.25-1.23-1.09-.98-1.88,.25-.79,1.1-1.23,1.88-.98,3.79,1.2,7.61,2.39,11.44,3.57,.79,.24,1.24,1.08,.99,1.87-.2,.65-.79,1.06-1.43,1.06Zm-22.88-7.26c-.15,0-.31-.02-.47-.08-3.83-1.25-7.63-2.52-11.4-3.79-.79-.27-1.21-1.12-.94-1.9,.26-.78,1.11-1.21,1.9-.94,3.77,1.27,7.56,2.53,11.38,3.78,.79,.26,1.22,1.1,.96,1.89-.21,.63-.79,1.03-1.43,1.03Zm-22.74-7.68c-.16,0-.33-.03-.49-.08-3.81-1.33-7.58-2.66-11.33-4.01-.78-.28-1.18-1.14-.91-1.92,.28-.78,1.13-1.19,1.92-.91,3.74,1.34,7.5,2.67,11.3,4,.78,.27,1.2,1.13,.92,1.91-.22,.62-.8,1.01-1.42,1.01Zm-22.59-8.11c-.17,0-.35-.03-.52-.09-3.78-1.4-7.53-2.81-11.25-4.23-.77-.3-1.16-1.16-.87-1.94,.29-.77,1.16-1.16,1.94-.87,3.71,1.41,7.45,2.82,11.22,4.22,.78,.29,1.17,1.15,.89,1.93-.22,.61-.8,.98-1.41,.98Zm-22.42-8.56c-.18,0-.37-.03-.55-.1-3.76-1.48-7.48-2.97-11.16-4.47-.77-.31-1.14-1.19-.82-1.95,.31-.77,1.18-1.14,1.95-.82,3.67,1.49,7.38,2.98,11.13,4.45,.77,.3,1.15,1.17,.85,1.95-.23,.59-.8,.95-1.4,.95Zm-22.24-9.05c-.19,0-.39-.04-.58-.12-3.71-1.56-7.43-3.15-11.05-4.72-.76-.33-1.11-1.21-.78-1.97,.33-.76,1.21-1.11,1.97-.78,3.61,1.57,7.32,3.15,11.02,4.71,.76,.32,1.12,1.2,.8,1.96-.24,.57-.8,.92-1.38,.92Zm-22.02-9.57c-.21,0-.41-.04-.61-.13-3.67-1.65-7.35-3.33-10.93-5-.75-.35-1.08-1.24-.73-1.99,.35-.75,1.24-1.08,1.99-.73,3.57,1.66,7.23,3.34,10.9,4.99,.75,.34,1.09,1.23,.75,1.98-.25,.56-.8,.89-1.37,.89Zm-21.76-10.14c-.22,0-.44-.05-.65-.15-3.64-1.76-7.27-3.55-10.79-5.32-.74-.37-1.04-1.27-.67-2.01,.37-.74,1.27-1.04,2.01-.67,3.5,1.76,7.12,3.54,10.75,5.29,.75,.36,1.06,1.26,.7,2-.26,.54-.79,.85-1.35,.85Zm-21.45-10.78c-.23,0-.47-.06-.7-.17-3.59-1.88-7.15-3.79-10.61-5.68-.73-.4-.99-1.31-.6-2.04,.4-.73,1.31-.99,2.04-.6,3.44,1.88,6.99,3.78,10.56,5.65,.73,.38,1.02,1.29,.63,2.02-.27,.51-.79,.8-1.33,.8Zm-21.05-11.53c-.25,0-.51-.06-.75-.2-3.53-2.02-7.02-4.08-10.37-6.11-.71-.43-.94-1.35-.51-2.06,.43-.71,1.35-.94,2.06-.51,3.34,2.02,6.81,4.06,10.31,6.07,.72,.41,.97,1.33,.55,2.05-.28,.48-.78,.75-1.3,.75Zm-20.53-12.44c-.28,0-.56-.08-.81-.24-3.45-2.22-6.83-4.45-10.04-6.65-.68-.47-.86-1.4-.39-2.09,.47-.68,1.4-.86,2.08-.39,3.19,2.18,6.54,4.4,9.97,6.6,.7,.45,.9,1.38,.45,2.07-.29,.45-.77,.69-1.26,.69Zm-19.79-13.59c-.31,0-.62-.1-.89-.29-3.33-2.47-6.54-4.95-9.54-7.39-.64-.52-.74-1.47-.22-2.11,.52-.64,1.47-.74,2.11-.22,2.96,2.41,6.14,4.87,9.44,7.31,.67,.49,.81,1.43,.31,2.1-.29,.4-.75,.61-1.21,.61Zm-18.59-15.17c-.36,0-.72-.13-1.01-.39-3.13-2.86-6.04-5.71-8.64-8.49-.57-.6-.54-1.55,.07-2.12,.6-.57,1.55-.54,2.12,.07,2.55,2.72,5.4,5.52,8.48,8.32,.61,.56,.66,1.51,.1,2.12-.3,.32-.7,.49-1.11,.49Z"/><path class="f" d="M648.88,547.72h-.01c-3.91-.03-7.96-.11-12.03-.24-.83-.03-1.48-.72-1.45-1.55,.03-.83,.73-1.48,1.55-1.45,4.05,.13,8.08,.21,11.96,.24,.83,0,1.5,.68,1.49,1.51,0,.82-.68,1.49-1.5,1.49Zm12-.07c-.81,0-1.48-.65-1.5-1.47-.02-.83,.64-1.51,1.47-1.53,4.08-.08,8.1-.22,11.94-.42,.86-.04,1.53,.59,1.58,1.42,.04,.83-.59,1.53-1.42,1.58-3.88,.2-7.93,.34-12.04,.42h-.03Zm23.96-1.26c-.77,0-1.42-.59-1.49-1.36-.07-.82,.53-1.55,1.36-1.63,4.09-.37,8.08-.82,11.85-1.35,.82-.12,1.58,.46,1.69,1.28,.11,.82-.46,1.58-1.28,1.69-3.82,.53-7.85,.99-11.99,1.36-.05,0-.09,0-.14,0Zm23.75-3.36c-.7,0-1.32-.49-1.47-1.2-.17-.81,.36-1.6,1.17-1.77,4.09-.83,7.97-1.78,11.53-2.83,.79-.23,1.63,.22,1.86,1.02,.23,.79-.22,1.63-1.02,1.86-3.64,1.07-7.6,2.04-11.78,2.89-.1,.02-.2,.03-.3,.03Z"/><path class="f" d="M696.44,441c-.29,0-.58-.08-.83-.25l-.23-.15c-.69-.46-.87-1.39-.41-2.08,.46-.69,1.39-.87,2.08-.41l.22,.15c.69,.46,.87,1.39,.41,2.08-.29,.43-.76,.67-1.25,.67Zm-10.29-6.68c-.27,0-.55-.07-.8-.23-3.29-2.07-6.72-4.17-10.21-6.24-.71-.42-.95-1.34-.52-2.06,.42-.71,1.34-.95,2.06-.52,3.51,2.09,6.96,4.2,10.27,6.28,.7,.44,.91,1.37,.47,2.07-.29,.45-.77,.7-1.27,.7Zm-20.62-12.28c-.25,0-.5-.06-.74-.19-3.39-1.92-6.92-3.86-10.48-5.78-.73-.39-1-1.3-.61-2.03,.39-.73,1.3-1,2.03-.61,3.58,1.93,7.12,3.89,10.53,5.81,.72,.41,.98,1.32,.57,2.04-.28,.49-.78,.76-1.31,.76Zm-21.12-11.4c-.23,0-.47-.05-.69-.17-3.49-1.8-7.09-3.62-10.69-5.41-.74-.37-1.04-1.27-.68-2.01,.37-.74,1.27-1.04,2.01-.68,3.61,1.79,7.22,3.62,10.73,5.43,.74,.38,1.02,1.29,.64,2.02-.27,.52-.79,.81-1.33,.81Zm-21.5-10.67c-.22,0-.44-.05-.65-.15-3.53-1.69-7.18-3.4-10.85-5.09-.75-.35-1.08-1.24-.74-1.99,.35-.75,1.24-1.08,1.99-.74,3.68,1.69,7.34,3.41,10.89,5.1,.75,.36,1.06,1.25,.71,2-.26,.54-.79,.85-1.35,.85Zm-21.8-10.04c-.2,0-.41-.04-.61-.13-3.59-1.59-7.28-3.21-10.98-4.8-.76-.33-1.11-1.21-.79-1.97,.33-.76,1.21-1.11,1.97-.79,3.71,1.59,7.42,3.21,11.01,4.81,.76,.34,1.1,1.22,.76,1.98-.25,.56-.8,.89-1.37,.89Zm-22.05-9.48c-.19,0-.39-.04-.58-.12-3.63-1.51-7.36-3.03-11.09-4.54-.77-.31-1.14-1.18-.83-1.95,.31-.77,1.18-1.14,1.95-.83,3.74,1.51,7.49,3.04,11.12,4.55,.76,.32,1.13,1.2,.81,1.96-.24,.58-.8,.92-1.39,.92Zm-22.26-8.97c-.18,0-.37-.03-.54-.1-3.69-1.44-7.42-2.87-11.19-4.3-.78-.29-1.17-1.16-.87-1.93,.29-.78,1.16-1.16,1.93-.87,3.78,1.43,7.51,2.86,11.22,4.31,.77,.3,1.15,1.17,.85,1.94-.23,.59-.8,.96-1.4,.96Zm-22.45-8.49c-.17,0-.35-.03-.52-.09-3.73-1.37-7.48-2.72-11.27-4.07-.78-.28-1.19-1.14-.91-1.92,.28-.78,1.13-1.19,1.92-.91,3.8,1.35,7.57,2.71,11.3,4.08,.78,.29,1.18,1.15,.89,1.92-.22,.61-.8,.98-1.41,.98Z"/><path class="f" d="M338.44,308.08c-.1,0-.19,0-.29-.03-3.95-.78-7.88-1.53-11.77-2.25-.81-.15-1.35-.93-1.2-1.75,.15-.81,.93-1.35,1.75-1.2,3.91,.72,7.84,1.48,11.8,2.25,.81,.16,1.34,.95,1.18,1.76-.14,.72-.77,1.21-1.47,1.21Zm-23.6-4.38c-.09,0-.17,0-.26-.02-3.94-.69-7.91-1.35-11.82-1.99-.82-.13-1.37-.9-1.24-1.72,.13-.82,.91-1.37,1.72-1.24,3.92,.64,7.9,1.31,11.85,1.99,.82,.14,1.36,.92,1.22,1.74-.13,.73-.76,1.24-1.48,1.24Zm-23.69-3.84c-.07,0-.15,0-.22-.02-3.97-.6-7.96-1.17-11.86-1.7-.82-.11-1.39-.87-1.28-1.69,.11-.82,.87-1.4,1.69-1.28,3.92,.54,7.92,1.11,11.9,1.71,.82,.12,1.38,.89,1.26,1.71-.11,.74-.75,1.28-1.48,1.28Zm-23.78-3.26c-.06,0-.12,0-.19-.01-3.99-.49-7.99-.96-11.9-1.38-.82-.09-1.42-.83-1.33-1.65,.09-.82,.84-1.42,1.65-1.33,3.92,.43,7.94,.89,11.94,1.39,.82,.1,1.41,.85,1.3,1.67-.09,.76-.74,1.32-1.49,1.32Zm-23.86-2.59s-.09,0-.14,0c-4.01-.37-8.02-.72-11.93-1.01-.83-.06-1.44-.78-1.38-1.61,.06-.83,.79-1.44,1.61-1.38,3.93,.3,7.96,.64,11.98,1.02,.82,.08,1.43,.81,1.35,1.63-.07,.78-.73,1.36-1.49,1.36Z"/></g></g><g><path d="M189.41,716.8c-2.71,0-5.42-.46-8.03-1.4-52.59-18.97-96.09-40.4-125.79-62-30.86-22.43-45.03-43.9-40.97-62.08,.18-.81,.98-1.32,1.79-1.14,.81,.18,1.32,.98,1.14,1.79-7.67,34.38,57.04,81.72,164.85,120.6,5.58,2.01,11.76,1.53,16.96-1.33,5.19-2.85,8.9-7.8,10.19-13.58l104.89-467.25c2.27-10.17-3.43-20.46-13.25-23.93-54.03-19.1-98.82-40.81-129.54-62.8-31.88-22.82-46.56-44.66-42.43-63.14,.18-.81,.97-1.32,1.79-1.14,.81,.18,1.32,.98,1.14,1.79-3.84,17.21,10.42,37.98,41.25,60.04,30.49,21.83,75.03,43.41,128.79,62.41,11.25,3.98,17.78,15.76,15.18,27.42l-104.89,467.25c-1.48,6.62-5.73,12.28-11.68,15.55-3.53,1.94-7.45,2.92-11.4,2.92Z"/><path d="M271.9,303.7c-1.6,0-3.21-.27-4.75-.8-76.08-26.48-132.96-58.43-156.05-87.64-.51-.65-.4-1.59,.25-2.11,.65-.51,1.59-.4,2.11,.25,22.75,28.78,79.13,60.37,154.68,86.67,3.08,1.07,6.49,.78,9.35-.81,2.87-1.59,4.92-4.33,5.63-7.52l1.97-8.81,7.57-41.7,1.26-5.67c1.44-6.45-2.19-12.95-8.45-15.12-74.81-25.88-131.63-57.26-155.88-86.1-.53-.63-.45-1.58,.18-2.11s1.58-.45,2.11,.18c23.92,28.44,80.26,59.49,154.57,85.2,7.7,2.66,12.17,10.66,10.4,18.61l-1.25,5.61-7.57,41.7-1.98,8.87c-.9,4.02-3.48,7.47-7.1,9.48-2.18,1.21-4.61,1.83-7.04,1.83Z"/><path d="M210.07,563.24c-1.6,0-3.21-.27-4.75-.8-69.3-24.12-122.18-52.4-148.92-79.62-.58-.59-.57-1.54,.02-2.12,.59-.58,1.54-.57,2.12,.02,26.04,26.51,79.9,55.26,147.77,78.88,3.08,1.07,6.49,.78,9.35-.81,2.87-1.59,4.92-4.33,5.63-7.52l1.97-8.81,47.06-195.32,1.25-5.59c1.44-6.45-2.19-12.95-8.45-15.12-74.81-25.88-131.63-57.26-155.88-86.1-.53-.63-.45-1.58,.18-2.11,.63-.53,1.58-.45,2.11,.18,23.92,28.43,80.26,59.49,154.57,85.2,7.7,2.66,12.17,10.66,10.4,18.61l-1.25,5.61-47.06,195.32-1.96,8.79c-.9,4.02-3.48,7.47-7.1,9.48-2.18,1.21-4.61,1.83-7.04,1.83Z"/><path d="M182.87,676.18c-1.6,0-3.21-.27-4.75-.8-61.13-21.28-110.67-46.46-139.49-70.9-.63-.54-.71-1.48-.17-2.11,.53-.63,1.48-.71,2.11-.17,28.54,24.2,77.74,49.19,138.54,70.35,3.08,1.07,6.49,.78,9.35-.81,2.87-1.59,4.92-4.33,5.63-7.52l1.97-8.81,11.25-49.34,1.25-5.6c1.44-6.45-2.19-12.95-8.45-15.12-65.27-22.58-116.84-49.25-145.21-75.11-.61-.56-.66-1.51-.1-2.12,.56-.61,1.51-.66,2.12-.1,28.08,25.59,79.28,52.04,144.17,74.49,7.7,2.66,12.17,10.66,10.4,18.61l-1.25,5.61-11.25,49.34-1.97,8.81c-.9,4.02-3.48,7.48-7.1,9.48-2.17,1.21-4.6,1.83-7.04,1.83Z"/></g><g><path d="M461.52,762.86c-.5,0-1.01-.04-1.53-.12-23.2-3.61-46.94-8.11-70.57-13.39-4.3-.96-7-5.23-6.04-9.52l13.16-58.96c.16-.72,.61-1.36,1.23-1.75,.63-.4,1.38-.53,2.11-.37l.5,.11c24.73,5.52,49.58,10.19,73.86,13.88,2.72,.41,5.17,1.95,6.72,4.21,1.55,2.27,2.1,5.1,1.5,7.79l-11.23,50.33c-1.02,4.59-5.13,7.77-9.71,7.77Zm-62.1-81.12l-13.11,58.75c-.6,2.68,1.08,5.34,3.75,5.93,23.59,5.26,47.26,9.75,70.4,13.35,3.61,.56,7.05-1.79,7.84-5.34l11.23-50.33c.42-1.87,.04-3.85-1.05-5.44-1.08-1.58-2.79-2.65-4.69-2.94-24.35-3.7-49.27-8.39-74.06-13.92l-.3-.07Z"/><path d="M483.59,663.95c-.49,0-.99-.04-1.48-.11-24.53-3.72-49.65-8.43-74.65-14.01-2.1-.47-3.42-2.55-2.95-4.65l12.55-56.25c.4-1.79,1.47-3.31,3.01-4.29,1.55-.98,3.38-1.3,5.17-.9l2.07,.47c22.84,5.1,45.82,9.48,68.3,13.02,2.71,.43,5.14,1.97,6.68,4.23,1.54,2.26,2.08,5.09,1.49,7.76l-10.48,46.96c-1.02,4.58-5.13,7.77-9.71,7.77Zm-59.86-77.38c-.72,0-1.42,.2-2.05,.6-.87,.55-1.47,1.4-1.69,2.41l-12.55,56.25c-.11,.48,.2,.96,.68,1.07h0c24.93,5.56,49.98,10.26,74.44,13.97,3.58,.54,7.02-1.8,7.82-5.34l10.48-46.96c.42-1.87,.04-3.84-1.04-5.42-1.07-1.58-2.78-2.65-4.67-2.95-22.54-3.55-45.59-7.95-68.49-13.06l-2.08-.47c-.28-.06-.57-.1-.85-.1Z"/><path d="M624.42,580.3s-.09,0-.14,0c-56.56-.78-121.82-9.09-188.73-24.02-2.85-.64-5.28-2.35-6.85-4.81-1.57-2.47-2.08-5.39-1.44-8.25l10.92-48.91c.58-2.6,2.14-4.82,4.38-6.24,2.25-1.43,4.92-1.89,7.52-1.31h0c65.66,14.65,129.84,22.92,185.61,23.91,3,.05,5.79,1.43,7.64,3.79,1.86,2.36,2.55,5.39,1.89,8.32l-11.1,49.75c-1.01,4.52-5.08,7.77-9.71,7.77Zm-176.53-90.78c-1.31,0-2.59,.37-3.72,1.09-1.57,1-2.66,2.55-3.06,4.36l-10.91,48.91c-.46,2.07-.09,4.2,1.05,5.98,1.14,1.79,2.9,3.03,4.97,3.49,66.71,14.89,131.76,23.17,188.11,23.95h.1c3.23,0,6.07-2.27,6.78-5.42l11.1-49.75c.46-2.05-.03-4.16-1.32-5.81-1.3-1.65-3.24-2.61-5.34-2.65-55.97-.99-120.37-9.28-186.22-23.98-.51-.11-1.02-.17-1.53-.17Z"/><path d="M586.94,773.48c-28.26,0-59.74-2.01-93.43-6.09-2.51-.3-4.79-1.66-6.25-3.72-1.46-2.07-1.99-4.67-1.43-7.14l11.49-51.49c1.11-4.98,5.77-8.29,10.86-7.7,87.85,10.25,160.08,6.29,198.18-10.88,2.19-.99,4.71-.66,6.58,.86,1.87,1.52,2.7,3.92,2.17,6.27l-12.6,56.44c-.68,3.06-2.8,5.65-5.67,6.92-24.61,10.95-62.79,16.54-109.9,16.54Zm-79.93-73.21c-3.22,0-6.04,2.21-6.76,5.42l-11.49,51.49c-.37,1.64-.02,3.38,.95,4.75,.97,1.37,2.49,2.28,4.17,2.48,89.32,10.81,162.86,7.09,201.75-10.21,2-.89,3.48-2.7,3.96-4.84l12.6-56.44c.27-1.23-.16-2.49-1.14-3.29-.97-.79-2.3-.97-3.45-.45-38.58,17.39-111.39,21.44-199.76,11.13h0c-.28-.03-.55-.05-.82-.05Z"/><path d="M604.21,673.85c-27.63,0-58.23-1.9-90.7-5.76-1.98-.23-3.77-1.3-4.92-2.92-1.15-1.62-1.56-3.66-1.13-5.61l11.13-49.88c1.12-5.01,5.81-8.32,10.92-7.69h0c85.68,10.52,157.95,7.64,198.25-7.9,2.07-.8,4.39-.4,6.07,1.05,1.68,1.44,2.42,3.69,1.94,5.85l-10.55,47.26c-.64,2.87-2.5,5.3-5.11,6.66-23.97,12.49-64.89,18.95-115.9,18.95Zm-75.92-68.93c-3.22,0-6.04,2.21-6.76,5.42l-11.13,49.88c-.25,1.11-.01,2.29,.65,3.22,.66,.93,1.69,1.54,2.82,1.68,91.83,10.92,168.41,6.11,204.86-12.87,1.82-.95,3.13-2.64,3.57-4.65l10.55-47.26c.24-1.08-.13-2.2-.97-2.92-.84-.72-2-.92-3.03-.52-40.75,15.71-113.54,18.66-199.7,8.08h0c-.29-.04-.58-.05-.87-.05Z"/><path d="M656.98,579.83c-2.19,0-4.31-.98-5.72-2.66-1.49-1.77-2.07-4.17-1.57-6.42l11.77-52.74c.98-4.37,4.78-7.56,9.26-7.76h0c32.82-1.47,59.33-5.92,78.81-13.24,2.05-.77,4.35-.36,6,1.07,1.65,1.44,2.38,3.66,1.91,5.79l-12.16,54.47c-.71,3.2-2.96,5.85-6,7.07-19.9,8-47.48,12.84-81.97,14.41-.11,0-.22,0-.33,0Zm13.88-66.59c-3.13,.14-5.79,2.37-6.47,5.42l-11.77,52.74c-.3,1.35,.05,2.78,.94,3.84,.89,1.06,2.25,1.65,3.62,1.59,33.68-1.53,61.68-6.44,80.99-14.2,2.12-.85,3.69-2.7,4.19-4.94l12.16-54.47c.24-1.06-.13-2.16-.95-2.88-.82-.71-1.96-.91-2.98-.53-19.77,7.43-46.6,11.94-79.73,13.43h0Zm-.07-1.5h0Z"/></g><path d="M577.78,806.6c-55.63,0-121.76-8.03-189.87-23.23-6.14-1.37-12.36-2.82-18.49-4.29-12.27-2.96-20.02-15.38-17.28-27.69l61.04-273.47c1.35-6.05,5.14-11.39,10.39-14.67,5.25-3.28,11.72-4.32,17.74-2.88,5.88,1.41,11.85,2.8,17.77,4.12,80.92,18.06,159,25.97,219.87,22.27,29.5-1.79,53.31-6.22,70.77-13.15,17.74-7.04,28.01-16.34,30.53-27.61,.18-.81,.98-1.32,1.79-1.14,.81,.18,1.32,.98,1.14,1.79-5.37,24.05-42.32,39.35-104.04,43.11-61.13,3.72-139.51-4.22-220.7-22.34-5.93-1.32-11.93-2.71-17.82-4.13-5.24-1.26-10.87-.35-15.45,2.5-4.57,2.85-7.87,7.51-9.05,12.77l-61.04,273.47c-2.39,10.72,4.36,21.54,15.05,24.12,6.1,1.47,12.31,2.91,18.44,4.28,80.92,18.06,159.01,25.97,219.87,22.27,29.5-1.79,53.31-6.22,70.77-13.15,17.74-7.04,28.01-16.34,30.53-27.61,.18-.81,.98-1.32,1.79-1.14,.81,.18,1.32,.98,1.14,1.79-5.37,24.05-42.32,39.35-104.04,43.11-9.85,.6-20.15,.9-30.84,.9Z"/><path class="h" d="M815.29,300.17c-.11,0-.22-.01-.33-.04-.81-.18-1.32-.98-1.14-1.79,6.7-30.02-43.79-71-131.77-106.94-.77-.31-1.13-1.19-.82-1.96,.31-.77,1.19-1.13,1.96-.82,90.78,37.09,140.71,78.35,133.57,110.37-.16,.7-.78,1.17-1.46,1.17Z"/><path d="M649.68,342.14s-.05,0-.08,0c-26.96-1.36-55.71-4.33-85.45-8.83-.82-.12-1.38-.89-1.26-1.71,.12-.82,.89-1.38,1.71-1.26,29.64,4.48,58.29,7.45,85.15,8.8,.83,.04,1.46,.75,1.42,1.57-.04,.8-.7,1.42-1.5,1.42Z"/><path d="M699.54,342.71c-.81,0-1.47-.64-1.5-1.45-.03-.83,.62-1.52,1.45-1.55,42.04-1.37,74.6-7.79,94.17-18.59,.72-.4,1.64-.14,2.04,.59,.4,.73,.14,1.64-.59,2.04-19.98,11.03-53.01,17.59-95.52,18.97h-.05Z"/><path class="h" d="M826.11,259.37c-.11,0-.22-.01-.33-.04-.81-.18-1.32-.98-1.14-1.79,7.54-33.8-56.09-80.34-162.11-118.58-.78-.28-1.18-1.14-.9-1.92,.28-.78,1.14-1.18,1.92-.9,51.72,18.65,94.5,39.74,123.72,60.97,30.36,22.07,44.3,43.19,40.3,61.08-.16,.7-.78,1.17-1.46,1.17Z"/><path d="M618.32,298.04c-.05,0-.1,0-.16,0-37.14-3.86-75.94-10.28-115.33-19.07-.81-.18-1.32-.98-1.14-1.79,.18-.81,.97-1.32,1.79-1.14,39.28,8.77,77.96,15.16,114.99,19.01,.82,.09,1.42,.82,1.34,1.65-.08,.77-.73,1.34-1.49,1.34Z"/><path d="M693.37,302.19c-6.12,0-12.41-.1-18.87-.29-.83-.02-1.48-.72-1.45-1.54,.03-.83,.7-1.48,1.54-1.45,68.55,2.05,119.71-7.36,140.33-25.84,.62-.55,1.57-.5,2.12,.12,.55,.62,.5,1.57-.12,2.12-19.53,17.49-63.04,26.89-123.56,26.89Z"/><g><g><path d="M64.89,71.96c-.38,0-.77-.15-1.06-.44l-3.83-3.82c-.59-.59-.59-1.54,0-2.12,.59-.59,1.54-.59,2.12,0l3.83,3.82c.59,.59,.59,1.54,0,2.12-.29,.29-.68,.44-1.06,.44Z"/><path d="M78.29,85.34c-.38,0-.77-.15-1.06-.44l-3.83-3.82c-.59-.59-.59-1.54,0-2.12,.58-.59,1.54-.59,2.12,0l3.83,3.82c.59,.59,.59,1.54,0,2.12-.29,.29-.68,.44-1.06,.44Z"/><path d="M61.06,85.34c-.38,0-.77-.15-1.06-.44-.59-.59-.59-1.54,0-2.12l3.83-3.82c.59-.59,1.54-.59,2.12,0,.58,.59,.58,1.54,0,2.12l-3.83,3.82c-.29,.29-.68,.44-1.06,.44Z"/><path d="M74.46,71.96c-.38,0-.77-.15-1.06-.44-.59-.59-.59-1.54,0-2.12l3.83-3.82c.59-.59,1.54-.59,2.12,0,.59,.59,.59,1.54,0,2.12l-3.83,3.82c-.29,.29-.68,.44-1.06,.44Z"/></g><g><path d="M502.54,161.38c-.38,0-.77-.15-1.06-.44l-3.07-3.07c-.59-.59-.59-1.54,0-2.12,.59-.59,1.54-.59,2.12,0l3.07,3.07c.59,.59,.59,1.54,0,2.12-.29,.29-.68,.44-1.06,.44Z"/><path d="M513.3,172.13c-.38,0-.77-.15-1.06-.44l-3.07-3.07c-.59-.59-.59-1.54,0-2.12,.59-.59,1.54-.59,2.12,0l3.07,3.07c.59,.59,.59,1.54,0,2.12-.29,.29-.68,.44-1.06,.44Z"/><path d="M499.47,172.13c-.38,0-.77-.15-1.06-.44-.58-.59-.58-1.54,0-2.12l3.07-3.07c.59-.59,1.54-.59,2.12,0,.59,.59,.59,1.54,0,2.12l-3.07,3.07c-.29,.29-.68,.44-1.06,.44Z"/><path d="M510.22,161.38c-.38,0-.77-.15-1.06-.44-.59-.59-.59-1.54,0-2.12l3.07-3.07c.59-.59,1.54-.59,2.12,0,.58,.59,.58,1.54,0,2.12l-3.07,3.07c-.29,.29-.68,.44-1.06,.44Z"/></g><path class="g" d="M738.55,99.98c0-3.69,3-6.68,6.69-6.68s6.69,2.99,6.69,6.68-3,6.68-6.69,6.68-6.69-2.99-6.69-6.68Z"/><path class="i" d="M122.85,749.13c0-3.69,3-6.68,6.69-6.68s6.69,2.99,6.69,6.68-3,6.68-6.69,6.68-6.69-2.99-6.69-6.68Z"/><path d="M785.19,139.95c-5.22,0-9.47-4.24-9.47-9.46s4.25-9.46,9.47-9.46,9.47,4.24,9.47,9.46-4.25,9.46-9.47,9.46Zm0-15.92c-3.57,0-6.47,2.9-6.47,6.46s2.9,6.46,6.47,6.46,6.47-2.9,6.47-6.46-2.9-6.46-6.47-6.46Z"/><path d="M44.74,129.98c-5.29,0-9.59-4.3-9.59-9.58s4.3-9.58,9.59-9.58,9.59,4.3,9.59,9.58-4.3,9.58-9.59,9.58Zm0-16.16c-3.63,0-6.59,2.95-6.59,6.58s2.95,6.58,6.59,6.58,6.59-2.95,6.59-6.58-2.95-6.58-6.59-6.58Z"/><path d="M47.11,175.09c-3.76,0-6.82-3.06-6.82-6.82s3.06-6.82,6.82-6.82,6.82,3.06,6.82,6.82-3.06,6.82-6.82,6.82Zm0-10.64c-2.11,0-3.82,1.71-3.82,3.82s1.71,3.82,3.82,3.82,3.82-1.71,3.82-3.82-1.71-3.82-3.82-3.82Z"/><g><path d="M645.56,240.39c-.38,0-.77-.15-1.06-.44l-4.36-4.36c-.59-.59-.59-1.54,0-2.12,.59-.59,1.54-.59,2.12,0l4.36,4.36c.59,.59,.59,1.54,0,2.12-.29,.29-.68,.44-1.06,.44Z"/><path d="M660.83,255.65c-.38,0-.77-.15-1.06-.44l-4.36-4.36c-.59-.59-.59-1.54,0-2.12,.59-.59,1.54-.59,2.12,0l4.36,4.36c.59,.59,.59,1.54,0,2.12-.29,.29-.68,.44-1.06,.44Z"/><path d="M641.2,255.65c-.38,0-.77-.15-1.06-.44-.58-.59-.58-1.54,0-2.12l4.36-4.36c.59-.58,1.54-.59,2.12,0,.58,.59,.58,1.54,0,2.12l-4.36,4.36c-.29,.29-.68,.44-1.06,.44Z"/><path d="M656.47,240.39c-.38,0-.77-.15-1.06-.44-.58-.59-.58-1.54,0-2.12l4.36-4.36c.59-.59,1.54-.59,2.12,0,.59,.59,.59,1.54,0,2.12l-4.36,4.36c-.29,.29-.68,.44-1.06,.44Z"/></g><g><path d="M572.61,137.3c-.13,0-.27-.02-.41-.06-.8-.23-1.26-1.05-1.04-1.85l27-95.7c.22-.8,1.06-1.26,1.85-1.04,.8,.22,1.26,1.05,1.04,1.85l-27,95.7c-.19,.66-.79,1.09-1.44,1.09Z"/><path d="M584.21,146.29c-.39,0-.78-.15-1.08-.46-.58-.6-.56-1.55,.04-2.12l54.25-52.46c.59-.58,1.55-.56,2.12,.04,.58,.6,.56,1.55-.04,2.12l-54.25,52.46c-.29,.28-.67,.42-1.04,.42Z"/><path d="M556.39,114.61c-.81,0-1.48-.65-1.5-1.47l-1.22-64.03c-.02-.83,.64-1.51,1.47-1.53,.79,0,1.51,.64,1.53,1.47l1.22,64.03c.02,.83-.64,1.51-1.47,1.53h-.03Z"/></g><path class="i" d="M116.42,728.22c0-2.36,1.92-4.28,4.28-4.28s4.28,1.92,4.28,4.28-1.92,4.28-4.28,4.28-4.28-1.92-4.28-4.28Z"/></g></g></g></g></svg>