<svg width="1024" height="1024" viewBox="0 0 1024 1024" fill="none" xmlns="http://www.w3.org/2000/svg">
<path d="M274.687 537.695H177.046C173.702 537.695 170.991 540.406 170.991 543.75V558.723C170.991 562.067 173.702 564.778 177.046 564.778H274.687C278.031 564.778 280.742 562.067 280.742 558.723V543.75C280.742 540.406 278.031 537.695 274.687 537.695Z" fill="#4E5C93"/>
<path d="M274.779 589.243H176.954C173.661 589.243 170.991 591.913 170.991 595.206V609.543C170.991 612.836 173.661 615.506 176.954 615.506H274.779C278.072 615.506 280.742 612.836 280.742 609.543V595.206C280.742 591.913 278.072 589.243 274.779 589.243Z" fill="#ADC6FF"/>
<path d="M274.779 640.791H176.954C173.661 640.791 170.991 643.46 170.991 646.753V661.091C170.991 664.384 173.661 667.053 176.954 667.053H274.779C278.072 667.053 280.742 664.384 280.742 661.091V646.753C280.742 643.46 278.072 640.791 274.779 640.791Z" fill="#A3B5D6"/>
<path d="M274.779 692.339H176.954C173.661 692.339 170.991 695.008 170.991 698.301V712.639C170.991 715.932 173.661 718.601 176.954 718.601H274.779C278.072 718.601 280.742 715.932 280.742 712.639V698.301C280.742 695.008 278.072 692.339 274.779 692.339Z" fill="#ADC6FF"/>
<path d="M941.297 192.722H82.7025C67.9551 192.722 56 204.677 56 219.424V836.004C56 850.751 67.9551 862.706 82.7025 862.706H941.297C956.045 862.706 968 850.751 968 836.004V219.424C968 204.677 956.045 192.722 941.297 192.722Z" fill="#E4EBF7"/>
<path d="M882.51 311.679H363.542C357.936 311.679 353.391 316.223 353.391 321.83V793.215C353.391 798.821 357.936 803.366 363.542 803.366H882.51C888.116 803.366 892.661 798.821 892.661 793.215V321.83C892.661 316.223 888.116 311.679 882.51 311.679Z" fill="#4E5C93"/>
<path d="M801.461 462.356H420.8V486.148H801.461V462.356Z" fill="white"/>
<path d="M611.13 545.626H420.8V569.417H611.13V545.626Z" fill="#E4EBF7"/>
<path d="M773.704 379.087H583.374V402.878H773.704V379.087Z" fill="#E4EBF7"/>
<path d="M769.739 708.2H420.8V731.992H769.739V708.2Z" fill="white"/>
<path d="M535.791 379.087H420.8V402.878H535.791V379.087Z" fill="white"/>
<path d="M706.296 545.626H650.783V569.417H706.296V545.626Z" fill="#E4EBF7"/>
<path d="M702.33 624.931H420.8V648.722H702.33V624.931Z" fill="#E4EBF7"/>
<path d="M80.4286 161H943.113C956.605 161 967.542 171.71 967.542 184.921V256.205H56V184.921C56 171.71 66.937 161 80.4286 161Z" fill="#253368"/>
<path d="M109.123 226.869C118.752 226.869 126.559 219.225 126.559 209.795C126.559 200.366 118.752 192.722 109.123 192.722C99.4933 192.722 91.687 200.366 91.687 209.795C91.687 219.225 99.4933 226.869 109.123 226.869Z" fill="#A3B5D6"/>
<path d="M176.532 226.869C186.161 226.869 193.967 219.225 193.967 209.795C193.967 200.366 186.161 192.722 176.532 192.722C166.902 192.722 159.096 200.366 159.096 209.795C159.096 219.225 166.902 226.869 176.532 226.869Z" fill="#E4EBF7"/>
<path d="M239.975 226.869C249.605 226.869 257.411 219.225 257.411 209.795C257.411 200.366 249.605 192.722 239.975 192.722C230.345 192.722 222.539 200.366 222.539 209.795C222.539 219.225 230.345 226.869 239.975 226.869Z" fill="#E4EBF7"/>
<path d="M314.976 303.748H138.032C132.146 303.748 127.374 308.52 127.374 314.407V792.707C127.374 798.593 132.146 803.365 138.032 803.365H314.976C320.863 803.365 325.635 798.593 325.635 792.707V314.407C325.635 308.52 320.863 303.748 314.976 303.748Z" fill="white"/>
<path d="M274.687 537.695H177.046C173.702 537.695 170.991 540.406 170.991 543.75V558.723C170.991 562.067 173.702 564.778 177.046 564.778H274.687C278.031 564.778 280.742 562.067 280.742 558.723V543.75C280.742 540.406 278.031 537.695 274.687 537.695Z" fill="#A3B5D6"/>
<path d="M274.779 589.243H176.954C173.661 589.243 170.991 591.913 170.991 595.206V609.543C170.991 612.836 173.661 615.506 176.954 615.506H274.779C278.072 615.506 280.742 612.836 280.742 609.543V595.206C280.742 591.913 278.072 589.243 274.779 589.243Z" fill="#A3B5D6"/>
<path d="M274.779 640.791H176.954C173.661 640.791 170.991 643.46 170.991 646.753V661.091C170.991 664.384 173.661 667.053 176.954 667.053H274.779C278.072 667.053 280.742 664.384 280.742 661.091V646.753C280.742 643.46 278.072 640.791 274.779 640.791Z" fill="#A3B5D6"/>
<path d="M274.779 692.339H176.954C173.661 692.339 170.991 695.008 170.991 698.301V712.639C170.991 715.932 173.661 718.601 176.954 718.601H274.779C278.072 718.601 280.742 715.932 280.742 712.639V698.301C280.742 695.008 278.072 692.339 274.779 692.339Z" fill="#A3B5D6"/>
<path d="M224.501 466.534C251.576 466.534 273.526 444.336 273.526 416.952C273.526 389.569 251.576 367.37 224.501 367.37C197.425 367.37 175.475 389.569 175.475 416.952C175.475 444.336 197.425 466.534 224.501 466.534Z" fill="#CCD7EE"/>
<path d="M224.501 466.535C238.631 466.543 252.04 460.229 261.131 449.289C253.968 435.536 239.863 426.927 224.493 426.927C209.123 426.927 195.017 435.536 187.854 449.289C196.95 460.232 210.366 466.545 224.501 466.535Z" fill="#253368"/>
<path d="M224.761 428.899C234.944 428.899 243.199 420.55 243.199 410.251C243.199 399.952 234.944 391.604 224.761 391.604C214.578 391.604 206.323 399.952 206.323 410.251C206.323 420.55 214.578 428.899 224.761 428.899Z" fill="#253368"/>
</svg>
