<svg width="1024" height="1024" viewBox="0 0 1024 1024" fill="none" xmlns="http://www.w3.org/2000/svg">
<path fill-rule="evenodd" clip-rule="evenodd" d="M544.953 248L376.953 775.756H478.522L646.522 248H544.953Z" fill="#4E5C93"/>
<path fill-rule="evenodd" clip-rule="evenodd" d="M305.392 308.001H197.57H129.6C124.298 308.001 120 312.299 120 317.601V385.571V638.187V706.156C120 711.459 124.298 715.756 129.6 715.756H197.57H305.392C310.694 715.756 314.992 711.459 314.992 706.156V647.787C314.992 642.484 310.694 638.187 305.392 638.187H197.57V385.571H305.392C310.694 385.571 314.992 381.273 314.992 375.971V317.601C314.992 312.299 310.694 308.001 305.392 308.001Z" fill="#CCD7EE"/>
<path fill-rule="evenodd" clip-rule="evenodd" d="M893.874 308.001H825.903H718.082C712.78 308.001 708.482 312.299 708.482 317.601V375.971C708.482 381.273 712.78 385.571 718.082 385.571H825.903V638.187H718.082C712.78 638.187 708.482 642.484 708.482 647.787V706.156C708.482 711.459 712.78 715.756 718.082 715.756H825.903H893.874C899.176 715.756 903.474 711.459 903.474 706.156V647.787V375.971V317.601C903.474 312.299 899.176 308.001 893.874 308.001Z" fill="#CCD7EE"/>
</svg>
