<svg width="1024" height="1024" viewBox="0 0 1024 1024" fill="none" xmlns="http://www.w3.org/2000/svg">
<path fill-rule="evenodd" clip-rule="evenodd" d="M967.693 258.843H56.915V194.418C56.915 180.443 68.0067 169.112 81.6871 169.112H942.921C956.602 169.112 967.693 180.443 967.693 194.418V258.843Z" fill="#253368"/>
<path fill-rule="evenodd" clip-rule="evenodd" d="M120.779 211.242C120.779 220.013 113.862 227.124 105.328 227.124C96.7962 227.124 89.8795 220.013 89.8795 211.242C89.8795 202.471 96.7962 195.36 105.328 195.36C113.862 195.36 120.779 202.471 120.779 211.242Z" fill="#A3B5D6"/>
<path fill-rule="evenodd" clip-rule="evenodd" d="M178.465 211.242C178.465 220.013 171.548 227.124 163.015 227.124C154.483 227.124 147.566 220.013 147.566 211.242C147.566 202.471 154.483 195.36 163.015 195.36C171.548 195.36 178.465 202.471 178.465 211.242Z" fill="#E4EBF7"/>
<path fill-rule="evenodd" clip-rule="evenodd" d="M236.152 211.242C236.152 220.013 229.235 227.124 220.702 227.124C212.17 227.124 205.253 220.013 205.253 211.242C205.253 202.471 212.17 195.36 220.702 195.36C229.235 195.36 236.152 202.471 236.152 211.242Z" fill="#E4EBF7"/>
<path fill-rule="evenodd" clip-rule="evenodd" d="M83.6226 855.054C68.368 855.054 56 844.082 56 830.548V247.054H968V830.548C968 844.082 955.633 855.054 940.377 855.054H83.6226Z" fill="#E4EBF7"/>
<path d="M895.336 304.567H325.853C319.755 304.567 314.811 309.511 314.811 315.61V424.984C314.811 431.083 319.755 436.027 325.853 436.027H895.336C901.434 436.027 906.378 431.083 906.378 424.984V315.61C906.378 309.511 901.434 304.567 895.336 304.567Z" fill="white"/>
<path d="M694.811 386.729H378.487C375.083 386.729 372.324 389.488 372.324 392.892C372.324 396.295 375.083 399.054 378.487 399.054H694.811C698.214 399.054 700.973 396.295 700.973 392.892C700.973 389.488 698.214 386.729 694.811 386.729Z" fill="#E4EBF7"/>
<path d="M809.838 345.648H378.487C375.083 345.648 372.324 348.407 372.324 351.811C372.324 355.214 375.083 357.973 378.487 357.973H809.838C813.241 357.973 816 355.214 816 351.811C816 348.407 813.241 345.648 809.838 345.648Z" fill="#E4EBF7"/>
<path d="M895.336 485.324H325.853C319.755 485.324 314.811 490.268 314.811 496.367V605.741C314.811 611.84 319.755 616.784 325.853 616.784H895.336C901.434 616.784 906.378 611.84 906.378 605.741V496.367C906.378 490.268 901.434 485.324 895.336 485.324Z" fill="#A3B5D6"/>
<path d="M694.811 567.486H378.487C375.083 567.486 372.324 570.245 372.324 573.648C372.324 577.052 375.083 579.811 378.487 579.811H694.811C698.214 579.811 700.973 577.052 700.973 573.648C700.973 570.245 698.214 567.486 694.811 567.486Z" fill="white"/>
<path d="M809.838 526.405H378.487C375.083 526.405 372.324 529.164 372.324 532.567C372.324 535.971 375.083 538.73 378.487 538.73H809.838C813.241 538.73 816 535.971 816 532.567C816 529.164 813.241 526.405 809.838 526.405Z" fill="white"/>
<path d="M895.336 666.081H325.853C319.755 666.081 314.811 671.025 314.811 677.124V786.498C314.811 792.597 319.755 797.541 325.853 797.541H895.336C901.434 797.541 906.378 792.597 906.378 786.498V677.124C906.378 671.025 901.434 666.081 895.336 666.081Z" fill="white"/>
<path d="M694.811 748.243H378.487C375.083 748.243 372.324 751.002 372.324 754.405C372.324 757.809 375.083 760.567 378.487 760.567H694.811C698.214 760.567 700.973 757.809 700.973 754.405C700.973 751.002 698.214 748.243 694.811 748.243Z" fill="#E4EBF7"/>
<path d="M809.838 707.162H378.487C375.083 707.162 372.324 709.921 372.324 713.324C372.324 716.728 375.083 719.486 378.487 719.486H809.838C813.241 719.486 816 716.728 816 713.324C816 709.921 813.241 707.162 809.838 707.162Z" fill="#E4EBF7"/>
<path d="M262.687 304.567H136.88C130.782 304.567 125.838 309.511 125.838 315.61V424.984C125.838 431.083 130.782 436.027 136.88 436.027H262.687C268.786 436.027 273.73 431.083 273.73 424.984V315.61C273.73 309.511 268.786 304.567 262.687 304.567Z" fill="white"/>
<path d="M262.687 485.324H136.88C130.782 485.324 125.838 490.268 125.838 496.367V605.741C125.838 611.84 130.782 616.784 136.88 616.784H262.687C268.786 616.784 273.73 611.84 273.73 605.741V496.367C273.73 490.268 268.786 485.324 262.687 485.324Z" fill="#4E5C93"/>
<path d="M262.687 666.081H136.88C130.782 666.081 125.838 671.025 125.838 677.124V786.498C125.838 792.597 130.782 797.54 136.88 797.54H262.687C268.786 797.54 273.73 792.597 273.73 786.498V677.124C273.73 671.025 268.786 666.081 262.687 666.081Z" fill="#A3B5D6"/>
</svg>
