<svg xmlns="http://www.w3.org/2000/svg" viewBox="0 0 830 830.5"><defs><style>.cls-1{fill:#fbf3e1;}.cls-2{fill:#fff;}.cls-3{fill:#dce1e3;}.cls-4{fill:#e9c46a;}.cls-5{fill:#516b75;}.cls-6{fill:#97a6ac;}.cls-7{fill:#b9c4c8;}</style></defs><g id="Layer_2" data-name="Layer 2"><g id="Illustration"><g id="FAQ"><path class="cls-1" d="M329.13,24.56c-18.08,5.63-98.28,31.75-178.37,101.09-19.4,16.79-97.82,84.68-131.32,176C-37.59,457,30.65,693.3,227.2,788.29c229,110.63,518.15-25.54,584.11-207.78,29.26-80.83,30.57-214.86-43.12-303.24-59.31-71.14-160.74-104.93-156.81-172.22,1.89-32.4,26.4-41.36,19.6-61.77C614.86-5.12,456.88-15.16,329.13,24.56Z"/><circle class="cls-2" cx="329.73" cy="381.35" r="248.14" transform="translate(-173.08 344.85) rotate(-45)"/><path d="M329.73,631a249.65,249.65,0,1,1,176.53-73.12A248,248,0,0,1,329.73,631Zm0-496.16A246.44,246.44,0,1,0,504.14,207,245.89,245.89,0,0,0,329.73,134.83Z"/><path class="cls-2" d="M769.31,821.35h0a26.12,26.12,0,0,0,0-36.94L532.78,547.87l-36.95,37L732.37,821.35A26.12,26.12,0,0,0,769.31,821.35Z"/><path d="M750.84,830.49a27.55,27.55,0,0,1-19.53-8.08L494.77,585.88a1.52,1.52,0,0,1,0-2.13l37-36.94a1.55,1.55,0,0,1,2.12,0L770.37,783.35a27.61,27.61,0,0,1-19.53,47.14ZM498,584.82,733.43,820.29a24.62,24.62,0,0,0,34.82-34.82L532.78,550Z"/><path class="cls-2" d="M655.3,688.3l-19.94-19.94Z"/><path d="M655.3,689.8a1.53,1.53,0,0,1-1.06-.44L634.3,669.42a1.5,1.5,0,1,1,2.12-2.13l19.94,20a1.5,1.5,0,0,1-1.06,2.56Z"/><path class="cls-2" d="M718.91,790l22.41,22.4a13.46,13.46,0,0,0,19-19l-78.71-78.72Z"/><path d="M750.84,817.84a14.9,14.9,0,0,1-10.58-4.38l-22.41-22.4a1.5,1.5,0,0,1,2.12-2.12l22.41,22.4a12,12,0,0,0,16.92-16.92l-78.71-78.71a1.5,1.5,0,0,1,2.12-2.13l78.71,78.71a15,15,0,0,1-10.58,25.55Z"/><rect class="cls-2" x="509.05" y="578" width="78.34" height="44.53" rx="7.57" transform="translate(1360.32 637.06) rotate(135)"/><path d="M536.27,642.06a9,9,0,0,1-6.41-2.65l-20.79-20.79a9.08,9.08,0,0,1,0-12.82l44.69-44.69a9.09,9.09,0,0,1,12.83,0l20.78,20.79a9.07,9.07,0,0,1,0,12.82l-44.69,44.69A9,9,0,0,1,536.27,642.06Zm23.9-80.6a6.05,6.05,0,0,0-4.29,1.77l-44.69,44.69a6.08,6.08,0,0,0,0,8.58L532,637.29a6.08,6.08,0,0,0,8.58,0h0l44.69-44.69a6.07,6.07,0,0,0,0-8.58l-20.79-20.79A6,6,0,0,0,560.17,561.46Z"/><rect class="cls-2" x="548.25" y="617.2" width="78.34" height="44.53" rx="7.57" transform="translate(1454.96 676.26) rotate(135)"/><path d="M575.47,681.26a9,9,0,0,1-6.41-2.65l-20.79-20.78a9.1,9.1,0,0,1,0-12.83L593,600.31a9.09,9.09,0,0,1,12.83,0l20.78,20.79a9.07,9.07,0,0,1,0,12.82l-44.69,44.69A9,9,0,0,1,575.47,681.26Zm23.91-80.6a6.06,6.06,0,0,0-4.3,1.77l-44.69,44.69a6.08,6.08,0,0,0,0,8.58l20.79,20.79a6.07,6.07,0,0,0,8.58,0l1.06,1.06-1.06-1.06,44.69-44.69a6.07,6.07,0,0,0,0-8.58l-20.78-20.79A6.05,6.05,0,0,0,599.38,600.66Z"/><path class="cls-3" d="M106.39,415.68l427.87,61.86a225.19,225.19,0,0,1-44.74,63.6c-5,5-10.14,9.65-15.44,14.07L142,507.2A224.9,224.9,0,0,1,106.39,415.68Z"/><path class="cls-3" d="M170,221.57a225.09,225.09,0,0,1,74.76-49.65l225.78,32.65a226.1,226.1,0,0,1,73.18,249.66L104,390.66A225.32,225.32,0,0,1,170,221.57Z"/><path d="M106.4,348.33h-.23a1.49,1.49,0,0,1-1.25-1.71,226.25,226.25,0,0,1,19.86-64.07,1.5,1.5,0,1,1,2.7,1.3,223.47,223.47,0,0,0-19.6,63.22A1.49,1.49,0,0,1,106.4,348.33Z"/><path d="M372.89,604.69a1.5,1.5,0,0,1-.28-3A224.48,224.48,0,1,0,171,222.63a1.5,1.5,0,0,1-2.12-2.13A227.47,227.47,0,1,1,373.18,604.66,1.43,1.43,0,0,1,372.89,604.69Z"/><path class="cls-4" d="M564.72,54.28C436.37,50.79,330.19,126.6,327.55,223.6c-1.18,43.4,18.59,83.69,52.27,115.27L337.15,434l112.91-50.45c31.36,13.11,67.07,21,105.11,22C683.52,409,789.7,333.23,792.34,236.23S693.07,57.77,564.72,54.28Z"/><path d="M656.77,56a1.94,1.94,0,0,1-.84-.19c-3-1.39-6-2.75-9.1-4a2,2,0,1,1,1.55-3.68c3.11,1.31,6.22,2.69,9.24,4.1a2,2,0,0,1-.85,3.81Z"/><path d="M540.83,381q-4.3,0-8.62-.12c-9.61-.26-19.28-1-28.73-2.1a2,2,0,1,1,.47-4c9.34,1.12,18.88,1.82,28.37,2.08,127,3.46,232.51-71.63,235.11-167.37,1.48-54.35-30-105.45-86.39-140.2a2,2,0,1,1,2.1-3.4c27.54,17,50.13,38.72,65.34,62.9,16,25.42,23.72,52.61,22.95,80.81-1.29,47.55-27,91.56-72.28,123.91C656.08,364.31,600.15,381,540.83,381Z"/><path d="M314.25,409.34a2,2,0,0,1-1.83-2.82l42.09-93.8c-34.59-32.9-53-74-51.86-115.81,1.29-47.55,27-91.56,72.28-123.91,45.14-32.23,104.43-49,166.94-47.35a310.38,310.38,0,0,1,43.7,4.28,2,2,0,0,1-.67,4,307,307,0,0,0-43.14-4.23C480.15,28,421.69,44.52,377.25,76.25,333,107.86,307.9,150.75,306.64,197c-1.11,41.09,17.23,81.49,51.64,113.76a2,2,0,0,1,.46,2.28l-40.52,90.31,108.11-48.31a2,2,0,0,1,1.59,0,273.87,273.87,0,0,0,29.48,10.37,2,2,0,0,1-1.11,3.85,279.45,279.45,0,0,1-29.11-10.19L315.06,409.16A2,2,0,0,1,314.25,409.34Z"/><path class="cls-2" d="M550.36,306a15.86,15.86,0,0,0-15.86,15.86v1.09a15.86,15.86,0,0,0,31.71,0v-1.09A15.86,15.86,0,0,0,550.36,306Z"/><path class="cls-2" d="M608.26,118.9q-19.35-16.25-52.77-16.24A161.44,161.44,0,0,0,523.85,106q-9.71,1.94-17.44,4.17a14.06,14.06,0,0,0-10.15,13.53h0a14.09,14.09,0,0,0,19.36,13.06c2.06-.82,4.07-1.59,5.9-2.24a95.06,95.06,0,0,1,31.79-5.28q18.81,0,30.7,8.63t11.89,26.19q0,13.37-5,22a69.13,69.13,0,0,1-14,16.72,107,107,0,0,1-19.2,13.83l-5.61,3.26A32.56,32.56,0,0,0,535.9,248v14.33a14.14,14.14,0,0,0,13.41,14.24,13.92,13.92,0,0,0,14.42-13.91V260a32.66,32.66,0,0,1,15.14-27.51q4.59-2.92,9-5.92a135,135,0,0,0,20-16.63,74.79,74.79,0,0,0,14.3-21.07,64.48,64.48,0,0,0,5.45-27.12Q627.62,135.15,608.26,118.9Z"/><path d="M148.41,296.19c-5.15,1.29-10.19-3-18-9.68-9.49-8.1-16.11-13.75-16.46-22.85-.31-8,4.33-15.4,9.68-19.36,3.07-2.28,7.73-3.32,17-5.42,10.66-2.4,12-1.46,18.2-3.88,7.19-2.81,8.32-5.27,11.62-4.64,5.35,1,10.18,8.9,10.07,16.26-.14,9.75-8.81,11.21-18.59,27.11C153.79,287,154.52,294.67,148.41,296.19Z"/><path class="cls-5" d="M120.64,329c17.4-5.67,43.89-9.74,75.57.35a30.93,30.93,0,0,1,21.26,25.88l25.8,148.56c1.28,10.8-13.16,21.3-23.33,25.15-10.62,4-26.68,7.84-49.42,7.84-24.38,0-42.09,1.41-52-2.92-8.21-3.59-20.56-12.29-21-21.24l1.79-152.7A31,31,0,0,1,120.64,329Z"/><path class="cls-5" d="M242.48,392.82s-20.59-57.05-43.69-62.53l11.74,80.83Z"/><path class="cls-5" d="M63.61,415.84S71.85,385.19,78.17,368c12.78-34.82,40.12-38.1,40.12-38.1v85.72Z"/><path d="M168.56,345.07c-22.63,0-42.48-9.26-43.43-9.71a1.5,1.5,0,1,1,1.28-2.71c.26.12,26.56,12.38,52.3,8.73a1.5,1.5,0,1,1,.42,3A75.92,75.92,0,0,1,168.56,345.07Z"/><path class="cls-6" d="M159.93,444.63l101.14-.15a5.56,5.56,0,0,0,5.41-4.24l20.29-82.36a5.57,5.57,0,0,0-5.42-6.91l-101.15.15a5.6,5.6,0,0,0-5.41,4.25L154.5,437.72A5.58,5.58,0,0,0,159.93,444.63Z"/><path d="M159.92,446.13a7.06,7.06,0,0,1-6.87-8.77L173.34,355a7.07,7.07,0,0,1,6.86-5.39l101.14-.15h0a7.09,7.09,0,0,1,6.87,8.77L267.94,440.6a7.07,7.07,0,0,1-6.87,5.38l-101.14.15Zm121.44-93.66h0l-101.15.15a4.07,4.07,0,0,0-3.95,3.1L156,438.08a4.06,4.06,0,0,0,4,5.05h0L261.07,443a4.06,4.06,0,0,0,3.95-3.1l20.29-82.36a4.07,4.07,0,0,0-3.95-5Z"/><path class="cls-2" d="M279.32,391.9l-3,8.24L252,388.59S238.66,400.2,271.1,415C284.62,421.15,279.32,391.9,279.32,391.9Z"/><path d="M274.5,417.34a9.85,9.85,0,0,1-4-1c-14-6.38-21.58-13.09-22.57-20a10.32,10.32,0,0,1,3.13-8.94,1.48,1.48,0,0,1,1.62-.22l22.85,10.83,2.4-6.68a1.49,1.49,0,0,1,2.88.24c.37,2,3.38,19.75-2.72,24.5A5.65,5.65,0,0,1,274.5,417.34Zm-22.12-26.92a7.26,7.26,0,0,0-1.5,5.6c.6,4,4.7,10.24,20.85,17.6,2.95,1.35,4.12.44,4.5.15,2.62-2,2.93-9.16,2.4-15.52l-.86,2.39a1.49,1.49,0,0,1-.84.88,1.46,1.46,0,0,1-1.21,0Z"/><path class="cls-2" d="M131,369s-45.43,25.59-54.8,33.62S56.71,416.69,70,434.2s69.51-52.77,69.51-52.77,10.83,1.77,14.59-13c0,0,18.28.63,18.93-5.11l-25.79-4.58a10.23,10.23,0,0,0-9.11,2.94Z"/><path d="M75.79,438.5h-.14a8.37,8.37,0,0,1-6.89-3.4c-13.09-17.29-4.23-24.69,4.34-31.85l2.16-1.82c9.16-7.85,51.22-31.64,54.84-33.69l6.91-7.09a11.69,11.69,0,0,1,10.44-3.36l25.8,4.57a1.5,1.5,0,0,1,1.22,1.65c-.7,6.16-14.36,6.54-19.29,6.47-3.61,12.21-12.21,13-15,13C135,389.37,94.58,438.49,75.79,438.5Zm69.61-78.39a8.71,8.71,0,0,0-6.24,2.63L132.1,370a1.46,1.46,0,0,1-.34.26c-.45.26-45.4,25.61-54.55,33.46L75,405.55c-8.51,7.11-15.23,12.73-3.87,27.74a5.44,5.44,0,0,0,4.54,2.21h.12c18.23,0,62-54.46,62.48-55a1.48,1.48,0,0,1,1.41-.54c.38.05,9.54,1.29,12.89-11.87A1.48,1.48,0,0,1,154.1,367c5.91.2,13.86-.59,16.5-2.51l-23.67-4.2A8.78,8.78,0,0,0,145.4,360.11ZM131,369h0Z"/><path class="cls-2" d="M185,739.44l-15.06,44.95s16.41-1.4,18-1.1,20.75-41,20.75-41Z"/><path d="M169.94,785.89a1.5,1.5,0,0,1-1.42-2L183.58,739a1.49,1.49,0,0,1,1.6-1l23.67,2.86a1.49,1.49,0,0,1,1.13.76,1.46,1.46,0,0,1,.05,1.36c0,.1-4.86,10.45-9.8,20.63-10.49,21.61-11.15,21.48-12.6,21.19-1-.14-9.76.45-17.56,1.12ZM186,741.08,172.09,782.7c4.59-.38,12.53-1,15.3-.94,2.38-3.19,12.45-24.07,19.05-38.21Zm2.09,40.73h0Z"/><path class="cls-7" d="M173.39,774.51s22.65-9.29,26.84,2.37c5.33,14.82,13.66,37.44,13.66,37.44a6.35,6.35,0,0,1-5.47,8.47c-8.28.66-20.63,1.2-26.38-.82-9.08-3.18-24.15-31.92-24.15-31.92l4.65-24.46S170.75,764.43,173.39,774.51Z"/><path d="M195.09,824.89c-5.36,0-10.36-.38-13.55-1.5-9.37-3.29-23.41-29.65-25-32.65a1.55,1.55,0,0,1-.14-1l4.64-24.46a1.5,1.5,0,0,1,1.27-1.2c.09,0,8.65-1.1,12,8.43,4.05-1.45,15.09-4.87,22-1.78a9.47,9.47,0,0,1,5.26,5.61c5.27,14.65,13.57,37.2,13.66,37.43a7.85,7.85,0,0,1-6.76,10.48C204.39,824.62,199.61,824.89,195.09,824.89Zm-35.63-35.08c4.34,8.18,16.22,28.34,23.08,30.75,4.19,1.47,13.34,1.73,25.76.73a4.84,4.84,0,0,0,4.18-6.47c-.08-.21-8.39-22.78-13.66-37.44a6.48,6.48,0,0,0-3.66-3.88c-7.28-3.24-21.06,2.34-21.2,2.4a1.53,1.53,0,0,1-1.24,0,1.48,1.48,0,0,1-.78-1c-1.76-6.72-6.13-7.74-8.15-7.84Z"/><path d="M208.09,814.5H184.82a1.5,1.5,0,1,1,0-3h23.27a1.5,1.5,0,1,1,0,3Z"/><polygon class="cls-2" points="142.29 750.49 147.41 795.69 168 790.05 166.41 749.32 142.29 750.49"/><path d="M147.41,797.19a1.48,1.48,0,0,1-.84-.25,1.52,1.52,0,0,1-.65-1.08l-5.12-45.21a1.49,1.49,0,0,1,1.42-1.66l24.12-1.17a1.51,1.51,0,0,1,1.09.39,1.5,1.5,0,0,1,.48,1L169.5,790a1.5,1.5,0,0,1-1.1,1.5l-20.59,5.65A1.37,1.37,0,0,1,147.41,797.19ZM144,751.91l4.74,41.87,17.75-4.87-1.48-38Z"/><path class="cls-7" d="M145.47,829H178a7.22,7.22,0,0,0,7.15-8.27c-1.09-7.36-4.63-19.56-15.25-36.34a6.32,6.32,0,0,0-5.35-2.95h-9.91a3.34,3.34,0,0,0-3.32,3l-.75,7.15-4.31-5.7a97.14,97.14,0,0,0-8.06,35.77A7.23,7.23,0,0,0,145.47,829Z"/><path d="M178,830.5H145.47a8.74,8.74,0,0,1-8.73-8.88,97.59,97.59,0,0,1,8.2-36.38,1.49,1.49,0,0,1,1.21-.85,1.5,1.5,0,0,1,1.35.58l2,2.67.35-3.37a4.83,4.83,0,0,1,4.81-4.33h9.91a7.8,7.8,0,0,1,6.62,3.64c10.79,17.06,14.37,29.5,15.47,36.93a8.74,8.74,0,0,1-8.64,10Zm-31.38-41.66a97,97,0,0,0-6.92,32.83,5.74,5.74,0,0,0,5.73,5.83H178a5.73,5.73,0,0,0,5.67-6.55c-1.06-7.14-4.52-19.15-15-35.76a4.86,4.86,0,0,0-4.08-2.25h-9.91a1.84,1.84,0,0,0-1.83,1.64l-.75,7.15a1.49,1.49,0,0,1-2.68.75Z"/><path d="M182,822.71H143a1.5,1.5,0,1,1,0-3h39a1.5,1.5,0,0,1,0,3Z"/><path d="M219.61,479a7.54,7.54,0,0,0-4.73-4.35,116,116,0,0,0-96.19,13.83,7.61,7.61,0,0,0-3.48,5.85c-1.54,21.73-7.3,135.3,28.62,269.76l24.2-1.72L173,532.44s35.85,84.29,6.7,218.43l25.17,4.65s36.83-48.43,43.43-122.45C254.1,567.6,226.14,494.9,219.61,479Z"/><path class="cls-2" d="M150,657.77h-.07c-22.84-1-25.42-31.95-25.44-32.27a1.5,1.5,0,0,1,3-.22c0,.28,2.4,28.62,22.58,29.5a1.5,1.5,0,0,1-.06,3Z"/><path class="cls-2" d="M175.07,555a1.5,1.5,0,0,1-1.5-1.45l-.85-28.76a1.51,1.51,0,0,1,.64-1.27l15.08-10.61a1.5,1.5,0,0,1,1.73,2.45l-14.43,10.15.83,28a1.48,1.48,0,0,1-1.45,1.54Z"/><path class="cls-2" d="M138.35,321.79a15.55,15.55,0,0,0,6.92-13.32l-.51-22.13-.44-.42s-8.87.59-10.16-3.92,5-5.39,5-5.39-5.93-12.46,9.39-12.31c4.12,0,5.59-6.78,12.33-8.31,0,0,3.34-.28,6.72,8.47l7.41,11-3.7,2A41.53,41.53,0,0,1,172,291.1a3.6,3.6,0,0,1-2.48,3,23.18,23.18,0,0,1-4.38.95l1.2,14.81A21.86,21.86,0,0,0,175.62,326a110.23,110.23,0,0,0,9.9,6.16,182.5,182.5,0,0,1-58.71-3.44S132.87,325.42,138.35,321.79Z"/><path d="M167.29,334.62a186.26,186.26,0,0,1-40.82-4.42,1.5,1.5,0,0,1-.38-2.78c.06,0,6.07-3.33,11.43-6.88h0a14,14,0,0,0,6.25-12l-.48-21.06c-2.75,0-9.26-.45-10.57-5a4.89,4.89,0,0,1,.52-4.15,7.3,7.3,0,0,1,3.9-2.7c-.63-2.07-1.25-5.63.61-8.55s5.43-4.25,10.8-4.21c1.21,0,2.19-1,3.72-2.71,1.88-2.07,4.21-4.64,8.26-5.56a.76.76,0,0,1,.21,0c.74-.06,4.59.09,8.18,9.26l7.32,10.83a1.51,1.51,0,0,1,.21,1.19,1.48,1.48,0,0,1-.73,1l-2.73,1.5a43.1,43.1,0,0,1,.54,13,5.14,5.14,0,0,1-3.5,4.28,25.13,25.13,0,0,1-3.24.8l1.08,13.41a20.3,20.3,0,0,0,8.62,15,110.6,110.6,0,0,0,9.74,6.07,1.5,1.5,0,0,1-.51,2.8A152.57,152.57,0,0,1,167.29,334.62ZM131,328.1a187.46,187.46,0,0,0,49.76,3c-1.71-1-3.8-2.37-6-3.89A23.31,23.31,0,0,1,164.88,310l-1.19-14.81a1.49,1.49,0,0,1,1.32-1.61,20.69,20.69,0,0,0,4.09-.89,2.1,2.1,0,0,0,1.45-1.76,40.16,40.16,0,0,0-.72-13.15,1.51,1.51,0,0,1,.74-1.64l2.26-1.24-6.49-9.6a1.4,1.4,0,0,1-.15-.3c-2.49-6.42-4.75-7.36-5.23-7.49-3,.75-4.75,2.7-6.47,4.59s-3.35,3.7-5.92,3.7h-.31c-4.09,0-6.78.95-8,2.82-1.85,2.88.19,7.31.21,7.35a1.51,1.51,0,0,1,0,1.36,1.5,1.5,0,0,1-1.11.77c-.69.1-2.84.64-3.59,1.8a1.87,1.87,0,0,0-.15,1.68c.78,2.74,6.63,3,8.62,2.84a1.5,1.5,0,0,1,1.13.41l.43.41a1.48,1.48,0,0,1,.48,1.06l.51,22.14a17,17,0,0,1-7.59,14.6h0C136.3,325,133.23,326.78,131,328.1Z"/><path class="cls-2" d="M165.18,295.07s-9.71.34-13.57-4.95Z"/><path d="M164.79,296.57c-2.07,0-10.57-.32-14.4-5.56a1.5,1.5,0,1,1,2.43-1.77c3.34,4.57,12.22,4.33,12.31,4.33a1.52,1.52,0,0,1,1.55,1.45,1.5,1.5,0,0,1-1.44,1.55Z"/><path class="cls-6" d="M567.14,727.72H339.9a15.15,15.15,0,0,0,0,30.3H567.14a15.15,15.15,0,0,0,0-30.3Z"/><path class="cls-6" d="M416.77,679.46H291.26a14.07,14.07,0,0,0,0,28.14H416.77a14.07,14.07,0,0,0,0-28.14Z"/><circle class="cls-6" cx="459.86" cy="693.53" r="14.07" transform="translate(-320.77 981.75) rotate(-76.72)"/><path class="cls-6" d="M723,495.93H581.36a15.15,15.15,0,1,0,0,30.3H723a15.15,15.15,0,0,0,0-30.3Z"/><path class="cls-6" d="M757.13,447.67H631.62a14.07,14.07,0,0,0,0,28.14H757.13a14.07,14.07,0,0,0,0-28.14Z"/><circle class="cls-6" cx="800.22" cy="461.74" r="14.07" transform="translate(166.98 1134.47) rotate(-76.72)"/><path class="cls-6" d="M200.69,111.63H59.11a15.16,15.16,0,0,0,0,30.31H200.69a15.16,15.16,0,1,0,0-30.31Z"/><path class="cls-6" d="M234.87,63.38H109.37a14.07,14.07,0,1,0,0,28.13h125.5a14.07,14.07,0,1,0,0-28.13Z"/><circle class="cls-6" cx="277.97" cy="77.44" r="14.07" transform="translate(138.73 330.19) rotate(-76.72)"/><path d="M792.39,555.52H636.6a2,2,0,1,1,0-4H792.39a2,2,0,0,1,0,4Z"/><path d="M681.65,584H608.56a2,2,0,0,1,0-4h73.09a2,2,0,0,1,0,4Z"/><path d="M395.78,786H298.4a2,2,0,0,1,0-4h97.38a2,2,0,0,1,0,4Z"/><path d="M125.77,173.92H38.58a2,2,0,0,1,0-4h87.19a2,2,0,1,1,0,4Z"/><path d="M386.57,35.25h-46.5a2,2,0,0,1,0-4h46.5a2,2,0,0,1,0,4Z"/><path d="M474.73,809.35h-142a2,2,0,0,1,0-4h142a2,2,0,0,1,0,4Z"/></g></g></g></svg>