<svg width="1024" height="1024" viewBox="0 0 1024 1024" fill="none" xmlns="http://www.w3.org/2000/svg">
<path fill-rule="evenodd" clip-rule="evenodd" d="M967.693 254.594H56.915V191.782C56.915 178.156 68.0067 167.109 81.6871 167.109H942.921C956.602 167.109 967.693 178.156 967.693 191.782V254.594Z" fill="#253368"/>
<path fill-rule="evenodd" clip-rule="evenodd" d="M120.779 208.184C120.779 216.735 113.862 223.668 105.328 223.668C96.7962 223.668 89.8795 216.735 89.8795 208.184C89.8795 199.633 96.7962 192.7 105.328 192.7C113.862 192.7 120.779 199.633 120.779 208.184Z" fill="#A3B5D6"/>
<path fill-rule="evenodd" clip-rule="evenodd" d="M178.465 208.184C178.465 216.735 171.548 223.668 163.015 223.668C154.483 223.668 147.566 216.735 147.566 208.184C147.566 199.633 154.483 192.7 163.015 192.7C171.548 192.7 178.465 199.633 178.465 208.184Z" fill="#E4EBF7"/>
<path fill-rule="evenodd" clip-rule="evenodd" d="M236.152 208.184C236.152 216.735 229.235 223.668 220.702 223.668C212.17 223.668 205.253 216.735 205.253 208.184C205.253 199.633 212.17 192.7 220.702 192.7C229.235 192.7 236.152 199.633 236.152 208.184Z" fill="#E4EBF7"/>
<path fill-rule="evenodd" clip-rule="evenodd" d="M83.587 856.006C68.3521 856.006 56 844.975 56 831.368V244.704H966.825V831.368C966.825 844.975 954.474 856.006 939.238 856.006H83.587Z" fill="#E4EBF7"/>
<path d="M897.041 297.87H369.63C363.558 297.87 358.637 302.792 358.637 308.863V800.885C358.637 806.956 363.558 811.878 369.63 811.878H897.041C903.112 811.878 908.034 806.956 908.034 800.885V308.863C908.034 302.792 903.112 297.87 897.041 297.87Z" fill="white"/>
<path d="M303.708 293.78H124.249C118.177 293.78 113.256 298.702 113.256 304.773V796.795C113.256 802.866 118.177 807.788 124.249 807.788H303.708C309.78 807.788 314.701 802.866 314.701 796.795V304.773C314.701 298.702 309.78 293.78 303.708 293.78Z" fill="white"/>
<path d="M265.193 498.265H164.487C161.038 498.265 158.242 501.06 158.242 504.509V519.953C158.242 523.401 161.038 526.197 164.487 526.197H265.193C268.642 526.197 271.438 523.401 271.438 519.953V504.509C271.438 501.06 268.642 498.265 265.193 498.265Z" fill="#CCD7EE"/>
<path d="M265.288 551.431H164.392C160.995 551.431 158.242 554.184 158.242 557.58V572.368C158.242 575.764 160.995 578.517 164.392 578.517H265.288C268.684 578.517 271.438 575.764 271.438 572.368V557.58C271.438 554.184 268.684 551.431 265.288 551.431Z" fill="#CCD7EE"/>
<path d="M265.288 604.597H164.392C160.995 604.597 158.242 607.35 158.242 610.746V625.534C158.242 628.93 160.995 631.683 164.392 631.683H265.288C268.684 631.683 271.438 628.93 271.438 625.534V610.746C271.438 607.35 268.684 604.597 265.288 604.597Z" fill="#CCD7EE"/>
<path d="M265.288 657.763H164.392C160.995 657.763 158.242 660.516 158.242 663.912V678.7C158.242 682.096 160.995 684.849 164.392 684.849H265.288C268.684 684.849 271.438 682.096 271.438 678.7V663.912C271.438 660.516 268.684 657.763 265.288 657.763Z" fill="#CCD7EE"/>
<path d="M734.113 674.121H419.131C415.084 674.121 411.803 677.402 411.803 681.45V681.478C411.803 685.526 415.084 688.807 419.131 688.807H734.113C738.16 688.807 741.441 685.526 741.441 681.478V681.45C741.441 677.402 738.16 674.121 734.113 674.121Z" fill="#CCD7EE"/>
<path d="M734.113 751.825H419.131C415.084 751.825 411.803 755.106 411.803 759.154V759.182C411.803 763.23 415.084 766.511 419.131 766.511H734.113C738.16 766.511 741.441 763.23 741.441 759.182V759.154C741.441 755.106 738.16 751.825 734.113 751.825Z" fill="#CCD7EE"/>
<path d="M843.992 710.928H419.131C415.084 710.928 411.803 714.209 411.803 718.256V718.285C411.803 722.333 415.084 725.614 419.131 725.614H843.992C848.04 725.614 851.321 722.333 851.321 718.285V718.256C851.321 714.209 848.04 710.928 843.992 710.928Z" fill="#CCD7EE"/>
<path d="M838.831 346.946H426.46C418.365 346.946 411.803 353.509 411.803 361.604V626.746C411.803 634.841 418.365 641.404 426.46 641.404H838.831C846.926 641.404 853.489 634.841 853.489 626.746V361.604C853.489 353.509 846.926 346.946 838.831 346.946Z" fill="#4E5C93"/>
<path d="M217.521 441.228C245.447 441.228 268.085 418.333 268.085 390.09C268.085 361.847 245.447 338.951 217.521 338.951C189.595 338.951 166.957 361.847 166.957 390.09C166.957 418.333 189.595 441.228 217.521 441.228Z" fill="#E4EBF7"/>
<path d="M217.521 441.228C232.094 441.236 245.925 434.725 255.302 423.441C247.914 409.257 233.365 400.377 217.513 400.377C201.66 400.377 187.112 409.257 179.724 423.441C189.105 434.727 202.942 441.239 217.521 441.228Z" fill="#253368"/>
<path d="M217.789 402.411C228.292 402.411 236.806 393.8 236.806 383.178C236.806 372.556 228.292 363.945 217.789 363.945C207.287 363.945 198.773 372.556 198.773 383.178C198.773 393.8 207.287 402.411 217.789 402.411Z" fill="#253368"/>
<path d="M415.892 451.233H854.892" stroke="white" stroke-width="4.08969" stroke-linecap="round" stroke-linejoin="round"/>
<path d="M514.045 641.404V345.245" stroke="white" stroke-width="4.08969" stroke-linecap="round" stroke-linejoin="round"/>
<path d="M632.646 641.404V345.245" stroke="white" stroke-width="4.08969" stroke-linecap="round" stroke-linejoin="round"/>
<path d="M747.157 641.404V345.245" stroke="white" stroke-width="4.08969" stroke-linecap="round" stroke-linejoin="round"/>
<path d="M415.892 549.386H854.892" stroke="white" stroke-width="4.08969" stroke-linecap="round" stroke-linejoin="round"/>
</svg>
