<svg width="1024" height="1024" viewBox="0 0 1024 1024" fill="none" xmlns="http://www.w3.org/2000/svg">
<path fill-rule="evenodd" clip-rule="evenodd" d="M743.293 167.767H730.811V119.617C730.811 113.994 725.277 109.419 718.472 109.419C711.671 109.419 706.137 113.994 706.137 119.617V167.767H693.654V119.617C693.654 107.111 704.788 96.9365 718.472 96.9365C732.158 96.9365 743.293 107.111 743.293 119.617V167.767Z" fill="#4E5C93"/>
<path fill-rule="evenodd" clip-rule="evenodd" d="M816.504 926.138H207.973C191.419 926.138 178.001 912.719 178.001 896.166V195.571C178.001 179.017 191.419 165.599 207.973 165.599H816.504C833.058 165.599 846.476 179.017 846.476 195.571V896.166C846.476 912.719 833.058 926.138 816.504 926.138Z" fill="#E4EBF7"/>
<path fill-rule="evenodd" clip-rule="evenodd" d="M654.547 661.46H353.073C348.935 661.46 345.58 658.106 345.58 653.967V645.156C345.58 641.018 348.935 637.663 353.073 637.663H654.547C658.686 637.663 662.041 641.018 662.041 645.156V653.967C662.041 658.106 658.686 661.46 654.547 661.46Z" fill="#A3B5D6"/>
<path fill-rule="evenodd" clip-rule="evenodd" d="M316.811 649.562C316.811 660.684 307.795 669.701 296.673 669.701C285.551 669.701 276.534 660.684 276.534 649.562C276.534 638.44 285.551 629.424 296.673 629.424C307.795 629.424 316.811 638.44 316.811 649.562Z" fill="#A3B5D6"/>
<path fill-rule="evenodd" clip-rule="evenodd" d="M753.148 739.532H353.073C348.935 739.532 345.58 736.177 345.58 732.038V723.227C345.58 719.088 348.935 715.734 353.073 715.734H753.148C757.286 715.734 760.641 719.088 760.641 723.227V732.038C760.641 736.177 757.286 739.532 753.148 739.532Z" fill="#A3B5D6"/>
<path fill-rule="evenodd" clip-rule="evenodd" d="M316.811 727.633C316.811 738.755 307.795 747.771 296.673 747.771C285.551 747.771 276.534 738.755 276.534 727.633C276.534 716.511 285.551 707.495 296.673 707.495C307.795 707.495 316.811 716.511 316.811 727.633Z" fill="#A3B5D6"/>
<path fill-rule="evenodd" clip-rule="evenodd" d="M563.206 817.602H353.073C348.935 817.602 345.58 814.248 345.58 810.109V801.298C345.58 797.16 348.935 793.805 353.073 793.805H563.206C567.344 793.805 570.699 797.16 570.699 801.298V810.109C570.699 814.248 567.344 817.602 563.206 817.602Z" fill="#A3B5D6"/>
<path fill-rule="evenodd" clip-rule="evenodd" d="M316.811 805.704C316.811 816.826 307.795 825.843 296.673 825.843C285.551 825.843 276.534 816.826 276.534 805.704C276.534 794.582 285.551 785.565 296.673 785.565C307.795 785.565 316.811 794.582 316.811 805.704Z" fill="#A3B5D6"/>
<path fill-rule="evenodd" clip-rule="evenodd" d="M728.426 221.099C720.227 221.099 713.559 214.874 713.559 207.228V138.87C713.559 135.424 716.352 132.628 719.799 132.628C723.247 132.628 726.04 135.424 726.04 138.87V207.228C726.04 207.78 726.992 208.617 728.426 208.617C729.86 208.617 730.811 207.78 730.811 207.228V167.767C730.811 164.321 733.604 161.526 737.052 161.526C740.5 161.526 743.293 164.321 743.293 167.767V207.228C743.293 214.874 736.623 221.099 728.426 221.099Z" fill="#4E5C93"/>
<path fill-rule="evenodd" clip-rule="evenodd" d="M743.489 237.191H280.988C264.435 237.191 251.015 250.611 251.015 267.164V523.006C251.015 531.159 254.275 538.549 259.558 543.951C283.286 519.751 352.315 455.245 413.929 455.245C489.768 455.245 534.709 520.251 627.402 457.745C673.265 426.817 709.502 411.192 734.409 403.299C753.746 397.17 773.462 411.581 773.462 431.864V267.164C773.462 250.611 760.042 237.191 743.489 237.191Z" fill="white"/>
<path fill-rule="evenodd" clip-rule="evenodd" d="M627.402 457.744C534.709 520.251 489.768 455.245 413.928 455.245C352.315 455.245 283.286 519.752 259.557 543.951C265 549.518 272.588 552.978 280.987 552.978H743.489C759.525 552.978 772.62 540.384 773.422 524.548C773.449 524.037 773.461 523.523 773.461 523.006V431.865C773.461 411.58 753.747 397.17 734.409 403.299C709.502 411.192 673.265 426.817 627.402 457.744Z" fill="#A3B5D6"/>
<path fill-rule="evenodd" clip-rule="evenodd" d="M394.794 347.002C329.058 347.002 275.77 299.569 275.77 241.055C275.77 182.543 329.058 135.108 394.794 135.108C460.53 135.108 513.82 182.543 513.82 241.055C513.82 299.569 460.53 347.002 394.794 347.002Z" fill="#4E5C93"/>
</svg>
