<svg id="Layer_1" data-name="Layer 1" xmlns="http://www.w3.org/2000/svg" xmlns:xlink="http://www.w3.org/1999/xlink" viewBox="0 0 137.36 129.14"><defs><style>.cls-1{fill:url(#Áåçûìÿííûé_ãðàäèåíò_6);}.cls-2{fill:url(#Áåçûìÿííûé_ãðàäèåíò_6-2);}.cls-3{fill:#5d9656;}.cls-4{fill:url(#Áåçûìÿííûé_ãðàäèåíò_2);}.cls-5{fill:url(#Áåçûìÿííûé_ãðàäèåíò_5);}.cls-6{fill:url(#Áåçûìÿííûé_ãðàäèåíò_3);}.cls-7{fill:url(#Áåçûìÿííûé_ãðàäèåíò_4);}.cls-8{fill:url(#Áåçûìÿííûé_ãðàäèåíò_3-2);}.cls-9{fill:url(#Áåçûìÿííûé_ãðàäèåíò_2-2);}</style><linearGradient id="Áåçûìÿííûé_ãðàäèåíò_6" y1="95.78" x2="64.89" y2="95.78" gradientUnits="userSpaceOnUse"><stop offset="0" stop-color="#b5ceb1"/><stop offset="1" stop-color="#a5ef9c"/></linearGradient><linearGradient id="Áåçûìÿííûé_ãðàäèåíò_6-2" x1="77.67" y1="82.62" x2="137.36" y2="82.62" xlink:href="#Áåçûìÿííûé_ãðàäèåíò_6"/><linearGradient id="Áåçûìÿííûé_ãðàäèåíò_2" x1="39.01" y1="58.46" x2="101.35" y2="131.5" gradientUnits="userSpaceOnUse"><stop offset="0" stop-color="#4fe54e"/><stop offset="1" stop-color="#5d9656"/></linearGradient><linearGradient id="Áåçûìÿííûé_ãðàäèåíò_5" x1="61.63" y1="50.79" x2="75.66" y2="50.79" gradientUnits="userSpaceOnUse"><stop offset="0" stop-color="#ff8d8d"/><stop offset="1" stop-color="#fff"/></linearGradient><linearGradient id="Áåçûìÿííûé_ãðàäèåíò_3" x1="57.13" y1="37.66" x2="76.63" y2="37.66" gradientUnits="userSpaceOnUse"><stop offset="0" stop-color="#f99"/><stop offset="1" stop-color="#ff7474"/></linearGradient><linearGradient id="Áåçûìÿííûé_ãðàäèåíò_4" x1="55.99" y1="26.86" x2="82.28" y2="26.86" gradientUnits="userSpaceOnUse"><stop offset="0" stop-color="#b57863"/><stop offset="1" stop-color="#aa634b"/></linearGradient><linearGradient id="Áåçûìÿííûé_ãðàäèåíò_3-2" x1="65.27" y1="58.8" x2="73" y2="58.8" xlink:href="#Áåçûìÿííûé_ãðàäèåíò_3"/><linearGradient id="Áåçûìÿííûé_ãðàäèåíò_2-2" x1="42.44" y1="72.74" x2="75.38" y2="103.38" xlink:href="#Áåçûìÿííûé_ãðàäèåíò_2"/></defs><path class="cls-1" d="M37.84,127s-19.69,4.36-25.51-6.5,5.4-5.44,12.76-5.06,6.91-6.83-5.6-13.29S-6.89,79.35,3.84,71.82s18.72,19,23.84,18.29-10-21.94,0-25.78,12.93,11.1,15.78,21.79,14.47,12.15,19.83,21.69S60.59,130.08,37.84,127Z"/><path class="cls-2" d="M87.63,127.36c2.19.43,20,.94,29.7-4.34s16.44-22.89,6.32-19.1c-15,5.62-29.79.14-15.54-10.45s38.77-39.4,25.38-48.61c-10.89-7.5-20.17-5.71-22.23,7s-.47,22.09-6.32,25.16-11-11.24-5.5-19.75-.88-24.17-8.92-18.47-6.89,12.5-8.24,30.39S69.94,123.82,87.63,127.36Z"/><path class="cls-3" d="M96.53,25.63A2.15,2.15,0,0,1,95,24.94a2.19,2.19,0,0,1-.68-1.57c0-1,.93-2.25,2.8-3.72l5.24-3.94c1.88-1.62,2.82-3.11,2.82-4.45a6.27,6.27,0,0,0-2.38-4.69,7.19,7.19,0,0,0-4.89-2.08,6.85,6.85,0,0,0-3.5,1.41,8.27,8.27,0,0,1-2.63,1.42,2,2,0,0,1-1.55-.73A2.36,2.36,0,0,1,89.54,5q0-1.72,3.35-3.44a11.61,11.61,0,0,1,5-1.53,11.33,11.33,0,0,1,8,3.44,10.58,10.58,0,0,1,3.59,7.82,8.63,8.63,0,0,1-2.06,5.67,25,25,0,0,1-4.56,3.86,29.73,29.73,0,0,0-4.66,3.94A2.17,2.17,0,0,1,96.53,25.63ZM95.32,34a2.66,2.66,0,0,1-1.74-.64,2,2,0,0,1-.78-1.57,4.37,4.37,0,0,1,.72-2.45,2.43,2.43,0,0,1,2.09-1.23c1.4,0,2.1.86,2.1,2.59a4.21,4.21,0,0,1-.57,2.17A2.09,2.09,0,0,1,95.32,34Z"/><path class="cls-4" d="M61.63,52.41S52.21,53.7,47.56,55.9,39,61.45,37.23,69.19s-1,26.72,4.91,36.92c0,0-1.55,7.87-1.16,13.81s2.71,9.29,9.81,9.16,29.31,0,35-.64c7-.83,10.64-.57,12.06-.83s1.85-10.83,1.59-15.47-.14-17,0-19.62c.17-4.65.37-28.52-7.41-35.08a27.75,27.75,0,0,0-16.3-6.31Z"/><path class="cls-5" d="M64,47.76a5.94,5.94,0,0,1-.34,2.84,3,3,0,0,1-2,1.81s1.89,2.32,7.14,2.07,6.89-3.35,6.89-3.35S73,51.13,73,47.08Z"/><path class="cls-6" d="M76.43,29.61c-.69-3.53-9.29-3.79-9.29-3.79-2.93,0-7.66,2.24-7.92,7.31,0,.71-.06,1.44-.06,2.15,0-.08-1.9-.78-2,1.47-.3,6.15,2.56,5.75,2.56,5.75.26,1.31,3.64,7.24,8.37,7s6.37-3.09,7.06-4.81S77.12,33.13,76.43,29.61Z"/><path class="cls-7" d="M57.15,36.75s-1.63-4.82-1-8.61,2.32-5.07,2.93-5.59.34-3.7,3.87-4.73,4.09.66,5.72.84S70.21,17,73.83,17c2.87,0,4.36,1.68,4.19,3.48s1,2.86,2.91,3.62c2.51,1,.84,6.32.38,7.35a4.1,4.1,0,0,1-4.71,2.38S75.52,28,70.66,27.69c-4.13-.26-3.55,2.65-7.16,3.68s-4,2.52-4,4.07C59.55,35.44,57.61,34.17,57.15,36.75Z"/><path class="cls-3" d="M88.71,88.18c1.29-9.73-1.13-15.74-1.13-15.74C84.24,80.29,84.11,93,84.66,95.78s2.45,7.84,1.42,14.47c-1.54,10-15,8.64-19.92,9.42-9.84,1.57-10.57,6.82-13.68,9.38,8.42-.23,26.71.24,32,0,4.75-.18,6.18-1.29,7.14-4.69C92.69,118.19,88.16,92.28,88.71,88.18Z"/><path class="cls-8" d="M65.73,64.18s-1-3.27,0-5.55A28.46,28.46,0,0,1,69.08,53c1.42-1.94,2.67-1.65,3.53.83s0,3.77,0,6.47-1.06,5.3-1.71,5.44S66.89,65.89,65.73,64.18Z"/><path class="cls-9" d="M65.73,64.33s1.2,1.77,5.42,1.42c0,0-1.81,36.49-15.4,40.74-10.89,3.41-13.61-.38-13.61-.38S35.19,90.11,65.73,64.33Z"/></svg>