<?xml version="1.0" encoding="UTF-8"?><svg id="Layer_1" xmlns="http://www.w3.org/2000/svg" xmlns:xlink="http://www.w3.org/1999/xlink" viewBox="0 0 1000 840"><defs><style>.cls-1,.cls-2{fill:#4e5c93;}.cls-3,.cls-4,.cls-5,.cls-6,.cls-7,.cls-2,.cls-8,.cls-9,.cls-10,.cls-11,.cls-12{fill-rule:evenodd;}.cls-3,.cls-13{fill:#ff7946;}.cls-4{fill:#ffc2bd;}.cls-14{fill:#fff;}.cls-15,.cls-7{fill:#e4ebf7;}.cls-16{fill:#f24e1e;}.cls-17{fill:#f5f5f5;}.cls-18{fill:#a259ff;}.cls-19,.cls-5{fill:#253368;}.cls-20,.cls-6{fill:#ccd7ee;}.cls-21{fill:#a3b5d6;}.cls-22{fill:#ff7262;}.cls-23{fill:#1abcfe;}.cls-24{fill:#597ef7;}.cls-25{clip-path:url(#clippath-1);}.cls-26{fill:#146262;}.cls-8{fill:#ffc999;}.cls-27{fill:#3d60e0;}.cls-28{fill:#50548b;}.cls-29{fill:#efadab;}.cls-30{clip-path:url(#clippath);}.cls-31{fill:#ffa940;}.cls-9{fill:#7cb305;}.cls-32{fill:none;}.cls-10{fill:#138585;}.cls-11,.cls-33{fill:#faad14;}.cls-34{fill:#ffe7ba;}.cls-35{fill:#fe9921;}.cls-36{fill:#0acf83;}.cls-37{fill:#f5222d;}.cls-12{fill:#9e7d6c;}</style><clipPath id="clippath"><rect class="cls-32" x="525.55" y="440.57" width="455" height="455.8"/></clipPath><clipPath id="clippath-1"><polygon class="cls-32" points="785 453.92 981 567.28 867.84 763.63 671.84 650.27 785 453.92"/></clipPath></defs><path class="cls-5" d="M938.57,63.19H505.62v-29.28c0-6.35,5.27-11.5,11.78-11.5h409.4c6.5,0,11.78,5.15,11.78,11.5v29.28Z"/><path class="cls-3" d="M535.98,41.55c.14,9.37-14.83,9.37-14.69,0-.14-9.37,14.83-9.37,14.69,0Z"/><path class="cls-11" d="M563.4,41.55c.14,9.37-14.83,9.37-14.69,0-.14-9.37,14.83-9.37,14.69,0Z"/><path class="cls-9" d="M590.82,41.55c.14,9.37-14.83,9.37-14.69,0-.14-9.37,14.83-9.37,14.69,0Z"/><path class="cls-7" d="M518.32,354.92c-7.25,0-13.13-5.3-13.13-11.83V61.48h433.53V343.09c0,6.53-5.88,11.83-13.13,11.83h-407.27Z"/><path class="cls-14" d="M908.08,83h-368.35c-2.9,0-5.25,2.35-5.25,5.26v235.97c0,2.9,2.35,5.26,5.25,5.26h368.35c2.9,0,5.25-2.35,5.25-5.26V88.26c0-2.9-2.35-5.26-5.25-5.26Z"/><path class="cls-33" d="M860.6,135.82h-187.47c-2.16,0-3.9,1.75-3.9,3.91v19.56c0,2.16,1.75,3.91,3.9,3.91h187.47c2.16,0,3.91-1.75,3.91-3.91v-19.56c0-2.16-1.75-3.91-3.91-3.91Z"/><path class="cls-13" d="M860.6,231.68h-70.3c-2.16,0-3.9,1.75-3.9,3.91v19.56c0,2.16,1.75,3.91,3.9,3.91h70.3c2.16,0,3.91-1.75,3.91-3.91v-19.56c0-2.16-1.75-3.91-3.91-3.91Z"/><path class="cls-24" d="M860.6,188.64h-70.3c-2.16,0-3.9,1.75-3.9,3.91v19.56c0,2.16,1.75,3.91,3.9,3.91h70.3c2.16,0,3.91-1.75,3.91-3.91v-19.56c0-2.16-1.75-3.91-3.91-3.91Z"/><path class="cls-5" d="M620.91,137.77h20.48l45.42,119.33h-19.32l-11.07-30.75h-50.7l-11.07,30.75h-19.16l45.42-119.33Zm-10.27,74.34h39.06l-19.12-52.82h-.65l-19.28,52.82Zm120.45-27.39c17.46,.02,26.02,8.78,26.02,25.97,0,0,0,42.64,0,42.64h-11.86v-9.43c-10.27,16.49-44.96,15.46-44.77-7.63-.33-23.07,25.79-24.04,43.93-23.78,.78-9.88-3.41-17.01-14.16-16.67-7.72-.01-13.6,2.98-15.13,10.6l-12.71-1.16c2.83-14.92,13.66-20.6,28.68-20.55Zm16.25,39.13l-13.41,.38c-14.25-.52-23.06,9.62-14.76,18.64,12.33,8.21,30.98-4.37,28.17-19.02Z"/><path class="cls-19" d="M865.25,284.49c1.22-.02,1.3,1.98,0,1.96-1.04-.98-167.87,1.88-167.71-.98-.23-2.88,166.74,.02,167.71-.98Z"/><path class="cls-19" d="M592.52,291.39v-7.04h2.28v-1.05h-2.28c-.25-2.12,.62-2.09,2.39-2v-1.08c-2.4-.24-3.99,.34-3.64,3.08h-2.03v1.05h2.03v7.04h1.25Zm7.04,.22c5.18,.2,5.19-8.74,0-8.53-5.19-.21-5.18,8.72,0,8.53Zm0-1.05c-3.54,.09-3.54-6.53,0-6.43,3.55-.1,3.55,6.52,0,6.43Zm6.8,.83c.25-1.9-1.04-7.27,2.17-7.25,3.29-.3,1.81,5.39,2.12,7.25h1.25v-4.98c.35-3.46-3.89-4.47-5.55-1.92v-1.19h-1.25v8.09h1.25Zm11.44,0v-1.05c-.68-.03-1.93,.24-1.8-.85,0,0,0-5.15,0-5.15h2v-1.05h-2v-2.61l-1.23,.52v2.1h-1.62v1.05h1.62c.43,2.73-1.64,7.81,3.03,7.04Zm10.15,.22c1.22,0,2.12-.52,2.69-1.55v1.33h1.17v-11.39h-1.25v4.79c-4.87-6.55-9.86,6.67-2.61,6.82Zm.16-1.03c-3.47,.14-3.46-6.66,.05-6.46,3.28-.02,3.33,6.56-.05,6.46Zm9.01,1.03c1.85,.01,3.26-1.06,3.67-2.82h-1.25c-.89,2.92-5.18,1.97-4.97-1.1h6.37c.42-3.91-4.07-6.25-6.66-3.35-2.11,2.45-.88,7.46,2.83,7.26Zm2.53-4.88h-5.05c.03-3.32,5.01-3.56,5.05,0Zm5.77,4.88c3.04,.26,4.62-2.51,2.45-4.16-.54-.44-3.1-.95-3.75-1.28-2.61-1.95,3.22-3.12,3.25-.56h1.22c.06-4.4-9.42-2.34-5.52,1.3,9.64,2.13,.92,6.03,.09,1.91h-1.22c.19,1.86,1.34,2.8,3.47,2.8Zm5.92-9.5c1.24,.03,1.24-1.91,0-1.86-1.22-.06-1.23,1.9,0,1.86Zm.62,9.28v-8.09h-1.25v8.09h1.25Zm5.95,3.32c5.55,.5,3.22-8.26,3.69-11.41h-1.25v1.39c-1.84-3.31-6.75-1.09-6.36,2.47-.39,3.56,4.54,5.72,6.36,2.41v1.42c.45,3.02-4.22,3.76-4.77,1.08h-1.25c.34,1.93,1.57,2.62,3.58,2.63Zm-.11-4.55c-3.46,.16-3.34-6.18,.02-6.04,3.39-.13,3.43,6.19-.02,6.04Zm6.98,1.24c.25-1.9-1.04-7.27,2.17-7.25,3.29-.3,1.81,5.39,2.13,7.25h1.25v-4.98c.35-3.46-3.89-4.47-5.55-1.92v-1.19h-1.25v8.09h1.25Z"/><g class="cls-30"><g><path class="cls-15" d="M655.34,625.81l-50.47,37.49h251.93l-50.74-37.49h-150.72Z"/><path class="cls-21" d="M806.06,663.26l50.74,.04-50.74-37.49v37.46Z"/><path class="cls-31" d="M647.98,559.17s43.01,246.65,43.01,246.65c2.38,14.4,22.31,5.82,31.15,5.09,5.64-.99,9.41-6.37,8.42-12.02,0,0-43.01-246.65-43.01-246.65l-39.58,6.93Z"/><path class="cls-34" d="M653.78,517.33l-5.8,41.87,39.57-6.93-18.52-37.61-15.25,2.67Z"/><path class="cls-19" d="M658.32,498.97c-.35,.06-.62,.34-.69,.68l-3.37,17.62,14.47-2.53c-.38-.18-9.69-16.76-10.41-15.77Z"/><path class="cls-35" d="M659.92,557.23l44.77,256.74,16.16-2.83-44.77-256.74-16.16,2.84Z"/><path class="cls-19" d="M714.99,794.53c.43,9.37-5.28,30.59,9.91,31.02,15.18,.65,10.98-20.97,12.04-30.26,0,0-21.95-.77-21.95-.77Z"/><path class="cls-28" d="M735.09,500.54l-1.21,6.95c-.67,3.57,4.94,4.54,5.51,.96,0,0,1.21-6.95,1.21-6.95,.67-3.56-4.92-4.57-5.51-.96Z"/><path class="cls-24" d="M673.87,776.46c-1.9,11.92,11.51,12.69,19.79,14,5.64,.98,11.01-2.8,11.99-8.45l41.52-238.81-31.79-5.55-41.52,238.81Z"/><path class="cls-15" d="M732.27,507.43l-16.88,30.22,31.81,5.55-6.2-34.28c-.12-2.09-5.64-1.83-6.91-2.36-.71-.12-1.45,.22-1.81,.86Z"/><path class="cls-13" d="M599.74,532.9l-10.94,7.62c-1.25,.87-1.71,2.5-1.11,3.9l6.63,15.21c.7,1.62,2.59,2.36,4.21,1.65l11.97-5.23c1.62-.71,2.36-2.6,1.66-4.22l-7.66-17.59c-.74-1.81-3.18-2.5-4.76-1.34Z"/><path class="cls-13" d="M597.9,602.78l82.9,190.27,44.85-19.61-82.9-190.27-44.85,19.61Z"/><path class="cls-19" d="M597.9,602.78l7.26,16.65,44.85-19.6-7.26-16.66-44.85,19.61Z"/><path class="cls-15" d="M592.32,556.91l1.11,35.61,4.46,10.25,44.85-19.61-4.43-10.17-26.73-24.51-19.26,8.42Z"/><path class="cls-17" d="M593.42,592.71l4.47,10.25,44.84-19.61-4.47-10.24-44.84,19.61Z"/><path class="cls-14" d="M652.89,637.64c-.7,.38-25.66,.95-25.23,2.53-.79,1.26,.32,3.29,1.85,3.14,0,0,8.01-.59,8.01-.59,2.13-.4,3.03,4.6,3.85,5.78,2.39,10.12,22.74,11.57,17-1.3-1.05-1.18-3.12-10.09-5.49-9.55Zm-5.03,13.99c-1.56-1.02-4.88-6.52-4.03-8.6,.58-1.48,5.69-.96,6.85-1.28,.77-.05,1.5,.38,1.81,1.1,.68,1.87,3.35,6.46,2.44,8.16-.82,1.97-5.48,1.93-7.07,.63Z"/><path class="cls-14" d="M662.15,658.98l-23.53,2.25c-1.2,.08-2.01,1.46-1.51,2.55,0,0,6.24,14.31,6.24,14.31,.92,2.18,4.34,.7,3.35-1.47,0,0-4.05-9.31-4.05-9.31-1.22-3.3,4.26-2.6,5.95-2.95,2.31-.75,5.21,9.88,6.17,11,.92,2.19,4.33,.71,3.36-1.47-.22-1.82-6.08-9.77-1.88-10.3,1.37,.08,4.95-1.24,5.6,.7,.98,1.13,4.1,12.43,6.47,11.6,1.2-.11,1.98-1.5,1.45-2.58-1-1.08-5.28-15.27-7.62-14.35Z"/><path class="cls-24" d="M605.53,709.06v120.77c0,5.21,4.22,9.44,9.42,9.44h232.31c5.2,0,9.42-4.23,9.42-9.44v-120.77h-251.15Z"/><path class="cls-27" d="M605.53,681.52v70.37l251.15-20.07v-50.3h-251.15Z"/><g class="cls-25"><g><path class="cls-36" d="M749.34,678.74c32.68,16.92,47.48-18.01,60.49-41.2l-27.56-15.94c-36.59-20.32-68.78,35.57-32.93,57.14Z"/><path class="cls-16" d="M804.28,519.66c20.32-31.8,48.44-10.74,71.64,3.21l-33.04,57.33c-23.69-13.15-55.92-27.05-38.6-60.54Z"/><path class="cls-22" d="M875.92,522.87c23.69,13.16,55.92,27.04,38.6,60.55-20.3,31.78-48.45,10.75-71.64-3.21l33.04-57.33Z"/><path class="cls-23" d="M881.59,640.56c-22.36,37.31-76.2,6.17-55.12-31.88,22.36-37.31,76.19-6.17,55.12,31.88Z"/><path class="cls-18" d="M771.35,576.8c20.32-31.8,48.44-10.74,71.64,3.21l-33.04,57.33c-23.69-13.15-55.92-27.05-38.6-60.54Z"/></g></g><path class="cls-15" d="M604.89,663.3l-24.5,54c-2.03,3.99,1.16,9.14,5.65,9.02,0,0,289.22,0,289.22,0,2.2,0,4.25-1.16,5.39-3.06,5.48-1.66-23.84-56.9-23.84-59.97h-251.92Z"/></g></g><path class="cls-24" d="M793.87,393.17c-23.99-3.6-27.33,34.82-3.62,35.69,23.99,3.6,27.33-34.82,3.62-35.69Z"/><path class="cls-24" d="M787.74,478.14c.06,13.51,20.57,13.51,20.62,0-.06-13.51-20.57-13.51-20.62,0Z"/><path class="cls-24" d="M710.93,465.43c-.66-14.31,21.11-14.95,21.25-.62,.66,14.31-21.11,14.95-21.25,.62Z"/><path class="cls-8" d="M394.1,837.16c35.63,.83,63.58,30.88,61.89,66.53l-18.12,383.29c-1.4,29.52-26.06,52.52-55.57,51.83-29.5-.7-53.06-24.84-53.06-54.4l-.1-383.71c0-35.69,29.33-64.38,64.95-63.54Z"/><path class="cls-12" d="M492.1,243.57s46.03-14.4,66.45,33.49c48.32,9.31,43.84,61.19,43.84,61.19,0,0,29.19,35.51-13.16,62.88,2.77,40.74-43.96,40.74-43.96,40.74,0,0-5.98,32.77-42.64,25.55-32.71,35.08-104.05,40.52-134.73,8.96-43.65,45-137.13,13.59-131.71-21.97-58.45,5.76-96.34-51.23-70.76-108.9-32.66-37.14-6.85-66.28-6.85-66.28,0,0-23.36-93.58,40.2-116.87,25.55-56.5,105-27.11,105-27.11,0,0,46.69-17.77,70.71,21.43,55.29-.34,57.51,29.78,65.64,54.05,48.73-5,51.97,32.85,51.97,32.85Z"/><path class="cls-4" d="M334.96,221.22c-36.77,12.71-52.85-14.12-52.85-14.12,0,0-22.07-37.88-22.1-12.44-.02,13.51-23.16-.71-30.26,14.83-4.78,10.46,12.9,20.12-3.52,48.6-9.51,16.5,39.08,20.66,14.54,52.19,0,0,25.75,29.57-7.75,45.92,1.38,33.78-.43,79.09,47.03,74.82,47.62-9.67,28.5-59.66,22.77-92.08,54.67-8.76,45.32-84.43,32.15-117.72Z"/><path class="cls-4" d="M650.59,398.36l27.74-98.18s45.43-79.66,61.84-74.76c15.24,6.68-19.21,29.48-26.04,51.99,14.51-1.04,7.92,20.57,7.92,20.57,0,0,11.55-.42,8.44,17.18,17.77,12.6-16.7,69.51-43.28,115.28,0,0-39.6,30.62-36.63-32.08Z"/><path class="cls-4" d="M656.75,365.19s4.14-33.67,7.23-50.82c3.1-17.15-4.14-48.13,8.35-39.93,8.4,5.52,6.94,23.95,6.63,37.54-.3,13.59,21.62,45.79,5.28,68.09-11.04,15.07-28.43,17.04-27.5-14.88Z"/><path class="cls-4" d="M682.22,391.68c-11.37-7.57-26.68-4.84-34.75,6.19l-155.74,213.04c-13.67,20.05-8.34,47.42,11.86,60.86,20.37,13.55,47.89,7.64,60.91-13.09l126.07-233.53c6.28-11.64,2.67-26.15-8.34-33.47Z"/><path class="cls-37" d="M271.61,272.45c2.38-3.82,13.1,8.38,28.44,3.46,3.06-.85,4.34,4,1.24,4.76-5.97,3-32.54-.4-29.68-8.22Z"/><path class="cls-19" d="M269.94,233.5c1.29-.21,2.5,.67,2.71,1.97,3.08,21.55-26.61,26.3-30.38,4.86-.52-3.03,4.23-3.79,4.67-.75,2.54,15.26,23.38,11.91,21.04-3.37-.21-1.29,.67-2.5,1.96-2.71Z"/><path class="cls-19" d="M329.11,225.67c1.22-.2,2.37,.64,2.57,1.86,3.34,21.24-24.13,25.63-27.57,4.42-.5-2.87,4.01-3.6,4.43-.71,2.36,15.34,21.25,12.31,18.71-3-.2-1.22,.64-2.38,1.86-2.57Z"/><path class="cls-19" d="M245.3,209.65c8.98-3.45,18.66-3.23,27.36-.66,2.91,.94,1.38,5.51-1.52,4.48-1-.32-1.74-.5-3.2-.81-6.81-1.38-14.13-1.24-20.93,1.4-3.95,.34-8.88,7.85-12.09,5.07-2.38-4.73,7.29-7.72,10.38-9.48Z"/><path class="cls-4" d="M554.73,668.06c20.09-14.02,25.02-41.7,11.01-61.81l-136.46-196c-14.01-20.11-41.64-25.05-61.73-11.03-20.08,14.02-25.01,41.7-11.01,61.81l136.46,196c14,20.12,41.63,25.05,61.72,11.03Z"/><path class="cls-1" d="M354.7,460.61c.64-.45,1.52-.27,1.95,.35,0,0,57.04,81.92,57.04,81.92,.61,1.22,79.49-60.87,72.66-48.47,0,0-72.19,51.57-72.19,51.57-.64,.46-1.53,.29-1.96-.34,.28-1.99-60.91-82.9-57.5-85.04Z"/><path class="cls-10" d="M414.4,544.11l-57.85-83.09c-13.95-20.03-8.99-47.85,11.01-61.81,20-13.97,47.78-9,61.72,11.03l57.3,82.3-72.18,51.57Z"/><path class="cls-10" d="M394.94,471.2c28.21,53.56,43.45,106.13,7.97,146.21,0,0-.25-11.2-2.65,87.52-113.48,19.94-185.84-1.26-185.84-1.26,0,0,2.21-26.17,2.21-26.17,0,0-18.43-61.86-18.43-61.86-17.15-34.09-59.51-115.61-46.92-178.15,.92-10.15-3.89-31.33,6.16-32.91,34.16-5.38,57.86-8.28,57.86-8.28l4.16-12.79c.56-3.87,3.87-6.75,7.77-6.75h87.82c3.58,0,6.71,2.43,7.6,5.91l6.16,13.63,46.28,1.65c18.26,11.3,16.78,54.03,19.85,73.24Z"/><path class="cls-20" d="M214.19,399.8c.8-.64,1.96-.48,2.58,.3,0,0,79.29,100.12,79.29,100.12,1.64,.25,32.18-110.79,34.26-92.24,0,0-31.83,96.63-31.83,96.63-.43,1.3-2.04,1.66-2.99,.78-.01-2.73-85.4-102.38-81.3-105.59Z"/><path class="cls-6" d="M319.47,511.8c19.28,33.83-26.56,61.03-46.93,27.87-19.28-33.83,26.55-61.03,46.93-27.87Z"/><path class="cls-7" d="M322.46,511.73c19.28,33.83-26.56,61.03-46.94,27.86-19.27-33.83,26.56-61.02,46.94-27.86Z"/><path class="cls-11" d="M317.17,514.18c14.97,26.26-20.63,47.38-36.44,21.64-14.97-26.26,20.62-47.38,36.44-21.64Z"/><path class="cls-26" d="M151.31,436.09c2.45-.15,.92,5.81,1.24,7.02-.3,19.76-.47,48.63,2.22,66,4.06,20.25,23.41,57.59,34.75,79.54,.05,.52,30.03,88.94,29.83,89.44,0,0-2.53,25.79-2.53,25.79,57.91,10.35,117.12,11.06,182.29-.48,.81-24,1.69-58.8,3.03-83.57,31.66-59.47,24.98-88.61-8.42-143.98,0,0-.17-.62-.17-.62,0,0-.89-23.48-.89-23.48-.03-.77,.57-1.42,1.35-1.45,.78-.03,1.43,.59,1.45,1.35,0,0,.87,23.14,.87,23.14,32.56,54.35,40.56,83.84,10.06,142.98,0,0-1.64,3.13-1.64,3.13,0,0-2.29,64.24-2.29,64.24-.92,10.18,.74,19.81-1.7,20.82-66.97,11.89-126.39,11.22-185.76,.41-2.93,1.81,2.2-28.26,1.53-28.26,0,0-29.57-88.36-29.57-88.36-11.56-22.02-30.84-59.77-34.95-80.18-2.59-16.96-2.66-47.5-2.23-67.54,.28-1.02-.76-6.15,1.54-5.94Z"/><path class="cls-4" d="M67.74,701.11c-23.17-8.22-35.11-34.11-26.16-57.06,0,0,83.23-214.68,83.23-214.68,8.73-22.51,34.02-33.67,56.5-24.93,23.17,8.22,35.11,34.11,26.16,57.07,0,0-83.22,214.67-83.22,214.67-8.73,22.51-34.02,33.67-56.5,24.93Z"/><path class="cls-2" d="M216.19,724.6c-39.87,3.13-157.45,252.33-193.2,342.56,4.76,18.17,56.78,53.34,56.78,53.34,0,0-3.11,14.47-5.03,23.15,34.02,28.03,99.83,43.25,99.83,43.25l.15,12.43c105.21,48.52,246.09,2.02,246.09,2.02,0,0,2.63-2.69,.74-12.45,47.77-.55,150.05-61.24,150.05-61.24l-14.54-30.03,42.07-43.12c-10.99-10.3-152.45-310.31-208.06-334.03,0,0-104.14-1.44-174.88,4.11Z"/><path class="cls-2" d="M398.69,724.6l-3-22.82s-89.99,.54-178.24-3.89c-2.23,10.13-4.79,28.37-4.79,28.37,7.42-6.1,87.59,11.72,186.04-1.65Z"/><path class="cls-19" d="M395.4,769.11c3.85-.74,176.79,355.54,175.5,358.2-5.42,4.09-9.96,7.14-16.47,11.29-38.52,22.72-88.18,47.93-133.73,51.55-.2-.97,.42-1.9,1.38-2.1,30.04-6.22,58.48-15.85,84.99-27.97,23.3-10.82,41.69-21.12,60.49-34.71,.74-2.51-176.92-354.24-172.17-356.27Z"/><path class="cls-19" d="M261.37,731.31c1.12,.08,1.93,1.11,1.66,2.2,0,0-6.79,34.32-6.79,34.32-27.15,138.75-57.57,296.97-79.52,432.07,78.31,25.93,165.47,22,243.81,.2,1.31-2.24-82.71-397.91-77.62-398.66,5.04-1.49,79.3,398.21,81.42,399.54,.37,2.77-4.03,2.5-5.7,3.38-78.68,21.23-165.99,24.87-244.46-1.58-2.96,.89,1.4-14.94,1.02-15.57,25.09-142.76,53.29-311.75,86.18-455.91Z"/><path class="cls-19" d="M303.89,738.15c3.47,1.17,22.16,333.1,18.85,334.68-3.48-1.17-22.16-333.1-18.85-334.68Z"/><path class="cls-19" d="M351.27,729.68c.94-.3,1.94,.25,2.22,1.17-1.13,2.25,73.84,226.71,68.84,227.91-.95,.3-1.94-.25-2.22-1.17,1.12-2.21-73.82-226.75-68.83-227.91Z"/><path class="cls-19" d="M222.12,724.48c58.28,2.5,110.34,3.73,164.22,1.78,1.33,.06,2.14-.46,3.33-.23,.79,.1,.61,.19,1.07,2.46-.92,1.43-2.68,1.14-4.18,1.31-13.98,.69-25.82,.78-42.03,.9-37.27,.18-78.86-.63-122.57-2.67-2.23-.07-2.18-3.69,.17-3.55Z"/><path class="cls-10" d="M174.23,547.23l36.61-94.43c8.82-22.76-2.55-48.62-25.28-57.45-22.73-8.84-48.55,2.55-57.38,25.32l-36.26,93.53,82.31,33.03Z"/><path class="cls-26" d="M314.71,405.89c1.8-.03,1.82,2.84,0,2.8-2.46-1.05-75.57,2.18-76.51-1.4,0-.78,.64-1.41,1.4-1.4,0,0,75.11,0,75.11,0Z"/><path class="cls-26" d="M210.73,452.76c11.01-10.92-36.65,98.07-34,95.44-.28,.73-1.12,1.08-1.83,.79,0,0-82.31-33.03-82.31-33.03-10.77-10.92,84.58,32.42,82.03,29.9l36.1-93.1Z"/><path class="cls-2" d="M298.36,707.84l72.61-198.31c1.2-3.27,4.35-5.41,7.83-5.3l180.03,5.15c5.59,.16,9.34,5.82,7.3,11.04l-75.21,192.84c-1.21,3.1-4.19,5.15-7.52,5.15l-177.44,.31c-5.63,0-9.54-5.6-7.61-10.88Z"/><path class="cls-5" d="M307.94,705.78c4.8-3.21,68.65-210.72,80.82-201.28,0,0,182.26,5.22,182.26,5.22,3.91,.11,6.53,4.07,5.1,7.72,0,0-76.25,195.51-76.25,195.51-1.34,3.44-4.64,5.7-8.32,5.71,0,0-174.41,.3-174.41,.3-6.81,.01-11.56-6.77-9.21-13.18Z"/><path class="cls-2" d="M403.44,524.19c4.67,5.43-6.62,14.76-11.05,9.14-4.68-5.43,6.62-14.76,11.05-9.14Z"/><path class="cls-8" d="M400.93,526.46c2.43,2.82-3.44,7.66-5.74,4.75-2.43-2.82,3.43-7.67,5.74-4.75Z"/><path class="cls-4" d="M366.99,704.86c-1.93,13.54-14.16,23.16-27.75,21.84l-262.42-25.47c-24.04-3.14-40.88-25.35-37.45-49.38,3.46-24.25,26.19-40.87,50.3-36.8l257.92,61.29c12.86,3.06,21.26,15.42,19.39,28.52Z"/><path class="cls-4" d="M367.04,736.79c-68.6-3.95-113.27-61.57-1.9-85.44,18.46-3.08,54.17-5.37,57.09,4.13,3.82,12.38-36.74,12.62-36.82,22.04-.07,9.67,8.31,10.24,26.94,17.83,11.65,4.74,18.91,1.8,28.02,7.7,17.81,11.54-3.14,45.86-73.34,33.74Z"/><path class="cls-29" d="M295.41,229.9c2.82,.06,2.01,4.96,3.68,7.22,2.09,4.68,5.57,9.81,10.79,15.23,.69,.72,.64,1.86-.11,2.52-5.09,4.42-9.67,8.3-14.54,11.76-1.85,1.28-3.83-1.66-1.93-2.89,4.33-3.07,8.35-6.45,12.83-10.31-3.94-3.98-16.39-20.88-10.72-23.53Z"/><path class="cls-29" d="M266.32,335.23c.32-.91,1.31-1.38,2.22-1.06,11.53,4.08,22.99,5.22,34.06,3.61,12.58,7.1-38.12,4.2-36.28-2.54Z"/><path class="cls-29" d="M715.33,276.15c1.17,1.09,.21,2.5-.74,3.33-3.04,3.35-5.95,6.85-8.69,10.55-5.03,6.3-14.11,21.71-5.97,24.19,.89,.37,1.3,1.39,.93,2.28-.37,.89-1.39,1.31-2.27,.94-11.45-3.83-2.2-21.05,4.52-29.47,2.65-3.59,5.48-7,8.41-10.26,.88-1.02,2.39-2.97,3.82-1.55Z"/><path class="cls-29" d="M722.06,297.57c.95,1.21-.11,2.45-1.17,3.11-3.16,2.54-6.27,5.28-9.15,8.15-18.71,16.73-5.78,26.98,8.65,9.13,1.08-2.51,4.8-.89,3.27,1.47-.49,.6-.91,1.15-1.47,1.78-9.63,14.3-33.28,12.53-19.14-7.8,1.6-2.17,16.92-19.56,19.01-15.84Z"/><path class="cls-29" d="M726.35,314.73c2.21-.37,2.78,3.1,.54,3.44-2.32,.37-5.29,2.47-8.85,6.66-7.46,8.79-9.01,14.45-6.79,15.75,2.3,1.35,7.75-1.14,11.25-6.16,1.24-1.77,3.95-.15,2.97,1.78-13.45,29.83-41.73,21.65-46.43,49.5-.39,2.2-3.89,1.54-3.41-.68,2.51-24.29,29.12-24.38,41.29-41.56-21.73,6.55-2.62-26.93,9.41-28.73Z"/><path class="cls-29" d="M679.21,293.26c.96-.08,1.8,.65,1.87,1.59,0,0,2.11,25.47,2.11,25.47,6.77,12.18,12.03,28.32,5.05,40.95-.48,.83-1.54,1.12-2.37,.65-.83-.48-1.12-1.54-.65-2.37,6.31-11.56,1.03-26.65-5.21-37.77-.15-.23-.22-.5-.25-.77,0,0-2.14-25.88-2.14-25.88-.08-.96,.63-1.8,1.59-1.88Z"/><path class="cls-29" d="M387.41,702.2c.73-1,2.05-.82,2.88-.04,3.24,2.15,6.87,3.99,11.12,5.71,11.47,4.61,24.91,6.97,40.09,5.85,.96-.07,1.79,.65,1.86,1.61-4.34,6.57-38.54-1.59-43.25-4.23-3.14-1.74-14.63-5.29-12.71-8.9Z"/><path class="cls-29" d="M378.5,717.35c1.13-2.12,3.38-.18,4.94,.33,13.34,5.64,27.27,7.36,39.01,6.87,1.78,.07,4.46-.99,4.82,1.37,.83,6.31-49.37-1.21-48.77-8.57Z"/><path class="cls-29" d="M363.57,725.98c.61-1.02,1.9-1.04,2.78-.37,11.68,5.5,22.87,7.27,37.82,8.31,11.45,8.92-45.9-2.39-40.6-7.94Z"/></svg>