<svg xmlns="http://www.w3.org/2000/svg" viewBox="0 0 853.11 830"><defs><style>.cls-1{fill:#fbf3e1;}.cls-2{fill:#7d9098;}.cls-3{fill:#d4dadd;}.cls-4{fill:#516b75;}.cls-5{fill:#fff;}.cls-6{fill:#a8b5ba;}.cls-7{fill:#e9c46a;}.cls-8{fill:#b9a30b;}</style></defs><g id="Layer_2" data-name="Layer 2"><g id="Illustration"><path class="cls-1" d="M59.43,257.82c-18,39.81-44.55,116-33.87,210.83,13.71,121.62,81.59,217.51,147.61,271.4,219.09,178.8,620.16,63.29,673.27-105.14,9.64-30.56,6.93-60,3.6-96.29C839.43,423.28,783.59,389,746,266.53c-34.18-111.44-.48-124-32.45-173.53C644.25-14.48,444.11-19.9,306.4,31.63,253.51,51.42,125.15,112.13,59.43,257.82Z"/><path class="cls-2" d="M390.46,343c3.69-9.56,27.72-73.33,16.12-110.74C405,227,402.46,219,395.15,212.51c-14.62-12.87-29.41-2.48-41-11.88-15.34-12.39,2.15-37.14-14.58-72.89-4-8.57-10.26-21.93-24-28.65-15.38-7.5-24.33,1-39.51-4.8-18.93-7.21-16.89-24.92-34.69-42.63C222.53,33,185.91,18.51,158.87,33.22c-23.58,12.83-30.94,43-29.83,63.66,1.64,30.52,22.58,55.47,44.52,67,31.52,16.56,63.45,4.5,67.66,16.49,3.93,11.17-23.58,22.09-22.16,43,1,14.6,15.74,28.87,30.81,32.56,20.89,5.12,33-12.38,45.49-5.71,13.07,7,5.78,29.48,15.13,49.87C318.19,316.91,338.31,334.72,390.46,343Z"/><path class="cls-3" d="M391.22,336.35a1.5,1.5,0,0,1-1.47-1.19c-17.92-84.69-70.86-145.32-112.1-181.26-44.76-39-85.81-58.18-86.21-58.36a1.5,1.5,0,1,1,1.25-2.73c.42.19,41.79,19.51,86.86,58.77,26.47,23.06,49,48.39,67.08,75.3,22.57,33.66,38.06,69.88,46.06,107.66a1.5,1.5,0,0,1-1.16,1.78A1.63,1.63,0,0,1,391.22,336.35Z"/><path class="cls-4" d="M395,310.12C426.52,238.35,422.38,207,411,191.8c-3.4-4.54-11.39-13-16.24-27.58-6.29-18.95-1.19-29.87-1.82-45.6-1.24-30.76-23.63-60.2-48.48-74.38-17.35-9.91-50.75-20.85-71.27-4.64-8.68,6.86-17.39,20.41-13.56,30.19,5.48,14,32.83,6.32,45.88,25.13,7.13,10.27,1.08,15.47,8.73,26.31,12.07,17.08,32.71,12.11,36.81,24.23,4,11.74-14.56,19.46-11.93,34.53,3,17.18,28.29,19.51,29.37,36.07.65,9.86-8.19,11.06-8.68,22.52-.6,13.93,12.15,19.76,24,40.48C390.42,290.67,393.18,301.67,395,310.12Z"/><path class="cls-3" d="M395.8,304.27h-.11a1.5,1.5,0,0,1-1.39-1.61c4.42-61.08-5.4-125.92-26.28-173.45C340.54,66.68,300,48.52,299.55,48.35a1.5,1.5,0,0,1,1.19-2.76c.42.18,42,18.73,70,82.42,21.07,48,31,113.32,26.53,174.87A1.49,1.49,0,0,1,395.8,304.27Z"/><path d="M612.13,763.46H168.48c-13.77,0-25-13.73-22.78-27.39l95.41-591.35c1.76-10.88,10.51-20,21.48-20H706.24c13.77,0,24.87,13.51,22.66,27.17L633.49,743.26C631.73,754.14,623.1,763.46,612.13,763.46Z"/><path class="cls-2" d="M594.42,763.44H150.77a22.35,22.35,0,0,1-22.07-25.93l95.5-592.59a22.36,22.36,0,0,1,22.07-18.78H689.92A22.36,22.36,0,0,1,712,152.07l-95.5,592.59A22.36,22.36,0,0,1,594.42,763.44Z"/><path class="cls-2" d="M594.42,764.94H150.77a23.86,23.86,0,0,1-23.55-27.67l95.5-592.59a23.77,23.77,0,0,1,23.55-20H689.92a23.85,23.85,0,0,1,23.55,27.67L618,744.9A23.77,23.77,0,0,1,594.42,764.94ZM246.27,127.64a20.78,20.78,0,0,0-20.59,17.52l-95.5,592.58a20.85,20.85,0,0,0,20.59,24.2H594.42A20.78,20.78,0,0,0,615,744.42l95.5-592.58a20.85,20.85,0,0,0-20.59-24.2Z"/><path class="cls-5" d="M584.22,744.78H166.56a21.06,21.06,0,0,1-20.78-24.42l89.91-557.88a21,21,0,0,1,20.78-17.68H674.13a21.06,21.06,0,0,1,20.78,24.42L605,727.1A21.05,21.05,0,0,1,584.22,744.78Z"/><path d="M446,733.31H296.43a1.5,1.5,0,0,1,0-3H446a1.5,1.5,0,0,1,0,3Z"/><path class="cls-2" d="M495.9,160H421.64A16.61,16.61,0,0,1,405,143.37H512.52A16.62,16.62,0,0,1,495.9,160Z"/><path class="cls-6" d="M342.28,232.43H561.16a14.18,14.18,0,0,0,13.51-11.68l1.55-9.95c1-6.45-3.4-11.68-9.84-11.68H347.5A14.18,14.18,0,0,0,334,210.8l-1.56,9.95C331.42,227.2,335.83,232.43,342.28,232.43Z"/><path class="cls-3" d="M285.51,308.07H594.25a13.54,13.54,0,0,0,12.9-11.16c1-6.16-3.25-11.16-9.41-11.16H289a13.55,13.55,0,0,0-12.91,11.16C275.14,303.07,279.35,308.07,285.51,308.07Z"/><path class="cls-3" d="M592.24,320.89H283.5a13.54,13.54,0,0,0-12.9,11.16c-1,6.16,3.25,11.16,9.41,11.16H588.74a13.55,13.55,0,0,0,12.91-11.16C602.61,325.89,598.4,320.89,592.24,320.89Z"/><path class="cls-3" d="M586.74,356H278a13.53,13.53,0,0,0-12.9,11.15c-1,6.17,3.24,11.16,9.41,11.16H583.24a13.55,13.55,0,0,0,12.91-11.16C597.11,361,592.9,356,586.74,356Z"/><path class="cls-3" d="M576.34,422.4H267.61a13.54,13.54,0,0,0-12.9,11.16h0c-1,6.16,3.24,11.16,9.41,11.16H572.85a13.56,13.56,0,0,0,12.91-11.16h0C586.72,427.4,582.51,422.4,576.34,422.4Z"/><path class="cls-3" d="M570.84,457.55H262.11A13.55,13.55,0,0,0,249.2,468.7h0c-1,6.17,3.25,11.16,9.41,11.16H567.35a13.53,13.53,0,0,0,12.9-11.16h0C581.22,462.54,577,457.55,570.84,457.55Z"/><path class="cls-3" d="M565.34,492.69H256.61a13.54,13.54,0,0,0-12.91,11.16h0C242.74,510,247,515,253.11,515H561.85a13.53,13.53,0,0,0,12.9-11.15h0C575.72,497.68,571.5,492.69,565.34,492.69Z"/><path class="cls-3" d="M555,559.06H246.21a13.53,13.53,0,0,0-12.9,11.15c-1,6.17,3.25,11.16,9.41,11.16H551.46a13.53,13.53,0,0,0,12.9-11.16C565.32,564.05,561.11,559.06,555,559.06Z"/><path class="cls-3" d="M549.45,594.2H240.71a13.53,13.53,0,0,0-12.9,11.16c-1,6.16,3.25,11.15,9.41,11.15H546a13.54,13.54,0,0,0,12.91-11.15C559.82,599.19,555.61,594.2,549.45,594.2Z"/><path class="cls-3" d="M543.94,629.34H235.21a13.54,13.54,0,0,0-12.9,11.16c-1,6.16,3.24,11.15,9.41,11.15H540.45a13.55,13.55,0,0,0,12.91-11.15C554.32,634.34,550.11,629.34,543.94,629.34Z"/><path class="cls-7" d="M701.39,13.16A133.27,133.27,0,0,0,568.13,146.43V279.7H699.31v0l2.08,0a133.27,133.27,0,0,0,0-266.54Z"/><path class="cls-8" d="M701.39,281.2l-1.58,0h-.24l-.26,0H568.13a1.5,1.5,0,0,1-1.5-1.5V146.43c0-74.31,60.45-134.77,134.76-134.77S836.16,72.12,836.16,146.43,775.71,281.2,701.39,281.2Zm-2.08-3h.55l1.53,0c72.66,0,131.77-59.11,131.77-131.77S774.05,14.66,701.39,14.66,569.63,73.77,569.63,146.43V278.2H699Z"/><path class="cls-5" d="M719.49,205.5V123.05H683.3V205.5a10.08,10.08,0,0,1-10.08,10.08h0v8.9h56.35v-8.9h0A10.08,10.08,0,0,1,719.49,205.5Z"/><circle class="cls-5" cx="701.39" cy="86.65" r="20.39"/><path d="M712.51,747.1a8.51,8.51,0,0,1-2.82-16.53,1.5,1.5,0,1,1,1,2.83,5.5,5.5,0,1,0,3.66,10.38,5.51,5.51,0,0,0,3.36-7,1.49,1.49,0,0,1,.92-1.91,1.51,1.51,0,0,1,1.91.92,8.5,8.5,0,0,1-5.2,10.84A8.39,8.39,0,0,1,712.51,747.1Z"/><path d="M14.94,223.67a1.46,1.46,0,0,1-.77-.22,1.49,1.49,0,0,1-.5-2.06l2.76-4.55A1.5,1.5,0,0,1,19,218.4L16.23,223A1.51,1.51,0,0,1,14.94,223.67Z"/><path d="M5.27,239.57a1.55,1.55,0,0,1-.78-.21,1.51,1.51,0,0,1-.5-2.07l2.76-4.54a1.5,1.5,0,0,1,2.57,1.56l-2.77,4.54A1.47,1.47,0,0,1,5.27,239.57Z"/><path d="M5.94,225.87a1.57,1.57,0,0,1-.8-.23L.7,222.85a1.5,1.5,0,0,1,1.6-2.54l4.44,2.79a1.5,1.5,0,0,1-.8,2.77Z"/><path d="M21.48,235.61a1.48,1.48,0,0,1-.8-.23l-4.44-2.78a1.5,1.5,0,0,1,1.6-2.54l4.44,2.78a1.5,1.5,0,0,1-.8,2.77Z"/><path d="M545,71a1.59,1.59,0,0,1-.62-.14,1.5,1.5,0,0,1-.74-2l2.19-4.85a1.5,1.5,0,0,1,2.73,1.24l-2.19,4.85A1.51,1.51,0,0,1,545,71Z"/><path d="M537.29,88a1.51,1.51,0,0,1-1.37-2.12l2.2-4.85a1.5,1.5,0,1,1,2.73,1.24l-2.19,4.84A1.5,1.5,0,0,1,537.29,88Z"/><path d="M536.3,74.3a1.64,1.64,0,0,1-.64-.14l-4.74-2.23a1.5,1.5,0,1,1,1.27-2.71l4.75,2.22a1.5,1.5,0,0,1-.64,2.86Z"/><path d="M552.9,82.1a1.42,1.42,0,0,1-.63-.15l-4.75-2.22A1.5,1.5,0,1,1,548.8,77l4.74,2.23a1.5,1.5,0,0,1-.64,2.86Z"/><path d="M18.62,201.78a1.42,1.42,0,0,1-.81-.24,1.49,1.49,0,0,1-.45-2.07c.32-.5,33.13-51.07,81.33-84.08a1.5,1.5,0,0,1,1.7,2.48C52.7,150.52,20.2,200.59,19.88,201.09A1.49,1.49,0,0,1,18.62,201.78Z"/><path d="M46.24,187.76a1.48,1.48,0,0,1-.87-.28,1.5,1.5,0,0,1-.35-2.09c.17-.23,16.63-23,46.09-49.46a1.5,1.5,0,1,1,2,2.23c-29.21,26.22-45.5,48.75-45.66,49A1.48,1.48,0,0,1,46.24,187.76Z"/><path d="M735.57,722.4a1.51,1.51,0,0,1-1.13-2.5c55.06-62.43,59.21-173.52,59.24-174.63a1.5,1.5,0,0,1,3,.09,393.76,393.76,0,0,1-8.82,64.23c-7.24,33-22,79.22-51.17,112.3A1.51,1.51,0,0,1,735.57,722.4Z"/><path d="M720.89,713.35a1.53,1.53,0,0,1-.88-.28,1.5,1.5,0,0,1-.33-2.1c36.08-49.56,48.47-130,48.59-130.79a1.5,1.5,0,0,1,3,.44c-.12.82-12.63,82-49.13,132.12A1.51,1.51,0,0,1,720.89,713.35Z"/></g></g></svg>