<?xml version="1.0" encoding="utf-8"?>
<!-- Generator: Adobe Illustrator 26.5.0, SVG Export Plug-In . SVG Version: 6.00 Build 0)  -->
<svg version="1.1" id="Layer_1" xmlns="http://www.w3.org/2000/svg" xmlns:xlink="http://www.w3.org/1999/xlink" x="0px" y="0px"
	 viewBox="0 0 1000 840" style="enable-background:new 0 0 1000 840;" xml:space="preserve">
<style type="text/css">
	.st0{fill-rule:evenodd;clip-rule:evenodd;fill:#253368;}
	.st1{fill-rule:evenodd;clip-rule:evenodd;fill:#FF7946;}
	.st2{fill-rule:evenodd;clip-rule:evenodd;fill:#FAAD14;}
	.st3{fill-rule:evenodd;clip-rule:evenodd;fill:#7CB305;}
	.st4{fill-rule:evenodd;clip-rule:evenodd;fill:#E4EBF7;}
	.st5{fill:#FFFFFF;}
	.st6{fill:#FAAD14;}
	.st7{fill:#FF7946;}
	.st8{fill:#597EF7;}
	.st9{fill:#253368;}
	.st10{clip-path:url(#SVGID_00000080189825243437191450000011755651298688604832_);}
	.st11{fill:#E4EBF7;}
	.st12{fill:#A3B5D6;}
	.st13{fill:#FFA940;}
	.st14{fill:#FFE7BA;}
	.st15{fill:#FE9921;}
	.st16{fill:#50548B;}
	.st17{fill:#F5F5F5;}
	.st18{fill:#3D60E0;}
	.st19{clip-path:url(#SVGID_00000155113596145012105160000010497051707313562783_);}
	.st20{fill:#0ACF83;}
	.st21{fill:#F24E1E;}
	.st22{fill:#FF7262;}
	.st23{fill:#1ABCFE;}
	.st24{fill:#A259FF;}
	.st25{fill-rule:evenodd;clip-rule:evenodd;fill:#FFC999;}
	.st26{fill-rule:evenodd;clip-rule:evenodd;fill:#9E7D6C;}
	.st27{fill-rule:evenodd;clip-rule:evenodd;fill:#FFC2BD;}
	.st28{fill:#F5222D;}
	.st29{fill:#4E5C93;}
	.st30{fill-rule:evenodd;clip-rule:evenodd;fill:#138585;}
	.st31{fill:#CCD7EE;}
	.st32{fill-rule:evenodd;clip-rule:evenodd;fill:#CCD7EE;}
	.st33{fill:#146262;}
	.st34{fill-rule:evenodd;clip-rule:evenodd;fill:#4E5C93;}
	.st35{fill:#EFADAB;}
</style>
<path class="st0" d="M938.6,63.2H505.6V33.9c0-6.4,5.3-11.5,11.8-11.5h409.4c6.5,0,11.8,5.2,11.8,11.5V63.2z"/>
<path class="st1" d="M536,41.6c0.1,9.4-14.8,9.4-14.7,0C521.2,32.2,536.1,32.2,536,41.6z"/>
<path class="st2" d="M563.4,41.6c0.1,9.4-14.8,9.4-14.7,0C548.6,32.2,563.5,32.2,563.4,41.6z"/>
<path class="st3" d="M590.8,41.6c0.1,9.4-14.8,9.4-14.7,0C576,32.2,591,32.2,590.8,41.6z"/>
<path class="st4" d="M518.3,354.9c-7.3,0-13.1-5.3-13.1-11.8V61.5h433.5v281.6c0,6.5-5.9,11.8-13.1,11.8H518.3z"/>
<path class="st5" d="M908.1,83H539.7c-2.9,0-5.2,2.4-5.2,5.3v236c0,2.9,2.4,5.3,5.2,5.3h368.4c2.9,0,5.2-2.4,5.2-5.3v-236
	C913.3,85.4,911,83,908.1,83z"/>
<path class="st6" d="M860.6,135.8H673.1c-2.2,0-3.9,1.8-3.9,3.9v19.6c0,2.2,1.7,3.9,3.9,3.9h187.5c2.2,0,3.9-1.8,3.9-3.9v-19.6
	C864.5,137.6,862.8,135.8,860.6,135.8z"/>
<path class="st7" d="M860.6,231.7h-70.3c-2.2,0-3.9,1.8-3.9,3.9v19.6c0,2.2,1.7,3.9,3.9,3.9h70.3c2.2,0,3.9-1.8,3.9-3.9v-19.6
	C864.5,233.4,862.8,231.7,860.6,231.7z"/>
<path class="st8" d="M860.6,188.6h-70.3c-2.2,0-3.9,1.8-3.9,3.9v19.6c0,2.2,1.7,3.9,3.9,3.9h70.3c2.2,0,3.9-1.8,3.9-3.9v-19.6
	C864.5,190.4,862.8,188.6,860.6,188.6z"/>
<path class="st0" d="M620.9,137.8h20.5l45.4,119.3h-19.3l-11.1-30.8h-50.7l-11.1,30.8h-19.2L620.9,137.8z M610.6,212.1h39.1
	l-19.1-52.8h-0.6L610.6,212.1z M731.1,184.7c17.5,0,26,8.8,26,26c0,0,0,42.6,0,42.6h-11.9v-9.4c-10.3,16.5-45,15.5-44.8-7.6
	c-0.3-23.1,25.8-24,43.9-23.8c0.8-9.9-3.4-17-14.2-16.7c-7.7,0-13.6,3-15.1,10.6l-12.7-1.2C705.2,190.4,716.1,184.7,731.1,184.7z
	 M747.3,223.8l-13.4,0.4c-14.2-0.5-23.1,9.6-14.8,18.6C731.5,251.1,750.1,238.5,747.3,223.8z"/>
<path class="st9" d="M865.3,284.5c1.2,0,1.3,2,0,2c-1-1-167.9,1.9-167.7-1C697.3,282.6,864.3,285.5,865.3,284.5z"/>
<path class="st9" d="M592.5,291.4v-7h2.3v-1h-2.3c-0.2-2.1,0.6-2.1,2.4-2v-1.1c-2.4-0.2-4,0.3-3.6,3.1h-2v1h2v7H592.5z M599.6,291.6
	c5.2,0.2,5.2-8.7,0-8.5C594.4,282.9,594.4,291.8,599.6,291.6z M599.6,290.6c-3.5,0.1-3.5-6.5,0-6.4
	C603.1,284,603.1,290.6,599.6,290.6z M606.4,291.4c0.3-1.9-1-7.3,2.2-7.2c3.3-0.3,1.8,5.4,2.1,7.2h1.2v-5c0.4-3.5-3.9-4.5-5.5-1.9
	v-1.2h-1.2v8.1H606.4z M617.8,291.4v-1c-0.7,0-1.9,0.2-1.8-0.8c0,0,0-5.1,0-5.1h2v-1h-2v-2.6l-1.2,0.5v2.1h-1.6v1h1.6
	C615.2,287.1,613.1,292.2,617.8,291.4z M628,291.6c1.2,0,2.1-0.5,2.7-1.5v1.3h1.2V280h-1.2v4.8C625.7,278.2,620.7,291.5,628,291.6z
	 M628.1,290.6c-3.5,0.1-3.5-6.7,0-6.5C631.4,284.1,631.5,290.7,628.1,290.6z M637.1,291.6c1.9,0,3.3-1.1,3.7-2.8h-1.2
	c-0.9,2.9-5.2,2-5-1.1h6.4c0.4-3.9-4.1-6.3-6.7-3.3C632.2,286.8,633.4,291.8,637.1,291.6z M639.7,286.7h-5
	C634.6,283.4,639.6,283.2,639.7,286.7z M645.4,291.6c3,0.3,4.6-2.5,2.5-4.2c-0.5-0.4-3.1-1-3.8-1.3c-2.6-2,3.2-3.1,3.2-0.6h1.2
	c0.1-4.4-9.4-2.3-5.5,1.3c9.6,2.1,0.9,6,0.1,1.9h-1.2C642.1,290.7,643.3,291.6,645.4,291.6z M651.3,282.1c1.2,0,1.2-1.9,0-1.9
	C650.1,280.2,650.1,282.1,651.3,282.1z M652,291.4v-8.1h-1.2v8.1H652z M657.9,294.7c5.5,0.5,3.2-8.3,3.7-11.4h-1.2v1.4
	c-1.8-3.3-6.8-1.1-6.4,2.5c-0.4,3.6,4.5,5.7,6.4,2.4v1.4c0.4,3-4.2,3.8-4.8,1.1h-1.2C654.7,294,655.9,294.7,657.9,294.7z
	 M657.8,290.2c-3.5,0.2-3.3-6.2,0-6C661.2,284,661.3,290.3,657.8,290.2z M664.8,291.4c0.3-1.9-1-7.3,2.2-7.2
	c3.3-0.3,1.8,5.4,2.1,7.2h1.2v-5c0.3-3.5-3.9-4.5-5.5-1.9v-1.2h-1.2v8.1H664.8z"/>
<g>
	<defs>
		<rect id="SVGID_1_" x="525.6" y="440.6" width="455" height="455.8"/>
	</defs>
	<clipPath id="SVGID_00000109031106727981669660000010204014267466631046_">
		<use xlink:href="#SVGID_1_"  style="overflow:visible;"/>
	</clipPath>
	<g style="clip-path:url(#SVGID_00000109031106727981669660000010204014267466631046_);">
		<path class="st11" d="M655.3,625.8l-50.5,37.5h251.9l-50.7-37.5H655.3z"/>
		<path class="st12" d="M806.1,663.3l50.7,0l-50.7-37.5V663.3z"/>
		<path class="st13" d="M648,559.2c0,0,43,246.6,43,246.6c2.4,14.4,22.3,5.8,31.1,5.1c5.6-1,9.4-6.4,8.4-12c0,0-43-246.6-43-246.6
			L648,559.2z"/>
		<path class="st14" d="M653.8,517.3l-5.8,41.9l39.6-6.9L669,514.7L653.8,517.3z"/>
		<path class="st9" d="M658.3,499c-0.3,0.1-0.6,0.3-0.7,0.7l-3.4,17.6l14.5-2.5C668.3,514.6,659,498,658.3,499z"/>
		<path class="st15" d="M659.9,557.2L704.7,814l16.2-2.8l-44.8-256.7L659.9,557.2z"/>
		<path class="st9" d="M715,794.5c0.4,9.4-5.3,30.6,9.9,31c15.2,0.6,11-21,12-30.3C736.9,795.3,715,794.5,715,794.5z"/>
		<path class="st16" d="M735.1,500.5l-1.2,7c-0.7,3.6,4.9,4.5,5.5,1c0,0,1.2-6.9,1.2-6.9C741.3,497.9,735.7,496.9,735.1,500.5z"/>
		<path class="st8" d="M673.9,776.5c-1.9,11.9,11.5,12.7,19.8,14c5.6,1,11-2.8,12-8.5l41.5-238.8l-31.8-5.5L673.9,776.5z"/>
		<path class="st11" d="M732.3,507.4l-16.9,30.2l31.8,5.6l-6.2-34.3c-0.1-2.1-5.6-1.8-6.9-2.4C733.4,506.4,732.6,506.8,732.3,507.4z
			"/>
		<path class="st7" d="M599.7,532.9l-10.9,7.6c-1.2,0.9-1.7,2.5-1.1,3.9l6.6,15.2c0.7,1.6,2.6,2.4,4.2,1.7l12-5.2
			c1.6-0.7,2.4-2.6,1.7-4.2l-7.7-17.6C603.8,532.4,601.3,531.7,599.7,532.9z"/>
		<path class="st7" d="M597.9,602.8l82.9,190.3l44.8-19.6l-82.9-190.3L597.9,602.8z"/>
		<path class="st9" d="M597.9,602.8l7.3,16.7l44.8-19.6l-7.3-16.7L597.9,602.8z"/>
		<path class="st11" d="M592.3,556.9l1.1,35.6l4.5,10.3l44.8-19.6l-4.4-10.2l-26.7-24.5L592.3,556.9z"/>
		<path class="st17" d="M593.4,592.7l4.5,10.2l44.8-19.6l-4.5-10.2L593.4,592.7z"/>
		<path class="st5" d="M652.9,637.6c-0.7,0.4-25.7,0.9-25.2,2.5c-0.8,1.3,0.3,3.3,1.9,3.1c0,0,8-0.6,8-0.6c2.1-0.4,3,4.6,3.9,5.8
			c2.4,10.1,22.7,11.6,17-1.3C657.3,646,655.3,637.1,652.9,637.6z M647.9,651.6c-1.6-1-4.9-6.5-4-8.6c0.6-1.5,5.7-1,6.9-1.3
			c0.8-0.1,1.5,0.4,1.8,1.1c0.7,1.9,3.3,6.5,2.4,8.2C654.1,653,649.5,652.9,647.9,651.6z"/>
		<path class="st5" d="M662.1,659l-23.5,2.3c-1.2,0.1-2,1.5-1.5,2.6c0,0,6.2,14.3,6.2,14.3c0.9,2.2,4.3,0.7,3.3-1.5c0,0-4-9.3-4-9.3
			c-1.2-3.3,4.3-2.6,6-3c2.3-0.8,5.2,9.9,6.2,11c0.9,2.2,4.3,0.7,3.4-1.5c-0.2-1.8-6.1-9.8-1.9-10.3c1.4,0.1,5-1.2,5.6,0.7
			c1,1.1,4.1,12.4,6.5,11.6c1.2-0.1,2-1.5,1.4-2.6C668.8,672.2,664.5,658,662.1,659z"/>
		<path class="st8" d="M605.5,709.1v120.8c0,5.2,4.2,9.4,9.4,9.4h232.3c5.2,0,9.4-4.2,9.4-9.4V709.1H605.5z"/>
		<path class="st18" d="M605.5,681.5v70.4l251.1-20.1v-50.3H605.5z"/>
		<g>
			<defs>
				<polygon id="SVGID_00000101798550042618954340000011566360933301938828_" points="785,453.9 981,567.3 867.8,763.6 671.8,650.3 
									"/>
			</defs>
			<clipPath id="SVGID_00000129173510022471340060000008595314942199737773_">
				<use xlink:href="#SVGID_00000101798550042618954340000011566360933301938828_"  style="overflow:visible;"/>
			</clipPath>
			<g style="clip-path:url(#SVGID_00000129173510022471340060000008595314942199737773_);">
				<path class="st20" d="M749.3,678.7c32.7,16.9,47.5-18,60.5-41.2l-27.6-15.9C745.7,601.3,713.5,657.2,749.3,678.7z"/>
				<path class="st21" d="M804.3,519.7c20.3-31.8,48.4-10.7,71.6,3.2l-33,57.3C819.2,567.1,787,553.2,804.3,519.7z"/>
				<path class="st22" d="M875.9,522.9c23.7,13.2,55.9,27,38.6,60.5c-20.3,31.8-48.4,10.7-71.6-3.2L875.9,522.9z"/>
				<path class="st23" d="M881.6,640.6c-22.4,37.3-76.2,6.2-55.1-31.9C848.8,571.4,902.7,602.5,881.6,640.6z"/>
				<path class="st24" d="M771.3,576.8c20.3-31.8,48.4-10.7,71.6,3.2l-33,57.3C786.3,624.2,754,610.3,771.3,576.8z"/>
			</g>
		</g>
		<path class="st11" d="M604.9,663.3l-24.5,54c-2,4,1.2,9.1,5.7,9c0,0,289.2,0,289.2,0c2.2,0,4.3-1.2,5.4-3.1
			c5.5-1.7-23.8-56.9-23.8-60H604.9z"/>
	</g>
</g>
<path class="st8" d="M793.9,393.2c-24-3.6-27.3,34.8-3.6,35.7C814.2,432.5,817.6,394,793.9,393.2z"/>
<path class="st8" d="M787.7,478.1c0.1,13.5,20.6,13.5,20.6,0C808.3,464.6,787.8,464.6,787.7,478.1z"/>
<path class="st8" d="M710.9,465.4c-0.7-14.3,21.1-15,21.2-0.6C732.8,479.1,711.1,479.8,710.9,465.4z"/>
<path class="st25" d="M134.3,1745.7c-19.5-2.4-33.6-15.4-31.9-35l35-423.4c2.5-30.2,29.6-52.2,59.6-48.5c30,3.7,50.9,31.7,46,61.6
	l-72.5,419.3C167.3,1739.1,153.7,1748.1,134.3,1745.7z"/>
<path class="st25" d="M372.9,1739.7c19.6,0.5,36.1-14.7,37.4-34.3l26.5-419.6c1.9-30.2-21.7-56-51.9-56.7
	c-30.2-0.7-55,23.9-54.5,54.2l6.8,420.4C337.5,1723.3,353.3,1739.2,372.9,1739.7z"/>
<path class="st25" d="M394.1,837.2c35.6,0.8,63.6,30.9,61.9,66.5L437.9,1287c-1.4,29.5-26.1,52.5-55.6,51.8
	c-29.5-0.7-53.1-24.8-53.1-54.4l-0.1-383.7C329.1,865,358.5,836.3,394.1,837.2z"/>
<path class="st25" d="M245,849.7c-35.4-4.4-67.4,21.2-70.9,56.8l-38,381.8c-2.9,29.4,18.1,55.8,47.4,59.4
	c29.3,3.6,56.1-16.8,60.4-46L300,922.1C305.2,886.8,280.4,854.1,245,849.7z"/>
<path class="st26" d="M492.1,243.6c0,0,46-14.4,66.5,33.5c48.3,9.3,43.8,61.2,43.8,61.2s29.2,35.5-13.2,62.9
	c2.8,40.7-44,40.7-44,40.7s-6,32.8-42.6,25.5c-32.7,35.1-104,40.5-134.7,9c-43.6,45-137.1,13.6-131.7-22
	c-58.4,5.8-96.3-51.2-70.8-108.9c-32.7-37.1-6.9-66.3-6.9-66.3s-23.4-93.6,40.2-116.9c25.5-56.5,105-27.1,105-27.1
	s46.7-17.8,70.7,21.4c55.3-0.3,57.5,29.8,65.6,54.1C488.9,205.7,492.1,243.6,492.1,243.6z"/>
<path class="st27" d="M335,221.2c-36.8,12.7-52.9-14.1-52.9-14.1S260,169.2,260,194.7c0,13.5-23.2-0.7-30.3,14.8
	c-4.8,10.5,12.9,20.1-3.5,48.6c-9.5,16.5,39.1,20.7,14.5,52.2c0,0,25.8,29.6-7.7,45.9c1.4,33.8-0.4,79.1,47,74.8
	c47.6-9.7,28.5-59.7,22.8-92.1C357.5,330.2,348.1,254.5,335,221.2z"/>
<path class="st27" d="M650.6,398.4l27.7-98.2c0,0,45.4-79.7,61.8-74.8c15.2,6.7-19.2,29.5-26,52c14.5-1,7.9,20.6,7.9,20.6
	s11.5-0.4,8.4,17.2c17.8,12.6-16.7,69.5-43.3,115.3C687.2,430.4,647.6,461.1,650.6,398.4z"/>
<path class="st27" d="M656.8,365.2c0,0,4.1-33.7,7.2-50.8c3.1-17.2-4.1-48.1,8.4-39.9c8.4,5.5,6.9,23.9,6.6,37.5
	c-0.3,13.6,21.6,45.8,5.3,68.1C673.2,395.1,655.8,397.1,656.8,365.2z"/>
<path class="st27" d="M682.2,391.7c-11.4-7.6-26.7-4.8-34.8,6.2l-155.7,213c-13.7,20.1-8.3,47.4,11.9,60.9
	c20.4,13.6,47.9,7.6,60.9-13.1l126.1-233.5C696.8,413.5,693.2,399,682.2,391.7z"/>
<path class="st28" d="M271.6,272.4c2.4-3.8,13.1,8.4,28.4,3.5c3.1-0.9,4.3,4,1.2,4.8C295.3,283.7,268.7,280.3,271.6,272.4z"/>
<path class="st9" d="M269.9,233.5c1.3-0.2,2.5,0.7,2.7,2c3.1,21.5-26.6,26.3-30.4,4.9c-0.5-3,4.2-3.8,4.7-0.7
	c2.5,15.3,23.4,11.9,21-3.4C267.8,234.9,268.7,233.7,269.9,233.5z"/>
<path class="st9" d="M329.1,225.7c1.2-0.2,2.4,0.6,2.6,1.9c3.3,21.2-24.1,25.6-27.6,4.4c-0.5-2.9,4-3.6,4.4-0.7
	c2.4,15.3,21.3,12.3,18.7-3C327.1,227,327.9,225.9,329.1,225.7z"/>
<path class="st9" d="M245.3,209.7c9-3.5,18.7-3.2,27.4-0.7c2.9,0.9,1.4,5.5-1.5,4.5c-1-0.3-1.7-0.5-3.2-0.8
	c-6.8-1.4-14.1-1.2-20.9,1.4c-3.9,0.3-8.9,7.8-12.1,5.1C232.5,214.4,242.2,211.4,245.3,209.7z"/>
<path class="st27" d="M554.7,668.1c20.1-14,25-41.7,11-61.8l-136.5-196c-14-20.1-41.6-25.1-61.7-11c-20.1,14-25,41.7-11,61.8
	L493,657C507,677.1,534.6,682.1,554.7,668.1z"/>
<path class="st29" d="M354.7,460.6c0.6-0.5,1.5-0.3,2,0.3c0,0,57,81.9,57,81.9c0.6,1.2,79.5-60.9,72.7-48.5c0,0-72.2,51.6-72.2,51.6
	c-0.6,0.5-1.5,0.3-2-0.3C412.5,543.7,351.3,462.7,354.7,460.6z"/>
<path class="st30" d="M414.4,544.1L356.5,461c-13.9-20-9-47.8,11-61.8c20-14,47.8-9,61.7,11l57.3,82.3L414.4,544.1z"/>
<path class="st30" d="M394.9,471.2c28.2,53.6,43.4,106.1,8,146.2c0,0-0.3-11.2-2.7,87.5c-113.5,19.9-185.8-1.3-185.8-1.3
	s2.2-26.2,2.2-26.2s-18.4-61.9-18.4-61.9C181,581.5,138.7,500,151.3,437.5c0.9-10.1-3.9-31.3,6.2-32.9c34.2-5.4,57.9-8.3,57.9-8.3
	l4.2-12.8c0.6-3.9,3.9-6.7,7.8-6.7h87.8c3.6,0,6.7,2.4,7.6,5.9l6.2,13.6l46.3,1.7C393.3,409.3,391.9,452,394.9,471.2z"/>
<path class="st31" d="M214.2,399.8c0.8-0.6,2-0.5,2.6,0.3c0,0,79.3,100.1,79.3,100.1c1.6,0.2,32.2-110.8,34.3-92.2
	c0,0-31.8,96.6-31.8,96.6c-0.4,1.3-2,1.7-3,0.8C295.5,502.6,210.1,403,214.2,399.8z"/>
<path class="st32" d="M319.5,511.8c19.3,33.8-26.6,61-46.9,27.9C253.3,505.8,299.1,478.6,319.5,511.8z"/>
<path class="st4" d="M322.5,511.7c19.3,33.8-26.6,61-46.9,27.9C256.3,505.8,302.1,478.6,322.5,511.7z"/>
<path class="st2" d="M317.2,514.2c15,26.3-20.6,47.4-36.4,21.6C265.8,509.6,301.4,488.4,317.2,514.2z"/>
<path class="st33" d="M151.3,436.1c2.4-0.1,0.9,5.8,1.2,7c-0.3,19.8-0.5,48.6,2.2,66c4.1,20.3,23.4,57.6,34.7,79.5
	c0,0.5,30,88.9,29.8,89.4c0,0-2.5,25.8-2.5,25.8c57.9,10.4,117.1,11.1,182.3-0.5c0.8-24,1.7-58.8,3-83.6c31.7-59.5,25-88.6-8.4-144
	c0,0-0.2-0.6-0.2-0.6s-0.9-23.5-0.9-23.5c0-0.8,0.6-1.4,1.3-1.5c0.8,0,1.4,0.6,1.5,1.3c0,0,0.9,23.1,0.9,23.1
	c32.6,54.3,40.6,83.8,10.1,143c0,0-1.6,3.1-1.6,3.1s-2.3,64.2-2.3,64.2c-0.9,10.2,0.7,19.8-1.7,20.8c-67,11.9-126.4,11.2-185.8,0.4
	c-2.9,1.8,2.2-28.3,1.5-28.3c0,0-29.6-88.4-29.6-88.4c-11.6-22-30.8-59.8-35-80.2c-2.6-17-2.7-47.5-2.2-67.5
	C150,441,149,435.9,151.3,436.1z"/>
<path class="st27" d="M67.7,701.1C44.6,692.9,32.6,667,41.6,644c0,0,83.2-214.7,83.2-214.7c8.7-22.5,34-33.7,56.5-24.9
	c23.2,8.2,35.1,34.1,26.2,57.1c0,0-83.2,214.7-83.2,214.7C115.5,698.7,90.2,709.9,67.7,701.1z"/>
<path class="st34" d="M216.2,724.6C176.3,727.7,58.7,976.9,23,1067.2c4.8,18.2,56.8,53.3,56.8,53.3s-3.1,14.5-5,23.2
	c34,28,99.8,43.2,99.8,43.2l0.1,12.4c105.2,48.5,246.1,2,246.1,2s2.6-2.7,0.7-12.5c47.8-0.6,150.1-61.2,150.1-61.2l-14.5-30
	l42.1-43.1c-11-10.3-152.4-310.3-208.1-334C391.1,720.5,286.9,719.1,216.2,724.6z"/>
<path class="st34" d="M398.7,724.6l-3-22.8c0,0-90,0.5-178.2-3.9c-2.2,10.1-4.8,28.4-4.8,28.4C220.1,720.1,300.2,738,398.7,724.6z"
	/>
<path class="st9" d="M395.4,769.1c3.9-0.7,176.8,355.5,175.5,358.2c-5.4,4.1-10,7.1-16.5,11.3c-38.5,22.7-88.2,47.9-133.7,51.6
	c-0.2-1,0.4-1.9,1.4-2.1c30-6.2,58.5-15.8,85-28c23.3-10.8,41.7-21.1,60.5-34.7C568.3,1122.9,390.7,771.1,395.4,769.1z"/>
<path class="st9" d="M185.3,842.9c13.2-7.6-113.2,301.2-110.2,301.9c13.5,8.3,26.4,14.9,42.2,21.8c18.7,8,37.9,14.3,57.2,18.2
	c1,0.2,1.6,1.1,1.4,2.1c-0.2,1-1.1,1.6-2.1,1.4c-30.2-6-63-19.1-89.7-34.1c-4.5-2.5-8-4.6-12-7.1C68.2,1145.3,186.1,845,185.3,842.9
	z"/>
<path class="st9" d="M261.4,731.3c1.1,0.1,1.9,1.1,1.7,2.2c0,0-6.8,34.3-6.8,34.3c-27.1,138.7-57.6,297-79.5,432.1
	c78.3,25.9,165.5,22,243.8,0.2c1.3-2.2-82.7-397.9-77.6-398.7c5-1.5,79.3,398.2,81.4,399.5c0.4,2.8-4,2.5-5.7,3.4
	c-78.7,21.2-166,24.9-244.5-1.6c-3,0.9,1.4-14.9,1-15.6C200.3,1044.5,228.5,875.5,261.4,731.3z"/>
<path class="st9" d="M303.9,738.2c3.5,1.2,22.2,333.1,18.9,334.7C319.3,1071.7,300.6,739.7,303.9,738.2z"/>
<path class="st9" d="M351.3,729.7c0.9-0.3,1.9,0.2,2.2,1.2c-1.1,2.3,73.8,226.7,68.8,227.9c-0.9,0.3-1.9-0.2-2.2-1.2
	C421.2,955.4,346.3,730.8,351.3,729.7z"/>
<path class="st9" d="M222.1,724.5c58.3,2.5,110.3,3.7,164.2,1.8c1.3,0.1,2.1-0.5,3.3-0.2c0.8,0.1,0.6,0.2,1.1,2.5
	c-0.9,1.4-2.7,1.1-4.2,1.3c-14,0.7-25.8,0.8-42,0.9c-37.3,0.2-78.9-0.6-122.6-2.7C219.7,727.9,219.8,724.3,222.1,724.5z"/>
<path class="st30" d="M174.2,547.2l36.6-94.4c8.8-22.8-2.6-48.6-25.3-57.5c-22.7-8.8-48.5,2.6-57.4,25.3l-36.3,93.5L174.2,547.2z"/>
<path class="st33" d="M314.7,405.9c1.8,0,1.8,2.8,0,2.8c-2.5-1-75.6,2.2-76.5-1.4c0-0.8,0.6-1.4,1.4-1.4
	C239.6,405.9,314.7,405.9,314.7,405.9z"/>
<path class="st33" d="M210.7,452.8c11-10.9-36.7,98.1-34,95.4c-0.3,0.7-1.1,1.1-1.8,0.8c0,0-82.3-33-82.3-33
	c-10.8-10.9,84.6,32.4,82,29.9L210.7,452.8z"/>
<path class="st34" d="M298.4,707.8L371,509.5c1.2-3.3,4.4-5.4,7.8-5.3l180,5.1c5.6,0.2,9.3,5.8,7.3,11l-75.2,192.8
	c-1.2,3.1-4.2,5.1-7.5,5.2L306,718.7C300.3,718.7,296.4,713.1,298.4,707.8z"/>
<path class="st0" d="M307.9,705.8c4.8-3.2,68.6-210.7,80.8-201.3c0,0,182.3,5.2,182.3,5.2c3.9,0.1,6.5,4.1,5.1,7.7
	c0,0-76.2,195.5-76.2,195.5c-1.3,3.4-4.6,5.7-8.3,5.7c0,0-174.4,0.3-174.4,0.3C310.3,719,305.6,712.2,307.9,705.8z"/>
<path class="st34" d="M403.4,524.2c4.7,5.4-6.6,14.8-11.1,9.1C387.7,527.9,399,518.6,403.4,524.2z"/>
<path class="st25" d="M400.9,526.5c2.4,2.8-3.4,7.7-5.7,4.7C392.8,528.4,398.6,523.5,400.9,526.5z"/>
<path class="st27" d="M367,704.9c-1.9,13.5-14.2,23.2-27.8,21.8L76.8,701.2c-24-3.1-40.9-25.3-37.4-49.4
	c3.5-24.2,26.2-40.9,50.3-36.8l257.9,61.3C360.5,679.4,368.9,691.8,367,704.9z"/>
<path class="st27" d="M367,736.8c-68.6-4-113.3-61.6-1.9-85.4c18.5-3.1,54.2-5.4,57.1,4.1c3.8,12.4-36.7,12.6-36.8,22
	c-0.1,9.7,8.3,10.2,26.9,17.8c11.7,4.7,18.9,1.8,28,7.7C458.2,714.6,437.2,748.9,367,736.8z"/>
<path class="st35" d="M295.4,229.9c2.8,0.1,2,5,3.7,7.2c2.1,4.7,5.6,9.8,10.8,15.2c0.7,0.7,0.6,1.9-0.1,2.5
	c-5.1,4.4-9.7,8.3-14.5,11.8c-1.9,1.3-3.8-1.7-1.9-2.9c4.3-3.1,8.3-6.5,12.8-10.3C302.2,249.5,289.7,232.5,295.4,229.9z"/>
<path class="st35" d="M266.3,335.2c0.3-0.9,1.3-1.4,2.2-1.1c11.5,4.1,23,5.2,34.1,3.6C315.2,344.9,264.5,342,266.3,335.2z"/>
<path class="st35" d="M715.3,276.2c1.2,1.1,0.2,2.5-0.7,3.3c-3,3.4-6,6.9-8.7,10.6c-5,6.3-14.1,21.7-6,24.2c0.9,0.4,1.3,1.4,0.9,2.3
	c-0.4,0.9-1.4,1.3-2.3,0.9c-11.5-3.8-2.2-21.1,4.5-29.5c2.7-3.6,5.5-7,8.4-10.3C712.4,276.7,713.9,274.7,715.3,276.2z"/>
<path class="st35" d="M722.1,297.6c0.9,1.2-0.1,2.5-1.2,3.1c-3.2,2.5-6.3,5.3-9.2,8.2c-18.7,16.7-5.8,27,8.6,9.1
	c1.1-2.5,4.8-0.9,3.3,1.5c-0.5,0.6-0.9,1.1-1.5,1.8c-9.6,14.3-33.3,12.5-19.1-7.8C704.6,311.2,720,293.8,722.1,297.6z"/>
<path class="st35" d="M726.4,314.7c2.2-0.4,2.8,3.1,0.5,3.4c-2.3,0.4-5.3,2.5-8.8,6.7c-7.5,8.8-9,14.5-6.8,15.8
	c2.3,1.3,7.7-1.1,11.3-6.2c1.2-1.8,3.9-0.1,3,1.8c-13.4,29.8-41.7,21.6-46.4,49.5c-0.4,2.2-3.9,1.5-3.4-0.7
	c2.5-24.3,29.1-24.4,41.3-41.6C695.2,350,714.3,316.5,726.4,314.7z"/>
<path class="st35" d="M679.2,293.3c1-0.1,1.8,0.7,1.9,1.6c0,0,2.1,25.5,2.1,25.5c6.8,12.2,12,28.3,5,41c-0.5,0.8-1.5,1.1-2.4,0.6
	c-0.8-0.5-1.1-1.5-0.6-2.4c6.3-11.6,1-26.7-5.2-37.8c-0.1-0.2-0.2-0.5-0.3-0.8c0,0-2.1-25.9-2.1-25.9
	C677.5,294.2,678.3,293.3,679.2,293.3z"/>
<path class="st35" d="M387.4,702.2c0.7-1,2.1-0.8,2.9,0c3.2,2.2,6.9,4,11.1,5.7c11.5,4.6,24.9,7,40.1,5.9c1-0.1,1.8,0.6,1.9,1.6
	c-4.3,6.6-38.5-1.6-43.2-4.2C397,709.4,385.5,705.8,387.4,702.2z"/>
<path class="st35" d="M378.5,717.3c1.1-2.1,3.4-0.2,4.9,0.3c13.3,5.6,27.3,7.4,39,6.9c1.8,0.1,4.5-1,4.8,1.4
	C428.1,732.2,377.9,724.7,378.5,717.3z"/>
<path class="st35" d="M363.6,726c0.6-1,1.9-1,2.8-0.4c11.7,5.5,22.9,7.3,37.8,8.3C415.6,742.8,358.3,731.5,363.6,726z"/>
</svg>
