<svg width="1133" height="1067" viewBox="0 0 1133 1067" fill="none" xmlns="http://www.w3.org/2000/svg">
<path fill-rule="evenodd" clip-rule="evenodd" d="M960.016 235.287H527.068V206.054C527.068 199.713 532.34 194.571 538.843 194.571H948.24C954.744 194.571 960.016 199.713 960.016 206.054V235.287Z" fill="#253368"/>
<path fill-rule="evenodd" clip-rule="evenodd" d="M557.426 213.688C557.426 217.667 554.138 220.894 550.082 220.894C546.026 220.894 542.738 217.667 542.738 213.688C542.738 209.708 546.026 206.481 550.082 206.481C554.138 206.481 557.426 209.708 557.426 213.688Z" fill="#FF7946"/>
<path fill-rule="evenodd" clip-rule="evenodd" d="M584.848 213.688C584.848 217.667 581.56 220.894 577.504 220.894C573.448 220.894 570.16 217.667 570.16 213.688C570.16 209.708 573.448 206.481 577.504 206.481C581.56 206.481 584.848 209.708 584.848 213.688Z" fill="#FAAD14"/>
<path fill-rule="evenodd" clip-rule="evenodd" d="M612.27 213.688C612.27 217.667 608.982 220.894 604.926 220.894C600.87 220.894 597.582 217.667 597.582 213.688C597.582 209.708 600.87 206.481 604.926 206.481C608.982 206.481 612.27 209.708 612.27 213.688Z" fill="#7CB305"/>
<path fill-rule="evenodd" clip-rule="evenodd" d="M539.764 526.502C532.512 526.502 526.633 521.216 526.633 514.696V233.577H960.162V514.696C960.162 521.216 954.283 526.502 947.031 526.502H539.764Z" fill="#E4EBF7"/>
<path d="M929.526 255.059H561.175C558.275 255.059 555.925 257.409 555.925 260.308V495.866C555.925 498.765 558.275 501.115 561.175 501.115H929.526C932.425 501.115 934.775 498.765 934.775 495.866V260.308C934.775 257.409 932.425 255.059 929.526 255.059Z" fill="white"/>
<path d="M882.048 307.785H694.576C692.419 307.785 690.671 309.534 690.671 311.691V331.219C690.671 333.376 692.419 335.125 694.576 335.125H882.048C884.205 335.125 885.954 333.376 885.954 331.219V311.691C885.954 309.534 884.205 307.785 882.048 307.785Z" fill="#FAAD14"/>
<path d="M882.048 403.474H811.746C809.589 403.474 807.841 405.222 807.841 407.379V426.908C807.841 429.065 809.589 430.813 811.746 430.813H882.048C884.205 430.813 885.954 429.065 885.954 426.908V407.379C885.954 405.222 884.205 403.474 882.048 403.474Z" fill="#FF7946"/>
<path d="M882.048 360.512H811.746C809.589 360.512 807.841 362.26 807.841 364.417V383.946C807.841 386.103 809.589 387.851 811.746 387.851H882.048C884.205 387.851 885.954 386.103 885.954 383.946V364.417C885.954 362.26 884.205 360.512 882.048 360.512Z" fill="#597EF7"/>
<path fill-rule="evenodd" clip-rule="evenodd" d="M642.351 309.737H662.83L708.246 428.86H688.924L677.859 398.162H627.157L616.092 428.86H596.935L642.351 309.737ZM632.086 383.945H671.142L652.019 331.218H651.371L632.086 383.945ZM752.531 356.605C761.728 356.605 768.504 359.056 772.861 363.958C776.612 368.215 778.548 374.407 778.548 382.533V425.101H766.689V415.685C764.269 419.039 761.244 421.747 757.614 423.682C753.499 425.746 748.659 426.907 743.093 426.907C736.558 426.907 731.476 425.101 727.846 421.618C723.852 418.136 721.916 413.621 721.916 408.074C721.916 400.592 724.699 394.788 730.266 390.789C735.348 386.919 742.609 384.984 751.805 384.726L765.842 384.339V381.63C765.842 372.343 761.123 367.699 751.684 367.699C747.691 367.699 744.424 368.473 742.004 370.021C739.099 371.827 737.284 374.536 736.558 378.276L723.852 377.115C725.183 369.892 728.572 364.474 733.896 361.12C738.494 358.024 744.787 356.605 752.531 356.605ZM768.784 395.662L755.376 396.037C743.443 396.286 737.539 400.533 737.539 408.526C737.539 411.023 738.523 413.022 740.614 414.645C742.582 416.269 745.289 417.143 748.61 417.143C754.146 417.143 758.82 415.395 762.756 412.023C766.693 408.651 768.784 404.404 768.784 399.409V395.662Z" fill="#253368"/>
<path d="M886.696 456.2C887.235 456.2 887.672 456.637 887.672 457.177C887.672 457.691 887.274 458.113 886.769 458.15L886.696 458.153H719.963C719.424 458.153 718.987 457.716 718.987 457.177C718.987 456.662 719.385 456.24 719.89 456.203L719.963 456.2H886.696Z" fill="#253368"/>
<path d="M613.964 463.081V456.051H616.244V455.004H613.964V454.114C613.964 453.723 614.042 453.442 614.198 453.27C614.354 453.083 614.62 453.005 614.963 453.005H616.354V451.927H614.807C614.12 451.927 613.589 452.114 613.229 452.505C612.886 452.88 612.714 453.395 612.714 454.083V455.004H610.683V456.051H612.714V463.081H613.964ZM621.009 463.3C622.212 463.3 623.181 462.878 623.915 462.035C624.587 461.253 624.931 460.254 624.931 459.051C624.931 457.832 624.587 456.832 623.9 456.035C623.181 455.192 622.212 454.786 621.009 454.786C619.791 454.786 618.838 455.192 618.119 456.035C617.432 456.832 617.088 457.832 617.088 459.051C617.088 460.254 617.432 461.253 618.119 462.035C618.838 462.878 619.791 463.3 621.009 463.3ZM621.009 462.253C620.15 462.253 619.478 461.925 619.01 461.269C618.572 460.675 618.369 459.941 618.369 459.051C618.369 458.145 618.572 457.41 619.01 456.817C619.478 456.16 620.15 455.832 621.009 455.832C621.853 455.832 622.525 456.16 623.025 456.817C623.446 457.41 623.665 458.145 623.665 459.051C623.665 459.926 623.446 460.675 623.025 461.269C622.525 461.925 621.853 462.253 621.009 462.253ZM627.805 463.081V458.207C627.852 457.473 628.086 456.895 628.524 456.457C628.93 456.051 629.414 455.848 629.977 455.848C631.383 455.848 632.101 456.629 632.101 458.207V463.081H633.351V458.113C633.351 455.895 632.336 454.786 630.336 454.786C629.805 454.786 629.321 454.911 628.883 455.161C628.446 455.395 628.086 455.739 627.805 456.192V455.004H626.555V463.081H627.805ZM639.241 463.081V462.035H638.21C637.929 462.035 637.726 461.956 637.616 461.831C637.491 461.706 637.444 461.488 637.444 461.191V456.051H639.444V455.004H637.444V452.395L636.21 452.911V455.004H634.585V456.051H636.21V461.191C636.21 461.8 636.335 462.253 636.601 462.566C636.882 462.909 637.366 463.081 638.022 463.081H639.241ZM649.396 463.3C650.614 463.3 651.52 462.784 652.083 461.753V463.081H653.254V451.708H652.005V456.489C651.38 455.348 650.489 454.786 649.333 454.786C648.177 454.786 647.287 455.207 646.63 456.082C646.021 456.863 645.724 457.832 645.724 459.019C645.724 460.238 646.021 461.238 646.63 462.019C647.287 462.863 648.208 463.3 649.396 463.3ZM649.552 462.269C648.677 462.269 648.021 461.941 647.583 461.316C647.193 460.754 647.005 459.988 647.005 459.019C647.005 458.051 647.193 457.301 647.599 456.754C648.037 456.129 648.708 455.817 649.599 455.817C650.317 455.817 650.911 456.098 651.364 456.692C651.802 457.27 652.036 458.035 652.036 458.973V459.129C652.036 460.035 651.833 460.769 651.442 461.332C650.989 461.956 650.364 462.269 649.552 462.269ZM658.566 463.3C659.613 463.3 660.472 462.988 661.144 462.394C661.691 461.894 662.05 461.269 662.238 460.488H660.988C660.785 461.05 660.519 461.472 660.175 461.753C659.769 462.081 659.222 462.253 658.566 462.253C657.801 462.253 657.191 462.003 656.754 461.503C656.317 461.003 656.082 460.3 656.02 459.394H662.394C662.362 457.988 662.05 456.879 661.456 456.098C660.8 455.223 659.816 454.786 658.519 454.786C657.348 454.786 656.426 455.207 655.738 456.051C655.051 456.848 654.723 457.848 654.723 459.035C654.723 460.347 655.067 461.378 655.785 462.16C656.473 462.909 657.41 463.3 658.566 463.3ZM661.097 458.426H656.051C656.129 457.629 656.379 457.004 656.816 456.535C657.254 456.067 657.832 455.832 658.551 455.832C660.082 455.832 660.941 456.692 661.097 458.426ZM666.862 463.3C669.143 463.3 670.283 462.456 670.283 460.8C670.283 460.097 669.955 459.551 669.315 459.144C668.893 458.879 668.205 458.629 667.237 458.395C666.424 458.176 665.862 458.004 665.565 457.863C665.096 457.629 664.878 457.332 664.878 456.988C664.878 456.629 665.05 456.348 665.393 456.145C665.706 455.926 666.143 455.832 666.706 455.832C667.346 455.832 667.846 455.957 668.19 456.207C668.502 456.426 668.705 456.801 668.815 457.301H670.033C669.815 455.614 668.721 454.786 666.721 454.786C665.815 454.786 665.065 454.989 664.503 455.395C663.894 455.801 663.597 456.332 663.597 457.02C663.597 457.707 663.894 458.223 664.518 458.598C664.893 458.848 665.565 459.082 666.518 459.316C667.393 459.535 667.971 459.707 668.237 459.832C668.737 460.082 669.002 460.425 669.002 460.879C669.002 461.785 668.268 462.253 666.831 462.253C666.143 462.253 665.628 462.128 665.284 461.878C664.94 461.597 664.706 461.144 664.612 460.504H663.394C663.581 462.363 664.737 463.3 666.862 463.3ZM672.783 453.817C673.048 453.817 673.267 453.723 673.455 453.551C673.642 453.364 673.736 453.145 673.736 452.88C673.736 452.598 673.642 452.38 673.455 452.224C673.267 452.036 673.048 451.958 672.783 451.958C672.517 451.958 672.299 452.036 672.111 452.224C671.924 452.38 671.845 452.598 671.845 452.88C671.845 453.145 671.924 453.364 672.111 453.551C672.299 453.723 672.517 453.817 672.783 453.817ZM673.408 463.081V455.004H672.158V463.081H673.408ZM679.36 466.393C681.813 466.393 683.047 465.097 683.047 462.519V455.004H681.797V456.395C681.203 455.317 680.297 454.786 679.079 454.786C677.954 454.786 677.063 455.176 676.407 455.973C675.751 456.723 675.439 457.676 675.439 458.863C675.439 460.035 675.751 460.988 676.407 461.738C677.063 462.503 677.954 462.894 679.079 462.894C680.297 462.894 681.203 462.347 681.797 461.269V462.691C681.797 464.472 680.985 465.378 679.36 465.378C678.626 465.378 678.079 465.237 677.72 464.972C677.36 464.722 677.126 464.315 677.032 463.769H675.782C675.923 464.644 676.282 465.3 676.86 465.737C677.423 466.175 678.266 466.393 679.36 466.393ZM679.251 461.847C678.376 461.847 677.735 461.535 677.298 460.941C676.907 460.41 676.72 459.707 676.72 458.863C676.72 457.957 676.938 457.223 677.376 456.692C677.829 456.098 678.454 455.817 679.266 455.817C680.063 455.817 680.688 456.098 681.157 456.692C681.594 457.223 681.813 457.957 681.813 458.863C681.813 459.738 681.594 460.457 681.157 461.003C680.688 461.566 680.063 461.847 679.251 461.847ZM686.234 463.081V458.207C686.281 457.473 686.515 456.895 686.953 456.457C687.359 456.051 687.843 455.848 688.405 455.848C689.812 455.848 690.53 456.629 690.53 458.207V463.081H691.78V458.113C691.78 455.895 690.764 454.786 688.765 454.786C688.234 454.786 687.749 454.911 687.312 455.161C686.874 455.395 686.515 455.739 686.234 456.192V455.004H684.984V463.081H686.234Z" fill="#253368"/>
<g clip-path="url(#clip0_11021_14029)">
<path d="M676.781 796.912L626.314 834.337H878.248L827.504 796.912H676.781Z" fill="#E4EBF7"/>
<path d="M827.504 834.302L878.248 834.337L827.504 796.912V834.302Z" fill="#A3B5D6"/>
<path d="M669.421 730.395L712.435 976.606C713.419 982.242 718.794 986.02 724.43 985.031L743.582 981.686C749.218 980.697 752.996 975.328 752.007 969.692L708.998 723.48L669.421 730.395Z" fill="#FFA940"/>
<path d="M675.225 688.625L669.427 730.418L708.998 723.503L690.477 685.963L675.225 688.625Z" fill="#FFE7BA"/>
<path d="M679.766 670.3C679.419 670.357 679.141 670.635 679.078 670.982L675.71 688.566L690.176 686.038L680.663 670.693C680.501 670.438 680.223 670.282 679.928 670.282C679.87 670.282 679.818 670.288 679.766 670.3Z" fill="#253368"/>
<path d="M681.363 728.451L726.136 984.736L742.291 981.912L697.524 725.621L681.363 728.451Z" fill="#FE9921"/>
<path d="M736.436 965.334L735.753 984.943C735.539 991.007 740.284 996.093 746.347 996.301C752.411 996.515 757.497 991.771 757.711 985.713L758.388 966.098L736.442 965.334H736.436Z" fill="#253368"/>
<path d="M756.536 671.862L755.327 678.8C755.061 680.316 756.085 681.768 757.601 682.028C759.123 682.295 760.569 681.276 760.836 679.755L762.045 672.817C762.311 671.295 761.293 669.849 759.771 669.582C759.609 669.559 759.447 669.542 759.285 669.542C757.954 669.542 756.774 670.497 756.536 671.862Z" fill="#50548B"/>
<path d="M695.319 947.3C694.33 952.941 698.114 958.311 703.755 959.294L715.113 961.273C720.755 962.251 726.124 958.478 727.102 952.837L768.624 714.448L736.835 708.911L695.319 947.3Z" fill="#597EF7"/>
<path d="M753.718 678.742L736.834 708.911L768.64 714.454L762.438 680.235C762.305 679.517 761.738 678.95 761.014 678.834L755.529 677.88C755.431 677.862 755.332 677.856 755.234 677.856C754.615 677.856 754.03 678.186 753.718 678.742Z" fill="#E4EBF7"/>
<path d="M621.188 704.172L610.252 711.775C609.002 712.643 608.54 714.275 609.147 715.669L615.778 730.852C616.478 732.472 618.364 733.207 619.985 732.501L631.956 727.276C633.576 726.565 634.317 724.684 633.611 723.064L625.95 705.509C625.568 704.635 624.81 703.976 623.884 703.715C623.607 703.64 623.312 703.6 623.028 703.6C622.374 703.6 621.738 703.791 621.188 704.172Z" fill="#FF7946"/>
<path d="M619.342 773.924L702.245 963.86L747.094 944.285L664.19 754.35L619.342 773.924Z" fill="#FF7946"/>
<path d="M619.342 773.924L626.603 790.548L671.452 770.979L664.19 754.35L619.342 773.924Z" fill="#253368"/>
<path d="M613.77 728.138L614.881 763.688L619.342 773.923L664.19 754.349L659.758 744.194L633.026 719.73L613.77 728.138Z" fill="#E4EBF7"/>
<path d="M614.869 763.867L619.336 774.097L664.179 754.517L659.712 744.293L614.869 763.867Z" fill="#F5F5F5"/>
<path d="M674.338 808.722L650.546 810.365C649.956 810.405 649.417 810.735 649.111 811.244C648.798 811.748 648.758 812.379 648.995 812.928L649.151 813.281C649.464 813.993 650.187 814.433 650.962 814.375L658.976 813.785C659.751 813.727 660.481 814.172 660.793 814.884L662.83 819.553C665.347 825.322 669.49 827.943 675.096 827.428C680.703 826.919 682.265 823.835 679.829 818.251L676.144 809.821C675.849 809.15 675.183 808.722 674.454 808.722C674.419 808.722 674.379 808.722 674.338 808.722ZM669.31 822.684C668.269 821.955 667.337 820.734 666.591 819.021L665.173 815.775C664.936 815.231 664.976 814.606 665.283 814.097C665.59 813.588 666.128 813.258 666.718 813.218L672.134 812.818C672.909 812.766 673.632 813.2 673.945 813.912L675.843 818.269C676.572 819.929 676.734 821.214 676.381 822.053C676.022 822.892 675.062 823.418 673.401 823.563C673.129 823.586 672.851 823.598 672.591 823.598C671.289 823.598 670.172 823.297 669.31 822.684Z" fill="white"/>
<path d="M683.591 830.02L660.065 832.271C659.486 832.329 658.96 832.659 658.664 833.162C658.364 833.666 658.329 834.285 658.555 834.817L664.792 849.103C665.116 849.838 665.88 850.278 666.678 850.185C667.251 850.121 667.766 849.78 668.055 849.282C668.345 848.779 668.379 848.171 668.142 847.639L664.092 838.347C663.866 837.808 663.901 837.195 664.196 836.692C664.491 836.194 665.012 835.859 665.59 835.806L670.046 835.401C670.833 835.326 671.573 835.76 671.892 836.483L676.214 846.378C676.538 847.113 677.307 847.558 678.106 847.471C678.679 847.402 679.188 847.061 679.483 846.557C679.766 846.06 679.801 845.446 679.57 844.914L676.191 837.172C675.959 836.634 676 836.021 676.295 835.523C676.59 835.025 677.111 834.69 677.689 834.632L681.439 834.256C682.226 834.181 682.972 834.609 683.29 835.332L687.879 845.834C688.203 846.574 688.966 847.008 689.765 846.916C690.344 846.846 690.858 846.511 691.142 846.002C691.431 845.487 691.46 844.873 691.211 844.341L685.431 831.102C685.136 830.431 684.482 830.009 683.765 830.009C683.707 830.009 683.649 830.015 683.591 830.02Z" fill="white"/>
<path d="M626.98 880.018V1000.58C626.98 1005.78 631.198 1010 636.4 1010H868.707C873.909 1010 878.127 1005.78 878.127 1000.58V880.018H626.98Z" fill="#597EF7"/>
<path d="M626.979 852.522V922.766L878.126 902.734V852.522H626.979Z" fill="#3D60E0"/>
<g clip-path="url(#clip1_11021_14029)">
<path d="M770.79 849.746C786.002 858.529 805.726 852.88 814.815 837.138L831.28 808.618L803.721 792.707C788.508 783.924 768.785 789.573 759.696 805.315C750.607 821.058 755.577 840.963 770.79 849.746Z" fill="#0ACF83"/>
<path d="M825.725 690.949C834.845 675.154 854.593 669.462 869.805 678.245L897.365 694.157L864.322 751.387L836.763 735.476C821.551 726.693 816.606 706.745 825.725 690.949Z" fill="#F24E1E"/>
<path d="M897.365 694.156L924.924 710.068C940.136 718.851 945.081 738.798 935.962 754.594C926.842 770.39 907.094 776.081 891.881 767.298L864.322 751.387L897.365 694.156Z" fill="#FF7262"/>
<path d="M903.03 811.633C893.911 827.429 874.163 833.12 858.95 824.337C843.737 815.554 838.792 795.606 847.912 779.811C857.032 764.015 876.78 758.324 891.992 767.107C907.205 775.89 912.15 795.838 903.03 811.633Z" fill="#1ABCFE"/>
<path d="M792.794 747.988C801.914 732.193 821.662 726.501 836.874 735.284L864.433 751.196L831.391 808.426L803.832 792.515C788.619 783.732 783.674 763.784 792.794 747.988Z" fill="#A259FF"/>
</g>
<path d="M626.331 834.336L601.827 888.245C600.896 890.195 601.023 892.481 602.169 894.309C603.32 896.132 605.328 897.243 607.48 897.249H896.7C898.904 897.249 900.953 896.091 902.087 894.199C903.221 892.307 903.284 889.958 902.255 888.02L878.248 834.336H626.331Z" fill="#E4EBF7"/>
</g>
<path d="M815.313 564.688H811.688C802.851 564.688 795.688 571.851 795.688 580.687L795.688 584.312C795.688 593.149 802.851 600.312 811.688 600.312H815.313C824.149 600.312 831.313 593.149 831.313 584.312V580.688C831.313 571.851 824.149 564.688 815.313 564.688Z" fill="#597EF7"/>
<path d="M809.188 649.5C809.188 655.195 813.805 659.812 819.5 659.812C825.195 659.812 829.813 655.195 829.813 649.5C829.813 643.805 825.195 639.188 819.5 639.188C813.805 639.188 809.188 643.805 809.188 649.5Z" fill="#597EF7"/>
<path d="M732.375 636.812L732.375 636.187C732.375 630.319 737.132 625.562 743 625.562C748.868 625.562 753.625 630.319 753.625 636.188V636.813C753.625 642.681 748.868 647.438 743 647.438C737.132 647.438 732.375 642.681 732.375 636.812Z" fill="#597EF7"/>
<g clip-path="url(#clip2_11021_14029)">
<path fill-rule="evenodd" clip-rule="evenodd" d="M155.713 1914.82C136.233 1912.41 122.134 1899.45 123.767 1879.9L158.751 1457.24C161.27 1427.11 188.355 1405.12 218.368 1408.84C248.385 1412.55 269.288 1440.48 264.383 1470.31L191.882 1888.88C188.698 1908.24 175.193 1917.23 155.713 1914.82Z" fill="#FFC999"/>
<path fill-rule="evenodd" clip-rule="evenodd" d="M394.331 1908.84C413.957 1909.3 430.442 1894.19 431.684 1874.61L458.232 1455.73C460.147 1425.56 436.568 1399.85 406.334 1399.14C376.092 1398.42 351.332 1422.99 351.826 1453.23L358.633 1872.89C358.95 1892.51 374.705 1908.38 394.331 1908.84Z" fill="#FFC999"/>
<path fill-rule="evenodd" clip-rule="evenodd" d="M415.543 1007.89C451.171 1008.72 479.123 1038.72 477.436 1074.3L459.317 1456.91C457.921 1486.38 433.253 1509.34 403.751 1508.65C374.249 1507.95 350.691 1483.85 350.687 1454.35L350.59 1071.32C350.581 1035.69 379.916 1007.05 415.543 1007.89Z" fill="#FFC999"/>
<path fill-rule="evenodd" clip-rule="evenodd" d="M266.467 1020.44C231.1 1016.06 199.061 1041.65 195.525 1077.1L157.507 1458.24C154.579 1487.6 175.622 1513.93 204.909 1517.55C234.195 1521.17 261.025 1500.77 265.349 1471.59L321.447 1092.69C326.665 1057.44 301.834 1024.82 266.467 1020.44Z" fill="#FFC999"/>
<path fill-rule="evenodd" clip-rule="evenodd" d="M513.545 415.344C513.545 415.344 559.573 400.972 579.996 448.776C628.313 458.073 623.831 509.86 623.831 509.86C623.831 509.86 653.025 545.309 610.673 572.631C613.443 613.295 566.715 613.295 566.715 613.295C566.715 613.295 560.74 646.01 524.073 638.795C491.361 673.816 420.027 679.248 389.345 647.735C345.695 692.652 252.217 661.297 257.633 625.801C199.183 631.554 161.293 574.66 186.872 517.097C154.216 480.025 180.02 450.933 180.02 450.933C180.02 450.933 156.66 357.517 220.222 334.27C245.77 277.869 325.224 307.203 325.224 307.203C325.224 307.203 371.912 289.46 395.932 328.592C451.225 328.257 453.44 358.318 461.573 382.55C510.304 377.563 513.545 415.344 513.545 415.344Z" fill="#9E7D6C"/>
<path fill-rule="evenodd" clip-rule="evenodd" d="M356.408 393.035C319.636 405.726 303.555 378.941 303.555 378.941C303.555 378.941 281.49 341.129 281.455 366.519C281.433 380.01 258.298 365.81 251.191 381.326C246.409 391.768 264.088 401.408 247.668 429.839C238.153 446.307 286.743 450.462 262.212 481.935C262.212 481.935 287.963 511.45 254.463 527.776L256.884 566.821C258.293 589.543 279.002 606.094 301.49 602.462C322.925 599.003 337.267 578.521 333.189 557.198L324.26 510.547C378.931 501.805 369.578 426.261 356.408 393.035Z" fill="#FFC2BD"/>
<path fill-rule="evenodd" clip-rule="evenodd" d="M672.035 569.864L699.776 471.861C699.776 471.861 745.209 392.342 761.616 397.232C776.856 403.901 742.409 426.663 735.579 449.13C750.084 448.091 743.496 469.66 743.496 469.66C743.496 469.66 755.042 469.242 751.937 486.814C762.659 493.157 754.064 513.327 754.064 513.327C754.064 513.327 732.523 566.453 708.657 601.888C708.657 601.888 669.062 632.454 672.035 569.864Z" fill="#FFC2BD"/>
<path fill-rule="evenodd" clip-rule="evenodd" d="M678.199 536.751C678.199 536.751 682.338 503.139 685.433 486.02C688.529 468.897 681.294 437.974 693.786 446.165C702.184 451.677 700.722 470.072 700.418 483.638C700.118 497.201 722.034 529.352 705.702 551.607C694.667 566.649 677.27 568.621 678.199 536.751Z" fill="#FFC2BD"/>
<path fill-rule="evenodd" clip-rule="evenodd" d="M703.668 563.193C692.294 555.635 676.984 558.36 668.917 569.377L513.172 782.04C499.504 802.055 504.836 829.377 525.03 842.79C545.4 856.317 572.916 850.414 585.937 829.721L712.004 596.607C718.287 584.991 714.672 570.504 703.668 563.193Z" fill="#FFC2BD"/>
<path d="M293.055 444.174C293.851 443.075 295.387 442.83 296.486 443.625L296.797 443.835C297.003 443.968 297.284 444.143 297.638 444.348C298.651 444.938 299.831 445.533 301.16 446.089C307.325 448.67 314.229 449.522 321.497 447.627C322.81 447.284 324.152 448.071 324.495 449.383C324.837 450.696 324.05 452.037 322.737 452.38C314.329 454.573 306.352 453.588 299.262 450.62C296.62 449.514 294.695 448.393 293.605 447.604C292.505 446.809 292.259 445.273 293.055 444.174Z" fill="#F5222D"/>
<path d="M291.39 405.295C292.679 405.09 293.891 405.968 294.097 407.257C295.53 416.225 289.952 424.65 281.514 426.004C273.079 427.348 265.148 421.08 263.716 412.114C263.51 410.824 264.389 409.612 265.679 409.407C266.968 409.201 268.181 410.079 268.386 411.368C269.42 417.84 275.005 422.254 280.767 421.336C286.534 420.41 290.461 414.478 289.427 408.002C289.221 406.713 290.1 405.501 291.39 405.295Z" fill="#253368"/>
<path d="M350.556 397.478C351.779 397.282 352.93 398.114 353.126 399.337C354.546 408.199 349.65 416.507 341.934 417.74C334.219 418.973 326.976 412.61 325.556 403.749C325.36 402.526 326.193 401.375 327.416 401.179C328.64 400.984 329.79 401.816 329.986 403.039C331.041 409.621 336.163 414.12 341.226 413.311C346.288 412.502 349.75 406.628 348.695 400.047C348.499 398.824 349.332 397.674 350.556 397.478Z" fill="#253368"/>
<path d="M266.746 381.49C274.509 378.483 282.701 378.335 290.319 379.87L291.544 380.134C292.681 380.395 293.549 380.644 294.106 380.833C295.343 381.252 296.006 382.594 295.586 383.83C295.167 385.067 293.824 385.729 292.588 385.31L292.067 385.147C291.448 384.967 290.539 384.737 289.384 384.505C282.575 383.132 275.254 383.264 268.455 385.898C265.287 387.125 262.356 388.869 259.701 391.183C258.716 392.041 257.223 391.938 256.364 390.954C255.506 389.97 255.608 388.477 256.593 387.619C259.67 384.937 263.075 382.912 266.746 381.49Z" fill="#253368"/>
<path fill-rule="evenodd" clip-rule="evenodd" d="M576.178 839.085C596.266 825.087 601.193 797.461 587.187 777.38L450.728 581.722C436.721 561.645 409.09 556.715 389.002 570.713C368.918 584.711 363.991 612.337 377.994 632.418L514.457 828.076C528.459 848.157 556.09 853.083 576.178 839.085Z" fill="#FFC999"/>
<path d="M376.141 632.001C376.705 631.608 377.457 631.687 377.928 632.155L378.091 632.348L435.126 714.126L506.163 663.469C506.723 663.07 507.476 663.142 507.952 663.604L508.117 663.796C508.516 664.355 508.444 665.108 507.982 665.584L507.79 665.748L435.602 717.228C435.038 717.63 434.278 717.555 433.804 717.084L433.64 716.889L375.793 633.949C375.351 633.315 375.507 632.443 376.141 632.001Z" fill="#4E5C93"/>
<path fill-rule="evenodd" clip-rule="evenodd" d="M435.842 715.36L377.991 632.416C364.046 612.422 368.999 584.655 389.004 570.715C409.004 556.774 436.78 561.726 450.725 581.724L508.025 663.876L435.842 715.36Z" fill="#138585"/>
<path fill-rule="evenodd" clip-rule="evenodd" d="M416.386 642.575C425.858 663.206 443.405 698.72 445.585 722.182C449.125 760.223 424.352 788.527 424.352 788.527C424.352 788.527 424.101 777.342 421.697 875.895C308.214 895.796 235.859 874.636 235.859 874.636L238.069 848.511L219.642 786.758C219.642 786.758 208.444 763.758 185.437 712.454C169.444 676.786 170.553 632.569 172.72 608.927C173.649 598.798 168.836 577.652 178.889 576.072C213.045 570.701 236.748 567.809 236.748 567.809L240.905 555.039C241.46 551.175 244.771 548.305 248.677 548.305H336.497C340.081 548.305 343.208 550.73 344.097 554.203L350.253 567.809L396.536 569.46C404.643 571.049 411.653 596.439 412.498 604.653L416.386 642.575Z" fill="#138585"/>
<path d="M235.636 571.297C236.351 570.73 237.358 570.781 238.012 571.376L238.215 571.594L317.505 671.536L348.278 578.309C348.564 577.443 349.433 576.933 350.306 577.071L350.597 577.141C351.463 577.427 351.974 578.296 351.836 579.169L351.765 579.46L319.929 675.922C319.502 677.216 317.891 677.584 316.94 676.697L316.747 676.487L235.338 573.876C234.708 573.081 234.841 571.927 235.636 571.297Z" fill="#CCD7EE"/>
<path fill-rule="evenodd" clip-rule="evenodd" d="M340.912 683.106C349.244 697.148 345.487 714.76 332.529 722.446C319.57 730.127 302.309 724.968 293.982 710.926C285.651 696.88 289.402 679.268 302.366 671.587C315.325 663.905 332.581 669.064 340.912 683.106Z" fill="#CCD7EE"/>
<path fill-rule="evenodd" clip-rule="evenodd" d="M343.905 683.038C352.237 697.08 348.481 714.692 335.522 722.373C322.563 730.058 305.302 724.899 296.97 710.853C288.644 696.811 292.395 679.199 305.359 671.518C318.313 663.837 335.574 668.996 343.905 683.038Z" fill="#E4EBF7"/>
<path fill-rule="evenodd" clip-rule="evenodd" d="M338.616 685.484C345.085 696.388 342.17 710.06 332.104 716.024C322.042 721.989 308.643 717.987 302.179 707.084C295.71 696.181 298.621 682.509 308.687 676.544C318.749 670.575 332.148 674.581 338.616 685.484Z" fill="#FAAD14"/>
<path d="M172.76 607.525C173.533 607.549 174.142 608.193 174.12 608.966L173.998 614.532L173.979 615.594C173.789 626.684 173.769 638.401 174.029 649.367L174.112 652.523C174.461 664.423 175.143 673.987 176.215 680.42C177.432 687.714 182.105 700.106 189.348 716.075C190.614 718.866 191.947 721.74 193.339 724.684C197.174 732.797 201.284 741.085 205.395 749.1L207.471 753.126L210.811 759.499L210.965 759.817L240.727 848.523L240.793 849.105L238.26 874.85L240.463 875.282C241.091 875.401 241.758 875.524 242.464 875.652L243.552 875.846C248.877 876.787 255.048 877.729 261.99 878.608C309.387 884.609 363.036 884.639 418.302 874.782L420.554 874.371L420.744 867.209C420.885 862.52 421.097 856.076 421.37 848.132L422.459 817.421L423.406 791.578L423.58 790.952L424.259 789.692L425.343 787.612C425.65 787.015 425.968 786.388 426.297 785.731L426.797 784.726C429.218 779.834 431.64 774.529 433.899 769.001C437.111 761.141 439.723 753.491 441.521 746.305C443.259 739.358 444.185 733.038 444.185 727.495C444.185 713.619 442.344 702.971 438.214 691.987C436.146 686.487 433.491 680.809 429.665 673.562L427.761 670.017C425.19 665.302 420.223 656.347 417.349 651.171L415.16 647.228L414.987 646.606L414.102 623.166C414.073 622.394 414.676 621.744 415.449 621.715C416.136 621.689 416.726 622.162 416.869 622.81L416.901 623.061L417.771 646.164L429.244 666.893L431.355 670.773L432.905 673.71C436.378 680.372 438.862 685.753 440.835 691.002C445.087 702.309 446.985 713.291 446.985 727.495C446.985 733.291 446.027 739.831 444.238 746.984C442.404 754.312 439.751 762.085 436.492 770.06C434.532 774.855 432.453 779.482 430.357 783.822L429.308 785.968C428.793 787.007 428.3 787.984 427.834 788.892L426.191 792.013L423.901 856.141C423.564 866.227 423.368 872.853 423.346 875.157L423.344 875.542C423.344 876.217 422.863 876.796 422.199 876.919C365.425 887.448 310.27 887.543 261.638 881.385C255.348 880.589 249.684 879.741 244.701 878.888L243.065 878.603C241.936 878.404 240.893 878.213 239.939 878.032L236.443 877.332C235.837 877.198 235.402 876.687 235.349 876.089L235.351 875.828L237.975 849.125L208.403 760.923L206.888 758.06C205.686 755.771 204.345 753.192 202.902 750.378C198.779 742.337 194.656 734.023 190.807 725.881L188.755 721.499C188.42 720.777 188.09 720.061 187.764 719.35L186.798 717.231C179.455 701.041 174.724 688.495 173.452 680.88C172.26 673.724 171.548 662.925 171.229 649.433C171.006 639.996 170.989 630.014 171.108 620.348L171.217 613.458L171.32 608.887C171.342 608.114 171.986 607.505 172.76 607.525Z" fill="#146262"/>
<path fill-rule="evenodd" clip-rule="evenodd" d="M89.19 872.085L87.9262 871.596C65.4517 862.872 54.3069 837.588 63.0298 815.121L146.257 600.821C154.984 578.354 180.281 567.213 202.756 575.937L204.02 576.426C226.494 585.15 237.639 610.434 228.912 632.906L145.689 847.197C136.962 869.668 111.665 880.81 89.19 872.085Z" fill="#FFC2BD"/>
<path fill-rule="evenodd" clip-rule="evenodd" d="M237.637 895.53C197.765 898.651 80.1871 1147.42 44.4365 1237.49C49.1965 1255.63 101.217 1290.74 101.217 1290.74C101.217 1290.74 98.1086 1305.18 96.1888 1313.85C130.213 1341.83 196.016 1357.02 196.016 1357.02L196.162 1369.43C301.37 1417.86 442.254 1371.45 442.254 1371.45C442.254 1371.45 444.883 1368.76 442.999 1359.02C490.766 1358.47 593.051 1297.89 593.051 1297.89L578.511 1267.91L620.58 1224.87C620.58 1224.87 506.975 1015.95 472.008 957.508C441.308 906.209 412.514 891.436 412.514 891.436C412.514 891.436 308.38 889.993 237.637 895.53Z" fill="#4E5C93"/>
<path fill-rule="evenodd" clip-rule="evenodd" d="M420.132 895.526L417.129 872.742C417.129 872.742 327.142 873.279 238.887 868.859C236.659 878.975 234.096 897.177 234.096 897.177C241.515 891.084 321.682 908.877 420.132 895.526Z" fill="#4E5C93"/>
<path d="M416.85 939.959C417.641 939.572 418.58 939.828 419.074 940.523L419.221 940.771L592.848 1295.35C593.216 1296.11 593.008 1297.01 592.348 1297.53L591.259 1298.35L589.482 1299.66C589.048 1299.97 588.587 1300.3 588.101 1300.65C584.633 1303.11 580.553 1305.85 575.885 1308.8C562.563 1317.21 547.2 1325.63 529.998 1333.48C503.257 1345.68 474.563 1355.38 444.253 1361.64C443.295 1361.84 442.357 1361.22 442.159 1360.26C441.961 1359.3 442.578 1358.37 443.536 1358.17C473.573 1351.96 502.017 1342.35 528.525 1330.25C545.576 1322.47 560.8 1314.13 573.992 1305.8C578.092 1303.21 581.73 1300.79 584.887 1298.58L586.745 1297.26L589.02 1295.6L416.037 942.329C415.65 941.538 415.906 940.599 416.602 940.106L416.85 939.959Z" fill="#253368"/>
<path d="M206.76 1013.6C207.106 1012.68 208.128 1012.22 209.044 1012.57C209.868 1012.88 210.324 1013.74 210.155 1014.57L210.075 1014.85L96.605 1314.92L98.4669 1316.08L100.724 1317.44C102.688 1318.6 104.857 1319.85 107.22 1321.17C116.68 1326.45 127.281 1331.72 138.768 1336.65C157.49 1344.67 176.702 1350.96 195.92 1354.85C196.879 1355.04 197.5 1355.97 197.306 1356.93C197.112 1357.89 196.177 1358.51 195.217 1358.32C175.743 1354.38 156.304 1348.02 137.371 1339.9C125.765 1334.93 115.056 1329.6 105.493 1324.26C102.622 1322.66 100.031 1321.16 97.7406 1319.78L95.3627 1318.33L93.4647 1317.13C92.8479 1316.72 92.5544 1315.98 92.7029 1315.28L92.7796 1315.02L206.76 1013.6Z" fill="#253368"/>
<path d="M282.814 902.23L283.1 902.268C283.964 902.441 284.555 903.214 284.524 904.066L284.476 904.427L277.687 938.689C275.349 950.549 272.856 963.248 270.236 976.664L268.794 984.052C257.862 1040.11 246.929 1097.19 236.626 1152.39L234.26 1165.09C233.001 1171.87 231.758 1178.58 230.533 1185.22L223.974 1221.02C214.307 1274.19 206.107 1321.21 199.681 1360.67L198.169 1370L200.592 1370.8C203.158 1371.64 205.74 1372.44 208.337 1373.21L212.244 1374.35C275.344 1392.21 342.779 1391.19 406.466 1378.75C416.571 1376.77 425.687 1374.66 433.659 1372.54L435.963 1371.92C437.073 1371.62 438.119 1371.33 439.099 1371.05L441.975 1370.2L362.965 974.324C362.793 973.46 363.28 972.618 364.079 972.319L364.356 972.24C365.22 972.068 366.063 972.555 366.362 973.353L366.441 973.631L445.767 1371.08C445.943 1371.96 445.43 1372.83 444.574 1373.11L441.976 1373.9L440.076 1374.46C438.751 1374.83 437.31 1375.23 435.755 1375.65L434.568 1375.97C426.522 1378.1 417.331 1380.24 407.146 1382.23C342.96 1394.77 274.992 1395.79 211.279 1377.75C205.995 1376.26 200.772 1374.64 195.613 1372.88C194.795 1372.6 194.297 1371.78 194.434 1370.93L196.633 1357.34C202.994 1318.43 211.041 1272.34 220.486 1220.39L224.619 1197.76C226.623 1186.85 228.676 1175.74 230.775 1164.45C240.98 1109.54 251.862 1052.54 262.792 996.329L272.262 947.894L281.015 903.658C281.188 902.795 281.961 902.204 282.814 902.23Z" fill="#253368"/>
<path d="M325.334 909.058C326.214 909.011 326.98 909.612 327.164 910.444L327.204 910.73L345.847 1241.28C345.903 1242.26 345.155 1243.09 344.178 1243.15C343.298 1243.2 342.532 1242.6 342.348 1241.76L342.308 1241.48L323.665 910.929C323.61 909.952 324.357 909.116 325.334 909.058Z" fill="#253368"/>
<path d="M372.713 900.605C373.554 900.343 374.443 900.74 374.824 901.504L374.931 901.771L444.93 1127.06C445.221 1127.99 444.698 1128.99 443.764 1129.28C442.922 1129.54 442.034 1129.14 441.653 1128.38L441.545 1128.11L371.546 902.822C371.255 901.888 371.778 900.895 372.713 900.605Z" fill="#253368"/>
<path d="M243.57 895.405C283.289 897.262 321.845 898.098 356.17 898.095L367.88 898.06C379.977 897.988 390.661 897.805 398.818 897.552L402.698 897.418C403.882 897.372 404.952 897.326 405.893 897.28L407.79 897.177C408.423 897.138 408.944 897.1 409.341 897.065L409.816 897.014L410.021 896.935C410.281 896.854 410.562 896.833 410.843 896.881L411.122 896.953L411.348 896.98C411.775 897.057 411.824 897.334 412.188 899.411L411.461 900.169C411.24 900.38 411.176 900.384 411.016 900.395C410.879 900.435 410.733 900.466 410.557 900.493L410.267 900.532C410.022 900.561 409.71 900.591 409.333 900.622L408.007 900.714C406.304 900.818 403.907 900.925 400.967 901.027L394.865 901.208C386.851 901.415 376.955 901.56 365.977 901.614L364.029 901.623C327.726 901.765 286.24 900.947 243.404 898.945C242.426 898.899 241.671 898.07 241.717 897.092C241.762 896.115 242.592 895.36 243.57 895.405Z" fill="#253368"/>
<path fill-rule="evenodd" clip-rule="evenodd" d="M195.68 718.474L232.29 624.213C241.114 601.49 229.736 575.682 207.006 566.861C184.276 558.04 158.459 569.41 149.631 592.132L113.374 685.5L195.68 718.474Z" fill="#138585"/>
<path d="M336.158 577.386C336.931 577.386 337.558 578.013 337.558 578.786C337.558 579.473 337.063 580.044 336.41 580.163L336.158 580.185H261.046C260.273 580.185 259.646 579.559 259.646 578.786C259.646 578.098 260.141 577.527 260.795 577.408L261.046 577.386H336.158Z" fill="#146262"/>
<path d="M232.176 624.171C232.456 623.451 233.267 623.093 233.988 623.373C234.629 623.622 234.982 624.29 234.856 624.942L234.786 625.185L198.177 719.442C197.926 720.087 197.25 720.44 196.595 720.307L196.351 720.234L114.044 687.26C113.326 686.972 112.977 686.157 113.265 685.44C113.521 684.802 114.193 684.456 114.844 684.589L115.086 684.661L196.079 717.107L232.176 624.171Z" fill="#146262"/>
<path fill-rule="evenodd" clip-rule="evenodd" d="M319.801 878.794L392.416 680.838C393.614 677.576 396.767 675.441 400.241 675.543L580.271 680.679C585.863 680.838 589.606 686.49 587.576 691.702L512.363 884.204C511.156 887.303 508.171 889.341 504.846 889.345L327.406 889.658C321.778 889.666 317.864 884.072 319.801 878.794Z" fill="#4E5C93"/>
<path fill-rule="evenodd" clip-rule="evenodd" d="M329.388 876.745L400.74 682.241C402.188 678.288 406.002 675.708 410.211 675.827L592.469 681.03C596.379 681.14 598.999 685.089 597.572 688.733L521.325 883.903C519.986 887.332 516.684 889.59 513.002 889.599L338.596 889.903C331.784 889.916 327.041 883.141 329.388 876.745Z" fill="#253368"/>
<path fill-rule="evenodd" clip-rule="evenodd" d="M424.89 695.476C426.831 697.827 425.933 701.775 422.877 704.293C419.826 706.815 415.779 706.952 413.837 704.601C411.895 702.25 412.794 698.302 415.845 695.784C418.901 693.262 422.948 693.125 424.89 695.476Z" fill="#4E5C93"/>
<path fill-rule="evenodd" clip-rule="evenodd" d="M422.374 697.741C423.382 698.961 422.916 701.012 421.33 702.319C419.745 703.627 417.641 703.701 416.637 702.482C415.628 701.258 416.095 699.207 417.68 697.9C419.261 696.592 421.366 696.522 422.374 697.741Z" fill="#FFC999"/>
<path fill-rule="evenodd" clip-rule="evenodd" d="M388.437 875.827C386.504 889.341 374.276 898.946 360.683 897.629L98.263 872.2C74.2253 869.066 57.3826 846.898 60.8172 822.912C64.2782 798.707 87.0081 782.116 111.121 786.179L369.045 847.36C381.903 850.411 390.309 862.754 388.437 875.827Z" fill="#FFC2BD"/>
<path fill-rule="evenodd" clip-rule="evenodd" d="M388.481 907.702C388.481 907.702 328.265 901.601 320.52 874.798C313.505 850.526 336.883 840.613 336.883 840.613C336.883 840.613 358.56 827.082 386.583 822.411C405.046 819.339 440.753 817.05 443.676 826.527C447.494 838.883 406.931 839.121 406.856 848.532C406.781 858.185 415.165 858.757 433.8 866.329C445.451 871.061 452.712 868.125 461.822 874.019C479.63 885.538 458.683 919.794 388.481 907.702Z" fill="#FFC2BD"/>
<path d="M316.858 401.704C317.718 401.628 318.487 402.193 318.693 403.003L318.817 403.772C318.86 404 318.924 404.292 319.013 404.644C319.323 405.873 319.816 407.302 320.534 408.91C322.62 413.58 326.105 418.706 331.329 424.114C332.019 424.828 331.971 425.973 331.224 426.627L328.963 428.587C325.667 431.419 322.792 433.768 320.333 435.671L318.595 436.994L316.799 438.291C316.755 438.322 316.716 438.348 316.683 438.37C315.886 438.904 314.807 438.691 314.273 437.895C313.739 437.098 313.952 436.019 314.749 435.485L315.582 434.897L316.522 434.206C316.86 433.954 317.222 433.681 317.608 433.385L318.206 432.925C320.351 431.265 322.826 429.252 325.635 426.863L327.577 425.194L326.85 424.401C322.738 419.823 319.78 415.415 317.801 411.276L317.362 410.326C315.98 407.232 315.398 404.924 315.28 403.586C315.196 402.631 315.902 401.788 316.858 401.704Z" fill="#EFADAB"/>
<path d="M287.769 506.847C288.089 505.943 289.082 505.469 289.986 505.788C301.513 509.862 312.98 511.002 324.048 509.387C324.998 509.249 325.879 509.906 326.018 510.855C326.157 511.804 325.499 512.685 324.55 512.824C312.921 514.521 300.885 513.324 288.828 509.063C287.924 508.743 287.45 507.751 287.769 506.847Z" fill="#EFADAB"/>
<path d="M736.775 447.871C737.47 448.532 737.497 449.631 736.836 450.326L736.032 451.194L735.004 452.333C734.644 452.737 734.268 453.164 733.877 453.613C731.647 456.18 729.416 458.924 727.337 461.729C725.278 464.507 723.481 467.196 722.023 469.733C717.054 478.381 716.641 483.905 721.367 485.875C722.253 486.245 722.671 487.261 722.302 488.147C721.933 489.032 720.916 489.45 720.03 489.081C712.549 485.962 713.125 478.245 719.011 468.003C720.542 465.338 722.411 462.541 724.546 459.661C726.683 456.778 728.969 453.966 731.255 451.335L732.952 449.418L734.319 447.933C734.98 447.238 736.079 447.21 736.775 447.871Z" fill="#EFADAB"/>
<path d="M743.501 469.254C744.085 470.015 743.94 471.105 743.179 471.689L742.333 472.355L741.251 473.232C740.872 473.543 740.475 473.872 740.064 474.219C737.715 476.197 735.367 478.319 733.18 480.494C730.852 482.81 728.847 485.049 727.267 487.151C723.053 492.756 722.395 496.45 725.408 498.296C726.664 499.066 728.077 499.237 729.706 498.857C732.087 498.303 734.778 496.607 737.53 494.119C738.778 492.991 739.953 491.777 741.017 490.563L741.829 489.612C742.051 489.343 742.222 489.127 742.339 488.974C742.92 488.211 744.01 488.064 744.773 488.645C745.536 489.226 745.684 490.316 745.102 491.079L744.521 491.807C744.274 492.107 743.976 492.458 743.63 492.853C742.483 494.161 741.216 495.469 739.86 496.695C736.71 499.543 733.566 501.525 730.494 502.24C728.019 502.816 725.673 502.533 723.592 501.257C718.165 497.932 719.205 492.093 724.489 485.065C726.181 482.815 728.292 480.456 730.73 478.032C732.991 475.783 735.408 473.599 737.825 471.563L739.047 470.547L741.065 468.933C741.827 468.349 742.917 468.493 743.501 469.254Z" fill="#EFADAB"/>
<path d="M747.8 486.379C748.748 486.229 749.637 486.876 749.787 487.824C749.937 488.771 749.29 489.66 748.342 489.81C746.018 490.176 743.048 492.275 739.496 496.456C732.031 505.235 730.485 510.883 732.705 512.181C735.002 513.524 740.454 511.041 743.957 506.032C745.194 504.263 747.906 505.887 746.93 507.812C742.568 516.417 737.454 522.417 731.095 527.083L729.509 528.207C726.847 530.054 725.872 530.581 718.523 534.457L716.805 535.384C706.832 540.901 702.806 545.748 700.501 557.228C700.312 558.169 699.397 558.778 698.456 558.589C697.516 558.4 696.906 557.485 697.095 556.545C699.697 543.585 704.572 538.034 716.009 531.861L722.719 528.292C725.276 526.899 726.173 526.303 728.141 524.927C731.948 522.264 735.28 519.137 738.27 515.221L738.386 515.059L737.959 515.236C735.548 516.151 733.206 516.273 731.366 515.398L730.951 515.178C725.999 512.283 728.145 504.443 736.849 494.207C740.888 489.453 744.5 486.9 747.8 486.379Z" fill="#EFADAB"/>
<path d="M700.652 464.95C701.513 464.879 702.279 465.447 702.481 466.258L702.527 466.537L704.633 491.967L705.285 493.12L705.768 494.018C706.765 495.907 707.761 498.009 708.69 500.274C711.389 506.853 713 513.454 712.966 519.679C712.94 524.537 711.894 528.969 709.68 532.847C709.204 533.68 708.144 533.97 707.31 533.495C706.477 533.019 706.187 531.959 706.663 531.126C708.561 527.801 709.468 523.953 709.492 519.66C709.523 513.96 708.015 507.783 705.476 501.592C704.768 499.867 704.019 498.24 703.263 496.74L702.696 495.64C702.131 494.571 701.697 493.815 701.457 493.426C701.361 493.271 701.291 493.102 701.248 492.927L701.205 492.658L699.065 466.824C698.986 465.868 699.696 465.029 700.652 464.95Z" fill="#EFADAB"/>
<path d="M408.853 873.169C409.426 872.4 410.514 872.241 411.283 872.814L411.731 873.131C412.271 873.5 413.091 874.021 414.182 874.653C416.635 876.075 419.532 877.5 422.853 878.833C434.325 883.436 447.764 885.79 462.945 884.677C463.902 884.606 464.734 885.325 464.805 886.281C464.875 887.238 464.156 888.07 463.199 888.14C447.466 889.295 433.502 886.848 421.558 882.056C418.079 880.659 415.033 879.161 412.44 877.658C411.754 877.261 411.136 876.884 410.587 876.532L410.061 876.189C409.649 875.916 409.363 875.715 409.208 875.599C408.438 875.026 408.279 873.938 408.853 873.169Z" fill="#EFADAB"/>
<path d="M399.948 888.29C400.355 887.422 401.389 887.047 402.258 887.454C403.123 887.859 403.999 888.248 404.884 888.621C418.22 894.247 432.158 895.963 443.897 895.474L445.241 895.408C446.017 895.364 446.549 895.321 446.815 895.293C447.769 895.194 448.623 895.886 448.722 896.84C448.821 897.794 448.128 898.648 447.174 898.747L446.187 898.828C445.965 898.844 445.715 898.86 445.438 898.875C432.945 899.584 417.949 897.903 403.534 891.821C402.607 891.43 401.691 891.023 400.785 890.599C399.916 890.193 399.541 889.159 399.948 888.29Z" fill="#EFADAB"/>
<path d="M385.012 896.907C385.507 896.085 386.575 895.82 387.396 896.315L387.79 896.537C388.274 896.797 389.03 897.168 390.064 897.621C392.404 898.646 395.267 899.676 398.667 900.641C406.161 902.768 415.123 904.261 425.613 904.832C426.571 904.885 427.305 905.703 427.253 906.661C427.201 907.619 426.382 908.353 425.424 908.3C414.677 907.715 405.46 906.179 397.718 903.982C394.165 902.974 391.154 901.89 388.67 900.802C387.153 900.138 386.136 899.61 385.605 899.29C384.783 898.795 384.517 897.728 385.012 896.907Z" fill="#EFADAB"/>
</g>
<defs>
<clipPath id="clip0_11021_14029">
<rect width="455" height="455" fill="white" transform="translate(547 612)"/>
</clipPath>
<clipPath id="clip1_11021_14029">
<rect width="226.322" height="226.322" fill="white" transform="translate(806.444 625.33) rotate(30)"/>
</clipPath>
<clipPath id="clip2_11021_14029">
<rect width="1133" height="1010" fill="white"/>
</clipPath>
</defs>
</svg>
