<svg xmlns="http://www.w3.org/2000/svg" viewBox="0 0 830 830"><defs><style>.cls-1{fill:#f9f1de;}.cls-2{fill:#fff;}.cls-3{fill:#d4dadd;}.cls-4{fill:#a8b5ba;}.cls-5{fill:#264653;}.cls-6{fill:#7d9098;}.cls-7{fill:#e9c46a;}.cls-8{fill:#1c353e;}.cls-9{fill:#f9f1de;}</style></defs><g id="Layer_2" data-name="Layer 2"><g id="Layer_1-2" data-name="Layer 1"><path class="cls-1" d="M179.36,37.56c168.56-93.25,394.39,3.63,512.07,111C725,179.27,806.55,255.81,825.8,378.49,849.71,530.87,771.45,715.58,592,794.59c-195.38,86-413.82,4.49-516.06-127.8C-19.72,543.06-.58,397.38,6.25,345.34,14.27,284.28,38.13,115.69,179.36,37.56Z"/><path d="M654.22,234.37,37.27,210.55a26.64,26.64,0,0,0-26.61,26.61V667.85a26.64,26.64,0,0,0,26.61,26.61l222.92-15.1L231.57,783.83l-30.28.24a17.13,17.13,0,1,0,0,34.25l253.61-12.1c9.44,0-8.23-111.76-8.23-111.76S668.89,234.37,654.22,234.37Z"/><polygon class="cls-2" points="442.68 639.4 285.36 639.4 240.73 802.31 487.31 802.31 442.68 639.4"/><path d="M487.31,803.81H240.73a1.5,1.5,0,0,1-1.45-1.9L283.91,639a1.5,1.5,0,0,1,1.45-1.11H442.68a1.5,1.5,0,0,1,1.45,1.11l44.63,162.9a1.5,1.5,0,0,1-1.45,1.9Zm-244.62-3H485.35L441.54,640.9h-155Z"/><rect class="cls-2" x="24.82" y="212.06" width="678.4" height="480.9" rx="25.11"/><path d="M678.11,694.46H49.93a26.64,26.64,0,0,1-26.61-26.61V237.16a26.64,26.64,0,0,1,26.61-26.6H678.11a26.64,26.64,0,0,1,26.61,26.6V667.85A26.64,26.64,0,0,1,678.11,694.46ZM49.93,213.56a23.63,23.63,0,0,0-23.61,23.6V667.85a23.63,23.63,0,0,0,23.61,23.61H678.11a23.63,23.63,0,0,0,23.61-23.61V237.16a23.63,23.63,0,0,0-23.61-23.6Z"/><path class="cls-2" d="M514.09,785.57H214a15.62,15.62,0,0,0,0,31.24H514.09a15.62,15.62,0,1,0,0-31.24Z"/><path d="M514.09,818.31H214a17.12,17.12,0,0,1,0-34.24H514.09a17.12,17.12,0,1,1,0,34.24ZM214,787.07a14.12,14.12,0,0,0,0,28.24H514.09a14.12,14.12,0,1,0,0-28.24Z"/><path class="cls-2" d="M47.14,554.68V658.16a12.48,12.48,0,0,0,12.48,12.48h608.8a12.48,12.48,0,0,0,12.48-12.48V488.46Z"/><path d="M668.42,672.14H59.62a14,14,0,0,1-14-14V554.68a1.5,1.5,0,0,1,3,0V658.16a11,11,0,0,0,11,11h608.8a11,11,0,0,0,11-11V488.46a1.5,1.5,0,1,1,3,0v169.7A14,14,0,0,1,668.42,672.14Z"/><path class="cls-2" d="M47.14,267.87v0Z"/><path d="M47.14,295.85a1.5,1.5,0,0,1-1.5-1.5V267.87a1.5,1.5,0,0,1,3,0v26.48A1.5,1.5,0,0,1,47.14,295.85Z"/><path class="cls-2" d="M95.83,234.37H59.62a12.49,12.49,0,0,0-12.48,12.49Z"/><path d="M47.14,248.36a1.5,1.5,0,0,1-1.5-1.5,14,14,0,0,1,14-14H95.83a1.5,1.5,0,0,1,0,3H59.62a11,11,0,0,0-11,11A1.5,1.5,0,0,1,47.14,248.36Z"/><path class="cls-2" d="M680.9,267.87v-21a12.49,12.49,0,0,0-12.48-12.49H631.19Z"/><path d="M680.9,269.37a1.5,1.5,0,0,1-1.5-1.5v-21a11,11,0,0,0-11-11H631.19a1.5,1.5,0,0,1,0-3h37.23a14,14,0,0,1,14,14v21A1.5,1.5,0,0,1,680.9,269.37Z"/><path class="cls-2" d="M680.9,326.53v0Z"/><path d="M680.9,328a1.5,1.5,0,0,1-1.5-1.5V297.26a1.5,1.5,0,0,1,3,0v29.27A1.5,1.5,0,0,1,680.9,328Z"/><path class="cls-3" d="M593.49,669H123.74V131.29A35.46,35.46,0,0,1,159.2,95.84H558a35.46,35.46,0,0,1,35.46,35.45Z"/><path d="M593.49,170.74a1.5,1.5,0,0,1-1.5-1.5v-38a34,34,0,0,0-34-33.95H516.12a1.5,1.5,0,0,1,0-3H558a37,37,0,0,1,37,36.95v38A1.5,1.5,0,0,1,593.49,170.74Z"/><path d="M426.27,97.34H338.12a1.5,1.5,0,0,1,0-3h88.15a1.5,1.5,0,0,1,0,3Z"/><path d="M123.74,286.07a1.5,1.5,0,0,1-1.5-1.5V131.29a37,37,0,0,1,37-36.95H300.12a1.5,1.5,0,0,1,0,3H159.2a34,34,0,0,0-34,33.95V284.57A1.5,1.5,0,0,1,123.74,286.07Z"/><rect class="cls-4" x="158.43" y="130.09" width="226.76" height="14.31"/><rect class="cls-2" x="234.71" y="154.35" width="265.06" height="14.89"/><rect class="cls-2" x="293.74" y="178.91" width="265.06" height="14.89"/><rect class="cls-2" x="389.83" y="203.46" width="137.01" height="14.89"/><rect class="cls-4" x="158.43" y="326.53" width="226.76" height="14.31"/><rect class="cls-2" x="234.71" y="350.79" width="265.06" height="14.89"/><rect class="cls-2" x="293.74" y="375.35" width="265.06" height="14.89"/><rect class="cls-2" x="389.83" y="399.9" width="168.97" height="14.89"/><rect class="cls-2" x="234.71" y="228.02" width="265.06" height="14.89"/><rect class="cls-2" x="293.74" y="252.57" width="265.06" height="14.89"/><rect class="cls-2" x="389.83" y="301.68" width="105.04" height="14.89"/><rect class="cls-2" x="389.83" y="277.13" width="168.97" height="14.89"/><rect class="cls-4" x="158.43" y="424.75" width="226.76" height="14.31"/><rect class="cls-2" x="234.71" y="449.01" width="265.06" height="14.89"/><rect class="cls-2" x="293.74" y="473.57" width="256.54" height="14.89"/><rect class="cls-4" x="389.83" y="498.12" width="168.97" height="14.89"/><rect class="cls-4" x="293.74" y="620.9" width="143.23" height="14.89"/><rect class="cls-2" x="234.71" y="522.68" width="265.06" height="14.89"/><rect class="cls-2" x="293.74" y="547.23" width="265.06" height="14.89"/><rect class="cls-2" x="389.83" y="596.34" width="168.97" height="14.89"/><rect class="cls-2" x="389.83" y="571.79" width="96.73" height="14.89"/><path class="cls-2" d="M744.07,445.43c0-1.33-74.09-13-78.87-26.57-7.13-20.21-16-44.5-16-44.5l-18.5,11.69,11.91,58.13Z"/><path d="M744.07,446.93h0l-101.48-1.25a1.51,1.51,0,0,1-1.45-1.2l-11.91-58.13a1.49,1.49,0,0,1,.67-1.57l18.5-11.68a1.49,1.49,0,0,1,1.28-.16,1.52,1.52,0,0,1,.93.91c.09.24,9,24.53,16,44.51,3.32,9.42,47.58,18.84,66.47,22.87,12.49,2.66,12.49,2.66,12.48,4.21a1.51,1.51,0,0,1-.45,1.06A1.53,1.53,0,0,1,744.07,446.93Zm-100.25-4.24,86.77,1.07c-32.94-7.06-63.45-14.91-66.8-24.4-5.95-16.87-13.22-36.8-15.38-42.74l-16,10.14Z"/><path class="cls-5" d="M656.53,376.75s-20.93-58-44.39-63.53l11.93,82.12Z"/><path class="cls-5" d="M484,405.26s2.29-38.77,5.64-53.76c7-31.52,37.12-36.29,37.12-36.29l3.64,84.66Z"/><path d="M556.13,324.21a158.87,158.87,0,0,1-26-2.11,1.5,1.5,0,0,1,.53-3c.35.06,34.65,6.11,59.47-3.09a1.5,1.5,0,1,1,1,2.81C579.94,323,567.12,324.21,556.13,324.21Z"/><path class="cls-2" d="M598.13,728.89l-15.3,45.65s16.67-1.42,18.26-1.11,21.09-41.63,21.09-41.63Z"/><path d="M582.83,776a1.49,1.49,0,0,1-1.42-2l15.3-45.66a1.51,1.51,0,0,1,1.6-1l24.05,2.91a1.47,1.47,0,0,1,1.13.76,1.48,1.48,0,0,1,0,1.36c0,.1-4.94,10.62-10,21-10.65,21.94-11.32,21.81-12.78,21.51-1.06-.15-9.91.46-17.84,1.14Zm16.34-45.52L585,772.86c4.66-.39,12.78-1,15.59-1C603,768.68,613.24,747.42,620,733ZM601.31,772h0Z"/><path class="cls-6" d="M586.34,764.51s23-9.43,27.26,2.41c5.42,15.05,13.88,38,13.88,38a6.45,6.45,0,0,1-5.56,8.61c-8.41.67-20.95,1.22-26.8-.83-9.22-3.24-24.53-32.44-24.53-32.44l4.72-24.84S583.66,754.27,586.34,764.51Z"/><path d="M608.38,815.67c-5.44,0-10.52-.39-13.75-1.52-9.51-3.34-23.77-30.12-25.37-33.16a1.57,1.57,0,0,1-.14-1l4.72-24.84a1.49,1.49,0,0,1,1.26-1.2c.09,0,8.78-1.12,12.2,8.57,4.09-1.47,15.33-4.95,22.39-1.82a9.64,9.64,0,0,1,5.33,5.69c5.34,14.88,13.78,37.79,13.87,38A7.95,7.95,0,0,1,622,815.05C617.82,815.39,613,815.67,608.38,815.67Zm-36.22-35.61c4.4,8.3,16.49,28.81,23.46,31.26,4.27,1.49,13.56,1.76,26.18.74a4.95,4.95,0,0,0,4.27-6.6c-.08-.22-8.53-23.14-13.88-38a6.61,6.61,0,0,0-3.72-4c-7.41-3.29-21.43,2.38-21.57,2.44a1.47,1.47,0,0,1-1.23,0,1.49,1.49,0,0,1-.79-1c-1.79-6.87-6.27-7.89-8.32-8Z"/><path d="M621.58,805.11H598a1.5,1.5,0,0,1,0-3h23.63a1.5,1.5,0,0,1,0,3Z"/><polygon class="cls-2" points="554.75 740.11 559.94 786.03 580.86 780.29 579.25 738.91 554.75 740.11"/><path d="M559.94,787.53a1.51,1.51,0,0,1-.84-.26,1.49,1.49,0,0,1-.65-1.07l-5.2-45.93a1.49,1.49,0,0,1,1.42-1.66l24.51-1.19a1.5,1.5,0,0,1,1.57,1.44l1.61,41.38a1.49,1.49,0,0,1-1.1,1.5l-20.92,5.74A1.75,1.75,0,0,1,559.94,787.53Zm-3.52-46,4.82,42.59,18.07-5-1.5-38.67Z"/><path class="cls-6" d="M558,819.87h33.09a7.34,7.34,0,0,0,7.27-8.4c-1.11-7.48-4.71-19.87-15.5-36.93a6.44,6.44,0,0,0-5.44-3H567.33a3.38,3.38,0,0,0-3.37,3l-.76,7.26-4.38-5.79a98.55,98.55,0,0,0-8.19,36.34A7.34,7.34,0,0,0,558,819.87Z"/><path d="M591.06,821.37H558a8.84,8.84,0,0,1-8.84-9,99.14,99.14,0,0,1,8.33-37,1.5,1.5,0,0,1,2.55-.26l2.09,2.76.36-3.49a4.89,4.89,0,0,1,4.87-4.38h10.06a7.9,7.9,0,0,1,6.71,3.69c11,17.33,14.59,30,15.71,37.51a8.84,8.84,0,0,1-8.75,10.12ZM559.18,779a98.3,98.3,0,0,0-7,33.39,5.84,5.84,0,0,0,5.84,6h33.09a5.84,5.84,0,0,0,5.78-6.68c-1.07-7.26-4.59-19.46-15.28-36.34a5,5,0,0,0-4.17-2.3H567.33a1.89,1.89,0,0,0-1.88,1.69l-.76,7.27a1.5,1.5,0,0,1-1.09,1.28,1.47,1.47,0,0,1-1.6-.54Z"/><path d="M595.12,813.46H555.51a1.5,1.5,0,0,1,0-3h39.61a1.5,1.5,0,0,1,0,3Z"/><path d="M633.3,464.29a7.65,7.65,0,0,0-4.81-4.42,117.91,117.91,0,0,0-97.72,14.05,7.72,7.72,0,0,0-3.53,5.95c-1.57,22.07-7.43,137.44,29.07,274l24.58-1.75,5-233.57s36.41,85.62,6.8,221.9l25.57,4.72s37.43-49.2,44.13-124.4C668.33,554.31,639.93,480.45,633.3,464.29Z"/><path class="cls-2" d="M562.57,645.9h-.06c-23.19-1-25.81-32.44-25.83-32.76a1.5,1.5,0,0,1,3-.22c0,.29,2.44,29.1,23,30a1.5,1.5,0,0,1-.07,3Z"/><path class="cls-2" d="M588.05,541.51a1.49,1.49,0,0,1-1.5-1.45l-.87-29.22a1.46,1.46,0,0,1,.64-1.27l15.32-10.78a1.51,1.51,0,0,1,2.09.36,1.49,1.49,0,0,1-.36,2.09L588.7,511.56l.85,28.41a1.51,1.51,0,0,1-1.46,1.54Z"/><path d="M554.91,256.49c-9.35-8-11.49-9.14-14.21-13.74-2.22-3.76-7.17-12.15-3.82-21,2.9-7.67,10.91-12.3,18.27-12.7,6.62-.36,11.45,2.77,14,4.42,1.11.73,11,7.29,12.9,18,.52,2.92.13,4.25,1.46,6.08,3,4.1,8.4,2,12.14,5.41,4.71,4.29,2.52,13.4,2.34,14.12-2.45,9.72-13,16.17-21.53,15.27C571.52,271.82,572.05,271.23,554.91,256.49Z"/><path class="cls-2" d="M580.67,304.59a15.78,15.78,0,0,1-7-13.53l.51-22.48.46-.43s9,.6,10.32-4-5.06-5.46-5.06-5.46,6-12.66-9.54-12.51c-4.18,0-5.68-6.89-12.53-8.44,0,0-3.39-.29-6.83,8.6l-7.53,11.14,3.76,2.06a42.36,42.36,0,0,0-.75,13.87,3.65,3.65,0,0,0,2.51,3.06,22.94,22.94,0,0,0,4.45,1L552.2,292.5a22.22,22.22,0,0,1-9.4,16.38,108.7,108.7,0,0,1-10,6.25,185.24,185.24,0,0,0,59.64-3.48S586.23,308.28,580.67,304.59Z"/><path d="M551.26,317.6a155.62,155.62,0,0,1-18.71-1,1.5,1.5,0,0,1-.51-2.81,108.81,108.81,0,0,0,9.9-6.16,20.64,20.64,0,0,0,8.76-15.27l1.1-13.65a25.26,25.26,0,0,1-3.3-.82,5.17,5.17,0,0,1-3.54-4.32,43.26,43.26,0,0,1,.55-13.25l-2.79-1.53a1.54,1.54,0,0,1-.74-1,1.48,1.48,0,0,1,.22-1.19l7.43-11c3.64-9.3,7.54-9.48,8.29-9.4l.21,0c4.11.93,6.47,3.54,8.38,5.64,1.55,1.71,2.57,2.77,3.78,2.77h.3c5.27,0,8.86,1.43,10.67,4.27s1.24,6.59.6,8.68a7.47,7.47,0,0,1,4,2.74,5,5,0,0,1,.53,4.2c-1.31,4.59-7.76,5.11-10.6,5.11h-.14l-.49,21.42a14.19,14.19,0,0,0,6.36,12.24h0c5.44,3.61,11.55,7,11.61,7a1.5,1.5,0,0,1-.38,2.78A189,189,0,0,1,551.26,317.6Zm-13.72-3.5A190.48,190.48,0,0,0,588.23,311c-2.3-1.34-5.44-3.21-8.39-5.17h0a17.16,17.16,0,0,1-7.7-14.81l.51-22.49a1.53,1.53,0,0,1,.49-1.07l.44-.41a1.51,1.51,0,0,1,1.13-.41c2,.13,8-.12,8.77-2.9a2,2,0,0,0-.15-1.73c-.76-1.18-3-1.74-3.67-1.84a1.49,1.49,0,0,1-1.11-.77,1.51,1.51,0,0,1,0-1.36s2.09-4.55.21-7.49c-1.26-1.95-4.11-2.92-8.39-2.87h-.05c-2.6,0-4.33-1.91-6-3.75s-3.55-3.91-6.6-4.67c-.48.12-2.79,1.07-5.32,7.62a1.43,1.43,0,0,1-.16.3l-6.6,9.78,2.31,1.27a1.49,1.49,0,0,1,.75,1.63,40.69,40.69,0,0,0-.73,13.37,2.14,2.14,0,0,0,1.48,1.81,21.25,21.25,0,0,0,4.16.91,1.49,1.49,0,0,1,1.32,1.61l-1.21,15.05a23.58,23.58,0,0,1-10,17.48C541.43,311.67,539.28,313,537.54,314.1Z"/><path class="cls-2" d="M553.41,277.45s9.87.34,13.79-5Z"/><path d="M553.81,279h-.45a1.49,1.49,0,0,1-1.45-1.55,1.51,1.51,0,0,1,1.55-1.44c.09,0,9.13.25,12.53-4.41a1.5,1.5,0,1,1,2.42,1.77C564.53,278.62,555.91,279,553.81,279Z"/><rect class="cls-7" x="348.66" y="110.06" width="460.04" height="82.5" rx="15.85"/><path d="M792.85,194.06H364.52a17.37,17.37,0,0,1-17.36-17.35v-50.8a17.37,17.37,0,0,1,17.36-17.35H792.85a17.37,17.37,0,0,1,17.35,17.35v50.8A17.37,17.37,0,0,1,792.85,194.06Zm-428.33-82.5a14.37,14.37,0,0,0-14.36,14.35v50.8a14.37,14.37,0,0,0,14.36,14.35H792.85a14.37,14.37,0,0,0,14.35-14.35v-50.8a14.37,14.37,0,0,0-14.35-14.35Z"/><path class="cls-2" d="M460.17,48.94a153,153,0,1,0,0,216.36A153,153,0,0,0,460.17,48.94ZM450.5,255.63a139.31,139.31,0,1,1,0-197A139.31,139.31,0,0,1,450.5,255.63Z"/><path d="M352,311.53a154,154,0,0,1-109.24-45.17c-60.23-60.23-60.23-158.24,0-218.48s158.25-60.23,218.48,0h0c60.23,60.24,60.23,158.25,0,218.48A154,154,0,0,1,352,311.53ZM352,5.71A151,151,0,0,0,244.88,50c-59.07,59.07-59.07,155.17,0,214.24s155.16,59.06,214.23,0,59.06-155.17,0-214.24A151,151,0,0,0,352,5.71Zm0,292.16a140.34,140.34,0,0,1-99.57-41.18c-54.91-54.9-54.91-144.24,0-199.14A140.81,140.81,0,1,1,352,297.87ZM352,19.3a136.92,136.92,0,0,0-97.45,40.37c-53.73,53.73-53.73,141.17,0,194.9s141.17,53.74,194.9,0A137.82,137.82,0,0,0,352,19.3Z"/><path class="cls-2" d="M79.55,427l2.34,2.34a14.46,14.46,0,0,0,20.44,0l147-147-22.78-22.77-147,147A14.45,14.45,0,0,0,79.55,427Z"/><path d="M92.11,435a15.9,15.9,0,0,1-11.28-4.67L78.49,428h0a16,16,0,0,1,0-22.55l147-147a1.49,1.49,0,0,1,2.12,0l22.78,22.77a1.51,1.51,0,0,1,0,2.12l-147,147A15.92,15.92,0,0,1,92.11,435Zm-11.5-9.13L83,428.24a13,13,0,0,0,18.32,0L247.21,282.3l-20.66-20.65L80.61,407.59a13,13,0,0,0,0,18.31Z"/><path class="cls-2" d="M162.75,357.84l12.3-12.29Z"/><path d="M162.75,359.34a1.47,1.47,0,0,1-1.06-.44,1.51,1.51,0,0,1,0-2.12L174,344.49a1.49,1.49,0,0,1,2.12,0,1.51,1.51,0,0,1,0,2.12l-12.3,12.29A1.45,1.45,0,0,1,162.75,359.34Z"/><path class="cls-2" d="M100.05,397.06,86.24,410.87A8.3,8.3,0,1,0,98,422.61l48.53-48.52Z"/><path d="M92.11,426.54a9.8,9.8,0,0,1-6.93-16.73L99,396a1.5,1.5,0,0,1,2.12,2.12L87.3,411.93a6.8,6.8,0,0,0,9.62,9.62L145.45,373a1.49,1.49,0,0,1,2.12,0,1.51,1.51,0,0,1,0,2.12L99,423.68A9.76,9.76,0,0,1,92.11,426.54Z"/><rect class="cls-2" x="192.88" y="278.1" width="48.3" height="27.45" rx="7.57" transform="translate(164.14 651.64) rotate(-135)"/><path d="M224.4,317a9,9,0,0,1-6.41-2.65l-23.45-23.45a9.07,9.07,0,0,1,0-12.83l8.71-8.71a9.08,9.08,0,0,1,12.82,0l23.45,23.45a9.05,9.05,0,0,1,0,12.82l-8.71,8.72A9,9,0,0,1,224.4,317Zm-14.74-47.29a6.05,6.05,0,0,0-4.29,1.77l-8.71,8.72a6.07,6.07,0,0,0,0,8.58l23.45,23.45a6.08,6.08,0,0,0,8.58,0l8.71-8.72a6.06,6.06,0,0,0,0-8.58L214,271.45A6.05,6.05,0,0,0,209.66,269.68Z"/><rect class="cls-2" x="168.71" y="302.27" width="48.3" height="27.45" rx="7.57" transform="translate(105.79 675.81) rotate(-135)"/><path d="M200.23,341.14a9,9,0,0,1-6.41-2.66L170.37,315a9.08,9.08,0,0,1,0-12.83l8.71-8.71a9.08,9.08,0,0,1,12.82,0L215.35,317a9.07,9.07,0,0,1,0,12.82l-8.71,8.71A9,9,0,0,1,200.23,341.14Zm-14.74-47.29a6.06,6.06,0,0,0-4.29,1.77l-8.71,8.71a6.07,6.07,0,0,0,0,8.58l23.45,23.45a6.07,6.07,0,0,0,8.58,0l8.71-8.71a6.07,6.07,0,0,0,0-8.58l-23.45-23.45A6,6,0,0,0,185.49,293.85Z"/><path d="M405.71,47.6a1.51,1.51,0,0,1-.65-.15,121.45,121.45,0,0,0-34.31-10.63,1.5,1.5,0,1,1,.45-3,124.47,124.47,0,0,1,35.16,10.9,1.5,1.5,0,0,1-.65,2.85Z"/><path d="M352.14,282A124.75,124.75,0,0,1,229.6,181.05a1.5,1.5,0,0,1,3-.57A121.82,121.82,0,1,0,438.28,71.08,1.5,1.5,0,0,1,440.4,69a124.77,124.77,0,0,1-88.26,213Z"/><path d="M486.74,194.06H364.52a17.37,17.37,0,0,1-17.36-17.35v-50.8a17.37,17.37,0,0,1,17.36-17.35H483.15a1.5,1.5,0,0,1,1.41,1,140.68,140.68,0,0,1,3.63,83.39A1.5,1.5,0,0,1,486.74,194.06Zm-122.22-82.5a14.37,14.37,0,0,0-14.36,14.35v50.8a14.37,14.37,0,0,0,14.36,14.35H485.58a137.58,137.58,0,0,0-3.5-79.5Z"/><path d="M666.06,773.57a1.5,1.5,0,0,1-.78-2.78c62.22-37.72,98.45-83.28,117.89-114.86,21-34.17,27.43-59.69,27.5-59.94a1.5,1.5,0,1,1,2.91.71c-.06.26-6.58,26.23-27.86,60.8-19.61,31.86-56.16,77.82-118.88,115.85A1.49,1.49,0,0,1,666.06,773.57Z"/><path d="M684.18,779.5a1.5,1.5,0,0,1-.7-2.83C747,743.54,791.41,674,791.86,673.29a1.5,1.5,0,1,1,2.53,1.61c-.44.7-45.34,70.93-109.52,104.43A1.44,1.44,0,0,1,684.18,779.5Z"/><path d="M32.78,727.67A10.6,10.6,0,0,1,22.69,713.8h0a10.6,10.6,0,1,1,10.09,13.87Zm-7.24-12.94a7.6,7.6,0,1,0,9.57-4.88,7.57,7.57,0,0,0-9.57,4.88Z"/><path d="M55.33,748.93a7,7,0,0,1-2.16-.34,7,7,0,0,1-4.47-8.77h0a7,7,0,1,1,6.63,9.11Zm0-10.93a4,4,0,0,0-3.77,2.74h0a4,4,0,0,0,2.55,5,4,4,0,0,0,5-2.55,4,4,0,0,0-2.55-5A4,4,0,0,0,55.32,738Zm-5.2,2.28h0Z"/><path class="cls-3" d="M152.57,758.39s-37.92-83.12-16.17-190.86c0,0,58.77,49.24,37.58,190.86Z"/><path d="M174,759.89H152.57a1.51,1.51,0,0,1-1.37-.88c-.09-.21-9.63-21.33-16.35-55.36a352.12,352.12,0,0,1,.08-136.42,1.49,1.49,0,0,1,1-1.12,1.51,1.51,0,0,1,1.46.27c.61.51,15.12,12.89,27.17,42.91,11.05,27.56,21.93,75.83,10.93,149.32A1.5,1.5,0,0,1,174,759.89Zm-20.43-3h19.14c10.58-72.11-.09-119.43-10.95-146.48-9.23-23-20.08-35.53-24.4-39.92C118.21,669.43,149.67,747.78,153.55,756.89Z"/><path class="cls-2" d="M161.84,751.22h-.08a1.51,1.51,0,0,1-1.42-1.58c2.9-53.09-21.05-166.46-21.29-167.6a1.51,1.51,0,0,1,1.16-1.78,1.49,1.49,0,0,1,1.77,1.16c.25,1.14,24.28,114.9,21.36,168.38A1.51,1.51,0,0,1,161.84,751.22Z"/><path class="cls-2" d="M190.71,623.26s-48.85,88.26-19.46,126.46H187S218.38,680.72,190.71,623.26Z"/><path d="M187,751.22H171.25a1.49,1.49,0,0,1-1.19-.59c-12.51-16.25-13-42.8-1.53-78.92a308.33,308.33,0,0,1,20.87-49.18,1.44,1.44,0,0,1,1.36-.77,1.47,1.47,0,0,1,1.3.85c14.47,30,12.68,63.18,8.63,85.69a197,197,0,0,1-12.36,42A1.49,1.49,0,0,1,187,751.22Zm-15-3h14c3.41-8.05,27.89-69.46,4.64-121.59C182.94,641.46,147.21,714.62,172,748.22Z"/><path d="M178.59,753.56a1.5,1.5,0,0,1-1.5-1.44c-1.42-36.48,12-128.16,12.14-129.08a1.5,1.5,0,1,1,3,.44c-.14.92-13.52,92.33-12.11,128.52a1.51,1.51,0,0,1-1.44,1.56Z"/><path class="cls-2" d="M97.44,656.16s41.62,14.2,56.69,98.27H137.76S103.6,708.26,97.44,656.16Z"/><path d="M154.13,755.93H137.76a1.51,1.51,0,0,1-1.21-.61c-.34-.47-34.47-47.09-40.6-99a1.51,1.51,0,0,1,2-1.6c.44.15,10.92,3.85,23.33,18,11.34,13,26.5,37.62,34.34,81.38a1.5,1.5,0,0,1-1.47,1.77Zm-15.6-3h13.8c-12.91-69.42-44.29-89.86-53.06-94.31C105.68,705.47,134.61,747.42,138.53,752.93Z"/><path d="M145.18,753.56a1.5,1.5,0,0,1-1.48-1.26c-6.18-37.34-32.93-75-33.2-75.34a1.5,1.5,0,1,1,2.44-1.75c.27.38,27.43,38.57,33.72,76.6a1.5,1.5,0,0,1-1.23,1.73Z"/><path class="cls-8" d="M113.5,747.75H216.17l2.3,48.57a20.87,20.87,0,0,1-20.85,21.87H139a25.53,25.53,0,0,1-25.53-25.55Z"/><path class="cls-5" d="M532.75,311.9c17.67-5.76,44.59-9.9,76.77.35a31.42,31.42,0,0,1,21.59,26.29l26.21,150.92c1.3,11-13.36,21.64-23.69,25.56-10.8,4.09-27.11,8-50.21,8-24.77,0-42.76,1.43-52.81-3-8.33-3.65-20.88-12.48-21.3-21.57l1.82-155.13A31.47,31.47,0,0,1,532.75,311.9Z"/><path class="cls-2" d="M489.82,403.65s-2.26,29.57,9.45,49.43c14,23.71,84.58-8.23,84.58-8.23l8.21-4.64a22.78,22.78,0,0,1,18.24-1.86l13.26,4.28s-10.95-13.13-20.26-18.16c-4.37-2.35-10-.12-14.81,2.91a48.91,48.91,0,0,1-27.64,7.36l-28.08-.84a9.29,9.29,0,0,1-9-8.48L521.65,401Z"/><path d="M520.67,463.31c-10.11,0-18.58-2.51-22.69-9.47-11.82-20-9.75-49.08-9.66-50.3a1.52,1.52,0,0,1,1.37-1.39l31.83-2.69a1.52,1.52,0,0,1,1.63,1.37l2.13,24.46a7.8,7.8,0,0,0,7.54,7.12l28.08.83a47.29,47.29,0,0,0,26.79-7.13c6.65-4.21,12.14-5.21,16.32-3,9.46,5.1,20.25,18,20.7,18.52a1.49,1.49,0,0,1-1.61,2.38l-13.26-4.28a21.38,21.38,0,0,0-17,1.74l-8.21,4.65-.12.06C582.36,447.17,546.28,463.31,520.67,463.31ZM491.24,405c-.25,5.83-.65,30.37,9.33,47.28,13,22,80.21-7.73,82.6-8.8l8.15-4.61a24.38,24.38,0,0,1,19.44-2l8,2.58c-3.94-4.22-10.43-10.61-16.17-13.7-3.92-2.12-9.39.38-13.29,2.84a50,50,0,0,1-28.48,7.6l-28.08-.84a10.79,10.79,0,0,1-10.44-9.85l-2-23Z"/><path d="M760.51,439.57H666.06l70-107.69a12,12,0,0,1,10.1-5.4h76.66a6,6,0,0,1,5.22,9.2Z"/><path class="cls-9" d="M780.66,364.24c-3.07,4.72-9.67,8.55-14.74,8.55s-6.7-3.83-3.63-8.55,9.67-8.55,14.75-8.55S783.73,359.52,780.66,364.24Z"/><path d="M751.09,448.56H593.84a9.76,9.76,0,0,1-9.76-9.76H760.86A9.77,9.77,0,0,1,751.09,448.56Z"/><path class="cls-2" d="M755.6,441.17H674.48a1.5,1.5,0,0,1,0-3H755.6a1.5,1.5,0,0,1,0,3Z"/></g></g></svg>