<svg width="1024" height="1024" viewBox="0 0 1024 1024" fill="none" xmlns="http://www.w3.org/2000/svg">
<path d="M908.147 211.146H116.253C102.306 211.146 91 222.452 91 236.399V817.88C91 831.827 102.306 843.134 116.253 843.134H908.147C922.094 843.134 933.4 831.827 933.4 817.88V236.399C933.4 222.452 922.094 211.146 908.147 211.146Z" fill="#E4EBF7"/>
<path d="M113.564 182H910.413C922.875 182 932.977 192.102 932.977 204.564V271.806H91V204.564C91 192.102 101.102 182 113.564 182Z" fill="#253368"/>
<path d="M139.231 243.008C148.126 243.008 155.336 235.798 155.336 226.903C155.336 218.008 148.126 210.798 139.231 210.798C130.336 210.798 123.126 218.008 123.126 226.903C123.126 235.798 130.336 243.008 139.231 243.008Z" fill="#A3B5D6"/>
<path d="M199.384 243.008C208.279 243.008 215.489 235.798 215.489 226.903C215.489 218.008 208.279 210.798 199.384 210.798C190.489 210.798 183.279 218.008 183.279 226.903C183.279 235.798 190.489 243.008 199.384 243.008Z" fill="#E4EBF7"/>
<path d="M259.546 243.008C268.44 243.008 275.651 235.798 275.651 226.903C275.651 218.008 268.44 210.798 259.546 210.798C250.651 210.798 243.441 218.008 243.441 226.903C243.441 235.798 250.651 243.008 259.546 243.008Z" fill="#E4EBF7"/>
<path d="M887.275 331.451H303.245C294.937 331.451 288.202 338.186 288.202 346.494V767.703C288.202 776.011 294.937 782.746 303.245 782.746H887.275C895.583 782.746 902.318 776.011 902.318 767.703V346.494C902.318 338.186 895.583 331.451 887.275 331.451Z" fill="white"/>
<path d="M370.694 544.909L360.333 537.115L370.694 529.34L381.055 537.115L370.694 544.909Z" fill="white"/>
<path d="M245.218 504.538H138.319C134.555 504.538 131.503 507.59 131.503 511.354V528.155C131.503 531.92 134.555 534.972 138.319 534.972H245.218C248.982 534.972 252.034 531.92 252.034 528.155V511.354C252.034 507.59 248.982 504.538 245.218 504.538Z" fill="#E4EBF7"/>
<path d="M245.321 563.13H138.216C134.508 563.13 131.503 566.135 131.503 569.843V585.929C131.503 589.637 134.508 592.642 138.216 592.642H245.321C249.028 592.642 252.034 589.637 252.034 585.929V569.843C252.034 566.135 249.028 563.13 245.321 563.13Z" fill="#A3B5D6"/>
<path d="M245.321 620.527H138.216C134.508 620.527 131.503 623.533 131.503 627.24V643.327C131.503 647.034 134.508 650.04 138.216 650.04H245.321C249.028 650.04 252.034 647.034 252.034 643.327V627.24C252.034 623.533 249.028 620.527 245.321 620.527Z" fill="#4E5C93"/>
<path d="M191.768 454.84C225 454.84 251.94 427.9 251.94 394.669C251.94 361.437 225 334.497 191.768 334.497C158.537 334.497 131.597 361.437 131.597 394.669C131.597 427.9 158.537 454.84 191.768 454.84Z" fill="white"/>
<path d="M191.768 454.84C209.111 454.85 225.57 447.188 236.728 433.912C227.936 417.222 210.623 406.773 191.759 406.773C172.895 406.773 155.582 417.222 146.79 433.912C157.954 447.191 174.42 454.853 191.768 454.84Z" fill="#253368"/>
<path d="M192.088 409.166C204.586 409.166 214.718 399.035 214.718 386.536C214.718 374.038 204.586 363.906 192.088 363.906C179.59 363.906 169.458 374.038 169.458 386.536C169.458 399.035 179.59 409.166 192.088 409.166Z" fill="#253368"/>
<path d="M643.199 757.118V755.196H633.327C633.669 753.932 635.038 752.485 637.434 750.879C639.382 749.562 640.672 748.536 641.33 747.851C642.541 746.535 643.173 745.061 643.173 743.429C643.173 741.797 642.593 740.454 641.488 739.454C640.356 738.453 638.934 737.953 637.197 737.953C635.301 737.953 633.748 738.585 632.59 739.849C631.432 741.086 630.826 742.771 630.826 744.877H632.985C633.011 743.218 633.406 741.955 634.143 741.112C634.828 740.217 635.828 739.796 637.118 739.796C638.329 739.796 639.303 740.112 639.987 740.744C640.672 741.375 641.014 742.244 641.014 743.402C641.014 744.613 640.514 745.745 639.566 746.772C639.066 747.299 638.092 748.062 636.618 749.115C634.617 750.484 633.274 751.616 632.537 752.458C631.274 753.853 630.668 755.407 630.668 757.118H643.199ZM652.729 757.486C654.966 757.486 656.651 756.486 657.809 754.512C658.81 752.827 659.31 750.563 659.31 747.72C659.31 744.877 658.81 742.613 657.809 740.928C656.651 738.927 654.966 737.953 652.729 737.953C650.465 737.953 648.78 738.927 647.648 740.928C646.647 742.613 646.147 744.877 646.147 747.72C646.147 750.563 646.647 752.827 647.648 754.512C648.78 756.486 650.465 757.486 652.729 757.486ZM652.729 755.644C651.044 755.644 649.833 754.722 649.096 752.932C648.569 751.642 648.306 749.905 648.306 747.72C648.306 745.508 648.569 743.771 649.096 742.507C649.833 740.691 651.044 739.796 652.729 739.796C654.413 739.796 655.624 740.691 656.361 742.507C656.888 743.771 657.177 745.508 657.177 747.72C657.177 749.905 656.888 751.642 656.361 752.932C655.624 754.722 654.413 755.644 652.729 755.644ZM668.366 757.118V738.322H666.681C666.049 739.032 665.312 739.664 664.417 740.243C663.522 740.77 662.627 741.139 661.784 741.375V743.534C663.548 743.008 665.022 742.165 666.207 740.954V757.118H668.366ZM677.5 757.118L684.424 740.085V738.322H672.077V740.296H682.213L675.21 757.118H677.5Z" fill="#4E5C93"/>
<path d="M643.199 757.118V755.196H633.327C633.669 753.932 635.038 752.485 637.434 750.879C639.382 749.562 640.672 748.536 641.33 747.851C642.541 746.535 643.173 745.061 643.173 743.429C643.173 741.797 642.593 740.454 641.488 739.454C640.356 738.453 638.934 737.953 637.197 737.953C635.301 737.953 633.748 738.585 632.59 739.849C631.432 741.086 630.826 742.771 630.826 744.877H632.985C633.011 743.218 633.406 741.955 634.143 741.112C634.828 740.217 635.828 739.796 637.118 739.796C638.329 739.796 639.303 740.112 639.987 740.744C640.672 741.375 641.014 742.244 641.014 743.402C641.014 744.613 640.514 745.745 639.566 746.772C639.066 747.299 638.092 748.062 636.618 749.115C634.617 750.484 633.274 751.616 632.537 752.458C631.274 753.853 630.668 755.407 630.668 757.118H643.199ZM652.729 757.486C654.966 757.486 656.651 756.486 657.809 754.512C658.81 752.827 659.31 750.563 659.31 747.72C659.31 744.877 658.81 742.613 657.809 740.928C656.651 738.927 654.966 737.953 652.729 737.953C650.465 737.953 648.78 738.927 647.648 740.928C646.647 742.613 646.147 744.877 646.147 747.72C646.147 750.563 646.647 752.827 647.648 754.512C648.78 756.486 650.465 757.486 652.729 757.486ZM652.729 755.644C651.044 755.644 649.833 754.722 649.096 752.932C648.569 751.642 648.306 749.905 648.306 747.72C648.306 745.508 648.569 743.771 649.096 742.507C649.833 740.691 651.044 739.796 652.729 739.796C654.413 739.796 655.624 740.691 656.361 742.507C656.888 743.771 657.177 745.508 657.177 747.72C657.177 749.905 656.888 751.642 656.361 752.932C655.624 754.722 654.413 755.644 652.729 755.644ZM668.366 757.118V738.322H666.681C666.049 739.032 665.312 739.664 664.417 740.243C663.522 740.77 662.627 741.139 661.784 741.375V743.534C663.548 743.008 665.022 742.165 666.207 740.954V757.118H668.366ZM677.5 757.118L684.424 740.085V738.322H672.077V740.296H682.213L675.21 757.118H677.5Z" fill="#4E5C93"/>
<path d="M449.861 757.118V755.196H439.989C440.331 753.932 441.7 752.485 444.095 750.879C446.043 749.562 447.333 748.536 447.991 747.851C449.202 746.535 449.834 745.061 449.834 743.429C449.834 741.797 449.255 740.454 448.149 739.454C447.017 738.453 445.596 737.953 443.858 737.953C441.963 737.953 440.41 738.585 439.252 739.849C438.093 741.086 437.488 742.771 437.488 744.877H439.646C439.673 743.218 440.068 741.955 440.805 741.112C441.489 740.217 442.49 739.796 443.779 739.796C444.99 739.796 445.964 740.112 446.649 740.744C447.333 741.375 447.676 742.244 447.676 743.402C447.676 744.613 447.175 745.745 446.228 746.772C445.727 747.299 444.753 748.062 443.279 749.115C441.279 750.484 439.936 751.616 439.199 752.458C437.935 753.853 437.33 755.407 437.33 757.118H449.861ZM459.39 757.486C461.628 757.486 463.313 756.486 464.471 754.512C465.471 752.827 465.971 750.563 465.971 747.72C465.971 744.877 465.471 742.613 464.471 740.928C463.313 738.927 461.628 737.953 459.39 737.953C457.126 737.953 455.441 738.927 454.309 740.928C453.309 742.613 452.809 744.877 452.809 747.72C452.809 750.563 453.309 752.827 454.309 754.512C455.441 756.486 457.126 757.486 459.39 757.486ZM459.39 755.644C457.705 755.644 456.494 754.722 455.757 752.932C455.231 751.642 454.968 749.905 454.968 747.72C454.968 745.508 455.231 743.771 455.757 742.507C456.494 740.691 457.705 739.796 459.39 739.796C461.075 739.796 462.286 740.691 463.023 742.507C463.55 743.771 463.839 745.508 463.839 747.72C463.839 749.905 463.55 751.642 463.023 752.932C462.286 754.722 461.075 755.644 459.39 755.644ZM475.027 757.118V738.322H473.342C472.711 739.032 471.974 739.664 471.078 740.243C470.183 740.77 469.288 741.139 468.446 741.375V743.534C470.21 743.008 471.684 742.165 472.869 740.954V757.118H475.027ZM485.584 757.486C487.426 757.486 489.006 756.907 490.269 755.775C491.612 754.564 492.296 753.011 492.296 751.116C492.296 749.089 491.717 747.509 490.612 746.351C489.506 745.219 488.058 744.666 486.268 744.666C485.399 744.666 484.61 744.798 483.872 745.114C483.056 745.429 482.372 745.903 481.845 746.535H481.74L482.372 740.243H491.533V738.322H480.608L479.608 748.694H481.661C482.03 747.957 482.609 747.378 483.346 747.009C484.057 746.614 484.846 746.43 485.741 746.43C487.11 746.43 488.19 746.825 488.953 747.667C489.743 748.483 490.164 749.641 490.164 751.142C490.164 752.458 489.717 753.538 488.874 754.38C488.005 755.222 486.926 755.644 485.61 755.644C484.452 755.644 483.478 755.354 482.74 754.801C481.898 754.169 481.424 753.248 481.319 752.063H479.187C479.318 753.774 480.029 755.143 481.345 756.144C482.504 757.039 483.925 757.486 485.584 757.486Z" fill="#4E5C93"/>
<path d="M449.861 757.118V755.196H439.989C440.331 753.932 441.7 752.485 444.095 750.879C446.043 749.562 447.333 748.536 447.991 747.851C449.202 746.535 449.834 745.061 449.834 743.429C449.834 741.797 449.255 740.454 448.149 739.454C447.017 738.453 445.596 737.953 443.858 737.953C441.963 737.953 440.41 738.585 439.252 739.849C438.093 741.086 437.488 742.771 437.488 744.877H439.646C439.673 743.218 440.068 741.955 440.805 741.112C441.489 740.217 442.49 739.796 443.779 739.796C444.99 739.796 445.964 740.112 446.649 740.744C447.333 741.375 447.676 742.244 447.676 743.402C447.676 744.613 447.175 745.745 446.228 746.772C445.727 747.299 444.753 748.062 443.279 749.115C441.279 750.484 439.936 751.616 439.199 752.458C437.935 753.853 437.33 755.407 437.33 757.118H449.861ZM459.39 757.486C461.628 757.486 463.313 756.486 464.471 754.512C465.471 752.827 465.971 750.563 465.971 747.72C465.971 744.877 465.471 742.613 464.471 740.928C463.313 738.927 461.628 737.953 459.39 737.953C457.126 737.953 455.441 738.927 454.309 740.928C453.309 742.613 452.809 744.877 452.809 747.72C452.809 750.563 453.309 752.827 454.309 754.512C455.441 756.486 457.126 757.486 459.39 757.486ZM459.39 755.644C457.705 755.644 456.494 754.722 455.757 752.932C455.231 751.642 454.968 749.905 454.968 747.72C454.968 745.508 455.231 743.771 455.757 742.507C456.494 740.691 457.705 739.796 459.39 739.796C461.075 739.796 462.286 740.691 463.023 742.507C463.55 743.771 463.839 745.508 463.839 747.72C463.839 749.905 463.55 751.642 463.023 752.932C462.286 754.722 461.075 755.644 459.39 755.644ZM475.027 757.118V738.322H473.342C472.711 739.032 471.974 739.664 471.078 740.243C470.183 740.77 469.288 741.139 468.446 741.375V743.534C470.21 743.008 471.684 742.165 472.869 740.954V757.118H475.027ZM485.584 757.486C487.426 757.486 489.006 756.907 490.269 755.775C491.612 754.564 492.296 753.011 492.296 751.116C492.296 749.089 491.717 747.509 490.612 746.351C489.506 745.219 488.058 744.666 486.268 744.666C485.399 744.666 484.61 744.798 483.872 745.114C483.056 745.429 482.372 745.903 481.845 746.535H481.74L482.372 740.243H491.533V738.322H480.608L479.608 748.694H481.661C482.03 747.957 482.609 747.378 483.346 747.009C484.057 746.614 484.846 746.43 485.741 746.43C487.11 746.43 488.19 746.825 488.953 747.667C489.743 748.483 490.164 749.641 490.164 751.142C490.164 752.458 489.717 753.538 488.874 754.38C488.005 755.222 486.926 755.644 485.61 755.644C484.452 755.644 483.478 755.354 482.74 754.801C481.898 754.169 481.424 753.248 481.319 752.063H479.187C479.318 753.774 480.029 755.143 481.345 756.144C482.504 757.039 483.925 757.486 485.584 757.486Z" fill="#4E5C93"/>
<path d="M546.219 757.118V755.196H536.348C536.69 753.932 538.059 752.485 540.454 750.879C542.402 749.562 543.692 748.536 544.35 747.851C545.561 746.535 546.193 745.061 546.193 743.429C546.193 741.797 545.614 740.454 544.508 739.454C543.376 738.453 541.955 737.953 540.217 737.953C538.322 737.953 536.769 738.585 535.61 739.849C534.452 741.086 533.847 742.771 533.847 744.877H536.005C536.032 743.218 536.427 741.955 537.164 741.112C537.848 740.217 538.848 739.796 540.138 739.796C541.349 739.796 542.323 740.112 543.008 740.744C543.692 741.375 544.034 742.244 544.034 743.402C544.034 744.613 543.534 745.745 542.587 746.772C542.086 747.299 541.112 748.062 539.638 749.115C537.637 750.484 536.295 751.616 535.558 752.458C534.294 753.853 533.689 755.407 533.689 757.118H546.219ZM555.749 757.486C557.987 757.486 559.672 756.486 560.83 754.512C561.83 752.827 562.33 750.563 562.33 747.72C562.33 744.877 561.83 742.613 560.83 740.928C559.672 738.927 557.987 737.953 555.749 737.953C553.485 737.953 551.8 738.927 550.668 740.928C549.668 742.613 549.168 744.877 549.168 747.72C549.168 750.563 549.668 752.827 550.668 754.512C551.8 756.486 553.485 757.486 555.749 757.486ZM555.749 755.644C554.064 755.644 552.853 754.722 552.116 752.932C551.59 751.642 551.326 749.905 551.326 747.72C551.326 745.508 551.59 743.771 552.116 742.507C552.853 740.691 554.064 739.796 555.749 739.796C557.434 739.796 558.645 740.691 559.382 742.507C559.908 743.771 560.198 745.508 560.198 747.72C560.198 749.905 559.908 751.642 559.382 752.932C558.645 754.722 557.434 755.644 555.749 755.644ZM571.386 757.118V738.322H569.701C569.07 739.032 568.332 739.664 567.437 740.243C566.542 740.77 565.647 741.139 564.805 741.375V743.534C566.569 743.008 568.043 742.165 569.227 740.954V757.118H571.386ZM582.337 757.486C584.18 757.486 585.681 756.855 586.892 755.644C588.076 754.433 588.682 752.879 588.682 751.037C588.682 749.194 588.129 747.72 587.049 746.561C585.944 745.403 584.496 744.824 582.706 744.824C581.6 744.824 580.626 745.087 579.784 745.64C578.889 746.167 578.231 746.93 577.757 747.904H577.651C577.625 747.562 577.625 747.325 577.625 747.22C577.625 745.087 578.02 743.323 578.862 741.955C579.705 740.48 580.863 739.77 582.337 739.77C584.522 739.77 585.812 740.823 586.233 742.981H588.366C587.839 739.612 585.839 737.953 582.364 737.953C580.231 737.953 578.547 738.927 577.309 740.902C576.125 742.771 575.545 745.219 575.545 748.22C575.545 751.089 576.072 753.327 577.178 754.933C578.336 756.618 580.047 757.486 582.337 757.486ZM582.285 755.67C580.968 755.67 579.942 755.222 579.152 754.327C578.362 753.485 577.994 752.406 577.994 751.089C577.994 749.773 578.389 748.72 579.205 747.878C580.021 747.035 581.047 746.614 582.285 746.614C583.575 746.614 584.601 747.009 585.391 747.851C586.154 748.641 586.549 749.694 586.549 751.037C586.549 752.379 586.154 753.485 585.365 754.38C584.575 755.222 583.548 755.67 582.285 755.67Z" fill="#4E5C93"/>
<path d="M546.219 757.118V755.196H536.348C536.69 753.932 538.059 752.485 540.454 750.879C542.402 749.562 543.692 748.536 544.35 747.851C545.561 746.535 546.193 745.061 546.193 743.429C546.193 741.797 545.614 740.454 544.508 739.454C543.376 738.453 541.955 737.953 540.217 737.953C538.322 737.953 536.769 738.585 535.61 739.849C534.452 741.086 533.847 742.771 533.847 744.877H536.005C536.032 743.218 536.427 741.955 537.164 741.112C537.848 740.217 538.848 739.796 540.138 739.796C541.349 739.796 542.323 740.112 543.008 740.744C543.692 741.375 544.034 742.244 544.034 743.402C544.034 744.613 543.534 745.745 542.587 746.772C542.086 747.299 541.112 748.062 539.638 749.115C537.637 750.484 536.295 751.616 535.558 752.458C534.294 753.853 533.689 755.407 533.689 757.118H546.219ZM555.749 757.486C557.987 757.486 559.672 756.486 560.83 754.512C561.83 752.827 562.33 750.563 562.33 747.72C562.33 744.877 561.83 742.613 560.83 740.928C559.672 738.927 557.987 737.953 555.749 737.953C553.485 737.953 551.8 738.927 550.668 740.928C549.668 742.613 549.168 744.877 549.168 747.72C549.168 750.563 549.668 752.827 550.668 754.512C551.8 756.486 553.485 757.486 555.749 757.486ZM555.749 755.644C554.064 755.644 552.853 754.722 552.116 752.932C551.59 751.642 551.326 749.905 551.326 747.72C551.326 745.508 551.59 743.771 552.116 742.507C552.853 740.691 554.064 739.796 555.749 739.796C557.434 739.796 558.645 740.691 559.382 742.507C559.908 743.771 560.198 745.508 560.198 747.72C560.198 749.905 559.908 751.642 559.382 752.932C558.645 754.722 557.434 755.644 555.749 755.644ZM571.386 757.118V738.322H569.701C569.07 739.032 568.332 739.664 567.437 740.243C566.542 740.77 565.647 741.139 564.805 741.375V743.534C566.569 743.008 568.043 742.165 569.227 740.954V757.118H571.386ZM582.337 757.486C584.18 757.486 585.681 756.855 586.892 755.644C588.076 754.433 588.682 752.879 588.682 751.037C588.682 749.194 588.129 747.72 587.049 746.561C585.944 745.403 584.496 744.824 582.706 744.824C581.6 744.824 580.626 745.087 579.784 745.64C578.889 746.167 578.231 746.93 577.757 747.904H577.651C577.625 747.562 577.625 747.325 577.625 747.22C577.625 745.087 578.02 743.323 578.862 741.955C579.705 740.48 580.863 739.77 582.337 739.77C584.522 739.77 585.812 740.823 586.233 742.981H588.366C587.839 739.612 585.839 737.953 582.364 737.953C580.231 737.953 578.547 738.927 577.309 740.902C576.125 742.771 575.545 745.219 575.545 748.22C575.545 751.089 576.072 753.327 577.178 754.933C578.336 756.618 580.047 757.486 582.337 757.486ZM582.285 755.67C580.968 755.67 579.942 755.222 579.152 754.327C578.362 753.485 577.994 752.406 577.994 751.089C577.994 749.773 578.389 748.72 579.205 747.878C580.021 747.035 581.047 746.614 582.285 746.614C583.575 746.614 584.601 747.009 585.391 747.851C586.154 748.641 586.549 749.694 586.549 751.037C586.549 752.379 586.154 753.485 585.365 754.38C584.575 755.222 583.548 755.67 582.285 755.67Z" fill="#4E5C93"/>
<path d="M334.459 389.858C336.618 389.858 338.303 389.332 339.514 388.305C340.672 387.305 341.251 385.962 341.251 384.304C341.251 383.093 340.883 382.04 340.145 381.145C339.461 380.302 338.619 379.75 337.645 379.513V379.46C338.619 379.118 339.356 378.565 339.882 377.828C340.356 377.143 340.593 376.301 340.593 375.301C340.593 373.932 340.066 372.773 339.066 371.852C337.96 370.825 336.407 370.325 334.459 370.325C332.485 370.325 330.958 370.825 329.852 371.852C328.826 372.773 328.325 373.932 328.325 375.301C328.325 376.301 328.562 377.143 329.036 377.828C329.536 378.565 330.274 379.118 331.274 379.46V379.513C330.274 379.75 329.457 380.302 328.773 381.145C328.036 382.04 327.667 383.093 327.667 384.304C327.667 385.962 328.247 387.305 329.405 388.305C330.589 389.332 332.274 389.858 334.459 389.858ZM334.459 378.749C332.985 378.749 331.906 378.381 331.221 377.696C330.642 377.117 330.353 376.327 330.353 375.38C330.353 374.458 330.668 373.695 331.327 373.116C332.064 372.431 333.117 372.089 334.459 372.089C335.775 372.089 336.828 372.431 337.592 373.116C338.224 373.695 338.566 374.458 338.566 375.38C338.566 376.327 338.276 377.117 337.697 377.696C336.986 378.381 335.907 378.749 334.459 378.749ZM334.459 388.095C332.932 388.095 331.748 387.726 330.958 387.015C330.168 386.331 329.8 385.409 329.8 384.304C329.8 383.172 330.168 382.25 330.958 381.566C331.774 380.803 332.932 380.434 334.459 380.434C335.96 380.434 337.144 380.803 337.987 381.566C338.724 382.25 339.119 383.172 339.119 384.304C339.119 385.409 338.724 386.304 337.987 386.989C337.144 387.726 335.986 388.095 334.459 388.095ZM350.254 389.858C352.492 389.858 354.177 388.858 355.335 386.884C356.335 385.199 356.835 382.935 356.835 380.092C356.835 377.249 356.335 374.985 355.335 373.3C354.177 371.299 352.492 370.325 350.254 370.325C347.99 370.325 346.305 371.299 345.173 373.3C344.173 374.985 343.673 377.249 343.673 380.092C343.673 382.935 344.173 385.199 345.173 386.884C346.305 388.858 347.99 389.858 350.254 389.858ZM350.254 388.016C348.569 388.016 347.358 387.094 346.621 385.304C346.095 384.014 345.832 382.277 345.832 380.092C345.832 377.88 346.095 376.143 346.621 374.879C347.358 373.063 348.569 372.168 350.254 372.168C351.939 372.168 353.15 373.063 353.887 374.879C354.414 376.143 354.703 377.88 354.703 380.092C354.703 382.277 354.414 384.014 353.887 385.304C353.15 387.094 351.939 388.016 350.254 388.016Z" fill="#4E5C93"/>
<path d="M334.459 389.858C336.618 389.858 338.303 389.332 339.514 388.305C340.672 387.305 341.251 385.962 341.251 384.304C341.251 383.093 340.883 382.04 340.145 381.145C339.461 380.302 338.619 379.75 337.645 379.513V379.46C338.619 379.118 339.356 378.565 339.882 377.828C340.356 377.143 340.593 376.301 340.593 375.301C340.593 373.932 340.066 372.773 339.066 371.852C337.96 370.825 336.407 370.325 334.459 370.325C332.485 370.325 330.958 370.825 329.852 371.852C328.826 372.773 328.325 373.932 328.325 375.301C328.325 376.301 328.562 377.143 329.036 377.828C329.536 378.565 330.274 379.118 331.274 379.46V379.513C330.274 379.75 329.457 380.302 328.773 381.145C328.036 382.04 327.667 383.093 327.667 384.304C327.667 385.962 328.247 387.305 329.405 388.305C330.589 389.332 332.274 389.858 334.459 389.858ZM334.459 378.749C332.985 378.749 331.906 378.381 331.221 377.696C330.642 377.117 330.353 376.327 330.353 375.38C330.353 374.458 330.668 373.695 331.327 373.116C332.064 372.431 333.117 372.089 334.459 372.089C335.775 372.089 336.828 372.431 337.592 373.116C338.224 373.695 338.566 374.458 338.566 375.38C338.566 376.327 338.276 377.117 337.697 377.696C336.986 378.381 335.907 378.749 334.459 378.749ZM334.459 388.095C332.932 388.095 331.748 387.726 330.958 387.015C330.168 386.331 329.8 385.409 329.8 384.304C329.8 383.172 330.168 382.25 330.958 381.566C331.774 380.803 332.932 380.434 334.459 380.434C335.96 380.434 337.144 380.803 337.987 381.566C338.724 382.25 339.119 383.172 339.119 384.304C339.119 385.409 338.724 386.304 337.987 386.989C337.144 387.726 335.986 388.095 334.459 388.095ZM350.254 389.858C352.492 389.858 354.177 388.858 355.335 386.884C356.335 385.199 356.835 382.935 356.835 380.092C356.835 377.249 356.335 374.985 355.335 373.3C354.177 371.299 352.492 370.325 350.254 370.325C347.99 370.325 346.305 371.299 345.173 373.3C344.173 374.985 343.673 377.249 343.673 380.092C343.673 382.935 344.173 385.199 345.173 386.884C346.305 388.858 347.99 389.858 350.254 389.858ZM350.254 388.016C348.569 388.016 347.358 387.094 346.621 385.304C346.095 384.014 345.832 382.277 345.832 380.092C345.832 377.88 346.095 376.143 346.621 374.879C347.358 373.063 348.569 372.168 350.254 372.168C351.939 372.168 353.15 373.063 353.887 374.879C354.414 376.143 354.703 377.88 354.703 380.092C354.703 382.277 354.414 384.014 353.887 385.304C353.15 387.094 351.939 388.016 350.254 388.016Z" fill="#4E5C93"/>
<path d="M334.696 465.308C336.539 465.308 338.039 464.676 339.25 463.465C340.435 462.254 341.04 460.701 341.04 458.858C341.04 457.015 340.488 455.541 339.408 454.383C338.303 453.224 336.855 452.645 335.065 452.645C333.959 452.645 332.985 452.908 332.143 453.461C331.248 453.988 330.589 454.751 330.116 455.725H330.01C329.984 455.383 329.984 455.146 329.984 455.041C329.984 452.908 330.379 451.145 331.221 449.776C332.064 448.302 333.222 447.591 334.696 447.591C336.881 447.591 338.171 448.644 338.592 450.802H340.725C340.198 447.433 338.197 445.774 334.722 445.774C332.59 445.774 330.905 446.748 329.668 448.723C328.483 450.592 327.904 453.04 327.904 456.041C327.904 458.911 328.431 461.148 329.536 462.754C330.695 464.439 332.406 465.308 334.696 465.308ZM334.643 463.491C333.327 463.491 332.301 463.044 331.511 462.149C330.721 461.306 330.353 460.227 330.353 458.911C330.353 457.594 330.747 456.541 331.563 455.699C332.38 454.857 333.406 454.435 334.643 454.435C335.933 454.435 336.96 454.83 337.75 455.673C338.513 456.462 338.908 457.515 338.908 458.858C338.908 460.201 338.513 461.306 337.724 462.201C336.934 463.044 335.907 463.491 334.643 463.491ZM350.254 465.308C352.492 465.308 354.177 464.307 355.335 462.333C356.335 460.648 356.835 458.384 356.835 455.541C356.835 452.698 356.335 450.434 355.335 448.749C354.177 446.748 352.492 445.774 350.254 445.774C347.99 445.774 346.305 446.748 345.174 448.749C344.173 450.434 343.673 452.698 343.673 455.541C343.673 458.384 344.173 460.648 345.174 462.333C346.305 464.307 347.99 465.308 350.254 465.308ZM350.254 463.465C348.569 463.465 347.358 462.543 346.621 460.753C346.095 459.463 345.832 457.726 345.832 455.541C345.832 453.33 346.095 451.592 346.621 450.329C347.358 448.512 348.569 447.617 350.254 447.617C351.939 447.617 353.15 448.512 353.887 450.329C354.414 451.592 354.703 453.33 354.703 455.541C354.703 457.726 354.414 459.463 353.887 460.753C353.15 462.543 351.939 463.465 350.254 463.465Z" fill="#4E5C93"/>
<path d="M334.696 465.308C336.539 465.308 338.039 464.676 339.25 463.465C340.435 462.254 341.04 460.701 341.04 458.858C341.04 457.015 340.488 455.541 339.408 454.383C338.303 453.224 336.855 452.645 335.065 452.645C333.959 452.645 332.985 452.908 332.143 453.461C331.248 453.988 330.589 454.751 330.116 455.725H330.01C329.984 455.383 329.984 455.146 329.984 455.041C329.984 452.908 330.379 451.145 331.221 449.776C332.064 448.302 333.222 447.591 334.696 447.591C336.881 447.591 338.171 448.644 338.592 450.802H340.725C340.198 447.433 338.197 445.774 334.722 445.774C332.59 445.774 330.905 446.748 329.668 448.723C328.483 450.592 327.904 453.04 327.904 456.041C327.904 458.911 328.431 461.148 329.536 462.754C330.695 464.439 332.406 465.308 334.696 465.308ZM334.643 463.491C333.327 463.491 332.301 463.044 331.511 462.149C330.721 461.306 330.353 460.227 330.353 458.911C330.353 457.594 330.747 456.541 331.563 455.699C332.38 454.857 333.406 454.435 334.643 454.435C335.933 454.435 336.96 454.83 337.75 455.673C338.513 456.462 338.908 457.515 338.908 458.858C338.908 460.201 338.513 461.306 337.724 462.201C336.934 463.044 335.907 463.491 334.643 463.491ZM350.254 465.308C352.492 465.308 354.177 464.307 355.335 462.333C356.335 460.648 356.835 458.384 356.835 455.541C356.835 452.698 356.335 450.434 355.335 448.749C354.177 446.748 352.492 445.774 350.254 445.774C347.99 445.774 346.305 446.748 345.174 448.749C344.173 450.434 343.673 452.698 343.673 455.541C343.673 458.384 344.173 460.648 345.174 462.333C346.305 464.307 347.99 465.308 350.254 465.308ZM350.254 463.465C348.569 463.465 347.358 462.543 346.621 460.753C346.095 459.463 345.832 457.726 345.832 455.541C345.832 453.33 346.095 451.592 346.621 450.329C347.358 448.512 348.569 447.617 350.254 447.617C351.939 447.617 353.15 448.512 353.887 450.329C354.414 451.592 354.703 453.33 354.703 455.541C354.703 457.726 354.414 459.463 353.887 460.753C353.15 462.543 351.939 463.465 350.254 463.465Z" fill="#4E5C93"/>
<path d="M340.725 615.847V613.926H330.853C331.195 612.662 332.564 611.214 334.959 609.608C336.907 608.292 338.197 607.265 338.855 606.581C340.066 605.265 340.698 603.79 340.698 602.158C340.698 600.526 340.119 599.183 339.013 598.183C337.881 597.183 336.46 596.683 334.722 596.683C332.827 596.683 331.274 597.314 330.116 598.578C328.957 599.815 328.352 601.5 328.352 603.606H330.51C330.537 601.948 330.932 600.684 331.669 599.842C332.353 598.947 333.354 598.525 334.643 598.525C335.854 598.525 336.828 598.841 337.513 599.473C338.197 600.105 338.54 600.974 338.54 602.132C338.54 603.343 338.039 604.475 337.092 605.501C336.592 606.028 335.617 606.791 334.143 607.844C332.143 609.213 330.8 610.345 330.063 611.188C328.799 612.583 328.194 614.136 328.194 615.847H340.725ZM350.254 616.216C352.492 616.216 354.177 615.215 355.335 613.241C356.335 611.556 356.835 609.292 356.835 606.449C356.835 603.606 356.335 601.342 355.335 599.657C354.177 597.657 352.492 596.683 350.254 596.683C347.99 596.683 346.305 597.657 345.173 599.657C344.173 601.342 343.673 603.606 343.673 606.449C343.673 609.292 344.173 611.556 345.173 613.241C346.305 615.215 347.99 616.216 350.254 616.216ZM350.254 614.373C348.569 614.373 347.358 613.452 346.621 611.662C346.095 610.372 345.832 608.634 345.832 606.449C345.832 604.238 346.095 602.5 346.621 601.237C347.358 599.42 348.569 598.525 350.254 598.525C351.939 598.525 353.15 599.42 353.887 601.237C354.414 602.5 354.703 604.238 354.703 606.449C354.703 608.634 354.414 610.372 353.887 611.662C353.15 613.452 351.939 614.373 350.254 614.373Z" fill="#4E5C93"/>
<path d="M340.725 615.847V613.926H330.853C331.195 612.662 332.564 611.214 334.959 609.608C336.907 608.292 338.197 607.265 338.855 606.581C340.066 605.265 340.698 603.79 340.698 602.158C340.698 600.526 340.119 599.183 339.013 598.183C337.881 597.183 336.46 596.683 334.722 596.683C332.827 596.683 331.274 597.314 330.116 598.578C328.957 599.815 328.352 601.5 328.352 603.606H330.51C330.537 601.948 330.932 600.684 331.669 599.842C332.353 598.947 333.354 598.525 334.643 598.525C335.854 598.525 336.828 598.841 337.513 599.473C338.197 600.105 338.54 600.974 338.54 602.132C338.54 603.343 338.039 604.475 337.092 605.501C336.592 606.028 335.617 606.791 334.143 607.844C332.143 609.213 330.8 610.345 330.063 611.188C328.799 612.583 328.194 614.136 328.194 615.847H340.725ZM350.254 616.216C352.492 616.216 354.177 615.215 355.335 613.241C356.335 611.556 356.835 609.292 356.835 606.449C356.835 603.606 356.335 601.342 355.335 599.657C354.177 597.657 352.492 596.683 350.254 596.683C347.99 596.683 346.305 597.657 345.173 599.657C344.173 601.342 343.673 603.606 343.673 606.449C343.673 609.292 344.173 611.556 345.173 613.241C346.305 615.215 347.99 616.216 350.254 616.216ZM350.254 614.373C348.569 614.373 347.358 613.452 346.621 611.662C346.095 610.372 345.832 608.634 345.832 606.449C345.832 604.238 346.095 602.5 346.621 601.237C347.358 599.42 348.569 598.525 350.254 598.525C351.939 598.525 353.15 599.42 353.887 601.237C354.414 602.5 354.703 604.238 354.703 606.449C354.703 608.634 354.414 610.372 353.887 611.662C353.15 613.452 351.939 614.373 350.254 614.373Z" fill="#4E5C93"/>
<path d="M334.459 691.674C336.697 691.674 338.382 690.673 339.54 688.699C340.54 687.014 341.04 684.75 341.04 681.907C341.04 679.064 340.54 676.8 339.54 675.115C338.382 673.115 336.697 672.141 334.459 672.141C332.195 672.141 330.51 673.115 329.378 675.115C328.378 676.8 327.878 679.064 327.878 681.907C327.878 684.75 328.378 687.014 329.378 688.699C330.51 690.673 332.195 691.674 334.459 691.674ZM334.459 689.831C332.774 689.831 331.563 688.91 330.826 687.12C330.3 685.83 330.037 684.092 330.037 681.907C330.037 679.696 330.3 677.958 330.826 676.695C331.563 674.878 332.774 673.983 334.459 673.983C336.144 673.983 337.355 674.878 338.092 676.695C338.619 677.958 338.908 679.696 338.908 681.907C338.908 684.092 338.619 685.83 338.092 687.12C337.355 688.91 336.144 689.831 334.459 689.831Z" fill="#4E5C93"/>
<path d="M334.459 691.674C336.697 691.674 338.382 690.673 339.54 688.699C340.54 687.014 341.04 684.75 341.04 681.907C341.04 679.064 340.54 676.8 339.54 675.115C338.382 673.115 336.697 672.141 334.459 672.141C332.195 672.141 330.51 673.115 329.378 675.115C328.378 676.8 327.878 679.064 327.878 681.907C327.878 684.75 328.378 687.014 329.378 688.699C330.51 690.673 332.195 691.674 334.459 691.674ZM334.459 689.831C332.774 689.831 331.563 688.91 330.826 687.12C330.3 685.83 330.037 684.092 330.037 681.907C330.037 679.696 330.3 677.958 330.826 676.695C331.563 674.878 332.774 673.983 334.459 673.983C336.144 673.983 337.355 674.878 338.092 676.695C338.619 677.958 338.908 679.696 338.908 681.907C338.908 684.092 338.619 685.83 338.092 687.12C337.355 688.91 336.144 689.831 334.459 689.831Z" fill="#4E5C93"/>
<path d="M338.698 540.397V536.132H341.751V534.369H338.698V521.601H336.671L327.194 534.079V536.132H336.644V540.397H338.698ZM336.644 534.369H329.01L336.565 524.418H336.644V534.369ZM350.254 540.766C352.492 540.766 354.177 539.765 355.335 537.791C356.335 536.106 356.836 533.842 356.836 530.999C356.836 528.156 356.335 525.892 355.335 524.207C354.177 522.206 352.492 521.232 350.254 521.232C347.99 521.232 346.306 522.206 345.174 524.207C344.173 525.892 343.673 528.156 343.673 530.999C343.673 533.842 344.173 536.106 345.174 537.791C346.306 539.765 347.99 540.766 350.254 540.766ZM350.254 538.923C348.57 538.923 347.359 538.001 346.621 536.211C346.095 534.921 345.832 533.184 345.832 530.999C345.832 528.788 346.095 527.05 346.621 525.787C347.359 523.97 348.57 523.075 350.254 523.075C351.939 523.075 353.15 523.97 353.887 525.787C354.414 527.05 354.703 528.788 354.703 530.999C354.703 533.184 354.414 534.921 353.887 536.211C353.15 538.001 351.939 538.923 350.254 538.923Z" fill="#4E5C93"/>
<path d="M338.698 540.397V536.132H341.751V534.369H338.698V521.601H336.671L327.194 534.079V536.132H336.644V540.397H338.698ZM336.644 534.369H329.01L336.565 524.418H336.644V534.369ZM350.254 540.766C352.492 540.766 354.177 539.765 355.335 537.791C356.335 536.106 356.836 533.842 356.836 530.999C356.836 528.156 356.335 525.892 355.335 524.207C354.177 522.206 352.492 521.232 350.254 521.232C347.99 521.232 346.306 522.206 345.174 524.207C344.173 525.892 343.673 528.156 343.673 530.999C343.673 533.842 344.173 536.106 345.174 537.791C346.306 539.765 347.99 540.766 350.254 540.766ZM350.254 538.923C348.57 538.923 347.359 538.001 346.621 536.211C346.095 534.921 345.832 533.184 345.832 530.999C345.832 528.788 346.095 527.05 346.621 525.787C347.359 523.97 348.57 523.075 350.254 523.075C351.939 523.075 353.15 523.97 353.887 525.787C354.414 527.05 354.703 528.788 354.703 530.999C354.703 533.184 354.414 534.921 353.887 536.211C353.15 538.001 351.939 538.923 350.254 538.923Z" fill="#4E5C93"/>
<path d="M738.937 757.118V755.196H729.065C729.408 753.932 730.776 752.485 733.172 750.879C735.12 749.562 736.41 748.536 737.068 747.851C738.279 746.535 738.911 745.061 738.911 743.429C738.911 741.797 738.332 740.454 737.226 739.454C736.094 738.453 734.673 737.953 732.935 737.953C731.04 737.953 729.486 738.585 728.328 739.849C727.17 741.086 726.564 742.771 726.564 744.877H728.723C728.749 743.218 729.144 741.955 729.881 741.112C730.566 740.217 731.566 739.796 732.856 739.796C734.067 739.796 735.041 740.112 735.726 740.744C736.41 741.375 736.752 742.244 736.752 743.402C736.752 744.613 736.252 745.745 735.304 746.772C734.804 747.299 733.83 748.062 732.356 749.115C730.355 750.484 729.013 751.616 728.276 752.458C727.012 753.853 726.406 755.407 726.406 757.118H738.937ZM748.467 757.486C750.704 757.486 752.389 756.486 753.548 754.512C754.548 752.827 755.048 750.563 755.048 747.72C755.048 744.877 754.548 742.613 753.548 740.928C752.389 738.927 750.704 737.953 748.467 737.953C746.203 737.953 744.518 738.927 743.386 740.928C742.386 742.613 741.886 744.877 741.886 747.72C741.886 750.563 742.386 752.827 743.386 754.512C744.518 756.486 746.203 757.486 748.467 757.486ZM748.467 755.644C746.782 755.644 745.571 754.722 744.834 752.932C744.307 751.642 744.044 749.905 744.044 747.72C744.044 745.508 744.307 743.771 744.834 742.507C745.571 740.691 746.782 739.796 748.467 739.796C750.152 739.796 751.363 740.691 752.1 742.507C752.626 743.771 752.916 745.508 752.916 747.72C752.916 749.905 752.626 751.642 752.1 752.932C751.363 754.722 750.152 755.644 748.467 755.644ZM764.104 757.118V738.322H762.419C761.787 739.032 761.05 739.664 760.155 740.243C759.26 740.77 758.365 741.139 757.523 741.375V743.534C759.286 743.008 760.761 742.165 761.945 740.954V757.118H764.104ZM774.818 757.486C776.977 757.486 778.662 756.96 779.873 755.933C781.031 754.933 781.61 753.59 781.61 751.932C781.61 750.721 781.241 749.668 780.504 748.773C779.82 747.93 778.978 747.377 778.003 747.141V747.088C778.978 746.746 779.715 746.193 780.241 745.456C780.715 744.771 780.952 743.929 780.952 742.929C780.952 741.56 780.425 740.401 779.425 739.48C778.319 738.453 776.766 737.953 774.818 737.953C772.844 737.953 771.317 738.453 770.211 739.48C769.185 740.401 768.684 741.56 768.684 742.929C768.684 743.929 768.921 744.771 769.395 745.456C769.895 746.193 770.632 746.746 771.633 747.088V747.141C770.632 747.377 769.816 747.93 769.132 748.773C768.395 749.668 768.026 750.721 768.026 751.932C768.026 753.59 768.605 754.933 769.764 755.933C770.948 756.96 772.633 757.486 774.818 757.486ZM774.818 746.377C773.344 746.377 772.265 746.009 771.58 745.324C771.001 744.745 770.711 743.955 770.711 743.008C770.711 742.086 771.027 741.323 771.685 740.744C772.423 740.059 773.476 739.717 774.818 739.717C776.134 739.717 777.187 740.059 777.951 740.744C778.583 741.323 778.925 742.086 778.925 743.008C778.925 743.955 778.635 744.745 778.056 745.324C777.345 746.009 776.266 746.377 774.818 746.377ZM774.818 755.723C773.291 755.723 772.107 755.354 771.317 754.643C770.527 753.959 770.159 753.037 770.159 751.932C770.159 750.8 770.527 749.878 771.317 749.194C772.133 748.43 773.291 748.062 774.818 748.062C776.319 748.062 777.503 748.43 778.346 749.194C779.083 749.878 779.478 750.8 779.478 751.932C779.478 753.037 779.083 753.932 778.346 754.617C777.503 755.354 776.345 755.723 774.818 755.723Z" fill="#4E5C93"/>
<path d="M738.937 757.118V755.196H729.065C729.408 753.932 730.776 752.485 733.172 750.879C735.12 749.562 736.41 748.536 737.068 747.851C738.279 746.535 738.911 745.061 738.911 743.429C738.911 741.797 738.332 740.454 737.226 739.454C736.094 738.453 734.673 737.953 732.935 737.953C731.04 737.953 729.486 738.585 728.328 739.849C727.17 741.086 726.564 742.771 726.564 744.877H728.723C728.749 743.218 729.144 741.955 729.881 741.112C730.566 740.217 731.566 739.796 732.856 739.796C734.067 739.796 735.041 740.112 735.726 740.744C736.41 741.375 736.752 742.244 736.752 743.402C736.752 744.613 736.252 745.745 735.304 746.772C734.804 747.299 733.83 748.062 732.356 749.115C730.355 750.484 729.013 751.616 728.276 752.458C727.012 753.853 726.406 755.407 726.406 757.118H738.937ZM748.467 757.486C750.704 757.486 752.389 756.486 753.548 754.512C754.548 752.827 755.048 750.563 755.048 747.72C755.048 744.877 754.548 742.613 753.548 740.928C752.389 738.927 750.704 737.953 748.467 737.953C746.203 737.953 744.518 738.927 743.386 740.928C742.386 742.613 741.886 744.877 741.886 747.72C741.886 750.563 742.386 752.827 743.386 754.512C744.518 756.486 746.203 757.486 748.467 757.486ZM748.467 755.644C746.782 755.644 745.571 754.722 744.834 752.932C744.307 751.642 744.044 749.905 744.044 747.72C744.044 745.508 744.307 743.771 744.834 742.507C745.571 740.691 746.782 739.796 748.467 739.796C750.152 739.796 751.363 740.691 752.1 742.507C752.626 743.771 752.916 745.508 752.916 747.72C752.916 749.905 752.626 751.642 752.1 752.932C751.363 754.722 750.152 755.644 748.467 755.644ZM764.104 757.118V738.322H762.419C761.787 739.032 761.05 739.664 760.155 740.243C759.26 740.77 758.365 741.139 757.523 741.375V743.534C759.286 743.008 760.761 742.165 761.945 740.954V757.118H764.104ZM774.818 757.486C776.977 757.486 778.662 756.96 779.873 755.933C781.031 754.933 781.61 753.59 781.61 751.932C781.61 750.721 781.241 749.668 780.504 748.773C779.82 747.93 778.978 747.377 778.003 747.141V747.088C778.978 746.746 779.715 746.193 780.241 745.456C780.715 744.771 780.952 743.929 780.952 742.929C780.952 741.56 780.425 740.401 779.425 739.48C778.319 738.453 776.766 737.953 774.818 737.953C772.844 737.953 771.317 738.453 770.211 739.48C769.185 740.401 768.684 741.56 768.684 742.929C768.684 743.929 768.921 744.771 769.395 745.456C769.895 746.193 770.632 746.746 771.633 747.088V747.141C770.632 747.377 769.816 747.93 769.132 748.773C768.395 749.668 768.026 750.721 768.026 751.932C768.026 753.59 768.605 754.933 769.764 755.933C770.948 756.96 772.633 757.486 774.818 757.486ZM774.818 746.377C773.344 746.377 772.265 746.009 771.58 745.324C771.001 744.745 770.711 743.955 770.711 743.008C770.711 742.086 771.027 741.323 771.685 740.744C772.423 740.059 773.476 739.717 774.818 739.717C776.134 739.717 777.187 740.059 777.951 740.744C778.583 741.323 778.925 742.086 778.925 743.008C778.925 743.955 778.635 744.745 778.056 745.324C777.345 746.009 776.266 746.377 774.818 746.377ZM774.818 755.723C773.291 755.723 772.107 755.354 771.317 754.643C770.527 753.959 770.159 753.037 770.159 751.932C770.159 750.8 770.527 749.878 771.317 749.194C772.133 748.43 773.291 748.062 774.818 748.062C776.319 748.062 777.503 748.43 778.346 749.194C779.083 749.878 779.478 750.8 779.478 751.932C779.478 753.037 779.083 753.932 778.346 754.617C777.503 755.354 776.345 755.723 774.818 755.723Z" fill="#4E5C93"/>
<path d="M835.296 757.118V755.196H825.424C825.766 753.932 827.135 752.485 829.531 750.879C831.479 749.562 832.769 748.536 833.427 747.851C834.638 746.535 835.27 745.061 835.27 743.429C835.27 741.797 834.691 740.454 833.585 739.454C832.453 738.453 831.031 737.953 829.294 737.953C827.399 737.953 825.845 738.585 824.687 739.849C823.529 741.086 822.923 742.771 822.923 744.877H825.082C825.108 743.218 825.503 741.955 826.24 741.112C826.925 740.217 827.925 739.796 829.215 739.796C830.426 739.796 831.4 740.112 832.084 740.744C832.769 741.375 833.111 742.244 833.111 743.402C833.111 744.613 832.611 745.745 831.663 746.772C831.163 747.299 830.189 748.062 828.715 749.115C826.714 750.484 825.372 751.616 824.634 752.458C823.371 753.853 822.765 755.407 822.765 757.118H835.296ZM844.826 757.486C847.063 757.486 848.748 756.486 849.906 754.512C850.907 752.827 851.407 750.563 851.407 747.72C851.407 744.877 850.907 742.613 849.906 740.928C848.748 738.927 847.063 737.953 844.826 737.953C842.562 737.953 840.877 738.927 839.745 740.928C838.745 742.613 838.244 744.877 838.244 747.72C838.244 750.563 838.745 752.827 839.745 754.512C840.877 756.486 842.562 757.486 844.826 757.486ZM844.826 755.644C843.141 755.644 841.93 754.722 841.193 752.932C840.666 751.642 840.403 749.905 840.403 747.72C840.403 745.508 840.666 743.771 841.193 742.507C841.93 740.691 843.141 739.796 844.826 739.796C846.511 739.796 847.721 740.691 848.459 742.507C848.985 743.771 849.275 745.508 849.275 747.72C849.275 749.905 848.985 751.642 848.459 752.932C847.721 754.722 846.511 755.644 844.826 755.644ZM860.463 757.118V738.322H858.778C858.146 739.032 857.409 739.664 856.514 740.243C855.619 740.77 854.724 741.139 853.882 741.375V743.534C855.645 743.008 857.12 742.165 858.304 740.954V757.118H860.463ZM870.94 757.486C873.046 757.486 874.731 756.486 875.995 754.538C877.153 752.643 877.758 750.221 877.758 747.22C877.758 744.324 877.205 742.06 876.1 740.48C874.941 738.796 873.23 737.953 870.966 737.953C869.124 737.953 867.597 738.559 866.412 739.796C865.201 741.007 864.622 742.534 864.622 744.403C864.622 746.219 865.149 747.693 866.228 748.825C867.334 750.01 868.781 750.615 870.598 750.615C871.704 750.615 872.678 750.326 873.52 749.799C874.389 749.247 875.073 748.483 875.547 747.535H875.652C875.652 747.851 875.679 748.088 875.679 748.22C875.679 750.326 875.257 752.09 874.441 753.485C873.573 754.933 872.414 755.67 870.966 755.67C868.755 755.67 867.465 754.591 867.07 752.458H864.938C865.438 755.802 867.439 757.486 870.94 757.486ZM871.019 748.825C869.703 748.825 868.676 748.404 867.913 747.588C867.123 746.798 866.754 745.719 866.754 744.403C866.754 743.034 867.123 741.928 867.913 741.06C868.702 740.191 869.729 739.77 871.019 739.77C872.309 739.77 873.362 740.217 874.152 741.112C874.915 741.955 875.31 743.034 875.31 744.35C875.31 745.64 874.889 746.719 874.099 747.562C873.257 748.404 872.23 748.825 871.019 748.825Z" fill="#4E5C93"/>
<path d="M835.296 757.118V755.196H825.424C825.766 753.932 827.135 752.485 829.531 750.879C831.479 749.562 832.769 748.536 833.427 747.851C834.638 746.535 835.27 745.061 835.27 743.429C835.27 741.797 834.691 740.454 833.585 739.454C832.453 738.453 831.031 737.953 829.294 737.953C827.399 737.953 825.845 738.585 824.687 739.849C823.529 741.086 822.923 742.771 822.923 744.877H825.082C825.108 743.218 825.503 741.955 826.24 741.112C826.925 740.217 827.925 739.796 829.215 739.796C830.426 739.796 831.4 740.112 832.084 740.744C832.769 741.375 833.111 742.244 833.111 743.402C833.111 744.613 832.611 745.745 831.663 746.772C831.163 747.299 830.189 748.062 828.715 749.115C826.714 750.484 825.372 751.616 824.634 752.458C823.371 753.853 822.765 755.407 822.765 757.118H835.296ZM844.826 757.486C847.063 757.486 848.748 756.486 849.906 754.512C850.907 752.827 851.407 750.563 851.407 747.72C851.407 744.877 850.907 742.613 849.906 740.928C848.748 738.927 847.063 737.953 844.826 737.953C842.562 737.953 840.877 738.927 839.745 740.928C838.745 742.613 838.244 744.877 838.244 747.72C838.244 750.563 838.745 752.827 839.745 754.512C840.877 756.486 842.562 757.486 844.826 757.486ZM844.826 755.644C843.141 755.644 841.93 754.722 841.193 752.932C840.666 751.642 840.403 749.905 840.403 747.72C840.403 745.508 840.666 743.771 841.193 742.507C841.93 740.691 843.141 739.796 844.826 739.796C846.511 739.796 847.721 740.691 848.459 742.507C848.985 743.771 849.275 745.508 849.275 747.72C849.275 749.905 848.985 751.642 848.459 752.932C847.721 754.722 846.511 755.644 844.826 755.644ZM860.463 757.118V738.322H858.778C858.146 739.032 857.409 739.664 856.514 740.243C855.619 740.77 854.724 741.139 853.882 741.375V743.534C855.645 743.008 857.12 742.165 858.304 740.954V757.118H860.463ZM870.94 757.486C873.046 757.486 874.731 756.486 875.995 754.538C877.153 752.643 877.758 750.221 877.758 747.22C877.758 744.324 877.205 742.06 876.1 740.48C874.941 738.796 873.23 737.953 870.966 737.953C869.124 737.953 867.597 738.559 866.412 739.796C865.201 741.007 864.622 742.534 864.622 744.403C864.622 746.219 865.149 747.693 866.228 748.825C867.334 750.01 868.781 750.615 870.598 750.615C871.704 750.615 872.678 750.326 873.52 749.799C874.389 749.247 875.073 748.483 875.547 747.535H875.652C875.652 747.851 875.679 748.088 875.679 748.22C875.679 750.326 875.257 752.09 874.441 753.485C873.573 754.933 872.414 755.67 870.966 755.67C868.755 755.67 867.465 754.591 867.07 752.458H864.938C865.438 755.802 867.439 757.486 870.94 757.486ZM871.019 748.825C869.703 748.825 868.676 748.404 867.913 747.588C867.123 746.798 866.754 745.719 866.754 744.403C866.754 743.034 867.123 741.928 867.913 741.06C868.702 740.191 869.729 739.77 871.019 739.77C872.309 739.77 873.362 740.217 874.152 741.112C874.915 741.955 875.31 743.034 875.31 744.35C875.31 745.64 874.889 746.719 874.099 747.562C873.257 748.404 872.23 748.825 871.019 748.825Z" fill="#4E5C93"/>
<path d="M391.636 331.784C392.415 331.784 393.056 332.379 393.129 333.14L393.136 333.284V781.533C393.136 782.362 392.464 783.033 391.636 783.033C390.856 783.033 390.215 782.438 390.142 781.678L390.136 781.533V333.284C390.136 332.456 390.807 331.784 391.636 331.784Z" fill="#A3B5D6"/>
<path d="M555.993 490.362C557.65 488.954 560.137 489.246 561.429 490.96L561.55 491.13L667.422 648.685L750.48 590.743C750.993 590.385 751.586 590.161 752.204 590.091L752.437 590.071L858.96 584.552C861.034 584.445 862.802 586.039 862.91 588.113C863.014 590.121 861.524 591.842 859.548 592.048L859.349 592.064L753.899 597.526L668.588 657.045C666.921 658.208 664.645 657.831 663.436 656.228L663.315 656.058L557.656 498.819L433.799 604.101C432.271 605.4 430.006 605.265 428.641 603.83L428.498 603.671C427.199 602.143 427.334 599.878 428.769 598.513L428.928 598.37L555.993 490.362Z" fill="#A3B5D6"/>
<path d="M844.285 395.826C845.448 394.105 847.786 393.652 849.507 394.815C851.171 395.938 851.649 398.16 850.629 399.862L850.518 400.036L755.748 540.339C754.422 542.302 751.651 542.553 749.992 540.912L749.844 540.758L639.833 419.232L562.646 470.939C562.081 471.318 561.424 471.535 560.747 471.57L560.492 471.575L430.146 469.459C428.069 469.426 426.413 467.715 426.446 465.638C426.479 463.628 428.083 462.012 430.068 461.941L430.268 461.939L559.436 464.035L638.347 411.175C639.841 410.175 641.823 410.375 643.086 411.627L643.228 411.776L752.2 532.153L844.285 395.826Z" fill="#E4EBF7"/>
<path d="M680.913 485.941C681.824 485.149 683.056 484.846 684.223 485.116L684.441 485.173L754.47 505.796L857.401 489.513C859.386 489.199 861.254 490.5 861.666 492.443L861.703 492.64C862.017 494.625 860.716 496.493 858.772 496.906L858.576 496.942L754.808 513.357C754.336 513.432 753.854 513.416 753.389 513.311L753.158 513.25L684.29 492.969L566.093 595.604C564.902 596.638 563.2 596.814 561.828 596.066L561.643 595.959L421.876 509.133C420.112 508.037 419.57 505.718 420.666 503.954C421.726 502.249 423.928 501.686 425.667 502.64L425.845 502.744L563.256 588.106L680.913 485.941Z" fill="#4E5C93"/>
</svg>
