<svg width="21" height="21" viewBox="0 0 21 21" fill="none" xmlns="http://www.w3.org/2000/svg">
<path d="M20.16 0H0.84C0.375375 0 0 0.375375 0 0.84V20.16C0 20.6246 0.375375 21 0.84 21H20.16C20.6246 21 21 20.6246 21 20.16V0.84C21 0.375375 20.6246 0 20.16 0ZM6.22912 17.8946H3.11325V7.87237H6.22912V17.8946ZM4.6725 6.50213C4.31531 6.50213 3.96614 6.3962 3.66914 6.19776C3.37214 5.99931 3.14067 5.71725 3.00397 5.38725C2.86728 5.05725 2.83152 4.69412 2.9012 4.34379C2.97089 3.99346 3.14289 3.67166 3.39547 3.41909C3.64804 3.16652 3.96984 2.99451 4.32017 2.92483C4.6705 2.85514 5.03362 2.89091 5.36363 3.0276C5.69363 3.16429 5.97569 3.39577 6.17413 3.69277C6.37258 3.98976 6.4785 4.33893 6.4785 4.69612C6.47587 5.69362 5.66738 6.50213 4.6725 6.50213ZM17.8946 17.8946H14.7814V13.02C14.7814 11.8571 14.7604 10.3635 13.1618 10.3635C11.5421 10.3635 11.2928 11.6287 11.2928 12.936V17.8946H8.18213V7.87237H11.1694V9.24263H11.2114C11.6261 8.45513 12.642 7.623 14.1593 7.623C17.3145 7.623 17.8946 9.69937 17.8946 12.3979V17.8946Z" fill="#DCDCDC"/>
</svg>
