<svg width="1024" height="1024" viewBox="0 0 1024 1024" fill="none" xmlns="http://www.w3.org/2000/svg">
<path fill-rule="evenodd" clip-rule="evenodd" d="M921.27 210.319H102.999V136.999C102.999 121.094 115.894 108.199 131.799 108.199H892.47C908.376 108.199 921.27 121.094 921.27 136.999V210.319Z" fill="#253368"/>
<path fill-rule="evenodd" clip-rule="evenodd" d="M892.47 916.277H131.799C115.894 916.277 102.999 903.383 102.999 887.477V201.731H921.27V887.477C921.27 903.383 908.376 916.277 892.47 916.277Z" fill="#E4EBF7"/>
<path fill-rule="evenodd" clip-rule="evenodd" d="M169.498 155.724C169.498 165.705 161.405 173.798 151.422 173.798C141.441 173.798 133.349 165.705 133.349 155.724C133.349 145.742 141.441 137.649 151.422 137.649C161.405 137.649 169.498 145.742 169.498 155.724Z" fill="#A3B5D6"/>
<path fill-rule="evenodd" clip-rule="evenodd" d="M236.997 155.724C236.997 165.705 228.905 173.798 218.922 173.798C208.941 173.798 200.849 165.705 200.849 155.724C200.849 145.742 208.941 137.649 218.922 137.649C228.905 137.649 236.997 145.742 236.997 155.724Z" fill="#E4EBF7"/>
<path fill-rule="evenodd" clip-rule="evenodd" d="M304.496 155.724C304.496 165.705 296.405 173.798 286.422 173.798C276.44 173.798 268.349 165.705 268.349 155.724C268.349 145.742 276.44 137.649 286.422 137.649C296.405 137.649 304.496 145.742 304.496 155.724Z" fill="#E4EBF7"/>
<path fill-rule="evenodd" clip-rule="evenodd" d="M788.639 741.951H231.593C226.292 741.951 221.993 737.652 221.993 732.351V290.554C221.993 285.251 226.292 280.954 231.593 280.954H788.639C793.942 280.954 798.239 285.251 798.239 290.554V732.351C798.239 737.652 793.942 741.951 788.639 741.951Z" fill="white"/>
<path fill-rule="evenodd" clip-rule="evenodd" d="M748.302 701.613H271.93C266.628 701.613 262.33 697.315 262.33 692.013V330.89C262.33 325.588 266.628 321.29 271.93 321.29H748.302C753.605 321.29 757.902 325.588 757.902 330.89V692.013C757.902 697.315 753.605 701.613 748.302 701.613Z" fill="#E4EBF7"/>
<path fill-rule="evenodd" clip-rule="evenodd" d="M403 701.567H761.096L616.632 519.671C603.216 502.779 577.775 502.162 563.556 518.385L403 701.567Z" fill="#4E5C93"/>
<path fill-rule="evenodd" clip-rule="evenodd" d="M268.6 701.148H582.279L448.547 557.239C434.712 542.351 411.082 542.55 397.5 557.669L268.6 701.148Z" fill="#4E5C93"/>
<path fill-rule="evenodd" clip-rule="evenodd" d="M508.508 429.535C508.508 470.268 475.487 503.289 434.754 503.289C394.022 503.289 361 470.268 361 429.535C361 388.803 394.022 355.782 434.754 355.782C475.487 355.782 508.508 388.803 508.508 429.535Z" fill="#A3B5D6"/>
<path d="M794.402 792.938C796.611 792.938 798.402 794.729 798.402 796.938C798.402 799.081 796.718 800.83 794.601 800.934L794.402 800.938H223.289C221.08 800.938 219.289 799.148 219.289 796.938C219.289 794.796 220.973 793.047 223.09 792.943L223.289 792.938H794.402Z" fill="#A3B5D6"/>
<path d="M515.336 835.851C517.545 835.851 519.336 837.641 519.336 839.851C519.336 841.993 517.652 843.742 515.535 843.846L515.336 843.851H223.289C221.08 843.851 219.289 842.06 219.289 839.851C219.289 837.708 220.973 835.959 223.09 835.855L223.289 835.851H515.336Z" fill="#A3B5D6"/>
</svg>
