<?xml version="1.0" encoding="UTF-8"?><svg id="Layer_2" xmlns="http://www.w3.org/2000/svg" viewBox="0 0 376.25 482.7"><defs><style>.cls-1{stroke:#9ecd28;}.cls-1,.cls-2{fill:none;stroke-linecap:round;stroke-linejoin:round;stroke-width:12px;}.cls-2{stroke:#046b99;}</style></defs><g id="Layer_1-2"><g id="idea_10"><path id="path_100" class="cls-2" d="m188.12,6c100.59,0,182.13,81.54,182.13,182.13,0,68.71-38.05,128.53-94.24,159.54v70.44H100.23v-70.44C44.05,316.66,6,256.84,6,188.13,6,87.54,87.54,6,188.12,6Z"/><path id="path_101" class="cls-1" d="m158.82,418.11h58.6v-224.61h-58.6v224.61Z"/><path id="path_102" class="cls-2" d="m109.02,418.11h158.2c0,32.27-26.32,58.59-58.59,58.59h-41.02c-32.27,0-58.59-26.32-58.59-58.59Z"/><path id="path_103" class="cls-1" d="m159.31,193.5h57.61l-28.8-78.95-28.81,78.95Z"/><path id="path_104" class="cls-1" d="m158.82,252.09h58.6v-58.59h-58.6v58.59Z"/></g></g></svg>