<svg xmlns="http://www.w3.org/2000/svg" viewBox="0 0 830 830.27"><defs><style>.cls-1{fill:#fbf3e1;}.cls-2{fill:#7d9098;}.cls-3{fill:#d4dadd;}.cls-4{fill:#516b75;}.cls-5{fill:#fff;}.cls-6{fill:#a8b5ba;}.cls-7{fill:#e9c46a;}.cls-8{fill:#b9a30b;}.cls-9{fill:#caddff;}</style></defs><g id="Layer_2" data-name="Layer 2"><g id="Illustration"><path class="cls-1" d="M36.32,258.09c-18,39.81-44.55,116-33.87,210.83C16.16,590.54,84,686.43,150.06,740.32c219.09,178.8,620.16,63.29,673.27-105.14,9.64-30.56,6.93-60,3.6-96.29-10.6-115.34-66.45-149.62-104-272.09-34.18-111.44-.48-124-32.44-173.53C621.14-14.21,421-19.63,283.29,31.9,230.4,51.69,102,112.4,36.32,258.09Z"/><path class="cls-2" d="M454.28,328.54C458,319,482,255.2,470.41,217.79c-1.61-5.2-4.12-13.28-11.44-19.73-14.61-12.87-29.41-2.48-41-11.88-15.34-12.39,2.16-37.14-14.57-72.89-4-8.57-10.26-21.92-24-28.65-15.39-7.5-24.33,1-39.51-4.8-18.93-7.21-16.89-24.92-34.7-42.62C286.36,18.56,249.74,4.06,222.7,18.77c-23.59,12.83-30.94,43-29.83,63.66,1.64,30.52,22.58,55.47,44.51,67,31.53,16.56,63.45,4.5,67.67,16.49,3.92,11.17-23.59,22.1-22.17,43,1,14.6,15.75,28.87,30.82,32.56,20.88,5.12,33-12.38,45.48-5.71,13.07,7,5.79,29.48,15.13,49.88C382,302.46,402.14,320.27,454.28,328.54Z"/><path class="cls-3" d="M455,321.9a1.49,1.49,0,0,1-1.46-1.19C435.65,236,382.72,175.39,341.47,139.45c-44.75-39-85.8-58.17-86.21-58.36a1.5,1.5,0,0,1,1.26-2.73c.41.19,41.78,19.51,86.85,58.77,26.48,23.06,49.05,48.39,67.09,75.3,22.56,33.66,38.06,69.88,46.05,107.66a1.5,1.5,0,0,1-1.16,1.78A1.55,1.55,0,0,1,455,321.9Z"/><path class="cls-4" d="M458.81,295.67c31.54-71.77,27.4-103.13,16-118.32-3.39-4.53-11.38-13-16.24-27.58-6.29-19-1.18-29.87-1.82-45.6C455.54,73.41,433.14,44,408.3,29.79,390.94,19.88,357.55,8.94,337,25.15c-8.68,6.86-17.39,20.41-13.56,30.19,5.48,14,32.82,6.32,45.88,25.13,7.12,10.27,1.07,15.47,8.73,26.31,12.06,17.08,32.7,12.11,36.8,24.23,4,11.74-14.56,19.46-11.93,34.53,3,17.18,28.3,19.51,29.38,36.07.64,9.86-8.19,11.07-8.69,22.52-.6,13.93,12.15,19.76,24,40.48C454.24,276.22,457,287.22,458.81,295.67Z"/><path class="cls-3" d="M459.62,289.82h-.11a1.5,1.5,0,0,1-1.38-1.61c4.42-61.08-5.41-125.92-26.29-173.44-27.47-62.54-68.06-80.69-68.47-80.87a1.5,1.5,0,1,1,1.19-2.75c.42.18,42,18.72,70,82.41,21.07,47.95,31,113.32,26.53,174.87A1.5,1.5,0,0,1,459.62,289.82Z"/><path d="M666.57,756.82H222.92c-13.77,0-25-13.73-22.78-27.39l95.41-591.35c1.76-10.88,10.51-20,21.48-20H760.68c13.77,0,24.87,13.51,22.66,27.17L687.93,736.62C686.17,747.49,677.54,756.82,666.57,756.82Z"/><path class="cls-2" d="M648.85,756.8H205.21a22.36,22.36,0,0,1-22.07-25.94l95.5-592.58a22.36,22.36,0,0,1,22.07-18.78H744.36a22.35,22.35,0,0,1,22.07,25.93L670.93,738A22.38,22.38,0,0,1,648.85,756.8Z"/><path class="cls-2" d="M648.85,758.3H205.21a23.86,23.86,0,0,1-23.55-27.68L277.16,138a23.77,23.77,0,0,1,23.55-20H744.36a23.85,23.85,0,0,1,23.55,27.67l-95.5,592.59A23.78,23.78,0,0,1,648.85,758.3ZM300.71,121a20.78,20.78,0,0,0-20.59,17.52L184.62,731.1a20.85,20.85,0,0,0,20.59,24.2H648.85a20.77,20.77,0,0,0,20.59-17.52L765,145.19A20.85,20.85,0,0,0,744.36,121Z"/><path class="cls-5" d="M638.66,738.14H221a21.05,21.05,0,0,1-20.78-24.42l89.91-557.88a21,21,0,0,1,20.78-17.68H728.57a21.06,21.06,0,0,1,20.78,24.42L659.44,720.45A21.06,21.06,0,0,1,638.66,738.14Z"/><path d="M500.43,726.67H350.87a1.5,1.5,0,0,1,0-3H500.43a1.5,1.5,0,0,1,0,3Z"/><path class="cls-2" d="M550.34,153.34H476.08a16.62,16.62,0,0,1-16.61-16.62H567A16.62,16.62,0,0,1,550.34,153.34Z"/><path class="cls-6" d="M396.72,225.78H615.6a14.15,14.15,0,0,0,13.5-11.67l1.56-10c1-6.45-3.4-11.68-9.84-11.68H401.93a14.18,14.18,0,0,0-13.5,11.68l-1.56,10C385.86,220.56,390.27,225.78,396.72,225.78Z"/><path class="cls-3" d="M340,301.43H648.69a13.54,13.54,0,0,0,12.9-11.16c1-6.16-3.25-11.16-9.41-11.16H343.44a13.54,13.54,0,0,0-12.9,11.16C329.58,296.43,333.79,301.43,340,301.43Z"/><path class="cls-3" d="M646.68,314.25H337.94A13.54,13.54,0,0,0,325,325.41c-1,6.16,3.25,11.16,9.41,11.16H643.18a13.55,13.55,0,0,0,12.91-11.16C657.05,319.25,652.84,314.25,646.68,314.25Z"/><path class="cls-3" d="M641.18,349.39H332.44a13.54,13.54,0,0,0-12.9,11.16c-1,6.16,3.24,11.16,9.41,11.16H637.68a13.56,13.56,0,0,0,12.91-11.16C651.55,354.39,647.34,349.39,641.18,349.39Z"/><path class="cls-3" d="M630.78,415.76H322.05a13.56,13.56,0,0,0-12.91,11.16h0c-1,6.16,3.25,11.16,9.42,11.16H627.29a13.54,13.54,0,0,0,12.9-11.16h0C641.16,420.76,637,415.76,630.78,415.76Z"/><path class="cls-3" d="M625.28,450.9H316.55a13.55,13.55,0,0,0-12.91,11.16h0c-1,6.16,3.25,11.16,9.41,11.16H621.79a13.54,13.54,0,0,0,12.9-11.16h0C635.66,455.9,631.44,450.9,625.28,450.9Z"/><path class="cls-3" d="M619.78,486.05H311a13.53,13.53,0,0,0-12.9,11.15h0c-1,6.17,3.25,11.16,9.41,11.16H616.29a13.53,13.53,0,0,0,12.9-11.16h0C630.16,491,625.94,486.05,619.78,486.05Z"/><path class="cls-3" d="M609.39,552.41H300.65a13.54,13.54,0,0,0-12.9,11.16c-1,6.16,3.25,11.16,9.41,11.16H605.89a13.55,13.55,0,0,0,12.91-11.16C619.76,557.41,615.55,552.41,609.39,552.41Z"/><path class="cls-3" d="M603.89,587.56H295.15a13.53,13.53,0,0,0-12.9,11.15c-1,6.17,3.25,11.16,9.41,11.16H600.39a13.55,13.55,0,0,0,12.91-11.16C614.26,592.55,610.05,587.56,603.89,587.56Z"/><path class="cls-3" d="M598.38,622.7H289.65a13.55,13.55,0,0,0-12.91,11.16C275.78,640,280,645,286.16,645H594.89a13.53,13.53,0,0,0,12.9-11.15C608.76,627.69,604.55,622.7,598.38,622.7Z"/><path class="cls-7" d="M694.84,1.5A133.27,133.27,0,0,0,561.57,134.77V268H692.76v0c.69,0,1.38,0,2.08,0a133.27,133.27,0,0,0,0-266.54Z"/><path class="cls-8" d="M694.84,269.54l-1.58,0H693l-.25,0H561.57a1.5,1.5,0,0,1-1.5-1.5V134.77C560.07,60.46,620.53,0,694.84,0S829.61,60.46,829.61,134.77,769.15,269.54,694.84,269.54Zm-2.08-3h.55l1.53,0c72.66,0,131.77-59.11,131.77-131.77S767.5,3,694.84,3,563.07,62.11,563.07,134.77V266.54H692.49A1.24,1.24,0,0,1,692.76,266.51Z"/><path class="cls-5" d="M712.93,193.84V111.39H676.75v82.45a10.09,10.09,0,0,1-10.09,10.08h0v8.9H723v-8.9h0A10.08,10.08,0,0,1,712.93,193.84Z"/><circle class="cls-5" cx="694.84" cy="74.99" r="20.39"/><rect class="cls-5" x="115" y="568.81" width="19.08" height="220.25"/><path d="M134.08,790.56H115a1.5,1.5,0,0,1-1.5-1.5V568.81a1.5,1.5,0,0,1,1.5-1.5h19.08a1.5,1.5,0,0,1,1.5,1.5V789.06A1.5,1.5,0,0,1,134.08,790.56Zm-17.58-3h16.08V570.31H116.5Z"/><path class="cls-6" d="M124.54,776.86h0a175,175,0,0,0-55.4,9l-7,2.35a15.64,15.64,0,0,0-10.69,14.84H197.68A15.65,15.65,0,0,0,187,788.21l-7-2.35A175,175,0,0,0,124.54,776.86Z"/><path d="M197.68,804.55H51.41a1.5,1.5,0,0,1-1.5-1.5,17.12,17.12,0,0,1,11.71-16.26l7-2.35a176.49,176.49,0,0,1,111.76,0l7.05,2.35a17.12,17.12,0,0,1,11.71,16.26A1.5,1.5,0,0,1,197.68,804.55ZM53,801.55H196.1a14.12,14.12,0,0,0-9.58-11.92l-7-2.35a173.62,173.62,0,0,0-109.87,0l-7,2.35A14.11,14.11,0,0,0,53,801.55Z"/><path class="cls-6" d="M152.32,413.12H54.66a26.83,26.83,0,0,0-25.77,19.23,202.34,202.34,0,0,0-7.95,56.78,205.71,205.71,0,0,0,4.61,43.67,49.14,49.14,0,0,0,48.13,38.43H181.5a49.46,49.46,0,0,0,48.32-39.3c.59-2.77,1.14-6.28,1.64-10A23.74,23.74,0,0,0,207.94,495h0a23.73,23.73,0,0,1-23.63-21.48c-1.34-14.14-3.45-31.73-6.22-41.19A26.83,26.83,0,0,0,152.32,413.12Z"/><path class="cls-6" d="M181.5,572.73H73.68c-23.75,0-44.6-16.66-49.59-39.61a207.11,207.11,0,0,1-4.65-44,203.13,203.13,0,0,1,8-57.2,28.48,28.48,0,0,1,27.21-20.31h97.66a28.48,28.48,0,0,1,27.21,20.31c2.85,9.72,5,27.92,6.27,41.47a22.14,22.14,0,0,0,22.14,20.12,25.24,25.24,0,0,1,25,28.58c-.56,4.16-1.12,7.57-1.66,10.14A51.24,51.24,0,0,1,181.5,572.73ZM54.66,414.62a25.46,25.46,0,0,0-24.33,18.16,200.06,200.06,0,0,0-7.89,56.35A204.35,204.35,0,0,0,27,532.48c4.69,21.59,24.32,37.25,46.66,37.25H181.5a48.22,48.22,0,0,0,46.85-38.11c.53-2.5,1.08-5.84,1.63-9.92a22.24,22.24,0,0,0-22-25.18,25.12,25.12,0,0,1-25.12-22.83c-1.28-13.43-3.38-31.42-6.17-40.91a25.46,25.46,0,0,0-24.33-18.16Z"/><path d="M207.82,529.55H75.08a22.91,22.91,0,0,1-22.89-22.89,1.5,1.5,0,0,1,3,0,19.91,19.91,0,0,0,19.89,19.89H207.82a1.5,1.5,0,0,1,0,3Z"/><polygon class="cls-5" points="168.77 641.01 148.47 656.6 166.3 680.82 185.3 662.7 168.77 641.01"/><path d="M166.3,682.32h-.13a1.52,1.52,0,0,1-1.08-.61l-17.83-24.22a1.5,1.5,0,0,1,.3-2.08l20.3-15.58a1.5,1.5,0,0,1,2.11.28l16.53,21.68a1.51,1.51,0,0,1-.16,2l-19,18.12A1.52,1.52,0,0,1,166.3,682.32ZM150.55,656.9l15.95,21.66,16.8-16-14.81-19.42Z"/><path class="cls-4" d="M178.37,678,159.51,662.7,156,649.9c-9.91-.25-21,7.13-27.13,11.88a7.55,7.55,0,0,0-2.17,9.28c10.07,20.44,32.76,52.34,43.75,67.36a5.45,5.45,0,0,0,9.73-2C185,713.4,178.37,678,178.37,678Z"/><path d="M174.78,742.17a6.88,6.88,0,0,1-5.59-2.87c-12.13-16.58-33.95-47.41-43.88-67.58a9.07,9.07,0,0,1,2.59-11.12c6-4.67,17.62-12.47,28.09-12.2a1.5,1.5,0,0,1,1.41,1.09l3.42,12.35,18.5,15a1.55,1.55,0,0,1,.53.89c.27,1.45,6.61,36,1.75,59a6.81,6.81,0,0,1-5.3,5.3A7.23,7.23,0,0,1,174.78,742.17Zm-20-90.77c-9.26.32-19.6,7.31-25.07,11.56a6.07,6.07,0,0,0-1.74,7.43c9.83,20,31.54,50.64,43.61,67.14a4,4,0,0,0,4.06,1.54,3.78,3.78,0,0,0,3-3c4.41-20.9-.87-52.76-1.67-57.28l-18.43-14.93a1.52,1.52,0,0,1-.5-.77Z"/><path d="M172.05,730.76a1.51,1.51,0,0,1-1.24-.65l-30.05-43.32a16.18,16.18,0,0,1-2.69-10.93c.73-7.06-2.13-14.31-2.16-14.39a1.5,1.5,0,0,1,2.79-1.11c.13.33,3.16,8,2.35,15.81a13.23,13.23,0,0,0,2.17,8.91l30.06,43.32a1.51,1.51,0,0,1-1.23,2.36Z"/><polygon class="cls-5" points="226.23 759.31 254.13 804.82 279.72 789.04 249.19 744.62 226.23 759.31"/><path d="M254.12,806.32a1.32,1.32,0,0,1-.34,0,1.47,1.47,0,0,1-.93-.68L225,760.1a1.5,1.5,0,0,1,.47-2.05l23-14.7a1.5,1.5,0,0,1,2,.42L281,788.19a1.51,1.51,0,0,1-.45,2.13l-25.6,15.78A1.57,1.57,0,0,1,254.12,806.32Zm-25.84-46.54,26.34,43,23-14.16-28.81-41.93Z"/><path class="cls-4" d="M277.88,776.77l-16.77,17.55-13.06,2.5c-1.05,9.85,5.39,21.54,9.63,28a7.53,7.53,0,0,0,9.06,2.92c21.2-8.36,54.85-28.36,70.72-38.08a5.45,5.45,0,0,0-1.22-9.86C313.72,773.09,277.88,776.77,277.88,776.77Z"/><path d="M264,829.76a9.12,9.12,0,0,1-7.61-4.11c-4.16-6.36-11-18.58-9.86-29a1.51,1.51,0,0,1,1.21-1.32l12.58-2.4,16.45-17.2a1.53,1.53,0,0,1,.93-.46c1.48-.15,36.4-3.64,58.94,3.09a6.83,6.83,0,0,1,4.85,5.72,6.91,6.91,0,0,1-3.27,6.86c-17.52,10.73-50,29.95-71,38.19A8.85,8.85,0,0,1,264,829.76Zm-14.57-31.69c-.44,9.26,5.68,20.14,9.47,25.94a6.06,6.06,0,0,0,7.26,2.34c20.71-8.16,53.05-27.28,70.49-38a3.92,3.92,0,0,0,1.86-3.91,3.78,3.78,0,0,0-2.73-3.24c-20.47-6.1-52.65-3.45-57.23-3l-16.39,17.15a1.45,1.45,0,0,1-.8.44Zm11.65-3.75h0Z"/><path d="M257.51,817.8a1.5,1.5,0,0,1-.44-2.93c.34-.1,8.26-2.49,15.95-1a13.25,13.25,0,0,0,9.06-1.43L327.72,786a1.5,1.5,0,0,1,1.5,2.6L283.58,815a16.19,16.19,0,0,1-11.11,1.79c-7-1.31-14.44.94-14.52,1A1.61,1.61,0,0,1,257.51,817.8Z"/><path d="M189,435.34s58,45.76,88.63,88.6a40,40,0,0,1,3.28,40.94C266.8,593.56,236.26,645,189,670.64l-39.69-50.71s34.71-38.37,60.22-55.85l-65.06-72.92L128.3,454.53Z"/><path d="M216.89,777.17c2.06,3.62,48.81-30.55,48.81-30.55S229.93,704.75,173.09,492c-.66-2.47-11.14-54.51-11.14-54.51L84.28,478.17S97.92,567.72,216.89,777.17Z"/><path class="cls-9" d="M182.43,527.6a1.5,1.5,0,0,1-1.45-1.11l-7.3-26.7a18.09,18.09,0,0,1,2.52-15l4.47-6.54a1.5,1.5,0,1,1,2.48,1.7l-4.47,6.53A15.11,15.11,0,0,0,176.57,499l7.31,26.7a1.51,1.51,0,0,1-1.06,1.84A1.32,1.32,0,0,1,182.43,527.6Z"/><path class="cls-9" d="M220.58,762.54a1.48,1.48,0,0,1-1.3-.76c-2.58-4.56-5.16-9.18-7.67-13.74a1.5,1.5,0,0,1,2.62-1.45c2.51,4.55,5.09,9.16,7.66,13.72a1.49,1.49,0,0,1-1.31,2.23Z"/><path class="cls-9" d="M207.82,739.52a1.48,1.48,0,0,1-1.31-.78c-7.32-13.44-14.41-26.91-21.09-40a1.5,1.5,0,1,1,2.67-1.36c6.67,13.11,13.75,26.56,21,40a1.5,1.5,0,0,1-.6,2A1.54,1.54,0,0,1,207.82,739.52Z"/><path class="cls-9" d="M159.36,642.52a1.49,1.49,0,0,1-1.36-.89c-34.59-76.57-44.37-119.38-44.46-119.8a1.5,1.5,0,1,1,2.93-.65c.09.42,9.82,43,44.26,119.22a1.51,1.51,0,0,1-1.37,2.12Z"/><path class="cls-9" d="M229.88,667.25a1.49,1.49,0,0,1-1.38-.91c-.18-.42-17.84-41.83-24.39-62.65a1.5,1.5,0,1,1,2.86-.91c6.51,20.69,24.11,62,24.28,62.38a1.5,1.5,0,0,1-1.37,2.09Z"/><path class="cls-5" d="M249.46,287.3s29.07,11.22,64-17.18a74.41,74.41,0,0,0,27.18-52.9h0a15.82,15.82,0,0,1,5-10.55l25.07-16s-1.77,2.74-3.71,9.83-7.81,13.32-8.57,16.27l12.28-3.66A24,24,0,0,1,363.47,226c-6,5.15-8,18.08-8,18.08s-8.54,103-98.49,101.29Z"/><path d="M259.06,346.88c-.71,0-1.42,0-2.15,0a1.5,1.5,0,0,1-1.46-1.31L248,287.49a1.49,1.49,0,0,1,.56-1.37,1.5,1.5,0,0,1,1.46-.22h0c.29.11,28.74,10.52,62.56-16.95a73.12,73.12,0,0,0,26.63-51.83,17.25,17.25,0,0,1,5.5-11.55,1.84,1.84,0,0,1,.22-.17l25.06-16a1.5,1.5,0,0,1,2.07,2.08s-1.69,2.71-3.52,9.4c-1.23,4.51-3.88,8.54-6,11.79l-1.07,1.65,8.91-2.66a1.49,1.49,0,0,1,1.42.31,1.51,1.51,0,0,1,.49,1.38,25.46,25.46,0,0,1-7.81,13.75c-5.34,4.58-7.39,16.29-7.53,17.13-.14,1.47-2.64,26.89-15.68,51.77C329,319.34,304.89,346.88,259.06,346.88Zm-.8-3h.87c35.61,0,62.33-16.55,79.46-49.24a150,150,0,0,0,15.34-50.7s0-.07,0-.11c.08-.55,2.2-13.53,8.55-19a21.71,21.71,0,0,0,6.14-9.52l-9.71,2.9a1.5,1.5,0,0,1-1.47-.36,1.48,1.48,0,0,1-.41-1.45c.36-1.42,1.51-3.16,2.95-5.37,2-3.06,4.52-6.88,5.63-10.93.6-2.21,1.19-4,1.72-5.46l-20.71,13.2a14.22,14.22,0,0,0-4.46,9.46,76.11,76.11,0,0,1-27.73,54c-30,24.36-55.51,20.22-63.2,18.15Z"/><path class="cls-4" d="M58,335.58,80.3,305.79a52.38,52.38,0,0,1,30.53-19.73c23.82-5.3,64-13.16,85.68-11.29,32.11,2.77,71.79,5.71,71.79,5.71l-4.61,68.86-38.92-2.9S200,404.22,206.67,437.6c0,0-78.92,35.29-137.17,48.62,0,0-20.58-80.69,12.71-136.88Z"/><path d="M161,359.19l6,98.86a3.65,3.65,0,0,1-2.06,3.53l-115.6,54a3.43,3.43,0,0,1-3.35-.23c-.93-.6-3.65-2.31-3.65-2.31l-4-99.42a3.65,3.65,0,0,1,2.06-3.53L156.5,354.3s2.05,1.42,3,2.12A3.67,3.67,0,0,1,161,359.19Z"/><path class="cls-5" d="M157.37,357l6,98.86a3.64,3.64,0,0,1-2.07,3.53L46,513.09A3.56,3.56,0,0,1,41,510l-6-98.85a3.65,3.65,0,0,1,2.07-3.54L152.36,353.9A3.55,3.55,0,0,1,157.37,357Z"/><path d="M44.53,514.91a5,5,0,0,1-2.55-.7,5.19,5.19,0,0,1-2.5-4.14l-6-98.85a5.18,5.18,0,0,1,2.93-5l115.29-53.69a4.93,4.93,0,0,1,4.64.24,5.17,5.17,0,0,1,2.5,4.13l6,98.86a5.19,5.19,0,0,1-2.93,5L46.62,514.45A4.93,4.93,0,0,1,44.53,514.91ZM153.82,355.07a1.9,1.9,0,0,0-.83.19L37.71,409a2.15,2.15,0,0,0-1.2,2.09l6,98.85a2.12,2.12,0,0,0,1,1.74,1.94,1.94,0,0,0,1.84.1L160.64,458a2.16,2.16,0,0,0,1.2-2.08l-6-98.86h0a2.13,2.13,0,0,0-1-1.74A2,2,0,0,0,153.82,355.07Z"/><path class="cls-5" d="M149.51,349.2l6,98.86a3.64,3.64,0,0,1-2.07,3.53L38.13,505.29a3.56,3.56,0,0,1-5-3.11l-6-98.85a3.65,3.65,0,0,1,2.07-3.54L144.5,346.1A3.55,3.55,0,0,1,149.51,349.2Z"/><path d="M36.67,507.11a5,5,0,0,1-2.55-.7,5.19,5.19,0,0,1-2.5-4.14l-6-98.85a5.19,5.19,0,0,1,2.93-5l115.29-53.69a4.93,4.93,0,0,1,4.64.24,5.17,5.17,0,0,1,2.5,4.13L157,448a5.19,5.19,0,0,1-2.93,5L38.76,506.65A4.93,4.93,0,0,1,36.67,507.11ZM146,347.27a1.9,1.9,0,0,0-.83.19L29.85,401.15a2.15,2.15,0,0,0-1.2,2.09l6,98.85a2.12,2.12,0,0,0,1,1.74,1.94,1.94,0,0,0,1.84.1l115.28-53.7a2.15,2.15,0,0,0,1.2-2.08l-6-98.86h0a2.1,2.1,0,0,0-1-1.73A1.94,1.94,0,0,0,146,347.27Z"/><path class="cls-3" d="M142.94,357.74l5.26,87.1a3.21,3.21,0,0,1-1.82,3.12L44.8,495.27a3.13,3.13,0,0,1-4.41-2.74l-5.26-87.1A3.21,3.21,0,0,1,37,402.32L138.53,355A3.13,3.13,0,0,1,142.94,357.74Z"/><path d="M121,461.24a1.5,1.5,0,0,1-.64-2.86l25.2-11.73a1.74,1.74,0,0,0,1-1.67l-.59-9.67a1.5,1.5,0,0,1,3-.18l.58,9.67a4.75,4.75,0,0,1-2.68,4.57l-25.2,11.73A1.44,1.44,0,0,1,121,461.24Z"/><path d="M40.28,402.38a1.5,1.5,0,0,1-.64-2.86l16.67-7.81a1.5,1.5,0,1,1,1.27,2.71l-16.67,7.82A1.41,1.41,0,0,1,40.28,402.38Z"/><path d="M43.35,497.1a4.56,4.56,0,0,1-2.34-.64,4.7,4.7,0,0,1-2.28-3.79L34,413.82a1.5,1.5,0,0,1,3-.18l4.76,78.85a1.69,1.69,0,0,0,.83,1.39A1.53,1.53,0,0,0,44,494l23.34-10.87a1.5,1.5,0,0,1,1.27,2.72L45.27,496.68A4.62,4.62,0,0,1,43.35,497.1Z"/><path class="cls-5" d="M65.38,339.18l35,20.59s-29.23,47.74,15.2,98.29l28.71-3.53s-6.17,4.61-12.53,5.76-7.72,7.93-7.72,7.93l13.05,7.16s-16.05,14.93-26.09,9.11S17.34,416,65.38,339.18Z"/><path d="M116.31,487.33a11.81,11.81,0,0,1-6-1.55c-9.11-5.28-48.18-35.68-58.57-77.54C45.8,384.49,50,361,64.11,338.38a1.5,1.5,0,0,1,2-.5l35,20.6a1.5,1.5,0,0,1,.7.93,1.55,1.55,0,0,1-.18,1.15c-.07.11-7.19,11.95-8.86,29.68-1.53,16.2,1.31,40.79,23.39,66.23l27.92-3.42a1.48,1.48,0,0,1,1.57.93,1.5,1.5,0,0,1-.49,1.76c-.26.19-6.53,4.83-13.16,6-3.9.71-5.59,4-6.21,5.71l12,6.58a1.52,1.52,0,0,1,.3,2.42C137.58,477,126.34,487.33,116.31,487.33ZM65.89,341.21C52.82,362.72,49,385,54.61,407.51c10.14,40.85,48.27,70.52,57.17,75.68,7.26,4.21,18.58-4.12,22.73-7.54l-11.16-6.12a1.51,1.51,0,0,1-.75-1.61c.07-.31,1.65-7.79,8.92-9.1a24.06,24.06,0,0,0,5.74-1.91l-21.47,2.64a1.51,1.51,0,0,1-1.31-.5c-23.3-26.52-26.25-52.28-24.62-69.23a80.46,80.46,0,0,1,8.52-29.5Z"/><path d="M162.76,254c-3.49,2.17-9,5.59-15.06,3.77-6.5-1.94-11.89-9.27-10.68-14.18,1-4.3,6.55-4.2,7.39-8.68.79-4.21-3.79-5.81-4.11-11-.42-6.91,7-15.14,14-15.34,4.24-.12,4.67,2.89,9.58,3.19,6.69.4,8-5.06,15.61-5.79,5.47-.53,9.93,1.8,13.69,3.76,5.58,2.91,9.24,4.82,9.58,7.81.71,6.13-13.61,7.1-26.83,22.57C171.09,245.77,169.28,250,162.76,254Z"/><path class="cls-5" d="M185.32,259.15c5.16-14-6.09-31.8-6.92-33.27a23,23,0,0,1-14.86,4.73c-8.49-.57-7.78,10.92-7.78,10.92-4.62-1-5.43,2.09-4.28,8.43s7.43,4.48,7.43,4.48a22.41,22.41,0,0,0,2.75,2.76l-10.78,16A28,28,0,0,1,139,283.07L134.64,285a1.23,1.23,0,0,0,.33,2.35c8.54,1.15,28.59,2.58,43.64-6.18a1.15,1.15,0,0,0-.35-2.12l-3.5-.74a3.85,3.85,0,0,1-2.61-5.55l5.47-10.45a30.56,30.56,0,0,0,4.73-.58A4.06,4.06,0,0,0,185.32,259.15Z"/><path d="M147.77,289.7a99,99,0,0,1-13-.86,2.73,2.73,0,0,1-.73-5.21l4.37-1.93a26.43,26.43,0,0,0,11.23-9.38l10.05-14.87c-.47-.44-.91-.89-1.34-1.36a8,8,0,0,1-5.27-.9,7,7,0,0,1-3.08-5c-.89-4.92-.58-7.68,1-9.23a4.33,4.33,0,0,1,3.23-1.15c.12-2.26.7-6.16,3.15-8.59a7.69,7.69,0,0,1,6.22-2.15,21.54,21.54,0,0,0,13.8-4.39,1.51,1.51,0,0,1,2.27.42l.19.34c4.47,7.56,11.3,22.06,6.83,34.18l-1.41-.51,1.41.51a5.52,5.52,0,0,1-4.08,3.54,32.86,32.86,0,0,1-4.1.56l-5.07,9.7a2.35,2.35,0,0,0,1.59,3.38l3.5.75a2.65,2.65,0,0,1,.8,4.87C169.42,288.25,157.34,289.7,147.77,289.7ZM136.12,286c8.32,1,26.82,2.11,40.93-5.66l-2.61-.56a5.34,5.34,0,0,1-3.62-7.7l5.47-10.46a1.49,1.49,0,0,1,1.26-.8,27.83,27.83,0,0,0,4.49-.55,2.55,2.55,0,0,0,1.87-1.63c4-10.73-2.41-24.26-6-30.57a24.09,24.09,0,0,1-14.49,4.05,4.73,4.73,0,0,0-3.9,1.27c-2.58,2.56-2.29,8-2.29,8.06a1.48,1.48,0,0,1-.52,1.23,1.5,1.5,0,0,1-1.3.33c-.79-.18-1.84-.29-2.32.16s-1,1.8-.16,6.53a4,4,0,0,0,1.7,2.94,5.42,5.42,0,0,0,3.85.37,1.53,1.53,0,0,1,1.57.48,20.13,20.13,0,0,0,2.56,2.58,1.5,1.5,0,0,1,.27,2l-10.78,16a29.41,29.41,0,0,1-12.5,10.44Zm41.82-5.47h0Z"/><path d="M176.26,263.89a20.74,20.74,0,0,1-9.51-2.78,1.5,1.5,0,1,1,1.55-2.57c.1.06,4.79,2.83,9.13,2.28a1.5,1.5,0,1,1,.37,3A11.38,11.38,0,0,1,176.26,263.89Z"/><path d="M154.51,297.91c-20.32,0-33.37-8.32-33.56-8.45a1.5,1.5,0,0,1,1.64-2.51c.28.19,28.19,17.9,66-.09a1.5,1.5,0,1,1,1.29,2.7A81.54,81.54,0,0,1,154.51,297.91Z"/><path d="M720.94,713.91a8.51,8.51,0,0,1-2.82-16.53,1.5,1.5,0,1,1,1,2.83,5.52,5.52,0,0,0-3.36,7,5.5,5.5,0,0,0,7,3.37,5.52,5.52,0,0,0,3.36-7,1.5,1.5,0,1,1,2.83-1,8.52,8.52,0,0,1-5.19,10.85A8.69,8.69,0,0,1,720.94,713.91Z"/><path d="M23.38,190.48a1.46,1.46,0,0,1-.78-.22,1.5,1.5,0,0,1-.5-2.06l2.76-4.54a1.5,1.5,0,1,1,2.57,1.56l-2.77,4.54A1.51,1.51,0,0,1,23.38,190.48Z"/><path d="M13.7,206.39a1.5,1.5,0,0,1-1.28-2.28l2.77-4.55a1.5,1.5,0,0,1,2.56,1.56L15,205.66A1.51,1.51,0,0,1,13.7,206.39Z"/><path d="M14.37,192.68a1.42,1.42,0,0,1-.79-.23l-4.44-2.78a1.5,1.5,0,0,1,1.59-2.55l4.44,2.79a1.5,1.5,0,0,1-.8,2.77Z"/><path d="M29.91,202.43a1.54,1.54,0,0,1-.79-.23l-4.44-2.79a1.5,1.5,0,1,1,1.59-2.54l4.44,2.78a1.5,1.5,0,0,1-.8,2.78Z"/><path d="M553.41,37.84A1.5,1.5,0,0,1,552,35.72l2.2-4.84A1.5,1.5,0,0,1,557,32.11L554.77,37A1.5,1.5,0,0,1,553.41,37.84Z"/><path d="M545.72,54.8a1.36,1.36,0,0,1-.61-.14,1.49,1.49,0,0,1-.75-2l2.19-4.85a1.5,1.5,0,0,1,2.74,1.24l-2.2,4.85A1.51,1.51,0,0,1,545.72,54.8Z"/><path d="M544.73,41.11a1.41,1.41,0,0,1-.63-.14l-4.75-2.23A1.5,1.5,0,1,1,540.63,36l4.74,2.22a1.51,1.51,0,0,1,.72,2A1.49,1.49,0,0,1,544.73,41.11Z"/><path d="M561.34,48.91a1.46,1.46,0,0,1-.64-.15L556,46.54a1.5,1.5,0,0,1,1.27-2.72L562,46.05a1.5,1.5,0,0,1-.64,2.86Z"/><path d="M27.05,168.6a1.51,1.51,0,0,1-1.26-2.32c.32-.5,33.14-51.07,81.34-84.08a1.5,1.5,0,0,1,1.69,2.48c-47.68,32.65-80.18,82.72-80.51,83.23A1.5,1.5,0,0,1,27.05,168.6Z"/><path d="M54.68,154.58a1.58,1.58,0,0,1-.88-.28,1.51,1.51,0,0,1-.34-2.1c.16-.22,16.62-23,46.09-49.46a1.5,1.5,0,0,1,2,2.23c-29.21,26.22-45.49,48.76-45.65,49A1.52,1.52,0,0,1,54.68,154.58Z"/><path d="M744,689.21a1.52,1.52,0,0,1-1-.38,1.5,1.5,0,0,1-.13-2.12c55.06-62.43,59.2-173.52,59.24-174.63a1.48,1.48,0,0,1,1.54-1.45,1.51,1.51,0,0,1,1.46,1.55,394.47,394.47,0,0,1-8.83,64.22c-7.24,33-22,79.22-51.16,112.3A1.49,1.49,0,0,1,744,689.21Z"/><path d="M729.33,680.17a1.55,1.55,0,0,1-.89-.29,1.51,1.51,0,0,1-.33-2.1c36.08-49.56,48.47-130,48.59-130.79a1.5,1.5,0,0,1,3,.45c-.12.81-12.63,82-49.13,132.11A1.5,1.5,0,0,1,729.33,680.17Z"/></g></g></svg>