<svg xmlns="http://www.w3.org/2000/svg" viewBox="0 0 828.94 828.94"><defs><style>.cls-1{fill:#d4dadd;}.cls-2{fill:#264653;}.cls-3{fill:#7d9098;}.cls-4,.cls-6{fill:#bed6d6;}.cls-4{stroke:#264653;stroke-miterlimit:10;stroke-width:3px;}.cls-5{fill:#fff;}.cls-7{fill:#e9c46a;}.cls-8{fill:#7cadad;}.cls-9{fill:#9dc2c2;}.cls-10{fill:#caddff;}.cls-11{fill:#516b75;}</style></defs><g id="Layer_2" data-name="Layer 2"><g id="Illustration"><path class="cls-1" d="M401.1,8.13C345.35,17.42,141.3,49.34,46,239.35-46,422.72,4.09,679.94,160.27,781.17,410.93,943.63,829.16,650.3,825.48,518.48c-3-106.87-103-81.74-113.72-148.49C694.82,264.45,841.6,207.45,828.05,129,812.42,38.36,586.89-22.83,401.1,8.13Z"/><path d="M347.47,814.3a341.64,341.64,0,0,1-117.41-20.6,1.5,1.5,0,1,1,1-2.82c87.86,32,188.73,25.79,276.74-17a1.5,1.5,0,0,1,1.31,2.7A370.26,370.26,0,0,1,371,813.53Q359.18,814.3,347.47,814.3Z"/><path d="M344.21,795.38a321.51,321.51,0,0,1-75.72-9,1.5,1.5,0,0,1,.7-2.92C334.53,799.26,403.38,794,468.3,768.23a1.51,1.51,0,0,1,1.95.85,1.49,1.49,0,0,1-.84,1.94A339.09,339.09,0,0,1,344.21,795.38Z"/><path d="M484.88,769.08a7.08,7.08,0,0,1-7-6.06,7.1,7.1,0,0,1,6-8,7,7,0,0,1,5.26,1.33,7.09,7.09,0,0,1-3.2,12.7A6.15,6.15,0,0,1,484.88,769.08Zm-.58-11.14a4.09,4.09,0,0,0-3.44,4.64,4,4,0,0,0,1.6,2.69,4.05,4.05,0,0,0,3,.77,4.09,4.09,0,0,0-1.19-8.1Z"/><path d="M522.65,779a1.49,1.49,0,0,1-1.21-.61L508,760a1.5,1.5,0,0,1,1.15-2.38l22.41-.79a1.51,1.51,0,0,1,1.44,2.08c0,.09-4.15,10-9,19.33a1.5,1.5,0,0,1-1.21.8Zm-10.56-18.52,10.34,14.17c3-5.94,5.58-11.75,6.89-14.78Z"/><path d="M785.83,87.94a1.51,1.51,0,0,1-.86-.27,332.58,332.58,0,0,0-57.35-32.29,1.5,1.5,0,1,1,1.21-2.74A336.18,336.18,0,0,1,786.7,85.21a1.5,1.5,0,0,1-.87,2.73Z"/><path d="M711.63,48.72a1.61,1.61,0,0,1-.53-.1c-4.9-1.86-9.92-3.64-14.92-5.29a1.5,1.5,0,0,1,.93-2.85c5,1.66,10.11,3.46,15,5.33a1.5,1.5,0,0,1-.53,2.91Z"/><path d="M783.22,110.9a1.45,1.45,0,0,1-.9-.3C748.07,84.92,708.58,66.87,665,57a1.52,1.52,0,0,1-1.13-1.8,1.5,1.5,0,0,1,1.8-1.13c44,10,83.9,28.24,118.49,54.17a1.5,1.5,0,0,1,.3,2.1A1.46,1.46,0,0,1,783.22,110.9Z"/><path d="M116.63,88.71a1.5,1.5,0,0,1-1.5-1.5V79.43a1.5,1.5,0,0,1,3,0v7.78A1.5,1.5,0,0,1,116.63,88.71Z"/><path d="M116.63,106.82a1.5,1.5,0,0,1-1.5-1.5V97.54a1.5,1.5,0,0,1,3,0v7.78A1.5,1.5,0,0,1,116.63,106.82Z"/><path d="M111.47,93.88h-7.75a1.5,1.5,0,0,1,0-3h7.75a1.5,1.5,0,0,1,0,3Z"/><path d="M129.54,93.88h-7.76a1.5,1.5,0,0,1,0-3h7.76a1.5,1.5,0,0,1,0,3Z"/><path d="M145.87,83.36a8.12,8.12,0,0,1-3-.56,8.34,8.34,0,0,1-4.66-4.52,8.58,8.58,0,0,1,4.26-11.19,8.18,8.18,0,0,1,6.35-.16,8.34,8.34,0,0,1,4.66,4.52,8.56,8.56,0,0,1-4.26,11.18A8.15,8.15,0,0,1,145.87,83.36Zm0-14a5.14,5.14,0,0,0-2.13.46A5.56,5.56,0,0,0,141,77.09,5.4,5.4,0,0,0,144,80a5.17,5.17,0,0,0,4-.11,5.56,5.56,0,0,0,2.74-7.26,5.3,5.3,0,0,0-4.89-3.27Zm-2.75-.91h0Z"/><path d="M23.41,305.23a1.5,1.5,0,0,1-1.5-1.5V174a33.71,33.71,0,0,1,33.63-33.7l132.56-.91h0a1.5,1.5,0,0,1,0,3l-132.57.91A30.7,30.7,0,0,0,24.91,174V303.73A1.5,1.5,0,0,1,23.41,305.23Z"/><path d="M55.54,711.12a33.71,33.71,0,0,1-33.63-33.7V444a1.5,1.5,0,0,1,3,0v233.4a30.7,30.7,0,0,0,30.63,30.7l10.65,0h0a1.5,1.5,0,0,1,0,3Z"/><path d="M277.24,711.35a1.5,1.5,0,0,1,0-3l379.95-.93h0a1.5,1.5,0,1,1,0,3l-380,.93Z"/><path d="M790.49,657a1.51,1.51,0,0,1-1.5-1.5L787.74,174a30.7,30.7,0,0,0-30.63-30.7L655,143.4a1.5,1.5,0,0,1,0-3l102.09-.09A33.71,33.71,0,0,1,790.74,174L792,655.47a1.48,1.48,0,0,1-1.49,1.5Z"/><path d="M586.48,178H371.31a1.5,1.5,0,0,1,0-3H586.48a1.5,1.5,0,0,1,0,3Z"/><path d="M637.86,640.27h0l-415.07-.73a1.5,1.5,0,1,1,0-3h0l415.08.73a1.5,1.5,0,1,1,0,3Z"/><path d="M745.84,546.07h0a1.5,1.5,0,0,1-1.49-1.5l.43-345.38A21.23,21.23,0,0,0,723.59,178l-63.05,1A1.46,1.46,0,0,1,659,177.5,1.51,1.51,0,0,1,660.5,176l63.06-1a24.24,24.24,0,0,1,24.21,24.24l-.43,345.39A1.5,1.5,0,0,1,745.84,546.07Z"/><rect class="cls-2" x="34.07" y="141.81" width="765.82" height="567.8" rx="32.13"/><rect class="cls-3" x="23.07" y="141.81" width="765.82" height="567.8" rx="32.13"/><rect class="cls-1" x="64.66" y="177.01" width="681.61" height="462.45" rx="22.69"/><path d="M626.14,604.55h0l-373.53-.7a1.5,1.5,0,0,1,0-3h0l373.53.7h0a16.62,16.62,0,0,0,12-5.11,17.69,17.69,0,0,0,5-12.41V416.85a1.5,1.5,0,0,1,3,0V584a20.65,20.65,0,0,1-5.85,14.5A19.62,19.62,0,0,1,626.14,604.55Z"/><path d="M734,698.8H711.93a1.51,1.51,0,0,1-1.37-.88c-.1-.22-9.93-22-16.85-57.19a364.4,364.4,0,0,1,.08-141,1.49,1.49,0,0,1,1-1.12,1.51,1.51,0,0,1,1.46.27c.63.53,15.58,13.32,28,44.33,11.4,28.46,22.61,78.34,11.28,154.26A1.51,1.51,0,0,1,734,698.8Zm-21.09-3h19.8c10.89-74.39-.05-123.25-11.19-151.2-9.56-24-20.89-37-25.32-41.55a361.88,361.88,0,0,0,.43,137C702.71,671,711,691.42,712.91,695.8Z"/><path class="cls-4" d="M711.93,697.3s-39.1-85.89-16.67-197.22c0,0,60.59,50.88,38.74,197.22Z"/><path class="cls-5" d="M721.49,689.84h-.09a1.5,1.5,0,0,1-1.41-1.58c3-54.86-21.7-172-22-173.19a1.5,1.5,0,1,1,2.93-.62c.25,1.18,25,118.72,22,174A1.49,1.49,0,0,1,721.49,689.84Z"/><path class="cls-5" d="M751.25,557.67s-50.36,91.2-20.07,130.67h16.21S779.78,617.05,751.25,557.67Z"/><path d="M747.39,689.84H731.18a1.51,1.51,0,0,1-1.19-.58c-12.88-16.78-13.4-44.21-1.56-81.51a318.07,318.07,0,0,1,21.51-50.81,1.47,1.47,0,0,1,1.36-.77,1.49,1.49,0,0,1,1.31.85c14.9,31,13.06,65.26,8.88,88.52A204,204,0,0,1,748.76,689,1.5,1.5,0,0,1,747.39,689.84Zm-15.46-3H746.4c3.48-8.2,28.83-71.83,4.76-125.8C743.33,576.18,706.29,652.05,731.93,686.84Z"/><path d="M738.75,692.26a1.51,1.51,0,0,1-1.5-1.44c-1.46-37.68,12.38-132.42,12.52-133.37a1.5,1.5,0,1,1,3,.44c-.14,1-13.94,95.41-12.49,132.81a1.5,1.5,0,0,1-1.44,1.56Z"/><path class="cls-5" d="M655.09,591.67S698,606.34,713.53,693.21H696.66S661.44,645.5,655.09,591.67Z"/><path d="M713.53,694.71H696.66a1.51,1.51,0,0,1-1.21-.61c-.35-.48-35.53-48.65-41.85-102.25a1.5,1.5,0,0,1,2-1.6c.45.16,11.25,4,24,18.63,11.68,13.39,27.31,38.85,35.39,84.06a1.5,1.5,0,0,1-1.48,1.77Zm-16.1-3h14.31c-13.34-72-45.87-93.06-54.82-97.58C663.52,642.64,693.44,686.09,697.43,691.71Z"/><path d="M704.31,692.26a1.5,1.5,0,0,1-1.48-1.26c-6.37-38.6-34-77.49-34.24-77.87a1.51,1.51,0,0,1,.35-2.1,1.49,1.49,0,0,1,2.09.35c.28.39,28.28,39.85,34.76,79.13a1.5,1.5,0,0,1-1.23,1.73Z"/><path class="cls-2" d="M671.65,686.31H777.5l2.37,50.18a21.55,21.55,0,0,1-21.5,22.6H697.91A26.34,26.34,0,0,1,671.6,732.7Z"/><path class="cls-5" d="M626.13,603.05l-401.41-.18a18.76,18.76,0,0,1-18.5-19V43.22a18.74,18.74,0,0,1,18.5-19l401.41.18a18.76,18.76,0,0,1,18.51,19V584.06A18.75,18.75,0,0,1,626.13,603.05Z"/><path d="M644.64,328.17a1.5,1.5,0,0,1-1.5-1.5V42.45c0-9.67-7.63-17.54-17-17.54l-401.41-.18h0a16.62,16.62,0,0,0-12,5.11,17.68,17.68,0,0,0-5,12.41l-.46,112.84a1.5,1.5,0,0,1-1.5,1.49h0a1.51,1.51,0,0,1-1.5-1.51l.46-112.83a20.64,20.64,0,0,1,5.84-14.49,19.62,19.62,0,0,1,14.15-6h0l401.41.18c11,0,20,9.22,20,20.54V326.67A1.5,1.5,0,0,1,644.64,328.17Z"/><path class="cls-6" d="M603.17,134.48l-198-.13c-3.87,0-7-4.55-7-10.16s3.14-10.15,7-10.15l198,.13c3.88,0,7,4.55,7,10.16S607.05,134.48,603.17,134.48Z"/><path class="cls-6" d="M603.9,90.93l-198-.13c-3.88,0-7-4.55-7-10.16s3.14-10.15,7-10.15l198,.13c3.87,0,7,4.55,7,10.16S607.77,90.93,603.9,90.93Z"/><path class="cls-6" d="M602.63,180.57l-198-.13c-3.87,0-7-4.55-7-10.16s3.14-10.15,7-10.15l198,.13c3.88,0,7,4.55,7,10.16S606.51,180.57,602.63,180.57Z"/><path class="cls-6" d="M596.82,354.93l-285.3-.13a10.16,10.16,0,0,1,0-20.31l285.3.13a10.16,10.16,0,0,1,0,20.31Z"/><ellipse class="cls-6" cx="261.68" cy="343.92" rx="12.24" ry="12.3" transform="translate(-14.23 11.31) rotate(-2.41)"/><path class="cls-6" d="M597.86,311.38l-285.3-.13a10.16,10.16,0,0,1,0-20.31l285.3.13a10.16,10.16,0,0,1,0,20.31Z"/><path class="cls-6" d="M597.86,249l-285.3-.12a10.16,10.16,0,0,1,0-20.32l285.3.13a10.16,10.16,0,0,1,0,20.31Z"/><ellipse class="cls-6" cx="262.72" cy="300.37" rx="12.24" ry="12.3" transform="translate(-12.41 11.33) rotate(-2.41)"/><path class="cls-6" d="M596,401l-285.3-.13a10.16,10.16,0,0,1,0-20.31l285.3.13A10.16,10.16,0,0,1,596,401Z"/><ellipse class="cls-6" cx="260.9" cy="390.01" rx="12.24" ry="12.3" transform="translate(-16.17 11.32) rotate(-2.41)"/><path class="cls-6" d="M595.27,446.33,310,446.2a10.16,10.16,0,0,1,0-20.31l285.31.13a10.16,10.16,0,0,1,0,20.31Z"/><ellipse class="cls-6" cx="260.12" cy="435.32" rx="12.24" ry="12.3" transform="translate(-18.09 11.33) rotate(-2.41)"/><path class="cls-6" d="M594.49,494.76l-285.3-.12a10.16,10.16,0,0,1,0-20.32l285.3.13a10.16,10.16,0,0,1,0,20.31Z"/><ellipse class="cls-6" cx="259.34" cy="483.75" rx="12.24" ry="12.3" transform="translate(-20.05 11.3) rotate(-2.4)"/><path class="cls-6" d="M593.71,540.85l-285.3-.12a10.16,10.16,0,0,1,0-20.31l285.3.12a10.16,10.16,0,0,1,0,20.31Z"/><ellipse class="cls-6" cx="258.57" cy="529.84" rx="12.24" ry="12.3" transform="translate(-22.08 11.35) rotate(-2.41)"/><ellipse class="cls-7" cx="325.99" cy="185.34" rx="87.3" ry="87.5"/><ellipse class="cls-5" cx="327" cy="139.59" rx="10.63" ry="10.65"/><path class="cls-5" d="M314.27,235.45h-.07V156.76a.75.75,0,0,1,.79-.71l34.62-.18-.2,2.26a.67.67,0,0,1-.68.56A35.37,35.37,0,0,0,337,160.75a.64.64,0,0,0-.43.59v74.39l4.47.79v2.15h-30.4v-2.42Z"/><path d="M326,274.34a88.64,88.64,0,0,1-10.94-.67,1.5,1.5,0,1,1,.36-3,86,86,0,1,0-75.22-85.35,85.86,85.86,0,0,0,13.22,45.88,1.5,1.5,0,1,1-2.54,1.6,88.87,88.87,0,0,1-13.68-47.48c0-49.08,39.84-89,88.8-89a89,89,0,0,1,0,178Z"/><path class="cls-5" d="M208.57,338.59s12.14,14.76,23.33,10.78c8.46-3,12.67-5,14.76-6.36a1.81,1.81,0,0,0,0-3,10.59,10.59,0,0,1-4.64-7.63L255,312.73s7.3-2.64,8.23-4.41c.47-.9-1.22-5.58-1.93-7.82a5.08,5.08,0,0,1,0-3l1.63-3.32c.33-.59.34-1.49-.26-1.8-6.22-3.16-6-6-8.88-9.26-3.29-3.76-12.38-5.94-16,4.53-1,3-2.32,5.14-1.95,9.56a3.57,3.57,0,0,0-3.38.95c-1.44,1.65-.67,4.7,1.73,6.82a22.72,22.72,0,0,0,4.77,2.62c.58.14,1.24,2.15-1.93,5.34C212,338.09,208.57,338.59,208.57,338.59Z"/><path d="M227.88,351.56c-10.45,0-20-11.46-20.47-12a1.51,1.51,0,0,1-.24-1.49,1.48,1.48,0,0,1,1-.9c.4-.17,5.16-2.53,27.75-25.26a6.18,6.18,0,0,0,2-3.07,23.6,23.6,0,0,1-4.74-2.7c-3.06-2.71-3.89-6.63-1.87-8.94a4.53,4.53,0,0,1,2.95-1.49,17.69,17.69,0,0,1,1.52-7c.19-.51.38-1,.57-1.56,2.1-6.05,5.75-7.94,8.45-8.47a11.23,11.23,0,0,1,10.11,3.44,22,22,0,0,1,2.22,3.15,12.91,12.91,0,0,0,6.21,5.77,2.29,2.29,0,0,1,1.18,1.43,3.16,3.16,0,0,1-.29,2.43l-1.59,3.25a4.25,4.25,0,0,0,.09,1.88c.1.34.24.74.38,1.17,1.58,4.78,2,6.67,1.44,7.8-1,1.93-6,4-8.57,4.94L243.6,332.68a9.06,9.06,0,0,0,3.91,6.05,3.34,3.34,0,0,1,1.48,2.83,3.26,3.26,0,0,1-1.54,2.72c-2.82,1.78-7.88,4-15,6.51A13.55,13.55,0,0,1,227.88,351.56Zm-17-12.6c3.2,3.38,12.31,11.9,20.48,9,8.67-3.08,12.65-5.08,14.46-6.22a.26.26,0,0,0,.13-.23.33.33,0,0,0-.16-.29,12,12,0,0,1-5.29-8.69,1.53,1.53,0,0,1,.24-1l12.93-19.61a1.51,1.51,0,0,1,.74-.58c3.3-1.2,6.59-2.82,7.32-3.59a35.69,35.69,0,0,0-1.55-5.56c-.14-.45-.28-.86-.39-1.21a6.32,6.32,0,0,1,.11-4.17l1.59-3.26h0a15.6,15.6,0,0,1-7-6.67,18.4,18.4,0,0,0-1.92-2.73,8.16,8.16,0,0,0-7.28-2.47c-2.76.54-4.9,2.78-6.18,6.5-.2.57-.41,1.11-.61,1.64a14.32,14.32,0,0,0-1.26,7.31,1.5,1.5,0,0,1-1.75,1.6,2.11,2.11,0,0,0-2,.46c-.77.88-.3,3,1.6,4.71a22.29,22.29,0,0,0,4.17,2.29,2.18,2.18,0,0,1,1.47,1.59c.23.82.42,3.08-2.73,6.25C221.32,330.82,214.05,336.84,210.92,339Zm-2.57-1.85Zm0,0Zm0,0Z"/><path d="M250.1,286s11.44-9.15,8.24-16.51a6.68,6.68,0,0,0-3.1-3.57c-4-1.83-9.27,2.6-10.44,3.58-10.14,8.49-16.9,9.32-21.2,13.77-1.56,1.62-3.3,4.61-3.09,10.57.83,4.26,2.57,6.51,4,7.78,2.95,2.6,5.51,1.85,7.61,4.59,2.36,3.08.88,6.31,2.52,7.28,1.27.74,4.05-.08,10.59-6.59-3.91-4.39-5.84-8.72-4.46-10.89a3.61,3.61,0,0,1,2.65-1.65,3.49,3.49,0,0,1,2.55,1.65Z"/><path class="cls-8" d="M336.1,559.13c-1.74,0-3.5,0-5.24-.08a1.5,1.5,0,0,1,0-3h0c3.94.11,7.94.1,11.9,0a1.5,1.5,0,1,1,.11,3C340.67,559.08,338.37,559.13,336.1,559.13Zm-17.17-.79h-.14c-4-.36-8-.87-12-1.49a1.5,1.5,0,0,1,.47-3c3.9.62,7.88,1.11,11.81,1.48a1.5,1.5,0,0,1-.13,3Zm35.93-.13a1.5,1.5,0,0,1-.14-3c3.9-.38,7.88-.88,11.81-1.49a1.5,1.5,0,1,1,.46,3c-4,.62-8,1.13-12,1.52Zm-59.62-3.61a1.86,1.86,0,0,1-.33,0c-3.91-.88-7.85-1.9-11.71-3a1.49,1.49,0,0,1-1-1.86,1.51,1.51,0,0,1,1.86-1c3.81,1.12,7.68,2.13,11.53,3a1.5,1.5,0,0,1-.33,3Zm83.31-.07a1.5,1.5,0,0,1-.31-3c3.84-.82,7.73-1.76,11.59-2.8a1.5,1.5,0,1,1,.78,2.9c-3.91,1.05-7.85,2-11.74,2.83A1.17,1.17,0,0,1,378.55,554.53Zm23.17-6.24a1.49,1.49,0,0,1-.46-2.92c3.73-1.21,7.51-2.54,11.26-4a1.5,1.5,0,0,1,1.06,2.81c-3.79,1.43-7.63,2.77-11.4,4A1.47,1.47,0,0,1,401.72,548.29Zm-129.5-.46a1.46,1.46,0,0,1-.53-.1,85,85,0,0,1-11.07-5.12,1.5,1.5,0,0,1,1.46-2.63,83,83,0,0,0,10.67,4.95,1.5,1.5,0,0,1-.53,2.9Zm152-8a1.5,1.5,0,0,1-.6-2.88c3.61-1.55,7.27-3.2,10.88-4.93a1.5,1.5,0,0,1,1.3,2.71c-3.65,1.74-7.35,3.42-11,5A1.51,1.51,0,0,1,424.19,539.85Zm-172.91-3.56a1.51,1.51,0,0,1-.9-.29,99.57,99.57,0,0,1-9.28-7.89,1.5,1.5,0,1,1,2.09-2.16,93.63,93.63,0,0,0,9,7.64,1.5,1.5,0,0,1,.3,2.1A1.46,1.46,0,0,1,251.28,536.29Zm194.57-6.78a1.5,1.5,0,0,1-.7-2.83c3.47-1.83,7-3.76,10.48-5.76a1.5,1.5,0,0,1,1.49,2.6c-3.51,2-7.07,4-10.57,5.81A1.46,1.46,0,0,1,445.85,529.51ZM234,519.7a1.51,1.51,0,0,1-1.16-.55,108.4,108.4,0,0,1-7.16-9.83,1.5,1.5,0,0,1,2.51-1.63,106.36,106.36,0,0,0,7,9.56,1.49,1.49,0,0,1-.21,2.11A1.48,1.48,0,0,1,234,519.7Zm232.67-2.14a1.5,1.5,0,0,1-.8-2.77c3.35-2.08,6.74-4.26,10.06-6.48a1.5,1.5,0,0,1,1.67,2.5c-3.36,2.23-6.77,4.43-10.14,6.53A1.52,1.52,0,0,1,466.69,517.56Zm20-13.32a1.52,1.52,0,0,1-1.23-.63,1.5,1.5,0,0,1,.36-2.09c3.2-2.28,6.44-4.66,9.64-7.09a1.5,1.5,0,0,1,1.81,2.4c-3.22,2.44-6.49,4.84-9.71,7.13A1.5,1.5,0,0,1,486.68,504.24ZM221,499.6a1.52,1.52,0,0,1-1.34-.82,118.22,118.22,0,0,1-4.91-11.11,1.5,1.5,0,1,1,2.8-1.07c1.41,3.67,3,7.32,4.79,10.83A1.49,1.49,0,0,1,221,499.6Zm284.85-9.86a1.5,1.5,0,0,1-.94-2.67c3.08-2.47,6.19-5,9.24-7.62a1.5,1.5,0,1,1,1.94,2.28c-3.07,2.61-6.2,5.19-9.3,7.68A1.52,1.52,0,0,1,505.83,489.74ZM212.45,477.22A1.5,1.5,0,0,1,211,476.1a112.82,112.82,0,0,1-2.48-11.9,1.5,1.5,0,0,1,3-.45,106.82,106.82,0,0,0,2.41,11.58,1.51,1.51,0,0,1-1.07,1.84A1.58,1.58,0,0,1,212.45,477.22Zm311.71-3a1.5,1.5,0,0,1-1-2.62c3-2.66,5.94-5.38,8.82-8.1a1.5,1.5,0,1,1,2.06,2.18c-2.9,2.74-5.89,5.48-8.88,8.16A1.47,1.47,0,0,1,524.16,474.19Zm17.49-16.5a1.53,1.53,0,0,1-1.07-.44,1.51,1.51,0,0,1,0-2.13c2.85-2.84,5.67-5.73,8.37-8.57a1.5,1.5,0,0,1,2.18,2.07c-2.72,2.86-5.56,5.77-8.44,8.63A1.49,1.49,0,0,1,541.65,457.69Zm-332.77-4.14a1.51,1.51,0,0,1-1.5-1.45q-.06-1.77-.06-3.54c0-2.9.13-5.8.39-8.64a1.5,1.5,0,1,1,3,.27c-.24,2.75-.37,5.56-.37,8.37,0,1.14,0,2.28.06,3.43a1.48,1.48,0,0,1-1.44,1.55Zm349.31-13.33a1.49,1.49,0,0,1-1-.37,1.5,1.5,0,0,1-.13-2.12c3.17-3.58,4.88-5.67,4.9-5.7a1.5,1.5,0,0,1,2.33,1.9c-.07.08-1.76,2.16-5,5.79A1.52,1.52,0,0,1,558.19,440.22Z"/><polygon class="cls-2" points="503.97 372.01 624.77 414.58 717.25 322.27 503.97 372.01"/><polygon class="cls-9" points="561.96 433.13 547.3 387.28 664.02 346.87 568.53 394.76 593.79 403.66 561.96 433.13"/><path class="cls-10" d="M566,422.34l-.3,0a1.71,1.71,0,0,1-1.39-2l4.37-24.63a1.72,1.72,0,0,1,3.38.6l-4.37,24.63A1.72,1.72,0,0,1,566,422.34Z"/><polygon class="cls-5" points="187.77 663.39 188.49 688.96 200.52 688.96 204.56 661.04 187.77 663.39"/><path d="M200.52,690.46h-12A1.5,1.5,0,0,1,187,689l-.72-25.57a1.51,1.51,0,0,1,1.29-1.53l16.79-2.34a1.5,1.5,0,0,1,1.69,1.7l-4,27.91A1.5,1.5,0,0,1,200.52,690.46Zm-10.57-3h9.27l3.57-24.65-13.48,1.88Z"/><path d="M249.86,710.3H187.45a5.34,5.34,0,0,1-5.27-6.13c1.07-7.33,3-19.23,4.6-24.09,2.44-7.25,10.34,4.31,10.34,4.31l4.63-3.92s41.13,12.11,50.57,24.86A3.11,3.11,0,0,1,249.86,710.3Z"/><path class="cls-5" d="M246.07,707h-58.3a1.5,1.5,0,1,1,0-3h58.3a1.5,1.5,0,0,1,0,3Z"/><polygon class="cls-5" points="98.59 636.2 75.72 665.32 63.61 656.2 83.2 624.07 98.59 636.2"/><path d="M75.72,666.82a1.5,1.5,0,0,1-.9-.3L62.71,657.4a1.51,1.51,0,0,1-.38-2l19.59-32.13a1.49,1.49,0,0,1,1-.7,1.53,1.53,0,0,1,1.2.3L99.52,635a1.5,1.5,0,0,1,.25,2.1L76.9,666.25A1.53,1.53,0,0,1,75.72,666.82Zm-10.12-11,9.85,7.42,21-26.79L83.6,626.29Z"/><path d="M99.9,707.86c-10.48-4.92-37.46-18.7-52.7-36.7a4.58,4.58,0,0,1-.13-5.69c3.25-4.34,9.83-12.39,16.54-16.12,0,0,13.67,4.78,10,11.25l5-.8s22,24.86,25.24,45.1A2.79,2.79,0,0,1,99.9,707.86Z"/><path class="cls-5" d="M99.39,704.13a1.47,1.47,0,0,1-.73-.19c-.32-.18-32.47-18.27-49.47-36.45a1.5,1.5,0,1,1,2.19-2c16.68,17.84,48.43,35.7,48.74,35.88a1.5,1.5,0,0,1-.73,2.81Z"/><path class="cls-11" d="M192.83,464.35s-35.1,101.55-96.2,180.19L75.91,628.09s16.46-53.58,20.53-60.47,15-24.71,18.25-34.07c10.61-30.37,21.87-88.3,21.87-88.3Z"/><path class="cls-11" d="M242.53,447.5s-11.2,76.2-17.6,116.27-20.19,104.62-20.19,104.62H185s-6.52-43.84-8.09-68.13,6.41-31.17,8-50.72-8.3-82.78-8.3-82.78l29.33-28.82Z"/><path class="cls-5" d="M370.88,302.33l14.25-8.52a8.34,8.34,0,0,0,3.13-3.32l3.55-6.86a1.05,1.05,0,0,0-1.59-1.31l-7.92,6.47a9.46,9.46,0,0,1-3.82,1.89L367,293.51l-2.62-5.36a4.42,4.42,0,0,0-4.16-2.47l3,12.95-3.49,12.14,8.84,2.85Z"/><path d="M368.58,315.12a1.43,1.43,0,0,1-.46-.07l-8.84-2.85a1.51,1.51,0,0,1-1-1.84l3.38-11.77L358.8,286a1.5,1.5,0,0,1,1.39-1.84,5.91,5.91,0,0,1,5.58,3.31l2.08,4.27,10.27-2.54a8,8,0,0,0,3.23-1.59l7.93-6.47a2.55,2.55,0,0,1,3.86,3.16l-3.55,6.86a9.81,9.81,0,0,1-3.69,3.92l-13.68,8.17-2.17,10.65a1.56,1.56,0,0,1-.71,1A1.49,1.49,0,0,1,368.58,315.12Zm-7-5.33,5.86,1.89,2-9.65a1.52,1.52,0,0,1,.7-1l14.25-8.52a6.86,6.86,0,0,0,2.57-2.72l2.55-4.93L383.25,290a11,11,0,0,1-4.43,2.19L367.4,295a1.5,1.5,0,0,1-1.71-.79l-2.62-5.36a2.9,2.9,0,0,0-.78-1l2.4,10.47a1.47,1.47,0,0,1,0,.75Z"/><path class="cls-5" d="M198.36,186.22s4.17-5,8.69-4.56a57.63,57.63,0,0,0,8.27.22s-.23-3.68-2.71-3.54l-2.48.13-2.42-.89,9.45-19.29-6.2,1.06a5,5,0,0,0-3.15,1.9l-15.69,20.46Z"/><path d="M198.36,187.71a1.51,1.51,0,0,1-.88-.28l-6.24-4.5a1.51,1.51,0,0,1-.31-2.13l15.69-20.46a6.44,6.44,0,0,1,4.09-2.47l6.2-1.06a1.49,1.49,0,0,1,1.45.58,1.51,1.51,0,0,1,.15,1.56l-8.73,17.8.57.21,2.18-.12c2.7-.15,4.13,2.46,4.29,4.95a1.49,1.49,0,0,1-.37,1.08,1.55,1.55,0,0,1-1,.51,59.33,59.33,0,0,1-8.51-.22c-3-.3-6.36,2.8-7.39,4A1.51,1.51,0,0,1,198.36,187.71Zm-4.11-6.31,3.92,2.83c1.64-1.6,5.14-4.44,9-4.06a59.14,59.14,0,0,0,6.23.27c-.17-.35-.41-.62-.73-.6l-2.48.13a1.51,1.51,0,0,1-.6-.09l-2.42-.89a1.49,1.49,0,0,1-.83-2.07l8.16-16.66-3.31.56a3.52,3.52,0,0,0-2.21,1.34Z"/><path class="cls-5" d="M266.72,388.67l-8.79,67s-22.92,3.56-46.3,1.59C211.63,457.22,241.3,386.68,266.72,388.67Z"/><path d="M226.41,459.31c-4.8,0-9.85-.17-14.9-.6a1.5,1.5,0,0,1-1.16-.71,1.52,1.52,0,0,1-.1-1.36c1.21-2.88,29.54-69.51,55.43-69.51.38,0,.77,0,1.15,0a1.57,1.57,0,0,1,1.05.55,1.48,1.48,0,0,1,.32,1.14l-8.78,67a1.51,1.51,0,0,1-1.26,1.29A232.78,232.78,0,0,1,226.41,459.31Zm-12.56-3.42a225.64,225.64,0,0,0,42.74-1.59L265,390.14C243.58,391.16,218.69,445,213.85,455.89Z"/><path d="M359.74,310.77c4.91,3.48,5.15-1,10.06,2.46-9.42,37.53-33.13,73-49.47,78.71-28.12,9.87-45.55-5.24-65.68,8.84-22.69,15.88-9.83,41.61-35.35,66.54-22.89,22.36-54.11,22.06-60.38,22s-42.69-.41-52.62-22c-3.5-7.6-2.49-15.13-1.76-20.53,1.35-10.05,6-17.46,23.32-39.08,12.62-15.77,14.36-17,18.22-22.14,8.37-11.17,17.95-29.05,21.35-57.69a129.58,129.58,0,0,1-14.67-69c3.19-45.18,29.65-74,37.32-81.75l12.3,9.09a106.11,106.11,0,0,0-13.71,65.58c3.89,32.13,21.58,52.25,27.22,58.48,7.73,8.54,37.61,38.8,82.62,36.14C332.81,344.4,352.83,317.38,359.74,310.77Z"/><path class="cls-5" d="M263.6,341.66s3.33-6.89,0-8.26-40.25-19.95-46.2-28.13-33.84-4.92-39.61,0,2.29,25.19,15.16,33.27S233.17,331.62,263.6,341.66Z"/><path d="M263.6,343.16a1.53,1.53,0,0,1-.47-.07c-16.25-5.37-31.9-3.41-44.47-1.84-11.28,1.42-20.19,2.53-26.51-1.44-10.15-6.37-17.09-19.49-17.71-28-.25-3.5.57-6.16,2.38-7.7,4.44-3.78,19.15-6.26,29.71-5,6,.72,10.06,2.49,12.08,5.27,5.67,7.8,42.38,26.32,45.56,27.63a3.73,3.73,0,0,1,2.08,2.15c1.13,3-1.05,7.63-1.3,8.16A1.49,1.49,0,0,1,263.6,343.16Zm-23.86-6.6a77.63,77.63,0,0,1,23,3.26c.6-1.6,1.07-3.59.69-4.59a.7.7,0,0,0-.42-.44c-3.52-1.45-40.6-20.05-46.84-28.64-1.47-2-5-3.47-10-4.06-10.38-1.23-24,1.39-27.41,4.32-1,.88-1.51,2.72-1.33,5.19.57,7.8,7.26,20,16.32,25.67,5.41,3.4,13.85,2.34,24.54,1A169.23,169.23,0,0,1,239.74,336.56Z"/></g></g></svg>