<svg xmlns="http://www.w3.org/2000/svg" viewBox="0 0 831.08 830"><defs><style>.cls-1{fill:#fbf3e1;}.cls-2{fill:#ccc;}.cls-3{fill:#516b75;}.cls-4{fill:#97a6ac;}</style></defs><g id="Layer_2" data-name="Layer 2"><g id="Illustration"><g id="Website_maintenance" data-name="Website maintenance"><path class="cls-1" d="M651.3,37.56c-168.56-93.25-394.39,3.63-512.06,111C105.62,179.27,24.11,255.81,4.86,378.49-19,530.87,59.21,715.58,238.71,794.59c195.37,86,413.82,4.49,516.05-127.8,95.62-123.73,76.49-269.41,69.65-321.45C816.39,284.28,792.53,115.69,651.3,37.56Z"/><rect class="cls-2" x="75.22" y="131.73" width="696.88" height="494.01" rx="25.79"/><rect class="cls-1" x="111.33" y="168.7" width="624.67" height="30.95"/><rect class="cls-1" x="111.33" y="222.26" width="624.67" height="205.92"/><circle class="cls-2" cx="714.32" cy="184.17" r="7.45" transform="translate(370.96 837.07) rotate(-76.72)"/><rect class="cls-1" x="111.33" y="442.35" width="196.27" height="128.37"/><rect class="cls-1" x="325.53" y="442.35" width="196.27" height="128.37"/><rect class="cls-1" x="539.73" y="442.35" width="196.27" height="128.37"/><rect class="cls-2" x="278.97" y="218.85" width="391" height="191.57" rx="16.42"/><path d="M653.54,411.92H295.39A17.94,17.94,0,0,1,277.47,394V235.27a17.94,17.94,0,0,1,17.92-17.92H653.54a17.94,17.94,0,0,1,17.92,17.92V394A17.94,17.94,0,0,1,653.54,411.92ZM295.39,220.35a14.94,14.94,0,0,0-14.92,14.92V394a14.93,14.93,0,0,0,14.92,14.92H653.54A14.93,14.93,0,0,0,668.46,394V235.27a14.94,14.94,0,0,0-14.92-14.92Z"/><path d="M656.91,247.3H292a1.5,1.5,0,0,1,0-3H656.91a1.5,1.5,0,0,1,0,3Z"/><path class="cls-1" d="M308.23,231.49a4.21,4.21,0,1,1-4.21-4.22A4.22,4.22,0,0,1,308.23,231.49Z"/><path class="cls-1" d="M325.07,231.49a4.21,4.21,0,1,1-4.21-4.22A4.22,4.22,0,0,1,325.07,231.49Z"/><path class="cls-1" d="M341.91,231.49a4.21,4.21,0,1,1-4.21-4.22A4.21,4.21,0,0,1,341.91,231.49Z"/><path d="M657.12,233H633.4a1.5,1.5,0,0,1,0-3h23.72a1.5,1.5,0,0,1,0,3Z"/><path d="M622.74,233h-224a1.5,1.5,0,0,1,0-3h224a1.5,1.5,0,0,1,0,3Z"/><path d="M372.93,233H352a1.5,1.5,0,0,1,0-3h20.91a1.5,1.5,0,1,1,0,3Z"/><rect class="cls-1" x="303.82" y="270.79" width="107.94" height="107.94"/><rect class="cls-1" x="431.61" y="270.79" width="23.57" height="23.57"/><rect class="cls-1" x="471.32" y="270.79" width="174.94" height="23.57"/><rect class="cls-1" x="431.61" y="312.98" width="23.57" height="23.57"/><rect class="cls-1" x="471.32" y="312.98" width="174.94" height="23.57"/><rect class="cls-1" x="431.61" y="355.16" width="23.57" height="23.57"/><rect class="cls-1" x="471.32" y="355.16" width="174.94" height="23.57"/><rect class="cls-3" x="331.9" y="45.7" width="497.68" height="243.83" rx="20.9"/><path d="M808.68,291H352.8a22.43,22.43,0,0,1-22.4-22.4V66.6a22.42,22.42,0,0,1,22.4-22.4H808.68a22.42,22.42,0,0,1,22.4,22.4v202A22.43,22.43,0,0,1,808.68,291ZM352.8,47.2a19.42,19.42,0,0,0-19.4,19.4v202A19.42,19.42,0,0,0,352.8,288H808.68a19.42,19.42,0,0,0,19.4-19.4V66.6a19.42,19.42,0,0,0-19.4-19.4Z"/><path class="cls-2" d="M813,81.49H348.51a1.5,1.5,0,0,1,0-3H813a1.5,1.5,0,0,1,0,3Z"/><path class="cls-2" d="M369.15,61.77a5.36,5.36,0,1,1-5.36-5.36A5.36,5.36,0,0,1,369.15,61.77Z"/><path class="cls-2" d="M390.58,61.77a5.36,5.36,0,1,1-5.36-5.36A5.36,5.36,0,0,1,390.58,61.77Z"/><path class="cls-2" d="M412,61.77a5.36,5.36,0,1,1-5.36-5.36A5.36,5.36,0,0,1,412,61.77Z"/><path class="cls-2" d="M813.23,63.27H783a1.5,1.5,0,0,1,0-3h30.19a1.5,1.5,0,0,1,0,3Z"/><path class="cls-2" d="M769.47,63.27H484.37a1.5,1.5,0,0,1,0-3h285.1a1.5,1.5,0,0,1,0,3Z"/><path class="cls-2" d="M451.5,63.27H424.88a1.5,1.5,0,0,1,0-3H451.5a1.5,1.5,0,0,1,0,3Z"/><rect class="cls-2" x="363.53" y="111.81" width="137.39" height="137.39"/><rect class="cls-1" x="526.2" y="111.81" width="30.01" height="30.01"/><rect class="cls-2" x="576.73" y="111.81" width="222.67" height="30.01"/><rect class="cls-1" x="526.2" y="165.5" width="30.01" height="30.01"/><rect class="cls-2" x="576.73" y="165.5" width="222.67" height="30.01"/><rect class="cls-1" x="526.2" y="219.2" width="30.01" height="30.01"/><rect class="cls-2" x="576.73" y="219.2" width="222.67" height="30.01"/><path d="M98.85,214c-5.91,1.48-11.7-3.46-20.67-11.12-10.9-9.3-18.51-15.79-18.91-26.24-.35-9.17,5-17.69,11.12-22.24,3.53-2.61,8.87-3.81,19.57-6.22,12.24-2.76,13.81-1.67,20.9-4.45,8.26-3.24,9.55-6.05,13.35-5.34,6.14,1.16,11.68,10.22,11.56,18.68-.16,11.19-10.12,12.87-21.35,31.14C105,203.46,105.88,212.24,98.85,214Z"/><path class="cls-3" d="M67,251.65c20-6.52,50.41-11.19,86.78.39a35.53,35.53,0,0,1,24.41,29.72l29.63,170.61c1.47,12.41-15.1,24.47-26.78,28.89-12.21,4.63-30.65,9-56.76,9-28,0-48.34,1.62-59.7-3.35-9.42-4.13-23.61-14.11-24.08-24.39l2.05-175.36A35.59,35.59,0,0,1,67,251.65Z"/><path class="cls-3" d="M206.89,325s-23.65-65.52-50.17-71.82L170.2,346Z"/><path class="cls-3" d="M1.47,351.39s9.46-35.19,16.72-55c14.68-40,46.08-43.76,46.08-43.76V351.1Z"/><path d="M122,269.9c-25.93,0-48.68-10.61-49.78-11.13a1.5,1.5,0,1,1,1.29-2.71c.3.14,30.56,14.25,60.19,10a1.5,1.5,0,0,1,.42,3A85.93,85.93,0,0,1,122,269.9Z"/><path class="cls-4" d="M112.08,384.47l116.16-.18a6.41,6.41,0,0,0,6.21-4.88l23.31-94.58a6.41,6.41,0,0,0-6.23-7.94l-116.16.18a6.41,6.41,0,0,0-6.21,4.87l-23.3,94.59A6.4,6.4,0,0,0,112.08,384.47Z"/><path d="M112.07,386a7.9,7.9,0,0,1-7.67-9.79l23.3-94.58a7.9,7.9,0,0,1,7.67-6l116.16-.18a7.9,7.9,0,0,1,7.68,9.8l-23.3,94.58a7.9,7.9,0,0,1-7.67,6L112.09,386Zm0-3v0l116.16-.17a4.92,4.92,0,0,0,4.76-3.73l23.3-94.59a4.9,4.9,0,0,0-4.76-6.08h0l-116.16.18a4.9,4.9,0,0,0-4.75,3.73l-23.31,94.59a4.89,4.89,0,0,0,4.76,6.07Z"/><path class="cls-2" d="M249.2,323.9l-3.4,9.46-28-13.25s-15.34,13.32,21.91,30.3C255.29,357.49,249.2,323.9,249.2,323.9Z"/><path d="M243.66,352.9a11.13,11.13,0,0,1-4.52-1.12c-16-7.29-24.67-14.94-25.8-22.74A11.67,11.67,0,0,1,216.86,319a1.52,1.52,0,0,1,1.63-.22L245,331.3l2.83-7.91a1.53,1.53,0,0,1,1.54-1,1.5,1.5,0,0,1,1.35,1.23c.42,2.29,3.86,22.55-3,27.93A6.33,6.33,0,0,1,243.66,352.9Zm-25.47-31a8.57,8.57,0,0,0-1.87,6.73c.69,4.61,5.43,11.89,24.07,20.39,3.51,1.6,4.93.5,5.39.14,3.46-2.69,3.42-12,2.75-19l-1.32,3.68a1.5,1.5,0,0,1-2.05.85Z"/><path class="cls-2" d="M78.89,297.54S26.73,326.93,16,336.15s-22.43,16.23-7.22,36.33,79.83-60.61,79.83-60.61,12.44,2,16.75-14.9c0,0,21,.72,21.75-5.87l-29.62-5.25A11.72,11.72,0,0,0,87,289.22Z"/><path d="M15.46,377.19H15.3a9.36,9.36,0,0,1-7.74-3.81c-14.9-19.69-4.81-28.12,5-36.27.82-.69,1.66-1.39,2.48-2.1,10.53-9,59-36.43,63-38.67l8-8.17a13.25,13.25,0,0,1,11.8-3.8l29.62,5.25a1.5,1.5,0,0,1,1.23,1.65c-.8,7-16.64,7.31-22.1,7.23-4.12,14.21-14.1,15-17.22,14.93C83.61,320.41,37,377.19,15.46,377.19Zm79.95-90a10.24,10.24,0,0,0-7.34,3.09L80,298.59a1.46,1.46,0,0,1-.34.26c-.52.29-52.16,29.42-62.69,38.44-.83.72-1.67,1.42-2.51,2.12C4.57,347.65-3.22,354.16,10,371.57a6.44,6.44,0,0,0,5.39,2.62h.14c21,0,71.42-62.62,71.93-63.25a1.5,1.5,0,0,1,1.41-.55c.45.07,11.16,1.53,15.06-13.79a1.49,1.49,0,0,1,1.5-1.13c6.86.23,16.71-.68,19.47-3.24L97.2,287.32A10.9,10.9,0,0,0,95.41,287.17ZM78.89,297.54h0Z"/><path class="cls-2" d="M140.88,723l-17.3,51.61s18.85-1.6,20.65-1.25,23.84-47.07,23.84-47.07Z"/><path d="M123.58,776.14a1.49,1.49,0,0,1-1.42-2l17.3-51.61a1.5,1.5,0,0,1,1.6-1l27.19,3.29a1.5,1.5,0,0,1,1.18,2.12c-.06.12-5.58,12-11.26,23.69-12,24.67-12.73,24.51-14.23,24.22-1.29-.2-12.61.63-20.23,1.28Zm18.34-51.47L125.73,773c5.29-.44,14.93-1.19,18-1.1,2.65-3.42,14.45-27.9,22.1-44.3Zm2.56,47.24h0Z"/><path class="cls-4" d="M127.54,763.3s26-10.66,30.83,2.72c6.12,17,15.69,43,15.69,43a7.3,7.3,0,0,1-6.29,9.73c-9.5.76-23.68,1.38-30.29-.94-10.43-3.66-27.73-36.66-27.73-36.66l5.33-28.09S124.52,751.73,127.54,763.3Z"/><path d="M152.45,820.94c-6.12,0-11.83-.44-15.47-1.71-10.86-3.81-27.84-36-28.56-37.39a1.49,1.49,0,0,1-.15-1l5.34-28.09a1.5,1.5,0,0,1,1.26-1.2c.1,0,9.88-1.25,13.65,9.75,4.44-1.62,17.32-5.7,25.34-2.13a10.64,10.64,0,0,1,5.92,6.31c6.05,16.83,15.59,42.73,15.68,43a8.79,8.79,0,0,1-7.57,11.74C163.13,820.63,157.64,820.94,152.45,820.94Zm-41.13-40c5,9.37,18.7,32.7,26.66,35.49,4.84,1.7,15.38,2,29.67.85a5.78,5.78,0,0,0,5-7.72c-.09-.25-9.63-26.17-15.68-43a7.66,7.66,0,0,0-4.31-4.59c-8.44-3.75-24.38,2.68-24.54,2.75a1.51,1.51,0,0,1-2-1c-2.09-8-7.47-9.08-9.76-9.16Z"/><path d="M167.39,809H140.67a1.5,1.5,0,1,1,0-3h26.72a1.5,1.5,0,0,1,0,3Z"/><polygon class="cls-2" points="91.83 735.71 97.71 787.63 121.35 781.15 119.53 734.37 91.83 735.71"/><path d="M97.71,789.13a1.51,1.51,0,0,1-1.49-1.33l-5.88-51.92a1.49,1.49,0,0,1,1.42-1.66l27.7-1.35a1.51,1.51,0,0,1,1.09.39,1.5,1.5,0,0,1,.48,1l1.82,46.78a1.49,1.49,0,0,1-1.1,1.5l-23.64,6.49A1.83,1.83,0,0,1,97.71,789.13Zm-4.21-52L99,785.72,119.81,780l-1.72-44.07Z"/><path class="cls-4" d="M95.48,825.88h37.41a8.29,8.29,0,0,0,8.21-9.49c-1.25-8.45-5.32-22.47-17.52-41.75a7.28,7.28,0,0,0-6.14-3.38H106.06a3.83,3.83,0,0,0-3.81,3.43l-.86,8.21-5-6.54a111.57,111.57,0,0,0-9.25,41.08A8.3,8.3,0,0,0,95.48,825.88Z"/><path d="M132.89,827.38H95.48a9.82,9.82,0,0,1-9.8-10,111.68,111.68,0,0,1,9.4-41.69,1.5,1.5,0,0,1,2.55-.26l2.66,3.51.46-4.43a5.33,5.33,0,0,1,5.31-4.78h11.38a8.74,8.74,0,0,1,7.41,4.08c12.38,19.56,16.47,33.81,17.73,42.33a9.79,9.79,0,0,1-9.69,11.21Zm-36.1-48.06c-2.3,5.62-7.79,20.81-8.11,38.14a6.81,6.81,0,0,0,6.8,6.92h37.41a6.8,6.8,0,0,0,6.73-7.77c-1.22-8.23-5.21-22.05-17.3-41.16a5.82,5.82,0,0,0-4.88-2.69H106.06a2.32,2.32,0,0,0-2.32,2.09l-.86,8.21a1.5,1.5,0,0,1-2.69.75Z"/><path d="M137.48,818.44H92.7a1.5,1.5,0,0,1,0-3h44.78a1.5,1.5,0,1,1,0,3Z"/><path d="M180.63,423.92a8.66,8.66,0,0,0-5.43-5A133.3,133.3,0,0,0,64.73,434.81a8.67,8.67,0,0,0-4,6.72c-1.78,25-8.4,155.37,32.86,309.8l27.79-2,5.67-264s41.17,96.8,7.69,250.85l28.91,5.34s42.3-55.63,49.88-140.63C220.24,525.68,188.13,442.19,180.63,423.92Z"/><path class="cls-2" d="M100.68,629h-.06c-26-1.13-29-36.5-29-36.86a1.48,1.48,0,0,1,1.38-1.6,1.51,1.51,0,0,1,1.61,1.38c0,.33,2.77,33.07,26.15,34.08a1.5,1.5,0,0,1-.07,3Z"/><path class="cls-2" d="M129.48,511a1.5,1.5,0,0,1-1.5-1.46l-1-33a1.47,1.47,0,0,1,.64-1.27L145,463.08a1.5,1.5,0,0,1,1.73,2.45L130,477.25l1,32.22a1.51,1.51,0,0,1-1.46,1.55Z"/><path class="cls-2" d="M87.3,243.39a17.84,17.84,0,0,0,8-15.3l-.58-25.42-.51-.48s-10.19.68-11.67-4.5,5.72-6.18,5.72-6.18S81.41,177.19,99,177.36c4.72,0,6.41-7.78,14.16-9.54,0,0,3.83-.33,7.72,9.73l8.51,12.59-4.25,2.33a47.68,47.68,0,0,1,.85,15.67,4.12,4.12,0,0,1-2.84,3.47,27,27,0,0,1-5,1.09l1.37,17a25.11,25.11,0,0,0,10.62,18.52,124.74,124.74,0,0,0,11.36,7.07,209.51,209.51,0,0,1-67.42-3.94S81,247.55,87.3,243.39Z"/><path d="M120.54,257.9a212.89,212.89,0,0,1-46.82-5.08,1.49,1.49,0,0,1-.39-2.77c.07,0,7-3.83,13.15-7.91a16.26,16.26,0,0,0,7.27-14l-.56-24.4c-2.94,0-10.64-.37-12.14-5.63a5.44,5.44,0,0,1,.57-4.59,8.32,8.32,0,0,1,4.58-3.07c-.73-2.3-1.55-6.47.6-9.84,2-3.15,6-4.74,11.9-4.74H99c1.45,0,2.62-1.21,4.42-3.19,2.13-2.35,4.78-5.27,9.37-6.31a.69.69,0,0,1,.2,0c.83-.07,5.12.1,9.19,10.52l8.41,12.45a1.48,1.48,0,0,1,.22,1.19,1.54,1.54,0,0,1-.74,1l-3.28,1.79a48.81,48.81,0,0,1,.65,15.06,5.66,5.66,0,0,1-3.87,4.73,27.79,27.79,0,0,1-3.88.94L121,229.59A23.51,23.51,0,0,0,131,247a124.37,124.37,0,0,0,11.21,7,1.5,1.5,0,0,1-.5,2.81A176.25,176.25,0,0,1,120.54,257.9Zm-42.33-7.17a215.2,215.2,0,0,0,58.47,3.55c-2.05-1.24-4.68-2.89-7.43-4.82A26.49,26.49,0,0,1,118,229.83l-1.37-17a1.49,1.49,0,0,1,1.32-1.61,25,25,0,0,0,4.74-1A2.65,2.65,0,0,0,124.5,208a46.24,46.24,0,0,0-.83-15.18,1.49,1.49,0,0,1,.75-1.63l2.8-1.54-7.58-11.23a1.46,1.46,0,0,1-.16-.3c-3-7.67-5.68-8.64-6.2-8.75-3.53.87-5.6,3.14-7.6,5.35s-3.79,4.17-6.64,4.17h-.35c-4.79,0-7.94,1.13-9.36,3.35-2.16,3.39.21,8.6.23,8.65a1.51,1.51,0,0,1,0,1.36,1.49,1.49,0,0,1-1.12.77c-.88.13-3.37.76-4.28,2.17a2.44,2.44,0,0,0-.2,2.11c.94,3.28,7.8,3.58,10.13,3.42a1.58,1.58,0,0,1,1.13.41l.5.47a1.5,1.5,0,0,1,.48,1.07l.58,25.42a19.25,19.25,0,0,1-8.62,16.58h0C84.61,247,80.84,249.21,78.21,250.73Zm9.09-7.34h0Z"/><path class="cls-2" d="M118.12,212.7s-11.16.39-15.59-5.68Z"/><path d="M117.66,214.21c-2.36,0-12-.38-16.34-6.31a1.49,1.49,0,0,1,.32-2.09,1.51,1.51,0,0,1,2.1.32c3.92,5.37,14.22,5.07,14.33,5.07a1.49,1.49,0,0,1,1.55,1.45,1.5,1.5,0,0,1-1.45,1.55Z"/><path class="cls-3" d="M756.83,751.56h-60a5.11,5.11,0,0,0-5,6.33,166.33,166.33,0,0,0,14.09,36.74,18.41,18.41,0,0,0,16.29,9.85h9.2a18.44,18.44,0,0,0,16.3-9.85,166.84,166.84,0,0,0,14.09-36.74A5.11,5.11,0,0,0,756.83,751.56Z"/><path d="M731.41,806h-9.2a19.87,19.87,0,0,1-17.62-10.65,168.14,168.14,0,0,1-14.22-37.08,6.62,6.62,0,0,1,6.43-8.19h60a6.61,6.61,0,0,1,6.42,8.19A167.94,167.94,0,0,1,749,795.33,19.87,19.87,0,0,1,731.41,806ZM696.8,753.06a3.61,3.61,0,0,0-2.86,1.39,3.56,3.56,0,0,0-.66,3.08,165.21,165.21,0,0,0,14,36.4,16.89,16.89,0,0,0,15,9.05h9.2a16.88,16.88,0,0,0,15-9.05,165.21,165.21,0,0,0,14-36.4,3.53,3.53,0,0,0-.66-3.07,3.59,3.59,0,0,0-2.85-1.4Z"/><path class="cls-3" d="M716.51,600.47c.19-10.22-1.12-26.06-10-41.84-18.48-32.85-58.87-46.13-62.85-40.84-2.9,3.85,11.83,19.63,39,48.7C696.32,581.16,708.24,592.71,716.51,600.47Z"/><path class="cls-3" d="M720.74,600.78A229.05,229.05,0,0,1,722.9,552c6.64-43.34,23-65.54,26.67-70.38,2.71-3.56,15.94-20.9,21.63-18.24,4.89,2.28,2,18.34-2.35,42.2-4.07,22.13-6.11,33.2-10.31,43.61C753.87,560.78,743.62,581.09,720.74,600.78Z"/><path class="cls-3" d="M716.65,605.09c-5.46-5.21-19.51-17.12-38.29-16.49-8.73.29-19.63,3.33-19.7,6.61-.1,4.36,19,8.41,30.48,9.8A118,118,0,0,0,716.65,605.09Z"/><path class="cls-3" d="M725.72,614.38a157.86,157.86,0,0,0,10.78,15,142.35,142.35,0,0,0,16.88,17.82c12.22,10.48,32.81,22.12,37,17.68,4.08-4.27-5.76-24.55-21.44-34.74-5.17-3.36-10.52-5.32-19.83-8.73A205.29,205.29,0,0,0,725.72,614.38Z"/><path d="M727.25,747.34h-.06a1.51,1.51,0,0,1-1.44-1.56,819.14,819.14,0,0,0-6.93-138.55,1.5,1.5,0,1,1,3-.46,822.44,822.44,0,0,1,7,139.13A1.51,1.51,0,0,1,727.25,747.34Z"/><path d="M721.86,747.34a1.5,1.5,0,0,1-1.5-1.39c-.05-.71-5.64-71.82-27.35-115.27a1.5,1.5,0,0,1,2.69-1.34c22,44,27.6,115.66,27.66,116.38a1.5,1.5,0,0,1-1.39,1.61Z"/><path class="cls-4" d="M692.25,643.72a33.86,33.86,0,0,1,9,22.8c0,12.59-7.27,24.55-10.25,23.83C688.51,689.74,687.49,679.8,692.25,643.72Z"/><path class="cls-4" d="M689.61,633.61A139.68,139.68,0,0,1,652.42,665c-19.42,11.22-45.65,19.89-48.7,14.77-2.49-4.19,11-16.8,17.94-22.4C631.78,649.18,653,635.37,689.61,633.61Z"/><path class="cls-4" d="M687.6,626a107.48,107.48,0,0,0-38.21-28.94c-39.11-17.31-84-7.43-84.76,0-.38,4,12.27,4.09,47.6,20.35,23.52,10.82,32.88,17.67,48.83,16.86A58.36,58.36,0,0,0,687.6,626Z"/><path class="cls-4" d="M695,625.23c9.25-9.17,25.17-22.19,48-28.41,14.36-3.92,37.16-6.7,39.45-.72,2.46,6.42-18.56,23.29-41.14,29.64C722.05,631.16,704.91,628,695,625.23Z"/><path class="cls-3" d="M477.52,579.46l-9.92-17.14L447,568.77a83.22,83.22,0,0,0-9.75-9.76l6.4-20.63-17.16-9.88-14.66,15.91a82.66,82.66,0,0,0-13.31-3.55l-4.78-21.1-19.8,0-4.73,21.08a82.34,82.34,0,0,0-13.32,3.6l-14.69-15.87L324,538.51l6.45,20.64a82.55,82.55,0,0,0-9.77,9.75l-20.63-6.4-9.88,17.16,15.91,14.66a82.66,82.66,0,0,0-3.55,13.31l-21.1,4.78,0,19.8,21.07,4.73a81.37,81.37,0,0,0,3.61,13.32l-15.88,14.68,9.92,17.14,20.64-6.45a82.46,82.46,0,0,0,9.75,9.76L324.21,706l17.15,9.89L356,700a83.71,83.71,0,0,0,13.31,3.55l4.79,21.09,19.8,0,4.73-21.07A82.55,82.55,0,0,0,412,699.94l14.69,15.87,17.13-9.91-6.44-20.65a81.71,81.71,0,0,0,9.76-9.75l20.63,6.4,9.88-17.16L461.7,650.09a82.94,82.94,0,0,0,3.55-13.31l21.1-4.79,0-19.8-21.08-4.73a81.53,81.53,0,0,0-3.61-13.31Zm-68.08,86.86A51,51,0,1,1,428,596.67,51,51,0,0,1,409.44,666.32Z"/><path d="M364.7,723.63a1.5,1.5,0,0,1-1.46-1.17l-4.56-20.13a85,85,0,0,1-11.64-3.1l-14,15.18a1.49,1.49,0,0,1-1.86.28l-17.15-9.88a1.49,1.49,0,0,1-.69-1.74l6.11-19.69a83.76,83.76,0,0,1-8.53-8.53L291.25,681a1.5,1.5,0,0,1-1.75-.68l-9.92-17.14a1.51,1.51,0,0,1,.28-1.85l15.15-14a83.31,83.31,0,0,1-3.15-11.64l-20.12-4.52a1.5,1.5,0,0,1-1.17-1.46l0-19.8a1.5,1.5,0,0,1,1.17-1.46l20.13-4.57A85.62,85.62,0,0,1,295,592.24l-15.19-14a1.5,1.5,0,0,1-.28-1.85l9.88-17.16a1.51,1.51,0,0,1,1.75-.68l19.68,6.1a84.81,84.81,0,0,1,8.54-8.52l-6.16-19.7a1.5,1.5,0,0,1,.68-1.74L331,524.78a1.5,1.5,0,0,1,1.85.28l14,15.15a84,84,0,0,1,11.64-3.16L363,516.94a1.5,1.5,0,0,1,1.46-1.17l19.8,0h0a1.51,1.51,0,0,1,1.47,1.17l4.56,20.13a86.27,86.27,0,0,1,11.63,3.1l14-15.18a1.51,1.51,0,0,1,1.85-.28l17.16,9.88a1.5,1.5,0,0,1,.69,1.74L429.52,556a84.7,84.7,0,0,1,8.52,8.53l19.7-6.15a1.5,1.5,0,0,1,1.75.68l9.91,17.14a1.48,1.48,0,0,1-.28,1.85l-15.14,14a83.68,83.68,0,0,1,3.15,11.64l20.11,4.52a1.49,1.49,0,0,1,1.17,1.46l0,19.8a1.5,1.5,0,0,1-1.17,1.46l-20.14,4.57a83.4,83.4,0,0,1-3.1,11.63l15.18,14a1.49,1.49,0,0,1,.29,1.85l-9.88,17.16a1.5,1.5,0,0,1-1.75.68l-19.69-6.1a83.67,83.67,0,0,1-8.53,8.52l6.15,19.7a1.49,1.49,0,0,1-.68,1.74L418,714.6a1.49,1.49,0,0,1-1.85-.28l-14-15.15a84.37,84.37,0,0,1-11.64,3.16L386,722.44a1.51,1.51,0,0,1-1.46,1.17l-19.8,0ZM346.61,696a1.43,1.43,0,0,1,.5.09,81.89,81.89,0,0,0,13.08,3.49,1.5,1.5,0,0,1,1.19,1.15l4.52,19.92,17.4,0,4.47-19.9a1.5,1.5,0,0,1,1.2-1.15A80.4,80.4,0,0,0,402,696a1.49,1.49,0,0,1,1.61.39l13.87,15,15.06-8.71-6.09-19.5a1.49,1.49,0,0,1,.46-1.59,81.78,81.78,0,0,0,9.59-9.57,1.5,1.5,0,0,1,1.59-.47l19.48,6,8.69-15.08-15-13.84a1.49,1.49,0,0,1-.39-1.61A81.75,81.75,0,0,0,454.36,634a1.51,1.51,0,0,1,1.15-1.2l19.92-4.52v-17.4l-19.91-4.47a1.5,1.5,0,0,1-1.15-1.19,80.4,80.4,0,0,0-3.54-13.07,1.51,1.51,0,0,1,.39-1.62l15-13.87-8.72-15.06L438,567.69a1.5,1.5,0,0,1-1.59-.46,79.45,79.45,0,0,0-9.57-9.58,1.52,1.52,0,0,1-.47-1.59l6-19.49-15.07-8.68-13.85,15a1.5,1.5,0,0,1-1.61.4,82.06,82.06,0,0,0-13.07-3.49,1.51,1.51,0,0,1-1.2-1.14l-4.51-19.93-17.41,0-4.46,19.9a1.52,1.52,0,0,1-1.2,1.15A81.43,81.43,0,0,0,347,543.36a1.49,1.49,0,0,1-1.61-.39l-13.88-15-15.06,8.71,6.09,19.5a1.51,1.51,0,0,1-.46,1.6,80.93,80.93,0,0,0-9.58,9.57,1.5,1.5,0,0,1-1.59.46l-19.49-6-8.68,15.08,15,13.84a1.49,1.49,0,0,1,.39,1.61,82.63,82.63,0,0,0-3.49,13.07,1.47,1.47,0,0,1-1.14,1.2l-19.93,4.52,0,17.4L293.48,633a1.47,1.47,0,0,1,1.14,1.19,81.58,81.58,0,0,0,3.55,13.08,1.51,1.51,0,0,1-.39,1.61l-15,13.87,8.72,15.06L311,671.69a1.51,1.51,0,0,1,1.6.46,80.27,80.27,0,0,0,9.57,9.59,1.49,1.49,0,0,1,.46,1.59l-6,19.48,15.08,8.69,13.84-15A1.5,1.5,0,0,1,346.61,696Zm28-23.79a52.8,52.8,0,0,1-13.61-1.8,52.13,52.13,0,1,1,13.61,1.8Zm-.17-102a49.48,49.48,0,1,0,24.87,92.31h0a49.48,49.48,0,0,0-12-90.62A49.94,49.94,0,0,0,374.41,570.2Z"/><path d="M371.48,753.37a122.8,122.8,0,0,1-86.84-209.63l19.43-19.42a1.5,1.5,0,0,1,2.12,2.12l-19.43,19.42A119.81,119.81,0,0,0,456.19,715.29L535,636.53a1.49,1.49,0,0,1,2.12,0,1.51,1.51,0,0,1,0,2.12l-78.76,78.76A122,122,0,0,1,371.48,753.37Z"/><path d="M602.94,572.16a1.51,1.51,0,0,1-1.06-2.57l24.73-24.73a1.51,1.51,0,0,1,2.12,0,1.49,1.49,0,0,1,0,2.12L604,571.72A1.51,1.51,0,0,1,602.94,572.16Z"/><path d="M676.11,499a1.47,1.47,0,0,1-1.06-.44,1.51,1.51,0,0,1,0-2.12L695.47,476a1.5,1.5,0,0,1,2.12,2.13l-20.42,20.41A1.45,1.45,0,0,1,676.11,499Z"/><path d="M732.16,442.93a1.47,1.47,0,0,1-1.06-.44,1.49,1.49,0,0,1,0-2.12l66.2-66.19a1.49,1.49,0,0,1,2.12,0,1.51,1.51,0,0,1,0,2.12l-66.2,66.19A1.47,1.47,0,0,1,732.16,442.93Z"/><path d="M316,518.54a1.51,1.51,0,0,1-1.06-.44,1.49,1.49,0,0,1,0-2.12L478,352.88a1.5,1.5,0,0,1,2.13,2.12L317,518.1A1.51,1.51,0,0,1,316,518.54Z"/><path class="cls-3" d="M619.13,466.33l-7.44-12.87-15.51,4.84a61.06,61.06,0,0,0-7.32-7.33l4.81-15.49-12.89-7.42-11,11.95a62,62,0,0,0-10-2.67l-3.59-15.84H541.32l-3.55,15.83a61.45,61.45,0,0,0-10,2.71l-11-11.92-12.87,7.45,4.84,15.5a61.8,61.8,0,0,0-7.33,7.32l-15.49-4.81-7.42,12.89,11.94,11a62.6,62.6,0,0,0-2.66,10l-15.84,3.59v14.87l15.83,3.56a62,62,0,0,0,2.71,10l-11.92,11L486,543.39l15.51-4.84a61.06,61.06,0,0,0,7.32,7.33L504,561.37l12.89,7.42,11-11.94a63,63,0,0,0,10,2.66l3.59,15.85,14.87,0,3.55-15.83a61.72,61.72,0,0,0,10-2.71l11,11.93,12.87-7.45L589,545.78a61.88,61.88,0,0,0,7.33-7.33l15.49,4.81,7.42-12.89-12-11a62,62,0,0,0,2.67-10l15.84-3.59V490.91l-15.83-3.55a61.72,61.72,0,0,0-2.71-10ZM568,531.56a38.28,38.28,0,1,1,14-52.31A38.27,38.27,0,0,1,568,531.56Z"/><path d="M534.41,575A1.51,1.51,0,0,1,533,573.8l-3.37-14.88a63,63,0,0,1-8.32-2.22l-10.34,11.22a1.49,1.49,0,0,1-1.85.29l-12.88-7.42a1.51,1.51,0,0,1-.69-1.75L500,544.49a62.62,62.62,0,0,1-6.09-6.1l-14.56,4.55a1.49,1.49,0,0,1-1.74-.68l-7.45-12.87a1.49,1.49,0,0,1,.28-1.85l11.2-10.36a63,63,0,0,1-2.26-8.32l-14.86-3.34a1.5,1.5,0,0,1-1.18-1.46V489.19a1.49,1.49,0,0,1,1.17-1.46l14.88-3.38a62.84,62.84,0,0,1,2.22-8.31L470.38,465.7a1.51,1.51,0,0,1-.28-1.85L477.52,451a1.49,1.49,0,0,1,1.74-.68l14.56,4.51a61.53,61.53,0,0,1,6.1-6.09l-4.55-14.56a1.5,1.5,0,0,1,.68-1.75l12.87-7.45a1.5,1.5,0,0,1,1.85.28l10.36,11.2a63.69,63.69,0,0,1,8.32-2.26l3.34-14.86a1.49,1.49,0,0,1,1.46-1.17l14.87,0h0a1.5,1.5,0,0,1,1.46,1.17L554,434.16a64.13,64.13,0,0,1,8.32,2.22l10.34-11.22a1.5,1.5,0,0,1,1.85-.29l12.89,7.42A1.51,1.51,0,0,1,588,434l-4.51,14.55a62.62,62.62,0,0,1,6.09,6.1l14.56-4.55a1.5,1.5,0,0,1,1.74.68l7.45,12.87a1.49,1.49,0,0,1-.28,1.85L601.89,475.9a62.92,62.92,0,0,1,2.25,8.32L619,487.56a1.5,1.5,0,0,1,1.17,1.46l0,14.87a1.52,1.52,0,0,1-1.17,1.47l-14.88,3.37a66.69,66.69,0,0,1-2.22,8.32l11.22,10.33a1.51,1.51,0,0,1,.28,1.86L606,542.12a1.5,1.5,0,0,1-1.74.69l-14.55-4.52a62.62,62.62,0,0,1-6.1,6.09l4.55,14.56a1.53,1.53,0,0,1-.68,1.75l-12.88,7.45a1.51,1.51,0,0,1-1.85-.28l-10.36-11.2a62.15,62.15,0,0,1-8.32,2.26l-3.33,14.86a1.5,1.5,0,0,1-1.46,1.17l-14.87,0Zm-13.58-21.51a1.43,1.43,0,0,1,.5.09,61.06,61.06,0,0,0,9.76,2.6,1.52,1.52,0,0,1,1.2,1.15L535.61,572h12.47l3.29-14.66a1.51,1.51,0,0,1,1.2-1.15,60.48,60.48,0,0,0,9.75-2.64,1.51,1.51,0,0,1,1.62.39l10.21,11,10.79-6.25-4.48-14.35a1.51,1.51,0,0,1,.46-1.6,58.81,58.81,0,0,0,7.15-7.14,1.5,1.5,0,0,1,1.59-.46L604,539.58l6.23-10.8-11.07-10.19a1.5,1.5,0,0,1-.39-1.61,62.14,62.14,0,0,0,2.6-9.76,1.5,1.5,0,0,1,1.14-1.2l14.67-3.33V490.22l-14.65-3.29a1.48,1.48,0,0,1-1.15-1.19,59.89,59.89,0,0,0-2.65-9.76,1.5,1.5,0,0,1,.4-1.61l11-10.21-6.25-10.8-14.36,4.49a1.5,1.5,0,0,1-1.59-.46,60.37,60.37,0,0,0-7.14-7.16,1.5,1.5,0,0,1-.47-1.59l4.45-14.34L574,428.07l-10.19,11.07a1.51,1.51,0,0,1-1.61.39,61.06,61.06,0,0,0-9.76-2.6,1.5,1.5,0,0,1-1.19-1.14l-3.33-14.68-12.47,0-3.29,14.65a1.5,1.5,0,0,1-1.2,1.15,60.48,60.48,0,0,0-9.75,2.64,1.47,1.47,0,0,1-1.61-.39l-10.22-11-10.79,6.25,4.48,14.35a1.51,1.51,0,0,1-.46,1.6,59.53,59.53,0,0,0-7.15,7.14,1.5,1.5,0,0,1-1.59.46l-14.35-4.44-6.22,10.8,11.06,10.2a1.49,1.49,0,0,1,.4,1.61,59.91,59.91,0,0,0-2.6,9.75,1.51,1.51,0,0,1-1.15,1.2l-14.67,3.33v12.47L481,506.15a1.5,1.5,0,0,1,1.15,1.19,60.88,60.88,0,0,0,2.64,9.76,1.49,1.49,0,0,1-.39,1.61l-11,10.21,6.24,10.8L494,535.23a1.48,1.48,0,0,1,1.59.47,61.11,61.11,0,0,0,7.15,7.15,1.49,1.49,0,0,1,.46,1.59l-4.45,14.35L509.53,565l10.19-11.07A1.51,1.51,0,0,1,520.83,553.46Zm21-17.15A39.76,39.76,0,1,1,561.69,531,39.8,39.8,0,0,1,541.83,536.31Zm-.13-76.54a36.77,36.77,0,1,0,31.9,18.35A36.57,36.57,0,0,0,541.7,459.77Z"/><path d="M251.09,193.1a1.5,1.5,0,0,1-1.06-2.56l72.41-72.42a1.5,1.5,0,0,1,2.12,2.12l-72.41,72.42A1.53,1.53,0,0,1,251.09,193.1Z"/><path d="M177.25,220.85a1.45,1.45,0,0,1-1.06-.44,1.49,1.49,0,0,1,0-2.12L277.49,117a1.5,1.5,0,1,1,2.12,2.13l-101.3,101.3A1.48,1.48,0,0,1,177.25,220.85Z"/></g></g></g></svg>